<svg xmlns="http://www.w3.org/2000/svg" xmlns:xlink="http://www.w3.org/1999/xlink" width="150.001" height="150.001" viewBox="0 0 150.001 150.001">
  <defs>
    <clipPath id="clip-path">
      <rect id="Rect치ngulo_455573" data-name="Rect치ngulo 455573" width="76.614" height="73.436" fill="#5a5858"/>
    </clipPath>
  </defs>
  <g id="Grupo_1190416" data-name="Grupo 1190416" transform="translate(-305.059 -9426)">
    <g id="Grupo_1177670" data-name="Grupo 1177670" transform="translate(0 0.001)">
      <path id="Trazado_997691" data-name="Trazado 997691" d="M75,0A75,75,0,1,1,0,75,75,75,0,0,1,75,0Z" transform="translate(455.059 9425.999) rotate(90)" fill="#cbcbcb"/>
      <path id="Sustracci칩n_109" data-name="Sustracci칩n 109" d="M21524.061,11862h0v-150a75,75,0,1,1,0,150Z" transform="translate(12167.058 -12023.059) rotate(90)" fill="#5a5858"/>
      <path id="Trazado_997692" data-name="Trazado 997692" d="M67.738,0A67.738,67.738,0,1,1,0,67.738,67.738,67.738,0,0,1,67.738,0Z" transform="translate(312.32 9433.262)" fill="#fff"/>
      <g id="Grupo_1190843" data-name="Grupo 1190843" transform="translate(341.751 9464.281)">
        <g id="Grupo_1190842" data-name="Grupo 1190842" clip-path="url(#clip-path)">
          <path id="Trazado_998965" data-name="Trazado 998965" d="M22.819,184.1a14.657,14.657,0,0,0-2.366,1.307,18.544,18.544,0,0,0,1.177,2.269,3.3,3.3,0,0,1-1.373,4.345l-3.934,2.209a3.212,3.212,0,0,1-4.312-1.158L.392,172.539a3.133,3.133,0,0,1,1.117-4.19l3.917-2.271a3.354,3.354,0,0,1,4.625,1.119,13.586,13.586,0,0,0,1.042,1.7l11.926-6.8a10.388,10.388,0,0,1,9.377-.48,71.1,71.1,0,0,0,11.569,3.63,5.97,5.97,0,0,1,4.155,2.52,5.508,5.508,0,0,1,.2,5.366,3.347,3.347,0,0,0,1.909-.656l14.883-8.609c2.752-1.592,7.473-2.862,10.031-.138,1.945,2.071,2.176,6.37-.569,8.071L48.919,187.7a10.208,10.208,0,0,1-8.146,1.191Zm43.94-18.292-15.81,9.083a10.479,10.479,0,0,1-7.318.822,95.033,95.033,0,0,1-10.45-2.75c-.725-.22-.732-1.252-.475-1.688a1.5,1.5,0,0,1,1.635-.5c2.92.8,5.717,1.676,8.68,2.307a2.715,2.715,0,0,0,3.334-1.841,2.658,2.658,0,0,0-1.684-3.209A103.208,103.208,0,0,1,31.334,163.9a7.569,7.569,0,0,0-6.989.3l-12.07,6.913,6.9,12.131,3.232-1.8,19.038,5.065a7.857,7.857,0,0,0,6.3-.995l25.363-15.632a2.915,2.915,0,0,0,.966-2.8,2.6,2.6,0,0,0-1.783-2.295,7.315,7.315,0,0,0-5.532,1.024m-59.21,1.914L2.2,170.753l12.288,21.711,5.354-3.03Z" transform="translate(0 -121.193)" fill="#5a5858"/>
          <path id="Trazado_998966" data-name="Trazado 998966" d="M23.385,202.676a1.6,1.6,0,1,1-1.6-1.6,1.6,1.6,0,0,1,1.6,1.6" transform="translate(-15.213 -151.607)" fill="#5a5858"/>
          <path id="Trazado_998967" data-name="Trazado 998967" d="M109.413,27.2a21.792,21.792,0,0,1,3.319-17.96c-.644-.852-2.086-.736-2.17-1.959-.125-1.819,3.163-1.064,5.173-5.62a1.273,1.273,0,0,1,1.2-.815C118.2.9,118.119,2.4,119.05,3.3a21.811,21.811,0,1,1-5.467,32.2c-.705.138-.441,1.543-1.8,1.617a1.21,1.21,0,0,1-1.16-.786c-1.949-4.382-5.015-3.878-5.167-5.4-.167-1.67,2.338-1.407,3.957-3.729m5.093-16.151a18.844,18.844,0,0,0-3.094,13.242c2.425.253,1.261,3.261,5.931,5.32a1.24,1.24,0,0,1,.741,1.312c-.058,1.221-2.067,1.216-2.977,2.5a19.333,19.333,0,1,0,5.819-28.351c.79.931,2.474.923,2.329,2.224-.176,1.581-3.339,1.131-5.246,5.554a1.26,1.26,0,0,1-1.277.686c-1.21-.092-1.16-2.138-2.225-2.492m2.4-6.339L114.42,7.2l2.493,2.484L119.4,7.193Zm-5.136,23.573-2.484,2.482,2.5,2.5,2.485-2.482Z" transform="translate(-79.508 0)" fill="#5a5858"/>
          <path id="Trazado_998968" data-name="Trazado 998968" d="M73.033,52.618c-4.573,2.045-3.9,5.114-5.581,5.259a1.274,1.274,0,0,1-1.177-.749c-2.058-4.645-5.275-3.877-5.213-5.652a1.268,1.268,0,0,1,.819-1.147c4.234-1.818,3.878-5.053,5.4-5.148,1.947-.123.985,3.1,5.752,5.216a1.24,1.24,0,0,1,.711,1.093,1.223,1.223,0,0,1-.712,1.128M67.4,49.011,64.912,51.5,67.4,53.993l2.49-2.488Z" transform="translate(-46.04 -34.064)" fill="#5a5858"/>
          <path id="Trazado_998969" data-name="Trazado 998969" d="M152.921,59.248a4.251,4.251,0,0,1-.042-6.084,4.2,4.2,0,0,1,5.894-.159L162.7,56.83l9.014-9.1a4.335,4.335,0,0,1,6.119-.13,4.279,4.279,0,0,1,.052,6.074l-12.1,12.228a4.21,4.21,0,0,1-6.032.158Zm1.836-1.636,6.623,6.6a1.823,1.823,0,0,0,2.662-.063l11.979-12.085a1.847,1.847,0,0,0,.173-2.586,1.809,1.809,0,0,0-2.6-.111l-9.915,9.994a1.316,1.316,0,0,1-1.978.035l-4.539-4.515a1.791,1.791,0,0,0-2.631.145,1.865,1.865,0,0,0,.23,2.583" transform="translate(-114.32 -34.987)" fill="#5a5858"/>
        </g>
      </g>
    </g>
    <path id="Trazado_997694" data-name="Trazado 997694" d="M471.93,424.642a3.111,3.111,0,1,1,3.115,3.124,3.113,3.113,0,0,1-3.115-3.124m-13.442,0a3.115,3.115,0,1,1,3.115,3.124,3.114,3.114,0,0,1-3.115-3.124m-13.44,0a3.115,3.115,0,1,1,3.115,3.124,3.118,3.118,0,0,1-3.115-3.124" transform="translate(868.572 8985.952) rotate(90)" fill="#5a5858"/>
    <g id="Grupo_1177672" data-name="Grupo 1177672" transform="translate(326.305 9552.477) rotate(90)">
      <path id="Trazado_997699" data-name="Trazado 997699" d="M0,24.325l1.629,1.6,7.17-7.29,6.879,7.274,1.661-1.571-8.507-9Z" transform="translate(0 -6.575)" fill="#636363"/>
      <path id="Trazado_997700" data-name="Trazado 997700" d="M8.832,0,0,8.979l1.629,1.6L8.8,3.293l6.879,7.273L17.34,9Z" fill="#636363"/>
    </g>
  </g>
</svg>
