<svg xmlns="http://www.w3.org/2000/svg" xmlns:xlink="http://www.w3.org/1999/xlink" width="150.001" height="150.001" viewBox="0 0 150.001 150.001">
  <defs>
    <clipPath id="clip-path">
      <rect id="Rect치ngulo_455565" data-name="Rect치ngulo 455565" width="93.933" height="93.958" fill="#5a5858"/>
    </clipPath>
  </defs>
  <g id="Grupo_1190406" data-name="Grupo 1190406" transform="translate(-305.059 -9426)">
    <g id="Grupo_1177670" data-name="Grupo 1177670" transform="translate(0 0.001)">
      <path id="Trazado_997691" data-name="Trazado 997691" d="M75,0A75,75,0,1,1,0,75,75,75,0,0,1,75,0Z" transform="translate(455.059 9425.999) rotate(90)" fill="#cbcbcb"/>
      <path id="Sustracci칩n_109" data-name="Sustracci칩n 109" d="M21524.061,11862h0v-150a75,75,0,1,1,0,150Z" transform="translate(12167.058 -12023.059) rotate(90)" fill="#5a5858"/>
      <path id="Trazado_997692" data-name="Trazado 997692" d="M67.738,0A67.738,67.738,0,1,1,0,67.738,67.738,67.738,0,0,1,67.738,0Z" transform="translate(312.32 9433.262)" fill="#fff"/>
      <g id="Grupo_1190828" data-name="Grupo 1190828" transform="translate(333.092 9454.021)">
        <g id="Grupo_1190827" data-name="Grupo 1190827" clip-path="url(#clip-path)">
          <path id="Trazado_998903" data-name="Trazado 998903" d="M53.375,93.905l-12.149.053a1.906,1.906,0,0,1-1.943-1.318l-2.519-6.484a42.847,42.847,0,0,1-10.3-4.254L19.69,84.859a1.467,1.467,0,0,1-1.567-.342L9.559,75.973a1.787,1.787,0,0,1-.327-2.153l2.813-6.361A42.138,42.138,0,0,1,7.778,57.181L1.1,54.568A1.643,1.643,0,0,1,0,53L0,40.94a1.532,1.532,0,0,1,.9-1.45L7.78,36.762a42.646,42.646,0,0,1,4.262-10.284L9.082,19.693a1.507,1.507,0,0,1,.337-1.569l8.7-8.7a1.512,1.512,0,0,1,1.566-.338l6.789,2.961A43.016,43.016,0,0,1,36.758,7.785L39.379,1.1A1.658,1.658,0,0,1,40.937,0H52.993a1.653,1.653,0,0,1,1.572,1.1l2.607,6.679a43.515,43.515,0,0,1,10.281,4.269L73.818,9.24a1.783,1.783,0,0,1,2.154.321l8.675,8.723a1.47,1.47,0,0,1,.209,1.4L81.9,26.46a42.425,42.425,0,0,1,4.257,10.3l6.88,2.723a1.564,1.564,0,0,1,.9,1.457l0,12.06a1.657,1.657,0,0,1-1.111,1.573l-6.668,2.622a42.882,42.882,0,0,1-4.259,10.283l2.96,6.774a1.526,1.526,0,0,1-.34,1.565l-8.7,8.7a1.521,1.521,0,0,1-1.571.337L67.477,81.9a42.1,42.1,0,0,1-10.3,4.261l-2.625,6.686c-.142.363-.593,1.059-1.18,1.061m-1.295-3.033,2.9-7.237A40.656,40.656,0,0,0,66.556,78.89a1.876,1.876,0,0,1,1.651.005l6.2,2.7,7.18-7.181-2.707-6.194a2.126,2.126,0,0,1,.217-2.047,41.353,41.353,0,0,0,4.542-11.187l7.235-2.927V41.9l-7.252-2.928A42.139,42.139,0,0,0,78.8,27.182c-.371-.612.11-1.5.339-2.027l2.449-5.63-7.179-7.173L67.2,15.4A43.336,43.336,0,0,0,54.97,10.318L52.045,3.052,41.9,3.057,38.961,10.3a40.472,40.472,0,0,0-11.181,4.545,2.376,2.376,0,0,1-2.427.072L19.53,12.351l-7.185,7.177,2.723,6.224a2.094,2.094,0,0,1-.23,2.022A41.084,41.084,0,0,0,10.3,38.967L3.057,41.9V52.049l7.236,2.945A41.487,41.487,0,0,0,14.949,66.36a1.811,1.811,0,0,1,.19,1.607l-2.791,6.444,7.179,7.179,6.418-2.776a1.986,1.986,0,0,1,1.821.292,41.255,41.255,0,0,0,11.2,4.529L41.9,90.886Z" transform="translate(0 -0.001)" fill="#5a5858"/>
          <path id="Trazado_998904" data-name="Trazado 998904" d="M125.58,102.7A22.889,22.889,0,1,1,102.69,79.808,22.889,22.889,0,0,1,125.58,102.7m-3.029,0a19.86,19.86,0,1,0-19.86,19.86,19.86,19.86,0,0,0,19.86-19.86" transform="translate(-55.724 -55.729)" fill="#5a5858"/>
          <path id="Trazado_998905" data-name="Trazado 998905" d="M104.093,64.17l-4.959.257a1.849,1.849,0,0,1-1.781-.751,1.574,1.574,0,0,1,.069-1.7c.474-.6,1.189-.474,2.137-.784a27.757,27.757,0,0,0-39.2,37.2,1.505,1.505,0,0,1-.55,2,1.49,1.49,0,0,1-2.083-.533A30.82,30.82,0,0,1,101.137,58.52c-.21-1.373.058-2.051.744-2.358a1.513,1.513,0,0,1,2.142,1.029c.718,2.644,2.694,6.843.07,6.979" transform="translate(-37.387 -37.428)" fill="#5a5858"/>
          <path id="Trazado_998906" data-name="Trazado 998906" d="M87.172,138.4l5.257-.266a1.6,1.6,0,0,1,1.585.925,1.468,1.468,0,0,1-.541,1.836c-.543.321-1.162.122-1.714.513a27.767,27.767,0,0,0,39.152-37.25,1.508,1.508,0,0,1,2.636-1.463,30.818,30.818,0,0,1-43.414,41.326c.208,1.384-.06,2.06-.743,2.367a1.513,1.513,0,0,1-2.142-1.029c-.735-2.712-2.691-6.826-.075-6.959" transform="translate(-59.95 -71.186)" fill="#5a5858"/>
          <path id="Trazado_998907" data-name="Trazado 998907" d="M109,132.732a4.681,4.681,0,0,1,6.545-6.693c1.282,1.219,2.4,2.5,3.759,3.664l9.529-9.5a4.582,4.582,0,0,1,6.432.177,4.665,4.665,0,0,1,.005,6.548L122.68,139.66a4.651,4.651,0,0,1-6.673.082Zm2.046-2.275,7.092,7.122a1.688,1.688,0,0,0,2.395-.058l12.6-12.738a1.679,1.679,0,0,0-.166-2.39,1.647,1.647,0,0,0-2.174.1l-10.3,10.392a1.6,1.6,0,0,1-2.26.1L113.4,128.2a1.624,1.624,0,0,0-2.16-.095,1.645,1.645,0,0,0-.2,2.346" transform="translate(-75.132 -83.071)" fill="#5a5858"/>
        </g>
      </g>
    </g>
    <path id="Trazado_997694" data-name="Trazado 997694" d="M471.93,424.642a3.111,3.111,0,1,1,3.115,3.124,3.113,3.113,0,0,1-3.115-3.124m-13.442,0a3.115,3.115,0,1,1,3.115,3.124,3.114,3.114,0,0,1-3.115-3.124m-13.44,0a3.115,3.115,0,1,1,3.115,3.124,3.118,3.118,0,0,1-3.115-3.124" transform="translate(868.572 8985.952) rotate(90)" fill="#5a5858"/>
    <g id="Grupo_1177672" data-name="Grupo 1177672" transform="translate(326.305 9552.477) rotate(90)">
      <path id="Trazado_997699" data-name="Trazado 997699" d="M0,24.325l1.629,1.6,7.17-7.29,6.879,7.274,1.661-1.571-8.507-9Z" transform="translate(0 -6.575)" fill="#636363"/>
      <path id="Trazado_997700" data-name="Trazado 997700" d="M8.832,0,0,8.979l1.629,1.6L8.8,3.293l6.879,7.273L17.34,9Z" fill="#636363"/>
    </g>
  </g>
</svg>
