<svg xmlns="http://www.w3.org/2000/svg" xmlns:xlink="http://www.w3.org/1999/xlink" width="150.001" height="150.001" viewBox="0 0 150.001 150.001">
  <defs>
    <clipPath id="clip-path">
      <rect id="Rectángulo_455564" data-name="Rectángulo 455564" width="80.981" height="80.689" fill="#5a5858"/>
    </clipPath>
  </defs>
  <g id="Grupo_1190405" data-name="Grupo 1190405" transform="translate(-305.059 -9426)">
    <g id="Grupo_1177670" data-name="Grupo 1177670" transform="translate(0 0.001)">
      <path id="Trazado_997691" data-name="Trazado 997691" d="M75,0A75,75,0,1,1,0,75,75,75,0,0,1,75,0Z" transform="translate(455.059 9425.999) rotate(90)" fill="#cbcbcb"/>
      <path id="Sustracción_109" data-name="Sustracción 109" d="M21524.061,11862h0v-150a75,75,0,1,1,0,150Z" transform="translate(12167.058 -12023.059) rotate(90)" fill="#5a5858"/>
      <path id="Trazado_997692" data-name="Trazado 997692" d="M67.738,0A67.738,67.738,0,1,1,0,67.738,67.738,67.738,0,0,1,67.738,0Z" transform="translate(312.32 9433.262)" fill="#fff"/>
      <g id="Grupo_1190826" data-name="Grupo 1190826" transform="translate(339.569 9460.654)">
        <g id="Grupo_1190825" data-name="Grupo 1190825" clip-path="url(#clip-path)">
          <path id="Trazado_998892" data-name="Trazado 998892" d="M74.907,37.055l-19.036.021a2.6,2.6,0,0,1-2.7-2.723l.022-8.407a2.493,2.493,0,0,1,2.64-2.471l18.973,0a2.469,2.469,0,0,1,2.582,2.473l0,8.687a2.438,2.438,0,0,1-2.481,2.419m.083-11.094H55.6V34.6H74.989Z" transform="translate(-38.325 -16.919)" fill="#5a5858"/>
          <rect id="Rectángulo_455562" data-name="Rectángulo 455562" width="18.869" height="2.412" transform="translate(39.259 60.822)" fill="#5a5858"/>
          <rect id="Rectángulo_455563" data-name="Rectángulo 455563" width="18.867" height="2.474" transform="translate(39.261 54.932)" fill="#5a5858"/>
          <path id="Trazado_998893" data-name="Trazado 998893" d="M93.132,125.822l-12.343.022a1.238,1.238,0,0,1-1.194-1.221c-.026-.753.532-1.259,1.4-1.258l12.011.013a1.26,1.26,0,0,1,1.263,1.067,1.228,1.228,0,0,1-1.141,1.378" transform="translate(-57.367 -88.913)" fill="#5a5858"/>
          <path id="Trazado_998894" data-name="Trazado 998894" d="M66.941,107.044l-12.382.031a1.214,1.214,0,1,1-.013-2.428l12.236-.006a1.231,1.231,0,0,1,1.208.937,1.159,1.159,0,0,1-1.049,1.466" transform="translate(-38.431 -75.418)" fill="#5a5858"/>
          <path id="Trazado_998895" data-name="Trazado 998895" d="M92.882,85.948a1.233,1.233,0,0,1,1.4,1.131,1.15,1.15,0,0,1-1.239,1.266l-12.291-.015A1.145,1.145,0,0,1,79.6,87.043c.043-.7.575-1.1,1.406-1.1Z" transform="translate(-57.372 -61.944)" fill="#5a5858"/>
          <path id="Trazado_998896" data-name="Trazado 998896" d="M57.974,125.678c-1.658-.016-4.645.616-4.653-1.188-.008-1.634,2.331-1.3,4.278-1.235a1.242,1.242,0,0,1,1.268.994,1.327,1.327,0,0,1-.893,1.43" transform="translate(-38.43 -88.783)" fill="#5a5858"/>
          <path id="Trazado_998897" data-name="Trazado 998897" d="M117.018,106.843c-1.727.236-4.7.491-4.646-1.169.047-1.582,2.218-1.235,4.278-1.186a1.252,1.252,0,0,1,1.238,1.015,1.159,1.159,0,0,1-.87,1.34" transform="translate(-80.99 -75.261)" fill="#5a5858"/>
          <path id="Trazado_998898" data-name="Trazado 998898" d="M58.881,86.941c.135,1.687-2.327,1.261-4.35,1.25a1.112,1.112,0,0,1-1.2-1c-.234-1.769,2.246-1.424,4.281-1.368a1.2,1.2,0,0,1,1.265,1.121" transform="translate(-38.43 -61.808)" fill="#5a5858"/>
          <path id="Trazado_998899" data-name="Trazado 998899" d="M66.468,62.918c-.4,1.9-.18,3.163-1.237,4.331A4.733,4.733,0,0,1,61.606,68.8l-28.022-.014a27.935,27.935,0,0,1-15.012,11.9A28.026,28.026,0,0,1,4.732,70.646,25.815,25.815,0,0,1,2.087,45.558a27.948,27.948,0,0,0,6.556-.83L8.664,4.346A4.268,4.268,0,0,1,13.067,0H61.872a4.218,4.218,0,0,1,4.341,4.128l.051,15.551a17.732,17.732,0,0,1,1.847,27.153,1.926,1.926,0,0,0,2.3,1.95l9.843,17.036a5.219,5.219,0,1,1-9.086,5.135Zm-4.443,3.391a1.836,1.836,0,0,0,1.76-1.962c-.1-2.1.181-4.05-.113-6.152-.2-1.425-2.025-2.84-2.091-4.313.136-.78.521-2.563-.712-2.808A17.726,17.726,0,1,1,63.7,18.128l.064-14.07c0-.917-.847-1.455-1.712-1.606l-49.158.012A1.826,1.826,0,0,0,11.1,4.338V43.877a20.328,20.328,0,0,0,6.51-3.969,1.314,1.314,0,0,1,1.793-.059A22.211,22.211,0,0,0,34.957,45.5a26.094,26.094,0,0,1-.09,20.806Zm9.123-32.268A15.258,15.258,0,1,0,55.89,49.3,15.258,15.258,0,0,0,71.148,34.041M18.677,78.1a25.624,25.624,0,0,0,12.542-10.15,23.705,23.705,0,0,0,2.1-20.064,24.426,24.426,0,0,1-14.813-5.54A24.166,24.166,0,0,1,3.79,47.9,23.307,23.307,0,0,0,7.559,70.346,25.149,25.149,0,0,0,18.677,78.1M66.061,48.572l-2.674,1.535.819,1.426L66.879,50Zm7.377,21.364a2.729,2.729,0,0,0,3.932.8,2.788,2.788,0,0,0,.778-3.691L69.165,51.522l-4.774,2.786Z" transform="translate(0)" fill="#5a5858"/>
          <path id="Trazado_998900" data-name="Trazado 998900" d="M178.995,87.383a13.372,13.372,0,1,1-13.372-13.372,13.372,13.372,0,0,1,13.372,13.372m-2.441,0a10.93,10.93,0,1,0-10.93,10.93,10.93,10.93,0,0,0,10.93-10.93" transform="translate(-109.733 -53.342)" fill="#5a5858"/>
          <path id="Trazado_998901" data-name="Trazado 998901" d="M42.548,164.024c4.783,11.03-.937,22.766-12.307,26.655-11.307-3.733-17.131-15.362-12.423-26.637a16.419,16.419,0,0,0,11.587-4.216,1.378,1.378,0,0,1,1.79.191,16.434,16.434,0,0,0,11.352,4.007M31.8,187.416a17.039,17.039,0,0,0,9.08-21A18.49,18.49,0,0,1,30.2,162.387a18.9,18.9,0,0,1-10.686,4.047,17.015,17.015,0,0,0,9.128,20.995,2.832,2.832,0,0,0,3.151-.012" transform="translate(-11.661 -115.018)" fill="#5a5858"/>
          <path id="Trazado_998902" data-name="Trazado 998902" d="M49.864,206.672c-1.722,1.9-3.219-1.265-5.24-4.044a1.284,1.284,0,0,1,.26-1.58,1.218,1.218,0,0,1,1.691.183l2.241,2.9,5.966-6.445c.453-.489,1.35-.194,1.674.2a1.262,1.262,0,0,1-.1,1.628Z" transform="translate(-32.037 -142.297)" fill="#5a5858"/>
        </g>
      </g>
    </g>
    <path id="Trazado_997694" data-name="Trazado 997694" d="M471.93,424.642a3.111,3.111,0,1,1,3.115,3.124,3.113,3.113,0,0,1-3.115-3.124m-13.442,0a3.115,3.115,0,1,1,3.115,3.124,3.114,3.114,0,0,1-3.115-3.124m-13.44,0a3.115,3.115,0,1,1,3.115,3.124,3.118,3.118,0,0,1-3.115-3.124" transform="translate(868.572 8985.952) rotate(90)" fill="#5a5858"/>
    <g id="Grupo_1177672" data-name="Grupo 1177672" transform="translate(326.305 9552.477) rotate(90)">
      <path id="Trazado_997699" data-name="Trazado 997699" d="M0,24.325l1.629,1.6,7.17-7.29,6.879,7.274,1.661-1.571-8.507-9Z" transform="translate(0 -6.575)" fill="#636363"/>
      <path id="Trazado_997700" data-name="Trazado 997700" d="M8.832,0,0,8.979l1.629,1.6L8.8,3.293l6.879,7.273L17.34,9Z" fill="#636363"/>
    </g>
  </g>
</svg>
