<svg xmlns="http://www.w3.org/2000/svg" xmlns:xlink="http://www.w3.org/1999/xlink" width="150.001" height="150.001" viewBox="0 0 150.001 150.001">
  <defs>
    <clipPath id="clip-path">
      <rect id="Rectángulo_455571" data-name="Rectángulo 455571" width="73.458" height="69.128" fill="#5a5858"/>
    </clipPath>
  </defs>
  <g id="Grupo_1190414" data-name="Grupo 1190414" transform="translate(-305.059 -9426)">
    <g id="Grupo_1177670" data-name="Grupo 1177670" transform="translate(0 0.001)">
      <path id="Trazado_997691" data-name="Trazado 997691" d="M75,0A75,75,0,1,1,0,75,75,75,0,0,1,75,0Z" transform="translate(455.059 9425.999) rotate(90)" fill="#cbcbcb"/>
      <path id="Sustracción_109" data-name="Sustracción 109" d="M21524.061,11862h0v-150a75,75,0,1,1,0,150Z" transform="translate(12167.058 -12023.059) rotate(90)" fill="#5a5858"/>
      <path id="Trazado_997692" data-name="Trazado 997692" d="M67.738,0A67.738,67.738,0,1,1,0,67.738,67.738,67.738,0,0,1,67.738,0Z" transform="translate(312.32 9433.262)" fill="#fff"/>
      <g id="Grupo_1190839" data-name="Grupo 1190839" transform="translate(343.331 9464.436)">
        <rect id="Rectángulo_455570" data-name="Rectángulo 455570" width="23.84" height="2.418" transform="translate(42.87 16.094)" fill="#5a5858"/>
        <g id="Grupo_1190838" data-name="Grupo 1190838">
          <g id="Grupo_1190837" data-name="Grupo 1190837" clip-path="url(#clip-path)">
            <path id="Trazado_998945" data-name="Trazado 998945" d="M228.142,44.28l-12.424.021a1.215,1.215,0,1,1-.015-2.42l12.325.008a1.164,1.164,0,0,1,1.227,1.083,1.13,1.13,0,0,1-1.112,1.308" transform="translate(-162.551 -31.756)" fill="#5a5858"/>
            <path id="Trazado_998946" data-name="Trazado 998946" d="M255.242,116.86c.109,1.791-2.945,1.337-5.325,1.3a1.2,1.2,0,0,1-1.267-1.06,1.09,1.09,0,0,1,1.006-1.316l4.373-.026a1.134,1.134,0,0,1,1.212,1.1" transform="translate(-188.532 -87.774)" fill="#5a5858"/>
            <path id="Trazado_998947" data-name="Trazado 998947" d="M262.444,166.1c-.064,1.4-2.364,1.235-3.371,1.04a1.183,1.183,0,0,1-.923-1.038,1.11,1.11,0,0,1,.923-1.243,8.748,8.748,0,0,1,2.6.032,1.083,1.083,0,0,1,.765,1.209" transform="translate(-195.738 -124.942)" fill="#5a5858"/>
            <path id="Trazado_998948" data-name="Trazado 998948" d="M261.206,142.537c-1.318.074-3.008.239-3.092-1.162a1.207,1.207,0,0,1,1.182-1.23c1.2-.054,3-.265,3.121.986a1.2,1.2,0,0,1-1.211,1.405" transform="translate(-195.712 -106.229)" fill="#5a5858"/>
            <path id="Trazado_998949" data-name="Trazado 998949" d="M154.2,123.794a13.259,13.259,0,1,1-13.259-13.259A13.259,13.259,0,0,1,154.2,123.794m-2.42,0a10.84,10.84,0,1,0-10.84,10.84,10.839,10.839,0,0,0,10.84-10.84" transform="translate(-96.816 -83.813)" fill="#5a5858"/>
            <path id="Trazado_998950" data-name="Trazado 998950" d="M1.157,69.339a13.519,13.519,0,0,0,1.62-.149L2.8,46.877a1.274,1.274,0,0,1,1.357-1.286l6.787,0a1.3,1.3,0,0,1,1.4,1.259l.022,22.364A6.189,6.189,0,0,0,14.8,69.2l.012-32.015a1.171,1.171,0,0,1,1.2-1.165l7.018-.012a1.194,1.194,0,0,1,1.279,1.177l.02,31.991a5.511,5.511,0,0,0,2.541.016l-.2-24.66c-.06-7.341,2.9-14.174,9.594-17.555L36.254,11.73l8.27-8.254,27.565-.019a1.294,1.294,0,0,1,1.456,1.352l0,47.048a1.176,1.176,0,0,1-.982,1.235l-10.831.059c.316.539.882.652,1.3,1.069l9.147,9.2a4.806,4.806,0,0,1-.058,6.767c-1.764,1.768-4.872,2.251-6.8.328l-9.4-9.389-2.507-3.5a23.388,23.388,0,0,1-5.075,2.03l.032,9.446c0,.493,2.645-.334,2.655,1.318a1.219,1.219,0,0,1-1.209,1.3l-48.266,0a1.265,1.265,0,0,1-1.392-.9,1.155,1.155,0,0,1,1-1.48M65.562,24.645a1.2,1.2,0,1,1,.007,2.405l-13.2-.005a17.623,17.623,0,0,1,7.441,23.644l11.311-.034,0-44.767L47.068,5.879l-.114,7.1a1.2,1.2,0,0,1-1.2,1.19l-7.106.085.029,11.689a18.436,18.436,0,0,1,13.794,1.107c-.5-.759-.68-1.194-.479-1.622a1.28,1.28,0,0,1,1.263-.793Zm-21-12.944c-.068-1.811.114-3.215-.1-4.761l-4.721,4.719a34.257,34.257,0,0,0,4.826.042M59.33,42.6A15.116,15.116,0,1,0,44.214,57.717,15.115,15.115,0,0,0,59.33,42.6M21.9,38.419H17.225V69.3H21.9ZM9.938,48H5.209V69.3H9.938ZM33.891,69.247l-.007-12.465a22.927,22.927,0,0,1-4.6-4.772l-.064,17.173a25.722,25.722,0,0,0,4.669.064M57.122,58.461l3.187-3.178a23.055,23.055,0,0,0-2.425-1.625l-2.437,2.436a9.043,9.043,0,0,0,1.675,2.366m9.569,10.076a2.61,2.61,0,0,0,3.6.051,2.429,2.429,0,0,0,.169-3.472l-8.236-8.275-3.606,3.6Zm-27.883.507L38.759,59.3a16.673,16.673,0,0,0-2.44-.9l0,10.847a4.166,4.166,0,0,0,2.486-.2m7.09.154-.03-9.1a23.79,23.79,0,0,1-4.651-.2l.033,9.4a41,41,0,0,0,4.648-.1" transform="translate(-0.088 -2.621)" fill="#5a5858"/>
            <path id="Trazado_998951" data-name="Trazado 998951" d="M168.4,159.5c-1.23-1.265-3.847-3-2.381-4.179,1.249-1,2.211.944,3.244,1.579l3.939-4.228a1.221,1.221,0,0,1,1.553-.275,1.184,1.184,0,0,1,.35,1.726l-4.8,5.316a1.313,1.313,0,0,1-1.908.06" transform="translate(-125.555 -115.425)" fill="#5a5858"/>
            <path id="Trazado_998952" data-name="Trazado 998952" d="M14.26,27.518l11.771.047a13.041,13.041,0,1,1-11.8-11.817Zm-2.652.594c.709-3.224-.1-6.686.249-9.89a10.541,10.541,0,0,0-6.77,17.469c1.977-2.7,4.92-4.755,6.52-7.579m11.867,1.866-9.959-.007L6.871,37.341a10.49,10.49,0,0,0,10.751.917,10.3,10.3,0,0,0,5.853-8.28" transform="translate(0 -11.9)" fill="#5a5858"/>
            <path id="Trazado_998953" data-name="Trazado 998953" d="M78.77,14.219l-14.177,0L64.565.066a13.012,13.012,0,0,1,14.2,14.154m-2.441-2.489a10.589,10.589,0,0,0-9.318-9.242l0,9.309Z" transform="translate(-48.956 0.001)" fill="#5a5858"/>
          </g>
        </g>
      </g>
    </g>
    <path id="Trazado_997694" data-name="Trazado 997694" d="M471.93,424.642a3.111,3.111,0,1,1,3.115,3.124,3.113,3.113,0,0,1-3.115-3.124m-13.442,0a3.115,3.115,0,1,1,3.115,3.124,3.114,3.114,0,0,1-3.115-3.124m-13.44,0a3.115,3.115,0,1,1,3.115,3.124,3.118,3.118,0,0,1-3.115-3.124" transform="translate(868.572 8985.952) rotate(90)" fill="#5a5858"/>
    <g id="Grupo_1177672" data-name="Grupo 1177672" transform="translate(326.305 9552.477) rotate(90)">
      <path id="Trazado_997699" data-name="Trazado 997699" d="M0,24.325l1.629,1.6,7.17-7.29,6.879,7.274,1.661-1.571-8.507-9Z" transform="translate(0 -6.575)" fill="#636363"/>
      <path id="Trazado_997700" data-name="Trazado 997700" d="M8.832,0,0,8.979l1.629,1.6L8.8,3.293l6.879,7.273L17.34,9Z" fill="#636363"/>
    </g>
  </g>
</svg>
