<svg xmlns="http://www.w3.org/2000/svg" xmlns:xlink="http://www.w3.org/1999/xlink" width="150" height="150" viewBox="0 0 150 150">
  <defs>
    <clipPath id="clip-path">
      <rect id="Rectángulo_455540" data-name="Rectángulo 455540" width="90.223" height="90.249" fill="#674a11"/>
    </clipPath>
  </defs>
  <g id="Grupo_1177834" data-name="Grupo 1177834" transform="translate(-383.746 -8400)">
    <circle id="Elipse_13609" data-name="Elipse 13609" cx="75" cy="75" r="75" transform="translate(383.746 8400)" fill="#fff"/>
    <g id="Grupo_1099776" data-name="Grupo 1099776" transform="translate(413.873 8429.258)">
      <g id="Grupo_1099618" data-name="Grupo 1099618" transform="translate(0 0)">
        <rect id="Rectángulo_401104" data-name="Rectángulo 401104" width="90.569" height="91.661" transform="translate(0)" fill="none"/>
      </g>
      <g id="Grupo_1190800" data-name="Grupo 1190800" transform="translate(0 1.413)">
        <rect id="Rectángulo_455535" data-name="Rectángulo 455535" width="2.879" height="3.002" transform="translate(8.734 46.552)" fill="#674a11"/>
        <rect id="Rectángulo_455536" data-name="Rectángulo 455536" width="2.879" height="2.984" transform="translate(78.613 46.552)" fill="#674a11"/>
        <g id="Grupo_1190799" data-name="Grupo 1190799">
          <g id="Grupo_1190798" data-name="Grupo 1190798" clip-path="url(#clip-path)">
            <path id="Trazado_998736" data-name="Trazado 998736" d="M33.8,136.785a5.257,5.257,0,0,1-2.835,0,14.028,14.028,0,0,1,.022-2.73,12.241,12.241,0,0,1,2.741.023,14.267,14.267,0,0,1,.072,2.708" transform="translate(-22.197 -96.212)" fill="#674a11"/>
            <path id="Trazado_998737" data-name="Trazado 998737" d="M281.66,136.75a5.269,5.269,0,0,1-2.83.069,10.066,10.066,0,0,1,.017-2.745,12.135,12.135,0,0,1,2.744-.015,24.368,24.368,0,0,1,.069,2.691" transform="translate(-200.155 -96.211)" fill="#674a11"/>
            <path id="Trazado_998738" data-name="Trazado 998738" d="M33.8,198.749a6,6,0,0,1-2.828,0,15.061,15.061,0,0,1,.009-2.736,13.577,13.577,0,0,1,2.756.012,14.252,14.252,0,0,1,.063,2.723" transform="translate(-22.197 -140.703)" fill="#674a11"/>
            <rect id="Rectángulo_455537" data-name="Rectángulo 455537" width="2.879" height="2.921" transform="translate(78.613 55.261)" fill="#674a11"/>
            <path id="Trazado_998739" data-name="Trazado 998739" d="M22.456,40.679A8.2,8.2,0,0,1,24.424,38.6l3.415,3.17,9.017-9a10.058,10.058,0,0,1,2.084,1.985L27.826,45.9Z" transform="translate(-16.125 -23.535)" fill="#674a11"/>
            <path id="Trazado_998740" data-name="Trazado 998740" d="M256.226,44.758l-4.9-4.143-4.8,4.133a13.865,13.865,0,0,1-1.89-2.083l4.428-4.063-4.4-3.93a8.575,8.575,0,0,1,1.853-2.15l4.772,4.137,4.823-4.119a8.318,8.318,0,0,1,1.946,2.114L253.638,38.6l4.376,3.987a12.14,12.14,0,0,1-1.788,2.168" transform="translate(-175.665 -23.353)" fill="#674a11"/>
            <path id="Trazado_998741" data-name="Trazado 998741" d="M56,90.2l-14.546.049a4.168,4.168,0,0,1-2.843-.877,10.959,10.959,0,0,1-11.17-1.638,11.44,11.44,0,0,1-4.024-10.8c-3.4-3.057-5.861-7.084-5.871-11.809L17.48,36.11a30,30,0,0,1,1.087-7.561,14.555,14.555,0,1,1,10.52-14.682,27.565,27.565,0,0,1,32.051-.007,14.545,14.545,0,1,1,10.515,14.7,30.777,30.777,0,0,1,1.1,8.394l-.074,28.166c-.012,4.73-2.463,8.738-5.873,11.826C67.895,83.743,63.082,90.175,56,90.2M26.19,14.553A11.635,11.635,0,1,0,14.555,26.188,11.635,11.635,0,0,0,26.19,14.553m61.116,0A11.636,11.636,0,1,0,75.67,26.186,11.636,11.636,0,0,0,87.305,14.551M41.389,30.29a5.109,5.109,0,0,1-3.234-6.6,5.171,5.171,0,0,1,6.4-3.089,6.757,6.757,0,0,1,4.3,9.433,8.678,8.678,0,0,0,6.024,1.935,3.464,3.464,0,0,0,3.093-4.51A2.082,2.082,0,0,0,55.5,26.272a2.711,2.711,0,0,0-1.717,1.893A10.138,10.138,0,0,1,51.2,27.042a5.053,5.053,0,1,1,9.682,2.884c-.408,1.392,3.174,1.3,3.171,5.3l-.006,9.888A19.043,19.043,0,0,1,51.8,62.8c-.164.352,0,1.276.4,1.444,1.667.7,3.391,1.06,5.13,1.633a14.033,14.033,0,0,1,8.607,7.873,13.162,13.162,0,0,0,3.868-8.947l-.027-29.034c0-2.776-.354-6.565-2.048-8.708-2.725-2.764-5.532-5.2-6.221-9.234a24.841,24.841,0,0,0-32.794,0c-.674,4.054-3.541,6.458-6.212,9.252-1.778,2.193-2.062,6.114-2.063,8.97l-.005,29a13.011,13.011,0,0,0,3.847,8.7,14.054,14.054,0,0,1,8.4-7.791c1.8-.622,3.616-.974,5.35-1.7.4-.167.574-1.1.393-1.451-7.072-2.785-12.2-9.411-12.212-17.127l-.016-10.436a4.462,4.462,0,0,1,2.895-4.114c-.234-.468-.758-.774-.55-1.183A9.215,9.215,0,0,1,30.008,28c3.486,2.545,7.626,4.267,12.032,3.937a4.914,4.914,0,0,0,4.432-5.657,3.425,3.425,0,0,0-4.523-2.738,2.044,2.044,0,0,0-1.1,2.47c.164.749.915,1.306,1.91,1.723a5.468,5.468,0,0,1-1.369,2.55m17.687,2.948c-3.686,2.862-8.221,1.735-11.808-.706-4.158,4.022-10.159,2.214-14.905.36a7.234,7.234,0,0,0-3.2,1.718l-.035,10.8a15.986,15.986,0,0,0,31.96.262c.116-3.677.068-7.262-.018-10.9-.016-.7-1.441-1.869-1.991-1.527M47.193,69.7c.676-1.192,1.034-2.317,1.734-3.351.395-.582.5-2.565-.412-2.513a28.917,28.917,0,0,1-6.831-.058c-.561-.1-.855,1.515-.593,2.036l1.972,3.914a11.193,11.193,0,0,0,4.129-.029m-7.361.26a15.662,15.662,0,0,0-1.3-2.651,31.668,31.668,0,0,0-4.678,1.4l1.9,9.24c4.591-2.018-.424-5.568,4.075-7.986m12.7,9.919c.064.34,1.261.269,1.589.023l2.232-11.259a38.76,38.76,0,0,0-4.661-1.326,13.433,13.433,0,0,0-1.271,2.631c.87.532,1.879,1.166,1.908,2.271ZM38.941,79.26,32.9,84.029a15.944,15.944,0,0,1-1.679-2.217l1.941-1.752L31.071,70a10.676,10.676,0,0,0-4.827,9.777,8.209,8.209,0,0,0,4.935,6.847,8.363,8.363,0,0,0,8.676-1.33l2.837-2.284a2.473,2.473,0,0,0,.774-2.858,2.541,2.541,0,0,0-2.577-1.562,2.984,2.984,0,0,0-1.95.672M52.431,83l.039,4.261c.9.148,1.648-.023,2.538.04a8.284,8.284,0,0,0,9-8.072A10.7,10.7,0,0,0,59.159,70l-2.048,9.744c1.515.633,1.164,1.322.946,3.137ZM42.326,87.249l7.128.028.042-14.49-8.623-.05a5.965,5.965,0,0,0,0,2.9,5.436,5.436,0,0,1,3.431,9.835,7.588,7.588,0,0,0-1.982,1.775" transform="translate(0 0)" fill="#674a11"/>
            <path id="Trazado_998742" data-name="Trazado 998742" d="M151.4,188.686a14.5,14.5,0,0,0-7.868,2.662,11.131,11.131,0,0,1-1.581-2.378,15.731,15.731,0,0,1,9.388-3.127,13.729,13.729,0,0,1,.061,2.844" transform="translate(-101.93 -133.446)" fill="#674a11"/>
            <rect id="Rectángulo_455538" data-name="Rectángulo 455538" width="2.853" height="5.85" transform="translate(34.955 40.72)" fill="#674a11"/>
            <rect id="Rectángulo_455539" data-name="Rectángulo 455539" width="2.855" height="5.85" transform="translate(52.417 40.722)" fill="#674a11"/>
          </g>
        </g>
      </g>
    </g>
  </g>
</svg>
