<svg xmlns="http://www.w3.org/2000/svg" xmlns:xlink="http://www.w3.org/1999/xlink" width="396" height="982" viewBox="0 0 396 982">
  <defs>
    <clipPath id="clip-path">
      <rect id="Rectángulo_455046" data-name="Rectángulo 455046" width="916" height="171.73" fill="none"/>
    </clipPath>
    <clipPath id="clip-path-2">
      <rect id="Rectángulo_455054" data-name="Rectángulo 455054" width="61.353" height="61.374" fill="#12263f"/>
    </clipPath>
    <clipPath id="clip-path-3">
      <rect id="Rectángulo_455056" data-name="Rectángulo 455056" width="60.705" height="66.284" fill="#12263f"/>
    </clipPath>
    <clipPath id="clip-path-4">
      <rect id="Rectángulo_455057" data-name="Rectángulo 455057" width="64.317" height="64.323" fill="#12263f"/>
    </clipPath>
  </defs>
  <g id="Grupo_1190968" data-name="Grupo 1190968" transform="translate(8391.258 8202)">
    <rect id="Rectángulo_454992" data-name="Rectángulo 454992" width="982" height="396" rx="14" transform="translate(-7995.258 -8202) rotate(90)" fill="#ffedb1"/>
    <path id="Trazado_997960" data-name="Trazado 997960" d="M0,0H15.835" transform="translate(-8277.706 -8004.983) rotate(90)" fill="none" stroke="#674a11" stroke-linecap="round" stroke-width="5"/>
    <path id="Trazado_997993" data-name="Trazado 997993" d="M0,0H15.835" transform="translate(-8192.528 -8089)" fill="none" stroke="#ffd54e" stroke-linecap="round" stroke-width="5"/>
    <path id="Trazado_997994" data-name="Trazado 997994" d="M0,0H15.835" transform="translate(-8192.528 -7900)" fill="none" stroke="#fc9d83" stroke-linecap="round" stroke-width="5"/>
    <path id="Trazado_997995" data-name="Trazado 997995" d="M0,0H15.835" transform="translate(-8192.528 -7711)" fill="none" stroke="#ffd54e" stroke-linecap="round" stroke-width="5"/>
    <path id="Trazado_997996" data-name="Trazado 997996" d="M0,0H15.835" transform="translate(-8192.528 -7522)" fill="none" stroke="#fc9d83" stroke-linecap="round" stroke-width="5"/>
    <path id="Trazado_997997" data-name="Trazado 997997" d="M0,0H15.835" transform="translate(-8192.528 -7333)" fill="none" stroke="#ffd54e" stroke-linecap="round" stroke-width="5"/>
    <path id="Trazado_997990" data-name="Trazado 997990" d="M0,0H15.835" transform="translate(-8277.706 -7815.983) rotate(90)" fill="none" stroke="#674a11" stroke-linecap="round" stroke-width="5"/>
    <path id="Trazado_997991" data-name="Trazado 997991" d="M0,0H15.835" transform="translate(-8277.706 -7627) rotate(90)" fill="none" stroke="#674a11" stroke-linecap="round" stroke-width="5"/>
    <path id="Trazado_997992" data-name="Trazado 997992" d="M0,0H15.835" transform="translate(-8277.206 -7437.992) rotate(90)" fill="none" stroke="#674a11" stroke-linecap="round" stroke-width="5"/>
    <g id="Grupo_1177838" data-name="Grupo 1177838" transform="translate(-8192.528 -8169) rotate(90)">
      <g id="Grupo_1177837" data-name="Grupo 1177837" clip-path="url(#clip-path)">
        <path id="Trazado_997970" data-name="Trazado 997970" d="M135.685,67.842a67.842,67.842,0,1,0-67.843,67.842,67.842,67.842,0,0,0,67.843-67.842" transform="translate(390.211 23.653)" fill="#ffd54e"/>
        <path id="Trazado_997971" data-name="Trazado 997971" d="M44.2,0a2.044,2.044,0,0,0-.945.232,80.235,80.235,0,1,0,73.952,0,2.053,2.053,0,0,0-1.895,3.643,76.124,76.124,0,1,1-70.163,0A2.053,2.053,0,0,0,44.2,0" transform="translate(377.82 20.046)" fill="#ffd54e"/>
        <path id="Trazado_997972" data-name="Trazado 997972" d="M24.424,0A24.424,24.424,0,1,0,48.848,24.424,24.452,24.452,0,0,0,24.424,0" transform="translate(433.629 2.566)" fill="#ffedb1"/>
        <path id="Trazado_997973" data-name="Trazado 997973" d="M26.99,48.848A21.858,21.858,0,1,0,5.133,26.99,21.883,21.883,0,0,0,26.99,48.848m0,5.133a26.99,26.99,0,1,1,26.99-26.99,26.991,26.991,0,0,1-26.99,26.99" transform="translate(431.063 0)" fill="#ffd54e"/>
        <path id="Trazado_997974" data-name="Trazado 997974" d="M135.685,67.842a67.842,67.842,0,1,0-67.842,67.842,67.842,67.842,0,0,0,67.842-67.842" transform="translate(12.39 23.653)" fill="#ffd54e"/>
        <path id="Trazado_997975" data-name="Trazado 997975" d="M116.261,0a2.053,2.053,0,0,0-.949,3.875,76.125,76.125,0,1,1-70.163,0A2.053,2.053,0,1,0,43.255.232a80.235,80.235,0,1,0,73.951,0A2.043,2.043,0,0,0,116.261,0" transform="translate(0 20.046)" fill="#ffd54e"/>
        <path id="Trazado_997976" data-name="Trazado 997976" d="M24.424,0A24.424,24.424,0,1,0,48.848,24.424,24.452,24.452,0,0,0,24.424,0" transform="translate(55.809 2.566)" fill="#ffedb1"/>
        <path id="Trazado_997977" data-name="Trazado 997977" d="M26.99,48.848A21.858,21.858,0,1,0,5.133,26.99,21.883,21.883,0,0,0,26.99,48.848m0,5.133a26.99,26.99,0,1,1,26.99-26.99,26.99,26.99,0,0,1-26.99,26.99" transform="translate(53.242 0)" fill="#ffd54e"/>
        <path id="Trazado_997978" data-name="Trazado 997978" d="M135.685,67.842a67.843,67.843,0,1,0-67.843,67.842,67.842,67.842,0,0,0,67.843-67.842" transform="translate(767.925 23.653)" fill="#ffd54e"/>
        <path id="Trazado_997979" data-name="Trazado 997979" d="M116.261,0a2.053,2.053,0,0,0-.948,3.875,76.125,76.125,0,1,1-70.162,0A2.053,2.053,0,0,0,43.255.232a80.235,80.235,0,1,0,73.952,0A2.045,2.045,0,0,0,116.261,0" transform="translate(755.534 20.046)" fill="#ffd54e"/>
        <path id="Trazado_997980" data-name="Trazado 997980" d="M24.424,0A24.424,24.424,0,1,0,48.848,24.424,24.452,24.452,0,0,0,24.424,0" transform="translate(811.343 2.566)" fill="#ffedb1"/>
        <path id="Trazado_997981" data-name="Trazado 997981" d="M26.991,48.848A21.858,21.858,0,1,0,5.133,26.99,21.883,21.883,0,0,0,26.991,48.848m0,5.133a26.99,26.99,0,1,1,26.99-26.99,26.991,26.991,0,0,1-26.99,26.99" transform="translate(808.777 0)" fill="#ffd54e"/>
        <path id="Trazado_997982" data-name="Trazado 997982" d="M135.685,67.842a67.842,67.842,0,1,0-67.842,67.842,67.842,67.842,0,0,0,67.842-67.842" transform="translate(579.121 23.653)" fill="#fc9d83"/>
        <path id="Trazado_997983" data-name="Trazado 997983" d="M116.26,0a2.053,2.053,0,0,0-.948,3.875,76.125,76.125,0,1,1-70.162,0A2.053,2.053,0,1,0,43.255.232a80.235,80.235,0,1,0,73.952,0A2.045,2.045,0,0,0,116.26,0" transform="translate(566.731 20.046)" fill="#fc9d83"/>
        <path id="Trazado_997984" data-name="Trazado 997984" d="M24.424,0A24.424,24.424,0,1,0,48.848,24.424,24.452,24.452,0,0,0,24.424,0" transform="translate(622.539 2.566)" fill="#ffedb1"/>
        <path id="Trazado_997985" data-name="Trazado 997985" d="M26.99,48.848A21.858,21.858,0,1,0,5.133,26.99,21.883,21.883,0,0,0,26.99,48.848m0,5.133a26.99,26.99,0,1,1,26.99-26.99,26.991,26.991,0,0,1-26.99,26.99" transform="translate(619.973 0)" fill="#fc9d83"/>
        <path id="Trazado_997986" data-name="Trazado 997986" d="M135.685,67.842a67.842,67.842,0,1,0-67.843,67.842,67.842,67.842,0,0,0,67.843-67.842" transform="translate(201.3 23.653)" fill="#fc9d83"/>
        <path id="Trazado_997987" data-name="Trazado 997987" d="M116.261,0a2.053,2.053,0,0,0-.949,3.875,76.125,76.125,0,1,1-70.163,0A2.053,2.053,0,1,0,43.255.232a80.235,80.235,0,1,0,73.951,0A2.043,2.043,0,0,0,116.261,0" transform="translate(188.91 20.046)" fill="#fc9d83"/>
        <path id="Trazado_997988" data-name="Trazado 997988" d="M24.424,0A24.424,24.424,0,1,0,48.848,24.424,24.452,24.452,0,0,0,24.424,0" transform="translate(244.719 2.566)" fill="#ffedb1"/>
        <path id="Trazado_997989" data-name="Trazado 997989" d="M26.99,48.848A21.858,21.858,0,1,0,5.133,26.99,21.883,21.883,0,0,0,26.99,48.848m0,5.133a26.99,26.99,0,1,1,26.99-26.99,26.991,26.991,0,0,1-26.99,26.99" transform="translate(242.153 0)" fill="#fc9d83"/>
      </g>
    </g>
    <rect id="Rectángulo_455048" data-name="Rectángulo 455048" width="154" height="37" rx="18.5" transform="translate(-8022.693 -8070.5) rotate(180)" fill="#674a11"/>
    <rect id="Rectángulo_455051" data-name="Rectángulo 455051" width="154" height="37" rx="18.5" transform="translate(-8022.982 -7692.5) rotate(180)" fill="#674a11"/>
    <rect id="Rectángulo_455049" data-name="Rectángulo 455049" width="154" height="37" rx="18.5" transform="translate(-8022.982 -7881.5) rotate(180)" fill="#674a11"/>
    <rect id="Rectángulo_455052" data-name="Rectángulo 455052" width="154" height="37" rx="18.5" transform="translate(-8022.982 -7503.5) rotate(180)" fill="#674a11"/>
    <rect id="Rectángulo_455053" data-name="Rectángulo 455053" width="154" height="37" rx="18.5" transform="translate(-8022.982 -7314.5) rotate(180)" fill="#674a11"/>
    <path id="Trazado_999224" data-name="Trazado 999224" d="M42.625,17V5.625h3.211a5.169,5.169,0,0,1,2.625.656,4.438,4.438,0,0,1,1.762,1.867,6.078,6.078,0,0,1,.629,2.781v.727a6.1,6.1,0,0,1-.621,2.82,4.369,4.369,0,0,1-1.773,1.859A5.5,5.5,0,0,1,45.773,17Zm1.5-10.148v8.922H45.7a3.434,3.434,0,0,0,2.7-1.079,4.458,4.458,0,0,0,.965-3.073v-.665a4.529,4.529,0,0,0-.91-3.014,3.239,3.239,0,0,0-2.582-1.091ZM58.109,17a3.036,3.036,0,0,1-.2-.891A3.225,3.225,0,0,1,55.5,17.156a2.984,2.984,0,0,1-2.051-.707,2.287,2.287,0,0,1-.8-1.793,2.39,2.39,0,0,1,1-2.051,4.733,4.733,0,0,1,2.824-.73h1.406v-.664A1.623,1.623,0,0,0,57.43,10a1.821,1.821,0,0,0-1.336-.449,2.107,2.107,0,0,0-1.3.391,1.151,1.151,0,0,0-.523.945H52.82a2,2,0,0,1,.449-1.223,3.066,3.066,0,0,1,1.219-.934,4.1,4.1,0,0,1,1.691-.344,3.342,3.342,0,0,1,2.289.73,2.635,2.635,0,0,1,.859,2.012v3.891a4.757,4.757,0,0,0,.3,1.852V17Zm-2.4-1.1A2.54,2.54,0,0,0,57,15.547a2.127,2.127,0,0,0,.883-.914V12.9H56.75q-2.656,0-2.656,1.555a1.316,1.316,0,0,0,.453,1.063A1.742,1.742,0,0,0,55.711,15.9Zm7.844-9.4V8.547h1.578V9.664H63.555v5.249a1.173,1.173,0,0,0,.211.763.888.888,0,0,0,.719.254,3.5,3.5,0,0,0,.688-.094V17a4.215,4.215,0,0,1-1.109.155A1.8,1.8,0,0,1,62.6,16.57a2.517,2.517,0,0,1-.492-1.664V9.664H60.57V8.547h1.539V6.5Zm2.727,6.2a4.993,4.993,0,0,1,.488-2.234A3.643,3.643,0,0,1,68.129,8.93a3.7,3.7,0,0,1,1.988-.539,3.565,3.565,0,0,1,2.793,1.2,4.6,4.6,0,0,1,1.066,3.18v.1a5.036,5.036,0,0,1-.473,2.215,3.589,3.589,0,0,1-1.352,1.527,3.743,3.743,0,0,1-2.02.547,3.556,3.556,0,0,1-2.785-1.2A4.575,4.575,0,0,1,66.281,12.8Zm1.453.172a3.616,3.616,0,0,0,.652,2.258,2.211,2.211,0,0,0,3.5-.012,3.955,3.955,0,0,0,.648-2.418,3.61,3.61,0,0,0-.66-2.254,2.1,2.1,0,0,0-1.754-.863,2.075,2.075,0,0,0-1.727.852A3.925,3.925,0,0,0,67.734,12.867Z" transform="translate(-8157.982 -8101.078)" fill="#fff"/>
    <path id="Trazado_999227" data-name="Trazado 999227" d="M11.277,17h-1.5V5.625h1.5ZM15.16,8.547l.047,1.063a3.08,3.08,0,0,1,2.531-1.219q2.68,0,2.7,3.023V17H19V11.406a1.946,1.946,0,0,0-.418-1.352A1.675,1.675,0,0,0,17.3,9.617a2.086,2.086,0,0,0-1.234.375,2.546,2.546,0,0,0-.828.984V17H13.793V8.547ZM24.582,6.5V8.547H26.16V9.664H24.582v5.249a1.173,1.173,0,0,0,.211.763.888.888,0,0,0,.719.254,3.5,3.5,0,0,0,.688-.094V17a4.215,4.215,0,0,1-1.109.155,1.8,1.8,0,0,1-1.461-.586,2.517,2.517,0,0,1-.492-1.664V9.664H21.6V8.547h1.539V6.5Zm6.773,10.656a3.693,3.693,0,0,1-2.8-1.129,4.19,4.19,0,0,1-1.078-3.02v-.266a5.073,5.073,0,0,1,.48-2.246A3.748,3.748,0,0,1,29.3,8.949a3.378,3.378,0,0,1,1.871-.559,3.166,3.166,0,0,1,2.563,1.086,4.7,4.7,0,0,1,.914,3.109v.6H28.926a3,3,0,0,0,.73,2.02,2.3,2.3,0,0,0,1.777.77,2.517,2.517,0,0,0,1.3-.312,3.259,3.259,0,0,0,.93-.828l.883.688A3.55,3.55,0,0,1,31.355,17.156Zm-.18-7.578a1.928,1.928,0,0,0-1.469.637A3.1,3.1,0,0,0,28.973,12h4.234v-.109a2.753,2.753,0,0,0-.594-1.707A1.815,1.815,0,0,0,31.176,9.578Zm9.234.266a4.331,4.331,0,0,0-.711-.055A1.9,1.9,0,0,0,37.77,11v6H36.324V8.547H37.73l.023.977A2.251,2.251,0,0,1,39.77,8.391a1.477,1.477,0,0,1,.641.109Zm8.469,3.023A5.062,5.062,0,0,1,48,15.977a2.829,2.829,0,0,1-2.391,1.18,3.1,3.1,0,0,1-2.422-.977v4.07H41.738V8.547h1.32l.07.938a2.977,2.977,0,0,1,2.453-1.094,2.882,2.882,0,0,1,2.41,1.148,5.117,5.117,0,0,1,.887,3.2ZM47.434,12.7a3.735,3.735,0,0,0-.609-2.258,1.963,1.963,0,0,0-1.672-.828,2.125,2.125,0,0,0-1.969,1.164V14.82a2.129,2.129,0,0,0,1.984,1.156,1.954,1.954,0,0,0,1.652-.824A4.077,4.077,0,0,0,47.434,12.7ZM54.8,9.844a4.331,4.331,0,0,0-.711-.055A1.9,1.9,0,0,0,52.16,11v6H50.715V8.547h1.406l.023.977A2.251,2.251,0,0,1,54.16,8.391,1.477,1.477,0,0,1,54.8,8.5Zm4.836,7.313a3.693,3.693,0,0,1-2.8-1.129,4.19,4.19,0,0,1-1.078-3.02v-.266a5.073,5.073,0,0,1,.48-2.246,3.748,3.748,0,0,1,1.344-1.547,3.378,3.378,0,0,1,1.871-.559A3.166,3.166,0,0,1,62.02,9.477a4.7,4.7,0,0,1,.914,3.109v.6H57.207a3,3,0,0,0,.73,2.02,2.3,2.3,0,0,0,1.777.77,2.517,2.517,0,0,0,1.3-.312,3.259,3.259,0,0,0,.93-.828l.883.688A3.55,3.55,0,0,1,59.637,17.156Zm-.18-7.578a1.928,1.928,0,0,0-1.469.637A3.1,3.1,0,0,0,57.254,12h4.234v-.109a2.753,2.753,0,0,0-.594-1.707A1.815,1.815,0,0,0,59.457,9.578ZM66.566,6.5V8.547h1.578V9.664H66.566v5.249a1.173,1.173,0,0,0,.211.763.888.888,0,0,0,.719.254,3.5,3.5,0,0,0,.688-.094V17a4.215,4.215,0,0,1-1.109.155,1.8,1.8,0,0,1-1.461-.586,2.517,2.517,0,0,1-.492-1.664V9.664H63.582V8.547h1.539V6.5ZM75.051,17a3.036,3.036,0,0,1-.2-.891,3.225,3.225,0,0,1-2.406,1.047,2.984,2.984,0,0,1-2.051-.707,2.288,2.288,0,0,1-.8-1.793,2.39,2.39,0,0,1,1-2.051,4.733,4.733,0,0,1,2.824-.73h1.406v-.664A1.623,1.623,0,0,0,74.371,10a1.821,1.821,0,0,0-1.336-.449,2.108,2.108,0,0,0-1.3.391,1.151,1.151,0,0,0-.523.945H69.762a2,2,0,0,1,.449-1.223,3.066,3.066,0,0,1,1.219-.934,4.1,4.1,0,0,1,1.691-.344,3.342,3.342,0,0,1,2.289.73,2.635,2.635,0,0,1,.859,2.012v3.891a4.757,4.757,0,0,0,.3,1.852V17Zm-2.4-1.1a2.54,2.54,0,0,0,1.289-.352,2.127,2.127,0,0,0,.883-.914V12.9H73.691q-2.656,0-2.656,1.555a1.316,1.316,0,0,0,.453,1.063A1.742,1.742,0,0,0,72.652,15.9Zm9.273.078a2.082,2.082,0,0,0,1.352-.469,1.649,1.649,0,0,0,.641-1.172h1.367a2.621,2.621,0,0,1-.5,1.383,3.293,3.293,0,0,1-1.23,1.047,3.55,3.55,0,0,1-1.629.391A3.482,3.482,0,0,1,79.18,16a4.59,4.59,0,0,1-1.02-3.152v-.242a5.089,5.089,0,0,1,.453-2.2,3.451,3.451,0,0,1,1.3-1.492,3.7,3.7,0,0,1,2-.531,3.39,3.39,0,0,1,2.363.852,3.043,3.043,0,0,1,1,2.211H83.918a1.992,1.992,0,0,0-.621-1.348,1.932,1.932,0,0,0-1.379-.527,2.023,2.023,0,0,0-1.707.793,3.724,3.724,0,0,0-.605,2.293v.273a3.65,3.65,0,0,0,.6,2.25A2.033,2.033,0,0,0,81.926,15.977ZM88.48,17H87.035V8.547H88.48ZM86.918,6.3a.863.863,0,0,1,.215-.594.807.807,0,0,1,.637-.242.819.819,0,0,1,.641.242.854.854,0,0,1,.219.594.826.826,0,0,1-.219.586.834.834,0,0,1-.641.234.821.821,0,0,1-.637-.234A.834.834,0,0,1,86.918,6.3ZM90.41,12.7a4.993,4.993,0,0,1,.488-2.234A3.643,3.643,0,0,1,92.258,8.93a3.7,3.7,0,0,1,1.988-.539,3.565,3.565,0,0,1,2.793,1.2,4.6,4.6,0,0,1,1.066,3.18v.1a5.036,5.036,0,0,1-.473,2.215,3.589,3.589,0,0,1-1.352,1.527,3.743,3.743,0,0,1-2.02.547,3.556,3.556,0,0,1-2.785-1.2A4.575,4.575,0,0,1,90.41,12.8Zm1.453.172a3.616,3.616,0,0,0,.652,2.258,2.211,2.211,0,0,0,3.5-.012A3.955,3.955,0,0,0,96.66,12.7,3.61,3.61,0,0,0,96,10.441a2.1,2.1,0,0,0-1.754-.863,2.075,2.075,0,0,0-1.727.852A3.925,3.925,0,0,0,91.863,12.867ZM94.9,5h1.75L94.559,7.3l-1.164,0Zm6.383,3.547.047,1.063a3.08,3.08,0,0,1,2.531-1.219q2.68,0,2.7,3.023V17h-1.445V11.406a1.946,1.946,0,0,0-.418-1.352,1.675,1.675,0,0,0-1.277-.437,2.086,2.086,0,0,0-1.234.375,2.546,2.546,0,0,0-.828.984V17H99.918V8.547Z" transform="translate(-8158.982 -7723.078)" fill="#fff"/>
    <path id="Trazado_999225" data-name="Trazado 999225" d="M35.59,13.391a4.185,4.185,0,0,1-1.332,2.785,4.365,4.365,0,0,1-2.98.98,4.008,4.008,0,0,1-3.23-1.445,5.815,5.815,0,0,1-1.215-3.867V10.75A6.481,6.481,0,0,1,27.4,7.961,4.231,4.231,0,0,1,29,6.113a4.47,4.47,0,0,1,2.406-.645A4.11,4.11,0,0,1,34.316,6.48a4.235,4.235,0,0,1,1.273,2.8H34.082a3.268,3.268,0,0,0-.848-1.975A2.565,2.565,0,0,0,31.41,6.7a2.684,2.684,0,0,0-2.254,1.063,4.882,4.882,0,0,0-.816,3.026v1.1a5.018,5.018,0,0,0,.773,2.948,2.5,2.5,0,0,0,2.164,1.095,2.887,2.887,0,0,0,1.918-.566,3.143,3.143,0,0,0,.887-1.973Zm1.438-.7a4.993,4.993,0,0,1,.488-2.234A3.643,3.643,0,0,1,38.875,8.93a3.7,3.7,0,0,1,1.988-.539,3.565,3.565,0,0,1,2.793,1.2,4.6,4.6,0,0,1,1.066,3.18v.1a5.036,5.036,0,0,1-.473,2.215A3.589,3.589,0,0,1,42.9,16.609a3.743,3.743,0,0,1-2.02.547,3.556,3.556,0,0,1-2.785-1.2A4.575,4.575,0,0,1,37.027,12.8Zm1.453.172a3.616,3.616,0,0,0,.652,2.258,2.211,2.211,0,0,0,3.5-.012,3.955,3.955,0,0,0,.648-2.418,3.61,3.61,0,0,0-.66-2.254,2.1,2.1,0,0,0-1.754-.863,2.075,2.075,0,0,0-1.727.852A3.925,3.925,0,0,0,38.48,12.867ZM47.9,8.547l.047,1.063A3.08,3.08,0,0,1,50.48,8.391q2.68,0,2.7,3.023V17H51.738V11.406a1.946,1.946,0,0,0-.418-1.352,1.675,1.675,0,0,0-1.277-.437,2.086,2.086,0,0,0-1.234.375,2.546,2.546,0,0,0-.828.984V17H46.535V8.547ZM57.324,6.5V8.547H58.9V9.664H57.324v5.249a1.173,1.173,0,0,0,.211.763.888.888,0,0,0,.719.254,3.5,3.5,0,0,0,.688-.094V17a4.215,4.215,0,0,1-1.109.155,1.8,1.8,0,0,1-1.461-.586,2.517,2.517,0,0,1-.492-1.664V9.664H54.34V8.547h1.539V6.5ZM64.1,17.156a3.693,3.693,0,0,1-2.8-1.129,4.19,4.19,0,0,1-1.078-3.02v-.266A5.073,5.073,0,0,1,60.7,10.5a3.748,3.748,0,0,1,1.344-1.547,3.378,3.378,0,0,1,1.871-.559A3.166,3.166,0,0,1,66.48,9.477a4.7,4.7,0,0,1,.914,3.109v.6H61.668a3,3,0,0,0,.73,2.02,2.3,2.3,0,0,0,1.777.77,2.517,2.517,0,0,0,1.3-.312,3.259,3.259,0,0,0,.93-.828l.883.688A3.55,3.55,0,0,1,64.1,17.156Zm-.18-7.578a1.928,1.928,0,0,0-1.469.637A3.1,3.1,0,0,0,61.715,12h4.234v-.109a2.753,2.753,0,0,0-.594-1.707A1.815,1.815,0,0,0,63.918,9.578ZM71.9,11.633l1.875-3.086h1.688L72.7,12.727,75.551,17H73.879l-1.953-3.164L69.973,17h-1.68l2.852-4.273-2.766-4.18h1.672ZM78.957,6.5V8.547h1.578V9.664H78.957v5.249a1.173,1.173,0,0,0,.211.763.888.888,0,0,0,.719.254,3.5,3.5,0,0,0,.688-.094V17a4.215,4.215,0,0,1-1.109.155A1.8,1.8,0,0,1,78,16.57a2.517,2.517,0,0,1-.492-1.664V9.664H75.973V8.547h1.539V6.5Zm2.727,6.2a4.993,4.993,0,0,1,.488-2.234A3.643,3.643,0,0,1,83.531,8.93a3.7,3.7,0,0,1,1.988-.539,3.565,3.565,0,0,1,2.793,1.2,4.6,4.6,0,0,1,1.066,3.18v.1a5.036,5.036,0,0,1-.473,2.215,3.589,3.589,0,0,1-1.352,1.527,3.743,3.743,0,0,1-2.02.547,3.556,3.556,0,0,1-2.785-1.2A4.575,4.575,0,0,1,81.684,12.8Zm1.453.172a3.616,3.616,0,0,0,.652,2.258,2.211,2.211,0,0,0,3.5-.012,3.955,3.955,0,0,0,.648-2.418,3.61,3.61,0,0,0-.66-2.254,2.1,2.1,0,0,0-1.754-.863,2.075,2.075,0,0,0-1.727.852A3.925,3.925,0,0,0,83.137,12.867Z" transform="translate(-8158.982 -7912.078)" fill="#fff"/>
    <path id="Trazado_999228" data-name="Trazado 999228" d="M4.938,17h-1.5V5.625h1.5ZM8.82,8.547l.047,1.063A3.08,3.08,0,0,1,11.4,8.391q2.68,0,2.7,3.023V17H12.656V11.406a1.946,1.946,0,0,0-.418-1.352,1.675,1.675,0,0,0-1.277-.437,2.086,2.086,0,0,0-1.234.375,2.546,2.546,0,0,0-.828.984V17H7.453V8.547ZM16.992,17V9.664H15.656V8.547h1.336V7.68a2.878,2.878,0,0,1,.727-2.1,2.745,2.745,0,0,1,2.055-.742,3.816,3.816,0,0,1,.992.132l-.078,1.165a4.151,4.151,0,0,0-.781-.07,1.41,1.41,0,0,0-1.086.411,1.669,1.669,0,0,0-.383,1.18v.893h1.8V9.664h-1.8V17Zm4.461-4.3a4.993,4.993,0,0,1,.488-2.234A3.643,3.643,0,0,1,23.3,8.93a3.7,3.7,0,0,1,1.988-.539,3.565,3.565,0,0,1,2.793,1.2,4.6,4.6,0,0,1,1.066,3.18v.1a5.036,5.036,0,0,1-.473,2.215,3.589,3.589,0,0,1-1.352,1.527,3.743,3.743,0,0,1-2.02.547,3.556,3.556,0,0,1-2.785-1.2A4.575,4.575,0,0,1,21.453,12.8Zm1.453.172a3.616,3.616,0,0,0,.652,2.258,2.211,2.211,0,0,0,3.5-.012A3.955,3.955,0,0,0,27.7,12.7a3.61,3.61,0,0,0-.66-2.254,2.1,2.1,0,0,0-1.754-.863,2.075,2.075,0,0,0-1.727.852A3.925,3.925,0,0,0,22.906,12.867ZM35.047,9.844a4.331,4.331,0,0,0-.711-.055A1.9,1.9,0,0,0,32.406,11v6H30.961V8.547h1.406l.023.977a2.251,2.251,0,0,1,2.016-1.133,1.477,1.477,0,0,1,.641.109Zm2.688-1.3.039.938a3.122,3.122,0,0,1,2.508-1.094A2.417,2.417,0,0,1,42.7,9.75a3.2,3.2,0,0,1,1.1-.984,3.242,3.242,0,0,1,1.6-.375q2.781,0,2.828,2.945V17H46.773V11.422a1.941,1.941,0,0,0-.414-1.355,1.823,1.823,0,0,0-1.391-.449,1.917,1.917,0,0,0-1.336.48,1.949,1.949,0,0,0-.617,1.293V17H41.563V11.461a1.613,1.613,0,0,0-1.8-1.844,1.934,1.934,0,0,0-1.945,1.211V17H36.367V8.547ZM55.617,17a3.036,3.036,0,0,1-.2-.891,3.225,3.225,0,0,1-2.406,1.047,2.984,2.984,0,0,1-2.051-.707,2.287,2.287,0,0,1-.8-1.793,2.39,2.39,0,0,1,1-2.051,4.733,4.733,0,0,1,2.824-.73h1.406v-.664A1.623,1.623,0,0,0,54.938,10,1.821,1.821,0,0,0,53.6,9.555a2.107,2.107,0,0,0-1.3.391,1.151,1.151,0,0,0-.523.945H50.328a2,2,0,0,1,.449-1.223A3.066,3.066,0,0,1,52,8.734a4.1,4.1,0,0,1,1.691-.344,3.342,3.342,0,0,1,2.289.73,2.635,2.635,0,0,1,.859,2.012v3.891a4.757,4.757,0,0,0,.3,1.852V17Zm-2.4-1.1a2.54,2.54,0,0,0,1.289-.352,2.127,2.127,0,0,0,.883-.914V12.9H54.258q-2.656,0-2.656,1.555a1.316,1.316,0,0,0,.453,1.063A1.742,1.742,0,0,0,53.219,15.9Zm9.273.078a2.082,2.082,0,0,0,1.352-.469,1.649,1.649,0,0,0,.641-1.172h1.367a2.621,2.621,0,0,1-.5,1.383,3.293,3.293,0,0,1-1.23,1.047,3.55,3.55,0,0,1-1.629.391A3.482,3.482,0,0,1,59.746,16a4.59,4.59,0,0,1-1.02-3.152v-.242a5.089,5.089,0,0,1,.453-2.2,3.451,3.451,0,0,1,1.3-1.492,3.7,3.7,0,0,1,2-.531,3.39,3.39,0,0,1,2.363.852,3.043,3.043,0,0,1,1,2.211H64.484a1.992,1.992,0,0,0-.621-1.348,1.932,1.932,0,0,0-1.379-.527,2.023,2.023,0,0,0-1.707.793,3.724,3.724,0,0,0-.605,2.293v.273a3.65,3.65,0,0,0,.6,2.25A2.033,2.033,0,0,0,62.492,15.977ZM69.047,17H67.6V8.547h1.445ZM67.484,6.3a.863.863,0,0,1,.215-.594.807.807,0,0,1,.637-.242.819.819,0,0,1,.641.242A.854.854,0,0,1,69.2,6.3a.826.826,0,0,1-.219.586.834.834,0,0,1-.641.234.821.821,0,0,1-.637-.234A.834.834,0,0,1,67.484,6.3ZM70.977,12.7a4.993,4.993,0,0,1,.488-2.234A3.643,3.643,0,0,1,72.824,8.93a3.7,3.7,0,0,1,1.988-.539,3.565,3.565,0,0,1,2.793,1.2,4.6,4.6,0,0,1,1.066,3.18v.1a5.036,5.036,0,0,1-.473,2.215,3.589,3.589,0,0,1-1.352,1.527,3.743,3.743,0,0,1-2.02.547,3.556,3.556,0,0,1-2.785-1.2A4.575,4.575,0,0,1,70.977,12.8Zm1.453.172a3.616,3.616,0,0,0,.652,2.258,2.211,2.211,0,0,0,3.5-.012,3.955,3.955,0,0,0,.648-2.418,3.61,3.61,0,0,0-.66-2.254,2.1,2.1,0,0,0-1.754-.863,2.075,2.075,0,0,0-1.727.852A3.925,3.925,0,0,0,72.43,12.867ZM75.469,5h1.75L75.125,7.3l-1.164,0Zm6.383,3.547L81.9,9.609A3.08,3.08,0,0,1,84.43,8.391q2.68,0,2.7,3.023V17H85.688V11.406a1.946,1.946,0,0,0-.418-1.352,1.675,1.675,0,0,0-1.277-.437,2.086,2.086,0,0,0-1.234.375,2.546,2.546,0,0,0-.828.984V17H80.484V8.547Zm16.641,7.617a3.07,3.07,0,0,1-2.477.992,2.628,2.628,0,0,1-2.059-.785,3.4,3.4,0,0,1-.715-2.324v-5.5h1.445v5.461q0,1.922,1.563,1.922a2.163,2.163,0,0,0,2.2-1.234V8.547H99.9V17H98.523ZM97.32,5h1.75L96.977,7.3l-1.164,0Zm6.734,1.5V8.547h1.578V9.664h-1.578v5.249a1.173,1.173,0,0,0,.211.763.888.888,0,0,0,.719.254,3.5,3.5,0,0,0,.688-.094V17a4.215,4.215,0,0,1-1.109.155,1.8,1.8,0,0,1-1.461-.586,2.517,2.517,0,0,1-.492-1.664V9.664H101.07V8.547h1.539V6.5ZM108.891,17h-1.445V8.547h1.445ZM107.328,6.3a.863.863,0,0,1,.215-.594.807.807,0,0,1,.637-.242.819.819,0,0,1,.641.242.854.854,0,0,1,.219.594.826.826,0,0,1-.219.586.834.834,0,0,1-.641.234.821.821,0,0,1-.637-.234A.834.834,0,0,1,107.328,6.3ZM112.773,17h-1.445V5h1.445Z" transform="translate(-8158.982 -7534.078)" fill="#fff"/>
    <path id="Trazado_999229" data-name="Trazado 999229" d="M2.355,17V5.625H5.566a5.169,5.169,0,0,1,2.625.656A4.438,4.438,0,0,1,9.953,8.148a6.078,6.078,0,0,1,.629,2.781v.727a6.1,6.1,0,0,1-.621,2.82,4.369,4.369,0,0,1-1.773,1.859A5.5,5.5,0,0,1,5.5,17Zm1.5-10.148v8.922H5.434a3.434,3.434,0,0,0,2.7-1.079A4.458,4.458,0,0,0,9.1,11.621v-.665a4.529,4.529,0,0,0-.91-3.014A3.239,3.239,0,0,0,5.605,6.852Zm12.273,10.3a3.693,3.693,0,0,1-2.8-1.129,4.19,4.19,0,0,1-1.078-3.02v-.266a5.073,5.073,0,0,1,.48-2.246,3.748,3.748,0,0,1,1.344-1.547,3.378,3.378,0,0,1,1.871-.559,3.166,3.166,0,0,1,2.563,1.086,4.7,4.7,0,0,1,.914,3.109v.6H13.7a3,3,0,0,0,.73,2.02,2.3,2.3,0,0,0,1.777.77,2.517,2.517,0,0,0,1.3-.312,3.259,3.259,0,0,0,.93-.828l.883.688A3.55,3.55,0,0,1,16.129,17.156Zm-.18-7.578a1.928,1.928,0,0,0-1.469.637A3.1,3.1,0,0,0,13.746,12H17.98v-.109a2.753,2.753,0,0,0-.594-1.707A1.815,1.815,0,0,0,15.949,9.578Zm8.539,6.4a2.082,2.082,0,0,0,1.352-.469,1.649,1.649,0,0,0,.641-1.172h1.367a2.621,2.621,0,0,1-.5,1.383,3.293,3.293,0,0,1-1.23,1.047,3.55,3.55,0,0,1-1.629.391A3.482,3.482,0,0,1,21.742,16a4.59,4.59,0,0,1-1.02-3.152v-.242a5.089,5.089,0,0,1,.453-2.2,3.451,3.451,0,0,1,1.3-1.492,3.7,3.7,0,0,1,2-.531,3.39,3.39,0,0,1,2.363.852,3.043,3.043,0,0,1,1,2.211H26.48a1.992,1.992,0,0,0-.621-1.348,1.932,1.932,0,0,0-1.379-.527,2.023,2.023,0,0,0-1.707.793,3.724,3.724,0,0,0-.605,2.293v.273a3.65,3.65,0,0,0,.6,2.25A2.033,2.033,0,0,0,24.488,15.977ZM31.043,17H29.6V8.547h1.445ZM29.48,6.3a.863.863,0,0,1,.215-.594.807.807,0,0,1,.637-.242.819.819,0,0,1,.641.242.854.854,0,0,1,.219.594.826.826,0,0,1-.219.586.834.834,0,0,1-.641.234.821.821,0,0,1-.637-.234A.834.834,0,0,1,29.48,6.3Zm8.8,8.453a1.064,1.064,0,0,0-.441-.91,4.249,4.249,0,0,0-1.539-.559,7.277,7.277,0,0,1-1.742-.562,2.479,2.479,0,0,1-.953-.781,1.869,1.869,0,0,1-.309-1.078,2.193,2.193,0,0,1,.879-1.758,3.432,3.432,0,0,1,2.246-.719,3.532,3.532,0,0,1,2.332.742,2.357,2.357,0,0,1,.895,1.9H38.191a1.3,1.3,0,0,0-.5-1.023,1.888,1.888,0,0,0-1.27-.43,1.976,1.976,0,0,0-1.234.344,1.082,1.082,0,0,0-.445.9.877.877,0,0,0,.414.789,5.1,5.1,0,0,0,1.5.508A7.8,7.8,0,0,1,38.4,12.7a2.558,2.558,0,0,1,1,.809,1.988,1.988,0,0,1,.324,1.152,2.163,2.163,0,0,1-.906,1.816,3.8,3.8,0,0,1-2.352.684,4.257,4.257,0,0,1-1.8-.359,2.922,2.922,0,0,1-1.223-1A2.42,2.42,0,0,1,33,14.4h1.445a1.5,1.5,0,0,0,.582,1.152,2.258,2.258,0,0,0,1.434.426,2.331,2.331,0,0,0,1.316-.332A1.02,1.02,0,0,0,38.277,14.758ZM43.176,17H41.73V8.547h1.445ZM41.613,6.3a.863.863,0,0,1,.215-.594.807.807,0,0,1,.637-.242.819.819,0,0,1,.641.242.854.854,0,0,1,.219.594.826.826,0,0,1-.219.586.834.834,0,0,1-.641.234.821.821,0,0,1-.637-.234A.834.834,0,0,1,41.613,6.3ZM45.105,12.7a4.993,4.993,0,0,1,.488-2.234A3.643,3.643,0,0,1,46.953,8.93a3.7,3.7,0,0,1,1.988-.539,3.565,3.565,0,0,1,2.793,1.2,4.6,4.6,0,0,1,1.066,3.18v.1a5.036,5.036,0,0,1-.473,2.215,3.589,3.589,0,0,1-1.352,1.527,3.743,3.743,0,0,1-2.02.547,3.556,3.556,0,0,1-2.785-1.2A4.575,4.575,0,0,1,45.105,12.8Zm1.453.172a3.616,3.616,0,0,0,.652,2.258,2.211,2.211,0,0,0,3.5-.012,3.955,3.955,0,0,0,.648-2.418,3.61,3.61,0,0,0-.66-2.254,2.1,2.1,0,0,0-1.754-.863,2.075,2.075,0,0,0-1.727.852A3.925,3.925,0,0,0,46.559,12.867ZM49.6,5h1.75L49.254,7.3l-1.164,0ZM55.98,8.547l.047,1.063a3.08,3.08,0,0,1,2.531-1.219q2.68,0,2.7,3.023V17H59.816V11.406a1.946,1.946,0,0,0-.418-1.352,1.675,1.675,0,0,0-1.277-.437,2.086,2.086,0,0,0-1.234.375,2.546,2.546,0,0,0-.828.984V17H54.613V8.547Zm7.75,9.43H62.488l4.75-12.352h1.234Zm12.813-3.953H71.777L70.707,17H69.16L73.5,5.625h1.313L79.168,17H77.629ZM72.23,12.8H76.1L74.16,7.477Zm11.633,3.18a2.082,2.082,0,0,0,1.352-.469,1.649,1.649,0,0,0,.641-1.172h1.367a2.621,2.621,0,0,1-.5,1.383,3.293,3.293,0,0,1-1.23,1.047,3.55,3.55,0,0,1-1.629.391A3.482,3.482,0,0,1,81.117,16a4.59,4.59,0,0,1-1.02-3.152v-.242a5.089,5.089,0,0,1,.453-2.2,3.451,3.451,0,0,1,1.3-1.492,3.7,3.7,0,0,1,2-.531,3.39,3.39,0,0,1,2.363.852,3.043,3.043,0,0,1,1,2.211H85.855a1.992,1.992,0,0,0-.621-1.348,1.932,1.932,0,0,0-1.379-.527,2.023,2.023,0,0,0-1.707.793,3.724,3.724,0,0,0-.605,2.293v.273a3.65,3.65,0,0,0,.6,2.25A2.033,2.033,0,0,0,83.863,15.977Zm8.375,0a2.082,2.082,0,0,0,1.352-.469,1.649,1.649,0,0,0,.641-1.172H95.6a2.621,2.621,0,0,1-.5,1.383,3.293,3.293,0,0,1-1.23,1.047,3.55,3.55,0,0,1-1.629.391A3.482,3.482,0,0,1,89.492,16a4.59,4.59,0,0,1-1.02-3.152v-.242a5.089,5.089,0,0,1,.453-2.2,3.451,3.451,0,0,1,1.3-1.492,3.7,3.7,0,0,1,2-.531,3.39,3.39,0,0,1,2.363.852,3.043,3.043,0,0,1,1,2.211H94.23a1.992,1.992,0,0,0-.621-1.348,1.932,1.932,0,0,0-1.379-.527,2.023,2.023,0,0,0-1.707.793,3.724,3.724,0,0,0-.605,2.293v.273a3.65,3.65,0,0,0,.6,2.25A2.033,2.033,0,0,0,92.238,15.977ZM98.793,17H97.348V8.547h1.445ZM97.23,6.3a.863.863,0,0,1,.215-.594.807.807,0,0,1,.637-.242.819.819,0,0,1,.641.242.854.854,0,0,1,.219.594.826.826,0,0,1-.219.586.834.834,0,0,1-.641.234.821.821,0,0,1-.637-.234A.834.834,0,0,1,97.23,6.3Zm3.492,6.391a4.993,4.993,0,0,1,.488-2.234A3.643,3.643,0,0,1,102.57,8.93a3.7,3.7,0,0,1,1.988-.539,3.565,3.565,0,0,1,2.793,1.2,4.6,4.6,0,0,1,1.066,3.18v.1a5.036,5.036,0,0,1-.473,2.215,3.589,3.589,0,0,1-1.352,1.527,3.743,3.743,0,0,1-2.02.547,3.556,3.556,0,0,1-2.785-1.2,4.575,4.575,0,0,1-1.066-3.164Zm1.453.172a3.616,3.616,0,0,0,.652,2.258,2.211,2.211,0,0,0,3.5-.012,3.955,3.955,0,0,0,.648-2.418,3.61,3.61,0,0,0-.66-2.254,2.1,2.1,0,0,0-1.754-.863,2.075,2.075,0,0,0-1.727.852A3.925,3.925,0,0,0,102.176,12.867ZM105.215,5h1.75l-2.094,2.3-1.164,0ZM111.6,8.547l.047,1.063a3.08,3.08,0,0,1,2.531-1.219q2.68,0,2.7,3.023V17h-1.445V11.406a1.946,1.946,0,0,0-.418-1.352,1.675,1.675,0,0,0-1.277-.437,2.086,2.086,0,0,0-1.234.375,2.546,2.546,0,0,0-.828.984V17H110.23V8.547Z" transform="translate(-8159.982 -7345.078)" fill="#fff"/>
    <path id="Polígono_11" data-name="Polígono 11" d="M7,0l7,12H0Z" transform="translate(-8271.206 -7982) rotate(180)" fill="#674a11"/>
    <path id="Polígono_12" data-name="Polígono 12" d="M7,0l7,12H0Z" transform="translate(-8271.206 -7793) rotate(180)" fill="#674a11"/>
    <path id="Polígono_13" data-name="Polígono 13" d="M7,0l7,12H0Z" transform="translate(-8271.206 -7604.017) rotate(180)" fill="#674a11"/>
    <path id="Polígono_14" data-name="Polígono 14" d="M7,0l7,12H0Z" transform="translate(-8270.706 -7415.01) rotate(180)" fill="#674a11"/>
    <path id="Trazado_999223" data-name="Trazado 999223" d="M5.248,12.375a11.939,11.939,0,0,1,.508-3.547,8.56,8.56,0,0,1,1.4-2.781A4.98,4.98,0,0,1,9.146,4.453l.5,1.3A5.093,5.093,0,0,0,7.955,8.262a12.25,12.25,0,0,0-.605,4v.344a12.49,12.49,0,0,0,.6,4.078,5.072,5.072,0,0,0,1.7,2.531l-.5,1.3a4.931,4.931,0,0,1-1.988-1.6,8.43,8.43,0,0,1-1.4-2.77,12,12,0,0,1-.508-3.422ZM20.318,17H17.592L13.561,9.922V17H10.818V5.625h2.742L17.584,12.7V5.625h2.734Zm6.648-.914a2.714,2.714,0,0,1-2.258,1.07,2.662,2.662,0,0,1-2.105-.809,3.4,3.4,0,0,1-.715-2.324V8.547h2.633v5.492a.946.946,0,0,0,1.055,1.086,1.376,1.376,0,0,0,1.289-.648V8.547h2.648V17H27.045ZM26.029,5h2.781L26.639,7.453l-2.148,0Zm7.414,3.547.086.992a2.906,2.906,0,0,1,2.414-1.148,2.14,2.14,0,0,1,2.164,1.273,2.813,2.813,0,0,1,2.484-1.273q2.57,0,2.641,3.109V17H40.592V11.664a1.611,1.611,0,0,0-.219-.945.931.931,0,0,0-.8-.3,1.247,1.247,0,0,0-1.164.7l.008.109V17H35.779V11.68a1.694,1.694,0,0,0-.211-.961.929.929,0,0,0-.8-.3,1.263,1.263,0,0,0-1.156.7V17H30.975V8.547Zm15.383,8.609A4.345,4.345,0,0,1,45.678,16a4.006,4.006,0,0,1-1.2-3.02v-.219a5.191,5.191,0,0,1,.48-2.289,3.516,3.516,0,0,1,1.4-1.535,4.233,4.233,0,0,1,2.188-.543A3.659,3.659,0,0,1,51.357,9.5a4.344,4.344,0,0,1,1.031,3.082V13.6H47.154a1.9,1.9,0,0,0,.617,1.117,1.836,1.836,0,0,0,1.234.406,2.366,2.366,0,0,0,1.953-.875l1.2,1.422a3.363,3.363,0,0,1-1.395,1.082A4.713,4.713,0,0,1,48.826,17.156Zm-.3-6.734q-1.156,0-1.375,1.531h2.656v-.2a1.3,1.3,0,0,0-.32-.98A1.275,1.275,0,0,0,48.529,10.422Zm10.031.508-.867-.062a1.558,1.558,0,0,0-1.594.781V17H53.467V8.547h2.469l.086,1.086a2.039,2.039,0,0,1,1.852-1.242,2.567,2.567,0,0,1,.734.094ZM58.9,12.7a4.989,4.989,0,0,1,.492-2.254A3.52,3.52,0,0,1,60.8,8.922a4.259,4.259,0,0,1,2.164-.531,3.887,3.887,0,0,1,2.992,1.176,4.512,4.512,0,0,1,1.094,3.2v.094A4.378,4.378,0,0,1,65.955,16a3.9,3.9,0,0,1-2.973,1.16,3.942,3.942,0,0,1-2.9-1.082,4.232,4.232,0,0,1-1.18-2.934Zm2.633.164a3.145,3.145,0,0,0,.367,1.719,1.223,1.223,0,0,0,1.086.547q1.406,0,1.438-2.164V12.7q0-2.273-1.453-2.273-1.32,0-1.43,1.961Zm7.609,7.2-1.328-.625.266-.531a4.333,4.333,0,0,0,.57-1.937V15.016h2.109l-.008,1.7a4.238,4.238,0,0,1-.461,1.828A4.645,4.645,0,0,1,69.139,20.063ZM18.041,41V34.375H16.814V32.547h1.227v-.672a2.921,2.921,0,0,1,.852-2.242,3.364,3.364,0,0,1,2.391-.8A5.235,5.235,0,0,1,22.518,29l.008,1.938a2.4,2.4,0,0,0-.648-.07q-1.2,0-1.2,1.031v.648H22.33v1.828H20.682V41Zm10.328-6.07-.867-.062a1.558,1.558,0,0,0-1.594.781V41H23.275V32.547h2.469l.086,1.086a2.039,2.039,0,0,1,1.852-1.242,2.567,2.567,0,0,1,.734.094ZM33.846,41a2.973,2.973,0,0,1-.25-.758,2.448,2.448,0,0,1-2.031.914,3,3,0,0,1-2.031-.723,2.3,2.3,0,0,1-.836-1.816,2.364,2.364,0,0,1,1.016-2.078,5.174,5.174,0,0,1,2.953-.7h.813v-.448q0-1.17-1.008-1.17a.824.824,0,0,0-.937.926H28.9a2.36,2.36,0,0,1,1.043-1.99,4.383,4.383,0,0,1,2.66-.765,3.843,3.843,0,0,1,2.555.789,2.743,2.743,0,0,1,.961,2.164v3.742a3.832,3.832,0,0,0,.359,1.781V41ZM32.2,39.281a1.469,1.469,0,0,0,.816-.211,1.322,1.322,0,0,0,.465-.477V37.242h-.766q-1.375,0-1.375,1.234a.754.754,0,0,0,.242.582A.876.876,0,0,0,32.2,39.281Zm9.8-.656a.608.608,0,0,0-.352-.539,5.347,5.347,0,0,0-1.336-.422,6.092,6.092,0,0,1-1.625-.574,2.722,2.722,0,0,1-.977-.863,2.061,2.061,0,0,1-.336-1.164,2.336,2.336,0,0,1,.961-1.918,3.958,3.958,0,0,1,2.516-.754,4.386,4.386,0,0,1,2.688.758,2.37,2.37,0,0,1,1.016,1.992H41.916q0-1.016-1.07-1.016a1.061,1.061,0,0,0-.7.23.714.714,0,0,0-.281.574.655.655,0,0,0,.344.57,3.248,3.248,0,0,0,1.1.359,9.486,9.486,0,0,1,1.324.336,2.406,2.406,0,0,1,1.906,2.352,2.214,2.214,0,0,1-1.027,1.883,4.505,4.505,0,0,1-2.66.727,4.6,4.6,0,0,1-1.937-.391A3.24,3.24,0,0,1,37.588,39.7a2.406,2.406,0,0,1-.477-1.414h2.461a1.017,1.017,0,0,0,.391.855,1.607,1.607,0,0,0,.961.27,1.264,1.264,0,0,0,.809-.219A.7.7,0,0,0,42,38.625Zm7.859,2.531A4.345,4.345,0,0,1,46.713,40a4.006,4.006,0,0,1-1.2-3.02v-.219a5.191,5.191,0,0,1,.48-2.289,3.516,3.516,0,0,1,1.4-1.535,4.233,4.233,0,0,1,2.188-.543A3.659,3.659,0,0,1,52.393,33.5a4.344,4.344,0,0,1,1.031,3.082V37.6H48.189a1.9,1.9,0,0,0,.617,1.117,1.836,1.836,0,0,0,1.234.406,2.366,2.366,0,0,0,1.953-.875l1.2,1.422A3.363,3.363,0,0,1,51.8,40.754,4.713,4.713,0,0,1,49.861,41.156Zm-.3-6.734q-1.156,0-1.375,1.531h2.656v-.2a1.3,1.3,0,0,0-.32-.98A1.275,1.275,0,0,0,49.564,34.422Zm9.07,2.172a11.14,11.14,0,0,1-.539,3.484,8.9,8.9,0,0,1-1.488,2.832,4.955,4.955,0,0,1-2.051,1.605l-.5-1.3a5.144,5.144,0,0,0,1.68-2.5,12.068,12.068,0,0,0,.617-3.883v-.477a12.49,12.49,0,0,0-.6-4.078,5.072,5.072,0,0,0-1.7-2.531l.5-1.3a5.046,5.046,0,0,1,2.035,1.59,8.787,8.787,0,0,1,1.484,2.789,11.046,11.046,0,0,1,.559,3.418Z" transform="translate(-8329.965 -8111.5)" fill="#12263f"/>
    <path id="Trazado_999226" data-name="Trazado 999226" d="M13.471,12.375a11.939,11.939,0,0,1,.508-3.547,8.56,8.56,0,0,1,1.4-2.781,4.98,4.98,0,0,1,1.988-1.594l.5,1.3a5.093,5.093,0,0,0-1.691,2.512,12.251,12.251,0,0,0-.605,4v.344a12.49,12.49,0,0,0,.6,4.078,5.072,5.072,0,0,0,1.7,2.531l-.5,1.3a4.931,4.931,0,0,1-1.988-1.6,8.43,8.43,0,0,1-1.4-2.77,12,12,0,0,1-.508-3.422Zm14.5-4.633H24.557V17H21.814V7.742H18.463V5.625h9.508ZM33.1,17.156A4.345,4.345,0,0,1,29.947,16a4.006,4.006,0,0,1-1.2-3.02v-.219a5.191,5.191,0,0,1,.48-2.289,3.516,3.516,0,0,1,1.4-1.535,4.233,4.233,0,0,1,2.188-.543A3.659,3.659,0,0,1,35.627,9.5a4.344,4.344,0,0,1,1.031,3.082V13.6H31.424a1.9,1.9,0,0,0,.617,1.117,1.836,1.836,0,0,0,1.234.406,2.366,2.366,0,0,0,1.953-.875l1.2,1.422a3.363,3.363,0,0,1-1.395,1.082A4.713,4.713,0,0,1,33.1,17.156Zm-.3-6.734q-1.156,0-1.375,1.531H34.08v-.2a1.3,1.3,0,0,0-.32-.98A1.275,1.275,0,0,0,32.8,10.422Zm7.406-1.875.086.992a2.906,2.906,0,0,1,2.414-1.148,2.14,2.14,0,0,1,2.164,1.273,2.813,2.813,0,0,1,2.484-1.273q2.57,0,2.641,3.109V17H47.354V11.664a1.611,1.611,0,0,0-.219-.945.931.931,0,0,0-.8-.3,1.247,1.247,0,0,0-1.164.7l.008.109V17H42.541V11.68a1.694,1.694,0,0,0-.211-.961.929.929,0,0,0-.8-.3,1.263,1.263,0,0,0-1.156.7V17H37.736V8.547ZM56.26,17a2.973,2.973,0,0,1-.25-.758,2.448,2.448,0,0,1-2.031.914,3,3,0,0,1-2.031-.723,2.3,2.3,0,0,1-.836-1.816,2.364,2.364,0,0,1,1.016-2.078,5.174,5.174,0,0,1,2.953-.7h.813v-.448q0-1.17-1.008-1.17a.824.824,0,0,0-.937.926H51.314a2.36,2.36,0,0,1,1.043-1.99,4.383,4.383,0,0,1,2.66-.765,3.843,3.843,0,0,1,2.555.789,2.743,2.743,0,0,1,.961,2.164v3.742a3.832,3.832,0,0,0,.359,1.781V17Zm-1.648-1.719a1.469,1.469,0,0,0,.816-.211,1.322,1.322,0,0,0,.465-.477V13.242h-.766q-1.375,0-1.375,1.234a.754.754,0,0,0,.242.582A.876.876,0,0,0,54.611,15.281Zm6.3,4.781-1.328-.625.266-.531a4.333,4.333,0,0,0,.57-1.937V15.016h2.109l-.008,1.7a4.238,4.238,0,0,1-.461,1.828A4.645,4.645,0,0,1,60.916,20.063ZM6.615,36.7a4.989,4.989,0,0,1,.492-2.254,3.52,3.52,0,0,1,1.414-1.52,4.259,4.259,0,0,1,2.164-.531,3.887,3.887,0,0,1,2.992,1.176,4.512,4.512,0,0,1,1.094,3.2v.094A4.378,4.378,0,0,1,13.674,40a3.9,3.9,0,0,1-2.973,1.16,3.942,3.942,0,0,1-2.9-1.082,4.232,4.232,0,0,1-1.18-2.934Zm2.633.164a3.145,3.145,0,0,0,.367,1.719,1.223,1.223,0,0,0,1.086.547q1.406,0,1.438-2.164V36.7q0-2.273-1.453-2.273-1.32,0-1.43,1.961Zm14.531-.016a5.152,5.152,0,0,1-.859,3.2A2.878,2.878,0,0,1,20.5,41.156a2.5,2.5,0,0,1-2.078-1.023L18.311,41H15.951V29h2.633v4.227a2.41,2.41,0,0,1,1.9-.836,2.879,2.879,0,0,1,2.438,1.133,5.179,5.179,0,0,1,.859,3.188Zm-2.641-.168a3.437,3.437,0,0,0-.324-1.735,1.093,1.093,0,0,0-1-.519,1.261,1.261,0,0,0-1.234.679v3.354a1.268,1.268,0,0,0,1.25.671,1.118,1.118,0,0,0,1.18-.9A6.5,6.5,0,0,0,21.139,36.676Zm6.633-4.129v8.742a3.068,3.068,0,0,1-.859,2.313,3.3,3.3,0,0,1-2.375.813,5.607,5.607,0,0,1-1.242-.133V42.289a5.037,5.037,0,0,0,.742.07.963.963,0,0,0,1.094-1.086V32.547Zm-2.836-2.18a1.175,1.175,0,0,1,.406-.922,1.727,1.727,0,0,1,2.109,0,1.249,1.249,0,0,1,0,1.844,1.727,1.727,0,0,1-2.109,0A1.175,1.175,0,0,1,24.936,30.367ZM33.35,41.156A4.345,4.345,0,0,1,30.2,40a4.006,4.006,0,0,1-1.2-3.02v-.219a5.191,5.191,0,0,1,.48-2.289,3.516,3.516,0,0,1,1.4-1.535,4.233,4.233,0,0,1,2.188-.543A3.659,3.659,0,0,1,35.881,33.5a4.344,4.344,0,0,1,1.031,3.082V37.6H31.678a1.9,1.9,0,0,0,.617,1.117,1.836,1.836,0,0,0,1.234.406,2.366,2.366,0,0,0,1.953-.875l1.2,1.422a3.363,3.363,0,0,1-1.395,1.082A4.713,4.713,0,0,1,33.35,41.156Zm-.3-6.734q-1.156,0-1.375,1.531h2.656v-.2a1.3,1.3,0,0,0-.32-.98A1.275,1.275,0,0,0,33.053,34.422Zm7.984-3.977v2.1h1.391v1.828H41.037v3.867a.987.987,0,0,0,.172.664.922.922,0,0,0,.68.188,3.862,3.862,0,0,0,.656-.047V40.93a4.859,4.859,0,0,1-1.484.227,2.758,2.758,0,0,1-2.008-.641A2.626,2.626,0,0,1,38.4,38.57v-4.2H37.326V32.547H38.4v-2.1ZM46.24,41H43.6V32.547H46.24Zm-2.8-10.633a1.175,1.175,0,0,1,.406-.922,1.727,1.727,0,0,1,2.109,0,1.249,1.249,0,0,1,0,1.844,1.727,1.727,0,0,1-2.109,0A1.175,1.175,0,0,1,43.443,30.367Zm7.789,7.5,1.336-5.32h2.773L52.584,41H49.9l-2.758-8.453H49.92ZM55.678,36.7a4.989,4.989,0,0,1,.492-2.254,3.52,3.52,0,0,1,1.414-1.52,4.259,4.259,0,0,1,2.164-.531,3.887,3.887,0,0,1,2.992,1.176,4.512,4.512,0,0,1,1.094,3.2v.094A4.378,4.378,0,0,1,62.736,40a3.9,3.9,0,0,1-2.973,1.16,3.942,3.942,0,0,1-2.9-1.082,4.232,4.232,0,0,1-1.18-2.934Zm2.633.164a3.145,3.145,0,0,0,.367,1.719,1.223,1.223,0,0,0,1.086.547q1.406,0,1.438-2.164V36.7q0-2.273-1.453-2.273-1.32,0-1.43,1.961Zm10.836-.266a11.14,11.14,0,0,1-.539,3.484,8.9,8.9,0,0,1-1.488,2.832,4.955,4.955,0,0,1-2.051,1.605l-.5-1.3a5.144,5.144,0,0,0,1.68-2.5,12.068,12.068,0,0,0,.617-3.883v-.477a12.49,12.49,0,0,0-.6-4.078,5.072,5.072,0,0,0-1.7-2.531l.5-1.3a5.046,5.046,0,0,1,2.035,1.59,8.787,8.787,0,0,1,1.484,2.789,11.046,11.046,0,0,1,.559,3.418Z" transform="translate(-8327.916 -7923.789)" fill="#12263f"/>
    <g id="Grupo_1177847" data-name="Grupo 1177847" transform="translate(-8318.916 -7742.977)">
      <g id="Grupo_1177839" data-name="Grupo 1177839" clip-path="url(#clip-path-2)">
        <path id="Trazado_997998" data-name="Trazado 997998" d="M59.8,52.3a5.308,5.308,0,0,1-7.459,7.554l-10.3-10.232c-.892-.886-.628-1.939-.2-2.885l-4.471-4.58a23.409,23.409,0,1,1,4.774-4.779l4.545,4.466c.949-.365,2.01-.705,2.919.209ZM41.961,23.384A18.592,18.592,0,1,0,23.369,41.977,18.592,18.592,0,0,0,41.961,23.384" transform="translate(0 0)" fill="#12263f"/>
        <path id="Trazado_997999" data-name="Trazado 997999" d="M106.752,84.9l-3.358.028a1.029,1.029,0,0,1-1.13-1.067V64.769a.885.885,0,0,1,.944-.855l3.63,0a.937.937,0,0,1,.885.844V83.891a.94.94,0,0,1-.971,1.009" transform="translate(-81.622 -51.01)" fill="#12263f"/>
        <path id="Trazado_998000" data-name="Trazado 998000" d="M153.536,103.591h-3.542a.963.963,0,0,1-.993-1.021l0-14.307a.954.954,0,0,1,1-.952h3.431a.942.942,0,0,1,1.016.946l0,14.5a.96.96,0,0,1-.91.834" transform="translate(-118.922 -69.685)" fill="#12263f"/>
        <path id="Trazado_998001" data-name="Trazado 998001" d="M60.031,131.531l-3.367.013A.976.976,0,0,1,55.6,130.52v-7.273a.893.893,0,0,1,.909-.921l3.58-.009a.969.969,0,0,1,.96.966l0,7.211a1,1,0,0,1-1.023,1.038" transform="translate(-44.379 -97.626)" fill="#12263f"/>
      </g>
    </g>
    <g id="Grupo_1177848" data-name="Grupo 1177848" transform="translate(-8318.916 -7557.431)">
      <g id="Grupo_1177841" data-name="Grupo 1177841" transform="translate(2 -1)" clip-path="url(#clip-path-3)">
        <path id="Trazado_998002" data-name="Trazado 998002" d="M4.79,142.706l-3.229.02a1.4,1.4,0,0,1-1.552-1.258,1.353,1.353,0,0,1,1.363-1.49l3.309-.013a1.376,1.376,0,0,1,1.471,1.147,1.333,1.333,0,0,1-1.36,1.594" transform="translate(0 -110.981)" fill="#12263f"/>
        <path id="Trazado_998003" data-name="Trazado 998003" d="M268.093,142.723l-3.226.006a1.379,1.379,0,1,1,0-2.75l3.318,0a1.372,1.372,0,1,1-.087,2.743" transform="translate(-208.835 -110.99)" fill="#12263f"/>
        <path id="Trazado_998004" data-name="Trazado 998004" d="M82.465,93.348l-19.875,0a12.688,12.688,0,0,0-3.417-6.039,19.817,19.817,0,0,1-5.925-12.922,19.351,19.351,0,1,1,38.525.21,19.835,19.835,0,0,1-5.9,12.706,12.374,12.374,0,0,0-3.411,6.041M73.87,83.66c2.034-.094,1.11-2.436,1.554-3.11,2.528-1.55,2.162-1.848,3.757-.875a1.532,1.532,0,0,0,2.312-.5l1.285-2.267a1.449,1.449,0,0,0-.729-2c-1.235-.735-1.494-.24-1.224-3.648.035-.447.809-.7,1.132-.881a1.554,1.554,0,0,0,.728-2.256L81.459,66.01a1.444,1.444,0,0,0-2.073-.547,7.676,7.676,0,0,1-1.476.764c-.76-.56-1.7-.869-2.429-1.5-.515-.442.407-3.124-1.548-3.135l-2.647-.015a1.468,1.468,0,0,0-1.54,1.6c-.05,1.745.513,1.314-2.505,2.943-.655.354-2.522-2.085-3.659-.1L62.3,68.256c-1.086,1.892,1.887,2.283,1.924,3.006.174,3.44.157,2.811-1.226,3.653a1.5,1.5,0,0,0-.672,2.134l1.223,2.124A1.548,1.548,0,0,0,64.574,80c1.134.179,2-1.1,2.576-.871a11.241,11.241,0,0,1,2.465,1.426c.279.319.131,1.056.132,1.45a1.483,1.483,0,0,0,1.525,1.67c.826,0,1.664.033,2.6-.01" transform="translate(-42.165 -42.261)" fill="#12263f"/>
        <path id="Trazado_998005" data-name="Trazado 998005" d="M116.413,265.534l-13.7.014a2.757,2.757,0,0,1-2.828-2.506,24.621,24.621,0,0,1-.007-3.017h19.275c.047,1.016.052,1.878.009,2.85a2.725,2.725,0,0,1-2.749,2.659" transform="translate(-79.16 -206.177)" fill="#12263f"/>
        <path id="Trazado_998006" data-name="Trazado 998006" d="M123.125,304.131l-5.1.031c-2.479.015-4.624-1.622-4.585-4.156l13.722.008a4.023,4.023,0,0,1-4.033,4.118" transform="translate(-89.944 -237.878)" fill="#12263f"/>
        <path id="Trazado_998007" data-name="Trazado 998007" d="M142.686,4.654a1.418,1.418,0,0,1-1.3,1.527,1.38,1.38,0,0,1-1.462-1.434V1.439a1.379,1.379,0,1,1,2.756,0Z" transform="translate(-110.947 -0.001)" fill="#12263f"/>
        <path id="Trazado_998008" data-name="Trazado 998008" d="M229.618,45.688a1.449,1.449,0,0,1-1.961.143,1.367,1.367,0,0,1-.138-1.926l2.469-2.493a1.376,1.376,0,1,1,1.948,1.944Z" transform="translate(-180.137 -32.492)" fill="#12263f"/>
        <path id="Trazado_998009" data-name="Trazado 998009" d="M45.745,43.842a1.38,1.38,0,0,1-.092,1.98,1.423,1.423,0,0,1-1.88-.077l-2.4-2.4A1.376,1.376,0,1,1,43.32,41.4Z" transform="translate(-32.463 -32.483)" fill="#12263f"/>
        <path id="Trazado_998010" data-name="Trazado 998010" d="M43.464,231.881a1.388,1.388,0,1,1-2.016-1.892l2.39-2.371a1.39,1.39,0,0,1,1.83-.083c1.539,1.313-.841,2.912-2.2,4.346" transform="translate(-32.498 -180.175)" fill="#12263f"/>
        <path id="Trazado_998011" data-name="Trazado 998011" d="M231.832,229.934a1.419,1.419,0,0,1,.218,1.952,1.379,1.379,0,0,1-2.128.049c-1.375-1.438-3.807-3.081-2.254-4.4a1.393,1.393,0,0,1,1.827.086Z" transform="translate(-180.124 -180.178)" fill="#12263f"/>
        <path id="Trazado_998012" data-name="Trazado 998012" d="M134.885,130.784a4.134,4.134,0,1,1-4.134-4.134,4.134,4.134,0,0,1,4.134,4.134" transform="translate(-100.396 -100.422)" fill="#12263f"/>
      </g>
    </g>
    <g id="Grupo_1177849" data-name="Grupo 1177849" transform="translate(-8316.865 -7361.408)">
      <g id="Grupo_1177843" data-name="Grupo 1177843" clip-path="url(#clip-path-4)">
        <path id="Trazado_998013" data-name="Trazado 998013" d="M33.4,42.043c-1.577.276-3.166,1.078-3.184,2.776l-.067,6.223a3.231,3.231,0,0,0,3.059,3.29c.183.263-.2.94-.678.94l-30.29.008A2.089,2.089,0,0,1,0,53.019L.011,2.031A1.961,1.961,0,0,1,2.042,0H46.207a1.97,1.97,0,0,1,2.03,2.015l.011,28.1a19.82,19.82,0,0,1-2.413.023,3.318,3.318,0,0,0-3.75,3.307,3.181,3.181,0,0,0-4.629-.024L33.44,37.434a3.223,3.223,0,0,0-.045,4.609M19.518,20.261l3.21-2.3L24.5,20.247l7.5-6.4a10.111,10.111,0,1,0,1.828,3.746l-8.3,7.088a2.026,2.026,0,0,1-2.984-.213ZM33.847,17.5l4.619-3.907a33.885,33.885,0,0,0-2.631-3.032l-3.809,3.3A11.106,11.106,0,0,1,33.847,17.5m-5.7,16.66H10.055v4.034h18.09Zm-2.01,8.04H10.055v4.034h16.08Z" fill="#12263f"/>
        <path id="Trazado_998014" data-name="Trazado 998014" d="M179.245,192.169l-6.092-.014a1,1,0,0,1-.994-.827l-.552-2.686c-.078-.378-.588-.747-.96-.545-1.617.874-2.819,2.39-3.768,1.441l-4.19-4.191a1.055,1.055,0,0,1-.117-1.372l1.591-2.382c.4-1.847-4.076-.615-4.077-2.508v-6.023a.98.98,0,0,1,.81-.983l2.522-.5a.864.864,0,0,0,.745-1.027l-1.591-2.383a1.054,1.054,0,0,1,.117-1.371l4.192-4.192a1,1,0,0,1,1.246-.181l2.525,1.627c.35.225.878-.175.955-.549l.552-2.686a.976.976,0,0,1,.983-.806l6.028-.006a.976.976,0,0,1,.98.812l.553,2.689c.072.348.583.737.94.554,1.618-.828,2.816-2.428,3.788-1.455l4.191,4.192a1.06,1.06,0,0,1,.115,1.372l-1.591,2.387a.876.876,0,0,0,.75,1.032l2.516.488a.987.987,0,0,1,.815.984l0,6.022a.98.98,0,0,1-.809.988l-2.532.507a.852.852,0,0,0-.733,1.014l1.594,2.386a1.062,1.062,0,0,1-.12,1.369l-4.191,4.192c-.97.97-2.178-.621-3.77-1.441-.455-.234-.924.272-1.008.7l-.5,2.53a1.059,1.059,0,0,1-.9.844m1.927-16.1a5.02,5.02,0,1,0-5.02,5.02,5.02,5.02,0,0,0,5.02-5.02" transform="translate(-127.908 -127.845)" fill="#12263f"/>
      </g>
    </g>
  </g>
</svg>
