<svg xmlns="http://www.w3.org/2000/svg" xmlns:xlink="http://www.w3.org/1999/xlink" width="1020" height="446" viewBox="0 0 1020 446">
  <defs>
    <clipPath id="clip-path">
      <rect id="Rectángulo_455077" data-name="Rectángulo 455077" width="904.354" height="286.799" fill="none"/>
    </clipPath>
    <clipPath id="clip-path-3">
      <rect id="Rectángulo_455071" data-name="Rectángulo 455071" width="191.077" height="37.907" fill="none"/>
    </clipPath>
    <clipPath id="clip-path-5">
      <rect id="Rectángulo_455074" data-name="Rectángulo 455074" width="191.077" height="37.881" fill="none"/>
    </clipPath>
    <clipPath id="clip-path-6">
      <rect id="Rectángulo_455075" data-name="Rectángulo 455075" width="191.077" height="37.906" fill="none"/>
    </clipPath>
    <clipPath id="clip-path-7">
      <rect id="Rectángulo_455088" data-name="Rectángulo 455088" width="81.854" height="81.861" fill="#12263f"/>
    </clipPath>
    <clipPath id="clip-path-8">
      <rect id="Rectángulo_455089" data-name="Rectángulo 455089" width="74.01" height="74.01" fill="#12263f"/>
    </clipPath>
    <clipPath id="clip-path-9">
      <rect id="Rectángulo_455090" data-name="Rectángulo 455090" width="78.355" height="78.356" fill="#12263f"/>
    </clipPath>
    <clipPath id="clip-path-10">
      <rect id="Rectángulo_455091" data-name="Rectángulo 455091" width="74.997" height="75.003" fill="#12263f"/>
    </clipPath>
    <clipPath id="clip-path-11">
      <rect id="Rectángulo_455092" data-name="Rectángulo 455092" width="50.243" height="65.896" fill="#12263f"/>
    </clipPath>
  </defs>
  <g id="Grupo_1190969" data-name="Grupo 1190969" transform="translate(-289.711 -5253)">
    <rect id="Rectángulo_454992" data-name="Rectángulo 454992" width="1020" height="446" rx="14" transform="translate(289.711 5253)" fill="#ffedb1"/>
    <rect id="Rectángulo_455048" data-name="Rectángulo 455048" width="156.044" height="67.578" rx="10" transform="translate(374.711 5592.8)" fill="#ffd54e"/>
    <rect id="Rectángulo_455083" data-name="Rectángulo 455083" width="156.044" height="67.578" rx="10" transform="translate(548.711 5592.8)" fill="#fc9d83"/>
    <rect id="Rectángulo_455084" data-name="Rectángulo 455084" width="156.044" height="67.578" rx="10" transform="translate(721.711 5592.8)" fill="#ffd54e"/>
    <rect id="Rectángulo_455085" data-name="Rectángulo 455085" width="156.044" height="67.578" rx="10" transform="translate(894 5592.8)" fill="#fc9d83"/>
    <rect id="Rectángulo_455087" data-name="Rectángulo 455087" width="156.044" height="67.578" rx="10" transform="translate(1066.289 5592.8)" fill="#ffd54e"/>
    <path id="Trazado_999230" data-name="Trazado 999230" d="M36.956,12.172H32.643v2.719h5.094V17H29.9V5.625h7.852V7.742H32.643v2.4h4.313Zm5.2-1.3,1.227-2.328H46.12l-2.227,4.117L46.229,17h-2.75l-1.328-2.5-1.3,2.5H38.081l2.344-4.336L38.206,8.547h2.766Zm12.656,1.961a5.1,5.1,0,0,1-.887,3.145,2.843,2.843,0,0,1-2.395,1.176A2.437,2.437,0,0,1,49.62,16.3V20.25H46.987V8.547h2.461l.078.781a2.437,2.437,0,0,1,1.992-.937,2.866,2.866,0,0,1,2.43,1.152,5.16,5.16,0,0,1,.867,3.168Zm-2.633-.164q0-2.25-1.312-2.25a1.239,1.239,0,0,0-1.25.672v3.328a1.279,1.279,0,0,0,1.266.7q1.258,0,1.3-2.172ZM58.752,17H56.112V5h2.641Zm1.289-4.3a4.989,4.989,0,0,1,.492-2.254,3.52,3.52,0,0,1,1.414-1.52,4.259,4.259,0,0,1,2.164-.531A3.887,3.887,0,0,1,67.1,9.566a4.512,4.512,0,0,1,1.094,3.2v.094A4.378,4.378,0,0,1,67.1,16a3.9,3.9,0,0,1-2.973,1.16,3.942,3.942,0,0,1-2.9-1.082,4.232,4.232,0,0,1-1.18-2.934Zm2.633.164a3.145,3.145,0,0,0,.367,1.719,1.223,1.223,0,0,0,1.086.547q1.406,0,1.438-2.164V12.7q0-2.273-1.453-2.273-1.32,0-1.43,1.961Zm11.8-1.93-.867-.062a1.558,1.558,0,0,0-1.594.781V17H69.377V8.547h2.469l.086,1.086a2.039,2.039,0,0,1,1.852-1.242,2.567,2.567,0,0,1,.734.094ZM79.948,17a2.973,2.973,0,0,1-.25-.758,2.448,2.448,0,0,1-2.031.914,3,3,0,0,1-2.031-.723,2.3,2.3,0,0,1-.836-1.816,2.364,2.364,0,0,1,1.016-2.078,5.174,5.174,0,0,1,2.953-.7h.813v-.448q0-1.17-1.008-1.17a.824.824,0,0,0-.937.926H75a2.36,2.36,0,0,1,1.043-1.99,4.383,4.383,0,0,1,2.66-.765,3.843,3.843,0,0,1,2.555.789,2.743,2.743,0,0,1,.961,2.164v3.742a3.832,3.832,0,0,0,.359,1.781V17ZM78.3,15.281a1.469,1.469,0,0,0,.816-.211,1.322,1.322,0,0,0,.465-.477V13.242h-.766q-1.375,0-1.375,1.234a.754.754,0,0,0,.242.582A.876.876,0,0,0,78.3,15.281ZM88.792,10.93l-.867-.062a1.558,1.558,0,0,0-1.594.781V17H83.7V8.547h2.469l.086,1.086A2.039,2.039,0,0,1,88.1,8.391a2.567,2.567,0,0,1,.734.094ZM17.948,36.383a12.079,12.079,0,0,1,.473-3.391,9.85,9.85,0,0,1,1.41-2.953,6,6,0,0,1,1.945-1.875l.3.953A6.222,6.222,0,0,0,20.2,31.789a11.583,11.583,0,0,0-.8,4.023l-.008.664a11.643,11.643,0,0,0,1.1,5.234,6.252,6.252,0,0,0,1.578,2.078l-.3.883a6.192,6.192,0,0,1-1.984-1.937A10.859,10.859,0,0,1,17.948,36.383Zm7.25.164V41H23.7V29.625h4.2a4.215,4.215,0,0,1,2.926.953A3.231,3.231,0,0,1,31.877,33.1a3.189,3.189,0,0,1-1.035,2.551,4.4,4.4,0,0,1-2.965.895Zm0-1.227h2.7a2.7,2.7,0,0,0,1.844-.567,2.075,2.075,0,0,0,.641-1.64,2.143,2.143,0,0,0-.641-1.628,2.525,2.525,0,0,0-1.758-.634H25.2ZM38.7,41a3.036,3.036,0,0,1-.2-.891,3.225,3.225,0,0,1-2.406,1.047,2.984,2.984,0,0,1-2.051-.707,2.287,2.287,0,0,1-.8-1.793,2.39,2.39,0,0,1,1-2.051,4.733,4.733,0,0,1,2.824-.73h1.406v-.664A1.623,1.623,0,0,0,38.018,34a1.821,1.821,0,0,0-1.336-.449,2.107,2.107,0,0,0-1.3.391,1.151,1.151,0,0,0-.523.945H33.409a2,2,0,0,1,.449-1.223,3.066,3.066,0,0,1,1.219-.934,4.1,4.1,0,0,1,1.691-.344,3.342,3.342,0,0,1,2.289.73,2.635,2.635,0,0,1,.859,2.012v3.891a4.757,4.757,0,0,0,.3,1.852V41Zm-2.4-1.1a2.54,2.54,0,0,0,1.289-.352,2.127,2.127,0,0,0,.883-.914V36.9H37.338q-2.656,0-2.656,1.555a1.316,1.316,0,0,0,.453,1.063A1.742,1.742,0,0,0,36.3,39.9Zm7.25-7.352.047,1.063a3.08,3.08,0,0,1,2.531-1.219q2.68,0,2.7,3.023V41H47.385V35.406a1.946,1.946,0,0,0-.418-1.352,1.675,1.675,0,0,0-1.277-.437,2.086,2.086,0,0,0-1.234.375,2.546,2.546,0,0,0-.828.984V41H42.182V32.547ZM50.627,36.7a4.993,4.993,0,0,1,.488-2.234,3.643,3.643,0,0,1,1.359-1.531,3.7,3.7,0,0,1,1.988-.539,3.565,3.565,0,0,1,2.793,1.2,4.6,4.6,0,0,1,1.066,3.18v.1a5.036,5.036,0,0,1-.473,2.215A3.589,3.589,0,0,1,56.5,40.609a3.743,3.743,0,0,1-2.02.547,3.556,3.556,0,0,1-2.785-1.2A4.575,4.575,0,0,1,50.627,36.8Zm1.453.172a3.616,3.616,0,0,0,.652,2.258,2.211,2.211,0,0,0,3.5-.012,3.955,3.955,0,0,0,.648-2.418,3.61,3.61,0,0,0-.66-2.254,2.1,2.1,0,0,0-1.754-.863,2.075,2.075,0,0,0-1.727.852A3.925,3.925,0,0,0,52.081,36.867Zm12.141-3.023a4.331,4.331,0,0,0-.711-.055A1.9,1.9,0,0,0,61.581,35v6H60.135V32.547h1.406l.023.977a2.251,2.251,0,0,1,2.016-1.133,1.477,1.477,0,0,1,.641.109ZM70.456,41a3.036,3.036,0,0,1-.2-.891,3.225,3.225,0,0,1-2.406,1.047,2.984,2.984,0,0,1-2.051-.707,2.288,2.288,0,0,1-.8-1.793,2.39,2.39,0,0,1,1-2.051,4.733,4.733,0,0,1,2.824-.73h1.406v-.664A1.623,1.623,0,0,0,69.776,34a1.821,1.821,0,0,0-1.336-.449,2.107,2.107,0,0,0-1.3.391,1.151,1.151,0,0,0-.523.945H65.167a2,2,0,0,1,.449-1.223,3.066,3.066,0,0,1,1.219-.934,4.1,4.1,0,0,1,1.691-.344,3.342,3.342,0,0,1,2.289.73,2.635,2.635,0,0,1,.859,2.012v3.891a4.757,4.757,0,0,0,.3,1.852V41Zm-2.4-1.1a2.54,2.54,0,0,0,1.289-.352,2.127,2.127,0,0,0,.883-.914V36.9H69.1q-2.656,0-2.656,1.555a1.316,1.316,0,0,0,.453,1.063A1.742,1.742,0,0,0,68.057,39.9ZM75.3,32.547l.039.938a3.122,3.122,0,0,1,2.508-1.094A2.417,2.417,0,0,1,80.26,33.75a3.2,3.2,0,0,1,1.1-.984,3.242,3.242,0,0,1,1.6-.375q2.781,0,2.828,2.945V41H84.338V35.422a1.941,1.941,0,0,0-.414-1.355,1.823,1.823,0,0,0-1.391-.449,1.916,1.916,0,0,0-1.336.48,1.949,1.949,0,0,0-.617,1.293V41H79.127V35.461a1.613,1.613,0,0,0-1.8-1.844,1.934,1.934,0,0,0-1.945,1.211V41H73.932V32.547ZM93.182,41a3.036,3.036,0,0,1-.2-.891,3.225,3.225,0,0,1-2.406,1.047,2.984,2.984,0,0,1-2.051-.707,2.288,2.288,0,0,1-.8-1.793,2.39,2.39,0,0,1,1-2.051,4.733,4.733,0,0,1,2.824-.73h1.406v-.664A1.623,1.623,0,0,0,92.5,34a1.821,1.821,0,0,0-1.336-.449,2.107,2.107,0,0,0-1.3.391,1.151,1.151,0,0,0-.523.945H87.893a2,2,0,0,1,.449-1.223,3.066,3.066,0,0,1,1.219-.934,4.1,4.1,0,0,1,1.691-.344,3.342,3.342,0,0,1,2.289.73,2.635,2.635,0,0,1,.859,2.012v3.891a4.757,4.757,0,0,0,.3,1.852V41Zm-2.4-1.1a2.54,2.54,0,0,0,1.289-.352,2.127,2.127,0,0,0,.883-.914V36.9H91.823q-2.656,0-2.656,1.555a1.316,1.316,0,0,0,.453,1.063A1.742,1.742,0,0,0,90.784,39.9ZM100,36.461a12.085,12.085,0,0,1-.457,3.34,9.876,9.876,0,0,1-1.4,2.949,6.127,6.127,0,0,1-1.973,1.922l-.3-.883A6.281,6.281,0,0,0,97.8,40.926a12.387,12.387,0,0,0,.746-4.309v-.25a12.861,12.861,0,0,0-.344-3.051,10.3,10.3,0,0,0-.957-2.527,5.838,5.838,0,0,0-1.379-1.742l.3-.883a6.1,6.1,0,0,1,1.965,1.906,9.9,9.9,0,0,1,1.4,2.945A12.363,12.363,0,0,1,100,36.461Z" transform="translate(393.711 5602.8)" fill="#12263f"/>
    <path id="Trazado_999231" data-name="Trazado 999231" d="M26.842,17V5.625h3.664a5.39,5.39,0,0,1,2.711.684A4.805,4.805,0,0,1,35.1,8.238a5.826,5.826,0,0,1,.684,2.793v.523a5.86,5.86,0,0,1-.66,2.8,4.826,4.826,0,0,1-1.859,1.938A5.271,5.271,0,0,1,30.584,17Zm2.742-9.258v7.148h.953a2.133,2.133,0,0,0,1.813-.84,4.116,4.116,0,0,0,.633-2.5v-.492a4.082,4.082,0,0,0-.633-2.484,2.17,2.17,0,0,0-1.844-.836Zm11.57,9.414A4.345,4.345,0,0,1,38.006,16a4.006,4.006,0,0,1-1.2-3.02v-.219a5.191,5.191,0,0,1,.48-2.289,3.516,3.516,0,0,1,1.4-1.535,4.233,4.233,0,0,1,2.188-.543A3.659,3.659,0,0,1,43.686,9.5a4.344,4.344,0,0,1,1.031,3.082V13.6H39.483a1.9,1.9,0,0,0,.617,1.117,1.836,1.836,0,0,0,1.234.406,2.366,2.366,0,0,0,1.953-.875l1.2,1.422A3.363,3.363,0,0,1,43.1,16.754,4.713,4.713,0,0,1,41.155,17.156Zm-.3-6.734q-1.156,0-1.375,1.531h2.656v-.2a1.3,1.3,0,0,0-.32-.98A1.275,1.275,0,0,0,40.858,10.422ZM48.553,17H45.913V5h2.641Zm4.4,0H50.311V8.547h2.641Zm-2.8-10.633a1.175,1.175,0,0,1,.406-.922,1.727,1.727,0,0,1,2.109,0,1.175,1.175,0,0,1,.406.922,1.175,1.175,0,0,1-.406.922,1.727,1.727,0,0,1-2.109,0A1.175,1.175,0,0,1,50.155,6.367Zm6.906,2.18.086.992a2.906,2.906,0,0,1,2.414-1.148,2.14,2.14,0,0,1,2.164,1.273,2.813,2.813,0,0,1,2.484-1.273q2.57,0,2.641,3.109V17H64.209V11.664a1.611,1.611,0,0,0-.219-.945.931.931,0,0,0-.8-.3,1.247,1.247,0,0,0-1.164.7l.008.109V17H59.4V11.68a1.694,1.694,0,0,0-.211-.961.929.929,0,0,0-.8-.3,1.263,1.263,0,0,0-1.156.7V17H54.592V8.547ZM71.131,17H68.491V8.547h2.641Zm-2.8-10.633a1.175,1.175,0,0,1,.406-.922,1.727,1.727,0,0,1,2.109,0,1.175,1.175,0,0,1,.406.922,1.175,1.175,0,0,1-.406.922,1.727,1.727,0,0,1-2.109,0A1.175,1.175,0,0,1,68.334,6.367Zm7.484.078v2.1h1.391v1.828H75.819v3.867a.987.987,0,0,0,.172.664.922.922,0,0,0,.68.188,3.862,3.862,0,0,0,.656-.047V16.93a4.859,4.859,0,0,1-1.484.227,2.758,2.758,0,0,1-2.008-.641,2.626,2.626,0,0,1-.648-1.945v-4.2H72.108V8.547h1.078v-2.1ZM83.006,17a2.973,2.973,0,0,1-.25-.758,2.448,2.448,0,0,1-2.031.914,3,3,0,0,1-2.031-.723,2.3,2.3,0,0,1-.836-1.816,2.364,2.364,0,0,1,1.016-2.078,5.174,5.174,0,0,1,2.953-.7h.813v-.448q0-1.17-1.008-1.17a.824.824,0,0,0-.937.926H78.061A2.36,2.36,0,0,1,79.1,9.155a4.383,4.383,0,0,1,2.66-.765,3.843,3.843,0,0,1,2.555.789,2.743,2.743,0,0,1,.961,2.164v3.742a3.832,3.832,0,0,0,.359,1.781V17Zm-1.648-1.719a1.469,1.469,0,0,0,.816-.211,1.322,1.322,0,0,0,.465-.477V13.242h-.766q-1.375,0-1.375,1.234a.754.754,0,0,0,.242.582A.876.876,0,0,0,81.358,15.281ZM91.85,10.93l-.867-.062a1.558,1.558,0,0,0-1.594.781V17H86.756V8.547h2.469l.086,1.086a2.039,2.039,0,0,1,1.852-1.242,2.567,2.567,0,0,1,.734.094ZM20.772,36.383a12.079,12.079,0,0,1,.473-3.391,9.85,9.85,0,0,1,1.41-2.953A6,6,0,0,1,24.6,28.164l.3.953a6.222,6.222,0,0,0-1.871,2.672,11.583,11.583,0,0,0-.8,4.023l-.008.664a11.643,11.643,0,0,0,1.1,5.234A6.252,6.252,0,0,0,24.9,43.789l-.3.883a6.192,6.192,0,0,1-1.984-1.937A10.859,10.859,0,0,1,20.772,36.383Zm13.609-5.531H30.725V41H29.233V30.852H25.584V29.625h8.8Zm4.969,10.3a3.693,3.693,0,0,1-2.8-1.129,4.19,4.19,0,0,1-1.078-3.02v-.266a5.073,5.073,0,0,1,.48-2.246A3.748,3.748,0,0,1,37.3,32.949a3.378,3.378,0,0,1,1.871-.559,3.166,3.166,0,0,1,2.563,1.086,4.7,4.7,0,0,1,.914,3.109v.6H36.92a3,3,0,0,0,.73,2.02,2.3,2.3,0,0,0,1.777.77,2.517,2.517,0,0,0,1.3-.312,3.258,3.258,0,0,0,.93-.828l.883.688A3.55,3.55,0,0,1,39.35,41.156Zm-.18-7.578a1.928,1.928,0,0,0-1.469.637A3.1,3.1,0,0,0,36.967,36H41.2v-.109a2.753,2.753,0,0,0-.594-1.707A1.815,1.815,0,0,0,39.17,33.578Zm.7-4.578h1.75L39.53,31.3l-1.164,0ZM48.4,33.844a4.331,4.331,0,0,0-.711-.055A1.9,1.9,0,0,0,45.764,35v6H44.319V32.547h1.406l.023.977a2.251,2.251,0,0,1,2.016-1.133,1.477,1.477,0,0,1,.641.109Zm2.688-1.3.039.938a3.122,3.122,0,0,1,2.508-1.094,2.417,2.417,0,0,1,2.414,1.359,3.2,3.2,0,0,1,1.1-.984,3.242,3.242,0,0,1,1.6-.375q2.781,0,2.828,2.945V41H60.131V35.422a1.941,1.941,0,0,0-.414-1.355,1.823,1.823,0,0,0-1.391-.449,1.916,1.916,0,0,0-1.336.48,1.949,1.949,0,0,0-.617,1.293V41H54.92V35.461a1.613,1.613,0,0,0-1.8-1.844,1.934,1.934,0,0,0-1.945,1.211V41H49.725V32.547ZM65.327,41H63.881V32.547h1.445ZM63.764,30.3a.863.863,0,0,1,.215-.594.807.807,0,0,1,.637-.242.819.819,0,0,1,.641.242.854.854,0,0,1,.219.594.826.826,0,0,1-.219.586.834.834,0,0,1-.641.234.821.821,0,0,1-.637-.234A.834.834,0,0,1,63.764,30.3Zm5.242,2.242.047,1.063a3.08,3.08,0,0,1,2.531-1.219q2.68,0,2.7,3.023V41H72.842V35.406a1.946,1.946,0,0,0-.418-1.352,1.675,1.675,0,0,0-1.277-.437,2.086,2.086,0,0,0-1.234.375,2.546,2.546,0,0,0-.828.984V41H67.639V32.547ZM76.084,36.7a4.993,4.993,0,0,1,.488-2.234,3.643,3.643,0,0,1,1.359-1.531,3.7,3.7,0,0,1,1.988-.539,3.565,3.565,0,0,1,2.793,1.2,4.6,4.6,0,0,1,1.066,3.18v.1a5.036,5.036,0,0,1-.473,2.215,3.589,3.589,0,0,1-1.352,1.527,3.743,3.743,0,0,1-2.02.547,3.556,3.556,0,0,1-2.785-1.2A4.575,4.575,0,0,1,76.084,36.8Zm1.453.172a3.616,3.616,0,0,0,.652,2.258,2.211,2.211,0,0,0,3.5-.012,3.955,3.955,0,0,0,.648-2.418,3.61,3.61,0,0,0-.66-2.254,2.1,2.1,0,0,0-1.754-.863,2.075,2.075,0,0,0-1.727.852A3.925,3.925,0,0,0,77.538,36.867Zm12.977,1.891a1.064,1.064,0,0,0-.441-.91,4.249,4.249,0,0,0-1.539-.559,7.277,7.277,0,0,1-1.742-.562,2.479,2.479,0,0,1-.953-.781,1.869,1.869,0,0,1-.309-1.078,2.193,2.193,0,0,1,.879-1.758,3.432,3.432,0,0,1,2.246-.719,3.532,3.532,0,0,1,2.332.742,2.357,2.357,0,0,1,.895,1.9H90.428a1.3,1.3,0,0,0-.5-1.023,1.888,1.888,0,0,0-1.27-.43,1.976,1.976,0,0,0-1.234.344,1.082,1.082,0,0,0-.445.9.877.877,0,0,0,.414.789,5.1,5.1,0,0,0,1.5.508,7.8,7.8,0,0,1,1.754.578,2.558,2.558,0,0,1,1,.809,1.988,1.988,0,0,1,.324,1.152,2.163,2.163,0,0,1-.906,1.816,3.8,3.8,0,0,1-2.352.684,4.257,4.257,0,0,1-1.8-.359,2.922,2.922,0,0,1-1.223-1,2.42,2.42,0,0,1-.441-1.395h1.445a1.5,1.5,0,0,0,.582,1.152,2.258,2.258,0,0,0,1.434.426,2.331,2.331,0,0,0,1.316-.332A1.02,1.02,0,0,0,90.514,38.758Zm6.664-2.3a12.085,12.085,0,0,1-.457,3.34,9.876,9.876,0,0,1-1.4,2.949,6.127,6.127,0,0,1-1.973,1.922l-.3-.883a6.281,6.281,0,0,0,1.934-2.863,12.387,12.387,0,0,0,.746-4.309v-.25a12.861,12.861,0,0,0-.344-3.051,10.3,10.3,0,0,0-.957-2.527,5.838,5.838,0,0,0-1.379-1.742l.3-.883a6.1,6.1,0,0,1,1.965,1.906,9.9,9.9,0,0,1,1.4,2.945A12.363,12.363,0,0,1,97.178,36.461Z" transform="translate(567.711 5602.8)" fill="#12263f"/>
    <path id="Trazado_999232" data-name="Trazado 999232" d="M32.3,13.141V17H29.557V5.625H34.1a5.287,5.287,0,0,1,2.309.48,3.621,3.621,0,0,1,1.555,1.367,3.734,3.734,0,0,1,.551,2.012,3.291,3.291,0,0,1-1.191,2.66,4.943,4.943,0,0,1-3.27,1Zm0-2.117h1.8a1.7,1.7,0,0,0,1.215-.4A1.48,1.48,0,0,0,35.729,9.5a1.83,1.83,0,0,0-.43-1.273,1.522,1.522,0,0,0-1.172-.484H32.3Zm12.664-.094-.867-.062a1.558,1.558,0,0,0-1.594.781V17H39.87V8.547h2.469l.086,1.086a2.039,2.039,0,0,1,1.852-1.242,2.567,2.567,0,0,1,.734.094ZM50,17.156A4.345,4.345,0,0,1,46.854,16a4.006,4.006,0,0,1-1.2-3.02v-.219a5.191,5.191,0,0,1,.48-2.289,3.516,3.516,0,0,1,1.4-1.535,4.233,4.233,0,0,1,2.188-.543A3.659,3.659,0,0,1,52.534,9.5a4.344,4.344,0,0,1,1.031,3.082V13.6H48.331a1.9,1.9,0,0,0,.617,1.117,1.836,1.836,0,0,0,1.234.406,2.366,2.366,0,0,0,1.953-.875l1.2,1.422a3.363,3.363,0,0,1-1.395,1.082A4.713,4.713,0,0,1,50,17.156Zm-.3-6.734q-1.156,0-1.375,1.531h2.656v-.2a1.3,1.3,0,0,0-.32-.98A1.275,1.275,0,0,0,49.706,10.422Zm8.492,4.7a1.171,1.171,0,0,0,.859-.3,1.1,1.1,0,0,0,.3-.84h2.469a2.922,2.922,0,0,1-1,2.281,3.705,3.705,0,0,1-2.566.891A3.751,3.751,0,0,1,55.354,16a4.556,4.556,0,0,1-1.062-3.2v-.109a5.149,5.149,0,0,1,.473-2.262,3.441,3.441,0,0,1,1.363-1.508,4.065,4.065,0,0,1,2.109-.527,3.658,3.658,0,0,1,2.617.914,3.242,3.242,0,0,1,.969,2.477H59.354a1.445,1.445,0,0,0-.32-1.008,1.106,1.106,0,0,0-.859-.352q-1.023,0-1.2,1.3a9.206,9.206,0,0,0-.055,1.141,3.616,3.616,0,0,0,.3,1.766A1.055,1.055,0,0,0,58.2,15.125ZM65.713,17H63.073V8.547h2.641Zm-2.8-10.633a1.175,1.175,0,0,1,.406-.922,1.727,1.727,0,0,1,2.109,0,1.175,1.175,0,0,1,.406.922,1.175,1.175,0,0,1-.406.922,1.727,1.727,0,0,1-2.109,0A1.175,1.175,0,0,1,62.917,6.367Zm8.844,8.258a.608.608,0,0,0-.352-.539,5.348,5.348,0,0,0-1.336-.422,6.092,6.092,0,0,1-1.625-.574,2.722,2.722,0,0,1-.977-.863,2.061,2.061,0,0,1-.336-1.164A2.336,2.336,0,0,1,68.1,9.145a3.958,3.958,0,0,1,2.516-.754,4.386,4.386,0,0,1,2.688.758,2.37,2.37,0,0,1,1.016,1.992H71.674q0-1.016-1.07-1.016a1.061,1.061,0,0,0-.7.23.714.714,0,0,0-.281.574.655.655,0,0,0,.344.57,3.248,3.248,0,0,0,1.1.359,9.486,9.486,0,0,1,1.324.336A2.406,2.406,0,0,1,74.3,14.547a2.214,2.214,0,0,1-1.027,1.883,4.505,4.505,0,0,1-2.66.727,4.6,4.6,0,0,1-1.937-.391A3.24,3.24,0,0,1,67.346,15.7a2.406,2.406,0,0,1-.477-1.414h2.461a1.017,1.017,0,0,0,.391.855,1.607,1.607,0,0,0,.961.27,1.264,1.264,0,0,0,.809-.219A.7.7,0,0,0,71.76,14.625ZM80.292,17a2.973,2.973,0,0,1-.25-.758,2.448,2.448,0,0,1-2.031.914,3,3,0,0,1-2.031-.723,2.3,2.3,0,0,1-.836-1.816,2.364,2.364,0,0,1,1.016-2.078,5.174,5.174,0,0,1,2.953-.7h.813v-.448q0-1.17-1.008-1.17a.824.824,0,0,0-.937.926H75.346a2.36,2.36,0,0,1,1.043-1.99,4.383,4.383,0,0,1,2.66-.765A3.843,3.843,0,0,1,81.6,9.18a2.743,2.743,0,0,1,.961,2.164v3.742a3.832,3.832,0,0,0,.359,1.781V17Zm-1.648-1.719a1.469,1.469,0,0,0,.816-.211,1.322,1.322,0,0,0,.465-.477V13.242h-.766q-1.375,0-1.375,1.234a.754.754,0,0,0,.242.582A.876.876,0,0,0,78.643,15.281ZM89.135,10.93l-.867-.062a1.558,1.558,0,0,0-1.594.781V17H84.042V8.547H86.51L86.6,9.633a2.039,2.039,0,0,1,1.852-1.242,2.567,2.567,0,0,1,.734.094ZM13.655,36.383a12.079,12.079,0,0,1,.473-3.391,9.85,9.85,0,0,1,1.41-2.953,6,6,0,0,1,1.945-1.875l.3.953a6.222,6.222,0,0,0-1.871,2.672,11.583,11.583,0,0,0-.8,4.023l-.008.664a11.643,11.643,0,0,0,1.1,5.234,6.252,6.252,0,0,0,1.578,2.078l-.3.883A6.192,6.192,0,0,1,15.5,42.734,10.859,10.859,0,0,1,13.655,36.383Zm12.18-.641H20.9v4.031h5.727V41H19.4V29.625h7.148v1.227H20.9v3.664h4.93Zm5.68,4.234a2.082,2.082,0,0,0,1.352-.469,1.649,1.649,0,0,0,.641-1.172h1.367a2.621,2.621,0,0,1-.5,1.383,3.293,3.293,0,0,1-1.23,1.047,3.55,3.55,0,0,1-1.629.391A3.482,3.482,0,0,1,28.768,40a4.59,4.59,0,0,1-1.02-3.152v-.242a5.089,5.089,0,0,1,.453-2.2,3.451,3.451,0,0,1,1.3-1.492,3.7,3.7,0,0,1,2-.531,3.39,3.39,0,0,1,2.363.852,3.043,3.043,0,0,1,1,2.211H33.506a1.992,1.992,0,0,0-.621-1.348,1.932,1.932,0,0,0-1.379-.527,2.023,2.023,0,0,0-1.707.793,3.724,3.724,0,0,0-.605,2.293v.273a3.65,3.65,0,0,0,.6,2.25A2.033,2.033,0,0,0,31.514,39.977Zm10.2.188a3.07,3.07,0,0,1-2.477.992,2.628,2.628,0,0,1-2.059-.785,3.4,3.4,0,0,1-.715-2.324v-5.5h1.445v5.461q0,1.922,1.563,1.922a2.163,2.163,0,0,0,2.2-1.234V32.547h1.445V41H41.749Zm8.82.836a3.036,3.036,0,0,1-.2-.891,3.225,3.225,0,0,1-2.406,1.047,2.984,2.984,0,0,1-2.051-.707,2.287,2.287,0,0,1-.8-1.793,2.39,2.39,0,0,1,1-2.051,4.733,4.733,0,0,1,2.824-.73h1.406v-.664A1.623,1.623,0,0,0,49.858,34a1.821,1.821,0,0,0-1.336-.449,2.107,2.107,0,0,0-1.3.391,1.151,1.151,0,0,0-.523.945H45.249a2,2,0,0,1,.449-1.223,3.066,3.066,0,0,1,1.219-.934,4.1,4.1,0,0,1,1.691-.344,3.342,3.342,0,0,1,2.289.73,2.635,2.635,0,0,1,.859,2.012v3.891a4.757,4.757,0,0,0,.3,1.852V41Zm-2.4-1.1a2.54,2.54,0,0,0,1.289-.352,2.127,2.127,0,0,0,.883-.914V36.9H49.178q-2.656,0-2.656,1.555a1.316,1.316,0,0,0,.453,1.063A1.742,1.742,0,0,0,48.139,39.9Zm9.273.078a2.082,2.082,0,0,0,1.352-.469,1.649,1.649,0,0,0,.641-1.172h1.367a2.621,2.621,0,0,1-.5,1.383,3.293,3.293,0,0,1-1.23,1.047,3.55,3.55,0,0,1-1.629.391A3.482,3.482,0,0,1,54.667,40a4.59,4.59,0,0,1-1.02-3.152v-.242a5.089,5.089,0,0,1,.453-2.2,3.451,3.451,0,0,1,1.3-1.492,3.7,3.7,0,0,1,2-.531,3.39,3.39,0,0,1,2.363.852,3.043,3.043,0,0,1,1,2.211H59.4a1.992,1.992,0,0,0-.621-1.348,1.932,1.932,0,0,0-1.379-.527,2.023,2.023,0,0,0-1.707.793,3.724,3.724,0,0,0-.605,2.293v.273a3.65,3.65,0,0,0,.6,2.25A2.033,2.033,0,0,0,57.413,39.977ZM63.967,41H62.522V32.547h1.445ZM62.4,30.3a.863.863,0,0,1,.215-.594.807.807,0,0,1,.637-.242.819.819,0,0,1,.641.242.854.854,0,0,1,.219.594.826.826,0,0,1-.219.586.834.834,0,0,1-.641.234.821.821,0,0,1-.637-.234A.834.834,0,0,1,62.4,30.3ZM65.9,36.7a4.993,4.993,0,0,1,.488-2.234,3.643,3.643,0,0,1,1.359-1.531,3.7,3.7,0,0,1,1.988-.539,3.565,3.565,0,0,1,2.793,1.2,4.6,4.6,0,0,1,1.066,3.18v.1a5.036,5.036,0,0,1-.473,2.215,3.589,3.589,0,0,1-1.352,1.527,3.743,3.743,0,0,1-2.02.547,3.556,3.556,0,0,1-2.785-1.2A4.575,4.575,0,0,1,65.9,36.8Zm1.453.172A3.616,3.616,0,0,0,68,39.125a2.211,2.211,0,0,0,3.5-.012,3.955,3.955,0,0,0,.648-2.418,3.61,3.61,0,0,0-.66-2.254,2.1,2.1,0,0,0-1.754-.863,2.075,2.075,0,0,0-1.727.852A3.925,3.925,0,0,0,67.35,36.867Zm9.422-4.32.047,1.063a3.08,3.08,0,0,1,2.531-1.219q2.68,0,2.7,3.023V41H80.608V35.406a1.946,1.946,0,0,0-.418-1.352,1.675,1.675,0,0,0-1.277-.437,2.086,2.086,0,0,0-1.234.375,2.546,2.546,0,0,0-.828.984V41H75.4V32.547Zm10.969,8.609a3.693,3.693,0,0,1-2.8-1.129,4.19,4.19,0,0,1-1.078-3.02v-.266a5.073,5.073,0,0,1,.48-2.246,3.748,3.748,0,0,1,1.344-1.547,3.378,3.378,0,0,1,1.871-.559,3.166,3.166,0,0,1,2.563,1.086,4.7,4.7,0,0,1,.914,3.109v.6H85.311a3,3,0,0,0,.73,2.02,2.3,2.3,0,0,0,1.777.77,2.517,2.517,0,0,0,1.3-.312,3.259,3.259,0,0,0,.93-.828l.883.688A3.55,3.55,0,0,1,87.741,41.156Zm-.18-7.578a1.928,1.928,0,0,0-1.469.637A3.1,3.1,0,0,0,85.358,36h4.234v-.109A2.753,2.753,0,0,0,89,34.184,1.815,1.815,0,0,0,87.561,33.578Zm10.07,5.18a1.064,1.064,0,0,0-.441-.91,4.249,4.249,0,0,0-1.539-.559,7.277,7.277,0,0,1-1.742-.562,2.479,2.479,0,0,1-.953-.781,1.869,1.869,0,0,1-.309-1.078,2.193,2.193,0,0,1,.879-1.758,3.432,3.432,0,0,1,2.246-.719,3.532,3.532,0,0,1,2.332.742,2.357,2.357,0,0,1,.895,1.9H97.545a1.3,1.3,0,0,0-.5-1.023,1.888,1.888,0,0,0-1.27-.43,1.976,1.976,0,0,0-1.234.344,1.082,1.082,0,0,0-.445.9.877.877,0,0,0,.414.789,5.1,5.1,0,0,0,1.5.508,7.8,7.8,0,0,1,1.754.578,2.558,2.558,0,0,1,1,.809,1.988,1.988,0,0,1,.324,1.152,2.163,2.163,0,0,1-.906,1.816,3.8,3.8,0,0,1-2.352.684,4.257,4.257,0,0,1-1.8-.359,2.922,2.922,0,0,1-1.223-1,2.42,2.42,0,0,1-.441-1.395H93.8a1.5,1.5,0,0,0,.582,1.152,2.258,2.258,0,0,0,1.434.426,2.331,2.331,0,0,0,1.316-.332A1.02,1.02,0,0,0,97.631,38.758Zm6.664-2.3a12.085,12.085,0,0,1-.457,3.34,9.876,9.876,0,0,1-1.4,2.949,6.127,6.127,0,0,1-1.973,1.922l-.3-.883a6.281,6.281,0,0,0,1.934-2.863,12.387,12.387,0,0,0,.746-4.309v-.25a12.861,12.861,0,0,0-.344-3.051,10.3,10.3,0,0,0-.957-2.527,5.838,5.838,0,0,0-1.379-1.742l.3-.883a6.1,6.1,0,0,1,1.965,1.906,9.9,9.9,0,0,1,1.4,2.945A12.363,12.363,0,0,1,104.3,36.461Z" transform="translate(740.979 5602.8)" fill="#12263f"/>
    <path id="Trazado_999233" data-name="Trazado 999233" d="M38.768,13.906l2.266-8.281H44.1L40.268,17h-3l-3.8-11.375H36.51ZM49.206,17a2.973,2.973,0,0,1-.25-.758,2.448,2.448,0,0,1-2.031.914,3,3,0,0,1-2.031-.723,2.3,2.3,0,0,1-.836-1.816,2.364,2.364,0,0,1,1.016-2.078,5.174,5.174,0,0,1,2.953-.7h.813v-.448q0-1.17-1.008-1.17a.824.824,0,0,0-.937.926H44.26A2.36,2.36,0,0,1,45.3,9.155a4.383,4.383,0,0,1,2.66-.765,3.843,3.843,0,0,1,2.555.789,2.743,2.743,0,0,1,.961,2.164v3.742a3.832,3.832,0,0,0,.359,1.781V17Zm-1.648-1.719a1.469,1.469,0,0,0,.816-.211,1.322,1.322,0,0,0,.465-.477V13.242h-.766q-1.375,0-1.375,1.234a.754.754,0,0,0,.242.582A.876.876,0,0,0,47.557,15.281ZM55.713,17H53.073V5h2.641Zm4.4,0H57.471V8.547h2.641Zm-2.8-10.633a1.175,1.175,0,0,1,.406-.922,1.727,1.727,0,0,1,2.109,0,1.175,1.175,0,0,1,.406.922,1.175,1.175,0,0,1-.406.922,1.727,1.727,0,0,1-2.109,0A1.175,1.175,0,0,1,57.315,6.367ZM61.4,12.711a5.164,5.164,0,0,1,.867-3.164A2.854,2.854,0,0,1,64.69,8.391a2.428,2.428,0,0,1,1.906.891V5h2.641V17H66.87l-.133-.906a2.493,2.493,0,0,1-2.062,1.063A2.849,2.849,0,0,1,62.284,16,5.327,5.327,0,0,1,61.4,12.711Zm2.633.164q0,2.25,1.313,2.25a1.3,1.3,0,0,0,1.25-.734V11.172a1.261,1.261,0,0,0-1.234-.75q-1.219,0-1.32,1.969ZM75.495,17a2.973,2.973,0,0,1-.25-.758,2.448,2.448,0,0,1-2.031.914,3,3,0,0,1-2.031-.723,2.3,2.3,0,0,1-.836-1.816,2.364,2.364,0,0,1,1.016-2.078,5.174,5.174,0,0,1,2.953-.7h.813v-.448q0-1.17-1.008-1.17a.824.824,0,0,0-.937.926H70.549a2.36,2.36,0,0,1,1.043-1.99,4.383,4.383,0,0,1,2.66-.765,3.843,3.843,0,0,1,2.555.789,2.743,2.743,0,0,1,.961,2.164v3.742a3.832,3.832,0,0,0,.359,1.781V17Zm-1.648-1.719a1.469,1.469,0,0,0,.816-.211,1.322,1.322,0,0,0,.465-.477V13.242h-.766q-1.375,0-1.375,1.234a.754.754,0,0,0,.242.582A.876.876,0,0,0,73.846,15.281ZM84.338,10.93l-.867-.062a1.558,1.558,0,0,0-1.594.781V17H79.245V8.547h2.469L81.8,9.633a2.039,2.039,0,0,1,1.852-1.242,2.567,2.567,0,0,1,.734.094ZM24.5,36.383a12.079,12.079,0,0,1,.473-3.391,9.85,9.85,0,0,1,1.41-2.953,6,6,0,0,1,1.945-1.875l.3.953a6.222,6.222,0,0,0-1.871,2.672,11.583,11.583,0,0,0-.8,4.023l-.008.664a11.643,11.643,0,0,0,1.1,5.234,6.252,6.252,0,0,0,1.578,2.078l-.3.883a6.192,6.192,0,0,1-1.984-1.937A10.859,10.859,0,0,1,24.5,36.383ZM38.62,37.391a4.185,4.185,0,0,1-1.332,2.785,4.365,4.365,0,0,1-2.98.98,4.008,4.008,0,0,1-3.23-1.445,5.815,5.815,0,0,1-1.215-3.867V34.75a6.481,6.481,0,0,1,.566-2.789,4.231,4.231,0,0,1,1.605-1.848,4.47,4.47,0,0,1,2.406-.645,4.11,4.11,0,0,1,2.906,1.012,4.235,4.235,0,0,1,1.273,2.8H37.112a3.268,3.268,0,0,0-.848-1.975A2.565,2.565,0,0,0,34.44,30.7a2.684,2.684,0,0,0-2.254,1.063,4.882,4.882,0,0,0-.816,3.026v1.1a5.018,5.018,0,0,0,.773,2.948,2.5,2.5,0,0,0,2.164,1.095,2.886,2.886,0,0,0,1.918-.566,3.143,3.143,0,0,0,.887-1.973Zm5.906-3.547a4.331,4.331,0,0,0-.711-.055A1.9,1.9,0,0,0,41.885,35v6H40.44V32.547h1.406l.023.977a2.251,2.251,0,0,1,2.016-1.133,1.477,1.477,0,0,1,.641.109ZM47.424,41H45.979V32.547h1.445ZM45.862,30.3a.863.863,0,0,1,.215-.594.807.807,0,0,1,.637-.242.819.819,0,0,1,.641.242.854.854,0,0,1,.219.594.826.826,0,0,1-.219.586.834.834,0,0,1-.641.234.821.821,0,0,1-.637-.234A.834.834,0,0,1,45.862,30.3Zm5.836.2v2.047h1.578v1.117H51.7v5.249a1.173,1.173,0,0,0,.211.763.888.888,0,0,0,.719.254,3.5,3.5,0,0,0,.688-.094V41a4.215,4.215,0,0,1-1.109.155,1.8,1.8,0,0,1-1.461-.586,2.517,2.517,0,0,1-.492-1.664V33.664H48.713V32.547h1.539V30.5Zm6.773,10.656a3.693,3.693,0,0,1-2.8-1.129,4.19,4.19,0,0,1-1.078-3.02v-.266a5.073,5.073,0,0,1,.48-2.246,3.748,3.748,0,0,1,1.344-1.547,3.378,3.378,0,0,1,1.871-.559,3.166,3.166,0,0,1,2.563,1.086,4.7,4.7,0,0,1,.914,3.109v.6H56.042a3,3,0,0,0,.73,2.02,2.3,2.3,0,0,0,1.777.77,2.517,2.517,0,0,0,1.3-.312,3.258,3.258,0,0,0,.93-.828l.883.688A3.55,3.55,0,0,1,58.471,41.156Zm-.18-7.578a1.928,1.928,0,0,0-1.469.637A3.1,3.1,0,0,0,56.088,36h4.234v-.109a2.753,2.753,0,0,0-.594-1.707A1.815,1.815,0,0,0,58.292,33.578Zm9.234.266a4.331,4.331,0,0,0-.711-.055A1.9,1.9,0,0,0,64.885,35v6H63.44V32.547h1.406l.023.977a2.251,2.251,0,0,1,2.016-1.133,1.477,1.477,0,0,1,.641.109ZM70.424,41H68.979V32.547h1.445ZM68.862,30.3a.863.863,0,0,1,.215-.594.807.807,0,0,1,.637-.242.819.819,0,0,1,.641.242.854.854,0,0,1,.219.594.826.826,0,0,1-.219.586.834.834,0,0,1-.641.234.821.821,0,0,1-.637-.234A.834.834,0,0,1,68.862,30.3ZM72.354,36.7a4.993,4.993,0,0,1,.488-2.234A3.643,3.643,0,0,1,74.2,32.93a3.7,3.7,0,0,1,1.988-.539,3.565,3.565,0,0,1,2.793,1.2,4.6,4.6,0,0,1,1.066,3.18v.1a5.036,5.036,0,0,1-.473,2.215,3.589,3.589,0,0,1-1.352,1.527,3.743,3.743,0,0,1-2.02.547,3.556,3.556,0,0,1-2.785-1.2A4.575,4.575,0,0,1,72.354,36.8Zm1.453.172a3.616,3.616,0,0,0,.652,2.258,2.211,2.211,0,0,0,3.5-.012A3.955,3.955,0,0,0,78.6,36.7a3.61,3.61,0,0,0-.66-2.254,2.1,2.1,0,0,0-1.754-.863,2.075,2.075,0,0,0-1.727.852A3.925,3.925,0,0,0,73.807,36.867Zm12.977,1.891a1.064,1.064,0,0,0-.441-.91,4.249,4.249,0,0,0-1.539-.559,7.277,7.277,0,0,1-1.742-.562,2.479,2.479,0,0,1-.953-.781,1.869,1.869,0,0,1-.309-1.078,2.193,2.193,0,0,1,.879-1.758,3.432,3.432,0,0,1,2.246-.719,3.532,3.532,0,0,1,2.332.742,2.357,2.357,0,0,1,.895,1.9H86.7a1.3,1.3,0,0,0-.5-1.023,1.888,1.888,0,0,0-1.27-.43,1.976,1.976,0,0,0-1.234.344,1.082,1.082,0,0,0-.445.9.877.877,0,0,0,.414.789,5.1,5.1,0,0,0,1.5.508,7.8,7.8,0,0,1,1.754.578,2.558,2.558,0,0,1,1,.809,1.988,1.988,0,0,1,.324,1.152,2.163,2.163,0,0,1-.906,1.816,3.8,3.8,0,0,1-2.352.684,4.257,4.257,0,0,1-1.8-.359,2.922,2.922,0,0,1-1.223-1A2.42,2.42,0,0,1,81.51,38.4h1.445a1.5,1.5,0,0,0,.582,1.152,2.258,2.258,0,0,0,1.434.426,2.331,2.331,0,0,0,1.316-.332A1.02,1.02,0,0,0,86.784,38.758Zm6.664-2.3a12.085,12.085,0,0,1-.457,3.34,9.876,9.876,0,0,1-1.4,2.949,6.127,6.127,0,0,1-1.973,1.922l-.3-.883a6.281,6.281,0,0,0,1.934-2.863,12.387,12.387,0,0,0,.746-4.309v-.25a12.861,12.861,0,0,0-.344-3.051,10.3,10.3,0,0,0-.957-2.527,5.838,5.838,0,0,0-1.379-1.742l.3-.883a6.1,6.1,0,0,1,1.965,1.906,9.9,9.9,0,0,1,1.4,2.945A12.363,12.363,0,0,1,93.448,36.461Z" transform="translate(913.268 5602.8)" fill="#12263f"/>
    <path id="Trazado_999234" data-name="Trazado 999234" d="M15.768,17V5.625h3.664a5.39,5.39,0,0,1,2.711.684,4.805,4.805,0,0,1,1.879,1.93,5.826,5.826,0,0,1,.684,2.793v.523a5.86,5.86,0,0,1-.66,2.8,4.826,4.826,0,0,1-1.859,1.938A5.271,5.271,0,0,1,19.51,17ZM18.51,7.742v7.148h.953a2.133,2.133,0,0,0,1.813-.84,4.116,4.116,0,0,0,.633-2.5v-.492a4.082,4.082,0,0,0-.633-2.484,2.17,2.17,0,0,0-1.844-.836ZM25.659,12.7a4.989,4.989,0,0,1,.492-2.254,3.52,3.52,0,0,1,1.414-1.52,4.259,4.259,0,0,1,2.164-.531,3.887,3.887,0,0,1,2.992,1.176,4.512,4.512,0,0,1,1.094,3.2v.094A4.378,4.378,0,0,1,32.717,16a3.9,3.9,0,0,1-2.973,1.16,3.942,3.942,0,0,1-2.9-1.082,4.232,4.232,0,0,1-1.18-2.934Zm2.633.164a3.145,3.145,0,0,0,.367,1.719,1.223,1.223,0,0,0,1.086.547q1.406,0,1.438-2.164V12.7q0-2.273-1.453-2.273-1.32,0-1.43,1.961Zm10.258,2.266a1.171,1.171,0,0,0,.859-.3,1.1,1.1,0,0,0,.3-.84h2.469a2.922,2.922,0,0,1-1,2.281,3.705,3.705,0,0,1-2.566.891A3.751,3.751,0,0,1,35.706,16a4.556,4.556,0,0,1-1.062-3.2v-.109a5.149,5.149,0,0,1,.473-2.262,3.441,3.441,0,0,1,1.363-1.508,4.065,4.065,0,0,1,2.109-.527,3.658,3.658,0,0,1,2.617.914,3.242,3.242,0,0,1,.969,2.477H39.706a1.445,1.445,0,0,0-.32-1.008,1.106,1.106,0,0,0-.859-.352q-1.023,0-1.2,1.3a9.206,9.206,0,0,0-.055,1.141,3.616,3.616,0,0,0,.3,1.766A1.055,1.055,0,0,0,38.549,15.125Zm9.773.961a2.714,2.714,0,0,1-2.258,1.07,2.662,2.662,0,0,1-2.105-.809,3.4,3.4,0,0,1-.715-2.324V8.547h2.633v5.492a.946.946,0,0,0,1.055,1.086,1.376,1.376,0,0,0,1.289-.648V8.547H50.87V17H48.4ZM54.8,8.547l.086.992A2.906,2.906,0,0,1,57.3,8.391a2.14,2.14,0,0,1,2.164,1.273,2.813,2.813,0,0,1,2.484-1.273q2.57,0,2.641,3.109V17H61.948V11.664a1.611,1.611,0,0,0-.219-.945.931.931,0,0,0-.8-.3,1.247,1.247,0,0,0-1.164.7l.008.109V17H57.135V11.68a1.694,1.694,0,0,0-.211-.961.929.929,0,0,0-.8-.3,1.263,1.263,0,0,0-1.156.7V17H52.331V8.547Zm15.383,8.609A4.345,4.345,0,0,1,67.034,16a4.006,4.006,0,0,1-1.2-3.02v-.219a5.191,5.191,0,0,1,.48-2.289,3.516,3.516,0,0,1,1.4-1.535A4.233,4.233,0,0,1,69.9,8.391,3.659,3.659,0,0,1,72.713,9.5a4.344,4.344,0,0,1,1.031,3.082V13.6H68.51a1.9,1.9,0,0,0,.617,1.117,1.836,1.836,0,0,0,1.234.406,2.366,2.366,0,0,0,1.953-.875l1.2,1.422a3.363,3.363,0,0,1-1.395,1.082A4.713,4.713,0,0,1,70.182,17.156Zm-.3-6.734q-1.156,0-1.375,1.531h2.656v-.2a1.3,1.3,0,0,0-.32-.98A1.275,1.275,0,0,0,69.885,10.422Zm7.336-1.875.086.992a2.867,2.867,0,0,1,2.414-1.148,2.412,2.412,0,0,1,1.973.789,3.757,3.757,0,0,1,.676,2.375V17H79.729V11.664a1.426,1.426,0,0,0-.258-.941,1.193,1.193,0,0,0-.937-.3,1.256,1.256,0,0,0-1.148.609V17H74.752V8.547Zm9.672-2.1v2.1h1.391v1.828H86.893v3.867a.987.987,0,0,0,.172.664.922.922,0,0,0,.68.188,3.862,3.862,0,0,0,.656-.047V16.93a4.859,4.859,0,0,1-1.484.227,2.758,2.758,0,0,1-2.008-.641,2.626,2.626,0,0,1-.648-1.945v-4.2H83.182V8.547H84.26v-2.1ZM94.081,17a2.973,2.973,0,0,1-.25-.758,2.448,2.448,0,0,1-2.031.914,3,3,0,0,1-2.031-.723,2.3,2.3,0,0,1-.836-1.816,2.364,2.364,0,0,1,1.016-2.078,5.174,5.174,0,0,1,2.953-.7h.813v-.448q0-1.17-1.008-1.17a.824.824,0,0,0-.937.926H89.135a2.36,2.36,0,0,1,1.043-1.99,4.383,4.383,0,0,1,2.66-.765,3.843,3.843,0,0,1,2.555.789,2.743,2.743,0,0,1,.961,2.164v3.742a3.832,3.832,0,0,0,.359,1.781V17Zm-1.648-1.719a1.469,1.469,0,0,0,.816-.211,1.322,1.322,0,0,0,.465-.477V13.242h-.766q-1.375,0-1.375,1.234a.754.754,0,0,0,.242.582A.876.876,0,0,0,92.432,15.281Zm10.492-4.352-.867-.062a1.558,1.558,0,0,0-1.594.781V17H97.831V8.547H100.3l.086,1.086a2.039,2.039,0,0,1,1.852-1.242,2.567,2.567,0,0,1,.734.094Zm-77.9,25.453a12.079,12.079,0,0,1,.473-3.391,9.85,9.85,0,0,1,1.41-2.953,6,6,0,0,1,1.945-1.875l.3.953a6.222,6.222,0,0,0-1.871,2.672,11.583,11.583,0,0,0-.8,4.023l-.008.664a11.643,11.643,0,0,0,1.1,5.234,6.252,6.252,0,0,0,1.578,2.078l-.3.883a6.192,6.192,0,0,1-1.984-1.937A10.859,10.859,0,0,1,25.022,36.383Zm9.922.016H32.272V41H30.764V29.625H34.53a4.457,4.457,0,0,1,2.957.875,3.148,3.148,0,0,1,1.035,2.547,3.062,3.062,0,0,1-.574,1.852,3.428,3.428,0,0,1-1.6,1.18l2.672,4.828V41H37.413Zm-2.672-1.227h2.3a2.6,2.6,0,0,0,1.777-.579,1.959,1.959,0,0,0,.66-1.55,2.062,2.062,0,0,0-.629-1.62,2.663,2.663,0,0,0-1.816-.571h-2.3ZM43.9,41.156a3.693,3.693,0,0,1-2.8-1.129,4.19,4.19,0,0,1-1.078-3.02v-.266a5.073,5.073,0,0,1,.48-2.246,3.748,3.748,0,0,1,1.344-1.547,3.378,3.378,0,0,1,1.871-.559,3.166,3.166,0,0,1,2.563,1.086,4.7,4.7,0,0,1,.914,3.109v.6H41.475a3,3,0,0,0,.73,2.02,2.3,2.3,0,0,0,1.777.77,2.517,2.517,0,0,0,1.3-.312,3.258,3.258,0,0,0,.93-.828l.883.688A3.55,3.55,0,0,1,43.9,41.156Zm-.18-7.578a1.928,1.928,0,0,0-1.469.637A3.1,3.1,0,0,0,41.522,36h4.234v-.109a2.753,2.753,0,0,0-.594-1.707A1.815,1.815,0,0,0,43.725,33.578Zm4.8,3.125a4.968,4.968,0,0,1,.914-3.145,3.151,3.151,0,0,1,4.836-.074l.07-.937h1.32V40.8a3.439,3.439,0,0,1-.973,2.586,3.589,3.589,0,0,1-2.613.945,4.348,4.348,0,0,1-1.789-.391,3.08,3.08,0,0,1-1.336-1.07l.75-.867a2.826,2.826,0,0,0,2.273,1.148,2.214,2.214,0,0,0,1.645-.594,2.269,2.269,0,0,0,.59-1.672v-.727a2.971,2.971,0,0,1-2.367,1,2.887,2.887,0,0,1-2.4-1.2A5.224,5.224,0,0,1,48.53,36.7Zm1.453.164a3.79,3.79,0,0,0,.586,2.246,1.9,1.9,0,0,0,1.641.816,2.117,2.117,0,0,0,2.008-1.242V34.828a2.142,2.142,0,0,0-1.992-1.211,1.921,1.921,0,0,0-1.648.82A4.128,4.128,0,0,0,49.983,36.867ZM59.42,41H57.975V32.547H59.42ZM57.858,30.3a.863.863,0,0,1,.215-.594.807.807,0,0,1,.637-.242.819.819,0,0,1,.641.242.854.854,0,0,1,.219.594.826.826,0,0,1-.219.586.834.834,0,0,1-.641.234.821.821,0,0,1-.637-.234A.834.834,0,0,1,57.858,30.3Zm8.8,8.453a1.064,1.064,0,0,0-.441-.91,4.249,4.249,0,0,0-1.539-.559,7.277,7.277,0,0,1-1.742-.562,2.479,2.479,0,0,1-.953-.781,1.869,1.869,0,0,1-.309-1.078,2.193,2.193,0,0,1,.879-1.758,3.432,3.432,0,0,1,2.246-.719,3.532,3.532,0,0,1,2.332.742,2.357,2.357,0,0,1,.895,1.9H66.569a1.3,1.3,0,0,0-.5-1.023,1.888,1.888,0,0,0-1.27-.43,1.976,1.976,0,0,0-1.234.344,1.082,1.082,0,0,0-.445.9.877.877,0,0,0,.414.789,5.1,5.1,0,0,0,1.5.508,7.8,7.8,0,0,1,1.754.578,2.558,2.558,0,0,1,1,.809,1.988,1.988,0,0,1,.324,1.152,2.163,2.163,0,0,1-.906,1.816,3.8,3.8,0,0,1-2.352.684,4.257,4.257,0,0,1-1.8-.359,2.922,2.922,0,0,1-1.223-1,2.42,2.42,0,0,1-.441-1.395h1.445a1.5,1.5,0,0,0,.582,1.152,2.258,2.258,0,0,0,1.434.426,2.331,2.331,0,0,0,1.316-.332A1.02,1.02,0,0,0,66.655,38.758ZM71.944,30.5v2.047h1.578v1.117H71.944v5.249a1.173,1.173,0,0,0,.211.763.888.888,0,0,0,.719.254,3.5,3.5,0,0,0,.688-.094V41a4.215,4.215,0,0,1-1.109.155,1.8,1.8,0,0,1-1.461-.586,2.517,2.517,0,0,1-.492-1.664V33.664H68.959V32.547H70.5V30.5ZM79.3,33.844a4.331,4.331,0,0,0-.711-.055A1.9,1.9,0,0,0,76.655,35v6H75.209V32.547h1.406l.023.977a2.251,2.251,0,0,1,2.016-1.133,1.477,1.477,0,0,1,.641.109Zm.789,2.852a4.993,4.993,0,0,1,.488-2.234,3.643,3.643,0,0,1,1.359-1.531,3.7,3.7,0,0,1,1.988-.539,3.565,3.565,0,0,1,2.793,1.2,4.6,4.6,0,0,1,1.066,3.18v.1a5.036,5.036,0,0,1-.473,2.215,3.589,3.589,0,0,1-1.352,1.527,3.743,3.743,0,0,1-2.02.547,3.556,3.556,0,0,1-2.785-1.2A4.575,4.575,0,0,1,80.084,36.8Zm1.453.172a3.616,3.616,0,0,0,.652,2.258,2.211,2.211,0,0,0,3.5-.012,3.955,3.955,0,0,0,.648-2.418,3.61,3.61,0,0,0-.66-2.254,2.1,2.1,0,0,0-1.754-.863,2.075,2.075,0,0,0-1.727.852A3.925,3.925,0,0,0,81.538,36.867Zm11.391-.406a12.085,12.085,0,0,1-.457,3.34,9.876,9.876,0,0,1-1.4,2.949A6.127,6.127,0,0,1,89.1,44.672l-.3-.883a6.281,6.281,0,0,0,1.934-2.863,12.387,12.387,0,0,0,.746-4.309v-.25a12.861,12.861,0,0,0-.344-3.051,10.3,10.3,0,0,0-.957-2.527A5.838,5.838,0,0,0,88.8,29.047l.3-.883a6.1,6.1,0,0,1,1.965,1.906,9.9,9.9,0,0,1,1.4,2.945A12.363,12.363,0,0,1,92.928,36.461Z" transform="translate(1085.557 5602.8)" fill="#12263f"/>
    <g id="Grupo_1177884" data-name="Grupo 1177884" transform="translate(347.823 5291)">
      <g id="Grupo_1177883" data-name="Grupo 1177883" clip-path="url(#clip-path)">
        <g id="Grupo_1177882" data-name="Grupo 1177882">
          <g id="Grupo_1177881" data-name="Grupo 1177881" clip-path="url(#clip-path)">
            <path id="Trazado_998022" data-name="Trazado 998022" d="M517.015,98.311v0c-.023-.5-.059-1-.089-1.5v-.006c.03.5.066,1,.089,1.5" transform="translate(214.225 40.119)" fill="#81dace"/>
            <path id="Trazado_998023" data-name="Trazado 998023" d="M514.56,121.074h0c.115-.433.231-.864.341-1.3h0c-.109.436-.226.867-.341,1.3" transform="translate(213.244 49.637)" fill="#81dace"/>
            <path id="Trazado_998024" data-name="Trazado 998024" d="M553.81,70.891a106.184,106.184,0,0,0-172.968-.03,106.276,106.276,0,0,1,0,123.291,106.2,106.2,0,0,0,172.964-.034,106.272,106.272,0,0,1,0-123.227" transform="translate(157.829 10.899)" fill="#fc9d83"/>
            <path id="Trazado_998025" data-name="Trazado 998025" d="M509.494,134.574h0q.238-.488.471-.976h0c-.156.327-.314.653-.472.979" transform="translate(211.145 55.364)" fill="#81dace"/>
            <path id="Trazado_998026" data-name="Trazado 998026" d="M516.784,94.8v0q-.074-.8-.16-1.6v0q.087.8.16,1.608" transform="translate(214.1 38.62)" fill="#81dace"/>
            <path id="Trazado_998027" data-name="Trazado 998027" d="M516.625,110.045v0c.057-.526.107-1.055.158-1.584v0c-.051.53-.1,1.061-.158,1.59" transform="translate(214.1 44.946)" fill="#81dace"/>
            <path id="Trazado_998028" data-name="Trazado 998028" d="M516.178,113.351h0c.059-.376.1-.757.158-1.134v-.007c-.055.38-.1.764-.16,1.143" transform="translate(213.915 46.501)" fill="#81dace"/>
            <path id="Trazado_998029" data-name="Trazado 998029" d="M508.432,66.4v0c-.18-.335-.352-.673-.535-1.007.184.334.356.673.536,1.01" transform="translate(210.482 27.099)" fill="#81dace"/>
            <path id="Trazado_998030" data-name="Trazado 998030" d="M512.653,75.955l0-.01c-.051-.14-.1-.281-.147-.422h0c.052.143.1.289.15.433" transform="translate(212.392 31.298)" fill="#81dace"/>
            <path id="Trazado_998031" data-name="Trazado 998031" d="M507.941,137.49h0c.115-.209.222-.421.335-.632h0c-.112.211-.221.424-.335.634" transform="translate(210.501 56.716)" fill="#81dace"/>
            <path id="Trazado_998032" data-name="Trazado 998032" d="M516.926,106.4V106.4c.03-.5.066-.99.089-1.487v0c-.023.5-.059,1-.089,1.5" transform="translate(214.225 43.476)" fill="#81dace"/>
            <path id="Trazado_998033" data-name="Trazado 998033" d="M511.384,72.654h0c-.143-.338-.294-.67-.44-1.007v0c.146.338.3.673.441,1.013" transform="translate(211.745 29.689)" fill="#81dace"/>
            <path id="Trazado_998034" data-name="Trazado 998034" d="M510.048,69.638v0q-.3-.626-.6-1.248l0,0q.308.624.605,1.253" transform="translate(211.124 28.34)" fill="#81dace"/>
            <path id="Trazado_998035" data-name="Trazado 998035" d="M516.343,90.941v-.007c-.057-.395-.1-.791-.164-1.184h0c.062.4.11.795.167,1.192" transform="translate(213.914 37.194)" fill="#81dace"/>
            <path id="Trazado_998036" data-name="Trazado 998036" d="M511.012,131.185v0c.1-.238.209-.471.31-.709v0c-.1.24-.209.475-.311.714" transform="translate(211.774 54.07)" fill="#81dace"/>
            <path id="Trazado_998037" data-name="Trazado 998037" d="M513.989,80.041v0c-.133-.444-.265-.89-.4-1.331h0c.14.443.272.89.406,1.335" transform="translate(212.839 32.617)" fill="#81dace"/>
            <path id="Trazado_998038" data-name="Trazado 998038" d="M506.214,62.461h0l-.013-.018,0-.006a.153.153,0,0,0,.016.025" transform="translate(209.779 25.875)" fill="#81dace"/>
            <path id="Trazado_998039" data-name="Trazado 998039" d="M514.917,83.445v0c-.119-.471-.245-.938-.369-1.406v0c.126.47.252.939.37,1.412" transform="translate(213.238 33.996)" fill="#81dace"/>
            <path id="Trazado_998040" data-name="Trazado 998040" d="M515.626,86.611h0c-.057-.276-.123-.546-.181-.819l0-.01c.059.277.127.552.184.83" transform="translate(213.61 35.549)" fill="#81dace"/>
            <path id="Trazado_998041" data-name="Trazado 998041" d="M513.6,124.375h0c.124-.393.24-.789.361-1.184h0c-.119.4-.236.793-.361,1.187" transform="translate(212.845 51.052)" fill="#81dace"/>
            <path id="Trazado_998042" data-name="Trazado 998042" d="M515.459,117.128v-.007c.049-.233.106-.463.154-.7v0c-.048.238-.106.47-.156.706" transform="translate(213.617 48.248)" fill="#81dace"/>
            <path id="Trazado_998043" data-name="Trazado 998043" d="M512.517,127.245h0c.013-.031.023-.064.034-.095l0-.01c-.013.035-.024.071-.037.106" transform="translate(212.397 52.689)" fill="#81dace"/>
            <path id="Trazado_998044" data-name="Trazado 998044" d="M514.8,120.956q.5-2,.932-4.035-.429,2.032-.932,4.035" transform="translate(213.344 48.454)" fill="#29c29a"/>
            <path id="Trazado_998045" data-name="Trazado 998045" d="M504.351,145.663c.929-1.383,1.839-2.781,2.7-4.209q1.042-1.716,2.017-3.477c.123-.222.236-.45.358-.673q-2.351,4.3-5.078,8.359" transform="translate(209.013 56.902)" fill="#29c29a"/>
            <path id="Trazado_998046" data-name="Trazado 998046" d="M509.828,134.68c.2-.427.419-.847.617-1.277.368-.8.71-1.615,1.058-2.427q-.8,1.871-1.675,3.7" transform="translate(211.283 54.279)" fill="#29c29a"/>
            <path id="Trazado_998047" data-name="Trazado 998047" d="M513.851,124.222c.092-.3.188-.607.277-.912q.286-.976.553-1.959c.059-.218.115-.438.173-.658q-.473,1.776-1,3.529" transform="translate(212.95 50.018)" fill="#29c29a"/>
            <path id="Trazado_998048" data-name="Trazado 998048" d="M508.178,137.921q.965-1.8,1.861-3.634-.9,1.837-1.861,3.634" transform="translate(210.599 55.651)" fill="#29c29a"/>
            <path id="Trazado_998049" data-name="Trazado 998049" d="M511.232,131.822q.959-2.279,1.818-4.608-.855,2.332-1.818,4.608" transform="translate(211.865 52.72)" fill="#29c29a"/>
            <path id="Trazado_998050" data-name="Trazado 998050" d="M512.543,128.428c.53-1.451,1.023-2.921,1.489-4.4-.468,1.479-.959,2.949-1.489,4.4" transform="translate(212.408 51.4)" fill="#29c29a"/>
            <path id="Trazado_998051" data-name="Trazado 998051" d="M513.019,76.832c-.553-1.509-1.146-3-1.764-4.475.618,1.475,1.211,2.966,1.764,4.475" transform="translate(211.875 29.986)" fill="#29c29a"/>
            <path id="Trazado_998052" data-name="Trazado 998052" d="M508.6,66.6c-.1-.182-.192-.371-.293-.553q-1.012-1.822-2.093-3.6Q507.45,64.5,508.6,66.6" transform="translate(209.783 25.882)" fill="#29c29a"/>
            <path id="Trazado_998053" data-name="Trazado 998053" d="M509.927,69.33q-.8-1.629-1.653-3.228.853,1.6,1.653,3.228" transform="translate(210.639 27.394)" fill="#29c29a"/>
            <path id="Trazado_998054" data-name="Trazado 998054" d="M503.152,57.805l-.02.028c.373.526.754,1.045,1.12,1.578-.368-.536-.726-1.079-1.1-1.607" transform="translate(208.508 23.956)" fill="#29c29a"/>
            <path id="Trazado_998055" data-name="Trazado 998055" d="M514.827,83.021q-.452-1.7-.958-3.371.507,1.674.958,3.371" transform="translate(212.958 33.009)" fill="#29c29a"/>
            <path id="Trazado_998056" data-name="Trazado 998056" d="M513.986,79.9q-.649-2.054-1.378-4.071.73,2.016,1.378,4.071" transform="translate(212.435 31.424)" fill="#29c29a"/>
            <path id="Trazado_998057" data-name="Trazado 998057" d="M506.934,63.585c-.239-.393-.494-.778-.738-1.168-.579-.925-1.167-1.844-1.774-2.75.863,1.289,1.706,2.591,2.512,3.918" transform="translate(209.043 24.727)" fill="#29c29a"/>
            <path id="Trazado_998058" data-name="Trazado 998058" d="M503.129,145.494l.024.034c.444-.624.868-1.263,1.3-1.9-.429.631-.881,1.243-1.324,1.863" transform="translate(208.507 59.524)" fill="#29c29a"/>
            <path id="Trazado_998059" data-name="Trazado 998059" d="M515.569,117.835q.486-2.389.861-4.819-.378,2.429-.861,4.819" transform="translate(213.662 46.836)" fill="#29c29a"/>
            <path id="Trazado_998060" data-name="Trazado 998060" d="M511.387,72.624q-.73-1.691-1.516-3.354.787,1.661,1.516,3.354" transform="translate(211.301 28.707)" fill="#29c29a"/>
            <path id="Trazado_998061" data-name="Trazado 998061" d="M516.736,109.487q.163-1.752.267-3.522-.106,1.769-.267,3.522" transform="translate(214.146 43.914)" fill="#29c29a"/>
            <path id="Trazado_998062" data-name="Trazado 998062" d="M515.706,86.921q-.414-1.958-.9-3.89.486,1.931.9,3.89" transform="translate(213.347 34.41)" fill="#29c29a"/>
            <path id="Trazado_998063" data-name="Trazado 998063" d="M516.291,113.3q.267-1.85.472-3.719-.2,1.869-.472,3.719" transform="translate(213.962 45.412)" fill="#29c29a"/>
            <path id="Trazado_998064" data-name="Trazado 998064" d="M517.115,102.846c0-1.669-.049-3.327-.126-4.977.076,1.651.126,3.308.126,4.977" transform="translate(214.251 40.559)" fill="#29c29a"/>
            <path id="Trazado_998065" data-name="Trazado 998065" d="M516.989,106.367c.076-1.651.126-3.308.126-4.979,0,1.67-.049,3.328-.126,4.979" transform="translate(214.251 42.017)" fill="#29c29a"/>
            <path id="Trazado_998066" data-name="Trazado 998066" d="M517,97.835q-.106-1.761-.267-3.508.163,1.746.267,3.508" transform="translate(214.146 39.091)" fill="#29c29a"/>
            <path id="Trazado_998067" data-name="Trazado 998067" d="M516.426,91.151q-.376-2.41-.854-4.784.482,2.372.854,4.784" transform="translate(213.664 35.792)" fill="#29c29a"/>
            <path id="Trazado_998068" data-name="Trazado 998068" d="M516.761,94.266c-.133-1.232-.291-2.455-.467-3.673.175,1.218.334,2.443.467,3.673" transform="translate(213.963 37.544)" fill="#29c29a"/>
            <path id="Trazado_998069" data-name="Trazado 998069" d="M510.625,178.6q2.724-4.052,5.078-8.359c.115-.209.222-.423.335-.632q.965-1.8,1.861-3.634c.158-.325.317-.652.472-.979q.872-1.833,1.675-3.7c.1-.239.211-.474.311-.714q.959-2.279,1.818-4.608c.013-.035.024-.071.037-.106.529-1.451,1.021-2.921,1.489-4.4.124-.393.24-.791.361-1.187q.53-1.75,1-3.529c.115-.433.231-.864.339-1.3q.505-2,.932-4.034c.05-.236.107-.47.156-.706q.486-2.389.861-4.819c.058-.378.1-.761.158-1.141q.267-1.85.472-3.72c.058-.528.109-1.058.158-1.59q.163-1.752.267-3.522c.031-.5.066-.994.089-1.5.076-1.651.126-3.308.126-4.977s-.05-3.327-.126-4.977c-.023-.5-.059-1-.089-1.5q-.106-1.761-.266-3.508c-.051-.536-.1-1.074-.161-1.608-.133-1.231-.291-2.455-.467-3.673-.057-.4-.1-.8-.166-1.192q-.375-2.41-.854-4.784c-.057-.279-.125-.553-.184-.83q-.414-1.958-.9-3.89c-.119-.472-.246-.942-.371-1.412q-.452-1.7-.956-3.371c-.136-.446-.267-.893-.407-1.335q-.649-2.054-1.378-4.071c-.051-.144-.1-.29-.15-.434-.553-1.508-1.146-3-1.764-4.475-.143-.339-.3-.673-.443-1.011q-.73-1.693-1.515-3.354-.3-.63-.605-1.253-.8-1.632-1.653-3.228c-.178-.337-.352-.676-.535-1.01-.768-1.4-1.559-2.788-2.386-4.151l-.016-.024c-.808-1.327-1.649-2.629-2.512-3.918-.231-.345-.47-.685-.7-1.027-.365-.532-.747-1.052-1.122-1.577a106.272,106.272,0,0,0,0,123.227c.443-.62.9-1.232,1.325-1.863.134-.2.272-.392.4-.59" transform="translate(202.74 23.964)" fill="#fc8737"/>
            <path id="Trazado_998070" data-name="Trazado 998070" d="M676.134,70.874a106.213,106.213,0,0,0-172.988-.013h0c.378.53.735,1.074,1.1,1.611.233.339.471.678.7,1.021.608.907,1.2,1.826,1.775,2.751.246.393.5.778.741,1.174l.013.018q1.08,1.778,2.093,3.6c.1.182.194.371.293.553.182.334.355.672.535,1.007q.855,1.6,1.656,3.233.3.622.6,1.249.787,1.663,1.518,3.359c.146.335.3.668.44,1,.62,1.479,1.211,2.969,1.765,4.479.051.14.1.283.147.423q.732,2.02,1.38,4.082c.14.443.272.887.4,1.33q.507,1.678.959,3.378c.125.468.25.935.369,1.406q.486,1.937.9,3.9c.058.273.126.545.181.82q.484,2.374.856,4.786c.061.393.107.789.164,1.184q.265,1.831.468,3.683.087.8.16,1.6.163,1.748.267,3.516c.03.5.065,1,.089,1.5.076,1.651.126,3.31.126,4.98s-.049,3.33-.126,4.98c-.024.5-.059.992-.089,1.488q-.106,1.774-.269,3.53c-.05.528-.1,1.055-.157,1.581q-.2,1.878-.474,3.73c-.054.376-.1.757-.158,1.134q-.378,2.429-.861,4.822c-.047.235-.1.464-.153.7q-.429,2.037-.934,4.042c-.11.436-.226.864-.341,1.3-.058.221-.113.441-.173.661-.178.653-.361,1.307-.552,1.956-.091.307-.187.61-.279.914-.119.4-.236.792-.359,1.184-.47,1.487-.963,2.959-1.494,4.414-.011.03-.021.062-.033.095q-.855,2.334-1.819,4.611c-.1.239-.208.471-.31.707-.348.815-.69,1.629-1.059,2.431-.2.43-.413.85-.617,1.277q-.233.49-.471.976-.9,1.839-1.863,3.638c-.113.211-.221.424-.335.631-.122.225-.233.451-.356.673q-.976,1.759-2.017,3.477c-.866,1.43-1.775,2.827-2.7,4.212-.133.2-.269.39-.4.586-.433.634-.857,1.276-1.3,1.9A106.21,106.21,0,0,0,676.134,70.874" transform="translate(208.514 10.899)" fill="#ffd54e"/>
            <path id="Trazado_998071" data-name="Trazado 998071" d="M513.583,78.707c.14.441.272.887.4,1.331-.134-.444-.265-.89-.4-1.331" transform="translate(212.839 32.618)" fill="#16e199"/>
            <path id="Trazado_998072" data-name="Trazado 998072" d="M514.547,82.035c.125.468.25.935.369,1.406-.119-.471-.245-.938-.369-1.406" transform="translate(213.239 33.997)" fill="#16e199"/>
            <path id="Trazado_998073" data-name="Trazado 998073" d="M516.624,93.192c.058.532.109,1.066.16,1.6-.051-.536-.1-1.069-.16-1.6" transform="translate(214.1 38.621)" fill="#16e199"/>
            <path id="Trazado_998074" data-name="Trazado 998074" d="M515.444,85.787c.058.274.125.545.181.819-.057-.274-.123-.545-.181-.819" transform="translate(213.61 35.552)" fill="#16e199"/>
            <path id="Trazado_998075" data-name="Trazado 998075" d="M516.782,108.457c-.05.529-.1,1.057-.157,1.584.057-.528.107-1.055.157-1.584" transform="translate(214.1 44.947)" fill="#16e199"/>
            <path id="Trazado_998076" data-name="Trazado 998076" d="M517.015,104.91c-.023.5-.059.992-.089,1.488.03-.5.066-.99.089-1.488" transform="translate(214.225 43.477)" fill="#16e199"/>
            <path id="Trazado_998077" data-name="Trazado 998077" d="M516.926,96.811c.03.5.066.994.089,1.5-.023-.5-.059-1-.089-1.5" transform="translate(214.225 40.12)" fill="#16e199"/>
            <path id="Trazado_998078" data-name="Trazado 998078" d="M510.944,71.644c.146.337.3.669.438,1.007-.141-.338-.293-.67-.438-1.007" transform="translate(211.746 29.691)" fill="#16e199"/>
            <path id="Trazado_998079" data-name="Trazado 998079" d="M507.9,65.389c.182.332.355.672.533,1.007-.178-.335-.351-.675-.533-1.007" transform="translate(210.482 27.099)" fill="#16e199"/>
            <path id="Trazado_998080" data-name="Trazado 998080" d="M506.2,62.44l.011.018-.011-.018" transform="translate(209.78 25.876)" fill="#16e199"/>
            <path id="Trazado_998081" data-name="Trazado 998081" d="M503.926,58.943c.233.341.471.679.7,1.021-.229-.344-.467-.68-.7-1.021" transform="translate(208.837 24.427)" fill="#16e199"/>
            <path id="Trazado_998082" data-name="Trazado 998082" d="M512.5,75.523c.051.14.1.281.147.421-.051-.14-.1-.281-.147-.421" transform="translate(212.392 31.298)" fill="#16e199"/>
            <path id="Trazado_998083" data-name="Trazado 998083" d="M516.336,112.213c-.055.378-.1.758-.158,1.134.058-.376.1-.757.158-1.134" transform="translate(213.915 46.503)" fill="#16e199"/>
            <path id="Trazado_998084" data-name="Trazado 998084" d="M509.445,68.387q.305.622.6,1.248-.3-.626-.6-1.248" transform="translate(211.124 28.341)" fill="#16e199"/>
            <path id="Trazado_998085" data-name="Trazado 998085" d="M516.177,89.751c.059.392.107.789.164,1.184-.057-.395-.1-.792-.164-1.184" transform="translate(213.914 37.195)" fill="#16e199"/>
            <path id="Trazado_998086" data-name="Trazado 998086" d="M511.323,130.473c-.1.238-.208.471-.31.709.1-.238.209-.471.31-.709" transform="translate(211.774 54.071)" fill="#16e199"/>
            <path id="Trazado_998087" data-name="Trazado 998087" d="M508.276,136.858c-.113.209-.221.423-.335.631.115-.208.222-.422.335-.631" transform="translate(210.501 56.717)" fill="#16e199"/>
            <path id="Trazado_998088" data-name="Trazado 998088" d="M515.614,116.424c-.048.233-.1.464-.154.7.05-.233.106-.464.154-.7" transform="translate(213.617 48.248)" fill="#16e199"/>
            <path id="Trazado_998089" data-name="Trazado 998089" d="M504.468,143.215c-.132.2-.269.389-.4.586.134-.2.27-.389.4-.586" transform="translate(208.895 59.351)" fill="#16e199"/>
            <path id="Trazado_998090" data-name="Trazado 998090" d="M509.966,133.6q-.233.49-.471.976.238-.486.471-.976" transform="translate(211.145 55.365)" fill="#16e199"/>
            <path id="Trazado_998091" data-name="Trazado 998091" d="M513.957,123.189c-.12.395-.236.791-.361,1.184.124-.393.24-.789.361-1.184" transform="translate(212.845 51.052)" fill="#16e199"/>
            <path id="Trazado_998092" data-name="Trazado 998092" d="M514.9,119.775c-.109.434-.226.866-.341,1.3.116-.431.232-.863.341-1.3" transform="translate(213.244 49.637)" fill="#16e199"/>
            <path id="Trazado_998093" data-name="Trazado 998093" d="M512.551,127.146c-.011.031-.021.064-.033.095.011-.031.021-.064.033-.095" transform="translate(212.398 52.692)" fill="#16e199"/>
            <path id="Trazado_998094" data-name="Trazado 998094" d="M504.35,144.449c.929-1.383,1.839-2.782,2.7-4.211-.864,1.427-1.774,2.826-2.7,4.209h0" transform="translate(209.013 58.117)" fill="#16e199"/>
            <path id="Trazado_998095" data-name="Trazado 998095" d="M504.25,59.415c-.368-.536-.726-1.081-1.1-1.61.378.528.734,1.071,1.1,1.607l0,0" transform="translate(208.514 23.956)" fill="#16e199"/>
            <path id="Trazado_998096" data-name="Trazado 998096" d="M504.449,143.629l0,0c-.431.634-.856,1.273-1.3,1.9.445-.624.87-1.264,1.3-1.9" transform="translate(208.514 59.523)" fill="#16e199"/>
            <path id="Trazado_998097" data-name="Trazado 998097" d="M506.2,62.417c-.58-.926-1.168-1.846-1.775-2.752v0c.607.905,1.2,1.825,1.774,2.75" transform="translate(209.042 24.726)" fill="#16e199"/>
            <path id="Trazado_998098" data-name="Trazado 998098" d="M514.6,121.158c-.178.655-.361,1.308-.552,1.959.191-.651.373-1.3.552-1.959" transform="translate(213.032 50.21)" fill="#16e199"/>
            <path id="Trazado_998099" data-name="Trazado 998099" d="M504.628,59.968h0c-.229-.344-.467-.682-.7-1.021l0,0c.235.342.474.682.7,1.027" transform="translate(208.836 24.426)" fill="#16e199"/>
            <path id="Trazado_998100" data-name="Trazado 998100" d="M504.065,143.8l0,0c.133-.2.269-.389.4-.586h0c-.133.2-.27.393-.4.59" transform="translate(208.895 59.351)" fill="#16e199"/>
            <path id="Trazado_998101" data-name="Trazado 998101" d="M289.518,132.507a105.713,105.713,0,0,0,19.706,61.632,106.232,106.232,0,0,1-172.988.013,106.273,106.273,0,0,0,0-123.289,106.213,106.213,0,0,1,172.988.013,105.713,105.713,0,0,0-19.706,61.632" transform="translate(56.459 10.899)" fill="#fc9d83"/>
            <path id="Trazado_998102" data-name="Trazado 998102" d="M161.715,119.451A105.72,105.72,0,0,1,142.01,181.1a106.273,106.273,0,0,1,0-123.289,105.72,105.72,0,0,1,19.706,61.645" transform="translate(50.685 23.956)" fill="#fc8737"/>
            <path id="Trazado_998103" data-name="Trazado 998103" d="M172.988,132.507a105.72,105.72,0,0,0,19.706,61.645,106.207,106.207,0,1,1,0-123.289,105.72,105.72,0,0,0-19.706,61.645" transform="translate(0 10.899)" fill="#ffd54e"/>
            <path id="Trazado_998104" data-name="Trazado 998104" d="M284.018,119.447a105.714,105.714,0,0,1-19.706,61.632,106.233,106.233,0,0,1,0-123.264,105.714,105.714,0,0,1,19.706,61.632" transform="translate(101.37 23.96)" fill="#fc8737"/>
            <path id="Trazado_998105" data-name="Trazado 998105" d="M406.321,119.451A105.72,105.72,0,0,1,386.616,181.1a106.273,106.273,0,0,1,0-123.289,105.72,105.72,0,0,1,19.706,61.645" transform="translate(152.055 23.956)" fill="#fc8737"/>
            <path id="Trazado_998106" data-name="Trazado 998106" d="M411.821,132.507a105.72,105.72,0,0,0,19.706,61.645,106.232,106.232,0,0,1-172.988-.013,106.233,106.233,0,0,0,0-123.264,106.213,106.213,0,0,1,172.988-.013,105.72,105.72,0,0,0-19.706,61.645" transform="translate(107.144 10.899)" fill="#ffd54e"/>
            <circle id="Elipse_13669" data-name="Elipse 13669" cx="95.389" cy="95.389" r="95.389" transform="translate(702.766 48.014)" fill="none" stroke="#fff" stroke-miterlimit="10" stroke-width="1"/>
            <circle id="Elipse_13670" data-name="Elipse 13670" cx="95.389" cy="95.389" r="95.389" transform="translate(529.779 48.014)" fill="none" stroke="#fff" stroke-miterlimit="10" stroke-width="1"/>
            <circle id="Elipse_13671" data-name="Elipse 13671" cx="95.389" cy="95.389" r="95.389" transform="translate(183.799 48.014)" fill="none" stroke="#fff" stroke-miterlimit="10" stroke-width="1"/>
            <g id="Grupo_1177868" data-name="Grupo 1177868" transform="translate(183.296 248.892)" style="mix-blend-mode: darken;isolation: isolate">
              <g id="Grupo_1177867" data-name="Grupo 1177867">
                <g id="Grupo_1177866" data-name="Grupo 1177866" clip-path="url(#clip-path-3)">
                  <path id="Trazado_998107" data-name="Trazado 998107" d="M130.091,176.468A142.379,142.379,0,0,0,314.667,181.4" transform="translate(-129.384 -175.76)" fill="none" stroke="#674a11" stroke-linecap="round" stroke-linejoin="round" stroke-width="1"/>
                  <path id="Trazado_998108" data-name="Trazado 998108" d="M264.113,186.405l3.622-9.938-10.417,1.83Z" transform="translate(-76.658 -175.76)" fill="#674a11"/>
                </g>
              </g>
            </g>
            <g id="Grupo_1177871" data-name="Grupo 1177871" transform="translate(529.276 248.892)" style="mix-blend-mode: darken;isolation: isolate">
              <g id="Grupo_1177870" data-name="Grupo 1177870">
                <g id="Grupo_1177869" data-name="Grupo 1177869" clip-path="url(#clip-path-3)">
                  <path id="Trazado_998109" data-name="Trazado 998109" d="M374.7,176.468A142.379,142.379,0,0,0,559.276,181.4" transform="translate(-373.993 -175.76)" fill="none" stroke="#674a11" stroke-linecap="round" stroke-linejoin="round" stroke-width="1"/>
                  <path id="Trazado_998110" data-name="Trazado 998110" d="M508.722,186.405l3.622-9.938-10.417,1.83Z" transform="translate(-321.267 -175.76)" fill="#674a11"/>
                </g>
              </g>
            </g>
            <g id="Grupo_1177877" data-name="Grupo 1177877" transform="translate(356.285)" style="mix-blend-mode: darken;isolation: isolate">
              <g id="Grupo_1177876" data-name="Grupo 1177876">
                <g id="Grupo_1177875" data-name="Grupo 1177875" clip-path="url(#clip-path-5)">
                  <path id="Trazado_998113" data-name="Trazado 998113" d="M252.4,36.967A142.458,142.458,0,0,1,436.97,32.036" transform="translate(-251.688 0.207)" fill="none" stroke="#674a11" stroke-linecap="round" stroke-linejoin="round" stroke-width="1"/>
                  <path id="Trazado_998114" data-name="Trazado 998114" d="M379.621,27.367l10.419,1.826-3.627-9.936Z" transform="translate(-198.963 7.98)" fill="#674a11"/>
                </g>
              </g>
            </g>
            <g id="Grupo_1177880" data-name="Grupo 1177880" transform="translate(10.308)" style="mix-blend-mode: darken;isolation: isolate">
              <g id="Grupo_1177879" data-name="Grupo 1177879">
                <g id="Grupo_1177878" data-name="Grupo 1177878" clip-path="url(#clip-path-6)">
                  <path id="Trazado_998115" data-name="Trazado 998115" d="M7.788,36.992a142.384,142.384,0,0,1,184.576-4.933" transform="translate(-7.081 0.207)" fill="none" stroke="#674a11" stroke-linecap="round" stroke-linejoin="round" stroke-width="1"/>
                  <path id="Trazado_998116" data-name="Trazado 998116" d="M135.014,27.381l10.417,1.83-3.622-9.938Z" transform="translate(45.645 7.988)" fill="#674a11"/>
                </g>
              </g>
            </g>
            <circle id="Elipse_13672" data-name="Elipse 13672" cx="95.389" cy="95.389" r="95.389" transform="translate(10.809 48.014)" fill="none" stroke="#fff" stroke-miterlimit="10" stroke-width="1"/>
            <circle id="Elipse_13673" data-name="Elipse 13673" cx="95.389" cy="95.389" r="95.389" transform="translate(356.789 48.014)" fill="none" stroke="#fff" stroke-miterlimit="10" stroke-width="1"/>
          </g>
        </g>
      </g>
    </g>
    <g id="Grupo_1177887" data-name="Grupo 1177887" transform="translate(412.092 5393.139)">
      <g id="Grupo_1177886" data-name="Grupo 1177886" clip-path="url(#clip-path-7)">
        <path id="Trazado_998117" data-name="Trazado 998117" d="M62.463,10.877A36.995,36.995,0,0,0,5.574,51.816,1.985,1.985,0,0,1,4.3,54.284a1.946,1.946,0,0,1-2.425-1.127,40.921,40.921,0,0,1,63.178-45.3,6.454,6.454,0,1,1-2.594,3.018" transform="translate(0 -0.001)" fill="#12263f"/>
        <path id="Trazado_998118" data-name="Trazado 998118" d="M36.082,151.118a6.576,6.576,0,0,1-8.219-1.19,6.469,6.469,0,0,1,7.972-9.983,6.635,6.635,0,0,1,2.844,8.157,37,37,0,0,0,56.874-40.93,1.9,1.9,0,0,1,1.269-2.3,1.947,1.947,0,0,1,2.481,1.118,40.929,40.929,0,0,1-63.22,45.132" transform="translate(-19.261 -77.104)" fill="#12263f"/>
        <path id="Trazado_998119" data-name="Trazado 998119" d="M60.5,105.738l-17,.018a29.24,29.24,0,0,1,5.278-15,63.71,63.71,0,0,0,12.806,2.92,102.559,102.559,0,0,0-1.089,12.06" transform="translate(-32.015 -66.791)" fill="#12263f"/>
        <path id="Trazado_998120" data-name="Trazado 998120" d="M61.665,174.533A62.323,62.323,0,0,0,48.9,177.487a28.594,28.594,0,0,1-5.29-15l16.967.027a102.8,102.8,0,0,0,1.088,12.016" transform="translate(-32.094 -119.58)" fill="#12263f"/>
        <path id="Trazado_998121" data-name="Trazado 998121" d="M216.05,105.781l-16.968.026a113.06,113.06,0,0,0-1.115-12.1,58.81,58.81,0,0,0,12.791-2.919,28.994,28.994,0,0,1,5.292,14.993" transform="translate(-145.688 -66.813)" fill="#12263f"/>
        <path id="Trazado_998122" data-name="Trazado 998122" d="M210.956,177.478a61.614,61.614,0,0,0-12.809-2.857c.512-3.983.9-7.852,1.033-12.058l16.995,0a29.486,29.486,0,0,1-5.219,14.911" transform="translate(-145.821 -119.634)" fill="#12263f"/>
        <path id="Trazado_998123" data-name="Trazado 998123" d="M139.867,115.06l-16.909.008a77.688,77.688,0,0,1,1.11-11.645,124.364,124.364,0,0,0,14.7.011,77.629,77.629,0,0,1,1.1,11.627" transform="translate(-90.487 -76.111)" fill="#12263f"/>
        <path id="Trazado_998124" data-name="Trazado 998124" d="M138.822,174.066a147.538,147.538,0,0,0-14.756.041,78.224,78.224,0,0,1-1.108-11.6l16.873-.031a82.514,82.514,0,0,1-1.009,11.592" transform="translate(-90.487 -119.568)" fill="#12263f"/>
        <path id="Trazado_998125" data-name="Trazado 998125" d="M143.275,55.519c-4.465.228-8.688.192-13.143.01.67-3.415,2.4-8.918,5.02-11.206a2.116,2.116,0,0,1,3.079.005,10.585,10.585,0,0,1,2.36,3.214,33.361,33.361,0,0,1,2.685,7.977" transform="translate(-95.767 -32.131)" fill="#12263f"/>
        <path id="Trazado_998126" data-name="Trazado 998126" d="M138.26,232.054a2.115,2.115,0,0,1-3.149.064,10.527,10.527,0,0,1-2.357-3.216,33.669,33.669,0,0,1-2.685-7.943,125.977,125.977,0,0,1,13.144-.059c-.647,3.317-2.348,8.82-4.952,11.154" transform="translate(-95.72 -162.461)" fill="#12263f"/>
        <path id="Trazado_998127" data-name="Trazado 998127" d="M195.117,54.774a56.255,56.255,0,0,1-10.843,2.285,39.353,39.353,0,0,0-3.894-10.767,28.449,28.449,0,0,1,14.737,8.482" transform="translate(-132.745 -34.067)" fill="#12263f"/>
        <path id="Trazado_998128" data-name="Trazado 998128" d="M195.161,225.2a28.753,28.753,0,0,1-14.723,8.5,40.482,40.482,0,0,0,3.873-10.782,56.684,56.684,0,0,1,10.85,2.285" transform="translate(-132.788 -164.045)" fill="#12263f"/>
        <path id="Trazado_998129" data-name="Trazado 998129" d="M84.716,56.932a45.61,45.61,0,0,1-10.9-2.223,28.94,28.94,0,0,1,14.7-8.429,38.675,38.675,0,0,0-3.8,10.653" transform="translate(-54.326 -34.058)" fill="#12263f"/>
        <path id="Trazado_998130" data-name="Trazado 998130" d="M88.6,233.776a28.891,28.891,0,0,1-14.722-8.425,53.048,53.048,0,0,1,10.831-2.318,38.706,38.706,0,0,0,3.89,10.743" transform="translate(-54.37 -164.135)" fill="#12263f"/>
        <path id="Trazado_998131" data-name="Trazado 998131" d="M281.633,80.03a1.959,1.959,0,1,1-1.959-1.959,1.959,1.959,0,0,1,1.959,1.959" transform="translate(-204.376 -57.454)" fill="#12263f"/>
        <path id="Trazado_998132" data-name="Trazado 998132" d="M21.624,219.51a1.959,1.959,0,1,1-1.959-1.959,1.959,1.959,0,0,1,1.959,1.959" transform="translate(-13.029 -160.1)" fill="#12263f"/>
      </g>
    </g>
    <g id="Grupo_1177889" data-name="Grupo 1177889" transform="translate(594.711 5397.064)">
      <g id="Grupo_1177888" data-name="Grupo 1177888" clip-path="url(#clip-path-8)">
        <path id="Trazado_998133" data-name="Trazado 998133" d="M64.125,32.062A32.063,32.063,0,1,1,32.063,0,32.063,32.063,0,0,1,64.125,32.062m-7.4,0A24.663,24.663,0,1,0,32.062,56.726,24.663,24.663,0,0,0,56.725,32.063" fill="#12263f"/>
        <path id="Trazado_998134" data-name="Trazado 998134" d="M224.353,233.859l-9.5-9.508a38.089,38.089,0,0,0,9.548-9.542l9.544,9.571a6.745,6.745,0,0,1-9.6,9.479" transform="translate(-161.844 -161.808)" fill="#12263f"/>
        <path id="Trazado_998135" data-name="Trazado 998135" d="M89.444,69.719A19.728,19.728,0,1,1,69.716,49.991,19.728,19.728,0,0,1,89.444,69.719m-28.6,1.364,5.039,4.927a2.492,2.492,0,0,0,3.7-.03l9.3-9.184a2.41,2.41,0,0,0-.007-3.386,2.373,2.373,0,0,0-3.324-.168l-7.813,7.6-3.869-3.671a2.406,2.406,0,0,0-3.439.306,2.58,2.58,0,0,0,.408,3.6" transform="translate(-37.654 -37.656)" fill="#12263f"/>
      </g>
    </g>
    <g id="Grupo_1177891" data-name="Grupo 1177891" transform="translate(760.822 5394.891)">
      <g id="Grupo_1177890" data-name="Grupo 1177890" clip-path="url(#clip-path-9)">
        <path id="Trazado_998136" data-name="Trazado 998136" d="M60.232,57.618a28.069,28.069,0,1,0-2.693,2.665,26.933,26.933,0,0,1,2.643,2.591c-.679,1.729-.845,7.527.344,9.139A39.142,39.142,0,1,1,72.085,60.442c-2-.989-6.983-1.012-9.2-.269Z" transform="translate(0 0)" fill="#12263f"/>
        <path id="Trazado_998137" data-name="Trazado 998137" d="M92.644,89.976a13.105,13.105,0,1,0-2.683,2.654l7.973,7.937a24.256,24.256,0,1,1,2.65-2.654Z" transform="translate(-42.997 -42.986)" fill="#12263f"/>
        <path id="Trazado_998138" data-name="Trazado 998138" d="M126.563,123.887a1.915,1.915,0,0,0-2.537-.232,1.8,1.8,0,0,0-.387,2.531l6.6,6.739a9.333,9.333,0,1,1,2.7-2.7Z" transform="translate(-85.982 -85.963)" fill="#12263f"/>
        <path id="Trazado_998139" data-name="Trazado 998139" d="M253.372,255.217v3.5a1.9,1.9,0,0,1-1.3,1.946,1.862,1.862,0,0,1-2.271-1.024l-3.839-7.725c.1-1.746-.928-6.359,2-6.069,1.289.128,2.8-.339,4.008.128,2.775,1.077,5.241,2.591,7.918,3.844a1.826,1.826,0,0,1,.863,2.165,1.9,1.9,0,0,1-1.951,1.313l-3.369-.015a1.954,1.954,0,0,0-2.054,1.941" transform="translate(-182.487 -182.409)" fill="#12263f"/>
      </g>
    </g>
    <g id="Grupo_1177893" data-name="Grupo 1177893" transform="translate(935.003 5396.891)">
      <g id="Grupo_1177892" data-name="Grupo 1177892" clip-path="url(#clip-path-10)">
        <path id="Trazado_998140" data-name="Trazado 998140" d="M38.32,73.008a5.458,5.458,0,0,1-4.589,1.964,5.527,5.527,0,0,1-4.038-2.759,5.451,5.451,0,0,0-7.3-2.439,5.365,5.365,0,0,1-4.884-.3,5.071,5.071,0,0,1-2.253-4.036,5.368,5.368,0,0,0-5.328-5.308,5.4,5.4,0,0,1-4.184-2.153,5.125,5.125,0,0,1-.4-5.014A5.243,5.243,0,0,0,2.9,45.93,5.3,5.3,0,0,1,.069,42.206a5.329,5.329,0,0,1,1.8-4.8,5.454,5.454,0,0,0,.647-7.574,4.805,4.805,0,0,1-.682-4.853,5.292,5.292,0,0,1,3.424-2.941,5.327,5.327,0,0,0,4.013-6.407,5.156,5.156,0,0,1,1.347-4.66,5.138,5.138,0,0,1,4.843-1.223c2.767.548,4.994-1.443,5.79-4.022a5.367,5.367,0,0,1,2.893-3.48,5.4,5.4,0,0,1,5.012.609,5.531,5.531,0,0,0,7.592-.923A5.348,5.348,0,0,1,41.257.029a5.476,5.476,0,0,1,4.049,2.755A5.462,5.462,0,0,0,52.6,5.22a5.407,5.407,0,0,1,4.885.3,5.055,5.055,0,0,1,2.253,4.036,5.363,5.363,0,0,0,5.323,5.3,5.4,5.4,0,0,1,4.187,2.156,5.129,5.129,0,0,1,.4,5.016,5.23,5.23,0,0,0,2.435,7.033,5.083,5.083,0,0,1,1.01,8.559c-1.694,1.638-2.7,4.554-1.09,6.547,1.263,1.56,2.276,2.941,1.644,5.156a5.325,5.325,0,0,1-3.595,3.49,5.259,5.259,0,0,0-4,6.395,5.131,5.131,0,0,1-1.334,4.616,5.21,5.21,0,0,1-4.622,1.4,5.4,5.4,0,0,0-6.353,4.057,5.36,5.36,0,0,1-2.9,3.466,5.49,5.49,0,0,1-5.016-.613,5.481,5.481,0,0,0-7.514.869m23.963-35.5A24.851,24.851,0,1,0,37.432,62.358,24.85,24.85,0,0,0,62.282,37.507" transform="translate(0 0)" fill="#12263f"/>
        <path id="Trazado_998141" data-name="Trazado 998141" d="M112.184,93.841A19.247,19.247,0,1,1,92.937,74.594a19.247,19.247,0,0,1,19.247,19.247m-23.036,8.507c.7.7,1.583.182,2.1-.326l12.387-12.278a1.375,1.375,0,0,0,.033-1.777l-2.569-2.58a1.458,1.458,0,0,0-2.141.2L90,94.391l-3.439-3.36a1.275,1.275,0,0,0-1.792.1l-2.461,2.461A1.368,1.368,0,0,0,82.3,95.54Z" transform="translate(-55.51 -56.191)" fill="#12263f"/>
      </g>
    </g>
    <g id="Grupo_1177895" data-name="Grupo 1177895" transform="translate(1119 5400.891)">
      <g id="Grupo_1177894" data-name="Grupo 1177894" clip-path="url(#clip-path-11)">
        <path id="Trazado_998142" data-name="Trazado 998142" d="M50.19,60.207a5.744,5.744,0,0,1-5.942,5.686l-38.262,0a5.8,5.8,0,0,1-5.962-5.8L0,5.591C.242,2.69,2.34.089,5.379.079L30.877,0l.01,13.784a5.93,5.93,0,0,0,5.774,5.549l13.582.016ZM36.876,31.027a1.982,1.982,0,0,0,1.761-2.033,1.888,1.888,0,0,0-1.806-1.8H13.4a1.88,1.88,0,0,0-1.8,1.954c0,.67.684,1.881,1.689,1.881Zm-.136,7.682a1.9,1.9,0,0,0,1.9-1.958,2,2,0,0,0-1.852-1.9H13.45A2,2,0,0,0,11.6,36.9a1.949,1.949,0,0,0,2.018,1.822Zm.136,7.76a1.982,1.982,0,0,0,1.761-2.034,1.888,1.888,0,0,0-1.806-1.8H13.4a1.88,1.88,0,0,0-1.8,1.954c0,.67.684,1.881,1.689,1.881Zm-7.564,7.642c1.141,0,1.655-1.287,1.564-2.091a1.947,1.947,0,0,0-1.9-1.726L13.442,50.3A1.991,1.991,0,0,0,11.6,52.347a1.963,1.963,0,0,0,2.01,1.822Z" fill="#12263f"/>
        <path id="Trazado_998143" data-name="Trazado 998143" d="M170.915,20.074a1.937,1.937,0,0,1-1.956-1.865L169,5.816l14.212,14.209Z" transform="translate(-134.172 -4.619)" fill="#12263f"/>
      </g>
    </g>
  </g>
</svg>
