<svg xmlns="http://www.w3.org/2000/svg" xmlns:xlink="http://www.w3.org/1999/xlink" width="396" height="765" viewBox="0 0 396 765">
  <defs>
    <clipPath id="clip-path">
      <rect id="Rectángulo_455077" data-name="Rectángulo 455077" width="706.726" height="224.125" fill="none"/>
    </clipPath>
    <clipPath id="clip-path-3">
      <rect id="Rectángulo_455071" data-name="Rectángulo 455071" width="149.321" height="29.623" fill="none"/>
    </clipPath>
    <clipPath id="clip-path-5">
      <rect id="Rectángulo_455074" data-name="Rectángulo 455074" width="149.321" height="29.603" fill="none"/>
    </clipPath>
    <clipPath id="clip-path-7">
      <rect id="Rectángulo_455088" data-name="Rectángulo 455088" width="63.967" height="63.972" fill="#12263f"/>
    </clipPath>
    <clipPath id="clip-path-8">
      <rect id="Rectángulo_455089" data-name="Rectángulo 455089" width="57.836" height="57.837" fill="#12263f"/>
    </clipPath>
    <clipPath id="clip-path-9">
      <rect id="Rectángulo_455090" data-name="Rectángulo 455090" width="61.232" height="61.233" fill="#12263f"/>
    </clipPath>
    <clipPath id="clip-path-10">
      <rect id="Rectángulo_455091" data-name="Rectángulo 455091" width="58.608" height="58.613" fill="#12263f"/>
    </clipPath>
    <clipPath id="clip-path-11">
      <rect id="Rectángulo_455092" data-name="Rectángulo 455092" width="39.263" height="51.496" fill="#12263f"/>
    </clipPath>
  </defs>
  <g id="Grupo_1190970" data-name="Grupo 1190970" transform="translate(8396.258 6447)">
    <rect id="Rectángulo_455099" data-name="Rectángulo 455099" width="396" height="765" rx="14" transform="translate(-8396.258 -6447)" fill="#ffedb1"/>
    <rect id="Rectángulo_455098" data-name="Rectángulo 455098" width="127.688" height="67.578" rx="10" transform="translate(-8145.459 -6369.222)" fill="#ffd54e"/>
    <path id="Trazado_999235" data-name="Trazado 999235" d="M22.777,12.172H18.465v2.719h5.094V17H15.723V5.625h7.852V7.742H18.465v2.4h4.313Zm5.2-1.3,1.227-2.328h2.734l-2.227,4.117L32.051,17H29.3l-1.328-2.5-1.3,2.5H23.9l2.344-4.336L24.027,8.547h2.766Zm12.656,1.961a5.1,5.1,0,0,1-.887,3.145,2.843,2.843,0,0,1-2.395,1.176,2.437,2.437,0,0,1-1.914-.852V20.25H32.809V8.547H35.27l.078.781a2.437,2.437,0,0,1,1.992-.937,2.866,2.866,0,0,1,2.43,1.152,5.16,5.16,0,0,1,.867,3.168ZM38,12.672q0-2.25-1.312-2.25a1.239,1.239,0,0,0-1.25.672v3.328a1.279,1.279,0,0,0,1.266.7q1.258,0,1.3-2.172ZM44.574,17H41.934V5h2.641Zm1.289-4.3a4.989,4.989,0,0,1,.492-2.254,3.52,3.52,0,0,1,1.414-1.52,4.259,4.259,0,0,1,2.164-.531,3.887,3.887,0,0,1,2.992,1.176,4.512,4.512,0,0,1,1.094,3.2v.094A4.378,4.378,0,0,1,52.922,16a3.9,3.9,0,0,1-2.973,1.16,3.942,3.942,0,0,1-2.9-1.082,4.232,4.232,0,0,1-1.18-2.934Zm2.633.164a3.145,3.145,0,0,0,.367,1.719,1.223,1.223,0,0,0,1.086.547q1.406,0,1.438-2.164V12.7q0-2.273-1.453-2.273-1.32,0-1.43,1.961Zm11.8-1.93-.867-.062a1.558,1.558,0,0,0-1.594.781V17H55.2V8.547h2.469l.086,1.086a2.039,2.039,0,0,1,1.852-1.242,2.567,2.567,0,0,1,.734.094ZM65.77,17a2.973,2.973,0,0,1-.25-.758,2.448,2.448,0,0,1-2.031.914,3,3,0,0,1-2.031-.723,2.3,2.3,0,0,1-.836-1.816,2.364,2.364,0,0,1,1.016-2.078,5.174,5.174,0,0,1,2.953-.7H65.4v-.448q0-1.17-1.008-1.17a.824.824,0,0,0-.937.926H60.824a2.36,2.36,0,0,1,1.043-1.99,4.383,4.383,0,0,1,2.66-.765,3.843,3.843,0,0,1,2.555.789,2.743,2.743,0,0,1,.961,2.164v3.742a3.832,3.832,0,0,0,.359,1.781V17Zm-1.648-1.719a1.469,1.469,0,0,0,.816-.211,1.322,1.322,0,0,0,.465-.477V13.242h-.766q-1.375,0-1.375,1.234a.754.754,0,0,0,.242.582A.876.876,0,0,0,64.121,15.281ZM74.613,10.93l-.867-.062a1.558,1.558,0,0,0-1.594.781V17H69.52V8.547h2.469l.086,1.086a2.039,2.039,0,0,1,1.852-1.242,2.567,2.567,0,0,1,.734.094ZM3.77,36.383a12.079,12.079,0,0,1,.473-3.391,9.85,9.85,0,0,1,1.41-2.953A6,6,0,0,1,7.6,28.164l.3.953a6.222,6.222,0,0,0-1.871,2.672,11.583,11.583,0,0,0-.8,4.023l-.008.664a11.643,11.643,0,0,0,1.1,5.234,6.252,6.252,0,0,0,1.578,2.078l-.3.883a6.192,6.192,0,0,1-1.984-1.937A10.859,10.859,0,0,1,3.77,36.383Zm7.25.164V41H9.52V29.625h4.2a4.215,4.215,0,0,1,2.926.953A3.231,3.231,0,0,1,17.7,33.1a3.189,3.189,0,0,1-1.035,2.551,4.4,4.4,0,0,1-2.965.895Zm0-1.227h2.7a2.7,2.7,0,0,0,1.844-.567,2.075,2.075,0,0,0,.641-1.64,2.143,2.143,0,0,0-.641-1.628,2.525,2.525,0,0,0-1.758-.634H11.02ZM24.52,41a3.036,3.036,0,0,1-.2-.891,3.225,3.225,0,0,1-2.406,1.047,2.984,2.984,0,0,1-2.051-.707,2.287,2.287,0,0,1-.8-1.793,2.39,2.39,0,0,1,1-2.051,4.733,4.733,0,0,1,2.824-.73h1.406v-.664A1.623,1.623,0,0,0,23.84,34a1.821,1.821,0,0,0-1.336-.449,2.107,2.107,0,0,0-1.3.391,1.151,1.151,0,0,0-.523.945H19.23a2,2,0,0,1,.449-1.223,3.066,3.066,0,0,1,1.219-.934,4.1,4.1,0,0,1,1.691-.344,3.342,3.342,0,0,1,2.289.73,2.635,2.635,0,0,1,.859,2.012v3.891a4.757,4.757,0,0,0,.3,1.852V41Zm-2.4-1.1a2.54,2.54,0,0,0,1.289-.352,2.127,2.127,0,0,0,.883-.914V36.9H23.16q-2.656,0-2.656,1.555a1.316,1.316,0,0,0,.453,1.063A1.742,1.742,0,0,0,22.121,39.9Zm7.25-7.352.047,1.063a3.08,3.08,0,0,1,2.531-1.219q2.68,0,2.7,3.023V41H33.207V35.406a1.946,1.946,0,0,0-.418-1.352,1.675,1.675,0,0,0-1.277-.437,2.086,2.086,0,0,0-1.234.375,2.546,2.546,0,0,0-.828.984V41H28V32.547ZM36.449,36.7a4.993,4.993,0,0,1,.488-2.234A3.643,3.643,0,0,1,38.3,32.93a3.7,3.7,0,0,1,1.988-.539,3.565,3.565,0,0,1,2.793,1.2,4.6,4.6,0,0,1,1.066,3.18v.1a5.036,5.036,0,0,1-.473,2.215,3.589,3.589,0,0,1-1.352,1.527,3.743,3.743,0,0,1-2.02.547,3.556,3.556,0,0,1-2.785-1.2A4.575,4.575,0,0,1,36.449,36.8Zm1.453.172a3.616,3.616,0,0,0,.652,2.258,2.211,2.211,0,0,0,3.5-.012A3.955,3.955,0,0,0,42.7,36.7a3.61,3.61,0,0,0-.66-2.254,2.1,2.1,0,0,0-1.754-.863,2.075,2.075,0,0,0-1.727.852A3.925,3.925,0,0,0,37.9,36.867Zm12.141-3.023a4.331,4.331,0,0,0-.711-.055A1.9,1.9,0,0,0,47.4,35v6H45.957V32.547h1.406l.023.977A2.251,2.251,0,0,1,49.4,32.391a1.477,1.477,0,0,1,.641.109ZM56.277,41a3.036,3.036,0,0,1-.2-.891,3.225,3.225,0,0,1-2.406,1.047,2.984,2.984,0,0,1-2.051-.707,2.287,2.287,0,0,1-.8-1.793,2.39,2.39,0,0,1,1-2.051,4.733,4.733,0,0,1,2.824-.73h1.406v-.664A1.623,1.623,0,0,0,55.6,34a1.821,1.821,0,0,0-1.336-.449,2.107,2.107,0,0,0-1.3.391,1.151,1.151,0,0,0-.523.945H50.988a2,2,0,0,1,.449-1.223,3.066,3.066,0,0,1,1.219-.934,4.1,4.1,0,0,1,1.691-.344,3.342,3.342,0,0,1,2.289.73,2.635,2.635,0,0,1,.859,2.012v3.891a4.757,4.757,0,0,0,.3,1.852V41Zm-2.4-1.1a2.54,2.54,0,0,0,1.289-.352,2.127,2.127,0,0,0,.883-.914V36.9H54.918q-2.656,0-2.656,1.555a1.316,1.316,0,0,0,.453,1.063A1.742,1.742,0,0,0,53.879,39.9Zm7.242-7.352.039.938a3.122,3.122,0,0,1,2.508-1.094,2.417,2.417,0,0,1,2.414,1.359,3.2,3.2,0,0,1,1.1-.984,3.242,3.242,0,0,1,1.6-.375q2.781,0,2.828,2.945V41H70.16V35.422a1.941,1.941,0,0,0-.414-1.355,1.823,1.823,0,0,0-1.391-.449,1.916,1.916,0,0,0-1.336.48,1.949,1.949,0,0,0-.617,1.293V41H64.949V35.461a1.613,1.613,0,0,0-1.8-1.844A1.934,1.934,0,0,0,61.2,34.828V41H59.754V32.547ZM79,41a3.036,3.036,0,0,1-.2-.891,3.225,3.225,0,0,1-2.406,1.047,2.984,2.984,0,0,1-2.051-.707,2.288,2.288,0,0,1-.8-1.793,2.39,2.39,0,0,1,1-2.051,4.733,4.733,0,0,1,2.824-.73h1.406v-.664A1.623,1.623,0,0,0,78.324,34a1.821,1.821,0,0,0-1.336-.449,2.107,2.107,0,0,0-1.3.391,1.151,1.151,0,0,0-.523.945H73.715a2,2,0,0,1,.449-1.223,3.066,3.066,0,0,1,1.219-.934,4.1,4.1,0,0,1,1.691-.344,3.342,3.342,0,0,1,2.289.73,2.635,2.635,0,0,1,.859,2.012v3.891a4.757,4.757,0,0,0,.3,1.852V41Zm-2.4-1.1a2.54,2.54,0,0,0,1.289-.352,2.127,2.127,0,0,0,.883-.914V36.9H77.645q-2.656,0-2.656,1.555a1.316,1.316,0,0,0,.453,1.063A1.742,1.742,0,0,0,76.605,39.9Zm9.219-3.437a12.085,12.085,0,0,1-.457,3.34,9.876,9.876,0,0,1-1.4,2.949A6.127,6.127,0,0,1,82,44.672l-.3-.883a6.281,6.281,0,0,0,1.934-2.863,12.387,12.387,0,0,0,.746-4.309v-.25a12.861,12.861,0,0,0-.344-3.051,10.3,10.3,0,0,0-.957-2.527,5.838,5.838,0,0,0-1.379-1.742l.3-.883a6.1,6.1,0,0,1,1.965,1.906,9.9,9.9,0,0,1,1.4,2.945A12.363,12.363,0,0,1,85.824,36.461Z" transform="translate(-8126.459 -6359.222)" fill="#12263f"/>
    <rect id="Rectángulo_455097" data-name="Rectángulo 455097" width="127.688" height="67.578" rx="10" transform="translate(-8145.459 -6234.223)" fill="#fc9d83"/>
    <path id="Trazado_999236" data-name="Trazado 999236" d="M12.664,17V5.625h3.664a5.39,5.39,0,0,1,2.711.684,4.805,4.805,0,0,1,1.879,1.93,5.826,5.826,0,0,1,.684,2.793v.523a5.86,5.86,0,0,1-.66,2.8,4.826,4.826,0,0,1-1.859,1.938A5.271,5.271,0,0,1,16.406,17Zm2.742-9.258v7.148h.953a2.133,2.133,0,0,0,1.813-.84,4.116,4.116,0,0,0,.633-2.5v-.492a4.082,4.082,0,0,0-.633-2.484,2.17,2.17,0,0,0-1.844-.836Zm11.57,9.414A4.345,4.345,0,0,1,23.828,16a4.006,4.006,0,0,1-1.2-3.02v-.219a5.191,5.191,0,0,1,.48-2.289,3.516,3.516,0,0,1,1.4-1.535A4.233,4.233,0,0,1,26.7,8.391,3.659,3.659,0,0,1,29.508,9.5a4.344,4.344,0,0,1,1.031,3.082V13.6H25.3a1.9,1.9,0,0,0,.617,1.117,1.836,1.836,0,0,0,1.234.406,2.366,2.366,0,0,0,1.953-.875l1.2,1.422a3.363,3.363,0,0,1-1.395,1.082A4.713,4.713,0,0,1,26.977,17.156Zm-.3-6.734q-1.156,0-1.375,1.531h2.656v-.2a1.3,1.3,0,0,0-.32-.98A1.275,1.275,0,0,0,26.68,10.422ZM34.375,17H31.734V5h2.641Zm4.4,0H36.133V8.547h2.641Zm-2.8-10.633a1.175,1.175,0,0,1,.406-.922,1.727,1.727,0,0,1,2.109,0,1.175,1.175,0,0,1,.406.922,1.175,1.175,0,0,1-.406.922,1.727,1.727,0,0,1-2.109,0A1.175,1.175,0,0,1,35.977,6.367Zm6.906,2.18.086.992a2.906,2.906,0,0,1,2.414-1.148,2.14,2.14,0,0,1,2.164,1.273,2.813,2.813,0,0,1,2.484-1.273q2.57,0,2.641,3.109V17H50.031V11.664a1.611,1.611,0,0,0-.219-.945.931.931,0,0,0-.8-.3,1.247,1.247,0,0,0-1.164.7l.008.109V17H45.219V11.68a1.694,1.694,0,0,0-.211-.961.929.929,0,0,0-.8-.3,1.263,1.263,0,0,0-1.156.7V17H40.414V8.547ZM56.953,17H54.313V8.547h2.641Zm-2.8-10.633a1.175,1.175,0,0,1,.406-.922,1.727,1.727,0,0,1,2.109,0,1.175,1.175,0,0,1,.406.922,1.175,1.175,0,0,1-.406.922,1.727,1.727,0,0,1-2.109,0A1.175,1.175,0,0,1,54.156,6.367Zm7.484.078v2.1h1.391v1.828H61.641v3.867a.987.987,0,0,0,.172.664.922.922,0,0,0,.68.188,3.862,3.862,0,0,0,.656-.047V16.93a4.859,4.859,0,0,1-1.484.227,2.758,2.758,0,0,1-2.008-.641,2.626,2.626,0,0,1-.648-1.945v-4.2H57.93V8.547h1.078v-2.1ZM68.828,17a2.973,2.973,0,0,1-.25-.758,2.448,2.448,0,0,1-2.031.914,3,3,0,0,1-2.031-.723,2.3,2.3,0,0,1-.836-1.816A2.364,2.364,0,0,1,64.7,12.539a5.174,5.174,0,0,1,2.953-.7h.813v-.448q0-1.17-1.008-1.17a.824.824,0,0,0-.937.926H63.883a2.36,2.36,0,0,1,1.043-1.99,4.383,4.383,0,0,1,2.66-.765,3.843,3.843,0,0,1,2.555.789,2.743,2.743,0,0,1,.961,2.164v3.742a3.832,3.832,0,0,0,.359,1.781V17ZM67.18,15.281A1.469,1.469,0,0,0,68,15.07a1.322,1.322,0,0,0,.465-.477V13.242H67.7q-1.375,0-1.375,1.234a.754.754,0,0,0,.242.582A.876.876,0,0,0,67.18,15.281ZM77.672,10.93l-.867-.062a1.558,1.558,0,0,0-1.594.781V17H72.578V8.547h2.469l.086,1.086a2.039,2.039,0,0,1,1.852-1.242,2.567,2.567,0,0,1,.734.094ZM6.594,36.383a12.079,12.079,0,0,1,.473-3.391,9.85,9.85,0,0,1,1.41-2.953,6,6,0,0,1,1.945-1.875l.3.953a6.222,6.222,0,0,0-1.871,2.672,11.583,11.583,0,0,0-.8,4.023l-.008.664a11.643,11.643,0,0,0,1.1,5.234,6.252,6.252,0,0,0,1.578,2.078l-.3.883a6.192,6.192,0,0,1-1.984-1.937A10.859,10.859,0,0,1,6.594,36.383ZM20.2,30.852H16.547V41H15.055V30.852H11.406V29.625h8.8Zm4.969,10.3a3.693,3.693,0,0,1-2.8-1.129,4.19,4.19,0,0,1-1.078-3.02v-.266a5.073,5.073,0,0,1,.48-2.246,3.748,3.748,0,0,1,1.344-1.547,3.378,3.378,0,0,1,1.871-.559,3.166,3.166,0,0,1,2.563,1.086,4.7,4.7,0,0,1,.914,3.109v.6H22.742a3,3,0,0,0,.73,2.02,2.3,2.3,0,0,0,1.777.77,2.517,2.517,0,0,0,1.3-.312,3.259,3.259,0,0,0,.93-.828l.883.688A3.55,3.55,0,0,1,25.172,41.156Zm-.18-7.578a1.928,1.928,0,0,0-1.469.637A3.1,3.1,0,0,0,22.789,36h4.234v-.109a2.753,2.753,0,0,0-.594-1.707A1.815,1.815,0,0,0,24.992,33.578ZM25.7,29h1.75l-2.094,2.3-1.164,0Zm8.531,4.844a4.331,4.331,0,0,0-.711-.055A1.9,1.9,0,0,0,31.586,35v6H30.141V32.547h1.406l.023.977a2.251,2.251,0,0,1,2.016-1.133,1.477,1.477,0,0,1,.641.109Zm2.688-1.3.039.938a3.122,3.122,0,0,1,2.508-1.094,2.417,2.417,0,0,1,2.414,1.359,3.2,3.2,0,0,1,1.1-.984,3.242,3.242,0,0,1,1.6-.375q2.781,0,2.828,2.945V41H45.953V35.422a1.941,1.941,0,0,0-.414-1.355,1.823,1.823,0,0,0-1.391-.449,1.916,1.916,0,0,0-1.336.48,1.949,1.949,0,0,0-.617,1.293V41H40.742V35.461a1.613,1.613,0,0,0-1.8-1.844,1.934,1.934,0,0,0-1.945,1.211V41H35.547V32.547ZM51.148,41H49.7V32.547h1.445ZM49.586,30.3a.863.863,0,0,1,.215-.594.807.807,0,0,1,.637-.242.819.819,0,0,1,.641.242.854.854,0,0,1,.219.594.826.826,0,0,1-.219.586.834.834,0,0,1-.641.234.821.821,0,0,1-.637-.234A.834.834,0,0,1,49.586,30.3Zm5.242,2.242.047,1.063a3.08,3.08,0,0,1,2.531-1.219q2.68,0,2.7,3.023V41H58.664V35.406a1.946,1.946,0,0,0-.418-1.352,1.675,1.675,0,0,0-1.277-.437,2.086,2.086,0,0,0-1.234.375,2.546,2.546,0,0,0-.828.984V41H53.461V32.547ZM61.906,36.7a4.993,4.993,0,0,1,.488-2.234,3.643,3.643,0,0,1,1.359-1.531,3.7,3.7,0,0,1,1.988-.539,3.565,3.565,0,0,1,2.793,1.2,4.6,4.6,0,0,1,1.066,3.18v.1a5.036,5.036,0,0,1-.473,2.215,3.589,3.589,0,0,1-1.352,1.527,3.743,3.743,0,0,1-2.02.547,3.556,3.556,0,0,1-2.785-1.2A4.575,4.575,0,0,1,61.906,36.8Zm1.453.172a3.616,3.616,0,0,0,.652,2.258,2.211,2.211,0,0,0,3.5-.012,3.955,3.955,0,0,0,.648-2.418,3.61,3.61,0,0,0-.66-2.254,2.1,2.1,0,0,0-1.754-.863,2.075,2.075,0,0,0-1.727.852A3.925,3.925,0,0,0,63.359,36.867Zm12.977,1.891a1.064,1.064,0,0,0-.441-.91,4.249,4.249,0,0,0-1.539-.559,7.277,7.277,0,0,1-1.742-.562,2.479,2.479,0,0,1-.953-.781,1.869,1.869,0,0,1-.309-1.078,2.193,2.193,0,0,1,.879-1.758,3.432,3.432,0,0,1,2.246-.719,3.532,3.532,0,0,1,2.332.742,2.357,2.357,0,0,1,.895,1.9H76.25a1.3,1.3,0,0,0-.5-1.023,1.888,1.888,0,0,0-1.27-.43,1.976,1.976,0,0,0-1.234.344,1.082,1.082,0,0,0-.445.9.877.877,0,0,0,.414.789,5.1,5.1,0,0,0,1.5.508,7.8,7.8,0,0,1,1.754.578,2.558,2.558,0,0,1,1,.809,1.988,1.988,0,0,1,.324,1.152,2.163,2.163,0,0,1-.906,1.816,3.8,3.8,0,0,1-2.352.684,4.257,4.257,0,0,1-1.8-.359,2.922,2.922,0,0,1-1.223-1,2.42,2.42,0,0,1-.441-1.395h1.445a1.5,1.5,0,0,0,.582,1.152,2.258,2.258,0,0,0,1.434.426,2.331,2.331,0,0,0,1.316-.332A1.02,1.02,0,0,0,76.336,38.758ZM83,36.461a12.085,12.085,0,0,1-.457,3.34,9.876,9.876,0,0,1-1.4,2.949,6.127,6.127,0,0,1-1.973,1.922l-.3-.883A6.281,6.281,0,0,0,80.8,40.926a12.387,12.387,0,0,0,.746-4.309v-.25a12.861,12.861,0,0,0-.344-3.051,10.3,10.3,0,0,0-.957-2.527,5.838,5.838,0,0,0-1.379-1.742l.3-.883a6.1,6.1,0,0,1,1.965,1.906,9.9,9.9,0,0,1,1.4,2.945A12.363,12.363,0,0,1,83,36.461Z" transform="translate(-8126.459 -6224.223)" fill="#12263f"/>
    <rect id="Rectángulo_455094" data-name="Rectángulo 455094" width="127.688" height="67.578" rx="10" transform="translate(-8145.459 -6099.223)" fill="#ffd54e"/>
    <path id="Trazado_999237" data-name="Trazado 999237" d="M20.121,13.141V17H17.379V5.625h4.539a5.287,5.287,0,0,1,2.309.48,3.621,3.621,0,0,1,1.555,1.367,3.734,3.734,0,0,1,.551,2.012,3.291,3.291,0,0,1-1.191,2.66,4.943,4.943,0,0,1-3.27,1Zm0-2.117h1.8a1.7,1.7,0,0,0,1.215-.4A1.48,1.48,0,0,0,23.551,9.5a1.83,1.83,0,0,0-.43-1.273,1.522,1.522,0,0,0-1.172-.484H20.121Zm12.664-.094-.867-.062a1.558,1.558,0,0,0-1.594.781V17H27.691V8.547H30.16l.086,1.086A2.039,2.039,0,0,1,32.1,8.391a2.567,2.567,0,0,1,.734.094Zm5.039,6.227A4.345,4.345,0,0,1,34.676,16a4.006,4.006,0,0,1-1.2-3.02v-.219a5.191,5.191,0,0,1,.48-2.289,3.516,3.516,0,0,1,1.4-1.535,4.233,4.233,0,0,1,2.188-.543A3.659,3.659,0,0,1,40.355,9.5a4.344,4.344,0,0,1,1.031,3.082V13.6H36.152a1.9,1.9,0,0,0,.617,1.117A1.836,1.836,0,0,0,38,15.125a2.366,2.366,0,0,0,1.953-.875l1.2,1.422a3.363,3.363,0,0,1-1.395,1.082A4.713,4.713,0,0,1,37.824,17.156Zm-.3-6.734q-1.156,0-1.375,1.531h2.656v-.2a1.3,1.3,0,0,0-.32-.98A1.275,1.275,0,0,0,37.527,10.422Zm8.492,4.7a1.171,1.171,0,0,0,.859-.3,1.1,1.1,0,0,0,.3-.84h2.469a2.922,2.922,0,0,1-1,2.281,3.705,3.705,0,0,1-2.566.891A3.751,3.751,0,0,1,43.176,16a4.556,4.556,0,0,1-1.062-3.2v-.109a5.149,5.149,0,0,1,.473-2.262,3.441,3.441,0,0,1,1.363-1.508,4.065,4.065,0,0,1,2.109-.527,3.658,3.658,0,0,1,2.617.914,3.242,3.242,0,0,1,.969,2.477H47.176a1.445,1.445,0,0,0-.32-1.008A1.106,1.106,0,0,0,46,10.422q-1.023,0-1.2,1.3a9.206,9.206,0,0,0-.055,1.141,3.616,3.616,0,0,0,.3,1.766A1.055,1.055,0,0,0,46.02,15.125ZM53.535,17H50.895V8.547h2.641Zm-2.8-10.633a1.175,1.175,0,0,1,.406-.922,1.727,1.727,0,0,1,2.109,0,1.175,1.175,0,0,1,.406.922,1.175,1.175,0,0,1-.406.922,1.727,1.727,0,0,1-2.109,0A1.175,1.175,0,0,1,50.738,6.367Zm8.844,8.258a.608.608,0,0,0-.352-.539,5.348,5.348,0,0,0-1.336-.422,6.092,6.092,0,0,1-1.625-.574,2.722,2.722,0,0,1-.977-.863,2.061,2.061,0,0,1-.336-1.164,2.336,2.336,0,0,1,.961-1.918,3.958,3.958,0,0,1,2.516-.754,4.386,4.386,0,0,1,2.688.758,2.37,2.37,0,0,1,1.016,1.992H59.5q0-1.016-1.07-1.016a1.061,1.061,0,0,0-.7.23.714.714,0,0,0-.281.574.655.655,0,0,0,.344.57,3.248,3.248,0,0,0,1.1.359,9.485,9.485,0,0,1,1.324.336,2.406,2.406,0,0,1,1.906,2.352,2.214,2.214,0,0,1-1.027,1.883,4.505,4.505,0,0,1-2.66.727,4.6,4.6,0,0,1-1.937-.391A3.24,3.24,0,0,1,55.168,15.7a2.406,2.406,0,0,1-.477-1.414h2.461a1.017,1.017,0,0,0,.391.855,1.607,1.607,0,0,0,.961.27,1.264,1.264,0,0,0,.809-.219A.7.7,0,0,0,59.582,14.625ZM68.113,17a2.973,2.973,0,0,1-.25-.758,2.448,2.448,0,0,1-2.031.914,3,3,0,0,1-2.031-.723,2.3,2.3,0,0,1-.836-1.816,2.364,2.364,0,0,1,1.016-2.078,5.174,5.174,0,0,1,2.953-.7h.813v-.448q0-1.17-1.008-1.17a.824.824,0,0,0-.937.926H63.168a2.36,2.36,0,0,1,1.043-1.99,4.383,4.383,0,0,1,2.66-.765,3.843,3.843,0,0,1,2.555.789,2.743,2.743,0,0,1,.961,2.164v3.742a3.832,3.832,0,0,0,.359,1.781V17Zm-1.648-1.719a1.469,1.469,0,0,0,.816-.211,1.322,1.322,0,0,0,.465-.477V13.242H66.98q-1.375,0-1.375,1.234a.754.754,0,0,0,.242.582A.876.876,0,0,0,66.465,15.281ZM76.957,10.93l-.867-.062a1.558,1.558,0,0,0-1.594.781V17H71.863V8.547h2.469l.086,1.086A2.039,2.039,0,0,1,76.27,8.391,2.567,2.567,0,0,1,77,8.484ZM1.477,36.383a12.079,12.079,0,0,1,.473-3.391,9.85,9.85,0,0,1,1.41-2.953A6,6,0,0,1,5.3,28.164l.3.953A6.222,6.222,0,0,0,3.73,31.789a11.583,11.583,0,0,0-.8,4.023l-.008.664a11.643,11.643,0,0,0,1.1,5.234A6.252,6.252,0,0,0,5.6,43.789l-.3.883A6.192,6.192,0,0,1,3.32,42.734,10.859,10.859,0,0,1,1.477,36.383Zm12.18-.641H8.727v4.031h5.727V41H7.227V29.625h7.148v1.227H8.727v3.664h4.93Zm5.68,4.234a2.082,2.082,0,0,0,1.352-.469,1.649,1.649,0,0,0,.641-1.172H22.7a2.621,2.621,0,0,1-.5,1.383,3.293,3.293,0,0,1-1.23,1.047,3.55,3.55,0,0,1-1.629.391A3.482,3.482,0,0,1,16.59,40a4.59,4.59,0,0,1-1.02-3.152v-.242a5.089,5.089,0,0,1,.453-2.2,3.451,3.451,0,0,1,1.3-1.492,3.7,3.7,0,0,1,2-.531,3.39,3.39,0,0,1,2.363.852,3.043,3.043,0,0,1,1,2.211H21.328a1.992,1.992,0,0,0-.621-1.348,1.932,1.932,0,0,0-1.379-.527,2.023,2.023,0,0,0-1.707.793,3.724,3.724,0,0,0-.605,2.293v.273a3.65,3.65,0,0,0,.6,2.25A2.033,2.033,0,0,0,19.336,39.977Zm10.2.188a3.07,3.07,0,0,1-2.477.992A2.628,2.628,0,0,1,25,40.371a3.4,3.4,0,0,1-.715-2.324v-5.5h1.445v5.461q0,1.922,1.563,1.922A2.163,2.163,0,0,0,29.5,38.7V32.547h1.445V41H29.57Zm8.82.836a3.036,3.036,0,0,1-.2-.891,3.225,3.225,0,0,1-2.406,1.047,2.984,2.984,0,0,1-2.051-.707,2.287,2.287,0,0,1-.8-1.793,2.39,2.39,0,0,1,1-2.051,4.733,4.733,0,0,1,2.824-.73h1.406v-.664A1.623,1.623,0,0,0,37.68,34a1.821,1.821,0,0,0-1.336-.449,2.107,2.107,0,0,0-1.3.391,1.151,1.151,0,0,0-.523.945H33.07a2,2,0,0,1,.449-1.223,3.066,3.066,0,0,1,1.219-.934,4.1,4.1,0,0,1,1.691-.344,3.342,3.342,0,0,1,2.289.73,2.635,2.635,0,0,1,.859,2.012v3.891a4.757,4.757,0,0,0,.3,1.852V41Zm-2.4-1.1a2.54,2.54,0,0,0,1.289-.352,2.127,2.127,0,0,0,.883-.914V36.9H37q-2.656,0-2.656,1.555a1.316,1.316,0,0,0,.453,1.063A1.742,1.742,0,0,0,35.961,39.9Zm9.273.078a2.082,2.082,0,0,0,1.352-.469,1.649,1.649,0,0,0,.641-1.172h1.367a2.621,2.621,0,0,1-.5,1.383,3.293,3.293,0,0,1-1.23,1.047,3.55,3.55,0,0,1-1.629.391A3.482,3.482,0,0,1,42.488,40a4.59,4.59,0,0,1-1.02-3.152v-.242a5.089,5.089,0,0,1,.453-2.2,3.451,3.451,0,0,1,1.3-1.492,3.7,3.7,0,0,1,2-.531,3.39,3.39,0,0,1,2.363.852,3.043,3.043,0,0,1,1,2.211H47.227a1.992,1.992,0,0,0-.621-1.348,1.932,1.932,0,0,0-1.379-.527,2.023,2.023,0,0,0-1.707.793,3.724,3.724,0,0,0-.605,2.293v.273a3.65,3.65,0,0,0,.6,2.25A2.033,2.033,0,0,0,45.234,39.977ZM51.789,41H50.344V32.547h1.445ZM50.227,30.3a.863.863,0,0,1,.215-.594.807.807,0,0,1,.637-.242.819.819,0,0,1,.641.242.854.854,0,0,1,.219.594.826.826,0,0,1-.219.586.834.834,0,0,1-.641.234.821.821,0,0,1-.637-.234A.834.834,0,0,1,50.227,30.3ZM53.719,36.7a4.993,4.993,0,0,1,.488-2.234,3.643,3.643,0,0,1,1.359-1.531,3.7,3.7,0,0,1,1.988-.539,3.565,3.565,0,0,1,2.793,1.2,4.6,4.6,0,0,1,1.066,3.18v.1a5.036,5.036,0,0,1-.473,2.215,3.589,3.589,0,0,1-1.352,1.527,3.743,3.743,0,0,1-2.02.547,3.556,3.556,0,0,1-2.785-1.2A4.575,4.575,0,0,1,53.719,36.8Zm1.453.172a3.616,3.616,0,0,0,.652,2.258,2.211,2.211,0,0,0,3.5-.012,3.955,3.955,0,0,0,.648-2.418,3.61,3.61,0,0,0-.66-2.254,2.1,2.1,0,0,0-1.754-.863,2.075,2.075,0,0,0-1.727.852A3.925,3.925,0,0,0,55.172,36.867Zm9.422-4.32.047,1.063a3.08,3.08,0,0,1,2.531-1.219q2.68,0,2.7,3.023V41H68.43V35.406a1.946,1.946,0,0,0-.418-1.352,1.675,1.675,0,0,0-1.277-.437,2.086,2.086,0,0,0-1.234.375,2.546,2.546,0,0,0-.828.984V41H63.227V32.547Zm10.969,8.609a3.693,3.693,0,0,1-2.8-1.129,4.19,4.19,0,0,1-1.078-3.02v-.266a5.073,5.073,0,0,1,.48-2.246,3.748,3.748,0,0,1,1.344-1.547,3.378,3.378,0,0,1,1.871-.559,3.166,3.166,0,0,1,2.563,1.086,4.7,4.7,0,0,1,.914,3.109v.6H73.133a3,3,0,0,0,.73,2.02,2.3,2.3,0,0,0,1.777.77,2.517,2.517,0,0,0,1.3-.312,3.259,3.259,0,0,0,.93-.828l.883.688A3.55,3.55,0,0,1,75.563,41.156Zm-.18-7.578a1.928,1.928,0,0,0-1.469.637A3.1,3.1,0,0,0,73.18,36h4.234v-.109a2.753,2.753,0,0,0-.594-1.707A1.815,1.815,0,0,0,75.383,33.578Zm10.07,5.18a1.064,1.064,0,0,0-.441-.91,4.249,4.249,0,0,0-1.539-.559,7.277,7.277,0,0,1-1.742-.562,2.479,2.479,0,0,1-.953-.781,1.869,1.869,0,0,1-.309-1.078,2.193,2.193,0,0,1,.879-1.758,3.432,3.432,0,0,1,2.246-.719,3.532,3.532,0,0,1,2.332.742,2.357,2.357,0,0,1,.895,1.9H85.367a1.3,1.3,0,0,0-.5-1.023,1.888,1.888,0,0,0-1.27-.43,1.976,1.976,0,0,0-1.234.344,1.082,1.082,0,0,0-.445.9.877.877,0,0,0,.414.789,5.1,5.1,0,0,0,1.5.508,7.8,7.8,0,0,1,1.754.578,2.558,2.558,0,0,1,1,.809,1.988,1.988,0,0,1,.324,1.152,2.163,2.163,0,0,1-.906,1.816,3.8,3.8,0,0,1-2.352.684,4.257,4.257,0,0,1-1.8-.359,2.922,2.922,0,0,1-1.223-1A2.42,2.42,0,0,1,80.18,38.4h1.445a1.5,1.5,0,0,0,.582,1.152,2.258,2.258,0,0,0,1.434.426,2.331,2.331,0,0,0,1.316-.332A1.02,1.02,0,0,0,85.453,38.758Zm6.664-2.3a12.085,12.085,0,0,1-.457,3.34,9.876,9.876,0,0,1-1.4,2.949,6.127,6.127,0,0,1-1.973,1.922l-.3-.883a6.281,6.281,0,0,0,1.934-2.863,12.387,12.387,0,0,0,.746-4.309v-.25a12.861,12.861,0,0,0-.344-3.051,10.3,10.3,0,0,0-.957-2.527,5.838,5.838,0,0,0-1.379-1.742l.3-.883a6.1,6.1,0,0,1,1.965,1.906,9.9,9.9,0,0,1,1.4,2.945A12.363,12.363,0,0,1,92.117,36.461Z" transform="translate(-8128.191 -6089.223)" fill="#12263f"/>
    <rect id="Rectángulo_455095" data-name="Rectángulo 455095" width="127.688" height="67.578" rx="10" transform="translate(-8145.459 -5964.223)" fill="#fc9d83"/>
    <path id="Trazado_999238" data-name="Trazado 999238" d="M24.59,13.906l2.266-8.281h3.063L26.09,17h-3l-3.8-11.375h3.039ZM35.027,17a2.973,2.973,0,0,1-.25-.758,2.448,2.448,0,0,1-2.031.914,3,3,0,0,1-2.031-.723,2.3,2.3,0,0,1-.836-1.816,2.364,2.364,0,0,1,1.016-2.078,5.174,5.174,0,0,1,2.953-.7h.813v-.448q0-1.17-1.008-1.17a.824.824,0,0,0-.937.926H30.082a2.36,2.36,0,0,1,1.043-1.99,4.383,4.383,0,0,1,2.66-.765,3.843,3.843,0,0,1,2.555.789,2.743,2.743,0,0,1,.961,2.164v3.742a3.832,3.832,0,0,0,.359,1.781V17Zm-1.648-1.719a1.469,1.469,0,0,0,.816-.211,1.322,1.322,0,0,0,.465-.477V13.242h-.766q-1.375,0-1.375,1.234a.754.754,0,0,0,.242.582A.876.876,0,0,0,33.379,15.281ZM41.535,17H38.895V5h2.641Zm4.4,0H43.293V8.547h2.641Zm-2.8-10.633a1.175,1.175,0,0,1,.406-.922,1.727,1.727,0,0,1,2.109,0,1.175,1.175,0,0,1,.406.922,1.175,1.175,0,0,1-.406.922,1.727,1.727,0,0,1-2.109,0A1.175,1.175,0,0,1,43.137,6.367Zm4.086,6.344a5.164,5.164,0,0,1,.867-3.164,2.854,2.854,0,0,1,2.422-1.156,2.428,2.428,0,0,1,1.906.891V5h2.641V17H52.691l-.133-.906A2.493,2.493,0,0,1,50.5,17.156,2.849,2.849,0,0,1,48.105,16,5.327,5.327,0,0,1,47.223,12.711Zm2.633.164q0,2.25,1.313,2.25a1.3,1.3,0,0,0,1.25-.734V11.172a1.261,1.261,0,0,0-1.234-.75q-1.219,0-1.32,1.969ZM61.316,17a2.973,2.973,0,0,1-.25-.758,2.448,2.448,0,0,1-2.031.914A3,3,0,0,1,57,16.434a2.3,2.3,0,0,1-.836-1.816,2.364,2.364,0,0,1,1.016-2.078,5.174,5.174,0,0,1,2.953-.7h.813v-.448q0-1.17-1.008-1.17a.824.824,0,0,0-.937.926H56.371a2.36,2.36,0,0,1,1.043-1.99,4.383,4.383,0,0,1,2.66-.765,3.843,3.843,0,0,1,2.555.789,2.743,2.743,0,0,1,.961,2.164v3.742a3.832,3.832,0,0,0,.359,1.781V17Zm-1.648-1.719a1.469,1.469,0,0,0,.816-.211,1.322,1.322,0,0,0,.465-.477V13.242h-.766q-1.375,0-1.375,1.234a.754.754,0,0,0,.242.582A.876.876,0,0,0,59.668,15.281ZM70.16,10.93l-.867-.062a1.558,1.558,0,0,0-1.594.781V17H65.066V8.547h2.469l.086,1.086a2.039,2.039,0,0,1,1.852-1.242,2.567,2.567,0,0,1,.734.094ZM10.324,36.383a12.079,12.079,0,0,1,.473-3.391,9.85,9.85,0,0,1,1.41-2.953,6,6,0,0,1,1.945-1.875l.3.953a6.222,6.222,0,0,0-1.871,2.672,11.583,11.583,0,0,0-.8,4.023l-.008.664a11.643,11.643,0,0,0,1.1,5.234,6.252,6.252,0,0,0,1.578,2.078l-.3.883a6.192,6.192,0,0,1-1.984-1.937A10.859,10.859,0,0,1,10.324,36.383Zm14.117,1.008a4.185,4.185,0,0,1-1.332,2.785,4.365,4.365,0,0,1-2.98.98,4.008,4.008,0,0,1-3.23-1.445,5.815,5.815,0,0,1-1.215-3.867V34.75a6.481,6.481,0,0,1,.566-2.789,4.231,4.231,0,0,1,1.605-1.848,4.47,4.47,0,0,1,2.406-.645,4.11,4.11,0,0,1,2.906,1.012,4.235,4.235,0,0,1,1.273,2.8H22.934a3.268,3.268,0,0,0-.848-1.975,2.565,2.565,0,0,0-1.824-.611,2.684,2.684,0,0,0-2.254,1.063,4.882,4.882,0,0,0-.816,3.026v1.1a5.018,5.018,0,0,0,.773,2.948,2.5,2.5,0,0,0,2.164,1.095,2.886,2.886,0,0,0,1.918-.566,3.143,3.143,0,0,0,.887-1.973Zm5.906-3.547a4.331,4.331,0,0,0-.711-.055A1.9,1.9,0,0,0,27.707,35v6H26.262V32.547h1.406l.023.977a2.251,2.251,0,0,1,2.016-1.133,1.477,1.477,0,0,1,.641.109ZM33.246,41H31.8V32.547h1.445ZM31.684,30.3a.863.863,0,0,1,.215-.594.807.807,0,0,1,.637-.242.819.819,0,0,1,.641.242.854.854,0,0,1,.219.594.826.826,0,0,1-.219.586.834.834,0,0,1-.641.234.821.821,0,0,1-.637-.234A.834.834,0,0,1,31.684,30.3Zm5.836.2v2.047H39.1v1.117H37.52v5.249a1.173,1.173,0,0,0,.211.763.888.888,0,0,0,.719.254,3.5,3.5,0,0,0,.688-.094V41a4.215,4.215,0,0,1-1.109.155,1.8,1.8,0,0,1-1.461-.586,2.517,2.517,0,0,1-.492-1.664V33.664H34.535V32.547h1.539V30.5Zm6.773,10.656a3.693,3.693,0,0,1-2.8-1.129,4.19,4.19,0,0,1-1.078-3.02v-.266A5.073,5.073,0,0,1,40.9,34.5a3.748,3.748,0,0,1,1.344-1.547,3.378,3.378,0,0,1,1.871-.559,3.166,3.166,0,0,1,2.563,1.086,4.7,4.7,0,0,1,.914,3.109v.6H41.863a3,3,0,0,0,.73,2.02,2.3,2.3,0,0,0,1.777.77,2.517,2.517,0,0,0,1.3-.312,3.258,3.258,0,0,0,.93-.828l.883.688A3.55,3.55,0,0,1,44.293,41.156Zm-.18-7.578a1.928,1.928,0,0,0-1.469.637A3.1,3.1,0,0,0,41.91,36h4.234v-.109a2.753,2.753,0,0,0-.594-1.707A1.815,1.815,0,0,0,44.113,33.578Zm9.234.266a4.331,4.331,0,0,0-.711-.055A1.9,1.9,0,0,0,50.707,35v6H49.262V32.547h1.406l.023.977a2.251,2.251,0,0,1,2.016-1.133,1.477,1.477,0,0,1,.641.109ZM56.246,41H54.8V32.547h1.445ZM54.684,30.3a.863.863,0,0,1,.215-.594.807.807,0,0,1,.637-.242.819.819,0,0,1,.641.242.854.854,0,0,1,.219.594.826.826,0,0,1-.219.586.834.834,0,0,1-.641.234.821.821,0,0,1-.637-.234A.834.834,0,0,1,54.684,30.3ZM58.176,36.7a4.993,4.993,0,0,1,.488-2.234,3.643,3.643,0,0,1,1.359-1.531,3.7,3.7,0,0,1,1.988-.539,3.565,3.565,0,0,1,2.793,1.2,4.6,4.6,0,0,1,1.066,3.18v.1a5.036,5.036,0,0,1-.473,2.215,3.589,3.589,0,0,1-1.352,1.527,3.743,3.743,0,0,1-2.02.547,3.556,3.556,0,0,1-2.785-1.2A4.575,4.575,0,0,1,58.176,36.8Zm1.453.172a3.616,3.616,0,0,0,.652,2.258,2.211,2.211,0,0,0,3.5-.012,3.955,3.955,0,0,0,.648-2.418,3.61,3.61,0,0,0-.66-2.254,2.1,2.1,0,0,0-1.754-.863,2.075,2.075,0,0,0-1.727.852A3.925,3.925,0,0,0,59.629,36.867Zm12.977,1.891a1.064,1.064,0,0,0-.441-.91,4.249,4.249,0,0,0-1.539-.559,7.277,7.277,0,0,1-1.742-.562,2.479,2.479,0,0,1-.953-.781,1.869,1.869,0,0,1-.309-1.078,2.193,2.193,0,0,1,.879-1.758,3.432,3.432,0,0,1,2.246-.719,3.532,3.532,0,0,1,2.332.742,2.357,2.357,0,0,1,.895,1.9H72.52a1.3,1.3,0,0,0-.5-1.023,1.888,1.888,0,0,0-1.27-.43,1.976,1.976,0,0,0-1.234.344,1.082,1.082,0,0,0-.445.9.877.877,0,0,0,.414.789,5.1,5.1,0,0,0,1.5.508,7.8,7.8,0,0,1,1.754.578,2.558,2.558,0,0,1,1,.809,1.988,1.988,0,0,1,.324,1.152,2.163,2.163,0,0,1-.906,1.816,3.8,3.8,0,0,1-2.352.684A4.257,4.257,0,0,1,69,40.8a2.922,2.922,0,0,1-1.223-1,2.42,2.42,0,0,1-.441-1.395h1.445a1.5,1.5,0,0,0,.582,1.152,2.258,2.258,0,0,0,1.434.426,2.331,2.331,0,0,0,1.316-.332A1.02,1.02,0,0,0,72.605,38.758Zm6.664-2.3a12.085,12.085,0,0,1-.457,3.34,9.876,9.876,0,0,1-1.4,2.949,6.127,6.127,0,0,1-1.973,1.922l-.3-.883a6.281,6.281,0,0,0,1.934-2.863,12.387,12.387,0,0,0,.746-4.309v-.25a12.861,12.861,0,0,0-.344-3.051,10.3,10.3,0,0,0-.957-2.527,5.838,5.838,0,0,0-1.379-1.742l.3-.883a6.1,6.1,0,0,1,1.965,1.906,9.9,9.9,0,0,1,1.4,2.945A12.363,12.363,0,0,1,79.27,36.461Z" transform="translate(-8126.191 -5954.223)" fill="#12263f"/>
    <rect id="Rectángulo_455096" data-name="Rectángulo 455096" width="127.688" height="67.578" rx="10" transform="translate(-8145.459 -5829.223)" fill="#ffd54e"/>
    <path id="Trazado_999239" data-name="Trazado 999239" d="M1.59,17V5.625H5.254a5.39,5.39,0,0,1,2.711.684,4.805,4.805,0,0,1,1.879,1.93,5.826,5.826,0,0,1,.684,2.793v.523a5.86,5.86,0,0,1-.66,2.8,4.826,4.826,0,0,1-1.859,1.938A5.271,5.271,0,0,1,5.332,17ZM4.332,7.742v7.148h.953a2.133,2.133,0,0,0,1.813-.84,4.116,4.116,0,0,0,.633-2.5v-.492A4.082,4.082,0,0,0,7.1,8.578a2.17,2.17,0,0,0-1.844-.836ZM11.48,12.7a4.989,4.989,0,0,1,.492-2.254,3.52,3.52,0,0,1,1.414-1.52,4.259,4.259,0,0,1,2.164-.531,3.887,3.887,0,0,1,2.992,1.176,4.512,4.512,0,0,1,1.094,3.2v.094A4.378,4.378,0,0,1,18.539,16a3.9,3.9,0,0,1-2.973,1.16,3.942,3.942,0,0,1-2.9-1.082,4.232,4.232,0,0,1-1.18-2.934Zm2.633.164a3.145,3.145,0,0,0,.367,1.719,1.223,1.223,0,0,0,1.086.547q1.406,0,1.438-2.164V12.7q0-2.273-1.453-2.273-1.32,0-1.43,1.961Zm10.258,2.266a1.171,1.171,0,0,0,.859-.3,1.1,1.1,0,0,0,.3-.84H28a2.922,2.922,0,0,1-1,2.281,3.705,3.705,0,0,1-2.566.891A3.751,3.751,0,0,1,21.527,16a4.556,4.556,0,0,1-1.062-3.2v-.109a5.149,5.149,0,0,1,.473-2.262A3.441,3.441,0,0,1,22.3,8.918a4.065,4.065,0,0,1,2.109-.527,3.658,3.658,0,0,1,2.617.914A3.242,3.242,0,0,1,28,11.781H25.527a1.445,1.445,0,0,0-.32-1.008,1.106,1.106,0,0,0-.859-.352q-1.023,0-1.2,1.3a9.206,9.206,0,0,0-.055,1.141,3.616,3.616,0,0,0,.3,1.766A1.055,1.055,0,0,0,24.371,15.125Zm9.773.961a2.714,2.714,0,0,1-2.258,1.07,2.662,2.662,0,0,1-2.105-.809,3.4,3.4,0,0,1-.715-2.324V8.547H31.7v5.492a.946.946,0,0,0,1.055,1.086,1.376,1.376,0,0,0,1.289-.648V8.547h2.648V17H34.223Zm6.477-7.539.086.992a2.906,2.906,0,0,1,2.414-1.148,2.14,2.14,0,0,1,2.164,1.273A2.813,2.813,0,0,1,47.77,8.391q2.57,0,2.641,3.109V17H47.77V11.664a1.611,1.611,0,0,0-.219-.945.931.931,0,0,0-.8-.3,1.247,1.247,0,0,0-1.164.7l.008.109V17H42.957V11.68a1.694,1.694,0,0,0-.211-.961.929.929,0,0,0-.8-.3,1.263,1.263,0,0,0-1.156.7V17H38.152V8.547ZM56,17.156A4.345,4.345,0,0,1,52.855,16a4.006,4.006,0,0,1-1.2-3.02v-.219a5.191,5.191,0,0,1,.48-2.289,3.516,3.516,0,0,1,1.4-1.535,4.233,4.233,0,0,1,2.188-.543A3.659,3.659,0,0,1,58.535,9.5a4.344,4.344,0,0,1,1.031,3.082V13.6H54.332a1.9,1.9,0,0,0,.617,1.117,1.836,1.836,0,0,0,1.234.406,2.366,2.366,0,0,0,1.953-.875l1.2,1.422a3.363,3.363,0,0,1-1.395,1.082A4.713,4.713,0,0,1,56,17.156Zm-.3-6.734q-1.156,0-1.375,1.531h2.656v-.2a1.3,1.3,0,0,0-.32-.98A1.275,1.275,0,0,0,55.707,10.422Zm7.336-1.875.086.992a2.867,2.867,0,0,1,2.414-1.148,2.412,2.412,0,0,1,1.973.789,3.757,3.757,0,0,1,.676,2.375V17H65.551V11.664a1.426,1.426,0,0,0-.258-.941,1.193,1.193,0,0,0-.937-.3,1.256,1.256,0,0,0-1.148.609V17H60.574V8.547Zm9.672-2.1v2.1h1.391v1.828H72.715v3.867a.987.987,0,0,0,.172.664.922.922,0,0,0,.68.188,3.862,3.862,0,0,0,.656-.047V16.93a4.859,4.859,0,0,1-1.484.227,2.758,2.758,0,0,1-2.008-.641,2.626,2.626,0,0,1-.648-1.945v-4.2H69V8.547h1.078v-2.1ZM79.9,17a2.973,2.973,0,0,1-.25-.758,2.448,2.448,0,0,1-2.031.914,3,3,0,0,1-2.031-.723,2.3,2.3,0,0,1-.836-1.816,2.364,2.364,0,0,1,1.016-2.078,5.174,5.174,0,0,1,2.953-.7h.813v-.448q0-1.17-1.008-1.17a.824.824,0,0,0-.937.926H74.957A2.36,2.36,0,0,1,76,9.155a4.383,4.383,0,0,1,2.66-.765,3.843,3.843,0,0,1,2.555.789,2.743,2.743,0,0,1,.961,2.164v3.742a3.832,3.832,0,0,0,.359,1.781V17Zm-1.648-1.719a1.469,1.469,0,0,0,.816-.211,1.322,1.322,0,0,0,.465-.477V13.242H78.77q-1.375,0-1.375,1.234a.754.754,0,0,0,.242.582A.876.876,0,0,0,78.254,15.281ZM88.746,10.93l-.867-.062a1.558,1.558,0,0,0-1.594.781V17H83.652V8.547h2.469l.086,1.086a2.039,2.039,0,0,1,1.852-1.242,2.567,2.567,0,0,1,.734.094Zm-77.9,25.453a12.079,12.079,0,0,1,.473-3.391,9.85,9.85,0,0,1,1.41-2.953,6,6,0,0,1,1.945-1.875l.3.953A6.222,6.222,0,0,0,13.1,31.789a11.583,11.583,0,0,0-.8,4.023l-.008.664a11.643,11.643,0,0,0,1.1,5.234,6.252,6.252,0,0,0,1.578,2.078l-.3.883a6.192,6.192,0,0,1-1.984-1.937A10.859,10.859,0,0,1,10.844,36.383Zm9.922.016H18.094V41H16.586V29.625h3.766a4.457,4.457,0,0,1,2.957.875,3.148,3.148,0,0,1,1.035,2.547A3.062,3.062,0,0,1,23.77,34.9a3.428,3.428,0,0,1-1.6,1.18l2.672,4.828V41H23.234Zm-2.672-1.227h2.3a2.6,2.6,0,0,0,1.777-.579,1.959,1.959,0,0,0,.66-1.55,2.062,2.062,0,0,0-.629-1.62,2.663,2.663,0,0,0-1.816-.571h-2.3Zm11.633,5.984a3.693,3.693,0,0,1-2.8-1.129,4.19,4.19,0,0,1-1.078-3.02v-.266a5.073,5.073,0,0,1,.48-2.246,3.748,3.748,0,0,1,1.344-1.547,3.378,3.378,0,0,1,1.871-.559,3.166,3.166,0,0,1,2.563,1.086,4.7,4.7,0,0,1,.914,3.109v.6H27.3a3,3,0,0,0,.73,2.02,2.3,2.3,0,0,0,1.777.77,2.517,2.517,0,0,0,1.3-.312,3.259,3.259,0,0,0,.93-.828l.883.688A3.55,3.55,0,0,1,29.727,41.156Zm-.18-7.578a1.928,1.928,0,0,0-1.469.637A3.1,3.1,0,0,0,27.344,36h4.234v-.109a2.753,2.753,0,0,0-.594-1.707A1.815,1.815,0,0,0,29.547,33.578Zm4.8,3.125a4.968,4.968,0,0,1,.914-3.145,3.151,3.151,0,0,1,4.836-.074l.07-.937h1.32V40.8a3.439,3.439,0,0,1-.973,2.586,3.589,3.589,0,0,1-2.613.945,4.348,4.348,0,0,1-1.789-.391,3.08,3.08,0,0,1-1.336-1.07l.75-.867A2.826,2.826,0,0,0,37.8,43.148a2.214,2.214,0,0,0,1.645-.594,2.269,2.269,0,0,0,.59-1.672v-.727a2.971,2.971,0,0,1-2.367,1,2.887,2.887,0,0,1-2.4-1.2A5.224,5.224,0,0,1,34.352,36.7Zm1.453.164a3.79,3.79,0,0,0,.586,2.246,1.9,1.9,0,0,0,1.641.816,2.117,2.117,0,0,0,2.008-1.242V34.828a2.142,2.142,0,0,0-1.992-1.211,1.921,1.921,0,0,0-1.648.82A4.128,4.128,0,0,0,35.8,36.867ZM45.242,41H43.8V32.547h1.445ZM43.68,30.3a.863.863,0,0,1,.215-.594.807.807,0,0,1,.637-.242.819.819,0,0,1,.641.242.854.854,0,0,1,.219.594.826.826,0,0,1-.219.586.834.834,0,0,1-.641.234.821.821,0,0,1-.637-.234A.834.834,0,0,1,43.68,30.3Zm8.8,8.453a1.064,1.064,0,0,0-.441-.91,4.249,4.249,0,0,0-1.539-.559,7.277,7.277,0,0,1-1.742-.562,2.479,2.479,0,0,1-.953-.781,1.869,1.869,0,0,1-.309-1.078,2.193,2.193,0,0,1,.879-1.758,3.432,3.432,0,0,1,2.246-.719,3.532,3.532,0,0,1,2.332.742,2.357,2.357,0,0,1,.895,1.9H52.391a1.3,1.3,0,0,0-.5-1.023,1.888,1.888,0,0,0-1.27-.43,1.976,1.976,0,0,0-1.234.344,1.082,1.082,0,0,0-.445.9.877.877,0,0,0,.414.789,5.1,5.1,0,0,0,1.5.508A7.8,7.8,0,0,1,52.6,36.7a2.558,2.558,0,0,1,1,.809,1.988,1.988,0,0,1,.324,1.152,2.163,2.163,0,0,1-.906,1.816,3.8,3.8,0,0,1-2.352.684,4.257,4.257,0,0,1-1.8-.359,2.922,2.922,0,0,1-1.223-1A2.42,2.42,0,0,1,47.2,38.4h1.445a1.5,1.5,0,0,0,.582,1.152,2.258,2.258,0,0,0,1.434.426,2.331,2.331,0,0,0,1.316-.332A1.02,1.02,0,0,0,52.477,38.758ZM57.766,30.5v2.047h1.578v1.117H57.766v5.249a1.173,1.173,0,0,0,.211.763.888.888,0,0,0,.719.254,3.5,3.5,0,0,0,.688-.094V41a4.215,4.215,0,0,1-1.109.155,1.8,1.8,0,0,1-1.461-.586,2.517,2.517,0,0,1-.492-1.664V33.664H54.781V32.547H56.32V30.5Zm7.352,3.344a4.331,4.331,0,0,0-.711-.055A1.9,1.9,0,0,0,62.477,35v6H61.031V32.547h1.406l.023.977a2.251,2.251,0,0,1,2.016-1.133,1.477,1.477,0,0,1,.641.109Zm.789,2.852a4.993,4.993,0,0,1,.488-2.234,3.643,3.643,0,0,1,1.359-1.531,3.7,3.7,0,0,1,1.988-.539,3.565,3.565,0,0,1,2.793,1.2,4.6,4.6,0,0,1,1.066,3.18v.1a5.036,5.036,0,0,1-.473,2.215,3.589,3.589,0,0,1-1.352,1.527,3.743,3.743,0,0,1-2.02.547,3.556,3.556,0,0,1-2.785-1.2A4.575,4.575,0,0,1,65.906,36.8Zm1.453.172a3.616,3.616,0,0,0,.652,2.258,2.211,2.211,0,0,0,3.5-.012,3.955,3.955,0,0,0,.648-2.418,3.61,3.61,0,0,0-.66-2.254,2.1,2.1,0,0,0-1.754-.863,2.075,2.075,0,0,0-1.727.852A3.925,3.925,0,0,0,67.359,36.867Zm11.391-.406a12.085,12.085,0,0,1-.457,3.34,9.876,9.876,0,0,1-1.4,2.949,6.127,6.127,0,0,1-1.973,1.922l-.3-.883a6.281,6.281,0,0,0,1.934-2.863,12.387,12.387,0,0,0,.746-4.309v-.25a12.861,12.861,0,0,0-.344-3.051A10.3,10.3,0,0,0,76,30.789a5.838,5.838,0,0,0-1.379-1.742l.3-.883a6.1,6.1,0,0,1,1.965,1.906,9.9,9.9,0,0,1,1.4,2.945A12.363,12.363,0,0,1,78.75,36.461Z" transform="translate(-8126.191 -5819.223)" fill="#12263f"/>
    <g id="Grupo_1177896" data-name="Grupo 1177896" transform="translate(-8155.134 -6418) rotate(90)">
      <g id="Grupo_1177883" data-name="Grupo 1177883" clip-path="url(#clip-path)">
        <g id="Grupo_1177882" data-name="Grupo 1177882">
          <g id="Grupo_1177881" data-name="Grupo 1177881" clip-path="url(#clip-path)">
            <path id="Trazado_998022" data-name="Trazado 998022" d="M.07,1.175v0C.052.783.023.395,0,0V0C.023.392.052.783.07,1.175" transform="translate(571.373 107.003)" fill="#81dace"/>
            <path id="Trazado_998023" data-name="Trazado 998023" d="M0,1.016H0C.09.678.18.34.266,0h0C.181.34.09.678,0,1.016" transform="translate(568.758 132.389)" fill="#81dace"/>
            <path id="Trazado_998024" data-name="Trazado 998024" d="M135.17,34.847A82.98,82.98,0,0,0,0,34.823,82.623,82.623,0,0,1,15.4,83,82.617,82.617,0,0,1,0,131.171a82.989,82.989,0,0,0,135.166-.027,83.049,83.049,0,0,1,0-96.3" transform="translate(420.956 29.07)" fill="#fc9d83"/>
            <path id="Trazado_998025" data-name="Trazado 998025" d="M0,.765H0Q.187.382.369,0h0C.248.255.124.511,0,.765" transform="translate(563.158 147.666)" fill="#81dace"/>
            <path id="Trazado_998026" data-name="Trazado 998026" d="M.125,1.257v0Q.067.627,0,0V0Q.068.627.125,1.257" transform="translate(571.039 103.005)" fill="#81dace"/>
            <path id="Trazado_998027" data-name="Trazado 998027" d="M0,1.242v0C.044.829.084.416.124,0V0C.084.415.044.829,0,1.242" transform="translate(571.04 119.878)" fill="#81dace"/>
            <path id="Trazado_998028" data-name="Trazado 998028" d="M0,.893H0C.046.6.082.3.124.006V0C.082.3.046.6,0,.893" transform="translate(570.546 124.027)" fill="#81dace"/>
            <path id="Trazado_998029" data-name="Trazado 998029" d="M.419.789v0C.277.525.143.261,0,0,.144.261.279.526.419.789" transform="translate(561.392 72.276)" fill="#81dace"/>
            <path id="Trazado_998030" data-name="Trazado 998030" d="M.117.338l0-.008C.075.221.04.111,0,0H0C.041.112.076.225.117.338" transform="translate(566.484 83.477)" fill="#81dace"/>
            <path id="Trazado_998031" data-name="Trazado 998031" d="M0,.5H0C.09.332.174.166.262,0h0C.175.165.09.332,0,.5" transform="translate(561.442 151.271)" fill="#81dace"/>
            <path id="Trazado_998032" data-name="Trazado 998032" d="M0,1.168v0C.023.777.052.39.07,0V0C.052.39.023.779,0,1.168" transform="translate(571.373 115.958)" fill="#81dace"/>
            <path id="Trazado_998033" data-name="Trazado 998033" d="M.345.791h0C.233.526.115.266,0,0V0C.114.264.233.526.345.791" transform="translate(564.76 79.187)" fill="#81dace"/>
            <path id="Trazado_998034" data-name="Trazado 998034" d="M.473.979v0Q.24.488,0,0L0,0Q.24.487.473.979" transform="translate(563.102 75.588)" fill="#81dace"/>
            <path id="Trazado_998035" data-name="Trazado 998035" d="M.13.932V.926C.085.618.049.308,0,0H0C.049.309.086.621.13.932" transform="translate(570.544 99.202)" fill="#81dace"/>
            <path id="Trazado_998036" data-name="Trazado 998036" d="M0,.558v0C.081.37.165.188.243,0V0C.165.188.08.371,0,.558" transform="translate(564.836 144.213)" fill="#81dace"/>
            <path id="Trazado_998037" data-name="Trazado 998037" d="M.317,1.043v0C.212.694.109.346,0,0H0C.109.346.212.7.317,1.043" transform="translate(567.678 86.996)" fill="#81dace"/>
            <path id="Trazado_998038" data-name="Trazado 998038" d="M.012.02h0L0,0,0,0A.122.122,0,0,0,.012.02" transform="translate(559.515 69.012)" fill="#81dace"/>
            <path id="Trazado_998039" data-name="Trazado 998039" d="M.29,1.1v0C.2.733.1.368,0,0V0C.1.367.2.734.29,1.1" transform="translate(568.742 90.673)" fill="#81dace"/>
            <path id="Trazado_998040" data-name="Trazado 998040" d="M.144.649h0C.1.432.048.221,0,.008L0,0C.046.217.1.431.144.649" transform="translate(569.733 94.816)" fill="#81dace"/>
            <path id="Trazado_998041" data-name="Trazado 998041" d="M0,.927H0C.1.619.188.31.282,0h0C.189.31.1.62,0,.927" transform="translate(567.692 136.163)" fill="#81dace"/>
            <path id="Trazado_998042" data-name="Trazado 998042" d="M0,.552V.546C.04.364.084.185.122,0V0C.084.186.039.367,0,.552" transform="translate(569.752 128.684)" fill="#81dace"/>
            <path id="Trazado_998043" data-name="Trazado 998043" d="M0,.083H0C.01.057.018.032.027.008L.029,0C.019.028.01.055,0,.083" transform="translate(566.5 140.53)" fill="#81dace"/>
            <path id="Trazado_998044" data-name="Trazado 998044" d="M0,3.153Q.393,1.588.728,0,.393,1.588,0,3.153" transform="translate(569.024 129.236)" fill="#29c29a"/>
            <path id="Trazado_998045" data-name="Trazado 998045" d="M0,6.532C.726,5.451,1.437,4.359,2.112,3.243Q2.926,1.9,3.688.526c.1-.174.185-.351.28-.526Q2.131,3.364,0,6.532" transform="translate(557.474 151.766)" fill="#29c29a"/>
            <path id="Trazado_998046" data-name="Trazado 998046" d="M0,2.895c.159-.334.327-.662.482-1,.287-.626.555-1.262.827-1.9Q.68,1.462,0,2.895" transform="translate(563.528 144.771)" fill="#29c29a"/>
            <path id="Trazado_998047" data-name="Trazado 998047" d="M0,2.758c.072-.238.147-.474.217-.713Q.44,1.282.649.514C.7.344.738.171.784,0Q.414,1.388,0,2.758" transform="translate(567.974 133.405)" fill="#29c29a"/>
            <path id="Trazado_998048" data-name="Trazado 998048" d="M0,2.84Q.754,1.435,1.455,0,.753,1.436,0,2.84" transform="translate(561.704 148.431)" fill="#29c29a"/>
            <path id="Trazado_998049" data-name="Trazado 998049" d="M0,3.6Q.749,1.82,1.42,0,.752,1.822,0,3.6" transform="translate(565.079 140.613)" fill="#29c29a"/>
            <path id="Trazado_998050" data-name="Trazado 998050" d="M0,3.439C.414,2.3.8,1.156,1.164,0,.8,1.156.414,2.3,0,3.439" transform="translate(566.529 137.092)" fill="#29c29a"/>
            <path id="Trazado_998051" data-name="Trazado 998051" d="M1.378,3.5C.946,2.318.483,1.154,0,0,.483,1.153.946,2.318,1.378,3.5" transform="translate(565.105 79.978)" fill="#29c29a"/>
            <path id="Trazado_998052" data-name="Trazado 998052" d="M1.865,3.243c-.079-.143-.15-.29-.229-.432Q.845,1.387,0,0,.97,1.6,1.865,3.243" transform="translate(559.527 69.032)" fill="#29c29a"/>
            <path id="Trazado_998053" data-name="Trazado 998053" d="M1.292,2.522Q.667,1.249,0,0,.666,1.248,1.292,2.522" transform="translate(561.81 73.064)" fill="#29c29a"/>
            <path id="Trazado_998054" data-name="Trazado 998054" d="M.015,0,0,.022C.292.433.589.839.875,1.256.588.837.308.412.015,0" transform="translate(556.126 63.893)" fill="#29c29a"/>
            <path id="Trazado_998055" data-name="Trazado 998055" d="M.748,2.634Q.4,1.308,0,0,.4,1.308.748,2.634" transform="translate(567.994 88.039)" fill="#29c29a"/>
            <path id="Trazado_998056" data-name="Trazado 998056" d="M1.077,3.181Q.569,1.576,0,0,.57,1.575,1.077,3.181" transform="translate(566.6 83.814)" fill="#29c29a"/>
            <path id="Trazado_998057" data-name="Trazado 998057" d="M1.963,3.062c-.187-.307-.386-.608-.577-.913C.934,1.426.474.707,0,0,.674,1.007,1.333,2.025,1.963,3.062" transform="translate(557.552 65.952)" fill="#29c29a"/>
            <path id="Trazado_998058" data-name="Trazado 998058" d="M0,1.456l.019.027C.366.995.7.5,1.035,0,.7.493.346.972,0,1.456" transform="translate(556.123 158.759)" fill="#29c29a"/>
            <path id="Trazado_998059" data-name="Trazado 998059" d="M0,3.766Q.38,1.9.673,0,.378,1.9,0,3.766" transform="translate(569.873 124.92)" fill="#29c29a"/>
            <path id="Trazado_998060" data-name="Trazado 998060" d="M1.185,2.621Q.615,1.3,0,0,.615,1.3,1.185,2.621" transform="translate(563.575 76.566)" fill="#29c29a"/>
            <path id="Trazado_998061" data-name="Trazado 998061" d="M0,2.752Q.128,1.383.209,0,.126,1.383,0,2.752" transform="translate(571.163 117.126)" fill="#29c29a"/>
            <path id="Trazado_998062" data-name="Trazado 998062" d="M.7,3.04Q.379,1.509,0,0,.38,1.509.7,3.04" transform="translate(569.032 91.776)" fill="#29c29a"/>
            <path id="Trazado_998063" data-name="Trazado 998063" d="M0,2.906Q.209,1.46.369,0,.21,1.461,0,2.906" transform="translate(570.671 121.121)" fill="#29c29a"/>
            <path id="Trazado_998064" data-name="Trazado 998064" d="M.1,3.89C.1,2.585.06,1.29,0,0,.06,1.29.1,2.585.1,3.89" transform="translate(571.443 108.177)" fill="#29c29a"/>
            <path id="Trazado_998065" data-name="Trazado 998065" d="M0,3.891C.06,2.6.1,1.305.1,0,.1,1.305.06,2.6,0,3.891" transform="translate(571.443 112.067)" fill="#29c29a"/>
            <path id="Trazado_998066" data-name="Trazado 998066" d="M.209,2.741Q.126,1.365,0,0,.128,1.365.209,2.741" transform="translate(571.163 104.262)" fill="#29c29a"/>
            <path id="Trazado_998067" data-name="Trazado 998067" d="M.668,3.738Q.374,1.855,0,0,.376,1.854.668,3.738" transform="translate(569.877 95.464)" fill="#29c29a"/>
            <path id="Trazado_998068" data-name="Trazado 998068" d="M.365,2.871C.261,1.908.137.952,0,0,.137.952.261,1.909.365,2.871" transform="translate(570.675 100.135)" fill="#29c29a"/>
            <path id="Trazado_998069" data-name="Trazado 998069" d="M16.733,94.382q2.129-3.167,3.968-6.532c.09-.164.174-.331.262-.494q.754-1.4,1.455-2.84c.124-.254.248-.51.369-.765q.681-1.433,1.309-2.895c.08-.187.165-.37.243-.558q.749-1.781,1.42-3.6c.01-.028.019-.055.029-.083.413-1.134.8-2.283,1.164-3.44.1-.307.188-.618.282-.927q.415-1.368.784-2.758c.089-.338.18-.675.265-1.016q.395-1.563.728-3.152c.039-.185.084-.367.122-.552q.38-1.867.673-3.766c.045-.3.081-.595.124-.892q.209-1.446.369-2.907c.045-.412.085-.827.124-1.242q.128-1.369.209-2.752c.024-.389.052-.777.07-1.168.06-1.29.1-2.585.1-3.89s-.039-2.6-.1-3.89c-.018-.393-.046-.784-.07-1.175q-.083-1.376-.208-2.741c-.04-.419-.08-.839-.126-1.257-.1-.962-.228-1.919-.365-2.871-.044-.311-.082-.623-.129-.932q-.293-1.883-.668-3.738c-.044-.218-.1-.432-.144-.649q-.323-1.53-.7-3.04c-.093-.369-.192-.736-.29-1.1q-.353-1.326-.747-2.634c-.106-.348-.209-.7-.318-1.043q-.507-1.6-1.077-3.181c-.04-.113-.076-.227-.117-.339-.432-1.178-.9-2.343-1.378-3.5-.112-.265-.231-.526-.346-.79q-.57-1.323-1.184-2.621-.234-.492-.473-.979-.625-1.275-1.292-2.522c-.139-.263-.275-.528-.418-.789-.6-1.1-1.218-2.179-1.865-3.244L18.774,5.1c-.631-1.037-1.289-2.055-1.963-3.062-.18-.27-.367-.535-.55-.8C15.975.817,15.677.41,15.384,0a83.048,83.048,0,0,0,0,96.3c.346-.484.7-.963,1.036-1.456.1-.154.212-.306.316-.461" transform="translate(540.741 63.917)" fill="#fc8737"/>
            <path id="Trazado_998070" data-name="Trazado 998070" d="M135.185,34.834A83,83,0,0,0,0,34.824H0c.3.414.575.839.862,1.259.182.265.368.529.547.8.475.709.935,1.427,1.387,2.15.192.307.391.608.579.917l.01.014q.844,1.389,1.636,2.812c.079.143.151.29.229.432.143.261.277.525.418.787q.668,1.25,1.294,2.527.237.486.471.976.615,1.3,1.186,2.625c.114.262.232.522.344.785.484,1.156.946,2.32,1.379,3.5.04.109.075.221.115.33q.572,1.578,1.079,3.19c.109.346.212.693.316,1.039q.4,1.311.749,2.64c.1.366.2.731.288,1.1q.38,1.514.7,3.048c.045.213.1.426.142.641q.378,1.855.669,3.74c.048.307.084.617.128.925q.207,1.431.366,2.878.068.625.125,1.252.128,1.366.209,2.748c.023.389.051.778.07,1.168.06,1.29.1,2.586.1,3.892s-.039,2.6-.1,3.892c-.019.388-.046.775-.07,1.163q-.083,1.386-.21,2.759c-.039.412-.078.825-.123,1.236q-.159,1.467-.37,2.915c-.042.294-.077.591-.124.886q-.3,1.9-.673,3.768c-.036.183-.082.363-.119.545q-.335,1.592-.73,3.159c-.086.34-.177.675-.266,1.014-.045.172-.088.345-.135.516-.139.511-.282,1.021-.431,1.529-.071.24-.146.476-.218.714-.093.31-.185.619-.281.925-.367,1.162-.753,2.312-1.167,3.45-.009.023-.017.049-.025.074q-.668,1.824-1.422,3.6c-.078.187-.162.368-.242.553-.272.637-.539,1.273-.828,1.9-.155.336-.323.664-.482,1q-.182.383-.368.763-.7,1.437-1.456,2.843c-.088.165-.172.332-.262.493s-.182.353-.279.526q-.763,1.374-1.576,2.717c-.676,1.118-1.387,2.21-2.113,3.292-.1.154-.21.305-.314.458-.338.5-.67,1-1.018,1.484A83,83,0,0,0,135.185,34.834" transform="translate(556.142 29.069)" fill="#ffd54e"/>
            <path id="Trazado_998071" data-name="Trazado 998071" d="M0,0C.109.345.212.693.316,1.04.211.693.109.345,0,0" transform="translate(567.678 86.997)" fill="#16e199"/>
            <path id="Trazado_998072" data-name="Trazado 998072" d="M0,0C.1.366.2.731.288,1.1.2.731.1.366,0,0" transform="translate(568.744 90.676)" fill="#16e199"/>
            <path id="Trazado_998073" data-name="Trazado 998073" d="M0,0C.045.416.085.833.125,1.252.085.833.045.417,0,0" transform="translate(571.039 103.008)" fill="#16e199"/>
            <path id="Trazado_998074" data-name="Trazado 998074" d="M0,0C.045.214.1.426.142.64.1.426.045.214,0,0" transform="translate(569.735 94.823)" fill="#16e199"/>
            <path id="Trazado_998075" data-name="Trazado 998075" d="M.123,0C.084.413.044.826,0,1.238.044.826.084.413.123,0" transform="translate(571.04 119.88)" fill="#16e199"/>
            <path id="Trazado_998076" data-name="Trazado 998076" d="M.07,0C.052.389.023.775,0,1.163.023.775.052.389.07,0" transform="translate(571.373 115.96)" fill="#16e199"/>
            <path id="Trazado_998077" data-name="Trazado 998077" d="M0,0C.023.389.052.777.07,1.168.052.777.023.389,0,0" transform="translate(571.373 107.008)" fill="#16e199"/>
            <path id="Trazado_998078" data-name="Trazado 998078" d="M0,0C.114.263.232.523.343.787.232.523.114.263,0,0" transform="translate(564.761 79.19)" fill="#16e199"/>
            <path id="Trazado_998079" data-name="Trazado 998079" d="M0,0C.143.26.277.525.417.787.277.525.143.26,0,0" transform="translate(561.392 72.276)" fill="#16e199"/>
            <path id="Trazado_998080" data-name="Trazado 998080" d="M0,0,.009.014,0,0" transform="translate(559.517 69.017)" fill="#16e199"/>
            <path id="Trazado_998081" data-name="Trazado 998081" d="M0,0C.182.266.368.531.547.8.368.529.182.266,0,0" transform="translate(557.004 65.151)" fill="#16e199"/>
            <path id="Trazado_998082" data-name="Trazado 998082" d="M0,0C.04.109.075.22.115.329.075.22.04.109,0,0" transform="translate(566.484 83.478)" fill="#16e199"/>
            <path id="Trazado_998083" data-name="Trazado 998083" d="M.124,0C.081.3.045.592,0,.886.045.592.081.3.124,0" transform="translate(570.546 124.032)" fill="#16e199"/>
            <path id="Trazado_998084" data-name="Trazado 998084" d="M0,0Q.239.486.471.975.239.486,0,0" transform="translate(563.104 75.59)" fill="#16e199"/>
            <path id="Trazado_998085" data-name="Trazado 998085" d="M0,0C.046.306.084.617.128.925.084.617.046.306,0,0" transform="translate(570.545 99.204)" fill="#16e199"/>
            <path id="Trazado_998086" data-name="Trazado 998086" d="M.242,0C.164.186.08.368,0,.554.08.368.164.186.242,0" transform="translate(564.837 144.215)" fill="#16e199"/>
            <path id="Trazado_998087" data-name="Trazado 998087" d="M.262,0C.174.164.09.33,0,.493.09.33.174.164.262,0" transform="translate(561.442 151.273)" fill="#16e199"/>
            <path id="Trazado_998088" data-name="Trazado 998088" d="M.12,0C.083.182.039.363,0,.545.039.363.083.182.12,0" transform="translate(569.753 128.687)" fill="#16e199"/>
            <path id="Trazado_998089" data-name="Trazado 998089" d="M.314,0C.211.154.1.3,0,.458.1.3.211.154.314,0" transform="translate(557.159 158.299)" fill="#16e199"/>
            <path id="Trazado_998090" data-name="Trazado 998090" d="M.368,0Q.186.383,0,.763.186.383.368,0" transform="translate(563.159 147.667)" fill="#16e199"/>
            <path id="Trazado_998091" data-name="Trazado 998091" d="M.282,0C.188.308.1.618,0,.925.1.618.188.308.282,0" transform="translate(567.692 136.164)" fill="#16e199"/>
            <path id="Trazado_998092" data-name="Trazado 998092" d="M.266,0C.181.339.09.676,0,1.014.091.676.181.339.266,0" transform="translate(568.758 132.391)" fill="#16e199"/>
            <path id="Trazado_998093" data-name="Trazado 998093" d="M.025,0C.017.024.009.05,0,.074.009.05.017.024.025,0" transform="translate(566.501 140.538)" fill="#16e199"/>
            <path id="Trazado_998094" data-name="Trazado 998094" d="M0,3.291C.726,2.21,1.437,1.116,2.113,0,1.438,1.115.727,2.208,0,3.289H0" transform="translate(557.473 155.009)" fill="#16e199"/>
            <path id="Trazado_998095" data-name="Trazado 998095" d="M.863,1.258C.576.839.3.413,0,0,.3.412.574.837.861,1.256l0,0" transform="translate(556.141 63.893)" fill="#16e199"/>
            <path id="Trazado_998096" data-name="Trazado 998096" d="M1.018,0l0,0C.679.5.347,1,0,1.484.348,1,.68.5,1.018,0" transform="translate(556.142 158.757)" fill="#16e199"/>
            <path id="Trazado_998097" data-name="Trazado 998097" d="M1.387,2.151C.934,1.427.474.709,0,0V0C.475.71.935,1.428,1.387,2.151" transform="translate(557.551 65.949)" fill="#16e199"/>
            <path id="Trazado_998098" data-name="Trazado 998098" d="M.431,0Q.222.768,0,1.531.224.768.431,0" transform="translate(568.192 133.919)" fill="#16e199"/>
            <path id="Trazado_998099" data-name="Trazado 998099" d="M.55.8h0C.37.533.185.269,0,0L0,0C.183.267.37.533.55.8" transform="translate(557.002 65.149)" fill="#16e199"/>
            <path id="Trazado_998100" data-name="Trazado 998100" d="M0,.461l0,0C.106.305.212.155.315,0h0C.212.155.1.307,0,.461" transform="translate(557.158 158.298)" fill="#16e199"/>
            <path id="Trazado_998101" data-name="Trazado 998101" d="M119.786,83a82.612,82.612,0,0,0,15.4,48.164A83.018,83.018,0,0,1,0,131.171,82.617,82.617,0,0,0,15.4,83,82.617,82.617,0,0,0,0,34.824a83,83,0,0,1,135.185.01A82.612,82.612,0,0,0,119.786,83" transform="translate(150.586 29.07)" fill="#fc9d83"/>
            <path id="Trazado_998102" data-name="Trazado 998102" d="M30.8,48.173A82.617,82.617,0,0,1,15.4,96.347,83.049,83.049,0,0,1,15.4,0,82.617,82.617,0,0,1,30.8,48.173" transform="translate(135.186 63.895)" fill="#fc8737"/>
            <path id="Trazado_998103" data-name="Trazado 998103" d="M135.185,83a82.617,82.617,0,0,0,15.4,48.173,83,83,0,1,1,0-96.347A82.617,82.617,0,0,0,135.185,83" transform="translate(0 29.07)" fill="#ffd54e"/>
            <path id="Trazado_998104" data-name="Trazado 998104" d="M30.8,48.164A82.612,82.612,0,0,1,15.4,96.327,83.018,83.018,0,0,1,15.4,0,82.612,82.612,0,0,1,30.8,48.164" transform="translate(270.371 63.904)" fill="#fc8737"/>
            <path id="Trazado_998105" data-name="Trazado 998105" d="M30.8,48.173A82.617,82.617,0,0,1,15.4,96.347,83.049,83.049,0,0,1,15.4,0,82.617,82.617,0,0,1,30.8,48.173" transform="translate(405.556 63.895)" fill="#fc8737"/>
            <path id="Trazado_998106" data-name="Trazado 998106" d="M119.786,83a82.617,82.617,0,0,0,15.4,48.173A83.018,83.018,0,0,1,0,131.161,82.612,82.612,0,0,0,15.4,83,82.612,82.612,0,0,0,0,34.834a83,83,0,0,1,135.185-.01A82.617,82.617,0,0,0,119.786,83" transform="translate(285.771 29.07)" fill="#ffd54e"/>
            <ellipse id="Elipse_13669" data-name="Elipse 13669" cx="74.543" cy="74.543" rx="74.543" ry="74.543" transform="translate(549.191 37.522)" fill="none" stroke="#fff" stroke-miterlimit="10" stroke-width="1"/>
            <ellipse id="Elipse_13670" data-name="Elipse 13670" cx="74.543" cy="74.543" rx="74.543" ry="74.543" transform="translate(414.007 37.522)" fill="none" stroke="#fff" stroke-miterlimit="10" stroke-width="1"/>
            <ellipse id="Elipse_13671" data-name="Elipse 13671" cx="74.543" cy="74.543" rx="74.543" ry="74.543" transform="translate(143.634 37.522)" fill="none" stroke="#fff" stroke-miterlimit="10" stroke-width="1"/>
            <g id="Grupo_1177868" data-name="Grupo 1177868" transform="translate(143.241 194.502)" style="mix-blend-mode: darken;isolation: isolate">
              <g id="Grupo_1177867" data-name="Grupo 1177867">
                <g id="Grupo_1177866" data-name="Grupo 1177866" clip-path="url(#clip-path-3)">
                  <path id="Trazado_998107" data-name="Trazado 998107" d="M0,0A110.95,110.95,0,0,0,74.379,28.519,110.9,110.9,0,0,0,144.241,3.855" transform="translate(0.553 0.553)" fill="none" stroke="#674a11" stroke-linecap="round" stroke-linejoin="round" stroke-width="1"/>
                  <path id="Trazado_998108" data-name="Trazado 998108" d="M5.31,7.766,8.141,0,0,1.43Z" transform="translate(141.18 0.553)" fill="#674a11"/>
                </g>
              </g>
            </g>
            <g id="Grupo_1177871" data-name="Grupo 1177871" transform="translate(413.614 194.502)" style="mix-blend-mode: darken;isolation: isolate">
              <g id="Grupo_1177870" data-name="Grupo 1177870">
                <g id="Grupo_1177869" data-name="Grupo 1177869" clip-path="url(#clip-path-3)">
                  <path id="Trazado_998109" data-name="Trazado 998109" d="M0,0A110.974,110.974,0,0,0,74.39,28.519,110.869,110.869,0,0,0,144.241,3.855" transform="translate(0.553 0.553)" fill="none" stroke="#674a11" stroke-linecap="round" stroke-linejoin="round" stroke-width="1"/>
                  <path id="Trazado_998110" data-name="Trazado 998110" d="M5.31,7.766,8.141,0,0,1.43Z" transform="translate(141.18 0.553)" fill="#674a11"/>
                </g>
              </g>
            </g>
            <g id="Grupo_1177877" data-name="Grupo 1177877" transform="translate(278.427)" style="mix-blend-mode: darken;isolation: isolate">
              <g id="Grupo_1177876" data-name="Grupo 1177876">
                <g id="Grupo_1177875" data-name="Grupo 1177875" clip-path="url(#clip-path-5)">
                  <path id="Trazado_998113" data-name="Trazado 998113" d="M0,28.5a111.327,111.327,0,0,1,144.24-3.853" transform="translate(0.553 0.553)" fill="none" stroke="#674a11" stroke-linecap="round" stroke-linejoin="round" stroke-width="1"/>
                  <path id="Trazado_998114" data-name="Trazado 998114" d="M0,6.338,8.142,7.765,5.308,0Z" transform="translate(141.179 21.285)" fill="#674a11"/>
                </g>
              </g>
            </g>
            <g id="Grupo_1177880" data-name="Grupo 1177880" transform="translate(8.056)" style="mix-blend-mode: darken;isolation: isolate">
              <g id="Grupo_1177879" data-name="Grupo 1177879">
                <g id="Grupo_1177878" data-name="Grupo 1177878" clip-path="url(#clip-path-3)">
                  <path id="Trazado_998115" data-name="Trazado 998115" d="M0,28.517a111.269,111.269,0,0,1,144.241-3.855" transform="translate(0.553 0.553)" fill="none" stroke="#674a11" stroke-linecap="round" stroke-linejoin="round" stroke-width="1"/>
                  <path id="Trazado_998116" data-name="Trazado 998116" d="M0,6.336l8.141,1.43L5.31,0Z" transform="translate(141.18 21.304)" fill="#674a11"/>
                </g>
              </g>
            </g>
            <ellipse id="Elipse_13672" data-name="Elipse 13672" cx="74.543" cy="74.543" rx="74.543" ry="74.543" transform="translate(8.447 37.522)" fill="none" stroke="#fff" stroke-miterlimit="10" stroke-width="1"/>
            <ellipse id="Elipse_13673" data-name="Elipse 13673" cx="74.543" cy="74.543" rx="74.543" ry="74.543" transform="translate(278.82 37.522)" fill="none" stroke="#fff" stroke-miterlimit="10" stroke-width="1"/>
          </g>
        </g>
      </g>
    </g>
    <g id="Grupo_1177901" data-name="Grupo 1177901" transform="translate(-8298.922 -6367.779)">
      <g id="Grupo_1177886" data-name="Grupo 1177886" clip-path="url(#clip-path-7)">
        <path id="Trazado_998117" data-name="Trazado 998117" d="M48.813,8.5A28.91,28.91,0,0,0,4.356,40.492a1.551,1.551,0,0,1-.994,1.929,1.521,1.521,0,0,1-1.895-.88A31.979,31.979,0,0,1,50.84,6.141,5.043,5.043,0,1,1,48.813,8.5" transform="translate(0 0)" fill="#12263f"/>
        <path id="Trazado_998118" data-name="Trazado 998118" d="M7.743,36.219a5.139,5.139,0,0,1-6.423-.93,5.055,5.055,0,0,1,6.23-7.8,5.185,5.185,0,0,1,2.222,6.375A28.913,28.913,0,0,0,54.218,1.876a1.487,1.487,0,0,1,.992-1.8,1.522,1.522,0,0,1,1.939.874,31.985,31.985,0,0,1-49.4,35.27" transform="translate(5.401 21.622)" fill="#12263f"/>
        <path id="Trazado_998119" data-name="Trazado 998119" d="M13.281,11.707,0,11.721A22.85,22.85,0,0,1,4.125,0,49.788,49.788,0,0,0,14.132,2.282a80.147,80.147,0,0,0-.851,9.425" transform="translate(8.978 18.73)" fill="#12263f"/>
        <path id="Trazado_998120" data-name="Trazado 998120" d="M14.11,9.411A48.7,48.7,0,0,0,4.134,11.72,22.346,22.346,0,0,1,0,0L13.259.021a80.334,80.334,0,0,0,.85,9.39" transform="translate(9 33.533)" fill="#12263f"/>
        <path id="Trazado_998121" data-name="Trazado 998121" d="M14.131,11.717l-13.26.021A88.356,88.356,0,0,0,0,2.281,45.959,45.959,0,0,0,10,0a22.658,22.658,0,0,1,4.135,11.717" transform="translate(40.854 18.736)" fill="#12263f"/>
        <path id="Trazado_998122" data-name="Trazado 998122" d="M10.01,11.656A48.15,48.15,0,0,0,0,9.423C.4,6.311.706,3.287.808,0L14.088,0A23.042,23.042,0,0,1,10.01,11.656" transform="translate(40.892 33.548)" fill="#12263f"/>
        <path id="Trazado_998123" data-name="Trazado 998123" d="M13.214,9.094,0,9.1A60.711,60.711,0,0,1,.867,0,97.188,97.188,0,0,0,12.352.008a60.663,60.663,0,0,1,.862,9.086" transform="translate(25.375 21.343)" fill="#12263f"/>
        <path id="Trazado_998124" data-name="Trazado 998124" d="M12.4,9.059A115.294,115.294,0,0,0,.866,9.091,61.13,61.13,0,0,1,0,.025L13.186,0A64.482,64.482,0,0,1,12.4,9.059" transform="translate(25.375 33.53)" fill="#12263f"/>
        <path id="Trazado_998125" data-name="Trazado 998125" d="M10.271,9.267c-3.489.179-6.789.15-10.271.007C.524,6.606,1.873,2.305,3.923.517a1.653,1.653,0,0,1,2.406,0A8.271,8.271,0,0,1,8.173,3.033a26.07,26.07,0,0,1,2.1,6.234" transform="translate(26.855 9.01)" fill="#12263f"/>
        <path id="Trazado_998126" data-name="Trazado 998126" d="M6.4,8.828a1.653,1.653,0,0,1-2.461.05A8.226,8.226,0,0,1,2.1,6.364,26.312,26.312,0,0,1,0,.157,98.446,98.446,0,0,1,10.272.111C9.766,2.7,8.437,7,6.4,8.828" transform="translate(26.842 45.558)" fill="#12263f"/>
        <path id="Trazado_998127" data-name="Trazado 998127" d="M11.516,6.628A43.961,43.961,0,0,1,3.043,8.414,30.753,30.753,0,0,0,0,0,22.232,22.232,0,0,1,11.516,6.628" transform="translate(37.225 9.553)" fill="#12263f"/>
        <path id="Trazado_998128" data-name="Trazado 998128" d="M11.506,1.786A22.469,22.469,0,0,1,0,8.426,31.636,31.636,0,0,0,3.026,0a44.3,44.3,0,0,1,8.479,1.786" transform="translate(37.237 46.002)" fill="#12263f"/>
        <path id="Trazado_998129" data-name="Trazado 998129" d="M8.515,8.325A35.643,35.643,0,0,1,0,6.587,22.616,22.616,0,0,1,11.484,0,30.223,30.223,0,0,0,8.515,8.325" transform="translate(15.234 9.551)" fill="#12263f"/>
        <path id="Trazado_998130" data-name="Trazado 998130" d="M11.5,8.4A22.578,22.578,0,0,1,0,1.811,41.457,41.457,0,0,1,8.464,0,30.247,30.247,0,0,0,11.5,8.4" transform="translate(15.247 46.027)" fill="#12263f"/>
        <path id="Trazado_998131" data-name="Trazado 998131" d="M3.062,1.531A1.531,1.531,0,1,1,1.531,0,1.531,1.531,0,0,1,3.062,1.531" transform="translate(57.312 16.112)" fill="#12263f"/>
        <path id="Trazado_998132" data-name="Trazado 998132" d="M3.063,1.531A1.531,1.531,0,1,1,1.531,0,1.531,1.531,0,0,1,3.063,1.531" transform="translate(3.654 44.896)" fill="#12263f"/>
      </g>
    </g>
    <g id="Grupo_1177897" data-name="Grupo 1177897" transform="translate(-8295.855 -6229.064)">
      <g id="Grupo_1177888" data-name="Grupo 1177888" clip-path="url(#clip-path-8)">
        <path id="Trazado_998133" data-name="Trazado 998133" d="M50.112,25.056A25.056,25.056,0,1,1,25.056,0,25.056,25.056,0,0,1,50.112,25.056m-5.783,0A19.273,19.273,0,1,0,25.056,44.329,19.273,19.273,0,0,0,44.329,25.056" fill="#12263f"/>
        <path id="Trazado_998134" data-name="Trazado 998134" d="M7.421,14.887,0,7.457A29.766,29.766,0,0,0,7.461,0L14.92,7.479a5.271,5.271,0,0,1-7.5,7.408" transform="translate(41.428 41.419)" fill="#12263f"/>
        <path id="Trazado_998135" data-name="Trazado 998135" d="M30.834,15.417A15.417,15.417,0,1,1,15.417,0,15.417,15.417,0,0,1,30.834,15.417M8.483,16.483l3.938,3.85a1.947,1.947,0,0,0,2.891-.024l7.271-7.177a1.883,1.883,0,0,0-.005-2.646,1.855,1.855,0,0,0-2.6-.131L13.875,16.3l-3.024-2.869a1.88,1.88,0,0,0-2.687.239,2.016,2.016,0,0,0,.319,2.816" transform="translate(9.638 9.639)" fill="#12263f"/>
      </g>
    </g>
    <g id="Grupo_1177898" data-name="Grupo 1177898" transform="translate(-8297.553 -6035.021) rotate(-90)">
      <g id="Grupo_1177890" data-name="Grupo 1177890" clip-path="url(#clip-path-9)">
        <path id="Trazado_998136" data-name="Trazado 998136" d="M47.069,45.027a21.935,21.935,0,1,0-2.1,2.083,21.047,21.047,0,0,1,2.066,2.024c-.531,1.351-.661,5.882.269,7.142a30.589,30.589,0,1,1,9.032-9.042c-1.565-.773-5.457-.791-7.186-.21Z" transform="translate(0 0)" fill="#12263f"/>
        <path id="Trazado_998137" data-name="Trazado 998137" d="M27.128,25.055a10.241,10.241,0,1,0-2.1,2.074l6.23,6.2a18.955,18.955,0,1,1,2.071-2.074Z" transform="translate(11.669 11.666)" fill="#12263f"/>
        <path id="Trazado_998138" data-name="Trazado 998138" d="M8.378,6.306A1.5,1.5,0,0,0,6.4,6.125a1.4,1.4,0,0,0-.3,1.978l5.161,5.266a7.293,7.293,0,1,1,2.108-2.113Z" transform="translate(23.335 23.33)" fill="#12263f"/>
        <path id="Trazado_998139" data-name="Trazado 998139" d="M5.869,7.393v2.732a1.484,1.484,0,0,1-1.017,1.52,1.455,1.455,0,0,1-1.775-.8l-3-6.037C.151,3.445-.648-.161,1.637.066c1.007.1,2.192-.265,3.132.1,2.168.841,4.1,2.025,6.188,3a1.427,1.427,0,0,1,.675,1.692,1.486,1.486,0,0,1-1.524,1.026L7.475,5.877A1.527,1.527,0,0,0,5.869,7.393" transform="translate(49.526 49.504)" fill="#12263f"/>
      </g>
    </g>
    <g id="Grupo_1177899" data-name="Grupo 1177899" transform="translate(-8296.494 -5960.138)">
      <g id="Grupo_1177892" data-name="Grupo 1177892" clip-path="url(#clip-path-10)">
        <path id="Trazado_998140" data-name="Trazado 998140" d="M29.946,57.054a4.265,4.265,0,0,1-3.586,1.535A4.319,4.319,0,0,1,23.2,56.433a4.26,4.26,0,0,0-5.7-1.906,4.193,4.193,0,0,1-3.817-.232,3.962,3.962,0,0,1-1.76-3.154,4.2,4.2,0,0,0-4.164-4.148,4.223,4.223,0,0,1-3.27-1.682,4,4,0,0,1-.311-3.918,4.1,4.1,0,0,0-1.908-5.5,4.14,4.14,0,0,1-2.216-2.91,4.164,4.164,0,0,1,1.4-3.749,4.262,4.262,0,0,0,.506-5.919,3.755,3.755,0,0,1-.533-3.792,4.135,4.135,0,0,1,2.676-2.3,4.163,4.163,0,0,0,3.136-5.007A4.029,4.029,0,0,1,8.3,8.577a4.016,4.016,0,0,1,3.784-.956c2.162.428,3.9-1.128,4.525-3.143a4.194,4.194,0,0,1,2.261-2.719,4.219,4.219,0,0,1,3.916.476,4.322,4.322,0,0,0,5.933-.721A4.179,4.179,0,0,1,32.241.023,4.279,4.279,0,0,1,35.4,2.176a4.268,4.268,0,0,0,5.7,1.9,4.226,4.226,0,0,1,3.818.236A3.951,3.951,0,0,1,46.688,7.47a4.191,4.191,0,0,0,4.16,4.145A4.22,4.22,0,0,1,54.12,13.3a4.008,4.008,0,0,1,.315,3.92,4.087,4.087,0,0,0,1.9,5.5,3.972,3.972,0,0,1,.79,6.689c-1.324,1.28-2.113,3.558-.852,5.116.987,1.219,1.779,2.3,1.284,4.03a4.162,4.162,0,0,1-2.809,2.727,4.11,4.11,0,0,0-3.129,5,4.01,4.01,0,0,1-1.043,3.608,4.071,4.071,0,0,1-3.612,1.093A4.219,4.219,0,0,0,42,54.146a4.189,4.189,0,0,1-2.266,2.709,4.291,4.291,0,0,1-3.92-.479,4.283,4.283,0,0,0-5.872.679M48.672,29.311a19.42,19.42,0,1,0-19.42,19.42,19.42,19.42,0,0,0,19.42-19.42" transform="translate(0 0)" fill="#12263f"/>
        <path id="Trazado_998141" data-name="Trazado 998141" d="M30.082,15.041A15.041,15.041,0,1,1,15.041,0,15.041,15.041,0,0,1,30.082,15.041m-18,6.648c.55.547,1.237.142,1.638-.255l9.68-9.595a1.075,1.075,0,0,0,.026-1.389L21.417,8.434a1.139,1.139,0,0,0-1.673.156l-7,6.881-2.688-2.626a1,1,0,0,0-1.4.078L6.735,14.846a1.069,1.069,0,0,0-.01,1.523Z" transform="translate(14.207 14.381)" fill="#12263f"/>
      </g>
    </g>
    <g id="Grupo_1177900" data-name="Grupo 1177900" transform="translate(-8286.39 -5821.464)">
      <g id="Grupo_1177894" data-name="Grupo 1177894" clip-path="url(#clip-path-11)">
        <path id="Trazado_998142" data-name="Trazado 998142" d="M39.222,47.05a4.489,4.489,0,0,1-4.644,4.443l-29.9,0A4.535,4.535,0,0,1,.019,46.961L0,4.369A4.431,4.431,0,0,1,4.2.062L24.129,0l.008,10.772a4.634,4.634,0,0,0,4.512,4.337l10.614.012Zm-10.4-22.8a1.549,1.549,0,0,0,1.376-1.589,1.475,1.475,0,0,0-1.412-1.41H10.474a1.469,1.469,0,0,0-1.409,1.527c0,.523.535,1.47,1.32,1.47Zm-.106,6a1.485,1.485,0,0,0,1.482-1.53,1.567,1.567,0,0,0-1.447-1.484H10.51a1.564,1.564,0,0,0-1.449,1.6,1.523,1.523,0,0,0,1.577,1.424Zm.106,6.064a1.549,1.549,0,0,0,1.376-1.589,1.475,1.475,0,0,0-1.412-1.41H10.474a1.469,1.469,0,0,0-1.409,1.527c0,.523.535,1.47,1.32,1.47Zm-5.911,5.972c.892,0,1.293-1.006,1.222-1.634A1.522,1.522,0,0,0,22.643,39.3L10.5,39.31a1.556,1.556,0,0,0-1.443,1.6,1.534,1.534,0,0,0,1.571,1.424Z" fill="#12263f"/>
        <path id="Trazado_998143" data-name="Trazado 998143" d="M1.529,11.142A1.513,1.513,0,0,1,0,9.685L.03,0,11.136,11.1Z" transform="translate(27.185 0.936)" fill="#12263f"/>
      </g>
    </g>
  </g>
</svg>
