<svg xmlns="http://www.w3.org/2000/svg" width="48" height="48" viewBox="0 0 48 48">
  <g id="Grupo_1190968" data-name="Grupo 1190968" transform="translate(-186.629 -1652)">
    <g id="Grupo_1190967" data-name="Grupo 1190967">
      <rect id="Rectángulo_454570" data-name="Rectángulo 454570" width="48" height="48" rx="6" transform="translate(186.629 1652)" fill="#5a5858"/>
      <path id="file-lines-solid-full" d="M128,68.3a4.3,4.3,0,0,1,4.3-4.3h10.043a4.3,4.3,0,0,1,3.043,1.256l7.154,7.161A4.3,4.3,0,0,1,153.8,75.46V94.094a4.3,4.3,0,0,1-4.3,4.3H132.3a4.3,4.3,0,0,1-4.3-4.3Zm13.972-.369v6.281a1.608,1.608,0,0,0,1.612,1.612h6.281ZM136.061,81.2a1.612,1.612,0,0,0,0,3.224h9.673a1.612,1.612,0,1,0,0-3.224Zm0,6.449a1.612,1.612,0,0,0,0,3.224h9.673a1.612,1.612,0,1,0,0-3.224Z" transform="translate(69.629 1595)" fill="#fff"/>
    </g>
  </g>
</svg>
