<svg xmlns="http://www.w3.org/2000/svg" xmlns:xlink="http://www.w3.org/1999/xlink" width="150" height="150" viewBox="0 0 150 150">
  <defs>
    <clipPath id="clip-path">
      <rect id="Rectángulo_455569" data-name="Rectángulo 455569" width="89.231" height="78.673" fill="#674a11"/>
    </clipPath>
  </defs>
  <g id="Grupo_1190411" data-name="Grupo 1190411" transform="translate(-383.746 -8400)">
    <circle id="Elipse_13609" data-name="Elipse 13609" cx="75" cy="75" r="75" transform="translate(383.746 8400)" fill="#fff"/>
    <g id="Grupo_1190836" data-name="Grupo 1190836" transform="translate(414.13 8435.664)">
      <g id="Grupo_1190835" data-name="Grupo 1190835" clip-path="url(#clip-path)">
        <path id="Trazado_998935" data-name="Trazado 998935" d="M109.282,11.963l-6.769,1.116a1.837,1.837,0,0,1-2.117-1.251A1.718,1.718,0,0,1,101.663,9.7a13.492,13.492,0,0,0,2.615-.6,35.9,35.9,0,0,0-42.144,2.618A1.742,1.742,0,0,1,60.094,8.9a39.361,39.361,0,0,1,46.02-2.769c.055-1.228-1.114-3.718,1.025-4.137a1.71,1.71,0,0,1,2.075,1.361l1.35,6.46a1.722,1.722,0,0,1-1.283,2.15" transform="translate(-42.848 0)" fill="#674a11"/>
        <path id="Trazado_998936" data-name="Trazado 998936" d="M66.79,244.277c-.266.691.117,1.256.2,1.9.142,1.1-.22,2.086-1.318,2.272a1.752,1.752,0,0,1-2.068-1.394l-1.336-6.444a1.782,1.782,0,0,1,1.609-2.214l6.476-1.03a1.745,1.745,0,1,1,.666,3.424,15.748,15.748,0,0,0-2.417.485,35.86,35.86,0,0,0,38.726-1.175,1.758,1.758,0,0,1,2.357.529,1.8,1.8,0,0,1-.653,2.527,39.431,39.431,0,0,1-42.243,1.117" transform="translate(-44.88 -171.195)" fill="#674a11"/>
        <path id="Trazado_998937" data-name="Trazado 998937" d="M183.116,102.505l11.051.025a12.054,12.054,0,0,1,15.024-8.838l.025-26.544a1.532,1.532,0,0,0-1.538-1.61l-24.409.007a1.5,1.5,0,0,0-1.543,1.577l-.036,9.442a1.769,1.769,0,0,1-1.709,1.676,1.737,1.737,0,0,1-1.75-1.66l-.026-9.479c-.007-2.4,1.846-4.955,4.451-4.959l25.375-.035a4.882,4.882,0,0,1,4.7,5.025l.044,28.315A11.936,11.936,0,1,1,193.929,106.1l-10.7-.061a4.957,4.957,0,0,1-5-4.909l-.019-9.193a1.8,1.8,0,0,1,1.791-1.85,1.78,1.78,0,0,1,1.72,1.846l.027,9.209a1.368,1.368,0,0,0,1.375,1.361m31.151,2.668a8.428,8.428,0,1,0-8.428,8.428,8.429,8.429,0,0,0,8.428-8.428" transform="translate(-128.538 -44.797)" fill="#674a11"/>
        <path id="Trazado_998938" data-name="Trazado 998938" d="M225.055,138.018l-13.644.006a1.8,1.8,0,0,1-1.823-1.577,1.7,1.7,0,0,1,1.654-1.89l13.778-.012a1.737,1.737,0,1,1,.036,3.473" transform="translate(-151.168 -97.047)" fill="#674a11"/>
        <path id="Trazado_998939" data-name="Trazado 998939" d="M224.925,99.713a1.728,1.728,0,1,1,.159,3.45l-13.68.011a1.788,1.788,0,0,1-1.818-1.607,1.717,1.717,0,0,1,1.828-1.853Z" transform="translate(-151.169 -71.923)" fill="#674a11"/>
        <path id="Trazado_998940" data-name="Trazado 998940" d="M215.977,173.854c-1.611.119-3.08.036-4.578.038a1.8,1.8,0,0,1-1.827-1.6c-.267-2.55,3.665-1.909,6.247-1.9a1.734,1.734,0,0,1,1.738,1.419,1.678,1.678,0,0,1-1.58,2.038" transform="translate(-151.155 -122.85)" fill="#674a11"/>
        <path id="Trazado_998941" data-name="Trazado 998941" d="M181.776,137.041a1.718,1.718,0,1,1-1.718-1.718,1.718,1.718,0,0,1,1.718,1.718" transform="translate(-128.637 -97.609)" fill="#674a11"/>
        <path id="Trazado_998942" data-name="Trazado 998942" d="M263,211.95c-1.46,1.451-3.291-1.106-4.616-2.408a1.731,1.731,0,0,1-.222-2.249,1.681,1.681,0,0,1,2.376-.422l1.356,1.212,3.523-3.439a1.709,1.709,0,0,1,2.429-.007,1.728,1.728,0,0,1,.019,2.477Z" transform="translate(-185.985 -147.242)" fill="#674a11"/>
        <path id="Trazado_998943" data-name="Trazado 998943" d="M22.508,107.154,19,107.172c-4.912.026-4.859-5.185-5.514-5.559L9.9,99.569c-.6-.343-5.043,2.267-7.493-1.981L.751,94.723c-2.511-4.352,2.088-6.613,2.06-7.616-.1-3.492.469-4-.906-5.18a4.9,4.9,0,0,1-1.15-6.338L2.41,72.722C4.845,68.5,9.273,71.1,9.894,70.749l3.591-2.032c.665-.376.535-4.9,4.506-5.443A29.188,29.188,0,0,1,22.62,63.2c4.555.107,4.548,5.106,5.107,5.431l3.648,2.119c.62.36,5.034-2.3,7.534,2.038l1.6,2.775c2.509,4.352-2.048,6.7-2.049,7.635l0,3.915c0,.954,4.562,3.292,2.052,7.634l-1.7,2.936c-2.356,4.077-6.9,1.572-7.439,1.881L27.841,101.6c-.728.418-.712,5.535-5.333,5.559m.5-3.529c1.539-1.444.5-4.088,3.512-5.332a18.979,18.979,0,0,0,3.016-1.763c2.784-1.8,5.155,1.55,6.451-.878,1.369-2.568,2.584-3.39.828-4.919A4.4,4.4,0,0,1,34.956,87.4c.227-4.579-.8-5.447,1.869-7.815a1.784,1.784,0,0,0,.525-2.546c-.648-.928-1.053-2.025-1.807-2.929-1.119-1.342-3.606,1.534-6.356-.531-2.691-2.02-4.574-1.428-5.3-5.243-.432-2.276-1.72-1.575-4.611-1.709-2.8-.129-1.116,3.616-3.954,5.094a25.61,25.61,0,0,0-3.34,1.921c-2.675,1.947-5.308-.849-6.248.455a23.542,23.542,0,0,0-2.092,3.59C2.919,79.194,6.31,80.24,6.311,82.7l0,4.91c0,2.5-3.382,3.511-2.67,5.019a23.084,23.084,0,0,0,2.086,3.589c.89,1.243,3.63-1.225,5.891.251,1.256.821,2.506,1.529,3.837,2.227,2.273,1.192,1.529,4.623,3,4.874a24.181,24.181,0,0,0,4.553.055" transform="translate(0 -45.547)" fill="#674a11"/>
        <path id="Trazado_998944" data-name="Trazado 998944" d="M58.969,117.57a9.5,9.5,0,1,1-9.5-9.5,9.5,9.5,0,0,1,9.5,9.5m-3.48,0a6.016,6.016,0,1,0-6.016,6.016,6.016,6.016,0,0,0,6.016-6.016" transform="translate(-28.836 -77.954)" fill="#674a11"/>
      </g>
    </g>
  </g>
</svg>
