<svg xmlns="http://www.w3.org/2000/svg" xmlns:xlink="http://www.w3.org/1999/xlink" width="150.001" height="150.001" viewBox="0 0 150.001 150.001">
  <defs>
    <clipPath id="clip-path">
      <rect id="Rect치ngulo_455591" data-name="Rect치ngulo 455591" width="73.381" height="77.778" fill="#5a5858"/>
    </clipPath>
  </defs>
  <g id="Grupo_1190592" data-name="Grupo 1190592" transform="translate(-305.059 -9426)">
    <g id="Grupo_1177670" data-name="Grupo 1177670" transform="translate(0 0.001)">
      <path id="Trazado_997691" data-name="Trazado 997691" d="M75,0A75,75,0,1,1,0,75,75,75,0,0,1,75,0Z" transform="translate(455.059 9425.999) rotate(90)" fill="#cbcbcb"/>
      <path id="Sustracci칩n_109" data-name="Sustracci칩n 109" d="M21524.061,11862h0v-150a75,75,0,1,1,0,150Z" transform="translate(12167.058 -12023.059) rotate(90)" fill="#5a5858"/>
      <path id="Trazado_997692" data-name="Trazado 997692" d="M67.738,0A67.738,67.738,0,1,1,0,67.738,67.738,67.738,0,0,1,67.738,0Z" transform="translate(312.32 9433.262)" fill="#fff"/>
      <g id="Grupo_1190882" data-name="Grupo 1190882" transform="translate(340.74 9462.111)">
        <g id="Grupo_1190881" data-name="Grupo 1190881" clip-path="url(#clip-path)">
          <path id="Trazado_999044" data-name="Trazado 999044" d="M16.555,72.094l-.067-13.734-11.9-.035A4.534,4.534,0,0,1,.014,53.7L0,31.6A4.641,4.641,0,0,1,4.839,26.9l11.652.006.018-21.1A5.844,5.844,0,0,1,22.122.052L52.66,0,72.813,20.932a2.158,2.158,0,0,1,.568,1.455L73.32,71.9a5.943,5.943,0,0,1-6.036,5.87l-44.678.007a5.853,5.853,0,0,1-6.051-5.684m2.962-.061a3,3,0,0,0,2.906,2.792l44.842-.017a3.044,3.044,0,0,0,3.073-3.145l.009-47.716-19.4-.022a1.561,1.561,0,0,1-1.531-1.435l-.023-19.5L22.851,3a3.085,3.085,0,0,0-3.4,3.084l.013,20.831H44.683a4.572,4.572,0,0,1,4.733,4.451l-.042,22.574A4.476,4.476,0,0,1,44.7,58.341l-25.255.006ZM68.569,20.841,52.455,4.154l-.063,16.765ZM46.407,29.889H3.021V55.375H46.407Z" fill="#5a5858"/>
          <path id="Trazado_999045" data-name="Trazado 999045" d="M95.687,159.663a4.655,4.655,0,0,1-4.525,3.158l-5.669.011-.03-12.743c3.626.079,8.365-1.134,10.06,2.783a9.165,9.165,0,0,1,.163,6.792m-2.342-5.251c-.518-2.519-3.213-2.347-5.255-2.164l-.009,8.377a25.9,25.9,0,0,0,2.615.047c3.28.114,3.061-4.266,2.65-6.26" transform="translate(-64.687 -113.512)" fill="#5a5858"/>
          <path id="Trazado_999046" data-name="Trazado 999046" d="M42.616,158.035l-3.717.116-.019,4.638a5.019,5.019,0,0,1-2.583.037l.009-12.66c2.087-.134,4.06-.02,6.114,0a3.627,3.627,0,0,1,3.712,3.794,3.726,3.726,0,0,1-3.516,4.073m.816-3.948c-.014-2.2-2.837-1.783-4.527-1.795l.008,3.587c1.7.03,4.533.453,4.519-1.793" transform="translate(-27.473 -113.612)" fill="#5a5858"/>
          <path id="Trazado_999047" data-name="Trazado 999047" d="M146.6,155.492c.46.25.25,1.367.19,2.027l-5.27.141-.06,5.326a9.868,9.868,0,0,1-2.6-.026l-.007-12.711,8.724-.03a5.174,5.174,0,0,1-.018,2.113l-6,.049a13.515,13.515,0,0,0,.008,3.049Z" transform="translate(-105.095 -113.701)" fill="#5a5858"/>
        </g>
      </g>
    </g>
    <path id="Trazado_997694" data-name="Trazado 997694" d="M471.93,424.642a3.111,3.111,0,1,1,3.115,3.124,3.113,3.113,0,0,1-3.115-3.124m-13.442,0a3.115,3.115,0,1,1,3.115,3.124,3.114,3.114,0,0,1-3.115-3.124m-13.44,0a3.115,3.115,0,1,1,3.115,3.124,3.118,3.118,0,0,1-3.115-3.124" transform="translate(868.572 8985.952) rotate(90)" fill="#5a5858"/>
    <g id="Grupo_1177672" data-name="Grupo 1177672" transform="translate(326.305 9552.477) rotate(90)">
      <path id="Trazado_997699" data-name="Trazado 997699" d="M0,24.325l1.629,1.6,7.17-7.29,6.879,7.274,1.661-1.571-8.507-9Z" transform="translate(0 -6.575)" fill="#636363"/>
      <path id="Trazado_997700" data-name="Trazado 997700" d="M8.832,0,0,8.979l1.629,1.6L8.8,3.293l6.879,7.273L17.34,9Z" fill="#636363"/>
    </g>
  </g>
</svg>
