<svg xmlns="http://www.w3.org/2000/svg" xmlns:xlink="http://www.w3.org/1999/xlink" width="150.001" height="150" viewBox="0 0 150.001 150">
  <defs>
    <clipPath id="clip-path">
      <rect id="Rect치ngulo_455543" data-name="Rect치ngulo 455543" width="84.987" height="81.59" fill="#5a5858"/>
    </clipPath>
  </defs>
  <g id="Grupo_1190392" data-name="Grupo 1190392" transform="translate(-305.059 -9426)">
    <g id="Grupo_1177670" data-name="Grupo 1177670" transform="translate(0 0.001)">
      <path id="Trazado_997691" data-name="Trazado 997691" d="M75,0A75,75,0,1,1,0,75,75,75,0,0,1,75,0Z" transform="translate(455.059 9425.999) rotate(90)" fill="#cbcbcb"/>
      <path id="Sustracci칩n_109" data-name="Sustracci칩n 109" d="M21524.061,11862h0v-150a75,75,0,1,1,0,150Z" transform="translate(12167.058 -12023.059) rotate(90)" fill="#5a5858"/>
      <path id="Trazado_997692" data-name="Trazado 997692" d="M67.738,0A67.738,67.738,0,1,1,0,67.738,67.738,67.738,0,0,1,67.738,0Z" transform="translate(312.32 9433.262)" fill="#fff"/>
      <g id="Grupo_1190808" data-name="Grupo 1190808" transform="translate(335.565 9457.204)">
        <g id="Grupo_1190807" data-name="Grupo 1190807" clip-path="url(#clip-path)">
          <path id="Trazado_998750" data-name="Trazado 998750" d="M3.289,214.883a1.644,1.644,0,1,1-1.644-1.644,1.645,1.645,0,0,1,1.644,1.644" transform="translate(0 -156.598)" fill="#5a5858"/>
          <path id="Trazado_998751" data-name="Trazado 998751" d="M10.786,50.251A1.661,1.661,0,0,1,9,48.62a1.609,1.609,0,0,1,1.637-1.693l7.308-.089a56.388,56.388,0,0,1,.785-6.3l-17.1-.022a1.6,1.6,0,0,1-1.6-1.495c-.049-.657.355-1.7,1.306-1.706l18.382-.095a44.487,44.487,0,0,1,2.862-6.315l-9.715-.068a1.654,1.654,0,0,1,.158-3.3L24.937,27.5A33.55,33.55,0,0,1,44,15.358a23.373,23.373,0,0,0,.039-4.28,5.625,5.625,0,0,1-4.177-6.024A5.54,5.54,0,0,1,45.222.009L57.569,0A5.575,5.575,0,0,1,63,4.8a5.671,5.671,0,0,1-4.194,6.3l-.035,4.217A33.541,33.541,0,0,1,79.7,66.161a1.653,1.653,0,0,1-2.422.551,1.694,1.694,0,0,1-.37-2.36,30.183,30.183,0,1,0-8.795,8.928,1.671,1.671,0,0,1,1.512,2.978A33.539,33.539,0,0,1,20.147,59.979l-11.886-.03A1.661,1.661,0,1,1,8.5,56.636L19,56.579A56.368,56.368,0,0,1,17.984,50.3ZM57.53,7.9A2.22,2.22,0,0,0,59.7,5.352,2.3,2.3,0,0,0,57.386,3.31l-11.955,0a2.313,2.313,0,0,0-2.269,2.451,2.341,2.341,0,0,0,2.527,2.172Zm-2.116,6.872a18.6,18.6,0,0,0,.015-3.464l-7.853-.013a9.147,9.147,0,0,0,0,3.474,29.391,29.391,0,0,1,7.837,0" transform="translate(-0.019 0)" fill="#5a5858"/>
          <path id="Trazado_998752" data-name="Trazado 998752" d="M148.262,109.678a25.745,25.745,0,1,1-25.745-25.745,25.745,25.745,0,0,1,25.745,25.745m-3.322,0A22.425,22.425,0,1,0,122.515,132.1a22.425,22.425,0,0,0,22.425-22.425" transform="translate(-71.067 -61.638)" fill="#5a5858"/>
          <path id="Trazado_998753" data-name="Trazado 998753" d="M275.634,261.158a1.644,1.644,0,1,1-1.644-1.644,1.644,1.644,0,0,1,1.644,1.644" transform="translate(-200.005 -190.581)" fill="#5a5858"/>
          <path id="Trazado_998754" data-name="Trazado 998754" d="M161,137.973a1.617,1.617,0,0,1,.34-2.422,1.82,1.82,0,0,1,2.321.406l3.446,3.439a5.607,5.607,0,0,1,4.558.015l8.181-8.146a1.691,1.691,0,0,1,2.419,0,1.715,1.715,0,0,1-.211,2.479l-8.014,8.033a5.276,5.276,0,0,1-1.405,6.277,5.092,5.092,0,0,1-6.4.078,5.162,5.162,0,0,1-1.518-6.311Zm10.2,6.089a1.819,1.819,0,1,0-1.819,1.819,1.819,1.819,0,0,0,1.819-1.819" transform="translate(-117.938 -96.024)" fill="#5a5858"/>
          <path id="Trazado_998755" data-name="Trazado 998755" d="M189.846,236.051c.978.653.954,3.505.059,4.164a1.73,1.73,0,0,1-2.109-.027c-.767-.587-.962-3.373.1-4.12a1.757,1.757,0,0,1,1.948-.017" transform="translate(-137.446 -173.14)" fill="#5a5858"/>
          <path id="Trazado_998756" data-name="Trazado 998756" d="M124.209,177.576a4.52,4.52,0,0,1-2.5-.125,1.617,1.617,0,0,1-.819-2.138c.5-1.407,3.993-1.468,4.569.042a1.622,1.622,0,0,1-1.249,2.221" transform="translate(-88.69 -127.958)" fill="#5a5858"/>
          <path id="Trazado_998757" data-name="Trazado 998757" d="M252.253,174.659a1.614,1.614,0,0,1,1.149,1.983c-.287,1.027-1.238,1.3-2.267,1.288-.987-.008-1.99-.124-2.315-.973a1.622,1.622,0,0,1,.888-2.264,5.063,5.063,0,0,1,2.544-.034" transform="translate(-182.619 -128.159)" fill="#5a5858"/>
          <path id="Trazado_998758" data-name="Trazado 998758" d="M189.953,108.11c.97.608,1.16,3.541-.071,4.325a1.6,1.6,0,0,1-1.865-.107c-.955-.74-.928-3.425,0-4.147a1.731,1.731,0,0,1,1.938-.071" transform="translate(-137.557 -79.201)" fill="#5a5858"/>
        </g>
      </g>
    </g>
    <path id="Trazado_997694" data-name="Trazado 997694" d="M471.93,424.642a3.111,3.111,0,1,1,3.115,3.124,3.113,3.113,0,0,1-3.115-3.124m-13.442,0a3.115,3.115,0,1,1,3.115,3.124,3.114,3.114,0,0,1-3.115-3.124m-13.44,0a3.115,3.115,0,1,1,3.115,3.124,3.118,3.118,0,0,1-3.115-3.124" transform="translate(868.572 8985.952) rotate(90)" fill="#5a5858"/>
    <g id="Grupo_1177672" data-name="Grupo 1177672" transform="translate(326.305 9552.477) rotate(90)">
      <path id="Trazado_997699" data-name="Trazado 997699" d="M0,24.325l1.629,1.6,7.17-7.29,6.879,7.274,1.661-1.571-8.507-9Z" transform="translate(0 -6.575)" fill="#636363"/>
      <path id="Trazado_997700" data-name="Trazado 997700" d="M8.832,0,0,8.979l1.629,1.6L8.8,3.293l6.879,7.273L17.34,9Z" fill="#636363"/>
    </g>
  </g>
</svg>
