<svg xmlns="http://www.w3.org/2000/svg" xmlns:xlink="http://www.w3.org/1999/xlink" width="250" height="250" viewBox="0 0 250 250">
  <defs>
    <clipPath id="clip-path">
      <rect id="Rectángulo_455577" data-name="Rectángulo 455577" width="138.727" height="123.29" fill="#674a11" stroke="#674a11" stroke-width="2"/>
    </clipPath>
  </defs>
  <g id="Grupo_1190424" data-name="Grupo 1190424" transform="translate(-383.746 -8400)">
    <circle id="Elipse_13609" data-name="Elipse 13609" cx="125" cy="125" r="125" transform="translate(383.746 8400)" fill="#fff"/>
    <g id="Grupo_1190851" data-name="Grupo 1190851" transform="translate(453.02 8463.355)">
      <g id="Grupo_1190850" data-name="Grupo 1190850" clip-path="url(#clip-path)">
        <path id="Trazado_998975" data-name="Trazado 998975" d="M57.868,85.051,48.656,89.2a2.489,2.489,0,0,1-2.062-.17,2.223,2.223,0,0,1-1-1.949l-.037-8.972c-.015-3.778,5.57-2.645,9.034-4.1L54.6,60.323c-1.9-1.208-5.919-1.157-6.06-3.542a2.3,2.3,0,0,1,1.311-2.341L92.8,38.067c1.21-.461,2.212.431,3.493.549l-.018-13.249-76.763,0-.009,93.255,76.96-.012.026-17.681a2.235,2.235,0,1,1,4.453-.252l-.005,20.247A2.4,2.4,0,0,1,98.4,123.29l-86.219-.113C5.22,123.167,0,117.076,0,110.333L.061,12.36A12.513,12.513,0,0,1,12.752.043L98.729,0a2.424,2.424,0,0,1,2.233,2.565l.009,38.062,36.038,13.649a2.211,2.211,0,0,1,1.717,2.143,2.187,2.187,0,0,1-1.641,2.208L93.624,73.068,68.517,64.875,68.5,74.518l25.145,10.42L118.7,74.586c.771-2.525-1.2-7.887,2.373-7.974a2.262,2.262,0,0,1,2.24,2.274l.031,7.282a2.555,2.555,0,0,1-1.744,2.251L93.618,89.84,66.245,78.569c-1.077-.443-2.023-1.024-2.107-2.3L64.011,63.5a30.586,30.586,0,0,0-4.717-1.582l-.1,21.135a2.246,2.246,0,0,1-1.322,1.994M96.476,20.833,96.449,4.415,12.624,4.44a8.078,8.078,0,0,0-8.106,7.74c-.252,3.787,2.587,8.567,7.156,8.572ZM14.83,118.317,14.866,25.4a16.616,16.616,0,0,1-10.538-2.79l.211,88.976c.012,5.027,6.107,8.093,10.29,6.734m114.781-62.05L93.647,42.632,57.6,56.3,93.771,68.386ZM50.085,83.453c1.537-.722,3.08-1.015,4.267-2.022.642-.544.2-1.885.171-2.754a19.633,19.633,0,0,0-4.553.931,9.85,9.85,0,0,0,.115,3.845" transform="translate(0)" fill="#674a11" stroke="#674a11" stroke-width="2"/>
        <path id="Trazado_998976" data-name="Trazado 998976" d="M220.034,204.473a3.879,3.879,0,0,1-.739,2.684,2.385,2.385,0,0,1-2.674.35c-.989-.513-1.09-1.695-1.128-2.806-.056-1.637.495-3.071,2.2-3.117,1.272-.034,2.372,1.018,2.342,2.89" transform="translate(-119.028 -111.346)" fill="#674a11" stroke="#674a11" stroke-width="2"/>
        <path id="Trazado_998977" data-name="Trazado 998977" d="M103.874,27.551H37.807a2.186,2.186,0,0,1-2.141-2.256A2.155,2.155,0,0,1,38.1,23.1l65.694,0a2.1,2.1,0,0,1,2.308,2.192,2.165,2.165,0,0,1-2.232,2.26" transform="translate(-19.7 -12.757)" fill="#674a11" stroke="#674a11" stroke-width="2"/>
      </g>
    </g>
  </g>
</svg>
