<svg xmlns="http://www.w3.org/2000/svg" xmlns:xlink="http://www.w3.org/1999/xlink" width="396" height="784" viewBox="0 0 396 784">
  <defs>
    <clipPath id="clip-path">
      <rect id="Rectángulo_455493" data-name="Rectángulo 455493" width="342" height="315" rx="30" transform="translate(408 3218.578)" fill="#fff8e1"/>
    </clipPath>
    <clipPath id="clip-path-2">
      <rect id="Rectángulo_455492" data-name="Rectángulo 455492" width="325.417" height="316.266" fill="none"/>
    </clipPath>
    <clipPath id="clip-path-4">
      <rect id="Rectángulo_455478" data-name="Rectángulo 455478" width="22.458" height="20.064" fill="none"/>
    </clipPath>
    <clipPath id="clip-path-5">
      <rect id="Rectángulo_455479" data-name="Rectángulo 455479" width="5.416" height="10.89" fill="none"/>
    </clipPath>
    <clipPath id="clip-path-7">
      <rect id="Rectángulo_455481" data-name="Rectángulo 455481" width="17.944" height="46.08" fill="none"/>
    </clipPath>
    <clipPath id="clip-path-8">
      <rect id="Rectángulo_455482" data-name="Rectángulo 455482" width="1.986" height="0.056" fill="none"/>
    </clipPath>
    <clipPath id="clip-path-9">
      <rect id="Rectángulo_455483" data-name="Rectángulo 455483" width="25.667" height="45.85" fill="none"/>
    </clipPath>
    <clipPath id="clip-path-10">
      <rect id="Rectángulo_455484" data-name="Rectángulo 455484" width="56.961" height="84.649" fill="none"/>
    </clipPath>
    <clipPath id="clip-path-11">
      <rect id="Rectángulo_455485" data-name="Rectángulo 455485" width="52.481" height="86.854" fill="none"/>
    </clipPath>
    <clipPath id="clip-path-12">
      <rect id="Rectángulo_455486" data-name="Rectángulo 455486" width="5.098" height="64.575" fill="none"/>
    </clipPath>
    <clipPath id="clip-path-14">
      <rect id="Rectángulo_455488" data-name="Rectángulo 455488" width="73.982" height="87.804" fill="none"/>
    </clipPath>
    <clipPath id="clip-path-15">
      <rect id="Rectángulo_455489" data-name="Rectángulo 455489" width="73.983" height="87.804" fill="none"/>
    </clipPath>
    <clipPath id="clip-path-16">
      <rect id="Rectángulo_455490" data-name="Rectángulo 455490" width="48.513" height="132.398" fill="none"/>
    </clipPath>
    <clipPath id="clip-path-17">
      <rect id="Rectángulo_455472" data-name="Rectángulo 455472" width="23.028" height="30.715" fill="#674a11"/>
    </clipPath>
    <clipPath id="clip-path-18">
      <rect id="Rectángulo_455473" data-name="Rectángulo 455473" width="29.845" height="17.482" fill="#ffdc6b"/>
    </clipPath>
  </defs>
  <g id="Grupo_1190966" data-name="Grupo 1190966" transform="translate(-13593 9392)">
    <rect id="Rectángulo_455474" data-name="Rectángulo 455474" width="396" height="784" rx="14" transform="translate(13593 -9392)" fill="#ffedb1"/>
    <rect id="Rectángulo_455477" data-name="Rectángulo 455477" width="355" height="328" rx="30" transform="translate(13614 -9354)" fill="#fff8e1"/>
    <rect id="Rectángulo_455499" data-name="Rectángulo 455499" width="355" height="359" rx="30" transform="translate(13614 -8988)" fill="#fff8e1"/>
    <g id="Enmascarar_grupo_1177438" data-name="Enmascarar grupo 1177438" transform="translate(13207 -12559.578)" clip-path="url(#clip-path)">
      <g id="Grupo_1190723" data-name="Grupo 1190723" transform="translate(423.916 3242.406)">
        <g id="Grupo_1190722" data-name="Grupo 1190722" clip-path="url(#clip-path-2)">
          <g id="Grupo_1190721" data-name="Grupo 1190721">
            <g id="Grupo_1190720" data-name="Grupo 1190720" clip-path="url(#clip-path-2)">
              <path id="Trazado_998571" data-name="Trazado 998571" d="M349.661,254.442l2.726-14.089a3.284,3.284,0,0,1,3.224-2.661h.061a3.284,3.284,0,0,1,3.284,3.284V251.21Z" transform="translate(-87.164 -59.252)" fill="#e28b7d"/>
              <path id="Trazado_998572" data-name="Trazado 998572" d="M315.7,258.389s7.362-6.242,11.868-7.931c2.036-2.86,3.388-4.836,4.285-6.2a3.736,3.736,0,0,1,4.929-1.209l.053.03a3.741,3.741,0,0,1,1.917,3.612l-.931,10.271-22.567,1.872" transform="translate(-78.588 -60.471)" fill="#e28b7d"/>
              <path id="Trazado_998573" data-name="Trazado 998573" d="M64.9,254.442l-2.726-14.089a3.284,3.284,0,0,0-3.224-2.661h-.061a3.284,3.284,0,0,0-3.284,3.284V251.21Z" transform="translate(-13.862 -59.252)" fill="#e28b7d"/>
              <path id="Trazado_998574" data-name="Trazado 998574" d="M94.141,258.389s-7.362-6.242-11.868-7.931c-2.036-2.86-3.388-4.836-4.285-6.2a3.736,3.736,0,0,0-4.929-1.209l-.053.03a3.741,3.741,0,0,0-1.917,3.612l.931,10.271,22.567,1.872" transform="translate(-17.717 -60.471)" fill="#e28b7d"/>
              <path id="Trazado_998575" data-name="Trazado 998575" d="M127.2,216.439s-20.209,9.858-21.194,22.673-2.464,35.487-2.464,35.487L88.714,254.163a17.406,17.406,0,0,0-11.725-7.06c-4.2-.571-9.082-.2-12.386,3.346L52.281,245.52,49.348,237.7a4.108,4.108,0,0,0-5.447-2.339l-.074.032a4.108,4.108,0,0,0-2.338,4.945l4.877,16.519s5.422,9.535,26.616,10.436c12.457,21.853,21.758,37.671,28.64,49.073a15.8,15.8,0,0,0,28.539-3.236l1.968-6Z" transform="translate(-10.3 -53.954)" fill="#ffa08c"/>
              <line id="Línea_3291" data-name="Línea 3291" x2="16.265" y2="22.18" transform="translate(93.24 220.646)" fill="none" stroke="#c43627" stroke-miterlimit="10" stroke-width="0.985"/>
              <path id="Trazado_998576" data-name="Trazado 998576" d="M125.226,263.036c.507-7.5,1.17-17.107,1.7-23.924.986-12.815,21.194-22.673,21.194-22.673l2.812,51.737c-5.814-2.373-16.226-5.865-25.7-5.139" transform="translate(-31.216 -53.954)" fill="#c43627"/>
              <path id="Trazado_998577" data-name="Trazado 998577" d="M260.3,216.439s20.209,9.858,21.194,22.673,2.464,35.487,2.464,35.487l14.827-20.437a17.406,17.406,0,0,1,11.725-7.06c4.2-.571,9.082-.2,12.386,3.346l12.322-4.929,2.932-7.819a4.108,4.108,0,0,1,5.447-2.339l.074.032a4.108,4.108,0,0,1,2.338,4.945l-4.877,16.519s-5.422,9.535-26.616,10.436c-12.457,21.853-21.758,37.671-28.64,49.073a15.8,15.8,0,0,1-28.539-3.236l-1.968-6Z" transform="translate(-63.659 -53.954)" fill="#ffa08c"/>
              <line id="Línea_3292" data-name="Línea 3292" x1="16.265" y2="22.18" transform="translate(204.034 220.646)" fill="none" stroke="#c43627" stroke-miterlimit="10" stroke-width="0.985"/>
              <path id="Trazado_998578" data-name="Trazado 998578" d="M283.891,263.036c-.507-7.5-1.17-17.107-1.7-23.924C281.21,226.3,261,216.439,261,216.439l-2.812,51.737c5.814-2.373,16.226-5.865,25.7-5.139" transform="translate(-64.362 -53.954)" fill="#c43627"/>
              <path id="Trazado_998579" data-name="Trazado 998579" d="M205.224,194.773l-9.638,10.351-9.638-10.351-30.233,16.265V357.919s14.68,6.9,39.871,6.9,39.871-6.9,39.871-6.9V211.038Z" transform="translate(-38.817 -48.553)" fill="#ed4e38"/>
              <path id="Trazado_998580" data-name="Trazado 998580" d="M208.239,194.773,198.6,205.124l-9.638-10.351-21.155,11.382c3.147,6.239,11.978,19.3,30.793,19.3,17.314,0,25.938-12.484,29.555-19.967Z" transform="translate(-41.831 -48.553)" fill="#a02920"/>
              <path id="Trazado_998581" data-name="Trazado 998581" d="M225.15,202.833l-14.981-8.06-9.638,10.351-9.639-10.351-15.344,8.256c6.594,9.229,15.246,14.84,24.73,14.84,9.551,0,18.261-5.687,24.871-15.036" transform="translate(-43.761 -48.553)" fill="#ffa08c"/>
              <path id="Trazado_998582" data-name="Trazado 998582" d="M187.52,146.714l-1.763-17.561,9.31.061-2.131,18.832Z" transform="translate(-46.306 -32.195)" fill="#7a150a"/>
              <path id="Trazado_998583" data-name="Trazado 998583" d="M225.171,143.5l1.253-11.288a14.355,14.355,0,0,0-14.267-15.939h-.162l4.215,19.843,5.959,9.687Z" transform="translate(-52.846 -28.986)" fill="#7a150a"/>
              <path id="Trazado_998584" data-name="Trazado 998584" d="M187.158,131.4s-10.583-8.54-10.113-21.691,6.656-10.8,13.192-3.523c3.013,2.114,6.525,2.114,2.655-1.409s5.983-2.97,9.98,1.7c5.807,6.791,15.166,5.7,9.817,20.55s-25.531,4.368-25.531,4.368" transform="translate(-44.13 -24.998)" fill="#5d1408"/>
              <path id="Trazado_998585" data-name="Trazado 998585" d="M216.305,196.7V175.009l-11.229,2.652-11.229-2.652V196.7s-.116,1.938-.03,5.291c.373,14.577,22.145,14.577,22.518,0,.086-3.353-.03-5.291-.03-5.291" transform="translate(-48.307 -43.626)" fill="#ffa08c"/>
              <g id="Grupo_1190681" data-name="Grupo 1190681" transform="translate(145.541 131.383)" style="mix-blend-mode: multiply;isolation: isolate">
                <g id="Grupo_1190680" data-name="Grupo 1190680">
                  <g id="Grupo_1190679" data-name="Grupo 1190679" clip-path="url(#clip-path-4)">
                    <path id="Trazado_998586" data-name="Trazado 998586" d="M193.868,175.009v20.064c9.489-2.141,19.465-10.482,22.458-13.138v-6.927L205.1,177.661Z" transform="translate(-193.868 -175.009)" fill="#6d3e3b"/>
                  </g>
                </g>
              </g>
              <path id="Trazado_998587" data-name="Trazado 998587" d="M185.833,158.025c.488,2.99,2.447,5.159,4.376,4.844s3.1-2.995,2.607-5.985-2.447-5.16-4.376-4.844-3.1,2.994-2.607,5.985" transform="translate(-46.297 -37.893)" fill="#ffa08c"/>
              <path id="Trazado_998588" data-name="Trazado 998588" d="M191.994,159.588c-.489-2.991-2.447-5.16-4.376-4.844a2.786,2.786,0,0,0-1.861,1.341c.162-2.131,1.2-3.8,2.692-4.045,1.929-.315,3.888,1.854,4.376,4.844a6.753,6.753,0,0,1-.746,4.644,8.205,8.205,0,0,0-.085-1.94" transform="translate(-46.306 -37.893)" fill="#ffa08c"/>
              <g id="Grupo_1190684" data-name="Grupo 1190684" transform="translate(141.214 114.117)" style="mix-blend-mode: multiply;isolation: isolate">
                <g id="Grupo_1190683" data-name="Grupo 1190683">
                  <g id="Grupo_1190682" data-name="Grupo 1190682" clip-path="url(#clip-path-5)">
                    <path id="Trazado_998589" data-name="Trazado 998589" d="M188.1,152.412a2.389,2.389,0,0,1,.929-.372c1.929-.315,3.888,1.854,4.376,4.844s-.679,5.67-2.607,5.985a2.612,2.612,0,0,1-1.8-.4q-.437-4.392-.9-10.057" transform="translate(-188.105 -152.01)" fill="#af7579"/>
                  </g>
                </g>
              </g>
              <path id="Trazado_998590" data-name="Trazado 998590" d="M229.425,158.025c-.489,2.99-2.447,5.159-4.376,4.844s-3.1-2.995-2.607-5.985,2.447-5.16,4.376-4.844,3.1,2.994,2.607,5.985" transform="translate(-55.423 -37.893)" fill="#ffa08c"/>
              <path id="Trazado_998591" data-name="Trazado 998591" d="M223.273,159.588c.489-2.991,2.447-5.16,4.376-4.844a2.786,2.786,0,0,1,1.861,1.341c-.163-2.131-1.2-3.8-2.692-4.045-1.929-.315-3.888,1.854-4.376,4.844a6.753,6.753,0,0,0,.746,4.644,8.2,8.2,0,0,1,.085-1.94" transform="translate(-55.423 -37.893)" fill="#ffa08c"/>
              <g id="Grupo_1190687" data-name="Grupo 1190687" transform="translate(166.908 114.117)" style="mix-blend-mode: multiply;isolation: isolate">
                <g id="Grupo_1190686" data-name="Grupo 1190686">
                  <g id="Grupo_1190685" data-name="Grupo 1190685" clip-path="url(#clip-path-5)">
                    <path id="Trazado_998592" data-name="Trazado 998592" d="M227.747,152.412a2.389,2.389,0,0,0-.929-.372c-1.929-.315-3.888,1.854-4.376,4.844s.679,5.67,2.607,5.985a2.61,2.61,0,0,0,1.8-.4q.438-4.392.9-10.057" transform="translate(-222.331 -152.01)" fill="#af7579"/>
                  </g>
                </g>
              </g>
              <path id="Trazado_998593" data-name="Trazado 998593" d="M213.542,127.062a40.939,40.939,0,0,0-9.555-.633,40.939,40.939,0,0,0-9.555.633,6.193,6.193,0,0,0-5.007,6.475c.683,11.331,1.495,20.161,2.172,26.39a14.151,14.151,0,0,0,12.175,12.5l.215.029.215-.029a14.151,14.151,0,0,0,12.175-12.5c.677-6.229,1.489-15.059,2.171-26.39a6.192,6.192,0,0,0-5.006-6.475" transform="translate(-47.217 -31.502)" fill="#ffa08c"/>
              <g id="Grupo_1190690" data-name="Grupo 1190690" transform="translate(153.398 94.871)" opacity="0.49">
                <g id="Grupo_1190689" data-name="Grupo 1190689">
                  <g id="Grupo_1190688" data-name="Grupo 1190688" clip-path="url(#clip-path-7)">
                    <path id="Trazado_998594" data-name="Trazado 998594" d="M204.935,126.429s.509-.039,1.386-.052c-.535-.008-1.209-.006-1.986.02.387.015.6.032.6.032" transform="translate(-204.335 -126.374)" fill="#fff"/>
                    <path id="Trazado_998595" data-name="Trazado 998595" d="M217.921,127.062a42.138,42.138,0,0,0-8.955-.664,41.814,41.814,0,0,1,6.184.664,6.193,6.193,0,0,1,5.007,6.475c-.683,11.331-1.495,20.161-2.172,26.39a14.151,14.151,0,0,1-11,12.289c.384.085.775.155,1.171.209l.215.029.215-.029a14.151,14.151,0,0,0,12.175-12.5c.677-6.229,1.489-15.059,2.171-26.39a6.192,6.192,0,0,0-5.006-6.475" transform="translate(-204.994 -126.374)" fill="#fff"/>
                  </g>
                </g>
              </g>
              <g id="Grupo_1190693" data-name="Grupo 1190693" transform="translate(158.156 94.871)" style="mix-blend-mode: multiply;isolation: isolate">
                <g id="Grupo_1190692" data-name="Grupo 1190692">
                  <g id="Grupo_1190691" data-name="Grupo 1190691" clip-path="url(#clip-path-8)">
                    <path id="Trazado_998596" data-name="Trazado 998596" d="M212.058,126.429s-.509-.039-1.386-.052c.535-.008,1.209-.006,1.986.02-.387.015-.6.032-.6.032" transform="translate(-210.672 -126.374)" fill="#af7579"/>
                  </g>
                </g>
              </g>
              <path id="Trazado_998597" data-name="Trazado 998597" d="M213.4,150.865a4.835,4.835,0,0,1,4.633-3.687c3.781,0,4.064,2.363,4.064,2.363a8.417,8.417,0,0,1-8.7,1.324" transform="translate(-53.195 -36.689)" fill="#f8faec"/>
              <path id="Trazado_998598" data-name="Trazado 998598" d="M215.493,140.5a15.758,15.758,0,0,1,5.419-.336,1.457,1.457,0,0,0,1.606-1.444v-.029a1.453,1.453,0,0,0-1.261-1.441,25.02,25.02,0,0,0-6.4-.126,1.692,1.692,0,0,0-1.459,1.669v.08a1.678,1.678,0,0,0,2.1,1.627" transform="translate(-53.195 -34.143)" fill="#862837"/>
              <path id="Trazado_998599" data-name="Trazado 998599" d="M201.368,150.865a4.835,4.835,0,0,0-4.632-3.687c-3.782,0-4.065,2.363-4.065,2.363a8.417,8.417,0,0,0,8.7,1.324" transform="translate(-48.029 -36.689)" fill="#f8faec"/>
              <path id="Trazado_998600" data-name="Trazado 998600" d="M199.13,140.5a15.755,15.755,0,0,0-5.418-.336,1.458,1.458,0,0,1-1.607-1.444v-.029a1.454,1.454,0,0,1,1.261-1.441,25.019,25.019,0,0,1,6.4-.126,1.692,1.692,0,0,1,1.459,1.669v.08a1.678,1.678,0,0,1-2.1,1.627" transform="translate(-47.888 -34.143)" fill="#862837"/>
              <path id="Trazado_998601" data-name="Trazado 998601" d="M213.4,150.865s1.442-3.687,4.633-3.687a4.139,4.139,0,0,1,4.064,2.363" transform="translate(-53.195 -36.689)" fill="none" stroke="#5d1408" stroke-linecap="round" stroke-miterlimit="10" stroke-width="1.204"/>
              <path id="Trazado_998602" data-name="Trazado 998602" d="M201.691,150.865s-1.443-3.687-4.632-3.687a4.139,4.139,0,0,0-4.065,2.363" transform="translate(-48.11 -36.689)" fill="none" stroke="#5d1408" stroke-linecap="round" stroke-miterlimit="10" stroke-width="1.204"/>
              <path id="Trazado_998603" data-name="Trazado 998603" d="M206.812,155.612l-.505,6.366,3.277-1.334" transform="translate(-51.428 -38.791)" fill="none" stroke="#5d1408" stroke-linecap="round" stroke-miterlimit="10" stroke-width="1.204"/>
              <path id="Trazado_998604" data-name="Trazado 998604" d="M204.335,169.085a55.661,55.661,0,0,0,7.539-.616" transform="translate(-50.937 -41.996)" fill="none" stroke="#5d1408" stroke-linecap="round" stroke-miterlimit="10" stroke-width="1.204"/>
              <path id="Trazado_998605" data-name="Trazado 998605" d="M214.9,148.736a3.251,3.251,0,0,0,2.875,2.728,8.332,8.332,0,0,0,1.875-.362,3.256,3.256,0,0,0,1.739-2.873c0-.1-.021-.2-.03-.3a5.069,5.069,0,0,0-2.956-.754,4.429,4.429,0,0,0-3.5,1.559" transform="translate(-53.57 -36.689)" fill="#5d1408"/>
              <path id="Trazado_998606" data-name="Trazado 998606" d="M200.534,148.736a3.251,3.251,0,0,1-2.874,2.728,8.332,8.332,0,0,1-1.875-.362,3.256,3.256,0,0,1-1.739-2.873c0-.1.021-.2.03-.3a5.069,5.069,0,0,1,2.956-.754,4.429,4.429,0,0,1,3.5,1.559" transform="translate(-48.372 -36.689)" fill="#5d1408"/>
              <g id="Grupo_1190696" data-name="Grupo 1190696" transform="translate(145.675 94.871)" opacity="0.22" style="mix-blend-mode: overlay;isolation: isolate">
                <g id="Grupo_1190695" data-name="Grupo 1190695">
                  <g id="Grupo_1190694" data-name="Grupo 1190694" clip-path="url(#clip-path-9)">
                    <path id="Trazado_998607" data-name="Trazado 998607" d="M214.7,127.062a40.939,40.939,0,0,0-9.555-.633,40.939,40.939,0,0,0-9.555.633,6.015,6.015,0,0,0-.942.261c-.958,9.9-2.6,39.8,11.837,44.9a14.149,14.149,0,0,0,11.05-12.3c.677-6.23,1.489-15.059,2.172-26.39a6.193,6.193,0,0,0-5.007-6.475" transform="translate(-194.047 -126.374)" fill="#fff"/>
                  </g>
                </g>
              </g>
              <g id="Grupo_1190699" data-name="Grupo 1190699" transform="translate(88.58 147.087)" opacity="0.41" style="mix-blend-mode: multiply;isolation: isolate">
                <g id="Grupo_1190698" data-name="Grupo 1190698">
                  <g id="Grupo_1190697" data-name="Grupo 1190697" clip-path="url(#clip-path-10)">
                    <path id="Trazado_998608" data-name="Trazado 998608" d="M117.995,285.357l0,0Z" transform="translate(-117.993 -218.22)" fill="#af7579"/>
                    <path id="Trazado_998609" data-name="Trazado 998609" d="M176.5,200.288l-.02-4.36-28.621,15.4S127.652,221.184,126.667,234c-.967,12.57-2.407,34.608-2.462,35.448l8.13,11.129s-1.831-41.648,1.538-49.623,42.63-30.665,42.63-30.665" transform="translate(-119.542 -195.928)" fill="#af7579"/>
                  </g>
                </g>
              </g>
              <g id="Grupo_1190702" data-name="Grupo 1190702" transform="translate(167.818 146.979)" opacity="0.6" style="mix-blend-mode: overlay;isolation: isolate">
                <g id="Grupo_1190701" data-name="Grupo 1190701">
                  <g id="Grupo_1190700" data-name="Grupo 1190700" clip-path="url(#clip-path-11)">
                    <path id="Trazado_998610" data-name="Trazado 998610" d="M276.024,269.451s-1.479-22.672-2.465-35.488-21.194-22.672-21.194-22.672l-28.822-15.507s36.7,25.977,38.86,31.462,3.95,55.393,3.95,55.393Z" transform="translate(-223.543 -195.784)" fill="#fff"/>
                  </g>
                </g>
              </g>
              <path id="Trazado_998611" data-name="Trazado 998611" d="M155.716,244.057v10.837c32.266,2,65.377.692,79.741-.075V244.251c-32.573,2.109-66.685.562-79.741-.194" transform="translate(-38.817 -60.839)" fill="#c43627"/>
              <path id="Trazado_998612" data-name="Trazado 998612" d="M155.716,280.392v10.837c32.266,2,65.377.692,79.741-.075V280.586c-32.573,2.109-66.685.562-79.741-.194" transform="translate(-38.817 -69.896)" fill="#c43627"/>
              <g id="Grupo_1190705" data-name="Grupo 1190705" transform="translate(196.64 203.888)" opacity="0.79" style="mix-blend-mode: multiply;isolation: isolate">
                <g id="Grupo_1190704" data-name="Grupo 1190704">
                  <g id="Grupo_1190703" data-name="Grupo 1190703" clip-path="url(#clip-path-12)">
                    <path id="Trazado_998613" data-name="Trazado 998613" d="M267.034,336.165l-5.1-64.575v60.63a15.406,15.406,0,0,0,5.1,3.944" transform="translate(-261.936 -271.59)" fill="#5d1408"/>
                  </g>
                </g>
              </g>
              <g id="Grupo_1190708" data-name="Grupo 1190708" transform="translate(111.801 203.888)" opacity="0.79" style="mix-blend-mode: multiply;isolation: isolate">
                <g id="Grupo_1190707" data-name="Grupo 1190707">
                  <g id="Grupo_1190706" data-name="Grupo 1190706" clip-path="url(#clip-path-12)">
                    <path id="Trazado_998614" data-name="Trazado 998614" d="M148.925,336.165l5.1-64.575v60.63a15.411,15.411,0,0,1-5.1,3.944" transform="translate(-148.925 -271.59)" fill="#5d1408"/>
                  </g>
                </g>
              </g>
              <g id="Grupo_1190711" data-name="Grupo 1190711" transform="translate(31.02 182.239)" opacity="0.41" style="mix-blend-mode: multiply;isolation: isolate">
                <g id="Grupo_1190710" data-name="Grupo 1190710">
                  <g id="Grupo_1190709" data-name="Grupo 1190709" clip-path="url(#clip-path-14)">
                    <path id="Trazado_998615" data-name="Trazado 998615" d="M115.3,330.556c-.723-21.447-35.527-64.175-35.527-64.175s-23.659-2.965-27.729-4.816c-2.966-1.348-7.3-12.731-9.439-18.812a4.1,4.1,0,0,0-1.119,4.144l4.877,16.519s5.422,9.535,26.616,10.436c12.457,21.853,21.758,37.672,28.64,49.072a15.541,15.541,0,0,0,13.681,7.632" transform="translate(-41.321 -242.753)" fill="#af7579"/>
                  </g>
                </g>
              </g>
              <g id="Grupo_1190714" data-name="Grupo 1190714" transform="translate(208.536 182.239)" opacity="0.33" style="mix-blend-mode: overlay;isolation: isolate">
                <g id="Grupo_1190713" data-name="Grupo 1190713">
                  <g id="Grupo_1190712" data-name="Grupo 1190712" clip-path="url(#clip-path-15)">
                    <path id="Trazado_998616" data-name="Trazado 998616" d="M277.782,330.556c.723-21.447,35.527-64.175,35.527-64.175s23.659-2.965,27.729-4.816c2.966-1.348,7.3-12.731,9.439-18.812A4.1,4.1,0,0,1,351.6,246.9l-4.877,16.519s-5.422,9.535-26.616,10.436c-12.457,21.853-21.758,37.672-28.64,49.072a15.541,15.541,0,0,1-13.681,7.632" transform="translate(-277.782 -242.753)" fill="#fff"/>
                  </g>
                </g>
              </g>
              <g id="Grupo_1190717" data-name="Grupo 1190717" transform="translate(148.127 183.413)" opacity="0.6" style="mix-blend-mode: overlay;isolation: isolate">
                <g id="Grupo_1190716" data-name="Grupo 1190716">
                  <g id="Grupo_1190715" data-name="Grupo 1190715" clip-path="url(#clip-path-16)">
                    <path id="Trazado_998617" data-name="Trazado 998617" d="M208.334,304.624c3.483-16.175-31.981,35.654,8.67,72.089,18.381-1.537,28.822-6.445,28.822-6.445V244.316s-8.208,60.143-25.3,79.987-15.677-3.5-12.194-19.679" transform="translate(-197.314 -244.316)" fill="#fff"/>
                  </g>
                </g>
              </g>
              <path id="Trazado_998618" data-name="Trazado 998618" d="M340.377,200.651c0,8.283-10.809,15-24.142,15s-24.142-6.714-24.142-15,10.809-15,24.142-15,24.142,6.714,24.142,15" transform="translate(-72.813 -46.28)" fill="#fc9d83"/>
              <path id="Trazado_998619" data-name="Trazado 998619" d="M307.7,217.683,298.759,230.9l20.524-10.235Z" transform="translate(-74.475 -54.264)" fill="#fc9d83"/>
              <path id="Trazado_998620" data-name="Trazado 998620" d="M417.441,200.336c0,8.283-10.809,15-24.142,15s-24.142-6.714-24.142-15,10.809-15,24.142-15,24.142,6.714,24.142,15" transform="translate(-92.024 -46.202)" fill="#ffedb1"/>
              <path id="Trazado_998621" data-name="Trazado 998621" d="M417.441,200.336c0,8.283-10.809,15-24.142,15s-24.142-6.714-24.142-15,10.809-15,24.142-15,24.142,6.714,24.142,15" transform="translate(-169.015 -97.558)" fill="#ffedb1"/>
              <path id="Trazado_998622" data-name="Trazado 998622" d="M384.767,217.368l-8.945,13.216,20.523-10.235Z" transform="translate(-93.685 -54.186)" fill="#ffedb1"/>
              <path id="Trazado_998623" data-name="Trazado 998623" d="M384.767,217.368l-8.945,13.216,20.523-10.235Z" transform="translate(-170.676 -105.542)" fill="#ffedb1"/>
              <g id="Grupo_1190718" data-name="Grupo 1190718" transform="translate(62.171 113.08)">
                <path id="Trazado_998624" data-name="Trazado 998624" d="M369.158,200.336c0,8.283,10.809,15,24.142,15s24.142-6.714,24.142-15-10.809-15-24.142-15-24.142,6.714-24.142,15" transform="translate(-369.158 -185.34)" fill="#ffedb1"/>
                <path id="Trazado_998625" data-name="Trazado 998625" d="M387.4,217.368l8.945,13.216-20.523-10.235Z" transform="translate(-353.065 -193.324)" fill="#ffedb1"/>
              </g>
              <g id="Grupo_1190719" data-name="Grupo 1190719" transform="translate(91.752 36.331)">
                <path id="Trazado_998626" data-name="Trazado 998626" d="M369.158,200.336c0,8.283,10.809,15,24.142,15s24.142-6.714,24.142-15-10.809-15-24.142-15-24.142,6.714-24.142,15" transform="translate(-369.158 -185.34)" fill="#c1e4dd"/>
                <path id="Trazado_998627" data-name="Trazado 998627" d="M387.4,217.368l8.945,13.216-20.523-10.235Z" transform="translate(-353.065 -193.324)" fill="#c1e4dd"/>
              </g>
              <path id="Trazado_998628" data-name="Trazado 998628" d="M1.121,76.736c0,10.354,13.511,18.747,30.179,18.747S61.479,87.09,61.479,76.736,47.967,57.989,31.3,57.989,1.121,66.383,1.121,76.736" transform="translate(-0.279 -14.456)" fill="#fed2c7"/>
              <path id="Trazado_998629" data-name="Trazado 998629" d="M53.489,98.027l11.182,16.521-25.657-12.8Z" transform="translate(-9.725 -24.436)" fill="#fed2c7"/>
              <path id="Trazado_998630" data-name="Trazado 998630" d="M165.335,24.377c0,13.463,17.57,24.377,39.242,24.377S243.82,37.839,243.82,24.377,226.251,0,204.577,0s-39.242,10.914-39.242,24.377" transform="translate(-41.215)" fill="#ffdc6b"/>
              <path id="Trazado_998631" data-name="Trazado 998631" d="M233.431,52.062,214.828,79.8l-.218-22.894Z" transform="translate(-53.498 -12.978)" fill="#ffdc6b"/>
              <path id="Trazado_998632" data-name="Trazado 998632" d="M83.311,34.233c0,9.169,11.965,16.6,26.725,16.6s26.726-7.433,26.726-16.6-11.966-16.6-26.726-16.6-26.725,7.433-26.725,16.6" transform="translate(-20.768 -4.395)" fill="#743320"/>
              <path id="Trazado_998633" data-name="Trazado 998633" d="M129.685,53.088l9.9,14.63-22.72-11.331Z" transform="translate(-29.133 -13.234)" fill="#743320"/>
              <path id="Trazado_998634" data-name="Trazado 998634" d="M0,175.355c0,11.063,14.436,20.03,32.245,20.03s32.246-8.967,32.246-20.03-14.437-20.03-32.246-20.03S0,164.292,0,175.355" transform="translate(0 -38.719)" fill="#8dcdc1"/>
              <path id="Trazado_998635" data-name="Trazado 998635" d="M55.953,198.1,67.9,215.755,40.487,202.084Z" transform="translate(-10.093 -49.383)" fill="#8dcdc1"/>
              <path id="Trazado_998636" data-name="Trazado 998636" d="M304.949,45.644c0,4.762-6.215,8.623-13.882,8.623s-13.881-3.861-13.881-8.623,6.215-8.623,13.881-8.623,13.882,3.861,13.882,8.623" transform="translate(-103.211 22.006)" fill="#f7e0db"/>
              <path id="Trazado_998637" data-name="Trazado 998637" d="M279.607,72.477l-11.6,16.413,18.257-14.7Z" transform="translate(-97.612 0.376)" fill="#f7e0db"/>
              <path id="Trazado_998638" data-name="Trazado 998638" d="M379.16,115.508c0,13.463-17.57,24.377-39.242,24.377s-39.243-10.914-39.243-24.377,17.57-24.377,39.243-24.377,39.242,10.914,39.242,24.377" transform="translate(-74.952 -22.717)" fill="#fdb03e"/>
              <path id="Trazado_998639" data-name="Trazado 998639" d="M326.048,143.193l-14.54,21.482,33.361-16.637Z" transform="translate(-77.653 -35.695)" fill="#fdb03e"/>
              <path id="Trazado_998640" data-name="Trazado 998640" d="M64.594,119.983c0,13.463,17.569,24.377,39.242,24.377s39.243-10.914,39.243-24.377-17.57-24.377-39.243-24.377S64.594,106.52,64.594,119.983" transform="translate(-16.102 -23.833)" fill="#fc9d83"/>
              <path id="Trazado_998641" data-name="Trazado 998641" d="M132.69,147.668l14.54,21.482-33.361-16.637Z" transform="translate(-28.385 -36.811)" fill="#fc9d83"/>
              <path id="Trazado_998642" data-name="Trazado 998642" d="M290.339,72.477l-22.331,31.6,35.149-28.3Z" transform="translate(-66.809 -18.067)" fill="#fed2c7"/>
              <path id="Trazado_998643" data-name="Trazado 998643" d="M330.637,53.622c0,9.169-11.965,16.6-26.726,16.6s-26.725-7.433-26.725-16.6,11.966-16.6,26.725-16.6,26.726,7.433,26.726,16.6" transform="translate(-69.097 -9.229)" fill="#fed2c7"/>
            </g>
          </g>
        </g>
      </g>
    </g>
    <rect id="Rectángulo_455138" data-name="Rectángulo 455138" width="228" height="37" rx="18.5" transform="translate(13677 -9372)" fill="#674a11"/>
    <path id="Trazado_999206" data-name="Trazado 999206" d="M8.294,16h5.288v2H5.8V5.914h2.49Zm10.691,2.167a4.409,4.409,0,0,1-3.217-1.212,4.308,4.308,0,0,1-1.241-3.229v-.232a5.426,5.426,0,0,1,.523-2.42,3.838,3.838,0,0,1,1.482-1.644,4.159,4.159,0,0,1,2.187-.577,3.727,3.727,0,0,1,2.9,1.162,4.722,4.722,0,0,1,1.058,3.3v.979H16.96a2.229,2.229,0,0,0,.7,1.411,2.12,2.12,0,0,0,1.482.531,2.589,2.589,0,0,0,2.167-1l1.179,1.32a3.6,3.6,0,0,1-1.461,1.191A4.793,4.793,0,0,1,18.986,18.166Zm-.274-7.379a1.5,1.5,0,0,0-1.158.484,2.5,2.5,0,0,0-.569,1.384h3.337v-.192a1.786,1.786,0,0,0-.432-1.238A1.547,1.547,0,0,0,18.712,10.787Zm7.537-1.768.075,1.038a3.136,3.136,0,0,1,2.582-1.2,2.606,2.606,0,0,1,2.125.838,3.912,3.912,0,0,1,.714,2.507V18h-2.4V12.256a1.556,1.556,0,0,0-.332-1.108,1.486,1.486,0,0,0-1.1-.344,1.65,1.65,0,0,0-1.519.863V18h-2.4V9.019Zm6.964,4.424a5.264,5.264,0,0,1,.984-3.329,3.187,3.187,0,0,1,2.652-1.262,2.8,2.8,0,0,1,2.3,1.013l.1-.847h2.175V17.7a3.839,3.839,0,0,1-.535,2.05,3.439,3.439,0,0,1-1.507,1.328,5.3,5.3,0,0,1-2.274.457,4.925,4.925,0,0,1-1.926-.394,3.418,3.418,0,0,1-1.419-1.017l1.063-1.461a2.81,2.81,0,0,0,2.175,1,2.057,2.057,0,0,0,1.486-.51,1.915,1.915,0,0,0,.531-1.448v-.481a2.775,2.775,0,0,1-2.183.938A3.179,3.179,0,0,1,34.214,16.9a5.262,5.262,0,0,1-1-3.358Zm2.4.179a3.278,3.278,0,0,0,.49,1.916,1.558,1.558,0,0,0,1.345.694,1.666,1.666,0,0,0,1.569-.823V11.626a1.662,1.662,0,0,0-1.552-.823,1.568,1.568,0,0,0-1.357.707A3.694,3.694,0,0,0,35.612,13.621Zm13.032,3.465a3.008,3.008,0,0,1-2.457,1.079,2.837,2.837,0,0,1-2.2-.83,3.543,3.543,0,0,1-.776-2.432V9.019h2.4v5.809q0,1.4,1.278,1.4a1.732,1.732,0,0,0,1.677-.848V9.019h2.407V18H48.711ZM57.983,18a2.664,2.664,0,0,1-.241-.805,2.9,2.9,0,0,1-2.266.971,3.189,3.189,0,0,1-2.187-.764,2.456,2.456,0,0,1-.867-1.926,2.538,2.538,0,0,1,1.058-2.191,5.222,5.222,0,0,1,3.059-.772h1.1V12a1.48,1.48,0,0,0-.32-1,1.257,1.257,0,0,0-1.009-.374,1.429,1.429,0,0,0-.95.291.987.987,0,0,0-.344.8h-2.4a2.41,2.41,0,0,1,.481-1.444A3.182,3.182,0,0,1,54.463,9.23a4.961,4.961,0,0,1,1.976-.378,3.92,3.92,0,0,1,2.635.834,2.918,2.918,0,0,1,.975,2.345v3.893a4.294,4.294,0,0,0,.357,1.934V18ZM56,16.332a2.066,2.066,0,0,0,.979-.237,1.554,1.554,0,0,0,.664-.635V13.916h-.9q-1.8,0-1.917,1.245l-.008.141a.96.96,0,0,0,.315.739A1.225,1.225,0,0,0,56,16.332Zm8.434-7.313V18.49a3.213,3.213,0,0,1-.789,2.312,3,3,0,0,1-2.274.826,4.878,4.878,0,0,1-1.187-.141v-1.9a4.5,4.5,0,0,0,.755.075q1.087,0,1.087-1.154V9.019Zm-2.6-2.324a1.181,1.181,0,0,1,.361-.888,1.562,1.562,0,0,1,1.967,0,1.181,1.181,0,0,1,.361.888,1.178,1.178,0,0,1-.369.9,1.539,1.539,0,0,1-1.951,0A1.178,1.178,0,0,1,61.834,6.694Zm8.608,11.472a4.409,4.409,0,0,1-3.217-1.212,4.308,4.308,0,0,1-1.241-3.229v-.232a5.426,5.426,0,0,1,.523-2.42A3.838,3.838,0,0,1,67.99,9.429a4.159,4.159,0,0,1,2.187-.577,3.727,3.727,0,0,1,2.9,1.162,4.722,4.722,0,0,1,1.058,3.3v.979H68.417a2.229,2.229,0,0,0,.7,1.411,2.12,2.12,0,0,0,1.482.531,2.589,2.589,0,0,0,2.167-1l1.179,1.32a3.6,3.6,0,0,1-1.461,1.191A4.793,4.793,0,0,1,70.442,18.166Zm-.274-7.379a1.5,1.5,0,0,0-1.158.484,2.5,2.5,0,0,0-.569,1.384h3.337v-.192a1.786,1.786,0,0,0-.432-1.238A1.547,1.547,0,0,0,70.168,10.787ZM81.939,9.019l.075,1.038a3.136,3.136,0,0,1,2.582-1.2,2.606,2.606,0,0,1,2.125.838,3.912,3.912,0,0,1,.714,2.507V18h-2.4V12.256a1.556,1.556,0,0,0-.332-1.108,1.486,1.486,0,0,0-1.1-.344,1.65,1.65,0,0,0-1.519.863V18h-2.4V9.019ZM94.457,18a2.664,2.664,0,0,1-.241-.805,2.9,2.9,0,0,1-2.266.971,3.189,3.189,0,0,1-2.187-.764,2.456,2.456,0,0,1-.867-1.926,2.538,2.538,0,0,1,1.058-2.191,5.222,5.222,0,0,1,3.059-.772h1.1V12a1.48,1.48,0,0,0-.32-1,1.257,1.257,0,0,0-1.009-.374,1.429,1.429,0,0,0-.95.291.987.987,0,0,0-.344.8h-2.4a2.41,2.41,0,0,1,.481-1.444A3.182,3.182,0,0,1,90.937,9.23a4.961,4.961,0,0,1,1.976-.378,3.92,3.92,0,0,1,2.635.834,2.918,2.918,0,0,1,.975,2.345v3.893a4.294,4.294,0,0,0,.357,1.934V18Zm-1.984-1.668a2.066,2.066,0,0,0,.979-.237,1.554,1.554,0,0,0,.664-.635V13.916h-.9q-1.8,0-1.917,1.245l-.008.141a.96.96,0,0,0,.315.739A1.225,1.225,0,0,0,92.473,16.332Zm8.766-9.521V9.019h1.536v1.76h-1.536v4.482a1.07,1.07,0,0,0,.191.714.959.959,0,0,0,.73.216,3.826,3.826,0,0,0,.706-.058V17.95a4.938,4.938,0,0,1-1.453.216,2.29,2.29,0,0,1-2.573-2.548V10.778H97.528V9.019h1.312V6.811Zm8.251,10.276a3.008,3.008,0,0,1-2.457,1.079,2.837,2.837,0,0,1-2.2-.83,3.543,3.543,0,0,1-.776-2.432V9.019h2.4v5.809q0,1.4,1.278,1.4a1.732,1.732,0,0,0,1.677-.848V9.019h2.407V18h-2.258Zm9.181-5.819a6.517,6.517,0,0,0-.863-.066,1.757,1.757,0,0,0-1.785.921V18h-2.4V9.019h2.266l.066,1.071a2.223,2.223,0,0,1,2-1.237,2.514,2.514,0,0,1,.747.108ZM124.779,18a2.664,2.664,0,0,1-.241-.805,2.9,2.9,0,0,1-2.266.971,3.189,3.189,0,0,1-2.187-.764,2.456,2.456,0,0,1-.867-1.926,2.538,2.538,0,0,1,1.058-2.191,5.222,5.222,0,0,1,3.059-.772h1.1V12a1.48,1.48,0,0,0-.32-1,1.257,1.257,0,0,0-1.009-.374,1.429,1.429,0,0,0-.95.291.987.987,0,0,0-.344.8h-2.4a2.41,2.41,0,0,1,.481-1.444A3.182,3.182,0,0,1,121.26,9.23a4.961,4.961,0,0,1,1.976-.378,3.92,3.92,0,0,1,2.635.834,2.918,2.918,0,0,1,.975,2.345v3.893a4.294,4.294,0,0,0,.357,1.934V18ZM122.8,16.332a2.066,2.066,0,0,0,.979-.237,1.554,1.554,0,0,0,.664-.635V13.916h-.9q-1.8,0-1.917,1.245l-.008.141a.96.96,0,0,0,.315.739A1.225,1.225,0,0,0,122.8,16.332ZM131.221,18h-2.407V5.25h2.407Z" transform="translate(13723 -9365)" fill="#fff"/>
    <rect id="Rectángulo_455138-2" data-name="Rectángulo 455138" width="228" height="37" rx="18.5" transform="translate(13677 -9006)" fill="#674a11"/>
    <path id="Trazado_999205" data-name="Trazado 999205" d="M6.992,16H12.28v2H4.5V5.914h2.49Zm10.691,2.167a4.409,4.409,0,0,1-3.217-1.212,4.308,4.308,0,0,1-1.241-3.229v-.232a5.426,5.426,0,0,1,.523-2.42,3.838,3.838,0,0,1,1.482-1.644,4.159,4.159,0,0,1,2.187-.577,3.727,3.727,0,0,1,2.9,1.162,4.722,4.722,0,0,1,1.058,3.3v.979H15.658a2.229,2.229,0,0,0,.7,1.411,2.12,2.12,0,0,0,1.482.531,2.589,2.589,0,0,0,2.167-1l1.179,1.32a3.6,3.6,0,0,1-1.461,1.191A4.793,4.793,0,0,1,17.684,18.166Zm-.274-7.379a1.5,1.5,0,0,0-1.158.484,2.5,2.5,0,0,0-.569,1.384H19.02v-.192a1.786,1.786,0,0,0-.432-1.238A1.547,1.547,0,0,0,17.41,10.787Zm7.537-1.768.075,1.038a3.136,3.136,0,0,1,2.582-1.2,2.606,2.606,0,0,1,2.125.838,3.912,3.912,0,0,1,.714,2.507V18h-2.4V12.256a1.556,1.556,0,0,0-.332-1.108,1.486,1.486,0,0,0-1.1-.344,1.65,1.65,0,0,0-1.519.863V18h-2.4V9.019Zm6.964,4.424a5.264,5.264,0,0,1,.984-3.329,3.187,3.187,0,0,1,2.652-1.262,2.8,2.8,0,0,1,2.3,1.013l.1-.847h2.175V17.7a3.839,3.839,0,0,1-.535,2.05,3.439,3.439,0,0,1-1.507,1.328,5.3,5.3,0,0,1-2.274.457,4.925,4.925,0,0,1-1.926-.394,3.418,3.418,0,0,1-1.419-1.017l1.063-1.461a2.81,2.81,0,0,0,2.175,1,2.057,2.057,0,0,0,1.486-.51,1.915,1.915,0,0,0,.531-1.448v-.481a2.775,2.775,0,0,1-2.183.938A3.179,3.179,0,0,1,32.911,16.9a5.262,5.262,0,0,1-1-3.358Zm2.4.179a3.278,3.278,0,0,0,.49,1.916,1.558,1.558,0,0,0,1.345.694,1.666,1.666,0,0,0,1.569-.823V11.626a1.662,1.662,0,0,0-1.552-.823,1.568,1.568,0,0,0-1.357.707A3.694,3.694,0,0,0,34.31,13.621Zm13.032,3.465a3.008,3.008,0,0,1-2.457,1.079,2.837,2.837,0,0,1-2.2-.83,3.543,3.543,0,0,1-.776-2.432V9.019h2.4v5.809q0,1.4,1.278,1.4a1.732,1.732,0,0,0,1.677-.848V9.019h2.407V18H47.409ZM56.681,18a2.664,2.664,0,0,1-.241-.805,2.9,2.9,0,0,1-2.266.971,3.189,3.189,0,0,1-2.187-.764,2.456,2.456,0,0,1-.867-1.926,2.538,2.538,0,0,1,1.058-2.191,5.222,5.222,0,0,1,3.059-.772h1.1V12a1.48,1.48,0,0,0-.32-1,1.257,1.257,0,0,0-1.009-.374,1.429,1.429,0,0,0-.95.291.987.987,0,0,0-.344.8h-2.4a2.41,2.41,0,0,1,.481-1.444A3.182,3.182,0,0,1,53.161,9.23a4.961,4.961,0,0,1,1.976-.378,3.92,3.92,0,0,1,2.635.834,2.918,2.918,0,0,1,.975,2.345v3.893a4.294,4.294,0,0,0,.357,1.934V18ZM54.7,16.332a2.066,2.066,0,0,0,.979-.237,1.554,1.554,0,0,0,.664-.635V13.916h-.9q-1.8,0-1.917,1.245l-.008.141a.96.96,0,0,0,.315.739A1.225,1.225,0,0,0,54.7,16.332ZM63.13,9.019V18.49a3.213,3.213,0,0,1-.789,2.312,3,3,0,0,1-2.274.826,4.878,4.878,0,0,1-1.187-.141v-1.9a4.5,4.5,0,0,0,.755.075q1.087,0,1.087-1.154V9.019Zm-2.6-2.324a1.181,1.181,0,0,1,.361-.888,1.562,1.562,0,0,1,1.967,0,1.181,1.181,0,0,1,.361.888,1.178,1.178,0,0,1-.369.9,1.539,1.539,0,0,1-1.951,0A1.178,1.178,0,0,1,60.532,6.694ZM69.14,18.166a4.409,4.409,0,0,1-3.217-1.212,4.308,4.308,0,0,1-1.241-3.229v-.232a5.426,5.426,0,0,1,.523-2.42,3.838,3.838,0,0,1,1.482-1.644,4.159,4.159,0,0,1,2.187-.577,3.727,3.727,0,0,1,2.9,1.162,4.722,4.722,0,0,1,1.058,3.3v.979H67.115a2.229,2.229,0,0,0,.7,1.411,2.12,2.12,0,0,0,1.482.531,2.589,2.589,0,0,0,2.167-1l1.179,1.32a3.6,3.6,0,0,1-1.461,1.191A4.793,4.793,0,0,1,69.14,18.166Zm-.274-7.379a1.5,1.5,0,0,0-1.158.484,2.5,2.5,0,0,0-.569,1.384h3.337v-.192a1.786,1.786,0,0,0-.432-1.238A1.547,1.547,0,0,0,68.866,10.787Zm13.3,5.445a1.573,1.573,0,0,0,1.079-.365,1.28,1.28,0,0,0,.432-.971h2.25a3.077,3.077,0,0,1-.5,1.673,3.286,3.286,0,0,1-1.341,1.179,4.2,4.2,0,0,1-1.88.419,3.9,3.9,0,0,1-3.038-1.224,4.845,4.845,0,0,1-1.112-3.383V13.4a4.79,4.79,0,0,1,1.1-3.312,3.854,3.854,0,0,1,3.03-1.237,3.778,3.778,0,0,1,2.7.959,3.4,3.4,0,0,1,1.033,2.552h-2.25a1.648,1.648,0,0,0-.432-1.139,1.6,1.6,0,0,0-2.362.173,3.541,3.541,0,0,0-.427,1.983v.249a3.586,3.586,0,0,0,.423,2A1.463,1.463,0,0,0,82.164,16.232Zm4.756-2.806a5.326,5.326,0,0,1,.515-2.382,3.768,3.768,0,0,1,1.482-1.619,4.323,4.323,0,0,1,2.245-.573A4.09,4.09,0,0,1,94.13,9.965a4.464,4.464,0,0,1,1.282,3.021l.017.614a4.694,4.694,0,0,1-1.154,3.316,4.472,4.472,0,0,1-6.2,0,4.777,4.777,0,0,1-1.158-3.387Zm2.4.17a3.357,3.357,0,0,0,.481,1.958,1.73,1.73,0,0,0,2.739.008,3.674,3.674,0,0,0,.49-2.141,3.324,3.324,0,0,0-.49-1.945,1.592,1.592,0,0,0-1.378-.69,1.566,1.566,0,0,0-1.361.686A3.736,3.736,0,0,0,89.319,13.6Zm9.795-4.578.075,1.038a3.136,3.136,0,0,1,2.582-1.2,2.606,2.606,0,0,1,2.125.838,3.912,3.912,0,0,1,.714,2.507V18h-2.4V12.256a1.556,1.556,0,0,0-.332-1.108,1.486,1.486,0,0,0-1.1-.344,1.65,1.65,0,0,0-1.519.863V18h-2.4V9.019ZM109.3,6.811V9.019h1.536v1.76H109.3v4.482a1.07,1.07,0,0,0,.191.714.959.959,0,0,0,.73.216,3.826,3.826,0,0,0,.706-.058V17.95a4.938,4.938,0,0,1-1.453.216,2.29,2.29,0,0,1-2.573-2.548V10.778h-1.312V9.019H106.9V6.811Zm7.919,4.458a6.517,6.517,0,0,0-.863-.066,1.757,1.757,0,0,0-1.785.921V18h-2.4V9.019h2.266l.066,1.071a2.223,2.223,0,0,1,2-1.237,2.514,2.514,0,0,1,.747.108Zm.481,2.158a5.326,5.326,0,0,1,.515-2.382A3.768,3.768,0,0,1,119.7,9.425a4.323,4.323,0,0,1,2.245-.573,4.09,4.09,0,0,1,2.968,1.112,4.464,4.464,0,0,1,1.282,3.021l.017.614a4.694,4.694,0,0,1-1.154,3.316,4.472,4.472,0,0,1-6.2,0,4.777,4.777,0,0,1-1.158-3.387Zm2.4.17a3.357,3.357,0,0,0,.481,1.958,1.73,1.73,0,0,0,2.739.008,3.674,3.674,0,0,0,.49-2.141,3.324,3.324,0,0,0-.49-1.945,1.592,1.592,0,0,0-1.378-.69,1.566,1.566,0,0,0-1.361.686A3.736,3.736,0,0,0,120.1,13.6ZM130.217,18H127.81V5.25h2.407Zm7.18,0a2.664,2.664,0,0,1-.241-.805,2.9,2.9,0,0,1-2.266.971A3.189,3.189,0,0,1,132.7,17.4a2.456,2.456,0,0,1-.867-1.926,2.538,2.538,0,0,1,1.058-2.191,5.222,5.222,0,0,1,3.059-.772h1.1V12a1.48,1.48,0,0,0-.32-1,1.257,1.257,0,0,0-1.009-.374,1.429,1.429,0,0,0-.95.291.987.987,0,0,0-.344.8h-2.4a2.41,2.41,0,0,1,.481-1.444,3.182,3.182,0,0,1,1.361-1.042,4.961,4.961,0,0,1,1.976-.378,3.92,3.92,0,0,1,2.635.834,2.918,2.918,0,0,1,.975,2.345v3.893a4.294,4.294,0,0,0,.357,1.934V18Zm-1.984-1.668a2.066,2.066,0,0,0,.979-.237,1.554,1.554,0,0,0,.664-.635V13.916h-.9q-1.8,0-1.917,1.245l-.008.141a.96.96,0,0,0,.315.739A1.225,1.225,0,0,0,135.414,16.332Zm5.52-2.889a5.413,5.413,0,0,1,.942-3.345,3.057,3.057,0,0,1,2.577-1.245,2.751,2.751,0,0,1,2.167.979V5.25h2.407V18H146.86l-.116-.955a2.823,2.823,0,0,1-2.308,1.121,3.049,3.049,0,0,1-2.544-1.249A5.587,5.587,0,0,1,140.934,13.443Zm2.4.179a3.546,3.546,0,0,0,.44,1.937,1.433,1.433,0,0,0,1.278.673,1.605,1.605,0,0,0,1.569-.939v-3.55a1.582,1.582,0,0,0-1.552-.939Q143.333,10.8,143.333,13.621Zm7.18-.2a5.327,5.327,0,0,1,.515-2.382,3.767,3.767,0,0,1,1.482-1.619,4.323,4.323,0,0,1,2.245-.573,4.09,4.09,0,0,1,2.968,1.112A4.464,4.464,0,0,1,159,12.986l.017.614a4.694,4.694,0,0,1-1.154,3.316,4.472,4.472,0,0,1-6.2,0,4.777,4.777,0,0,1-1.158-3.387Zm2.4.17a3.357,3.357,0,0,0,.481,1.958,1.73,1.73,0,0,0,2.739.008,3.674,3.674,0,0,0,.49-2.141,3.324,3.324,0,0,0-.49-1.945,1.592,1.592,0,0,0-1.378-.69,1.566,1.566,0,0,0-1.361.686A3.735,3.735,0,0,0,152.912,13.6Z" transform="translate(13710 -8999)" fill="#fff"/>
    <rect id="Rectángulo_455498" data-name="Rectángulo 455498" width="154" height="32" rx="16" transform="translate(13714 -8912)" fill="#ffd54e"/>
    <path id="Trazado_999204" data-name="Trazado 999204" d="M59.125,7.523H55.641V17H53.3V7.523H49.859v-1.9h9.266ZM64.2,17.156a4.15,4.15,0,0,1-3.027-1.141,4.054,4.054,0,0,1-1.168-3.039v-.219A5.106,5.106,0,0,1,60.5,10.48a3.612,3.612,0,0,1,1.395-1.547,3.914,3.914,0,0,1,2.059-.543,3.508,3.508,0,0,1,2.73,1.094,4.444,4.444,0,0,1,1,3.1v.922H62.3a2.1,2.1,0,0,0,.66,1.328,2,2,0,0,0,1.395.5,2.437,2.437,0,0,0,2.039-.945L67.5,15.633a3.389,3.389,0,0,1-1.375,1.121A4.511,4.511,0,0,1,64.2,17.156Zm-.258-6.945a1.411,1.411,0,0,0-1.09.455,2.357,2.357,0,0,0-.535,1.3h3.141v-.181a1.681,1.681,0,0,0-.406-1.165A1.456,1.456,0,0,0,63.945,10.211Zm9.594,4.453a.727.727,0,0,0-.41-.652,4.659,4.659,0,0,0-1.316-.426Q68.8,12.953,68.8,11.023a2.323,2.323,0,0,1,.934-1.879,3.766,3.766,0,0,1,2.441-.754,4.053,4.053,0,0,1,2.574.758,2.388,2.388,0,0,1,.965,1.969H73.453a1.092,1.092,0,0,0-.312-.8A1.322,1.322,0,0,0,72.164,10a1.351,1.351,0,0,0-.883.258.814.814,0,0,0-.312.656.7.7,0,0,0,.355.605,3.657,3.657,0,0,0,1.2.4,9.8,9.8,0,0,1,1.422.379,2.336,2.336,0,0,1,1.789,2.273,2.2,2.2,0,0,1-.992,1.871,4.28,4.28,0,0,1-2.562.715,4.47,4.47,0,0,1-1.887-.379A3.166,3.166,0,0,1,69,15.738a2.414,2.414,0,0,1-.469-1.426h2.141a1.179,1.179,0,0,0,.445.922,1.766,1.766,0,0,0,1.109.32,1.635,1.635,0,0,0,.98-.246A.766.766,0,0,0,73.539,14.664ZM82.086,17a2.507,2.507,0,0,1-.227-.758,2.732,2.732,0,0,1-2.133.914,3,3,0,0,1-2.059-.719,2.312,2.312,0,0,1-.816-1.812,2.389,2.389,0,0,1,1-2.062,4.915,4.915,0,0,1,2.879-.727h1.039v-.484a1.393,1.393,0,0,0-.3-.937,1.183,1.183,0,0,0-.949-.352,1.345,1.345,0,0,0-.895.273.929.929,0,0,0-.324.75H77.039a2.268,2.268,0,0,1,.453-1.359,3,3,0,0,1,1.281-.98,4.669,4.669,0,0,1,1.859-.355,3.689,3.689,0,0,1,2.48.785,2.747,2.747,0,0,1,.918,2.207v3.664a4.041,4.041,0,0,0,.336,1.82V17Zm-1.867-1.57a1.945,1.945,0,0,0,.922-.223,1.462,1.462,0,0,0,.625-.6V13.156h-.844q-1.7,0-1.8,1.172l-.008.133a.9.9,0,0,0,.3.7A1.153,1.153,0,0,0,80.219,15.43Zm10.609.711a2.831,2.831,0,0,1-2.312,1.016,2.67,2.67,0,0,1-2.074-.781,3.335,3.335,0,0,1-.73-2.289V8.547h2.258v5.467q0,1.322,1.2,1.322a1.63,1.63,0,0,0,1.578-.8V8.547h2.266V17H90.891Zm8.641-5.477a6.134,6.134,0,0,0-.812-.062,1.654,1.654,0,0,0-1.68.867V17H94.719V8.547h2.133l.063,1.008A2.092,2.092,0,0,1,98.8,8.391a2.366,2.366,0,0,1,.7.1Zm.453,2.031a5.013,5.013,0,0,1,.484-2.242A3.546,3.546,0,0,1,101.8,8.93a4.069,4.069,0,0,1,2.113-.539,3.849,3.849,0,0,1,2.793,1.047,4.2,4.2,0,0,1,1.207,2.844l.016.578a4.418,4.418,0,0,1-1.086,3.121,4.209,4.209,0,0,1-5.832,0,4.5,4.5,0,0,1-1.09-3.187Zm2.258.16a3.16,3.16,0,0,0,.453,1.843,1.628,1.628,0,0,0,2.578.008,3.457,3.457,0,0,0,.461-2.015,3.128,3.128,0,0,0-.461-1.831,1.5,1.5,0,0,0-1.3-.649,1.474,1.474,0,0,0-1.281.646A3.516,3.516,0,0,0,102.18,12.856Z" transform="translate(13712 -8907)" fill="#12263f"/>
    <g id="Elipse_13717" data-name="Elipse 13717" transform="translate(13766 -8954)" fill="#fff" stroke="#ffd54e" stroke-width="4">
      <circle cx="25.5" cy="25.5" r="25.5" stroke="none"/>
      <circle cx="25.5" cy="25.5" r="23.5" fill="none"/>
    </g>
    <g id="Grupo_1190726" data-name="Grupo 1190726" transform="translate(13779.486 -8943.857)">
      <g id="Grupo_1190672" data-name="Grupo 1190672" clip-path="url(#clip-path-17)">
        <path id="Trazado_998569" data-name="Trazado 998569" d="M20.2,30.707l-17.319.009A2.86,2.86,0,0,1,0,27.833L.008,14.307a2.8,2.8,0,0,1,2.754-2.784l1.075-.011,0-3.734a7.681,7.681,0,1,1,15.361,0l0,3.734c.362.034.632,0,.972.007A2.87,2.87,0,0,1,23.028,14.4l0,13.431A2.833,2.833,0,0,1,20.2,30.707m-3.575-19.19.008-3.738A5.117,5.117,0,1,0,6.4,7.681l.012,3.844ZM12.792,24.29l.02-2.9a2.551,2.551,0,1,0-2.579.016l0,2.785a1.307,1.307,0,0,0,1.243,1.4,1.275,1.275,0,0,0,1.32-1.3" transform="translate(0 -0.001)" fill="#674a11"/>
      </g>
    </g>
    <path id="Trazado_998644" data-name="Trazado 998644" d="M15145-8360v157" transform="translate(-1354 -496)" fill="none" stroke="#ffd54e" stroke-width="5"/>
    <path id="Trazado_998646" data-name="Trazado 998646" d="M15145-8360v140.5" transform="translate(22099.5 6345.5) rotate(-90)" fill="none" stroke="#ffd54e" stroke-width="5"/>
    <path id="Trazado_998645" data-name="Trazado 998645" d="M15145-8360v140.5" transform="translate(22099.5 6429.5) rotate(-90)" fill="none" stroke="#ffd54e" stroke-width="5"/>
    <g id="Rectángulo_455476" data-name="Rectángulo 455476" transform="translate(13683 -8842)" fill="none" stroke="#ffd54e" stroke-width="5">
      <rect width="215" height="169" stroke="none"/>
      <rect x="2.5" y="2.5" width="210" height="164" fill="none"/>
    </g>
    <rect id="Rectángulo_455496" data-name="Rectángulo 455496" width="123" height="59" rx="29.5" transform="translate(13622 -8826)" fill="#ffd54e"/>
    <rect id="Rectángulo_455501" data-name="Rectángulo 455501" width="123" height="59" rx="29.5" transform="translate(13838 -8826)" fill="#ffd54e"/>
    <rect id="Rectángulo_455503" data-name="Rectángulo 455503" width="123" height="59" rx="29.5" transform="translate(13838 -8745)" fill="#ffd54e"/>
    <rect id="Rectángulo_455504" data-name="Rectángulo 455504" width="123" height="59" rx="29.5" transform="translate(13622 -8745)" fill="#ffd54e"/>
    <path id="Trazado_999202" data-name="Trazado 999202" d="M27.48,12.836H25.613V17H23.27V5.625H27.5a4.778,4.778,0,0,1,3.109.9A3.1,3.1,0,0,1,31.7,9.063,3.5,3.5,0,0,1,31.2,11a3.437,3.437,0,0,1-1.527,1.238l2.461,4.648V17H29.613Zm-1.867-1.9H27.5a1.936,1.936,0,0,0,1.367-.449,1.606,1.606,0,0,0,.484-1.238A1.719,1.719,0,0,0,28.9,7.984a1.9,1.9,0,0,0-1.4-.461H25.613Zm11.609,6.219A4.15,4.15,0,0,1,34.2,16.016a4.054,4.054,0,0,1-1.168-3.039v-.219a5.106,5.106,0,0,1,.492-2.277,3.612,3.612,0,0,1,1.395-1.547,3.914,3.914,0,0,1,2.059-.543A3.508,3.508,0,0,1,39.7,9.484a4.444,4.444,0,0,1,1,3.1v.922H35.316a2.1,2.1,0,0,0,.66,1.328,2,2,0,0,0,1.395.5,2.437,2.437,0,0,0,2.039-.945l1.109,1.242a3.389,3.389,0,0,1-1.375,1.121A4.511,4.511,0,0,1,37.223,17.156Zm-.258-6.945a1.411,1.411,0,0,0-1.09.455,2.357,2.357,0,0,0-.535,1.3H38.48v-.181a1.681,1.681,0,0,0-.406-1.165A1.456,1.456,0,0,0,36.965,10.211ZM45.5,15.336a1.481,1.481,0,0,0,1.016-.344,1.2,1.2,0,0,0,.406-.914h2.117a2.9,2.9,0,0,1-.469,1.574A3.093,3.093,0,0,1,47.3,16.762a3.949,3.949,0,0,1-1.77.395A3.67,3.67,0,0,1,42.676,16a4.56,4.56,0,0,1-1.047-3.184v-.148a4.508,4.508,0,0,1,1.039-3.117A3.627,3.627,0,0,1,45.52,8.391a3.555,3.555,0,0,1,2.543.9,3.2,3.2,0,0,1,.973,2.4H46.918a1.551,1.551,0,0,0-.406-1.072,1.51,1.51,0,0,0-2.223.163,3.333,3.333,0,0,0-.4,1.866v.235a3.375,3.375,0,0,0,.4,1.878A1.377,1.377,0,0,0,45.5,15.336Zm9.891.8a2.831,2.831,0,0,1-2.312,1.016A2.67,2.67,0,0,1,51,16.375a3.335,3.335,0,0,1-.73-2.289V8.547h2.258v5.467q0,1.322,1.2,1.322a1.63,1.63,0,0,0,1.578-.8V8.547h2.266V17H55.449Zm8.641-5.477a6.134,6.134,0,0,0-.812-.062,1.654,1.654,0,0,0-1.68.867V17H59.277V8.547H61.41l.063,1.008a2.092,2.092,0,0,1,1.883-1.164,2.366,2.366,0,0,1,.7.1Zm5.664,4a.727.727,0,0,0-.41-.652,4.659,4.659,0,0,0-1.316-.426q-3.016-.633-3.016-2.562a2.323,2.323,0,0,1,.934-1.879,3.766,3.766,0,0,1,2.441-.754,4.053,4.053,0,0,1,2.574.758,2.388,2.388,0,0,1,.965,1.969H69.605a1.092,1.092,0,0,0-.312-.8A1.322,1.322,0,0,0,68.316,10a1.351,1.351,0,0,0-.883.258.814.814,0,0,0-.312.656.7.7,0,0,0,.355.605,3.657,3.657,0,0,0,1.2.4A9.8,9.8,0,0,1,70.1,12.3a2.336,2.336,0,0,1,1.789,2.273,2.2,2.2,0,0,1-.992,1.871,4.28,4.28,0,0,1-2.562.715,4.47,4.47,0,0,1-1.887-.379,3.166,3.166,0,0,1-1.293-1.039,2.414,2.414,0,0,1-.469-1.426h2.141a1.179,1.179,0,0,0,.445.922,1.766,1.766,0,0,0,1.109.32,1.635,1.635,0,0,0,.98-.246A.766.766,0,0,0,69.691,14.664Zm3.3-1.969a5.013,5.013,0,0,1,.484-2.242A3.546,3.546,0,0,1,74.867,8.93a4.069,4.069,0,0,1,2.113-.539,3.849,3.849,0,0,1,2.793,1.047,4.2,4.2,0,0,1,1.207,2.844l.016.578A4.418,4.418,0,0,1,79.91,15.98a4.209,4.209,0,0,1-5.832,0,4.5,4.5,0,0,1-1.09-3.187Zm2.258.16A3.16,3.16,0,0,0,75.7,14.7a1.628,1.628,0,0,0,2.578.008,3.457,3.457,0,0,0,.461-2.015,3.128,3.128,0,0,0-.461-1.831,1.5,1.5,0,0,0-1.3-.649,1.474,1.474,0,0,0-1.281.646A3.516,3.516,0,0,0,75.246,12.856Zm11.719,1.808a.727.727,0,0,0-.41-.652,4.659,4.659,0,0,0-1.316-.426q-3.016-.633-3.016-2.562a2.323,2.323,0,0,1,.934-1.879A3.766,3.766,0,0,1,85.6,8.391a4.053,4.053,0,0,1,2.574.758,2.388,2.388,0,0,1,.965,1.969H86.879a1.092,1.092,0,0,0-.312-.8A1.322,1.322,0,0,0,85.59,10a1.351,1.351,0,0,0-.883.258.814.814,0,0,0-.312.656.7.7,0,0,0,.355.605,3.657,3.657,0,0,0,1.2.4,9.8,9.8,0,0,1,1.422.379A2.336,2.336,0,0,1,89.16,14.57a2.2,2.2,0,0,1-.992,1.871,4.28,4.28,0,0,1-2.562.715,4.47,4.47,0,0,1-1.887-.379,3.166,3.166,0,0,1-1.293-1.039,2.414,2.414,0,0,1-.469-1.426H84.1a1.179,1.179,0,0,0,.445.922,1.766,1.766,0,0,0,1.109.32,1.635,1.635,0,0,0,.98-.246A.766.766,0,0,0,86.965,14.664Zm-56.918,16.8A2.818,2.818,0,0,1,32.3,30.391q2.75,0,2.789,3.2V39H32.836V33.648a1.57,1.57,0,0,0-.312-1.074,1.34,1.34,0,0,0-1.039-.348,1.537,1.537,0,0,0-1.437.766V39H27.789V27h2.258ZM39.234,39H36.977V30.547h2.258ZM38.57,27.117h2.461l-2.164,2.422H37.031Zm2.258,7.594a5.094,5.094,0,0,1,.887-3.148,2.877,2.877,0,0,1,2.426-1.172,2.589,2.589,0,0,1,2.039.922V27h2.266V39H46.406l-.109-.9a2.657,2.657,0,0,1-2.172,1.055A2.869,2.869,0,0,1,41.73,37.98,5.258,5.258,0,0,1,40.828,34.711Zm2.258.168A3.337,3.337,0,0,0,43.5,36.7a1.349,1.349,0,0,0,1.2.634,1.511,1.511,0,0,0,1.477-.884V33.111a1.489,1.489,0,0,0-1.461-.884Q43.086,32.227,43.086,34.879Zm11.859-2.215a6.134,6.134,0,0,0-.812-.062,1.654,1.654,0,0,0-1.68.867V39H50.2V30.547h2.133l.063,1.008a2.092,2.092,0,0,1,1.883-1.164,2.366,2.366,0,0,1,.7.1ZM58.414,39H56.148V30.547h2.266Zm-2.4-10.641a1.112,1.112,0,0,1,.34-.836,1.465,1.465,0,0,1,1.848,0,1.193,1.193,0,0,1,0,1.68,1.448,1.448,0,0,1-1.836,0A1.108,1.108,0,0,1,56.016,28.359Zm7.773,8.977a1.481,1.481,0,0,0,1.016-.344,1.2,1.2,0,0,0,.406-.914h2.117a2.9,2.9,0,0,1-.469,1.574A3.093,3.093,0,0,1,65.6,38.762a3.949,3.949,0,0,1-1.77.395A3.67,3.67,0,0,1,60.969,38a4.56,4.56,0,0,1-1.047-3.184v-.148a4.508,4.508,0,0,1,1.039-3.117,3.627,3.627,0,0,1,2.852-1.164,3.555,3.555,0,0,1,2.543.9,3.2,3.2,0,0,1,.973,2.4H65.211a1.551,1.551,0,0,0-.406-1.072,1.51,1.51,0,0,0-2.223.163,3.333,3.333,0,0,0-.4,1.866v.235a3.375,3.375,0,0,0,.4,1.878A1.377,1.377,0,0,0,63.789,37.336ZM68.266,34.7a5.013,5.013,0,0,1,.484-2.242,3.546,3.546,0,0,1,1.395-1.523,4.069,4.069,0,0,1,2.113-.539,3.849,3.849,0,0,1,2.793,1.047,4.2,4.2,0,0,1,1.207,2.844l.016.578a4.418,4.418,0,0,1-1.086,3.121,4.209,4.209,0,0,1-5.832,0,4.5,4.5,0,0,1-1.09-3.187Zm2.258.16a3.16,3.16,0,0,0,.453,1.843,1.628,1.628,0,0,0,2.578.008,3.457,3.457,0,0,0,.461-2.015,3.128,3.128,0,0,0-.461-1.831,1.5,1.5,0,0,0-1.3-.649,1.474,1.474,0,0,0-1.281.646A3.516,3.516,0,0,0,70.523,34.856Zm11.719,1.808a.727.727,0,0,0-.41-.652,4.659,4.659,0,0,0-1.316-.426Q77.5,34.953,77.5,33.023a2.323,2.323,0,0,1,.934-1.879,3.766,3.766,0,0,1,2.441-.754,4.053,4.053,0,0,1,2.574.758,2.388,2.388,0,0,1,.965,1.969H82.156a1.092,1.092,0,0,0-.312-.8A1.322,1.322,0,0,0,80.867,32a1.351,1.351,0,0,0-.883.258.814.814,0,0,0-.312.656.7.7,0,0,0,.355.605,3.657,3.657,0,0,0,1.2.4,9.8,9.8,0,0,1,1.422.379,2.336,2.336,0,0,1,1.789,2.273,2.2,2.2,0,0,1-.992,1.871,4.28,4.28,0,0,1-2.562.715A4.47,4.47,0,0,1,79,38.777,3.166,3.166,0,0,1,77.7,37.738a2.414,2.414,0,0,1-.469-1.426h2.141a1.179,1.179,0,0,0,.445.922,1.766,1.766,0,0,0,1.109.32,1.635,1.635,0,0,0,.98-.246A.766.766,0,0,0,82.242,36.664Z" transform="translate(13628 -8818)" fill="#12263f"/>
    <path id="Trazado_999203" data-name="Trazado 999203" d="M16.711,13.211A4.025,4.025,0,0,1,15.355,16.1a4.76,4.76,0,0,1-3.223,1.055,4.28,4.28,0,0,1-3.441-1.473,6.038,6.038,0,0,1-1.254-4.043v-.7a6.819,6.819,0,0,1,.578-2.891A4.332,4.332,0,0,1,9.668,6.137a4.629,4.629,0,0,1,2.5-.668,4.637,4.637,0,0,1,3.172,1.055,4.326,4.326,0,0,1,1.391,2.961H14.383a2.376,2.376,0,0,0-.613-1.6,2.271,2.271,0,0,0-1.605-.5,1.991,1.991,0,0,0-1.754.84,4.707,4.707,0,0,0-.6,2.605V11.7a5.038,5.038,0,0,0,.559,2.7,1.954,1.954,0,0,0,1.762.852,2.314,2.314,0,0,0,1.621-.5,2.241,2.241,0,0,0,.613-1.535ZM17.75,12.7a5.013,5.013,0,0,1,.484-2.242A3.546,3.546,0,0,1,19.629,8.93a4.069,4.069,0,0,1,2.113-.539,3.849,3.849,0,0,1,2.793,1.047,4.2,4.2,0,0,1,1.207,2.844l.016.578a4.418,4.418,0,0,1-1.086,3.121,3.775,3.775,0,0,1-2.914,1.176,3.793,3.793,0,0,1-2.918-1.172A4.5,4.5,0,0,1,17.75,12.8Zm2.258.16a3.16,3.16,0,0,0,.453,1.843,1.628,1.628,0,0,0,2.578.008,3.457,3.457,0,0,0,.461-2.015,3.128,3.128,0,0,0-.461-1.831,1.5,1.5,0,0,0-1.3-.649,1.474,1.474,0,0,0-1.281.646A3.516,3.516,0,0,0,20.008,12.856Zm9.219-4.309.07.977a2.951,2.951,0,0,1,2.43-1.133,2.453,2.453,0,0,1,2,.789,3.682,3.682,0,0,1,.672,2.359V17H32.141V11.594a1.465,1.465,0,0,0-.312-1.043,1.4,1.4,0,0,0-1.039-.324,1.553,1.553,0,0,0-1.43.813V17H27.1V8.547Zm11.461,6.117a.727.727,0,0,0-.41-.652,4.659,4.659,0,0,0-1.316-.426q-3.016-.633-3.016-2.562a2.323,2.323,0,0,1,.934-1.879,3.766,3.766,0,0,1,2.441-.754,4.053,4.053,0,0,1,2.574.758,2.388,2.388,0,0,1,.965,1.969H40.6a1.092,1.092,0,0,0-.312-.8A1.322,1.322,0,0,0,39.313,10a1.351,1.351,0,0,0-.883.258.814.814,0,0,0-.312.656.7.7,0,0,0,.355.605,3.657,3.657,0,0,0,1.2.4,9.8,9.8,0,0,1,1.422.379,2.336,2.336,0,0,1,1.789,2.273,2.2,2.2,0,0,1-.992,1.871,4.28,4.28,0,0,1-2.562.715,4.47,4.47,0,0,1-1.887-.379,3.166,3.166,0,0,1-1.293-1.039,2.414,2.414,0,0,1-.469-1.426H37.82a1.179,1.179,0,0,0,.445.922,1.766,1.766,0,0,0,1.109.32,1.635,1.635,0,0,0,.98-.246A.766.766,0,0,0,40.688,14.664Zm7.539,2.492A4.15,4.15,0,0,1,45.2,16.016a4.054,4.054,0,0,1-1.168-3.039v-.219a5.106,5.106,0,0,1,.492-2.277,3.612,3.612,0,0,1,1.395-1.547,3.914,3.914,0,0,1,2.059-.543,3.508,3.508,0,0,1,2.73,1.094,4.444,4.444,0,0,1,1,3.1v.922H46.32a2.1,2.1,0,0,0,.66,1.328,2,2,0,0,0,1.395.5,2.437,2.437,0,0,0,2.039-.945l1.109,1.242a3.389,3.389,0,0,1-1.375,1.121A4.511,4.511,0,0,1,48.227,17.156Zm-.258-6.945a1.411,1.411,0,0,0-1.09.455,2.357,2.357,0,0,0-.535,1.3h3.141v-.181a1.681,1.681,0,0,0-.406-1.165A1.456,1.456,0,0,0,47.969,10.211Zm9.766.453a6.134,6.134,0,0,0-.812-.062,1.654,1.654,0,0,0-1.68.867V17H52.984V8.547h2.133l.063,1.008a2.092,2.092,0,0,1,1.883-1.164,2.366,2.366,0,0,1,.7.1Zm4.391,3.578,1.57-5.7h2.359L63.2,17H61.047L58.2,8.547h2.359ZM71.828,17a2.507,2.507,0,0,1-.227-.758,2.732,2.732,0,0,1-2.133.914,3,3,0,0,1-2.059-.719,2.312,2.312,0,0,1-.816-1.812,2.389,2.389,0,0,1,1-2.062,4.915,4.915,0,0,1,2.879-.727h1.039v-.484a1.393,1.393,0,0,0-.3-.937,1.183,1.183,0,0,0-.949-.352,1.345,1.345,0,0,0-.895.273.929.929,0,0,0-.324.75H66.781a2.268,2.268,0,0,1,.453-1.359,3,3,0,0,1,1.281-.98,4.669,4.669,0,0,1,1.859-.355,3.689,3.689,0,0,1,2.48.785,2.747,2.747,0,0,1,.918,2.207v3.664a4.041,4.041,0,0,0,.336,1.82V17Zm-1.867-1.57a1.945,1.945,0,0,0,.922-.223,1.462,1.462,0,0,0,.625-.6V13.156h-.844q-1.7,0-1.8,1.172l-.008.133a.9.9,0,0,0,.3.7A1.153,1.153,0,0,0,69.961,15.43Zm9.063-.094a1.481,1.481,0,0,0,1.016-.344,1.2,1.2,0,0,0,.406-.914h2.117a2.9,2.9,0,0,1-.469,1.574,3.093,3.093,0,0,1-1.262,1.109,3.949,3.949,0,0,1-1.77.395A3.67,3.67,0,0,1,76.2,16a4.56,4.56,0,0,1-1.047-3.184v-.148A4.508,4.508,0,0,1,76.2,9.555a3.627,3.627,0,0,1,2.852-1.164,3.555,3.555,0,0,1,2.543.9,3.2,3.2,0,0,1,.973,2.4H80.445a1.551,1.551,0,0,0-.406-1.072,1.51,1.51,0,0,0-2.223.163,3.333,3.333,0,0,0-.4,1.866v.235a3.375,3.375,0,0,0,.4,1.878A1.377,1.377,0,0,0,79.023,15.336ZM86.234,17H83.969V8.547h2.266Zm-2.4-10.641a1.112,1.112,0,0,1,.34-.836,1.465,1.465,0,0,1,1.848,0,1.105,1.105,0,0,1,.344.836,1.108,1.108,0,0,1-.348.844,1.448,1.448,0,0,1-1.836,0A1.108,1.108,0,0,1,83.836,6.359ZM87.742,12.7a5.013,5.013,0,0,1,.484-2.242A3.546,3.546,0,0,1,89.621,8.93a4.069,4.069,0,0,1,2.113-.539,3.849,3.849,0,0,1,2.793,1.047,4.2,4.2,0,0,1,1.207,2.844l.016.578a4.418,4.418,0,0,1-1.086,3.121,4.209,4.209,0,0,1-5.832,0,4.5,4.5,0,0,1-1.09-3.187Zm2.258.16a3.16,3.16,0,0,0,.453,1.843,1.628,1.628,0,0,0,2.578.008,3.457,3.457,0,0,0,.461-2.015,3.128,3.128,0,0,0-.461-1.831,1.5,1.5,0,0,0-1.3-.649,1.474,1.474,0,0,0-1.281.646A3.516,3.516,0,0,0,90,12.856ZM92.18,5h2.461L92.477,7.422H90.641Zm7.039,3.547.07.977a2.951,2.951,0,0,1,2.43-1.133,2.453,2.453,0,0,1,2,.789,3.682,3.682,0,0,1,.672,2.359V17h-2.258V11.594a1.465,1.465,0,0,0-.312-1.043,1.4,1.4,0,0,0-1.039-.324,1.553,1.553,0,0,0-1.43.813V17H97.094V8.547Z" transform="translate(13844 -8810)" fill="#12263f"/>
    <path id="Trazado_999200" data-name="Trazado 999200" d="M24.8,15.563a4.068,4.068,0,0,1-1.789,1.176,7.492,7.492,0,0,1-2.562.418,5.076,5.076,0,0,1-2.59-.645,4.3,4.3,0,0,1-1.719-1.871,6.585,6.585,0,0,1-.621-2.883v-.773a6.994,6.994,0,0,1,.574-2.949A4.248,4.248,0,0,1,17.75,6.129a4.771,4.771,0,0,1,2.535-.66,4.751,4.751,0,0,1,3.164.965A4.123,4.123,0,0,1,24.8,9.242H22.52a2.268,2.268,0,0,0-.691-1.43,2.208,2.208,0,0,0-1.473-.453,2.078,2.078,0,0,0-1.82.9A4.724,4.724,0,0,0,17.9,10.93v.727a4.5,4.5,0,0,0,.68,2.7,2.327,2.327,0,0,0,1.992.914,2.6,2.6,0,0,0,1.883-.562V12.75H20.324V11.023H24.8Zm5.641,1.594a4.15,4.15,0,0,1-3.027-1.141,4.054,4.054,0,0,1-1.168-3.039v-.219a5.106,5.106,0,0,1,.492-2.277,3.612,3.612,0,0,1,1.395-1.547,3.914,3.914,0,0,1,2.059-.543,3.508,3.508,0,0,1,2.73,1.094,4.444,4.444,0,0,1,1,3.1v.922H28.535a2.1,2.1,0,0,0,.66,1.328,2,2,0,0,0,1.395.5,2.437,2.437,0,0,0,2.039-.945l1.109,1.242a3.389,3.389,0,0,1-1.375,1.121A4.511,4.511,0,0,1,30.441,17.156Zm-.258-6.945a1.411,1.411,0,0,0-1.09.455,2.357,2.357,0,0,0-.535,1.3H31.7v-.181a1.681,1.681,0,0,0-.406-1.165A1.456,1.456,0,0,0,30.184,10.211Zm9.594,4.453a.727.727,0,0,0-.41-.652,4.659,4.659,0,0,0-1.316-.426q-3.016-.633-3.016-2.562a2.323,2.323,0,0,1,.934-1.879,3.766,3.766,0,0,1,2.441-.754,4.053,4.053,0,0,1,2.574.758,2.388,2.388,0,0,1,.965,1.969H39.691a1.092,1.092,0,0,0-.312-.8A1.322,1.322,0,0,0,38.4,10a1.351,1.351,0,0,0-.883.258.814.814,0,0,0-.312.656.7.7,0,0,0,.355.605,3.657,3.657,0,0,0,1.2.4,9.8,9.8,0,0,1,1.422.379,2.336,2.336,0,0,1,1.789,2.273,2.2,2.2,0,0,1-.992,1.871,4.28,4.28,0,0,1-2.562.715,4.47,4.47,0,0,1-1.887-.379,3.166,3.166,0,0,1-1.293-1.039,2.414,2.414,0,0,1-.469-1.426H36.91a1.179,1.179,0,0,0,.445.922,1.766,1.766,0,0,0,1.109.32,1.635,1.635,0,0,0,.98-.246A.766.766,0,0,0,39.777,14.664Zm6.352-8.2V8.547h1.445V10.2H46.129v4.219a1.007,1.007,0,0,0,.18.672.9.9,0,0,0,.688.2,3.6,3.6,0,0,0,.664-.055v1.711a4.648,4.648,0,0,1-1.367.2,2.156,2.156,0,0,1-2.422-2.4V10.2H42.637V8.547h1.234V6.469ZM51.215,17H48.949V8.547h2.266Zm-2.4-10.641a1.112,1.112,0,0,1,.34-.836,1.465,1.465,0,0,1,1.848,0,1.105,1.105,0,0,1,.344.836A1.108,1.108,0,0,1,51,7.2a1.448,1.448,0,0,1-1.836,0A1.108,1.108,0,0,1,48.816,6.359ZM52.723,12.7a5.013,5.013,0,0,1,.484-2.242A3.546,3.546,0,0,1,54.6,8.93a4.069,4.069,0,0,1,2.113-.539,3.849,3.849,0,0,1,2.793,1.047,4.2,4.2,0,0,1,1.207,2.844l.016.578a4.418,4.418,0,0,1-1.086,3.121,4.209,4.209,0,0,1-5.832,0,4.5,4.5,0,0,1-1.09-3.187Zm2.258.16a3.16,3.16,0,0,0,.453,1.843,1.628,1.628,0,0,0,2.578.008,3.457,3.457,0,0,0,.461-2.015,3.128,3.128,0,0,0-.461-1.831,1.5,1.5,0,0,0-1.3-.649,1.474,1.474,0,0,0-1.281.646A3.516,3.516,0,0,0,54.98,12.856ZM57.16,5h2.461L57.457,7.422H55.621ZM64.2,8.547l.07.977A2.951,2.951,0,0,1,66.7,8.391a2.453,2.453,0,0,1,2,.789,3.682,3.682,0,0,1,.672,2.359V17H67.113V11.594a1.465,1.465,0,0,0-.312-1.043,1.4,1.4,0,0,0-1.039-.324,1.553,1.553,0,0,0-1.43.813V17H62.074V8.547ZM12.508,39a2.507,2.507,0,0,1-.227-.758,2.732,2.732,0,0,1-2.133.914,3,3,0,0,1-2.059-.719,2.312,2.312,0,0,1-.816-1.812,2.389,2.389,0,0,1,1-2.062,4.915,4.915,0,0,1,2.879-.727h1.039v-.484a1.393,1.393,0,0,0-.3-.937,1.183,1.183,0,0,0-.949-.352,1.345,1.345,0,0,0-.895.273.929.929,0,0,0-.324.75H7.461a2.268,2.268,0,0,1,.453-1.359,3,3,0,0,1,1.281-.98,4.669,4.669,0,0,1,1.859-.355,3.689,3.689,0,0,1,2.48.785,2.747,2.747,0,0,1,.918,2.207v3.664a4.041,4.041,0,0,0,.336,1.82V39Zm-1.867-1.57a1.945,1.945,0,0,0,.922-.223,1.462,1.462,0,0,0,.625-.6V35.156h-.844q-1.7,0-1.8,1.172l-.008.133a.9.9,0,0,0,.3.7A1.153,1.153,0,0,0,10.641,37.43ZM18.3,30.547l.07.945a2.971,2.971,0,0,1,2.43-1.1,2.255,2.255,0,0,1,2.242,1.289,2.9,2.9,0,0,1,2.539-1.289,2.521,2.521,0,0,1,2.047.8A3.681,3.681,0,0,1,28.3,33.6V39H26.039V33.609a1.61,1.61,0,0,0-.281-1.051,1.246,1.246,0,0,0-.992-.332,1.409,1.409,0,0,0-1.406.969l.008,5.8H21.109V33.617a1.59,1.59,0,0,0-.289-1.062,1.259,1.259,0,0,0-.984-.328,1.463,1.463,0,0,0-1.391.8V39H16.188V30.547Zm19.352,4.3a5.119,5.119,0,0,1-.867,3.168,2.872,2.872,0,0,1-2.422,1.137,2.639,2.639,0,0,1-2.2-1.055l-.1.9H30.039V27H32.3v4.3a2.571,2.571,0,0,1,2.055-.914,2.9,2.9,0,0,1,2.426,1.137,5.126,5.126,0,0,1,.879,3.2ZM35.4,34.688a3.363,3.363,0,0,0-.406-1.871,1.374,1.374,0,0,0-1.211-.59,1.489,1.489,0,0,0-1.484.883v3.336a1.509,1.509,0,0,0,1.5.891,1.394,1.394,0,0,0,1.438-1.078A5.562,5.562,0,0,0,35.4,34.688ZM41.43,39H39.164V30.547H41.43Zm-2.4-10.641a1.112,1.112,0,0,1,.34-.836,1.465,1.465,0,0,1,1.848,0,1.193,1.193,0,0,1,0,1.68,1.448,1.448,0,0,1-1.836,0A1.108,1.108,0,0,1,39.031,28.359Zm8.148,10.8a4.15,4.15,0,0,1-3.027-1.141,4.054,4.054,0,0,1-1.168-3.039v-.219a5.106,5.106,0,0,1,.492-2.277,3.612,3.612,0,0,1,1.395-1.547,3.914,3.914,0,0,1,2.059-.543,3.508,3.508,0,0,1,2.73,1.094,4.444,4.444,0,0,1,1,3.1v.922H45.273a2.1,2.1,0,0,0,.66,1.328,2,2,0,0,0,1.395.5,2.437,2.437,0,0,0,2.039-.945l1.109,1.242A3.389,3.389,0,0,1,49.1,38.754,4.511,4.511,0,0,1,47.18,39.156Zm-.258-6.945a1.411,1.411,0,0,0-1.09.455,2.357,2.357,0,0,0-.535,1.3h3.141v-.181a1.681,1.681,0,0,0-.406-1.165A1.456,1.456,0,0,0,46.922,32.211Zm7.094-1.664.07.977a2.951,2.951,0,0,1,2.43-1.133,2.453,2.453,0,0,1,2,.789,3.682,3.682,0,0,1,.672,2.359V39H56.93V33.594a1.465,1.465,0,0,0-.312-1.043,1.4,1.4,0,0,0-1.039-.324,1.553,1.553,0,0,0-1.43.813V39H51.891V30.547ZM63.6,28.469v2.078h1.445V32.2H63.6v4.219a1.007,1.007,0,0,0,.18.672.9.9,0,0,0,.688.2,3.6,3.6,0,0,0,.664-.055v1.711a4.648,4.648,0,0,1-1.367.2,2.156,2.156,0,0,1-2.422-2.4V32.2H60.109V30.547h1.234V28.469ZM71.2,39a2.507,2.507,0,0,1-.227-.758,2.732,2.732,0,0,1-2.133.914,3,3,0,0,1-2.059-.719,2.312,2.312,0,0,1-.816-1.812,2.389,2.389,0,0,1,1-2.062,4.915,4.915,0,0,1,2.879-.727h1.039v-.484a1.393,1.393,0,0,0-.3-.937,1.183,1.183,0,0,0-.949-.352,1.345,1.345,0,0,0-.895.273.929.929,0,0,0-.324.75H66.156a2.268,2.268,0,0,1,.453-1.359,3,3,0,0,1,1.281-.98,4.669,4.669,0,0,1,1.859-.355,3.689,3.689,0,0,1,2.48.785,2.747,2.747,0,0,1,.918,2.207v3.664a4.041,4.041,0,0,0,.336,1.82V39Zm-1.867-1.57a1.945,1.945,0,0,0,.922-.223,1.462,1.462,0,0,0,.625-.6V35.156h-.844q-1.7,0-1.8,1.172l-.008.133a.9.9,0,0,0,.3.7A1.153,1.153,0,0,0,69.336,37.43ZM77.266,39H75V27h2.266Z" transform="translate(13858 -8736)" fill="#12263f"/>
    <path id="Trazado_999201" data-name="Trazado 999201" d="M7.559,14.016A1.2,1.2,0,0,0,7.09,13a6.148,6.148,0,0,0-1.687-.75,11.963,11.963,0,0,1-1.93-.777,3.153,3.153,0,0,1-1.937-2.82A2.747,2.747,0,0,1,2.055,7,3.389,3.389,0,0,1,3.547,5.875,5.616,5.616,0,0,1,5.73,5.469,5.112,5.112,0,0,1,7.9,5.91a3.458,3.458,0,0,1,1.48,1.246A3.261,3.261,0,0,1,9.91,8.984H7.566A1.534,1.534,0,0,0,7.074,7.77a2.023,2.023,0,0,0-1.383-.434A2.162,2.162,0,0,0,4.355,7.7a1.146,1.146,0,0,0-.477.957,1.1,1.1,0,0,0,.559.93,6.311,6.311,0,0,0,1.645.7A7.106,7.106,0,0,1,9,11.781,2.972,2.972,0,0,1,9.91,14a2.737,2.737,0,0,1-1.117,2.316,4.891,4.891,0,0,1-3.008.84,5.808,5.808,0,0,1-2.391-.48A3.783,3.783,0,0,1,1.75,15.359a3.371,3.371,0,0,1-.566-1.937H3.535q0,1.883,2.25,1.883a2.189,2.189,0,0,0,1.3-.34A1.106,1.106,0,0,0,7.559,14.016ZM11,12.7a5.013,5.013,0,0,1,.484-2.242A3.546,3.546,0,0,1,12.875,8.93a4.069,4.069,0,0,1,2.113-.539,3.849,3.849,0,0,1,2.793,1.047,4.2,4.2,0,0,1,1.207,2.844l.016.578a4.418,4.418,0,0,1-1.086,3.121A3.775,3.775,0,0,1,15,17.156a3.793,3.793,0,0,1-2.918-1.172A4.5,4.5,0,0,1,11,12.8Zm2.258.16a3.16,3.16,0,0,0,.453,1.843,1.628,1.628,0,0,0,2.578.008,3.457,3.457,0,0,0,.461-2.015,3.128,3.128,0,0,0-.461-1.831,1.5,1.5,0,0,0-1.3-.649,1.474,1.474,0,0,0-1.281.646A3.516,3.516,0,0,0,13.254,12.856Zm11.719,1.808a.727.727,0,0,0-.41-.652,4.659,4.659,0,0,0-1.316-.426q-3.016-.633-3.016-2.562a2.323,2.323,0,0,1,.934-1.879,3.766,3.766,0,0,1,2.441-.754,4.053,4.053,0,0,1,2.574.758,2.388,2.388,0,0,1,.965,1.969H24.887a1.092,1.092,0,0,0-.312-.8A1.322,1.322,0,0,0,23.6,10a1.351,1.351,0,0,0-.883.258.814.814,0,0,0-.312.656.7.7,0,0,0,.355.605,3.657,3.657,0,0,0,1.2.4,9.8,9.8,0,0,1,1.422.379,2.336,2.336,0,0,1,1.789,2.273,2.2,2.2,0,0,1-.992,1.871,4.28,4.28,0,0,1-2.562.715,4.47,4.47,0,0,1-1.887-.379,3.166,3.166,0,0,1-1.293-1.039,2.414,2.414,0,0,1-.469-1.426h2.141a1.179,1.179,0,0,0,.445.922,1.766,1.766,0,0,0,1.109.32,1.635,1.635,0,0,0,.98-.246A.766.766,0,0,0,24.973,14.664Zm6.352-8.2V8.547H32.77V10.2H31.324v4.219a1.007,1.007,0,0,0,.18.672.9.9,0,0,0,.688.2,3.6,3.6,0,0,0,.664-.055v1.711a4.648,4.648,0,0,1-1.367.2,2.156,2.156,0,0,1-2.422-2.4V10.2H27.832V8.547h1.234V6.469Zm6.594,10.688a4.15,4.15,0,0,1-3.027-1.141,4.054,4.054,0,0,1-1.168-3.039v-.219a5.106,5.106,0,0,1,.492-2.277,3.612,3.612,0,0,1,1.395-1.547,3.914,3.914,0,0,1,2.059-.543A3.508,3.508,0,0,1,40.4,9.484a4.444,4.444,0,0,1,1,3.1v.922H36.012a2.1,2.1,0,0,0,.66,1.328,2,2,0,0,0,1.395.5,2.437,2.437,0,0,0,2.039-.945l1.109,1.242a3.389,3.389,0,0,1-1.375,1.121A4.511,4.511,0,0,1,37.918,17.156Zm-.258-6.945a1.411,1.411,0,0,0-1.09.455,2.357,2.357,0,0,0-.535,1.3h3.141v-.181a1.681,1.681,0,0,0-.406-1.165A1.456,1.456,0,0,0,37.66,10.211Zm7.094-1.664.07.977a2.951,2.951,0,0,1,2.43-1.133,2.453,2.453,0,0,1,2,.789,3.682,3.682,0,0,1,.672,2.359V17H47.668V11.594a1.465,1.465,0,0,0-.312-1.043,1.4,1.4,0,0,0-1.039-.324,1.553,1.553,0,0,0-1.43.813V17H42.629V8.547ZM54.02,17H51.754V8.547H54.02Zm-2.4-10.641a1.112,1.112,0,0,1,.34-.836,1.465,1.465,0,0,1,1.848,0,1.105,1.105,0,0,1,.344.836A1.108,1.108,0,0,1,53.8,7.2a1.448,1.448,0,0,1-1.836,0A1.108,1.108,0,0,1,51.621,6.359ZM63.5,12.852a5.119,5.119,0,0,1-.867,3.168,2.872,2.872,0,0,1-2.422,1.137,2.639,2.639,0,0,1-2.2-1.055l-.1.9H55.879V5h2.258V9.3a2.571,2.571,0,0,1,2.055-.914,2.9,2.9,0,0,1,2.426,1.137,5.126,5.126,0,0,1,.879,3.2Zm-2.258-.164a3.363,3.363,0,0,0-.406-1.871,1.374,1.374,0,0,0-1.211-.59,1.489,1.489,0,0,0-1.484.883v3.336a1.509,1.509,0,0,0,1.5.891,1.394,1.394,0,0,0,1.438-1.078A5.562,5.562,0,0,0,61.238,12.688ZM67.27,17H65V8.547H67.27Zm-2.4-10.641a1.112,1.112,0,0,1,.34-.836,1.465,1.465,0,0,1,1.848,0,1.105,1.105,0,0,1,.344.836,1.108,1.108,0,0,1-.348.844,1.448,1.448,0,0,1-1.836,0A1.108,1.108,0,0,1,64.871,6.359ZM71.512,17H69.246V5h2.266Zm4.242,0H73.488V8.547h2.266Zm-2.4-10.641a1.112,1.112,0,0,1,.34-.836,1.465,1.465,0,0,1,1.848,0,1.105,1.105,0,0,1,.344.836,1.108,1.108,0,0,1-.348.844,1.448,1.448,0,0,1-1.836,0A1.108,1.108,0,0,1,73.355,6.359Zm3.906,6.352a5.094,5.094,0,0,1,.887-3.148,2.877,2.877,0,0,1,2.426-1.172,2.589,2.589,0,0,1,2.039.922V5h2.266V17H82.84l-.109-.9a2.657,2.657,0,0,1-2.172,1.055,2.869,2.869,0,0,1-2.395-1.176A5.258,5.258,0,0,1,77.262,12.711Zm2.258.168a3.337,3.337,0,0,0,.414,1.823,1.349,1.349,0,0,0,1.2.634,1.511,1.511,0,0,0,1.477-.884V11.111a1.489,1.489,0,0,0-1.461-.884Q79.52,10.227,79.52,12.879ZM91.527,17a2.507,2.507,0,0,1-.227-.758,2.732,2.732,0,0,1-2.133.914,3,3,0,0,1-2.059-.719,2.312,2.312,0,0,1-.816-1.812,2.389,2.389,0,0,1,1-2.062,4.915,4.915,0,0,1,2.879-.727h1.039v-.484a1.393,1.393,0,0,0-.3-.937,1.183,1.183,0,0,0-.949-.352,1.345,1.345,0,0,0-.895.273.929.929,0,0,0-.324.75H86.48a2.268,2.268,0,0,1,.453-1.359,3,3,0,0,1,1.281-.98,4.669,4.669,0,0,1,1.859-.355,3.689,3.689,0,0,1,2.48.785,2.747,2.747,0,0,1,.918,2.207v3.664a4.041,4.041,0,0,0,.336,1.82V17ZM89.66,15.43a1.945,1.945,0,0,0,.922-.223,1.462,1.462,0,0,0,.625-.6V13.156h-.844q-1.7,0-1.8,1.172l-.008.133a.9.9,0,0,0,.3.7A1.153,1.153,0,0,0,89.66,15.43Zm5.2-2.719a5.094,5.094,0,0,1,.887-3.148,2.877,2.877,0,0,1,2.426-1.172,2.589,2.589,0,0,1,2.039.922V5h2.266V17h-2.039l-.109-.9a2.657,2.657,0,0,1-2.172,1.055,2.869,2.869,0,0,1-2.395-1.176A5.258,5.258,0,0,1,94.855,12.711Zm2.258.168a3.337,3.337,0,0,0,.414,1.823,1.349,1.349,0,0,0,1.2.634,1.511,1.511,0,0,0,1.477-.884V11.111a1.489,1.489,0,0,0-1.461-.884Q97.113,10.227,97.113,12.879Z" transform="translate(13632 -8726)" fill="#12263f"/>
    <g id="Elipse_13716" data-name="Elipse 13716" transform="translate(13766 -8865)" fill="#fff" stroke="#ffd54e" stroke-width="4">
      <circle cx="25.5" cy="25.5" r="25.5" stroke="none"/>
      <circle cx="25.5" cy="25.5" r="23.5" fill="none"/>
    </g>
    <g id="Elipse_13715" data-name="Elipse 13715" transform="translate(13766 -8784)" fill="#fff" stroke="#ffd54e" stroke-width="4">
      <circle cx="25.5" cy="25.5" r="25.5" stroke="none"/>
      <circle cx="25.5" cy="25.5" r="23.5" fill="none"/>
    </g>
    <g id="Elipse_13714" data-name="Elipse 13714" transform="translate(13766 -8699)" fill="#fff" stroke="#ffd54e" stroke-width="4">
      <circle cx="25.5" cy="25.5" r="25.5" stroke="none"/>
      <circle cx="25.5" cy="25.5" r="23.5" fill="none"/>
    </g>
    <g id="Grupo_1190725" data-name="Grupo 1190725" transform="translate(13777 -8848.24)">
      <g id="Grupo_1190674" data-name="Grupo 1190674" clip-path="url(#clip-path-18)">
        <path id="Trazado_998570" data-name="Trazado 998570" d="M24.764,17.473l-19.627.009A5.241,5.241,0,0,1,0,12.309,5.294,5.294,0,0,1,4.415,7.066a7,7,0,0,1,13-3.668,5.259,5.259,0,0,1,5.18-.178,5.336,5.336,0,0,1,2.77,3.837,5.288,5.288,0,0,1,4.477,5.255,5.212,5.212,0,0,1-5.08,5.161" transform="translate(0 -0.001)" fill="#ffdc6b"/>
      </g>
    </g>
    <g id="Grupo_1190724" data-name="Grupo 1190724" transform="translate(13777 -8767.241)">
      <g id="Grupo_1190674-2" data-name="Grupo 1190674" clip-path="url(#clip-path-18)">
        <path id="Trazado_998570-2" data-name="Trazado 998570" d="M24.764,17.473l-19.627.009A5.241,5.241,0,0,1,0,12.309,5.294,5.294,0,0,1,4.415,7.066a7,7,0,0,1,13-3.668,5.259,5.259,0,0,1,5.18-.178,5.336,5.336,0,0,1,2.77,3.837,5.288,5.288,0,0,1,4.477,5.255,5.212,5.212,0,0,1-5.08,5.161" transform="translate(0 -0.001)" fill="#ffdc6b"/>
      </g>
    </g>
    <g id="Grupo_1190678" data-name="Grupo 1190678" transform="translate(13777 -8682.241)">
      <g id="Grupo_1190674-3" data-name="Grupo 1190674" clip-path="url(#clip-path-18)">
        <path id="Trazado_998570-3" data-name="Trazado 998570" d="M24.764,17.473l-19.627.009A5.241,5.241,0,0,1,0,12.309,5.294,5.294,0,0,1,4.415,7.066a7,7,0,0,1,13-3.668,5.259,5.259,0,0,1,5.18-.178,5.336,5.336,0,0,1,2.77,3.837,5.288,5.288,0,0,1,4.477,5.255,5.212,5.212,0,0,1-5.08,5.161" transform="translate(0 -0.001)" fill="#ffdc6b"/>
      </g>
    </g>
  </g>
</svg>
