<svg xmlns="http://www.w3.org/2000/svg" xmlns:xlink="http://www.w3.org/1999/xlink" width="150.001" height="150.001" viewBox="0 0 150.001 150.001">
  <defs>
    <clipPath id="clip-path">
      <rect id="Rect치ngulo_455566" data-name="Rect치ngulo 455566" width="78.587" height="87.823" fill="#5a5858"/>
    </clipPath>
  </defs>
  <g id="Grupo_1190407" data-name="Grupo 1190407" transform="translate(-305.059 -9426)">
    <g id="Grupo_1177670" data-name="Grupo 1177670" transform="translate(0 0.001)">
      <path id="Trazado_997691" data-name="Trazado 997691" d="M75,0A75,75,0,1,1,0,75,75,75,0,0,1,75,0Z" transform="translate(455.059 9425.999) rotate(90)" fill="#cbcbcb"/>
      <path id="Sustracci칩n_109" data-name="Sustracci칩n 109" d="M21524.061,11862h0v-150a75,75,0,1,1,0,150Z" transform="translate(12167.058 -12023.059) rotate(90)" fill="#5a5858"/>
      <path id="Trazado_997692" data-name="Trazado 997692" d="M67.738,0A67.738,67.738,0,1,1,0,67.738,67.738,67.738,0,0,1,67.738,0Z" transform="translate(312.32 9433.262)" fill="#fff"/>
      <g id="Grupo_1190830" data-name="Grupo 1190830" transform="translate(340.765 9453.262)">
        <g id="Grupo_1190829" data-name="Grupo 1190829" clip-path="url(#clip-path)">
          <path id="Trazado_998908" data-name="Trazado 998908" d="M90.775,44.992c-.843-1.291-3.883-1.427-5.182-.74L79.675,56.61a1.321,1.321,0,0,1-1.314.808,1.452,1.452,0,0,1-1.238-.769l-3.2-5.445-6.488,1a1.537,1.537,0,0,1-1.22-.39,1.322,1.322,0,0,1-.311-1.322l5.874-12.811c-3.243-.815-5.374-3.3-5.1-6.508a41.3,41.3,0,0,0,.376-4.482,18.68,18.68,0,0,0-1.6-3.462,6.08,6.08,0,0,1,1.337-7.783c2.506-2.222,3.059-2.583,3.616-6.02a6.238,6.238,0,0,1,6.7-5.467,7.511,7.511,0,0,0,5.85-2.1,6.319,6.319,0,0,1,8.953-.017,7.518,7.518,0,0,0,5.852,2.113,6.252,6.252,0,0,1,6.718,5.458c.6,3.65,1.123,3.755,3.736,6.154a6.052,6.052,0,0,1,1.225,7.648c-2.382,4.394-1.531,3.35-1.229,7.915a5.9,5.9,0,0,1-3.975,6.133l4.684,11.063a1.407,1.407,0,0,1-.241,1.455,1.6,1.6,0,0,1-1.418.478l-6.283-1.274-3.442,5.452a1.472,1.472,0,0,1-1.277.678c-1.775-.066-3.214-6.659-5.481-10.132m5.376-4.425c2.51-3.972,2.521-4.049,6.911-5.832a3.281,3.281,0,0,0,2.3-3.58c-.516-4.594-.858-4.914,1.46-9.03,2.239-3.977-2.044-4.877-3.865-8a13.985,13.985,0,0,1-1.315-4.342c-.9-4.459-4.811-2.24-8.172-3.577A15.191,15.191,0,0,1,89.74,3.737c-3.356-2.7-5.042,1.2-8.366,2.49C78.068,7.51,74.1,5.366,73.222,9.8c-.921,4.663-1.244,4.714-4.573,7.782a3.335,3.335,0,0,0-.692,4.345c2.17,4.041,2.228,4.318,1.566,9.029-.575,4.094,3.774,3.6,6.445,5.878a15.724,15.724,0,0,1,2.754,3.715c2.233,3.507,5.02.574,8.557.449s6.58,3.193,8.872-.434m2.936,6.052c.969-1.518,4.22.341,6.081.155l-3.611-8.342c-3.335,2.231-2.379,5.4-7.354,6.733l2.365,5.4ZM78.307,52.8l3.556-7.644c-4.9-.253-4.829-2.784-7.559-5.943L69.784,48.86c2.81.126,4.976-1.814,6.287.317A28.807,28.807,0,0,0,78.307,52.8" transform="translate(-46.291 -0.001)" fill="#5a5858"/>
          <path id="Trazado_998909" data-name="Trazado 998909" d="M123.7,44.052a14.058,14.058,0,1,1-14.058-14.058A14.058,14.058,0,0,1,123.7,44.052m-2.839,0a11.219,11.219,0,1,0-11.219,11.219,11.219,11.219,0,0,0,11.219-11.219" transform="translate(-68.494 -21.494)" fill="#5a5858"/>
          <path id="Trazado_998910" data-name="Trazado 998910" d="M120.5,70.285,116.6,66.392a1.4,1.4,0,0,1-.16-1.918c1.667-1.945,3.529,1.852,5.2,2.826l8.626-7.812a1.4,1.4,0,0,1,2,.164,1.373,1.373,0,0,1-.145,1.948L122.5,70.349a1.476,1.476,0,0,1-2-.065" transform="translate(-83.222 -42.376)" fill="#5a5858"/>
          <path id="Trazado_998911" data-name="Trazado 998911" d="M160.386,163.293c-1.817-.014-3.269-1.057-3.368-2.794a21.058,21.058,0,0,1,.1-4.709c.319-1.861,2.167-2.637,4.151-2.367l.131-11.2a8.252,8.252,0,0,1,3.484-6.729c2.569-2.3,5.255-4.314,7.476-6.959a4.967,4.967,0,0,1,7.513-.471l.023-14.211a13.259,13.259,0,0,1,.795-4.771,4.9,4.9,0,0,1,5.687-3.412c2.622.635,3.946,2.668,4.022,5.363l.637,22.643a9.684,9.684,0,0,1-2.647,7.487L178.045,151.5c-.434.434-.718,1.964.033,1.982,1.8.043,3.787.41,4.112,2.444a23.033,23.033,0,0,1,.022,4.941,2.945,2.945,0,0,1-2.966,2.571Zm6.425-25.736a5.916,5.916,0,0,0-2.582,4.931l-.012,10.969,10.62.014a8.187,8.187,0,0,1,.244-2.985l11.168-11.17a7.071,7.071,0,0,0,1.96-5.618l-.7-22.951a2.134,2.134,0,0,0-1.644-2.274c-2.6-.642-3.138,3.359-3.131,5.382l.047,13.312a9.309,9.309,0,0,1-2.368,6.29,74.933,74.933,0,0,1-6.456,6.533,1.451,1.451,0,0,1-1.831-.19,1.489,1.489,0,0,1,.022-1.91l5.337-5.383a1.863,1.863,0,0,0,.186-2.508,1.824,1.824,0,0,0-2.564-.149,80.913,80.913,0,0,1-8.3,7.707m-6.991,18.669-.036,4.272,19.663.166.036-4.272Z" transform="translate(-112.46 -75.63)" fill="#5a5858"/>
          <path id="Trazado_998912" data-name="Trazado 998912" d="M173.96,289.075a1.128,1.128,0,1,1-1.128-1.128,1.128,1.128,0,0,1,1.128,1.128" transform="translate(-123.042 -206.341)" fill="#5a5858"/>
          <path id="Trazado_998913" data-name="Trazado 998913" d="M34.028,160.55a3.056,3.056,0,0,1-3.235,2.787l-18.981.166a2.971,2.971,0,0,1-2.98-2.58,23.665,23.665,0,0,1,.019-4.931c.319-2.116,2.35-2.324,4.1-2.495,1-.1.268-1.759-.221-2.247L2.519,141.055a9.513,9.513,0,0,1-2.512-7.33l.643-22.35c.066-2.289.62-4.058,2.61-5.119a4.7,4.7,0,0,1,5.8.792,8.284,8.284,0,0,1,2.015,5.57l.105,15.494a4.953,4.953,0,0,1,7.5.471c2.219,2.65,4.911,4.657,7.477,6.958a8.262,8.262,0,0,1,3.482,6.731l.13,11.194c1.986-.242,3.835.507,4.152,2.373a21.116,21.116,0,0,1,.1,4.71M15.71,129.735c-.733-.75-2.128-.075-2.455.463a1.9,1.9,0,0,0,.307,2.359l5.333,5.386a1.452,1.452,0,0,1-.266,2.158,1.611,1.611,0,0,1-2-.424c-2.052-2.047-4.131-3.941-5.989-6.153a9.4,9.4,0,0,1-2.38-6.307l.05-13.31c.008-2.025-.519-6-3.131-5.376A2.118,2.118,0,0,0,3.539,110.8l-.7,22.949A7.067,7.067,0,0,0,4.8,139.366l11.13,11.2c.658.662.077,1.912.3,2.95l10.628-.051-.028-10.917a6.214,6.214,0,0,0-2.641-5.026,87.292,87.292,0,0,1-8.473-7.788m15.515,26.543-19.661.158.034,4.274,19.661-.158Z" transform="translate(0 -75.679)" fill="#5a5858"/>
          <path id="Trazado_998914" data-name="Trazado 998914" d="M99.878,289.073a1.129,1.129,0,1,1-1.129-1.129,1.129,1.129,0,0,1,1.129,1.129" transform="translate(-69.955 -206.339)" fill="#5a5858"/>
        </g>
      </g>
    </g>
    <path id="Trazado_997694" data-name="Trazado 997694" d="M471.93,424.642a3.111,3.111,0,1,1,3.115,3.124,3.113,3.113,0,0,1-3.115-3.124m-13.442,0a3.115,3.115,0,1,1,3.115,3.124,3.114,3.114,0,0,1-3.115-3.124m-13.44,0a3.115,3.115,0,1,1,3.115,3.124,3.118,3.118,0,0,1-3.115-3.124" transform="translate(868.572 8985.952) rotate(90)" fill="#5a5858"/>
    <g id="Grupo_1177672" data-name="Grupo 1177672" transform="translate(326.305 9552.477) rotate(90)">
      <path id="Trazado_997699" data-name="Trazado 997699" d="M0,24.325l1.629,1.6,7.17-7.29,6.879,7.274,1.661-1.571-8.507-9Z" transform="translate(0 -6.575)" fill="#636363"/>
      <path id="Trazado_997700" data-name="Trazado 997700" d="M8.832,0,0,8.979l1.629,1.6L8.8,3.293l6.879,7.273L17.34,9Z" fill="#636363"/>
    </g>
  </g>
</svg>
