<svg xmlns="http://www.w3.org/2000/svg" xmlns:xlink="http://www.w3.org/1999/xlink" width="150.001" height="150.001" viewBox="0 0 150.001 150.001">
  <defs>
    <clipPath id="clip-path">
      <rect id="Rect치ngulo_455593" data-name="Rect치ngulo 455593" width="71.542" height="66.44" fill="#5a5858"/>
    </clipPath>
  </defs>
  <g id="Grupo_1190590" data-name="Grupo 1190590" transform="translate(-305.059 -9426)">
    <g id="Grupo_1177670" data-name="Grupo 1177670" transform="translate(0 0.001)">
      <path id="Trazado_997691" data-name="Trazado 997691" d="M75,0A75,75,0,1,1,0,75,75,75,0,0,1,75,0Z" transform="translate(455.059 9425.999) rotate(90)" fill="#cbcbcb"/>
      <path id="Sustracci칩n_109" data-name="Sustracci칩n 109" d="M21524.061,11862h0v-150a75,75,0,1,1,0,150Z" transform="translate(12167.058 -12023.059) rotate(90)" fill="#5a5858"/>
      <path id="Trazado_997692" data-name="Trazado 997692" d="M67.738,0A67.738,67.738,0,1,1,0,67.738,67.738,67.738,0,0,1,67.738,0Z" transform="translate(312.32 9433.262)" fill="#fff"/>
      <g id="Grupo_1190886" data-name="Grupo 1190886" transform="translate(344.288 9467.78)">
        <g id="Grupo_1190885" data-name="Grupo 1190885" clip-path="url(#clip-path)">
          <path id="Trazado_999060" data-name="Trazado 999060" d="M2.568,12.777l-.017,46,45.958,0a1.192,1.192,0,0,1,1.272,1.154A1.251,1.251,0,0,1,48.5,61.319L1.321,61.33C.556,61.192,0,60.838,0,59.98V1.313A1.245,1.245,0,0,1,1.329,0L70.216,0A1.242,1.242,0,0,1,71.54,1.314l0,58.666A1.272,1.272,0,1,1,69,59.99l-.014-47.213ZM20.439,2.538H2.551v7.684H20.439Zm48.552,0h-46v7.684h46Z" fill="#5a5858"/>
          <path id="Trazado_999061" data-name="Trazado 999061" d="M139.672,22.543l-38.253,0a1.25,1.25,0,0,1-1.275-1.172A1.212,1.212,0,0,1,101.412,20l38.263,0a1.2,1.2,0,0,1,1.266,1.154,1.253,1.253,0,0,1-1.27,1.392" transform="translate(-74.551 -14.887)" fill="#5a5858"/>
          <path id="Trazado_999062" data-name="Trazado 999062" d="M22.577,21.255A1.258,1.258,0,1,1,21.319,20a1.258,1.258,0,0,1,1.258,1.258" transform="translate(-14.935 -14.887)" fill="#5a5858"/>
          <path id="Trazado_999063" data-name="Trazado 999063" d="M42.577,21.255A1.258,1.258,0,1,1,41.319,20a1.258,1.258,0,0,1,1.258,1.258" transform="translate(-29.824 -14.887)" fill="#5a5858"/>
          <path id="Trazado_999064" data-name="Trazado 999064" d="M62.577,21.255A1.258,1.258,0,1,1,61.319,20a1.258,1.258,0,0,1,1.258,1.258" transform="translate(-44.713 -14.887)" fill="#5a5858"/>
          <path id="Trazado_999065" data-name="Trazado 999065" d="M117.123,111.407a4.026,4.026,0,1,1-5.618,5.756L99.492,105.039c-.286-.745-.447-2.7-1.644-2.457a17.9,17.9,0,1,1,4.77-4.771c-.152,1.127,1.64,1.486,2.486,1.673ZM103.132,87.771a15.323,15.323,0,1,0-15.323,15.323,15.323,15.323,0,0,0,15.323-15.323m-2.323,12.248-.744.744,1.162,1.162.744-.745ZM113.5,115.457a1.385,1.385,0,0,0,2.047-.091,1.428,1.428,0,0,0-.047-1.906L104.48,102.429a8.681,8.681,0,0,0-2.008,2.008Z" transform="translate(-52.041 -52.01)" fill="#5a5858"/>
          <path id="Trazado_999066" data-name="Trazado 999066" d="M36.3,127.67a1.267,1.267,0,1,1,.118,2.531c-1.723.06-3.382.053-5.109,0a1.268,1.268,0,0,1-1.264-1.269v-7.661a1.236,1.236,0,0,1,1.26-1.254l5.115-.005a1.2,1.2,0,0,1,1.235,1.142,1.216,1.216,0,0,1-1.233,1.378l-3.838.024.016,5.1Z" transform="translate(-22.368 -89.347)" fill="#5a5858"/>
          <path id="Trazado_999067" data-name="Trazado 999067" d="M226.479,130.2c-2.471.086-6.233.544-6.352-1.151a1.2,1.2,0,0,1,1.237-1.364l3.82-.031.015-5.1-3.832-.022a1.257,1.257,0,0,1,0-2.513l5.116-.01a1.238,1.238,0,0,1,1.255,1.262v7.659a1.266,1.266,0,0,1-1.258,1.268" transform="translate(-163.874 -89.341)" fill="#5a5858"/>
          <path id="Trazado_999068" data-name="Trazado 999068" d="M121.687,107.534l-15.3,0a1.25,1.25,0,0,1-1.254-1.164,1.217,1.217,0,0,1,1.247-1.368L121.691,105a1.209,1.209,0,0,1,1.245,1.151,1.249,1.249,0,0,1-1.249,1.385" transform="translate(-78.262 -78.167)" fill="#5a5858"/>
          <path id="Trazado_999069" data-name="Trazado 999069" d="M106.581,127.533l-10.205,0a1.24,1.24,0,0,1-1.249-1.159,1.215,1.215,0,0,1,1.242-1.366L106.584,125a1.208,1.208,0,0,1,1.239,1.149,1.241,1.241,0,0,1-1.243,1.381" transform="translate(-70.815 -93.06)" fill="#5a5858"/>
          <path id="Trazado_999070" data-name="Trazado 999070" d="M146.581,147.533l-10.205,0a1.24,1.24,0,0,1-1.249-1.159,1.215,1.215,0,0,1,1.242-1.366L146.584,145a1.208,1.208,0,0,1,1.239,1.149,1.241,1.241,0,0,1-1.243,1.381" transform="translate(-100.594 -107.95)" fill="#5a5858"/>
          <path id="Trazado_999071" data-name="Trazado 999071" d="M114.023,167.484h-7.654a1.243,1.243,0,0,1-1.249-1.38c.053-.753.645-1.157,1.491-1.158l7.166-.007c.847,0,1.433.408,1.488,1.164a1.242,1.242,0,0,1-1.243,1.379" transform="translate(-78.256 -122.793)" fill="#5a5858"/>
          <path id="Trazado_999072" data-name="Trazado 999072" d="M161.471,127.479c-1.715.055-3.391.056-5.1,0a1.245,1.245,0,0,1-1.246-1.378c.053-.746.643-1.156,1.49-1.157l4.613-.007c.847,0,1.433.414,1.486,1.163a1.243,1.243,0,0,1-1.24,1.377" transform="translate(-115.481 -93.013)" fill="#5a5858"/>
          <path id="Trazado_999073" data-name="Trazado 999073" d="M101.471,147.479c-1.715.055-3.391.057-5.1,0a1.245,1.245,0,0,1-1.247-1.378c.053-.746.643-1.156,1.49-1.157l4.613-.007c.847,0,1.433.414,1.486,1.163a1.242,1.242,0,0,1-1.24,1.377" transform="translate(-70.813 -107.902)" fill="#5a5858"/>
          <path id="Trazado_999074" data-name="Trazado 999074" d="M158.926,167.379c-1.592.106-3.691.332-3.8-1.151a1.212,1.212,0,0,1,1.238-1.359c1.8-.059,3.684-.351,3.791,1.134a1.235,1.235,0,0,1-1.233,1.376" transform="translate(-115.486 -122.693)" fill="#5a5858"/>
        </g>
      </g>
    </g>
    <path id="Trazado_997694" data-name="Trazado 997694" d="M471.93,424.642a3.111,3.111,0,1,1,3.115,3.124,3.113,3.113,0,0,1-3.115-3.124m-13.442,0a3.115,3.115,0,1,1,3.115,3.124,3.114,3.114,0,0,1-3.115-3.124m-13.44,0a3.115,3.115,0,1,1,3.115,3.124,3.118,3.118,0,0,1-3.115-3.124" transform="translate(868.572 8985.952) rotate(90)" fill="#5a5858"/>
    <g id="Grupo_1177672" data-name="Grupo 1177672" transform="translate(326.305 9552.477) rotate(90)">
      <path id="Trazado_997699" data-name="Trazado 997699" d="M0,24.325l1.629,1.6,7.17-7.29,6.879,7.274,1.661-1.571-8.507-9Z" transform="translate(0 -6.575)" fill="#636363"/>
      <path id="Trazado_997700" data-name="Trazado 997700" d="M8.832,0,0,8.979l1.629,1.6L8.8,3.293l6.879,7.273L17.34,9Z" fill="#636363"/>
    </g>
  </g>
</svg>
