<svg xmlns="http://www.w3.org/2000/svg" width="85" height="66.329" viewBox="0 0 85 66.329">
  <g id="Grupo_1190390" data-name="Grupo 1190390" transform="translate(-706 -410)">
    <path id="Trazado_997744" data-name="Trazado 997744" d="M280.559,1066.346a32.665,32.665,0,1,1-32.665,32.665,32.665,32.665,0,0,1,32.665-32.665" transform="translate(458.106 -656.346)" fill="#ffcc01"/>
    <path id="Trazado_997745" data-name="Trazado 997745" d="M297.282,1092.034V1118.8a8.871,8.871,0,0,0,8.871,8.871h8.408l5.08,7.665a1.85,1.85,0,0,0,3.084,0l5.081-7.665h8.408a8.871,8.871,0,0,0,8.871-8.871v-26.769a8.871,8.871,0,0,0-8.871-8.871h-30.06A8.871,8.871,0,0,0,297.282,1092.034Z" transform="translate(444.917 -660.837)" fill="none" stroke="#231f20" stroke-miterlimit="10" stroke-width="2"/>
  </g>
</svg>
