<svg xmlns="http://www.w3.org/2000/svg" xmlns:xlink="http://www.w3.org/1999/xlink" width="1020" height="418" viewBox="0 0 1020 418">
  <defs>
    <clipPath id="clip-path">
      <rect id="Rectángulo_455463" data-name="Rectángulo 455463" width="436" height="336" rx="30" transform="translate(374 3219)" fill="#fff8e1"/>
    </clipPath>
    <clipPath id="clip-path-2">
      <rect id="Rectángulo_455461" data-name="Rectángulo 455461" width="347.577" height="337.803" fill="none"/>
    </clipPath>
    <clipPath id="clip-path-4">
      <rect id="Rectángulo_455447" data-name="Rectángulo 455447" width="23.987" height="21.431" fill="none"/>
    </clipPath>
    <clipPath id="clip-path-5">
      <rect id="Rectángulo_455448" data-name="Rectángulo 455448" width="5.785" height="11.631" fill="none"/>
    </clipPath>
    <clipPath id="clip-path-7">
      <rect id="Rectángulo_455450" data-name="Rectángulo 455450" width="19.166" height="49.218" fill="none"/>
    </clipPath>
    <clipPath id="clip-path-8">
      <rect id="Rectángulo_455451" data-name="Rectángulo 455451" width="2.121" height="0.059" fill="none"/>
    </clipPath>
    <clipPath id="clip-path-9">
      <rect id="Rectángulo_455452" data-name="Rectángulo 455452" width="27.415" height="48.972" fill="none"/>
    </clipPath>
    <clipPath id="clip-path-10">
      <rect id="Rectángulo_455453" data-name="Rectángulo 455453" width="60.84" height="90.413" fill="none"/>
    </clipPath>
    <clipPath id="clip-path-11">
      <rect id="Rectángulo_455454" data-name="Rectángulo 455454" width="56.054" height="92.768" fill="none"/>
    </clipPath>
    <clipPath id="clip-path-12">
      <rect id="Rectángulo_455455" data-name="Rectángulo 455455" width="5.445" height="68.972" fill="none"/>
    </clipPath>
    <clipPath id="clip-path-14">
      <rect id="Rectángulo_455457" data-name="Rectángulo 455457" width="79.02" height="93.783" fill="none"/>
    </clipPath>
    <clipPath id="clip-path-15">
      <rect id="Rectángulo_455458" data-name="Rectángulo 455458" width="79.021" height="93.783" fill="none"/>
    </clipPath>
    <clipPath id="clip-path-16">
      <rect id="Rectángulo_455459" data-name="Rectángulo 455459" width="51.817" height="141.414" fill="none"/>
    </clipPath>
    <clipPath id="clip-path-17">
      <rect id="Rectángulo_455472" data-name="Rectángulo 455472" width="23.028" height="30.715" fill="#674a11"/>
    </clipPath>
    <clipPath id="clip-path-18">
      <rect id="Rectángulo_455473" data-name="Rectángulo 455473" width="29.845" height="17.482" fill="#ffdc6b"/>
    </clipPath>
  </defs>
  <g id="Grupo_1190965" data-name="Grupo 1190965" transform="translate(-290 -2313.991)">
    <rect id="Rectángulo_454992" data-name="Rectángulo 454992" width="1020" height="418" rx="14" transform="translate(290 2313.991)" fill="#ffedb1"/>
    <rect id="Rectángulo_455462" data-name="Rectángulo 455462" width="436" height="336" rx="30" transform="translate(349 2366.991)" fill="#fff8e1"/>
    <rect id="Rectángulo_455464" data-name="Rectángulo 455464" width="436" height="336" rx="30" transform="translate(815 2366.991)" fill="#fff8e1"/>
    <g id="Enmascarar_grupo_1177437" data-name="Enmascarar grupo 1177437" transform="translate(-25 -852.009)" clip-path="url(#clip-path)">
      <g id="Grupo_1190669" data-name="Grupo 1190669" transform="translate(425 3244)">
        <g id="Grupo_1190668" data-name="Grupo 1190668" clip-path="url(#clip-path-2)">
          <g id="Grupo_1190667" data-name="Grupo 1190667">
            <g id="Grupo_1190666" data-name="Grupo 1190666" clip-path="url(#clip-path-2)">
              <path id="Trazado_998495" data-name="Trazado 998495" d="M349.661,255.583l2.911-15.048a3.507,3.507,0,0,1,3.444-2.842h.065a3.508,3.508,0,0,1,3.507,3.508V252.13Z" transform="translate(-69.289 -47.101)" fill="#e28b7d"/>
              <path id="Trazado_998496" data-name="Trazado 998496" d="M315.733,259.465s7.864-6.667,12.676-8.471c2.175-3.055,3.619-5.165,4.577-6.619a3.99,3.99,0,0,1,5.265-1.291l.057.032a4,4,0,0,1,2.047,3.858l-.994,10.971-24.1,2" transform="translate(-62.471 -48.07)" fill="#e28b7d"/>
              <path id="Trazado_998497" data-name="Trazado 998497" d="M65.537,255.583l-2.911-15.048a3.507,3.507,0,0,0-3.444-2.842h-.065a3.508,3.508,0,0,0-3.507,3.508V252.13Z" transform="translate(-11.019 -47.101)" fill="#e28b7d"/>
              <path id="Trazado_998498" data-name="Trazado 998498" d="M95.712,259.465s-7.864-6.667-12.676-8.471c-2.175-3.055-3.619-5.165-4.577-6.619a3.99,3.99,0,0,0-5.265-1.291l-.057.032a4,4,0,0,0-2.047,3.858l.994,10.971,24.1,2" transform="translate(-14.084 -48.07)" fill="#e28b7d"/>
              <path id="Trazado_998499" data-name="Trazado 998499" d="M133.047,216.439s-21.585,10.53-22.638,24.217-2.632,37.9-2.632,37.9L91.941,256.732a18.592,18.592,0,0,0-12.523-7.541c-4.481-.609-9.7-.208-13.23,3.574L53.027,247.5l-3.132-8.352a4.387,4.387,0,0,0-5.818-2.5l-.079.034a4.387,4.387,0,0,0-2.5,5.282l5.209,17.644s5.791,10.184,28.428,11.146c13.306,23.341,23.24,40.236,30.59,52.415a16.874,16.874,0,0,0,30.483-3.456l2.1-6.408Z" transform="translate(-8.188 -42.889)" fill="#ffa08c"/>
              <line id="Línea_3289" data-name="Línea 3289" x2="17.373" y2="23.69" transform="translate(99.59 235.671)" fill="none" stroke="#c43627" stroke-miterlimit="10" stroke-width="0.985"/>
              <path id="Trazado_998500" data-name="Trazado 998500" d="M125.226,266.209c.541-8.01,1.25-18.272,1.811-25.553,1.053-13.687,22.637-24.217,22.637-24.217l3,55.26c-6.21-2.535-17.331-6.265-27.451-5.489" transform="translate(-24.815 -42.889)" fill="#c43627"/>
              <path id="Trazado_998501" data-name="Trazado 998501" d="M260.635,216.439s21.585,10.53,22.638,24.217,2.632,37.9,2.632,37.9l15.837-21.828a18.592,18.592,0,0,1,12.523-7.541c4.482-.609,9.7-.208,13.23,3.574l13.161-5.265,3.132-8.352a4.387,4.387,0,0,1,5.818-2.5l.079.034a4.387,4.387,0,0,1,2.5,5.282l-5.209,17.644s-5.791,10.184-28.428,11.146c-13.306,23.341-23.24,40.236-30.59,52.415a16.874,16.874,0,0,1-30.483-3.456l-2.1-6.408Z" transform="translate(-50.604 -42.889)" fill="#ffa08c"/>
              <line id="Línea_3290" data-name="Línea 3290" x1="17.373" y2="23.69" transform="translate(217.928 235.671)" fill="none" stroke="#c43627" stroke-miterlimit="10" stroke-width="0.985"/>
              <path id="Trazado_998502" data-name="Trazado 998502" d="M285.641,266.209c-.541-8.01-1.25-18.272-1.811-25.553-1.053-13.687-22.637-24.217-22.637-24.217l-3,55.26c6.21-2.535,17.331-6.265,27.451-5.489" transform="translate(-51.163 -42.889)" fill="#c43627"/>
              <path id="Trazado_998503" data-name="Trazado 998503" d="M208.6,194.773,198.3,205.829l-10.294-11.056-32.292,17.373V369.028S171.4,376.4,198.3,376.4s42.586-7.371,42.586-7.371V212.146Z" transform="translate(-30.856 -38.596)" fill="#ed4e38"/>
              <path id="Trazado_998504" data-name="Trazado 998504" d="M210.992,194.773,200.7,205.829,190.4,194.773l-22.6,12.157c3.361,6.664,12.794,20.615,32.89,20.615,18.493,0,27.7-13.335,31.568-21.327Z" transform="translate(-33.252 -38.596)" fill="#a02920"/>
              <path id="Trazado_998505" data-name="Trazado 998505" d="M228.527,203.382l-16-8.609-10.294,11.056-10.295-11.056-16.389,8.818c7.043,9.858,16.285,15.851,26.414,15.851,10.2,0,19.5-6.075,26.565-16.06" transform="translate(-34.786 -38.596)" fill="#ffa08c"/>
              <path id="Trazado_998506" data-name="Trazado 998506" d="M187.64,147.91l-1.883-18.757,9.944.065-2.276,20.114Z" transform="translate(-36.809 -25.593)" fill="#7a150a"/>
              <path id="Trazado_998507" data-name="Trazado 998507" d="M226.068,145.358l1.338-12.056a15.333,15.333,0,0,0-15.239-17.025h-.173l4.5,21.194,6.365,10.346Z" transform="translate(-42.009 -23.041)" fill="#7a150a"/>
              <path id="Trazado_998508" data-name="Trazado 998508" d="M187.848,133.521s-11.3-9.122-10.8-23.168,7.109-11.539,14.09-3.763c3.219,2.258,6.969,2.258,2.836-1.505s6.39-3.172,10.66,1.821c6.2,7.253,16.2,6.087,10.486,21.95s-27.27,4.666-27.27,4.666" transform="translate(-35.08 -19.872)" fill="#5d1408"/>
              <path id="Trazado_998509" data-name="Trazado 998509" d="M217.839,198.175V175.009l-11.994,2.832-11.993-2.832v23.166s-.123,2.07-.032,5.651c.4,15.57,23.653,15.57,24.051,0,.091-3.581-.032-5.651-.032-5.651" transform="translate(-38.4 -34.68)" fill="#ffa08c"/>
              <g id="Grupo_1190629" data-name="Grupo 1190629" transform="translate(155.451 140.329)" style="mix-blend-mode: multiply;isolation: isolate">
                <g id="Grupo_1190628" data-name="Grupo 1190628">
                  <g id="Grupo_1190627" data-name="Grupo 1190627" clip-path="url(#clip-path-4)">
                    <path id="Trazado_998510" data-name="Trazado 998510" d="M193.868,175.009V196.44c10.135-2.287,20.791-11.2,23.987-14.032v-7.4l-11.993,2.832Z" transform="translate(-193.868 -175.009)" fill="#6d3e3b"/>
                  </g>
                </g>
              </g>
              <path id="Trazado_998511" data-name="Trazado 998511" d="M185.841,158.434c.521,3.194,2.614,5.51,4.674,5.174s3.307-3.2,2.785-6.392-2.614-5.511-4.674-5.174-3.307,3.2-2.785,6.392" transform="translate(-36.802 -30.122)" fill="#ffa08c"/>
              <path id="Trazado_998512" data-name="Trazado 998512" d="M192.419,160.1c-.522-3.195-2.614-5.511-4.674-5.174a2.975,2.975,0,0,0-1.988,1.432c.173-2.276,1.277-4.06,2.875-4.32,2.06-.337,4.153,1.98,4.674,5.174a7.212,7.212,0,0,1-.8,4.96,8.763,8.763,0,0,0-.091-2.072" transform="translate(-36.809 -30.122)" fill="#ffa08c"/>
              <g id="Grupo_1190632" data-name="Grupo 1190632" transform="translate(150.83 121.888)" style="mix-blend-mode: multiply;isolation: isolate">
                <g id="Grupo_1190631" data-name="Grupo 1190631">
                  <g id="Grupo_1190630" data-name="Grupo 1190630" clip-path="url(#clip-path-5)">
                    <path id="Trazado_998513" data-name="Trazado 998513" d="M188.1,152.439a2.552,2.552,0,0,1,.993-.4c2.06-.336,4.153,1.981,4.674,5.174s-.725,6.056-2.785,6.392a2.79,2.79,0,0,1-1.922-.428q-.467-4.691-.96-10.741" transform="translate(-188.105 -152.01)" fill="#af7579"/>
                  </g>
                </g>
              </g>
              <path id="Trazado_998514" data-name="Trazado 998514" d="M229.908,158.434c-.522,3.194-2.614,5.51-4.674,5.174s-3.307-3.2-2.785-6.392,2.614-5.511,4.674-5.174,3.307,3.2,2.785,6.392" transform="translate(-44.057 -30.122)" fill="#ffa08c"/>
              <path id="Trazado_998515" data-name="Trazado 998515" d="M223.337,160.1c.522-3.195,2.614-5.511,4.674-5.174A2.975,2.975,0,0,1,230,156.362c-.174-2.276-1.278-4.06-2.875-4.32-2.06-.337-4.153,1.98-4.674,5.174a7.212,7.212,0,0,0,.8,4.96,8.762,8.762,0,0,1,.091-2.072" transform="translate(-44.057 -30.122)" fill="#ffa08c"/>
              <g id="Grupo_1190635" data-name="Grupo 1190635" transform="translate(178.274 121.888)" style="mix-blend-mode: multiply;isolation: isolate">
                <g id="Grupo_1190634" data-name="Grupo 1190634">
                  <g id="Grupo_1190633" data-name="Grupo 1190633" clip-path="url(#clip-path-5)">
                    <path id="Trazado_998516" data-name="Trazado 998516" d="M228.116,152.439a2.552,2.552,0,0,0-.993-.4c-2.06-.336-4.153,1.981-4.674,5.174s.725,6.056,2.785,6.392a2.788,2.788,0,0,0,1.922-.428q.468-4.691.96-10.741" transform="translate(-222.331 -152.01)" fill="#af7579"/>
                  </g>
                </g>
              </g>
              <path id="Trazado_998517" data-name="Trazado 998517" d="M215.185,127.109a43.727,43.727,0,0,0-10.206-.676,43.727,43.727,0,0,0-10.206.676,6.615,6.615,0,0,0-5.347,6.916c.73,12.1,1.6,21.533,2.32,28.187a15.114,15.114,0,0,0,13,13.348l.229.031.229-.031a15.114,15.114,0,0,0,13-13.348c.723-6.654,1.59-16.084,2.319-28.187a6.614,6.614,0,0,0-5.347-6.916" transform="translate(-37.534 -25.042)" fill="#ffa08c"/>
              <g id="Grupo_1190638" data-name="Grupo 1190638" transform="translate(163.844 101.332)" opacity="0.49">
                <g id="Grupo_1190637" data-name="Grupo 1190637">
                  <g id="Grupo_1190636" data-name="Grupo 1190636" clip-path="url(#clip-path-7)">
                    <path id="Trazado_998518" data-name="Trazado 998518" d="M204.976,126.433s.544-.042,1.48-.055c-.572-.009-1.291-.006-2.121.022.413.016.641.034.641.034" transform="translate(-204.335 -126.374)" fill="#fff"/>
                    <path id="Trazado_998519" data-name="Trazado 998519" d="M218.666,127.109a45.007,45.007,0,0,0-9.565-.71,44.661,44.661,0,0,1,6.6.71,6.615,6.615,0,0,1,5.347,6.916c-.73,12.1-1.6,21.533-2.32,28.187a15.114,15.114,0,0,1-11.753,13.125c.411.091.827.166,1.251.223l.229.031.229-.031a15.114,15.114,0,0,0,13-13.348c.723-6.654,1.59-16.084,2.319-28.187a6.614,6.614,0,0,0-5.347-6.916" transform="translate(-204.859 -126.374)" fill="#fff"/>
                  </g>
                </g>
              </g>
              <g id="Grupo_1190641" data-name="Grupo 1190641" transform="translate(168.925 101.332)" style="mix-blend-mode: multiply;isolation: isolate">
                <g id="Grupo_1190640" data-name="Grupo 1190640">
                  <g id="Grupo_1190639" data-name="Grupo 1190639" clip-path="url(#clip-path-8)">
                    <path id="Trazado_998520" data-name="Trazado 998520" d="M212.152,126.433s-.544-.042-1.48-.055c.572-.009,1.291-.006,2.121.022-.413.016-.641.034-.641.034" transform="translate(-210.672 -126.374)" fill="#af7579"/>
                  </g>
                </g>
              </g>
              <path id="Trazado_998521" data-name="Trazado 998521" d="M213.4,151.116a5.164,5.164,0,0,1,4.948-3.938c4.039,0,4.341,2.524,4.341,2.524a8.99,8.99,0,0,1-9.289,1.414" transform="translate(-42.286 -29.165)" fill="#f8faec"/>
              <path id="Trazado_998522" data-name="Trazado 998522" d="M215.635,140.741a16.831,16.831,0,0,1,5.788-.358,1.557,1.557,0,0,0,1.715-1.543v-.031a1.552,1.552,0,0,0-1.347-1.539,26.724,26.724,0,0,0-6.837-.135,1.807,1.807,0,0,0-1.559,1.782V139a1.792,1.792,0,0,0,2.24,1.738" transform="translate(-42.286 -27.141)" fill="#862837"/>
              <path id="Trazado_998523" data-name="Trazado 998523" d="M201.96,151.116a5.164,5.164,0,0,0-4.947-3.938c-4.04,0-4.342,2.524-4.342,2.524a8.99,8.99,0,0,0,9.289,1.414" transform="translate(-38.18 -29.165)" fill="#f8faec"/>
              <path id="Trazado_998524" data-name="Trazado 998524" d="M199.608,140.741a16.828,16.828,0,0,0-5.787-.358,1.557,1.557,0,0,1-1.716-1.543v-.031a1.553,1.553,0,0,1,1.347-1.539,26.724,26.724,0,0,1,6.837-.135,1.807,1.807,0,0,1,1.559,1.782V139a1.792,1.792,0,0,1-2.24,1.738" transform="translate(-38.067 -27.141)" fill="#862837"/>
              <path id="Trazado_998525" data-name="Trazado 998525" d="M213.4,151.116s1.54-3.938,4.948-3.938a4.421,4.421,0,0,1,4.341,2.524" transform="translate(-42.286 -29.165)" fill="none" stroke="#5d1408" stroke-linecap="round" stroke-miterlimit="10" stroke-width="1.204"/>
              <path id="Trazado_998526" data-name="Trazado 998526" d="M202.283,151.116s-1.541-3.938-4.947-3.938a4.42,4.42,0,0,0-4.342,2.524" transform="translate(-38.244 -29.165)" fill="none" stroke="#5d1408" stroke-linecap="round" stroke-miterlimit="10" stroke-width="1.204"/>
              <path id="Trazado_998527" data-name="Trazado 998527" d="M206.846,155.612l-.54,6.8,3.5-1.425" transform="translate(-40.882 -30.836)" fill="none" stroke="#5d1408" stroke-linecap="round" stroke-miterlimit="10" stroke-width="1.204"/>
              <path id="Trazado_998528" data-name="Trazado 998528" d="M204.335,169.127a59.451,59.451,0,0,0,8.052-.658" transform="translate(-40.491 -33.384)" fill="none" stroke="#5d1408" stroke-linecap="round" stroke-miterlimit="10" stroke-width="1.204"/>
              <path id="Trazado_998529" data-name="Trazado 998529" d="M214.9,148.843a3.473,3.473,0,0,0,3.07,2.914,8.9,8.9,0,0,0,2-.386,3.478,3.478,0,0,0,1.858-3.069c0-.109-.022-.212-.032-.318a5.414,5.414,0,0,0-3.158-.806,4.731,4.731,0,0,0-3.741,1.665" transform="translate(-42.584 -29.165)" fill="#5d1408"/>
              <path id="Trazado_998530" data-name="Trazado 998530" d="M200.976,148.843a3.473,3.473,0,0,1-3.07,2.914,8.9,8.9,0,0,1-2-.386,3.478,3.478,0,0,1-1.858-3.069c0-.109.022-.212.032-.318a5.414,5.414,0,0,1,3.158-.806,4.731,4.731,0,0,1,3.741,1.665" transform="translate(-38.452 -29.165)" fill="#5d1408"/>
              <g id="Grupo_1190644" data-name="Grupo 1190644" transform="translate(155.595 101.332)" opacity="0.22" style="mix-blend-mode: overlay;isolation: isolate">
                <g id="Grupo_1190643" data-name="Grupo 1190643">
                  <g id="Grupo_1190642" data-name="Grupo 1190642" clip-path="url(#clip-path-9)">
                    <path id="Trazado_998531" data-name="Trazado 998531" d="M216.1,127.109a43.727,43.727,0,0,0-10.206-.676,43.727,43.727,0,0,0-10.206.676,6.426,6.426,0,0,0-1.006.279c-1.023,10.573-2.772,42.514,12.643,47.957a15.112,15.112,0,0,0,11.8-13.133c.723-6.654,1.59-16.084,2.32-28.187a6.615,6.615,0,0,0-5.347-6.916" transform="translate(-194.047 -126.374)" fill="#fff"/>
                  </g>
                </g>
              </g>
              <g id="Grupo_1190647" data-name="Grupo 1190647" transform="translate(94.612 157.103)" opacity="0.41" style="mix-blend-mode: multiply;isolation: isolate">
                <g id="Grupo_1190646" data-name="Grupo 1190646">
                  <g id="Grupo_1190645" data-name="Grupo 1190645" clip-path="url(#clip-path-10)">
                    <path id="Trazado_998532" data-name="Trazado 998532" d="M117.995,285.357l0,0Z" transform="translate(-117.993 -213.649)" fill="#af7579"/>
                    <path id="Trazado_998533" data-name="Trazado 998533" d="M180.064,200.585l-.022-4.657-30.57,16.447s-21.585,10.529-22.638,24.216c-1.033,13.426-2.571,36.965-2.629,37.862l8.683,11.887s-1.956-44.485,1.643-53,45.533-32.754,45.533-32.754" transform="translate(-119.224 -195.928)" fill="#af7579"/>
                  </g>
                </g>
              </g>
              <g id="Grupo_1190650" data-name="Grupo 1190650" transform="translate(179.246 156.988)" opacity="0.6" style="mix-blend-mode: overlay;isolation: isolate">
                <g id="Grupo_1190649" data-name="Grupo 1190649">
                  <g id="Grupo_1190648" data-name="Grupo 1190648" clip-path="url(#clip-path-11)">
                    <path id="Trazado_998534" data-name="Trazado 998534" d="M279.6,274.468s-1.58-24.216-2.632-37.9-22.637-24.216-22.637-24.216l-30.785-16.563s39.2,27.746,41.507,33.6,4.218,59.165,4.218,59.165Z" transform="translate(-223.543 -195.784)" fill="#fff"/>
                  </g>
                </g>
              </g>
              <path id="Trazado_998535" data-name="Trazado 998535" d="M155.716,244.057v11.575c34.463,2.136,69.829.739,85.172-.08V244.265c-34.791,2.252-71.226.6-85.172-.208" transform="translate(-30.857 -48.362)" fill="#c43627"/>
              <path id="Trazado_998536" data-name="Trazado 998536" d="M155.716,280.392v11.575c34.463,2.136,69.829.739,85.172-.08V280.6c-34.791,2.252-71.226.6-85.172-.208" transform="translate(-30.857 -55.562)" fill="#c43627"/>
              <g id="Grupo_1190653" data-name="Grupo 1190653" transform="translate(210.031 217.772)" opacity="0.79" style="mix-blend-mode: multiply;isolation: isolate">
                <g id="Grupo_1190652" data-name="Grupo 1190652">
                  <g id="Grupo_1190651" data-name="Grupo 1190651" clip-path="url(#clip-path-12)">
                    <path id="Trazado_998537" data-name="Trazado 998537" d="M267.381,340.562l-5.446-68.972v64.759a16.455,16.455,0,0,0,5.446,4.213" transform="translate(-261.936 -271.59)" fill="#5d1408"/>
                  </g>
                </g>
              </g>
              <g id="Grupo_1190656" data-name="Grupo 1190656" transform="translate(119.414 217.772)" opacity="0.79" style="mix-blend-mode: multiply;isolation: isolate">
                <g id="Grupo_1190655" data-name="Grupo 1190655">
                  <g id="Grupo_1190654" data-name="Grupo 1190654" clip-path="url(#clip-path-12)">
                    <path id="Trazado_998538" data-name="Trazado 998538" d="M148.925,340.562l5.445-68.972v64.759a16.461,16.461,0,0,1-5.445,4.213" transform="translate(-148.925 -271.59)" fill="#5d1408"/>
                  </g>
                </g>
              </g>
              <g id="Grupo_1190659" data-name="Grupo 1190659" transform="translate(33.133 194.649)" opacity="0.41" style="mix-blend-mode: multiply;isolation: isolate">
                <g id="Grupo_1190658" data-name="Grupo 1190658">
                  <g id="Grupo_1190657" data-name="Grupo 1190657" clip-path="url(#clip-path-14)">
                    <path id="Trazado_998539" data-name="Trazado 998539" d="M120.341,336.535c-.772-22.908-37.946-68.545-37.946-68.545s-25.27-3.167-29.617-5.144c-3.168-1.44-7.8-13.6-10.082-20.093a4.383,4.383,0,0,0-1.2,4.426l5.209,17.644s5.791,10.184,28.428,11.146c13.306,23.341,23.24,40.237,30.59,52.414a16.6,16.6,0,0,0,14.613,8.151" transform="translate(-41.321 -242.753)" fill="#af7579"/>
                  </g>
                </g>
              </g>
              <g id="Grupo_1190662" data-name="Grupo 1190662" transform="translate(222.737 194.649)" opacity="0.33" style="mix-blend-mode: overlay;isolation: isolate">
                <g id="Grupo_1190661" data-name="Grupo 1190661">
                  <g id="Grupo_1190660" data-name="Grupo 1190660" clip-path="url(#clip-path-15)">
                    <path id="Trazado_998540" data-name="Trazado 998540" d="M277.782,336.535c.772-22.908,37.946-68.545,37.946-68.545s25.27-3.167,29.617-5.144c3.168-1.44,7.8-13.6,10.082-20.093a4.383,4.383,0,0,1,1.2,4.426l-5.209,17.644s-5.791,10.184-28.428,11.146c-13.306,23.341-23.24,40.237-30.59,52.414a16.6,16.6,0,0,1-14.613,8.151" transform="translate(-277.782 -242.753)" fill="#fff"/>
                  </g>
                </g>
              </g>
              <g id="Grupo_1190665" data-name="Grupo 1190665" transform="translate(158.214 195.903)" opacity="0.6" style="mix-blend-mode: overlay;isolation: isolate">
                <g id="Grupo_1190664" data-name="Grupo 1190664">
                  <g id="Grupo_1190663" data-name="Grupo 1190663" clip-path="url(#clip-path-16)">
                    <path id="Trazado_998541" data-name="Trazado 998541" d="M209.085,308.731c3.72-17.276-34.159,38.082,9.26,77,19.632-1.642,30.785-6.884,30.785-6.884V244.316s-8.767,64.239-27.021,85.434-16.744-3.741-13.024-21.019" transform="translate(-197.314 -244.316)" fill="#fff"/>
                  </g>
                </g>
              </g>
              <path id="Trazado_998542" data-name="Trazado 998542" d="M343.665,201.673c0,8.847-11.545,16.018-25.786,16.018s-25.786-7.171-25.786-16.018,11.545-16.018,25.786-16.018,25.786,7.171,25.786,16.018" transform="translate(-57.881 -36.789)" fill="#fc9d83"/>
              <path id="Trazado_998543" data-name="Trazado 998543" d="M308.313,217.683,298.759,231.8l21.922-10.932Z" transform="translate(-59.202 -43.136)" fill="#fc9d83"/>
              <path id="Trazado_998544" data-name="Trazado 998544" d="M420.729,201.358c0,8.847-11.545,16.018-25.786,16.018s-25.786-7.171-25.786-16.018S380.7,185.34,394.944,185.34s25.786,7.171,25.786,16.018" transform="translate(-73.152 -36.727)" fill="#ffedb1"/>
              <path id="Trazado_998560" data-name="Trazado 998560" d="M420.729,201.358c0,8.847-11.545,16.018-25.786,16.018s-25.786-7.171-25.786-16.018S380.7,185.34,394.944,185.34s25.786,7.171,25.786,16.018" transform="translate(-155.386 -91.58)" fill="#ffedb1"/>
              <path id="Trazado_998545" data-name="Trazado 998545" d="M385.376,217.368l-9.554,14.116,21.921-10.932Z" transform="translate(-74.473 -43.073)" fill="#ffedb1"/>
              <path id="Trazado_998561" data-name="Trazado 998561" d="M385.376,217.368l-9.554,14.116,21.921-10.932Z" transform="translate(-156.707 -97.927)" fill="#ffedb1"/>
              <g id="Grupo_1190670" data-name="Grupo 1190670" transform="translate(66.405 120.78)">
                <path id="Trazado_998564" data-name="Trazado 998564" d="M369.158,201.358c0,8.847,11.545,16.018,25.786,16.018s25.786-7.171,25.786-16.018-11.545-16.018-25.786-16.018-25.786,7.171-25.786,16.018" transform="translate(-369.158 -185.34)" fill="#ffedb1"/>
                <path id="Trazado_998565" data-name="Trazado 998565" d="M388.189,217.368l9.554,14.116-21.921-10.932Z" transform="translate(-351.515 -191.687)" fill="#ffedb1"/>
              </g>
              <g id="Grupo_1190671" data-name="Grupo 1190671" transform="translate(98 38.805)">
                <path id="Trazado_998564-2" data-name="Trazado 998564" d="M369.158,201.358c0,8.847,11.545,16.018,25.786,16.018s25.786-7.171,25.786-16.018-11.545-16.018-25.786-16.018-25.786,7.171-25.786,16.018" transform="translate(-369.158 -185.34)" fill="#c1e4dd"/>
                <path id="Trazado_998565-2" data-name="Trazado 998565" d="M388.189,217.368l9.554,14.116-21.921-10.932Z" transform="translate(-351.515 -191.687)" fill="#c1e4dd"/>
              </g>
              <path id="Trazado_998546" data-name="Trazado 998546" d="M1.121,78.013c0,11.059,14.432,20.024,32.234,20.024s32.234-8.965,32.234-20.024S51.157,57.989,33.355,57.989,1.121,66.954,1.121,78.013" transform="translate(-0.222 -11.491)" fill="#fed2c7"/>
              <path id="Trazado_998547" data-name="Trazado 998547" d="M54.474,98.027l11.943,17.646-27.4-13.667Z" transform="translate(-7.731 -19.425)" fill="#fed2c7"/>
              <path id="Trazado_998548" data-name="Trazado 998548" d="M165.335,26.037c0,14.379,18.766,26.037,41.915,26.037s41.915-11.657,41.915-26.037S230.4,0,207.25,0s-41.915,11.657-41.915,26.037" transform="translate(-32.763)" fill="#ffdc6b"/>
              <path id="Trazado_998549" data-name="Trazado 998549" d="M234.712,52.062l-19.87,29.627-.233-24.453Z" transform="translate(-42.527 -10.317)" fill="#ffdc6b"/>
              <path id="Trazado_998550" data-name="Trazado 998550" d="M83.311,35.364c0,9.793,12.78,17.732,28.545,17.732S140.4,45.157,140.4,35.364s-12.781-17.732-28.546-17.732S83.311,25.571,83.311,35.364" transform="translate(-16.509 -3.494)" fill="#743320"/>
              <path id="Trazado_998551" data-name="Trazado 998551" d="M130.558,53.088l10.576,15.626-24.267-12.1Z" transform="translate(-23.158 -10.52)" fill="#743320"/>
              <path id="Trazado_998552" data-name="Trazado 998552" d="M0,176.719c0,11.816,15.419,21.394,34.441,21.394s34.441-9.578,34.441-21.394-15.42-21.394-34.441-21.394S0,164.9,0,176.719" transform="translate(0 -30.779)" fill="#8dcdc1"/>
              <path id="Trazado_998553" data-name="Trazado 998553" d="M57.006,198.1l12.761,18.854-29.28-14.6Z" transform="translate(-8.023 -39.256)" fill="#8dcdc1"/>
              <path id="Trazado_998562" data-name="Trazado 998562" d="M306.84,46.231c0,5.087-6.638,9.21-14.827,9.21s-14.827-4.124-14.827-9.21,6.639-9.21,14.827-9.21,14.827,4.124,14.827,9.21" transform="translate(-91.364 26.026)" fill="#f7e0db"/>
              <path id="Trazado_998563" data-name="Trazado 998563" d="M280.4,72.477l-12.389,17.53,19.5-15.7Z" transform="translate(-86.009 5.337)" fill="#f7e0db"/>
              <path id="Trazado_998556" data-name="Trazado 998556" d="M384.5,117.168c0,14.379-18.766,26.037-41.915,26.037s-41.915-11.657-41.915-26.037,18.766-26.037,41.915-26.037S384.5,102.788,384.5,117.168" transform="translate(-59.581 -18.058)" fill="#fdb03e"/>
              <path id="Trazado_998557" data-name="Trazado 998557" d="M327.038,143.193l-15.53,22.945,35.633-17.77Z" transform="translate(-61.728 -28.375)" fill="#fdb03e"/>
              <path id="Trazado_998558" data-name="Trazado 998558" d="M64.594,121.643c0,14.379,18.765,26.037,41.915,26.037s41.915-11.657,41.915-26.037-18.766-26.037-41.915-26.037-41.915,11.657-41.915,26.037" transform="translate(-12.8 -18.945)" fill="#fc9d83"/>
              <path id="Trazado_998559" data-name="Trazado 998559" d="M133.971,147.668l15.53,22.945-35.633-17.77Z" transform="translate(-22.564 -29.262)" fill="#fc9d83"/>
              <path id="Trazado_998555" data-name="Trazado 998555" d="M291.86,72.477l-23.852,33.749L305.55,76Z" transform="translate(-53.108 -14.362)" fill="#fed2c7"/>
              <path id="Trazado_998554" data-name="Trazado 998554" d="M334.276,54.753c0,9.793-12.78,17.732-28.546,17.732s-28.545-7.939-28.545-17.732,12.781-17.732,28.545-17.732,28.546,7.939,28.546,17.732" transform="translate(-54.927 -7.336)" fill="#fed2c7"/>
            </g>
          </g>
        </g>
      </g>
    </g>
    <rect id="Rectángulo_455138" data-name="Rectángulo 455138" width="228" height="37" rx="18.5" transform="translate(453 2340.991)" fill="#674a11"/>
    <path id="Trazado_999194" data-name="Trazado 999194" d="M8.294,16h5.288v2H5.8V5.914h2.49Zm10.691,2.167a4.409,4.409,0,0,1-3.217-1.212,4.308,4.308,0,0,1-1.241-3.229v-.232a5.426,5.426,0,0,1,.523-2.42,3.838,3.838,0,0,1,1.482-1.644,4.159,4.159,0,0,1,2.187-.577,3.727,3.727,0,0,1,2.9,1.162,4.722,4.722,0,0,1,1.058,3.3v.979H16.96a2.229,2.229,0,0,0,.7,1.411,2.12,2.12,0,0,0,1.482.531,2.589,2.589,0,0,0,2.167-1l1.179,1.32a3.6,3.6,0,0,1-1.461,1.191A4.793,4.793,0,0,1,18.986,18.166Zm-.274-7.379a1.5,1.5,0,0,0-1.158.484,2.5,2.5,0,0,0-.569,1.384h3.337v-.192a1.786,1.786,0,0,0-.432-1.238A1.547,1.547,0,0,0,18.712,10.787Zm7.537-1.768.075,1.038a3.136,3.136,0,0,1,2.582-1.2,2.606,2.606,0,0,1,2.125.838,3.912,3.912,0,0,1,.714,2.507V18h-2.4V12.256a1.556,1.556,0,0,0-.332-1.108,1.486,1.486,0,0,0-1.1-.344,1.65,1.65,0,0,0-1.519.863V18h-2.4V9.019Zm6.964,4.424a5.264,5.264,0,0,1,.984-3.329,3.187,3.187,0,0,1,2.652-1.262,2.8,2.8,0,0,1,2.3,1.013l.1-.847h2.175V17.7a3.839,3.839,0,0,1-.535,2.05,3.439,3.439,0,0,1-1.507,1.328,5.3,5.3,0,0,1-2.274.457,4.925,4.925,0,0,1-1.926-.394,3.418,3.418,0,0,1-1.419-1.017l1.063-1.461a2.81,2.81,0,0,0,2.175,1,2.057,2.057,0,0,0,1.486-.51,1.915,1.915,0,0,0,.531-1.448v-.481a2.775,2.775,0,0,1-2.183.938A3.179,3.179,0,0,1,34.214,16.9a5.262,5.262,0,0,1-1-3.358Zm2.4.179a3.278,3.278,0,0,0,.49,1.916,1.558,1.558,0,0,0,1.345.694,1.666,1.666,0,0,0,1.569-.823V11.626a1.662,1.662,0,0,0-1.552-.823,1.568,1.568,0,0,0-1.357.707A3.694,3.694,0,0,0,35.612,13.621Zm13.032,3.465a3.008,3.008,0,0,1-2.457,1.079,2.837,2.837,0,0,1-2.2-.83,3.543,3.543,0,0,1-.776-2.432V9.019h2.4v5.809q0,1.4,1.278,1.4a1.732,1.732,0,0,0,1.677-.848V9.019h2.407V18H48.711ZM57.983,18a2.664,2.664,0,0,1-.241-.805,2.9,2.9,0,0,1-2.266.971,3.189,3.189,0,0,1-2.187-.764,2.456,2.456,0,0,1-.867-1.926,2.538,2.538,0,0,1,1.058-2.191,5.222,5.222,0,0,1,3.059-.772h1.1V12a1.48,1.48,0,0,0-.32-1,1.257,1.257,0,0,0-1.009-.374,1.429,1.429,0,0,0-.95.291.987.987,0,0,0-.344.8h-2.4a2.41,2.41,0,0,1,.481-1.444A3.182,3.182,0,0,1,54.463,9.23a4.961,4.961,0,0,1,1.976-.378,3.92,3.92,0,0,1,2.635.834,2.918,2.918,0,0,1,.975,2.345v3.893a4.294,4.294,0,0,0,.357,1.934V18ZM56,16.332a2.066,2.066,0,0,0,.979-.237,1.554,1.554,0,0,0,.664-.635V13.916h-.9q-1.8,0-1.917,1.245l-.008.141a.96.96,0,0,0,.315.739A1.225,1.225,0,0,0,56,16.332Zm8.434-7.313V18.49a3.213,3.213,0,0,1-.789,2.312,3,3,0,0,1-2.274.826,4.878,4.878,0,0,1-1.187-.141v-1.9a4.5,4.5,0,0,0,.755.075q1.087,0,1.087-1.154V9.019Zm-2.6-2.324a1.181,1.181,0,0,1,.361-.888,1.562,1.562,0,0,1,1.967,0,1.181,1.181,0,0,1,.361.888,1.178,1.178,0,0,1-.369.9,1.539,1.539,0,0,1-1.951,0A1.178,1.178,0,0,1,61.834,6.694Zm8.608,11.472a4.409,4.409,0,0,1-3.217-1.212,4.308,4.308,0,0,1-1.241-3.229v-.232a5.426,5.426,0,0,1,.523-2.42A3.838,3.838,0,0,1,67.99,9.429a4.159,4.159,0,0,1,2.187-.577,3.727,3.727,0,0,1,2.9,1.162,4.722,4.722,0,0,1,1.058,3.3v.979H68.417a2.229,2.229,0,0,0,.7,1.411,2.12,2.12,0,0,0,1.482.531,2.589,2.589,0,0,0,2.167-1l1.179,1.32a3.6,3.6,0,0,1-1.461,1.191A4.793,4.793,0,0,1,70.442,18.166Zm-.274-7.379a1.5,1.5,0,0,0-1.158.484,2.5,2.5,0,0,0-.569,1.384h3.337v-.192a1.786,1.786,0,0,0-.432-1.238A1.547,1.547,0,0,0,70.168,10.787ZM81.939,9.019l.075,1.038a3.136,3.136,0,0,1,2.582-1.2,2.606,2.606,0,0,1,2.125.838,3.912,3.912,0,0,1,.714,2.507V18h-2.4V12.256a1.556,1.556,0,0,0-.332-1.108,1.486,1.486,0,0,0-1.1-.344,1.65,1.65,0,0,0-1.519.863V18h-2.4V9.019ZM94.457,18a2.664,2.664,0,0,1-.241-.805,2.9,2.9,0,0,1-2.266.971,3.189,3.189,0,0,1-2.187-.764,2.456,2.456,0,0,1-.867-1.926,2.538,2.538,0,0,1,1.058-2.191,5.222,5.222,0,0,1,3.059-.772h1.1V12a1.48,1.48,0,0,0-.32-1,1.257,1.257,0,0,0-1.009-.374,1.429,1.429,0,0,0-.95.291.987.987,0,0,0-.344.8h-2.4a2.41,2.41,0,0,1,.481-1.444A3.182,3.182,0,0,1,90.937,9.23a4.961,4.961,0,0,1,1.976-.378,3.92,3.92,0,0,1,2.635.834,2.918,2.918,0,0,1,.975,2.345v3.893a4.294,4.294,0,0,0,.357,1.934V18Zm-1.984-1.668a2.066,2.066,0,0,0,.979-.237,1.554,1.554,0,0,0,.664-.635V13.916h-.9q-1.8,0-1.917,1.245l-.008.141a.96.96,0,0,0,.315.739A1.225,1.225,0,0,0,92.473,16.332Zm8.766-9.521V9.019h1.536v1.76h-1.536v4.482a1.07,1.07,0,0,0,.191.714.959.959,0,0,0,.73.216,3.826,3.826,0,0,0,.706-.058V17.95a4.938,4.938,0,0,1-1.453.216,2.29,2.29,0,0,1-2.573-2.548V10.778H97.528V9.019h1.312V6.811Zm8.251,10.276a3.008,3.008,0,0,1-2.457,1.079,2.837,2.837,0,0,1-2.2-.83,3.543,3.543,0,0,1-.776-2.432V9.019h2.4v5.809q0,1.4,1.278,1.4a1.732,1.732,0,0,0,1.677-.848V9.019h2.407V18h-2.258Zm9.181-5.819a6.517,6.517,0,0,0-.863-.066,1.757,1.757,0,0,0-1.785.921V18h-2.4V9.019h2.266l.066,1.071a2.223,2.223,0,0,1,2-1.237,2.514,2.514,0,0,1,.747.108ZM124.779,18a2.664,2.664,0,0,1-.241-.805,2.9,2.9,0,0,1-2.266.971,3.189,3.189,0,0,1-2.187-.764,2.456,2.456,0,0,1-.867-1.926,2.538,2.538,0,0,1,1.058-2.191,5.222,5.222,0,0,1,3.059-.772h1.1V12a1.48,1.48,0,0,0-.32-1,1.257,1.257,0,0,0-1.009-.374,1.429,1.429,0,0,0-.95.291.987.987,0,0,0-.344.8h-2.4a2.41,2.41,0,0,1,.481-1.444A3.182,3.182,0,0,1,121.26,9.23a4.961,4.961,0,0,1,1.976-.378,3.92,3.92,0,0,1,2.635.834,2.918,2.918,0,0,1,.975,2.345v3.893a4.294,4.294,0,0,0,.357,1.934V18ZM122.8,16.332a2.066,2.066,0,0,0,.979-.237,1.554,1.554,0,0,0,.664-.635V13.916h-.9q-1.8,0-1.917,1.245l-.008.141a.96.96,0,0,0,.315.739A1.225,1.225,0,0,0,122.8,16.332ZM131.221,18h-2.407V5.25h2.407Z" transform="translate(499 2347.991)" fill="#fff"/>
    <rect id="Rectángulo_455138-2" data-name="Rectángulo 455138" width="228" height="37" rx="18.5" transform="translate(919 2340.991)" fill="#674a11"/>
    <path id="Trazado_999193" data-name="Trazado 999193" d="M4.492,16H9.78v2H2V5.914h2.49Zm10.691,2.167a4.409,4.409,0,0,1-3.217-1.212,4.308,4.308,0,0,1-1.241-3.229v-.232a5.426,5.426,0,0,1,.523-2.42,3.838,3.838,0,0,1,1.482-1.644,4.159,4.159,0,0,1,2.187-.577,3.727,3.727,0,0,1,2.9,1.162,4.722,4.722,0,0,1,1.058,3.3v.979H13.158a2.229,2.229,0,0,0,.7,1.411,2.12,2.12,0,0,0,1.482.531,2.589,2.589,0,0,0,2.167-1l1.179,1.32a3.6,3.6,0,0,1-1.461,1.191A4.793,4.793,0,0,1,15.184,18.166Zm-.274-7.379a1.5,1.5,0,0,0-1.158.484,2.5,2.5,0,0,0-.569,1.384H16.52v-.192a1.786,1.786,0,0,0-.432-1.238A1.547,1.547,0,0,0,14.91,10.787Zm7.537-1.768.075,1.038a3.136,3.136,0,0,1,2.582-1.2,2.606,2.606,0,0,1,2.125.838,3.912,3.912,0,0,1,.714,2.507V18h-2.4V12.256a1.556,1.556,0,0,0-.332-1.108,1.486,1.486,0,0,0-1.1-.344,1.65,1.65,0,0,0-1.519.863V18h-2.4V9.019Zm6.964,4.424a5.264,5.264,0,0,1,.984-3.329,3.187,3.187,0,0,1,2.652-1.262,2.8,2.8,0,0,1,2.3,1.013l.1-.847h2.175V17.7a3.839,3.839,0,0,1-.535,2.05,3.439,3.439,0,0,1-1.507,1.328,5.3,5.3,0,0,1-2.274.457,4.925,4.925,0,0,1-1.926-.394,3.418,3.418,0,0,1-1.419-1.017l1.063-1.461a2.81,2.81,0,0,0,2.175,1,2.057,2.057,0,0,0,1.486-.51,1.915,1.915,0,0,0,.531-1.448v-.481a2.775,2.775,0,0,1-2.183.938A3.179,3.179,0,0,1,30.411,16.9a5.262,5.262,0,0,1-1-3.358Zm2.4.179a3.278,3.278,0,0,0,.49,1.916,1.558,1.558,0,0,0,1.345.694,1.666,1.666,0,0,0,1.569-.823V11.626a1.662,1.662,0,0,0-1.552-.823,1.568,1.568,0,0,0-1.357.707A3.694,3.694,0,0,0,31.81,13.621Zm13.032,3.465a3.008,3.008,0,0,1-2.457,1.079,2.837,2.837,0,0,1-2.2-.83,3.543,3.543,0,0,1-.776-2.432V9.019h2.4v5.809q0,1.4,1.278,1.4a1.732,1.732,0,0,0,1.677-.848V9.019h2.407V18H44.909ZM54.181,18a2.664,2.664,0,0,1-.241-.805,2.9,2.9,0,0,1-2.266.971,3.189,3.189,0,0,1-2.187-.764,2.456,2.456,0,0,1-.867-1.926,2.538,2.538,0,0,1,1.058-2.191,5.222,5.222,0,0,1,3.059-.772h1.1V12a1.48,1.48,0,0,0-.32-1,1.257,1.257,0,0,0-1.009-.374,1.429,1.429,0,0,0-.95.291.987.987,0,0,0-.344.8h-2.4a2.41,2.41,0,0,1,.481-1.444A3.182,3.182,0,0,1,50.661,9.23a4.961,4.961,0,0,1,1.976-.378,3.92,3.92,0,0,1,2.635.834,2.918,2.918,0,0,1,.975,2.345v3.893a4.294,4.294,0,0,0,.357,1.934V18ZM52.2,16.332a2.066,2.066,0,0,0,.979-.237,1.554,1.554,0,0,0,.664-.635V13.916h-.9q-1.8,0-1.917,1.245l-.008.141a.96.96,0,0,0,.315.739A1.225,1.225,0,0,0,52.2,16.332ZM60.63,9.019V18.49a3.213,3.213,0,0,1-.789,2.312,3,3,0,0,1-2.274.826,4.878,4.878,0,0,1-1.187-.141v-1.9a4.5,4.5,0,0,0,.755.075q1.087,0,1.087-1.154V9.019Zm-2.6-2.324a1.181,1.181,0,0,1,.361-.888,1.562,1.562,0,0,1,1.967,0,1.181,1.181,0,0,1,.361.888,1.178,1.178,0,0,1-.369.9,1.539,1.539,0,0,1-1.951,0A1.178,1.178,0,0,1,58.032,6.694ZM66.64,18.166a4.409,4.409,0,0,1-3.217-1.212,4.308,4.308,0,0,1-1.241-3.229v-.232a5.426,5.426,0,0,1,.523-2.42,3.838,3.838,0,0,1,1.482-1.644,4.159,4.159,0,0,1,2.187-.577,3.727,3.727,0,0,1,2.9,1.162,4.722,4.722,0,0,1,1.058,3.3v.979H64.615a2.229,2.229,0,0,0,.7,1.411,2.12,2.12,0,0,0,1.482.531,2.589,2.589,0,0,0,2.167-1l1.179,1.32a3.6,3.6,0,0,1-1.461,1.191A4.793,4.793,0,0,1,66.64,18.166Zm-.274-7.379a1.5,1.5,0,0,0-1.158.484,2.5,2.5,0,0,0-.569,1.384h3.337v-.192a1.786,1.786,0,0,0-.432-1.238A1.547,1.547,0,0,0,66.366,10.787Zm13.3,5.445a1.573,1.573,0,0,0,1.079-.365,1.28,1.28,0,0,0,.432-.971h2.25a3.077,3.077,0,0,1-.5,1.673,3.286,3.286,0,0,1-1.341,1.179,4.2,4.2,0,0,1-1.88.419,3.9,3.9,0,0,1-3.038-1.224,4.845,4.845,0,0,1-1.112-3.383V13.4a4.79,4.79,0,0,1,1.1-3.312,3.854,3.854,0,0,1,3.03-1.237,3.778,3.778,0,0,1,2.7.959,3.4,3.4,0,0,1,1.033,2.552h-2.25a1.648,1.648,0,0,0-.432-1.139,1.6,1.6,0,0,0-2.362.173,3.541,3.541,0,0,0-.427,1.983v.249a3.586,3.586,0,0,0,.423,2A1.463,1.463,0,0,0,79.664,16.232Zm4.756-2.806a5.326,5.326,0,0,1,.515-2.382,3.768,3.768,0,0,1,1.482-1.619,4.323,4.323,0,0,1,2.245-.573A4.09,4.09,0,0,1,91.63,9.965a4.464,4.464,0,0,1,1.282,3.021l.017.614a4.694,4.694,0,0,1-1.154,3.316,4.472,4.472,0,0,1-6.2,0,4.777,4.777,0,0,1-1.158-3.387Zm2.4.17a3.357,3.357,0,0,0,.481,1.958,1.73,1.73,0,0,0,2.739.008,3.674,3.674,0,0,0,.49-2.141,3.324,3.324,0,0,0-.49-1.945,1.592,1.592,0,0,0-1.378-.69,1.566,1.566,0,0,0-1.361.686A3.736,3.736,0,0,0,86.819,13.6Zm9.795-4.578.075,1.038a3.136,3.136,0,0,1,2.582-1.2,2.606,2.606,0,0,1,2.125.838,3.912,3.912,0,0,1,.714,2.507V18h-2.4V12.256a1.556,1.556,0,0,0-.332-1.108,1.486,1.486,0,0,0-1.1-.344,1.65,1.65,0,0,0-1.519.863V18h-2.4V9.019ZM106.8,6.811V9.019h1.536v1.76H106.8v4.482a1.07,1.07,0,0,0,.191.714.959.959,0,0,0,.73.216,3.826,3.826,0,0,0,.706-.058V17.95a4.938,4.938,0,0,1-1.453.216,2.29,2.29,0,0,1-2.573-2.548V10.778h-1.312V9.019H104.4V6.811Zm7.919,4.458a6.517,6.517,0,0,0-.863-.066,1.757,1.757,0,0,0-1.785.921V18h-2.4V9.019h2.266L112,10.089a2.223,2.223,0,0,1,2-1.237,2.514,2.514,0,0,1,.747.108Zm.481,2.158a5.326,5.326,0,0,1,.515-2.382A3.768,3.768,0,0,1,117.2,9.425a4.323,4.323,0,0,1,2.245-.573,4.09,4.09,0,0,1,2.968,1.112,4.464,4.464,0,0,1,1.282,3.021l.017.614a4.694,4.694,0,0,1-1.154,3.316,4.472,4.472,0,0,1-6.2,0,4.777,4.777,0,0,1-1.158-3.387Zm2.4.17a3.357,3.357,0,0,0,.481,1.958,1.73,1.73,0,0,0,2.739.008,3.674,3.674,0,0,0,.49-2.141,3.324,3.324,0,0,0-.49-1.945,1.592,1.592,0,0,0-1.378-.69,1.566,1.566,0,0,0-1.361.686A3.736,3.736,0,0,0,117.6,13.6ZM127.717,18H125.31V5.25h2.407Zm7.18,0a2.664,2.664,0,0,1-.241-.805,2.9,2.9,0,0,1-2.266.971A3.189,3.189,0,0,1,130.2,17.4a2.456,2.456,0,0,1-.867-1.926,2.538,2.538,0,0,1,1.058-2.191,5.222,5.222,0,0,1,3.059-.772h1.1V12a1.48,1.48,0,0,0-.32-1,1.257,1.257,0,0,0-1.009-.374,1.429,1.429,0,0,0-.95.291.987.987,0,0,0-.344.8h-2.4a2.41,2.41,0,0,1,.481-1.444,3.182,3.182,0,0,1,1.361-1.042,4.961,4.961,0,0,1,1.976-.378,3.92,3.92,0,0,1,2.635.834,2.918,2.918,0,0,1,.975,2.345v3.893a4.294,4.294,0,0,0,.357,1.934V18Zm-1.984-1.668a2.066,2.066,0,0,0,.979-.237,1.554,1.554,0,0,0,.664-.635V13.916h-.9q-1.8,0-1.917,1.245l-.008.141a.96.96,0,0,0,.315.739A1.225,1.225,0,0,0,132.914,16.332Zm5.52-2.889a5.413,5.413,0,0,1,.942-3.345,3.057,3.057,0,0,1,2.577-1.245,2.751,2.751,0,0,1,2.167.979V5.25h2.407V18H144.36l-.116-.955a2.823,2.823,0,0,1-2.308,1.121,3.049,3.049,0,0,1-2.544-1.249A5.587,5.587,0,0,1,138.434,13.443Zm2.4.179a3.546,3.546,0,0,0,.44,1.937,1.433,1.433,0,0,0,1.278.673,1.605,1.605,0,0,0,1.569-.939v-3.55a1.582,1.582,0,0,0-1.552-.939Q140.833,10.8,140.833,13.621Zm7.18-.2a5.327,5.327,0,0,1,.515-2.382,3.767,3.767,0,0,1,1.482-1.619,4.323,4.323,0,0,1,2.245-.573,4.09,4.09,0,0,1,2.968,1.112,4.464,4.464,0,0,1,1.282,3.021l.017.614a4.694,4.694,0,0,1-1.154,3.316,4.472,4.472,0,0,1-6.2,0,4.777,4.777,0,0,1-1.158-3.387Zm2.4.17a3.357,3.357,0,0,0,.481,1.958,1.73,1.73,0,0,0,2.739.008,3.674,3.674,0,0,0,.49-2.141,3.324,3.324,0,0,0-.49-1.945,1.592,1.592,0,0,0-1.378-.69,1.566,1.566,0,0,0-1.361.686A3.735,3.735,0,0,0,150.412,13.6Z" transform="translate(954 2347.991)" fill="#fff"/>
    <path id="Trazado_998566" data-name="Trazado 998566" d="M15145-8360v157" transform="translate(-14112 10843.991)" fill="none" stroke="#ffd54e" stroke-width="5"/>
    <path id="Trazado_998567" data-name="Trazado 998567" d="M15145-8360v140.5" transform="translate(9341.5 17685.492) rotate(-90)" fill="none" stroke="#ffd54e" stroke-width="5"/>
    <path id="Trazado_998568" data-name="Trazado 998568" d="M15145-8360v140.5" transform="translate(9341.5 17769.492) rotate(-90)" fill="none" stroke="#ffd54e" stroke-width="5"/>
    <g id="Rectángulo_455471" data-name="Rectángulo 455471" transform="translate(905 2497.991)" fill="none" stroke="#ffd54e" stroke-width="5">
      <rect width="257" height="169" stroke="none"/>
      <rect x="2.5" y="2.5" width="252" height="164" fill="none"/>
    </g>
    <rect id="Rectángulo_455465" data-name="Rectángulo 455465" width="154" height="32" rx="16" transform="translate(956 2429.991)" fill="#ffd54e"/>
    <rect id="Rectángulo_455466" data-name="Rectángulo 455466" width="154" height="37" rx="18.5" transform="translate(828 2521.991)" fill="#ffd54e"/>
    <rect id="Rectángulo_455468" data-name="Rectángulo 455468" width="154" height="37" rx="18.5" transform="translate(828 2606.991)" fill="#ffd54e"/>
    <rect id="Rectángulo_455467" data-name="Rectángulo 455467" width="154" height="37" rx="18.5" transform="translate(1085 2521.991)" fill="#ffd54e"/>
    <rect id="Rectángulo_455469" data-name="Rectángulo 455469" width="154" height="37" rx="18.5" transform="translate(1085 2606.991)" fill="#ffd54e"/>
    <path id="Trazado_999195" data-name="Trazado 999195" d="M59.125,7.523H55.641V17H53.3V7.523H49.859v-1.9h9.266ZM64.2,17.156a4.15,4.15,0,0,1-3.027-1.141,4.054,4.054,0,0,1-1.168-3.039v-.219A5.106,5.106,0,0,1,60.5,10.48a3.612,3.612,0,0,1,1.395-1.547,3.914,3.914,0,0,1,2.059-.543,3.508,3.508,0,0,1,2.73,1.094,4.444,4.444,0,0,1,1,3.1v.922H62.3a2.1,2.1,0,0,0,.66,1.328,2,2,0,0,0,1.395.5,2.437,2.437,0,0,0,2.039-.945L67.5,15.633a3.389,3.389,0,0,1-1.375,1.121A4.511,4.511,0,0,1,64.2,17.156Zm-.258-6.945a1.411,1.411,0,0,0-1.09.455,2.357,2.357,0,0,0-.535,1.3h3.141v-.181a1.681,1.681,0,0,0-.406-1.165A1.456,1.456,0,0,0,63.945,10.211Zm9.594,4.453a.727.727,0,0,0-.41-.652,4.659,4.659,0,0,0-1.316-.426Q68.8,12.953,68.8,11.023a2.323,2.323,0,0,1,.934-1.879,3.766,3.766,0,0,1,2.441-.754,4.053,4.053,0,0,1,2.574.758,2.388,2.388,0,0,1,.965,1.969H73.453a1.092,1.092,0,0,0-.312-.8A1.322,1.322,0,0,0,72.164,10a1.351,1.351,0,0,0-.883.258.814.814,0,0,0-.312.656.7.7,0,0,0,.355.605,3.657,3.657,0,0,0,1.2.4,9.8,9.8,0,0,1,1.422.379,2.336,2.336,0,0,1,1.789,2.273,2.2,2.2,0,0,1-.992,1.871,4.28,4.28,0,0,1-2.562.715,4.47,4.47,0,0,1-1.887-.379A3.166,3.166,0,0,1,69,15.738a2.414,2.414,0,0,1-.469-1.426h2.141a1.179,1.179,0,0,0,.445.922,1.766,1.766,0,0,0,1.109.32,1.635,1.635,0,0,0,.98-.246A.766.766,0,0,0,73.539,14.664ZM82.086,17a2.507,2.507,0,0,1-.227-.758,2.732,2.732,0,0,1-2.133.914,3,3,0,0,1-2.059-.719,2.312,2.312,0,0,1-.816-1.812,2.389,2.389,0,0,1,1-2.062,4.915,4.915,0,0,1,2.879-.727h1.039v-.484a1.393,1.393,0,0,0-.3-.937,1.183,1.183,0,0,0-.949-.352,1.345,1.345,0,0,0-.895.273.929.929,0,0,0-.324.75H77.039a2.268,2.268,0,0,1,.453-1.359,3,3,0,0,1,1.281-.98,4.669,4.669,0,0,1,1.859-.355,3.689,3.689,0,0,1,2.48.785,2.747,2.747,0,0,1,.918,2.207v3.664a4.041,4.041,0,0,0,.336,1.82V17Zm-1.867-1.57a1.945,1.945,0,0,0,.922-.223,1.462,1.462,0,0,0,.625-.6V13.156h-.844q-1.7,0-1.8,1.172l-.008.133a.9.9,0,0,0,.3.7A1.153,1.153,0,0,0,80.219,15.43Zm10.609.711a2.831,2.831,0,0,1-2.312,1.016,2.67,2.67,0,0,1-2.074-.781,3.335,3.335,0,0,1-.73-2.289V8.547h2.258v5.467q0,1.322,1.2,1.322a1.63,1.63,0,0,0,1.578-.8V8.547h2.266V17H90.891Zm8.641-5.477a6.134,6.134,0,0,0-.812-.062,1.654,1.654,0,0,0-1.68.867V17H94.719V8.547h2.133l.063,1.008A2.092,2.092,0,0,1,98.8,8.391a2.366,2.366,0,0,1,.7.1Zm.453,2.031a5.013,5.013,0,0,1,.484-2.242A3.546,3.546,0,0,1,101.8,8.93a4.069,4.069,0,0,1,2.113-.539,3.849,3.849,0,0,1,2.793,1.047,4.2,4.2,0,0,1,1.207,2.844l.016.578a4.418,4.418,0,0,1-1.086,3.121,4.209,4.209,0,0,1-5.832,0,4.5,4.5,0,0,1-1.09-3.187Zm2.258.16a3.16,3.16,0,0,0,.453,1.843,1.628,1.628,0,0,0,2.578.008,3.457,3.457,0,0,0,.461-2.015,3.128,3.128,0,0,0-.461-1.831,1.5,1.5,0,0,0-1.3-.649,1.474,1.474,0,0,0-1.281.646A3.516,3.516,0,0,0,102.18,12.856Z" transform="translate(954 2434.991)" fill="#12263f"/>
    <path id="Trazado_999196" data-name="Trazado 999196" d="M11.965,12.836H10.1V17H7.754V5.625H11.98a4.778,4.778,0,0,1,3.109.9,3.1,3.1,0,0,1,1.094,2.539A3.5,3.5,0,0,1,15.68,11a3.437,3.437,0,0,1-1.527,1.238l2.461,4.648V17H14.1Zm-1.867-1.9h1.891a1.936,1.936,0,0,0,1.367-.449A1.606,1.606,0,0,0,13.84,9.25a1.719,1.719,0,0,0-.457-1.266,1.9,1.9,0,0,0-1.4-.461H10.1Zm11.609,6.219a4.15,4.15,0,0,1-3.027-1.141,4.054,4.054,0,0,1-1.168-3.039v-.219A5.106,5.106,0,0,1,18,10.48,3.612,3.612,0,0,1,19.4,8.934a3.914,3.914,0,0,1,2.059-.543,3.508,3.508,0,0,1,2.73,1.094,4.444,4.444,0,0,1,1,3.1v.922H19.8a2.1,2.1,0,0,0,.66,1.328,2,2,0,0,0,1.395.5,2.437,2.437,0,0,0,2.039-.945L25,15.633a3.389,3.389,0,0,1-1.375,1.121A4.511,4.511,0,0,1,21.707,17.156Zm-.258-6.945a1.411,1.411,0,0,0-1.09.455,2.357,2.357,0,0,0-.535,1.3h3.141v-.181a1.681,1.681,0,0,0-.406-1.165A1.456,1.456,0,0,0,21.449,10.211Zm8.531,5.125A1.481,1.481,0,0,0,31,14.992a1.2,1.2,0,0,0,.406-.914H33.52a2.9,2.9,0,0,1-.469,1.574,3.093,3.093,0,0,1-1.262,1.109,3.949,3.949,0,0,1-1.77.395A3.67,3.67,0,0,1,27.16,16a4.56,4.56,0,0,1-1.047-3.184v-.148a4.508,4.508,0,0,1,1.039-3.117A3.627,3.627,0,0,1,30,8.391a3.555,3.555,0,0,1,2.543.9,3.2,3.2,0,0,1,.973,2.4H31.4A1.551,1.551,0,0,0,31,10.623a1.51,1.51,0,0,0-2.223.163,3.333,3.333,0,0,0-.4,1.866v.235a3.375,3.375,0,0,0,.4,1.878A1.377,1.377,0,0,0,29.98,15.336Zm9.891.8a2.831,2.831,0,0,1-2.312,1.016,2.67,2.67,0,0,1-2.074-.781,3.335,3.335,0,0,1-.73-2.289V8.547h2.258v5.467q0,1.322,1.2,1.322a1.63,1.63,0,0,0,1.578-.8V8.547h2.266V17H39.934Zm8.641-5.477A6.134,6.134,0,0,0,47.7,10.6a1.654,1.654,0,0,0-1.68.867V17H43.762V8.547h2.133l.063,1.008A2.092,2.092,0,0,1,47.84,8.391a2.366,2.366,0,0,1,.7.1Zm5.664,4a.727.727,0,0,0-.41-.652,4.659,4.659,0,0,0-1.316-.426q-3.016-.633-3.016-2.562a2.323,2.323,0,0,1,.934-1.879,3.766,3.766,0,0,1,2.441-.754,4.053,4.053,0,0,1,2.574.758,2.388,2.388,0,0,1,.965,1.969H54.09a1.092,1.092,0,0,0-.312-.8A1.322,1.322,0,0,0,52.8,10a1.351,1.351,0,0,0-.883.258.814.814,0,0,0-.312.656.7.7,0,0,0,.355.605,3.657,3.657,0,0,0,1.2.4,9.8,9.8,0,0,1,1.422.379,2.336,2.336,0,0,1,1.789,2.273,2.2,2.2,0,0,1-.992,1.871,4.28,4.28,0,0,1-2.562.715,4.47,4.47,0,0,1-1.887-.379,3.166,3.166,0,0,1-1.293-1.039,2.414,2.414,0,0,1-.469-1.426h2.141a1.179,1.179,0,0,0,.445.922,1.766,1.766,0,0,0,1.109.32,1.635,1.635,0,0,0,.98-.246A.766.766,0,0,0,54.176,14.664Zm3.3-1.969a5.013,5.013,0,0,1,.484-2.242A3.546,3.546,0,0,1,59.352,8.93a4.069,4.069,0,0,1,2.113-.539,3.849,3.849,0,0,1,2.793,1.047,4.2,4.2,0,0,1,1.207,2.844l.016.578a4.418,4.418,0,0,1-1.086,3.121,4.209,4.209,0,0,1-5.832,0,4.5,4.5,0,0,1-1.09-3.187Zm2.258.16a3.16,3.16,0,0,0,.453,1.843,1.628,1.628,0,0,0,2.578.008,3.457,3.457,0,0,0,.461-2.015,3.128,3.128,0,0,0-.461-1.831,1.5,1.5,0,0,0-1.3-.649,1.474,1.474,0,0,0-1.281.646A3.516,3.516,0,0,0,59.73,12.856Zm11.719,1.808a.727.727,0,0,0-.41-.652,4.659,4.659,0,0,0-1.316-.426q-3.016-.633-3.016-2.562a2.323,2.323,0,0,1,.934-1.879,3.766,3.766,0,0,1,2.441-.754,4.053,4.053,0,0,1,2.574.758,2.388,2.388,0,0,1,.965,1.969H71.363a1.092,1.092,0,0,0-.312-.8A1.322,1.322,0,0,0,70.074,10a1.351,1.351,0,0,0-.883.258.814.814,0,0,0-.312.656.7.7,0,0,0,.355.605,3.657,3.657,0,0,0,1.2.4,9.8,9.8,0,0,1,1.422.379,2.336,2.336,0,0,1,1.789,2.273,2.2,2.2,0,0,1-.992,1.871,4.28,4.28,0,0,1-2.562.715,4.47,4.47,0,0,1-1.887-.379,3.166,3.166,0,0,1-1.293-1.039,2.414,2.414,0,0,1-.469-1.426h2.141a1.179,1.179,0,0,0,.445.922,1.766,1.766,0,0,0,1.109.32,1.635,1.635,0,0,0,.98-.246A.766.766,0,0,0,71.449,14.664Zm9.836-5.2a2.818,2.818,0,0,1,2.258-1.078q2.75,0,2.789,3.2V17H84.074V11.648a1.57,1.57,0,0,0-.312-1.074,1.34,1.34,0,0,0-1.039-.348,1.537,1.537,0,0,0-1.437.766V17H79.027V5h2.258ZM90.473,17H88.215V8.547h2.258ZM89.809,5.117H92.27L90.105,7.539H88.27Zm2.258,7.594a5.094,5.094,0,0,1,.887-3.148,2.877,2.877,0,0,1,2.426-1.172,2.589,2.589,0,0,1,2.039.922V5h2.266V17H97.645l-.109-.9a2.657,2.657,0,0,1-2.172,1.055,2.869,2.869,0,0,1-2.395-1.176A5.258,5.258,0,0,1,92.066,12.711Zm2.258.168a3.337,3.337,0,0,0,.414,1.823,1.349,1.349,0,0,0,1.2.634,1.511,1.511,0,0,0,1.477-.884V11.111a1.489,1.489,0,0,0-1.461-.884Q94.324,10.227,94.324,12.879Zm11.859-2.215a6.134,6.134,0,0,0-.812-.062,1.654,1.654,0,0,0-1.68.867V17h-2.258V8.547h2.133l.063,1.008a2.092,2.092,0,0,1,1.883-1.164,2.366,2.366,0,0,1,.7.1ZM109.652,17h-2.266V8.547h2.266Zm-2.4-10.641a1.112,1.112,0,0,1,.34-.836,1.465,1.465,0,0,1,1.848,0,1.105,1.105,0,0,1,.344.836,1.108,1.108,0,0,1-.348.844,1.448,1.448,0,0,1-1.836,0A1.108,1.108,0,0,1,107.254,6.359Zm7.773,8.977a1.481,1.481,0,0,0,1.016-.344,1.2,1.2,0,0,0,.406-.914h2.117a2.9,2.9,0,0,1-.469,1.574,3.093,3.093,0,0,1-1.262,1.109,3.949,3.949,0,0,1-1.77.395A3.67,3.67,0,0,1,112.207,16a4.56,4.56,0,0,1-1.047-3.184v-.148A4.508,4.508,0,0,1,112.2,9.555a3.627,3.627,0,0,1,2.852-1.164,3.555,3.555,0,0,1,2.543.9,3.2,3.2,0,0,1,.973,2.4h-2.117a1.551,1.551,0,0,0-.406-1.072,1.51,1.51,0,0,0-2.223.163,3.333,3.333,0,0,0-.4,1.866v.235a3.375,3.375,0,0,0,.4,1.878A1.377,1.377,0,0,0,115.027,15.336ZM119.5,12.7a5.013,5.013,0,0,1,.484-2.242,3.546,3.546,0,0,1,1.395-1.523,4.069,4.069,0,0,1,2.113-.539,3.849,3.849,0,0,1,2.793,1.047,4.2,4.2,0,0,1,1.207,2.844l.016.578a4.418,4.418,0,0,1-1.086,3.121,4.209,4.209,0,0,1-5.832,0A4.5,4.5,0,0,1,119.5,12.8Zm2.258.16a3.16,3.16,0,0,0,.453,1.843,1.628,1.628,0,0,0,2.578.008,3.457,3.457,0,0,0,.461-2.015,3.128,3.128,0,0,0-.461-1.831,1.5,1.5,0,0,0-1.3-.649,1.474,1.474,0,0,0-1.281.646A3.516,3.516,0,0,0,121.762,12.856Zm11.719,1.808a.727.727,0,0,0-.41-.652,4.659,4.659,0,0,0-1.316-.426q-3.016-.633-3.016-2.562a2.323,2.323,0,0,1,.934-1.879,3.766,3.766,0,0,1,2.441-.754,4.053,4.053,0,0,1,2.574.758,2.388,2.388,0,0,1,.965,1.969h-2.258a1.092,1.092,0,0,0-.312-.8,1.322,1.322,0,0,0-.977-.316,1.351,1.351,0,0,0-.883.258.814.814,0,0,0-.312.656.7.7,0,0,0,.355.605,3.657,3.657,0,0,0,1.2.4,9.8,9.8,0,0,1,1.422.379,2.336,2.336,0,0,1,1.789,2.273,2.205,2.205,0,0,1-.992,1.871,4.28,4.28,0,0,1-2.562.715,4.47,4.47,0,0,1-1.887-.379,3.166,3.166,0,0,1-1.293-1.039,2.414,2.414,0,0,1-.469-1.426h2.141a1.179,1.179,0,0,0,.445.922,1.766,1.766,0,0,0,1.109.32,1.635,1.635,0,0,0,.98-.246A.766.766,0,0,0,133.48,14.664Z" transform="translate(834 2528.991)" fill="#12263f"/>
    <path id="Trazado_999197" data-name="Trazado 999197" d="M22.059,14.016A1.2,1.2,0,0,0,21.59,13a6.148,6.148,0,0,0-1.687-.75,11.963,11.963,0,0,1-1.93-.777,3.153,3.153,0,0,1-1.937-2.82A2.747,2.747,0,0,1,16.555,7a3.389,3.389,0,0,1,1.492-1.129,5.616,5.616,0,0,1,2.184-.406A5.112,5.112,0,0,1,22.4,5.91a3.458,3.458,0,0,1,1.48,1.246,3.261,3.261,0,0,1,.527,1.828H22.066a1.534,1.534,0,0,0-.492-1.215,2.023,2.023,0,0,0-1.383-.434,2.162,2.162,0,0,0-1.336.363,1.146,1.146,0,0,0-.477.957,1.1,1.1,0,0,0,.559.93,6.311,6.311,0,0,0,1.645.7A7.106,7.106,0,0,1,23.5,11.781,2.972,2.972,0,0,1,24.41,14a2.737,2.737,0,0,1-1.117,2.316,4.891,4.891,0,0,1-3.008.84,5.808,5.808,0,0,1-2.391-.48,3.783,3.783,0,0,1-1.645-1.316,3.371,3.371,0,0,1-.566-1.937h2.352q0,1.883,2.25,1.883a2.189,2.189,0,0,0,1.3-.34A1.106,1.106,0,0,0,22.059,14.016ZM25.5,12.7a5.013,5.013,0,0,1,.484-2.242A3.546,3.546,0,0,1,27.375,8.93a4.069,4.069,0,0,1,2.113-.539,3.849,3.849,0,0,1,2.793,1.047,4.2,4.2,0,0,1,1.207,2.844l.016.578a4.418,4.418,0,0,1-1.086,3.121A3.775,3.775,0,0,1,29.5,17.156a3.793,3.793,0,0,1-2.918-1.172A4.5,4.5,0,0,1,25.5,12.8Zm2.258.16a3.16,3.16,0,0,0,.453,1.843,1.628,1.628,0,0,0,2.578.008,3.457,3.457,0,0,0,.461-2.015,3.128,3.128,0,0,0-.461-1.831,1.5,1.5,0,0,0-1.3-.649,1.474,1.474,0,0,0-1.281.646A3.516,3.516,0,0,0,27.754,12.856Zm11.719,1.808a.727.727,0,0,0-.41-.652,4.659,4.659,0,0,0-1.316-.426q-3.016-.633-3.016-2.562a2.323,2.323,0,0,1,.934-1.879,3.766,3.766,0,0,1,2.441-.754,4.053,4.053,0,0,1,2.574.758,2.388,2.388,0,0,1,.965,1.969H39.387a1.092,1.092,0,0,0-.312-.8A1.322,1.322,0,0,0,38.1,10a1.351,1.351,0,0,0-.883.258.814.814,0,0,0-.312.656.7.7,0,0,0,.355.605,3.657,3.657,0,0,0,1.2.4,9.8,9.8,0,0,1,1.422.379,2.336,2.336,0,0,1,1.789,2.273,2.2,2.2,0,0,1-.992,1.871,4.28,4.28,0,0,1-2.562.715,4.47,4.47,0,0,1-1.887-.379,3.166,3.166,0,0,1-1.293-1.039,2.414,2.414,0,0,1-.469-1.426h2.141a1.179,1.179,0,0,0,.445.922,1.766,1.766,0,0,0,1.109.32,1.635,1.635,0,0,0,.98-.246A.766.766,0,0,0,39.473,14.664Zm6.352-8.2V8.547H47.27V10.2H45.824v4.219a1.007,1.007,0,0,0,.18.672.9.9,0,0,0,.688.2,3.6,3.6,0,0,0,.664-.055v1.711a4.648,4.648,0,0,1-1.367.2,2.156,2.156,0,0,1-2.422-2.4V10.2H42.332V8.547h1.234V6.469Zm6.594,10.688a4.15,4.15,0,0,1-3.027-1.141,4.054,4.054,0,0,1-1.168-3.039v-.219a5.106,5.106,0,0,1,.492-2.277,3.612,3.612,0,0,1,1.395-1.547,3.914,3.914,0,0,1,2.059-.543A3.508,3.508,0,0,1,54.9,9.484a4.444,4.444,0,0,1,1,3.1v.922H50.512a2.1,2.1,0,0,0,.66,1.328,2,2,0,0,0,1.395.5,2.437,2.437,0,0,0,2.039-.945l1.109,1.242a3.389,3.389,0,0,1-1.375,1.121A4.511,4.511,0,0,1,52.418,17.156Zm-.258-6.945a1.411,1.411,0,0,0-1.09.455,2.357,2.357,0,0,0-.535,1.3h3.141v-.181a1.681,1.681,0,0,0-.406-1.165A1.456,1.456,0,0,0,52.16,10.211Zm7.094-1.664.07.977a2.951,2.951,0,0,1,2.43-1.133,2.453,2.453,0,0,1,2,.789,3.682,3.682,0,0,1,.672,2.359V17H62.168V11.594a1.465,1.465,0,0,0-.312-1.043,1.4,1.4,0,0,0-1.039-.324,1.553,1.553,0,0,0-1.43.813V17H57.129V8.547ZM68.52,17H66.254V8.547H68.52Zm-2.4-10.641a1.112,1.112,0,0,1,.34-.836,1.465,1.465,0,0,1,1.848,0,1.105,1.105,0,0,1,.344.836A1.108,1.108,0,0,1,68.3,7.2a1.448,1.448,0,0,1-1.836,0A1.108,1.108,0,0,1,66.121,6.359ZM78,12.852a5.119,5.119,0,0,1-.867,3.168,2.872,2.872,0,0,1-2.422,1.137,2.639,2.639,0,0,1-2.2-1.055l-.1.9H70.379V5h2.258V9.3a2.571,2.571,0,0,1,2.055-.914,2.9,2.9,0,0,1,2.426,1.137,5.126,5.126,0,0,1,.879,3.2Zm-2.258-.164a3.363,3.363,0,0,0-.406-1.871,1.374,1.374,0,0,0-1.211-.59,1.489,1.489,0,0,0-1.484.883v3.336a1.509,1.509,0,0,0,1.5.891,1.394,1.394,0,0,0,1.438-1.078A5.562,5.562,0,0,0,75.738,12.688ZM81.77,17H79.5V8.547H81.77Zm-2.4-10.641a1.112,1.112,0,0,1,.34-.836,1.465,1.465,0,0,1,1.848,0,1.105,1.105,0,0,1,.344.836,1.108,1.108,0,0,1-.348.844,1.448,1.448,0,0,1-1.836,0A1.108,1.108,0,0,1,79.371,6.359ZM86.012,17H83.746V5h2.266Zm4.242,0H87.988V8.547h2.266Zm-2.4-10.641a1.112,1.112,0,0,1,.34-.836,1.465,1.465,0,0,1,1.848,0,1.105,1.105,0,0,1,.344.836,1.108,1.108,0,0,1-.348.844,1.448,1.448,0,0,1-1.836,0A1.108,1.108,0,0,1,87.855,6.359Zm3.906,6.352a5.094,5.094,0,0,1,.887-3.148,2.877,2.877,0,0,1,2.426-1.172,2.589,2.589,0,0,1,2.039.922V5h2.266V17H97.34l-.109-.9a2.657,2.657,0,0,1-2.172,1.055,2.869,2.869,0,0,1-2.395-1.176A5.258,5.258,0,0,1,91.762,12.711Zm2.258.168a3.337,3.337,0,0,0,.414,1.823,1.349,1.349,0,0,0,1.2.634,1.511,1.511,0,0,0,1.477-.884V11.111a1.489,1.489,0,0,0-1.461-.884Q94.02,10.227,94.02,12.879ZM106.027,17a2.507,2.507,0,0,1-.227-.758,2.732,2.732,0,0,1-2.133.914,3,3,0,0,1-2.059-.719,2.312,2.312,0,0,1-.816-1.812,2.389,2.389,0,0,1,1-2.062,4.915,4.915,0,0,1,2.879-.727h1.039v-.484a1.393,1.393,0,0,0-.3-.937,1.183,1.183,0,0,0-.949-.352,1.345,1.345,0,0,0-.895.273.929.929,0,0,0-.324.75H100.98a2.268,2.268,0,0,1,.453-1.359,3,3,0,0,1,1.281-.98,4.669,4.669,0,0,1,1.859-.355,3.689,3.689,0,0,1,2.48.785,2.747,2.747,0,0,1,.918,2.207v3.664a4.041,4.041,0,0,0,.336,1.82V17Zm-1.867-1.57a1.945,1.945,0,0,0,.922-.223,1.462,1.462,0,0,0,.625-.6V13.156h-.844q-1.7,0-1.8,1.172l-.008.133a.9.9,0,0,0,.3.7A1.153,1.153,0,0,0,104.16,15.43Zm5.2-2.719a5.094,5.094,0,0,1,.887-3.148,2.877,2.877,0,0,1,2.426-1.172,2.589,2.589,0,0,1,2.039.922V5h2.266V17h-2.039l-.109-.9a2.657,2.657,0,0,1-2.172,1.055,2.869,2.869,0,0,1-2.395-1.176A5.258,5.258,0,0,1,109.355,12.711Zm2.258.168a3.337,3.337,0,0,0,.414,1.823,1.349,1.349,0,0,0,1.2.634,1.511,1.511,0,0,0,1.477-.884V11.111a1.489,1.489,0,0,0-1.461-.884Q111.613,10.227,111.613,12.879Z" transform="translate(839 2613.991)" fill="#12263f"/>
    <path id="Trazado_999199" data-name="Trazado 999199" d="M39.711,13.211A4.025,4.025,0,0,1,38.355,16.1a4.76,4.76,0,0,1-3.223,1.055,4.28,4.28,0,0,1-3.441-1.473,6.038,6.038,0,0,1-1.254-4.043v-.7a6.819,6.819,0,0,1,.578-2.891,4.332,4.332,0,0,1,1.652-1.918,5.164,5.164,0,0,1,5.668.387,4.326,4.326,0,0,1,1.391,2.961H37.383a2.376,2.376,0,0,0-.613-1.6,2.271,2.271,0,0,0-1.605-.5,1.991,1.991,0,0,0-1.754.84,4.707,4.707,0,0,0-.6,2.605V11.7a5.038,5.038,0,0,0,.559,2.7,1.954,1.954,0,0,0,1.762.852,2.314,2.314,0,0,0,1.621-.5,2.241,2.241,0,0,0,.613-1.535ZM40.75,12.7a5.013,5.013,0,0,1,.484-2.242A3.546,3.546,0,0,1,42.629,8.93a4.069,4.069,0,0,1,2.113-.539,3.849,3.849,0,0,1,2.793,1.047,4.2,4.2,0,0,1,1.207,2.844l.016.578a4.418,4.418,0,0,1-1.086,3.121,4.209,4.209,0,0,1-5.832,0A4.5,4.5,0,0,1,40.75,12.8Zm2.258.16a3.16,3.16,0,0,0,.453,1.843,1.628,1.628,0,0,0,2.578.008,3.457,3.457,0,0,0,.461-2.015,3.128,3.128,0,0,0-.461-1.831,1.5,1.5,0,0,0-1.3-.649,1.474,1.474,0,0,0-1.281.646A3.516,3.516,0,0,0,43.008,12.856Zm9.219-4.309.07.977a2.951,2.951,0,0,1,2.43-1.133,2.453,2.453,0,0,1,2,.789,3.682,3.682,0,0,1,.672,2.359V17H55.141V11.594a1.465,1.465,0,0,0-.312-1.043,1.4,1.4,0,0,0-1.039-.324,1.553,1.553,0,0,0-1.43.813V17H50.1V8.547Zm11.461,6.117a.727.727,0,0,0-.41-.652,4.659,4.659,0,0,0-1.316-.426q-3.016-.633-3.016-2.562a2.323,2.323,0,0,1,.934-1.879,3.766,3.766,0,0,1,2.441-.754,4.053,4.053,0,0,1,2.574.758,2.388,2.388,0,0,1,.965,1.969H63.6a1.092,1.092,0,0,0-.312-.8A1.322,1.322,0,0,0,62.313,10a1.351,1.351,0,0,0-.883.258.814.814,0,0,0-.312.656.7.7,0,0,0,.355.605,3.657,3.657,0,0,0,1.2.4,9.8,9.8,0,0,1,1.422.379,2.336,2.336,0,0,1,1.789,2.273,2.2,2.2,0,0,1-.992,1.871,4.28,4.28,0,0,1-2.562.715,4.47,4.47,0,0,1-1.887-.379,3.166,3.166,0,0,1-1.293-1.039,2.414,2.414,0,0,1-.469-1.426H60.82a1.179,1.179,0,0,0,.445.922,1.766,1.766,0,0,0,1.109.32,1.635,1.635,0,0,0,.98-.246A.766.766,0,0,0,63.688,14.664Zm7.539,2.492A4.15,4.15,0,0,1,68.2,16.016a4.054,4.054,0,0,1-1.168-3.039v-.219a5.106,5.106,0,0,1,.492-2.277,3.612,3.612,0,0,1,1.395-1.547,3.914,3.914,0,0,1,2.059-.543,3.508,3.508,0,0,1,2.73,1.094,4.444,4.444,0,0,1,1,3.1v.922H69.32a2.1,2.1,0,0,0,.66,1.328,2,2,0,0,0,1.395.5,2.437,2.437,0,0,0,2.039-.945l1.109,1.242a3.389,3.389,0,0,1-1.375,1.121A4.511,4.511,0,0,1,71.227,17.156Zm-.258-6.945a1.411,1.411,0,0,0-1.09.455,2.357,2.357,0,0,0-.535,1.3h3.141v-.181a1.681,1.681,0,0,0-.406-1.165A1.456,1.456,0,0,0,70.969,10.211Zm9.766.453a6.134,6.134,0,0,0-.812-.062,1.654,1.654,0,0,0-1.68.867V17H75.984V8.547h2.133l.063,1.008a2.092,2.092,0,0,1,1.883-1.164,2.366,2.366,0,0,1,.7.1Zm4.391,3.578,1.57-5.7h2.359L86.2,17H84.047L81.2,8.547h2.359ZM94.828,17a2.507,2.507,0,0,1-.227-.758,2.732,2.732,0,0,1-2.133.914,3,3,0,0,1-2.059-.719,2.312,2.312,0,0,1-.816-1.812,2.389,2.389,0,0,1,1-2.062,4.915,4.915,0,0,1,2.879-.727h1.039v-.484a1.393,1.393,0,0,0-.3-.937,1.183,1.183,0,0,0-.949-.352,1.345,1.345,0,0,0-.895.273.929.929,0,0,0-.324.75H89.781a2.268,2.268,0,0,1,.453-1.359,3,3,0,0,1,1.281-.98,4.669,4.669,0,0,1,1.859-.355,3.689,3.689,0,0,1,2.48.785,2.747,2.747,0,0,1,.918,2.207v3.664a4.041,4.041,0,0,0,.336,1.82V17Zm-1.867-1.57a1.945,1.945,0,0,0,.922-.223,1.462,1.462,0,0,0,.625-.6V13.156h-.844q-1.7,0-1.8,1.172l-.008.133a.9.9,0,0,0,.3.7A1.153,1.153,0,0,0,92.961,15.43Zm9.063-.094a1.481,1.481,0,0,0,1.016-.344,1.2,1.2,0,0,0,.406-.914h2.117a2.9,2.9,0,0,1-.469,1.574,3.093,3.093,0,0,1-1.262,1.109,3.949,3.949,0,0,1-1.77.395A3.67,3.67,0,0,1,99.2,16a4.56,4.56,0,0,1-1.047-3.184v-.148A4.508,4.508,0,0,1,99.2,9.555a3.627,3.627,0,0,1,2.852-1.164,3.555,3.555,0,0,1,2.543.9,3.2,3.2,0,0,1,.973,2.4h-2.117a1.551,1.551,0,0,0-.406-1.072,1.51,1.51,0,0,0-2.223.163,3.333,3.333,0,0,0-.4,1.866v.235a3.375,3.375,0,0,0,.4,1.878A1.377,1.377,0,0,0,102.023,15.336ZM109.234,17h-2.266V8.547h2.266Zm-2.4-10.641a1.112,1.112,0,0,1,.34-.836,1.465,1.465,0,0,1,1.848,0,1.105,1.105,0,0,1,.344.836,1.108,1.108,0,0,1-.348.844,1.448,1.448,0,0,1-1.836,0A1.108,1.108,0,0,1,106.836,6.359Zm3.906,6.336a5.013,5.013,0,0,1,.484-2.242,3.546,3.546,0,0,1,1.395-1.523,4.069,4.069,0,0,1,2.113-.539,3.849,3.849,0,0,1,2.793,1.047,4.2,4.2,0,0,1,1.207,2.844l.016.578a4.418,4.418,0,0,1-1.086,3.121,4.209,4.209,0,0,1-5.832,0,4.5,4.5,0,0,1-1.09-3.187Zm2.258.16a3.16,3.16,0,0,0,.453,1.843,1.628,1.628,0,0,0,2.578.008,3.457,3.457,0,0,0,.461-2.015,3.128,3.128,0,0,0-.461-1.831,1.5,1.5,0,0,0-1.3-.649,1.474,1.474,0,0,0-1.281.646A3.516,3.516,0,0,0,113,12.856ZM115.18,5h2.461l-2.164,2.422h-1.836Zm7.039,3.547.07.977a2.951,2.951,0,0,1,2.43-1.133,2.453,2.453,0,0,1,2,.789,3.682,3.682,0,0,1,.672,2.359V17h-2.258V11.594a1.465,1.465,0,0,0-.312-1.043,1.4,1.4,0,0,0-1.039-.324,1.553,1.553,0,0,0-1.43.813V17h-2.258V8.547Z" transform="translate(1083 2528.991)" fill="#12263f"/>
    <path id="Trazado_999198" data-name="Trazado 999198" d="M23.551,15.563a4.068,4.068,0,0,1-1.789,1.176,7.492,7.492,0,0,1-2.562.418,5.076,5.076,0,0,1-2.59-.645,4.3,4.3,0,0,1-1.719-1.871,6.585,6.585,0,0,1-.621-2.883v-.773a6.994,6.994,0,0,1,.574-2.949A4.248,4.248,0,0,1,16.5,6.129a4.771,4.771,0,0,1,2.535-.66,4.751,4.751,0,0,1,3.164.965,4.123,4.123,0,0,1,1.352,2.809H21.27a2.268,2.268,0,0,0-.691-1.43,2.208,2.208,0,0,0-1.473-.453,2.078,2.078,0,0,0-1.82.9,4.724,4.724,0,0,0-.633,2.672v.727a4.5,4.5,0,0,0,.68,2.7,2.327,2.327,0,0,0,1.992.914,2.6,2.6,0,0,0,1.883-.562V12.75H19.074V11.023h4.477Zm5.641,1.594a4.15,4.15,0,0,1-3.027-1.141A4.054,4.054,0,0,1,25,12.977v-.219a5.106,5.106,0,0,1,.492-2.277,3.612,3.612,0,0,1,1.395-1.547,3.914,3.914,0,0,1,2.059-.543,3.508,3.508,0,0,1,2.73,1.094,4.444,4.444,0,0,1,1,3.1v.922H27.285a2.1,2.1,0,0,0,.66,1.328,2,2,0,0,0,1.395.5,2.437,2.437,0,0,0,2.039-.945l1.109,1.242a3.389,3.389,0,0,1-1.375,1.121A4.511,4.511,0,0,1,29.191,17.156Zm-.258-6.945a1.411,1.411,0,0,0-1.09.455,2.357,2.357,0,0,0-.535,1.3h3.141v-.181a1.681,1.681,0,0,0-.406-1.165A1.456,1.456,0,0,0,28.934,10.211Zm9.594,4.453a.727.727,0,0,0-.41-.652,4.659,4.659,0,0,0-1.316-.426q-3.016-.633-3.016-2.562a2.323,2.323,0,0,1,.934-1.879,3.766,3.766,0,0,1,2.441-.754,4.053,4.053,0,0,1,2.574.758,2.388,2.388,0,0,1,.965,1.969H38.441a1.092,1.092,0,0,0-.312-.8A1.322,1.322,0,0,0,37.152,10a1.351,1.351,0,0,0-.883.258.814.814,0,0,0-.312.656.7.7,0,0,0,.355.605,3.657,3.657,0,0,0,1.2.4,9.8,9.8,0,0,1,1.422.379,2.336,2.336,0,0,1,1.789,2.273,2.2,2.2,0,0,1-.992,1.871,4.28,4.28,0,0,1-2.562.715,4.47,4.47,0,0,1-1.887-.379,3.166,3.166,0,0,1-1.293-1.039,2.414,2.414,0,0,1-.469-1.426H35.66a1.179,1.179,0,0,0,.445.922,1.766,1.766,0,0,0,1.109.32,1.635,1.635,0,0,0,.98-.246A.766.766,0,0,0,38.527,14.664Zm6.352-8.2V8.547h1.445V10.2H44.879v4.219a1.007,1.007,0,0,0,.18.672.9.9,0,0,0,.688.2,3.6,3.6,0,0,0,.664-.055v1.711a4.648,4.648,0,0,1-1.367.2,2.156,2.156,0,0,1-2.422-2.4V10.2H41.387V8.547h1.234V6.469ZM49.965,17H47.7V8.547h2.266Zm-2.4-10.641a1.112,1.112,0,0,1,.34-.836,1.465,1.465,0,0,1,1.848,0,1.105,1.105,0,0,1,.344.836,1.108,1.108,0,0,1-.348.844,1.448,1.448,0,0,1-1.836,0A1.108,1.108,0,0,1,47.566,6.359ZM51.473,12.7a5.013,5.013,0,0,1,.484-2.242A3.546,3.546,0,0,1,53.352,8.93a4.069,4.069,0,0,1,2.113-.539,3.849,3.849,0,0,1,2.793,1.047,4.2,4.2,0,0,1,1.207,2.844l.016.578a4.418,4.418,0,0,1-1.086,3.121,4.209,4.209,0,0,1-5.832,0,4.5,4.5,0,0,1-1.09-3.187Zm2.258.16a3.16,3.16,0,0,0,.453,1.843,1.628,1.628,0,0,0,2.578.008,3.457,3.457,0,0,0,.461-2.015,3.128,3.128,0,0,0-.461-1.831,1.5,1.5,0,0,0-1.3-.649,1.474,1.474,0,0,0-1.281.646A3.516,3.516,0,0,0,53.73,12.856ZM55.91,5h2.461L56.207,7.422H54.371Zm7.039,3.547.07.977a2.951,2.951,0,0,1,2.43-1.133,2.453,2.453,0,0,1,2,.789,3.682,3.682,0,0,1,.672,2.359V17H65.863V11.594a1.465,1.465,0,0,0-.312-1.043,1.4,1.4,0,0,0-1.039-.324,1.553,1.553,0,0,0-1.43.813V17H60.824V8.547ZM78.715,17a2.507,2.507,0,0,1-.227-.758,2.732,2.732,0,0,1-2.133.914,3,3,0,0,1-2.059-.719,2.312,2.312,0,0,1-.816-1.812,2.389,2.389,0,0,1,1-2.062,4.915,4.915,0,0,1,2.879-.727h1.039v-.484a1.393,1.393,0,0,0-.3-.937,1.183,1.183,0,0,0-.949-.352,1.345,1.345,0,0,0-.895.273.929.929,0,0,0-.324.75H73.668a2.268,2.268,0,0,1,.453-1.359,3,3,0,0,1,1.281-.98,4.669,4.669,0,0,1,1.859-.355,3.689,3.689,0,0,1,2.48.785,2.747,2.747,0,0,1,.918,2.207v3.664A4.041,4.041,0,0,0,81,16.867V17Zm-1.867-1.57a1.945,1.945,0,0,0,.922-.223,1.462,1.462,0,0,0,.625-.6V13.156h-.844q-1.7,0-1.8,1.172l-.008.133a.9.9,0,0,0,.3.7A1.153,1.153,0,0,0,76.848,15.43Zm7.664-6.883.07.945a2.971,2.971,0,0,1,2.43-1.1A2.255,2.255,0,0,1,89.254,9.68a2.9,2.9,0,0,1,2.539-1.289,2.521,2.521,0,0,1,2.047.8,3.681,3.681,0,0,1,.672,2.41V17H92.246V11.609a1.61,1.61,0,0,0-.281-1.051,1.246,1.246,0,0,0-.992-.332,1.409,1.409,0,0,0-1.406.969l.008,5.8H87.316V11.617a1.59,1.59,0,0,0-.289-1.062,1.259,1.259,0,0,0-.984-.328,1.463,1.463,0,0,0-1.391.8V17H82.395V8.547Zm19.352,4.3A5.119,5.119,0,0,1,103,16.02a2.872,2.872,0,0,1-2.422,1.137,2.639,2.639,0,0,1-2.2-1.055l-.1.9H96.246V5H98.5V9.3a2.571,2.571,0,0,1,2.055-.914,2.9,2.9,0,0,1,2.426,1.137,5.126,5.126,0,0,1,.879,3.2Zm-2.258-.164a3.363,3.363,0,0,0-.406-1.871,1.374,1.374,0,0,0-1.211-.59,1.489,1.489,0,0,0-1.484.883v3.336a1.509,1.509,0,0,0,1.5.891,1.394,1.394,0,0,0,1.438-1.078A5.562,5.562,0,0,0,101.605,12.688ZM107.637,17h-2.266V8.547h2.266Zm-2.4-10.641a1.112,1.112,0,0,1,.34-.836,1.465,1.465,0,0,1,1.848,0,1.105,1.105,0,0,1,.344.836,1.108,1.108,0,0,1-.348.844,1.448,1.448,0,0,1-1.836,0A1.108,1.108,0,0,1,105.238,6.359Zm8.148,10.8a4.15,4.15,0,0,1-3.027-1.141,4.054,4.054,0,0,1-1.168-3.039v-.219a5.106,5.106,0,0,1,.492-2.277,3.612,3.612,0,0,1,1.395-1.547,3.914,3.914,0,0,1,2.059-.543,3.508,3.508,0,0,1,2.73,1.094,4.444,4.444,0,0,1,1,3.1v.922H111.48a2.1,2.1,0,0,0,.66,1.328,2,2,0,0,0,1.395.5,2.437,2.437,0,0,0,2.039-.945l1.109,1.242a3.389,3.389,0,0,1-1.375,1.121A4.511,4.511,0,0,1,113.387,17.156Zm-.258-6.945a1.411,1.411,0,0,0-1.09.455,2.357,2.357,0,0,0-.535,1.3h3.141v-.181a1.681,1.681,0,0,0-.406-1.165A1.456,1.456,0,0,0,113.129,10.211Zm7.094-1.664.07.977a2.951,2.951,0,0,1,2.43-1.133,2.453,2.453,0,0,1,2,.789,3.682,3.682,0,0,1,.672,2.359V17h-2.258V11.594a1.465,1.465,0,0,0-.312-1.043,1.4,1.4,0,0,0-1.039-.324,1.553,1.553,0,0,0-1.43.813V17H118.1V8.547Zm9.586-2.078V8.547h1.445V10.2h-1.445v4.219a1.007,1.007,0,0,0,.18.672.9.9,0,0,0,.688.2,3.6,3.6,0,0,0,.664-.055v1.711a4.648,4.648,0,0,1-1.367.2,2.156,2.156,0,0,1-2.422-2.4V10.2h-1.234V8.547h1.234V6.469ZM137.41,17a2.507,2.507,0,0,1-.227-.758,2.732,2.732,0,0,1-2.133.914,3,3,0,0,1-2.059-.719,2.312,2.312,0,0,1-.816-1.812,2.389,2.389,0,0,1,1-2.062,4.915,4.915,0,0,1,2.879-.727h1.039v-.484a1.393,1.393,0,0,0-.3-.937,1.183,1.183,0,0,0-.949-.352,1.345,1.345,0,0,0-.895.273.929.929,0,0,0-.324.75h-2.258a2.268,2.268,0,0,1,.453-1.359,3,3,0,0,1,1.281-.98,4.669,4.669,0,0,1,1.859-.355,3.689,3.689,0,0,1,2.48.785,2.747,2.747,0,0,1,.918,2.207v3.664a4.041,4.041,0,0,0,.336,1.82V17Zm-1.867-1.57a1.945,1.945,0,0,0,.922-.223,1.462,1.462,0,0,0,.625-.6V13.156h-.844q-1.7,0-1.8,1.172l-.008.133a.9.9,0,0,0,.3.7A1.153,1.153,0,0,0,135.543,15.43Zm7.93,1.57h-2.266V5h2.266Z" transform="translate(1083 2613.991)" fill="#12263f"/>
    <g id="Elipse_13710" data-name="Elipse 13710" transform="translate(1008 2474.991)" fill="#fff" stroke="#ffd54e" stroke-width="4">
      <circle cx="25.5" cy="25.5" r="25.5" stroke="none"/>
      <circle cx="25.5" cy="25.5" r="23.5" fill="none"/>
    </g>
    <g id="Elipse_13713" data-name="Elipse 13713" transform="translate(1008 2387.991)" fill="#fff" stroke="#ffd54e" stroke-width="4">
      <circle cx="25.5" cy="25.5" r="25.5" stroke="none"/>
      <circle cx="25.5" cy="25.5" r="23.5" fill="none"/>
    </g>
    <g id="Elipse_13711" data-name="Elipse 13711" transform="translate(1008 2555.991)" fill="#fff" stroke="#ffd54e" stroke-width="4">
      <circle cx="25.5" cy="25.5" r="25.5" stroke="none"/>
      <circle cx="25.5" cy="25.5" r="23.5" fill="none"/>
    </g>
    <g id="Elipse_13712" data-name="Elipse 13712" transform="translate(1008 2640.991)" fill="#fff" stroke="#ffd54e" stroke-width="4">
      <circle cx="25.5" cy="25.5" r="25.5" stroke="none"/>
      <circle cx="25.5" cy="25.5" r="23.5" fill="none"/>
    </g>
    <g id="Grupo_1190673" data-name="Grupo 1190673" transform="translate(1021.486 2398.134)">
      <g id="Grupo_1190672" data-name="Grupo 1190672" clip-path="url(#clip-path-17)">
        <path id="Trazado_998569" data-name="Trazado 998569" d="M20.2,30.707l-17.319.009A2.86,2.86,0,0,1,0,27.833L.008,14.307a2.8,2.8,0,0,1,2.754-2.784l1.075-.011,0-3.734a7.681,7.681,0,1,1,15.361,0l0,3.734c.362.034.632,0,.972.007A2.87,2.87,0,0,1,23.028,14.4l0,13.431A2.833,2.833,0,0,1,20.2,30.707m-3.575-19.19.008-3.738A5.117,5.117,0,1,0,6.4,7.681l.012,3.844ZM12.792,24.29l.02-2.9a2.551,2.551,0,1,0-2.579.016l0,2.785a1.307,1.307,0,0,0,1.243,1.4,1.275,1.275,0,0,0,1.32-1.3" transform="translate(0 -0.001)" fill="#674a11"/>
      </g>
    </g>
    <g id="Grupo_1190675" data-name="Grupo 1190675" transform="translate(1019 2491.751)">
      <g id="Grupo_1190674" data-name="Grupo 1190674" clip-path="url(#clip-path-18)">
        <path id="Trazado_998570" data-name="Trazado 998570" d="M24.764,17.473l-19.627.009A5.241,5.241,0,0,1,0,12.309,5.294,5.294,0,0,1,4.415,7.066a7,7,0,0,1,13-3.668,5.259,5.259,0,0,1,5.18-.178,5.336,5.336,0,0,1,2.77,3.837,5.288,5.288,0,0,1,4.477,5.255,5.212,5.212,0,0,1-5.08,5.161" transform="translate(0 -0.001)" fill="#ffdc6b"/>
      </g>
    </g>
    <g id="Grupo_1190676" data-name="Grupo 1190676" transform="translate(1019 2572.75)">
      <g id="Grupo_1190674-2" data-name="Grupo 1190674" clip-path="url(#clip-path-18)">
        <path id="Trazado_998570-2" data-name="Trazado 998570" d="M24.764,17.473l-19.627.009A5.241,5.241,0,0,1,0,12.309,5.294,5.294,0,0,1,4.415,7.066a7,7,0,0,1,13-3.668,5.259,5.259,0,0,1,5.18-.178,5.336,5.336,0,0,1,2.77,3.837,5.288,5.288,0,0,1,4.477,5.255,5.212,5.212,0,0,1-5.08,5.161" transform="translate(0 -0.001)" fill="#ffdc6b"/>
      </g>
    </g>
    <g id="Grupo_1190677" data-name="Grupo 1190677" transform="translate(1019 2657.75)">
      <g id="Grupo_1190674-3" data-name="Grupo 1190674" clip-path="url(#clip-path-18)">
        <path id="Trazado_998570-3" data-name="Trazado 998570" d="M24.764,17.473l-19.627.009A5.241,5.241,0,0,1,0,12.309,5.294,5.294,0,0,1,4.415,7.066a7,7,0,0,1,13-3.668,5.259,5.259,0,0,1,5.18-.178,5.336,5.336,0,0,1,2.77,3.837,5.288,5.288,0,0,1,4.477,5.255,5.212,5.212,0,0,1-5.08,5.161" transform="translate(0 -0.001)" fill="#ffdc6b"/>
      </g>
    </g>
  </g>
</svg>
