<svg xmlns="http://www.w3.org/2000/svg" xmlns:xlink="http://www.w3.org/1999/xlink" width="500" height="303.186" viewBox="0 0 500 303.186">
  <defs>
    <clipPath id="clip-path">
      <rect id="Rectángulo_455596" data-name="Rectángulo 455596" width="416" height="302.865" fill="none"/>
    </clipPath>
    <clipPath id="clip-path-3">
      <rect id="Rectángulo_455594" data-name="Rectángulo 455594" width="102.333" height="102.333" fill="none"/>
    </clipPath>
  </defs>
  <g id="Grupo_1190894" data-name="Grupo 1190894" transform="translate(-186 -1666)">
    <rect id="Rectángulo_455388" data-name="Rectángulo 455388" width="500" height="303.186" transform="translate(186 1666)" fill="none"/>
    <g id="Grupo_1190893" data-name="Grupo 1190893" transform="translate(228 1666)">
      <g id="Grupo_1190892" data-name="Grupo 1190892" clip-path="url(#clip-path)">
        <g id="Grupo_1190891" data-name="Grupo 1190891">
          <g id="Grupo_1190890" data-name="Grupo 1190890" clip-path="url(#clip-path)">
            <path id="Trazado_999075" data-name="Trazado 999075" d="M416,309.591c0,14.907-93.125,26.99-208,26.99S0,324.5,0,309.591,93.125,282.6,208,282.6s208,12.084,208,26.99" transform="translate(0 -33.717)" fill="#e2e2e2"/>
            <path id="Trazado_999076" data-name="Trazado 999076" d="M397.326,204.693,188.747,173.933A11.435,11.435,0,0,1,179.1,160.95L201.4,9.769A11.436,11.436,0,0,1,214.38.123L422.958,30.884A11.436,11.436,0,0,1,432.6,43.866l-22.3,151.182a11.436,11.436,0,0,1-12.982,9.645" transform="translate(-21.354 0)" fill="#f5f5f5"/>
            <path id="Trazado_999077" data-name="Trazado 999077" d="M382.636,192.288,173.444,218.559a11.436,11.436,0,0,1-12.772-9.922L141.631,57.011a11.435,11.435,0,0,1,9.922-12.772L360.744,17.968a11.436,11.436,0,0,1,12.772,9.922l19.042,151.627a11.435,11.435,0,0,1-9.922,12.772" transform="translate(-16.887 -2.133)" fill="#f5f5f5"/>
            <path id="Trazado_999078" data-name="Trazado 999078" d="M180.065,212.915h0a1.738,1.738,0,0,1-1.941-1.508L160.51,71.153a1.738,1.738,0,0,1,3.449-.432l17.614,140.253a1.738,1.738,0,0,1-1.508,1.941" transform="translate(-19.149 -8.256)" fill="#d6d6d6"/>
            <path id="Trazado_999079" data-name="Trazado 999079" d="M204.717,209.273h0a1.737,1.737,0,0,1-1.94-1.508L185.163,67.511a1.737,1.737,0,1,1,3.448-.432l17.614,140.254a1.738,1.738,0,0,1-1.508,1.94" transform="translate(-22.09 -7.822)" fill="#d6d6d6"/>
            <path id="Trazado_999080" data-name="Trazado 999080" d="M229.369,205.631h0a1.737,1.737,0,0,1-1.94-1.508L209.815,63.869a1.737,1.737,0,1,1,3.448-.432L230.877,203.69a1.738,1.738,0,0,1-1.508,1.941" transform="translate(-25.031 -7.387)" fill="#d6d6d6"/>
            <path id="Trazado_999081" data-name="Trazado 999081" d="M254.021,201.988h0a1.737,1.737,0,0,1-1.94-1.508L234.467,60.226a1.737,1.737,0,1,1,3.448-.432l17.614,140.253a1.738,1.738,0,0,1-1.508,1.941" transform="translate(-27.973 -6.952)" fill="#d6d6d6"/>
            <path id="Trazado_999082" data-name="Trazado 999082" d="M278.674,198.346h0a1.737,1.737,0,0,1-1.94-1.508L259.12,56.584a1.737,1.737,0,1,1,3.448-.432l17.614,140.254a1.738,1.738,0,0,1-1.508,1.94" transform="translate(-30.914 -6.518)" fill="#d6d6d6"/>
            <path id="Trazado_999083" data-name="Trazado 999083" d="M303.326,194.7h0a1.738,1.738,0,0,1-1.941-1.508L283.771,52.942a1.738,1.738,0,0,1,3.449-.432l17.614,140.253a1.738,1.738,0,0,1-1.508,1.941" transform="translate(-33.855 -6.083)" fill="#d6d6d6"/>
            <path id="Trazado_999084" data-name="Trazado 999084" d="M327.978,191.061h0a1.737,1.737,0,0,1-1.94-1.508L308.424,49.3a1.737,1.737,0,1,1,3.448-.432l17.614,140.254a1.738,1.738,0,0,1-1.508,1.94" transform="translate(-36.796 -5.649)" fill="#d6d6d6"/>
            <path id="Trazado_999085" data-name="Trazado 999085" d="M352.63,187.419h0a1.737,1.737,0,0,1-1.94-1.508L333.076,45.657a1.737,1.737,0,1,1,3.448-.432l17.614,140.253a1.738,1.738,0,0,1-1.508,1.941" transform="translate(-39.738 -5.214)" fill="#d6d6d6"/>
            <path id="Trazado_999086" data-name="Trazado 999086" d="M377.283,183.776h0a1.738,1.738,0,0,1-1.941-1.507L357.728,42.015a1.738,1.738,0,0,1,3.449-.432l17.614,140.253a1.737,1.737,0,0,1-1.508,1.941" transform="translate(-42.679 -4.78)" fill="#d6d6d6"/>
            <path id="Trazado_999087" data-name="Trazado 999087" d="M401.935,180.134h0a1.737,1.737,0,0,1-1.94-1.508L382.381,38.372a1.737,1.737,0,1,1,3.448-.432l17.614,140.254a1.738,1.738,0,0,1-1.508,1.94" transform="translate(-45.62 -4.345)" fill="#d6d6d6"/>
            <path id="Trazado_999088" data-name="Trazado 999088" d="M199.6,39,364.958,17.424A15,15,0,0,1,381.8,30.632l7.9,70.94" transform="translate(-23.815 -2.064)" fill="none" stroke="#262626" stroke-linecap="round" stroke-linejoin="round" stroke-width="0.415"/>
            <path id="Trazado_999089" data-name="Trazado 999089" d="M417.529,282.083l-210.3-10.928a11.563,11.563,0,0,1-10.947-12.148l8.122-156.292a11.563,11.563,0,0,1,12.148-10.948l210.3,10.928A11.563,11.563,0,0,1,437.8,114.844l-8.122,156.292a11.564,11.564,0,0,1-12.148,10.948" transform="translate(-23.417 -10.947)" fill="#f5f5f5"/>
            <path id="Trazado_999090" data-name="Trazado 999090" d="M417.529,282.083l-210.3-10.928a11.563,11.563,0,0,1-10.947-12.148l8.122-156.292a11.563,11.563,0,0,1,12.148-10.948l210.3,10.928A11.563,11.563,0,0,1,437.8,114.844l-8.122,156.292A11.564,11.564,0,0,1,417.529,282.083Z" transform="translate(-23.417 -10.947)" fill="none" stroke="#262626" stroke-linecap="round" stroke-linejoin="round" stroke-width="0.415"/>
            <path id="Trazado_999091" data-name="Trazado 999091" d="M233.95,108.224l-23.2-30.01a13.126,13.126,0,0,0-10.232-5.179H140.577A10.3,10.3,0,0,0,130.143,84.69l2.465,23.534.092.881,17.051,162.77a13.257,13.257,0,0,0,12.876,11.655H401.033a10.3,10.3,0,0,0,10.434-11.655l-15.922-152a13.257,13.257,0,0,0-12.876-11.655Z" transform="translate(-15.52 -8.714)" fill="#ffc001"/>
            <line id="Línea_3320" data-name="Línea 3320" x2="0.092" y2="0.881" transform="translate(117.088 99.51)" fill="none" stroke="#262626" stroke-linecap="round" stroke-linejoin="round" stroke-width="0.466"/>
            <path id="Trazado_999092" data-name="Trazado 999092" d="M412.889,271.873l-15.922-152a13.258,13.258,0,0,0-12.876-11.655H235.372l-23.2-30.01a13.131,13.131,0,0,0-10.233-5.178H142" transform="translate(-16.942 -8.714)" fill="none" stroke="#262626" stroke-linecap="round" stroke-linejoin="round" stroke-width="0.466"/>
            <path id="Trazado_999093" data-name="Trazado 999093" d="M103.168,142.436V149.2s11.039,46.312,13.194,52.5-7.54,65.832-7.54,65.832H76.512l4.1-66.371-35.183,62L16.564,246.132s28.074-52.818,28.865-62.355-2.036-53.469-2.036-53.469Z" transform="translate(-1.976 -15.547)" fill="#8dcdc1"/>
            <path id="Trazado_999094" data-name="Trazado 999094" d="M62.864,134.311s3.273,46.34.95,54.485-29.665,66.954-29.665,66.954" transform="translate(-4.074 -16.025)" fill="none" stroke="#262626" stroke-linecap="round" stroke-linejoin="round" stroke-width="0.415"/>
            <path id="Trazado_999095" data-name="Trazado 999095" d="M88.712,208.02q-2.04,33.688-4.078,67.375H98.817l-5.082-79.22a25.359,25.359,0,0,1-5.023,11.844" transform="translate(-10.098 -23.406)" fill="#4aa594"/>
            <path id="Trazado_999096" data-name="Trazado 999096" d="M79.221,162.956,74,159.141h2.539a2.345,2.345,0,0,0,2.233-3.062.892.892,0,0,0-.835-.616c-1.622-.027-2.976-.1-3.979-.172a18.445,18.445,0,0,1-4.637-.627c-1.7-.605-1.93-1.212-3.668-1.818a10.5,10.5,0,0,0-2.81-.559,40.848,40.848,0,0,1-9.267-11.073L48.746,158.94c-.125-.027.158,1.627.078,1.689a58.562,58.562,0,0,0,7.292,2.8,11.122,11.122,0,0,0,1.288,3.045c1.008,1.642,2.14,2.507,4.274,4.139.425.325.1.056,5.38,2.956.494.271,1.426.784,2.093.41a2.046,2.046,0,0,0,.773-1.212,2.238,2.238,0,0,0,.017-.926,2.6,2.6,0,0,0,.556.351,2.458,2.458,0,0,0,2.642-.2,2.308,2.308,0,0,0,.513-1.883,2.689,2.689,0,0,0-.293-.944l.939.376a2.042,2.042,0,0,0,1.975-3.535l-.323-.24,1.8.414a1.812,1.812,0,0,0,1.474-3.229" transform="translate(-5.812 -16.848)" fill="#1775af"/>
            <path id="Trazado_999097" data-name="Trazado 999097" d="M111.013,56.845s24.868,49.13,27.665,54.788S161.905,140.2,161.905,140.2L149,148.682,132.476,134.7A97.1,97.1,0,0,1,121.8,123.492C102.1,99.175,98.856,70.929,98.487,55.286Z" transform="translate(-11.751 -6.596)" fill="#f7a99c"/>
            <path id="Trazado_999098" data-name="Trazado 999098" d="M133.206,100.441a42.9,42.9,0,0,1-4.175,13.441,48.665,48.665,0,0,1-7.6,10.538,5.85,5.85,0,0,1-1.233-7.005l10.35-22.971Z" transform="translate(-14.262 -11.268)" fill="#ff7769"/>
            <path id="Trazado_999099" data-name="Trazado 999099" d="M84.118,18.155A16.118,16.118,0,0,1,79.805,21.4a10.111,10.111,0,0,0-5.626,7.334,15.934,15.934,0,0,0,2.475,12.2c.8,1.155,1.615,2.062,1.209,3.594-.546,2.056-3.318,2.7-4.719,4.067A9.659,9.659,0,0,0,70.4,55.116a7.823,7.823,0,0,0,.912,4.223A10.312,10.312,0,0,0,75.3,62.792c1.642.956,3.235,2,4.918,2.875" transform="translate(-8.399 -2.166)" fill="none" stroke="#262626" stroke-linecap="round" stroke-linejoin="round" stroke-width="0.415"/>
            <path id="Trazado_999100" data-name="Trazado 999100" d="M116.928,19.614c1.6,1.612,3.287,3.412,3.508,5.67a7.757,7.757,0,0,1-.318,2.75c-.438,1.635-1.113,3.2-1.526,4.842a8.146,8.146,0,0,0-.17,3.884,7.98,7.98,0,0,0,1.679,3.1c2.138,2.615,4.595,4.426,5.092,7.988a18.444,18.444,0,0,1-.3,5.838,7.767,7.767,0,0,1-1.242,3.391c-1.362,1.779-3.924,2.388-6.008,2.811" transform="translate(-13.951 -2.34)" fill="none" stroke="#262626" stroke-linecap="round" stroke-linejoin="round" stroke-width="0.415"/>
            <path id="Trazado_999101" data-name="Trazado 999101" d="M95.894,15.2c-1.66-.01-3.105.038-3.639.087-6.915.636-13.386,4.525-15.428,11.437a15.621,15.621,0,0,0-.461,7.333c.783,3.827,3.356,5.267,2.7,8.063-.134.57-.306.81-1.623,2.707-3,4.325-4.506,6.5-4.645,6.866-1.306,3.485.041,7.693,2.087,10.206a12.183,12.183,0,0,0,5.569,3.795c4.311,1.5,17.381,6.711,29.3-.4,2.951-1.762,7.8-4.656,9.088-10.1,1.585-6.7-3.17-13.315-3.9-14.339-1.75-2.433-2.133-1.861-3.1-3.568-2.009-3.557-.912-7.414.121-11.078,1-3.564.627-5.518-.008-6.626-1.659-2.895-6.143-3.518-9.755-4.02a51.255,51.255,0,0,0-6.3-.362" transform="translate(-8.624 -1.813)" fill="#262626"/>
            <path id="Trazado_999102" data-name="Trazado 999102" d="M102.836,56.092a41.053,41.053,0,0,1,16.588,10.641c4.541,4.877,7.319,10.471,9.391,14.641,1.366,2.75,2.357,5.133,3.029,6.866l-14.5,31.6Z" transform="translate(-12.269 -6.692)" fill="#fed2c7"/>
            <path id="Trazado_999103" data-name="Trazado 999103" d="M82.425,55.9H94.756s16.391,12.026,19.973,22.526-9.4,57.365-9.4,57.365a186.608,186.608,0,0,1-30.661-1.716,186.946,186.946,0,0,1-39.555-10.009c2.282-10.752,4.677-19.777,6.664-26.657,5.6-19.386,9.022-25.4,13.934-30.29A39.261,39.261,0,0,1,66.194,59.62,38.165,38.165,0,0,1,82.425,55.9" transform="translate(-4.189 -6.669)" fill="#fed2c7"/>
            <path id="Trazado_999104" data-name="Trazado 999104" d="M113.5,72.073s.58,24.886-1.709,33.906-8.133,31.738-8.133,31.738h9.85s5.351-20.093,5.755-25.142.956-13.732.277-17.468-2.071-11.672-2.992-14.923a80.957,80.957,0,0,0-3.048-8.111" transform="translate(-12.367 -8.599)" fill="#ffc5b5"/>
            <path id="Trazado_999105" data-name="Trazado 999105" d="M63.367,105.681a17.915,17.915,0,0,0-8.036,9.538c-3.135,9.21,3.639,20.293,4.026,20.752l-20.989-5.2s.538-14.944,2.221-20.463,9.828-14.383,9.828-14.383Z" transform="translate(-4.578 -11.444)" fill="#ffc5b5"/>
            <path id="Trazado_999106" data-name="Trazado 999106" d="M95.018,60.235h0a6.166,6.166,0,0,1-6.19-6.144L88.777,40.82l12.335-.047.05,13.272a6.168,6.168,0,0,1-6.144,6.19" transform="translate(-10.592 -4.865)" fill="#f7a99c"/>
            <path id="Trazado_999107" data-name="Trazado 999107" d="M101.736,51.065,93.7,46.938a9.416,9.416,0,0,0,3.4,6.2A9.065,9.065,0,0,0,101.746,55Z" transform="translate(-11.18 -5.6)" fill="#ff7769"/>
            <path id="Trazado_999108" data-name="Trazado 999108" d="M87.618,35.994c-.04-.2-.568-.5-.73-.607a3.807,3.807,0,0,0-.882-.416,3.583,3.583,0,0,0-1.881-.1,3.327,3.327,0,0,0-2.525,2.58,3.77,3.77,0,0,0,.366,2.171,5.534,5.534,0,0,0,2.247,2.425,6.025,6.025,0,0,0,2.644.78,15.022,15.022,0,0,0,2.067-.106q-.654-3.366-1.306-6.732" transform="translate(-9.731 -4.151)" fill="#f7a99c"/>
            <path id="Trazado_999109" data-name="Trazado 999109" d="M86.486,34.309a15.828,15.828,0,0,0,5.724,9.9c.867.68,6.632,5.2,11.907,2.993,6.779-2.834,6.04-13.968,5.992-14.57-.162-2.039-.638-8.042-5.61-11.246A11.943,11.943,0,0,0,88.017,25.2a12.962,12.962,0,0,0-1.531,9.111" transform="translate(-10.291 -2.337)" fill="#f7a99c"/>
            <path id="Trazado_999110" data-name="Trazado 999110" d="M108.971,34.175a1.334,1.334,0,1,0,1.1-1.737,1.468,1.468,0,0,0-1.1,1.737" transform="translate(-13 -3.869)" fill="#262626"/>
            <path id="Trazado_999111" data-name="Trazado 999111" d="M100.077,35.292a1.334,1.334,0,1,0,1.1-1.737,1.468,1.468,0,0,0-1.1,1.737" transform="translate(-11.938 -4.002)" fill="#262626"/>
            <path id="Trazado_999112" data-name="Trazado 999112" d="M106.277,35.888l1.2,1.622a.63.63,0,0,1-.179.914l-1.1.671" transform="translate(-12.67 -4.282)" fill="none" stroke="#262626" stroke-linecap="round" stroke-linejoin="round" stroke-width="0.733"/>
            <path id="Trazado_999113" data-name="Trazado 999113" d="M97.094,39.906a1.78,1.78,0,1,0,1.544-1.988,1.78,1.78,0,0,0-1.544,1.988" transform="translate(-11.583 -4.522)" fill="#ff7769"/>
            <path id="Trazado_999114" data-name="Trazado 999114" d="M87.077,40.777a3.3,3.3,0,0,0-1.04-2.476,3.216,3.216,0,0,0-2.065-.8" transform="translate(-10.019 -4.474)" fill="none" stroke="#262626" stroke-linecap="round" stroke-linejoin="round" stroke-width="0.733"/>
            <path id="Trazado_999115" data-name="Trazado 999115" d="M86.212,38.705a1.5,1.5,0,0,0-1.269.432,1.452,1.452,0,0,0-.364,1.081" transform="translate(-10.091 -4.616)" fill="none" stroke="#262626" stroke-linecap="round" stroke-linejoin="round" stroke-width="0.733"/>
            <path id="Trazado_999116" data-name="Trazado 999116" d="M86.28,33.075a2.752,2.752,0,0,1,1.537.733,4.05,4.05,0,0,1,.895,1.779,17.013,17.013,0,0,0,9.064-3.962,16.518,16.518,0,0,0,3.746-4.722,12.006,12.006,0,0,0,3.275,2.1c2.014.868,4.529,1.284,4.864.608a3.389,3.389,0,0,0-.144-1.213,6.877,6.877,0,0,0-.229-1.022,11.631,11.631,0,0,0-.96-2.094,12.164,12.164,0,0,0-3.02-3.458,11.535,11.535,0,0,0-2.576-1.522,12.513,12.513,0,0,0-10.478.619,13.825,13.825,0,0,0-5.621,6.153,11.034,11.034,0,0,0-.777,3.284,5.406,5.406,0,0,0,.181,2.071,4.794,4.794,0,0,0,.244.642" transform="translate(-10.241 -2.319)" fill="#262626"/>
            <path id="Trazado_999117" data-name="Trazado 999117" d="M112.082,36.979a1.768,1.768,0,0,1,.951.149,25.541,25.541,0,0,1-.336,3.344,1.6,1.6,0,0,1-.171.039,1.78,1.78,0,1,1-.444-3.532" transform="translate(-13.187 -4.41)" fill="#ff7769"/>
            <line id="Línea_3321" data-name="Línea 3321" x1="3.232" y2="1.319" transform="translate(90.996 37.223)" fill="none" stroke="#262626" stroke-linecap="round" stroke-linejoin="round" stroke-width="0.733"/>
            <path id="Trazado_999118" data-name="Trazado 999118" d="M107.461,152.145,54.916,166.12a7.472,7.472,0,1,0,3.841,14.442l52.038-13.839Z" transform="translate(-5.889 -18.152)" fill="#1775af"/>
            <path id="Trazado_999119" data-name="Trazado 999119" d="M49.616,171.44h0a7.473,7.473,0,0,1,5.3-9.142L157.977,134.89l3.841,14.442L58.757,176.74a7.471,7.471,0,0,1-9.142-5.3" transform="translate(-5.89 -16.094)" fill="#4450e4"/>
            <path id="Trazado_999120" data-name="Trazado 999120" d="M80.045,164.276l-5.225-3.814h2.539a2.345,2.345,0,0,0,2.233-3.062.892.892,0,0,0-.835-.616c-1.622-.027-2.976-.1-3.979-.172a18.445,18.445,0,0,1-4.637-.627c-1.7-.605-1.93-1.212-3.668-1.818a10.5,10.5,0,0,0-2.81-.559q-.762-.654-1.486-1.329l-6.554,12.028,1.317.447a11.122,11.122,0,0,0,1.288,3.045c1.008,1.642,2.14,2.507,4.274,4.139.425.325.1.056,5.38,2.956.494.271,1.426.784,2.093.41a2.046,2.046,0,0,0,.773-1.212,2.238,2.238,0,0,0,.017-.926,2.6,2.6,0,0,0,.556.351,2.458,2.458,0,0,0,2.642-.2,2.308,2.308,0,0,0,.513-1.883,2.688,2.688,0,0,0-.293-.944l.939.376a2.042,2.042,0,0,0,1.975-3.535l-.323-.24,1.8.414a1.812,1.812,0,0,0,1.474-3.229" transform="translate(-6.636 -18.168)" fill="#3041bf"/>
            <path id="Trazado_999121" data-name="Trazado 999121" d="M62.419,65.347c-23.071,9.879-38.793,28.207-38.773,46.918.012,11.6,6.077,21.909,8.078,25.31,7.739,13.156,23.032,14.774,28.515,17.817l6.241-8.932c-13.506-8.633-21.808-20.691-19.41-35.811C50.134,91.341,67.265,82.636,68.9,81.839Z" transform="translate(-2.821 -7.797)" fill="#f7a99c"/>
            <path id="Trazado_999122" data-name="Trazado 999122" d="M38.387,84.785,55.5,96.466l-3.1,4.755A37.011,37.011,0,0,1,34.576,89.173l3.811-4.388" transform="translate(-4.125 -10.116)" fill="#ff7769"/>
            <path id="Trazado_999123" data-name="Trazado 999123" d="M35.111,79.8l27.868,21c6.758-13.885,12-24.057,15.752-31.165,1.635-3.1,5.8-10.936,3.332-13.43-.631-.639-2.542-.763-6.361-1.009a35.053,35.053,0,0,0-7.27,0,32.874,32.874,0,0,0-5.99,1.446c-4.71,1.644-15.386,9.88-27.33,23.156" transform="translate(-4.189 -6.563)" fill="#fed2c7"/>
            <path id="Trazado_999124" data-name="Trazado 999124" d="M91.982,286.129v21.43h34.36l-.9-6.166s-10.774-6.046-12.451-7.422a18.03,18.03,0,0,1-3.831-4.908,7.709,7.709,0,0,1,0-2.934Z" transform="translate(-10.974 -34.138)" fill="#f7a99c"/>
            <path id="Trazado_999125" data-name="Trazado 999125" d="M90.01,295.28a3.215,3.215,0,0,1,1.736-.03c1.757.5,2.218,2.535,2.979,3.621l19.709.225-.124-3,3.077-1a21.1,21.1,0,0,0,5.819,4.63c2.425,1.292,5.571,2.313,6.852,4.5a5,5,0,0,1,.656,2.337,2.327,2.327,0,0,1-.536,1.853,1.854,1.854,0,0,1-1.2.449l-38.16-.24a.808.808,0,0,1-.808-.808Z" transform="translate(-10.739 -35.208)" fill="#ffc001"/>
            <path id="Trazado_999126" data-name="Trazado 999126" d="M129.023,312.815h-37.5a1.516,1.516,0,0,1-1.516-1.516v-1.682h40.528V311.3a1.516,1.516,0,0,1-1.516,1.516" transform="translate(-10.739 -36.94)" fill="#5d1113"/>
            <path id="Trazado_999127" data-name="Trazado 999127" d="M91.982,286.129h17.18l-.15,2.141H91.982Z" transform="translate(-10.974 -34.138)" fill="#ff7769"/>
            <path id="Trazado_999128" data-name="Trazado 999128" d="M21.62,265.371,10.527,283.706l29.4,17.786,2.424-5.739s-6.089-10.751-6.81-12.8a18.014,18.014,0,0,1-.737-6.182,7.7,7.7,0,0,1,1.518-2.51Z" transform="translate(-1.256 -31.661)" fill="#f7a99c"/>
            <path id="Trazado_999129" data-name="Trazado 999129" d="M15.791,272.2a3.2,3.2,0,0,1,1.5.873c1.245,1.337.587,3.318.674,4.64l16.746,10.395,1.445-2.628,3.15.738a21.066,21.066,0,0,0,2.581,6.973c1.406,2.361,3.569,4.862,3.533,7.4a4.985,4.985,0,0,1-.649,2.339,2.326,2.326,0,0,1-1.418,1.308A1.857,1.857,0,0,1,42.1,304L9.572,284.04a.807.807,0,0,1-.273-1.11Z" transform="translate(-1.095 -32.476)" fill="#ffc001"/>
            <path id="Trazado_999130" data-name="Trazado 999130" d="M40.853,307.378,8.772,287.968a1.515,1.515,0,0,1-.513-2.082l.87-1.438L43.8,305.428l-.87,1.438a1.515,1.515,0,0,1-2.081.513" transform="translate(-0.959 -33.938)" fill="#5d1113"/>
            <path id="Trazado_999131" data-name="Trazado 999131" d="M22.973,265.371l14.7,8.893-1.236,1.754L21.865,267.2Z" transform="translate(-2.609 -31.661)" fill="#ff7769"/>
            <path id="Trazado_999132" data-name="Trazado 999132" d="M76.021,72.531A52.827,52.827,0,0,1,62.98,102.889l-27.869-21" transform="translate(-4.189 -8.654)" fill="none" stroke="#262626" stroke-linecap="round" stroke-linejoin="round" stroke-width="0.415"/>
            <path id="Trazado_999133" data-name="Trazado 999133" d="M114.725,71.132a80.948,80.948,0,0,1,3.809,11.41,84.833,84.833,0,0,1,.609,37.992" transform="translate(-13.688 -8.487)" fill="none" stroke="#262626" stroke-linecap="round" stroke-linejoin="round" stroke-width="0.415"/>
            <path id="Trazado_999134" data-name="Trazado 999134" d="M69.234,59.28s-6.846.476-11.491,4.211-11.006,10.2-11.006,10.2" transform="translate(-5.576 -7.073)" fill="none" stroke="#fff" stroke-linecap="round" stroke-linejoin="round" stroke-width="0.415"/>
            <path id="Trazado_999135" data-name="Trazado 999135" d="M56.231,99.737a36.475,36.475,0,0,0-4.754,9.589,34.9,34.9,0,0,0-1.588,7.816,25.576,25.576,0,0,0,.717,9.818c.495,1.662,1.713,4.979,1.713,4.979" transform="translate(-5.932 -11.9)" fill="none" stroke="#262626" stroke-linecap="round" stroke-linejoin="round" stroke-width="0.415"/>
            <path id="Trazado_999136" data-name="Trazado 999136" d="M56.65,160.748a11.579,11.579,0,0,0,1.649,5.284c1.009,1.643,2.141,2.508,4.275,4.14.424.325.1.055,5.38,2.956.494.27,1.425.783,2.092.41a2.049,2.049,0,0,0,.774-1.212,2.234,2.234,0,0,0,.017-.925,2.6,2.6,0,0,0,.555.351,2.461,2.461,0,0,0,2.643-.2,2.313,2.313,0,0,0,.513-1.884,2.687,2.687,0,0,0-.294-.944l.939.376a2.042,2.042,0,0,0,1.976-3.534l-.323-.24,1.8.413a1.812,1.812,0,0,0,1.474-3.229l-5.226-3.814h2.54a2.345,2.345,0,0,0,2.233-3.062.892.892,0,0,0-.835-.615c-1.622-.028-2.976-.1-3.979-.173a18.391,18.391,0,0,1-4.637-.627c-1.7-.605-1.93-1.211-3.668-1.818a10.728,10.728,0,0,0-3.655-.585Z" transform="translate(-6.759 -18.113)" fill="#f7a99c"/>
            <path id="Trazado_999137" data-name="Trazado 999137" d="M71.834,173.282a26.995,26.995,0,0,0-6.828-5.692" transform="translate(-7.756 -19.995)" fill="none" stroke="#262626" stroke-linecap="round" stroke-linejoin="round" stroke-width="0.415"/>
            <path id="Trazado_999138" data-name="Trazado 999138" d="M75.588,170.155a27.533,27.533,0,0,0-7.754-6.348" transform="translate(-8.093 -19.544)" fill="none" stroke="#262626" stroke-linecap="round" stroke-linejoin="round" stroke-width="0.415"/>
            <path id="Trazado_999139" data-name="Trazado 999139" d="M78.534,166.414a28.571,28.571,0,0,0-7.72-5.473" transform="translate(-8.449 -19.202)" fill="none" stroke="#262626" stroke-linecap="round" stroke-linejoin="round" stroke-width="0.415"/>
            <path id="Trazado_999140" data-name="Trazado 999140" d="M67.833,239.6l21.3-38.72a20.934,20.934,0,0,0,2.573-11l-.72-16.538" transform="translate(-8.093 -20.681)" fill="none" stroke="#262626" stroke-linecap="round" stroke-linejoin="round" stroke-width="0.415"/>
            <path id="Trazado_999141" data-name="Trazado 999141" d="M154.413,160.119h0a2.442,2.442,0,0,1-3.336-.894l-3.7-6.4a2.442,2.442,0,0,1,4.23-2.442l3.7,6.4a2.442,2.442,0,0,1-.894,3.336" transform="translate(-17.545 -17.796)" fill="#f7a99c"/>
            <path id="Trazado_999142" data-name="Trazado 999142" d="M158.568,158.525h0a2.442,2.442,0,0,1-3.336-.894l-4.539-7.862a2.442,2.442,0,1,1,4.23-2.442l4.539,7.862a2.442,2.442,0,0,1-.894,3.336" transform="translate(-17.94 -17.432)" fill="#f7a99c"/>
            <path id="Trazado_999143" data-name="Trazado 999143" d="M162.736,156.149h0a2.442,2.442,0,0,1-3.336-.894l-4.762-8.248a2.442,2.442,0,1,1,4.23-2.442l4.762,8.248a2.442,2.442,0,0,1-.894,3.336" transform="translate(-18.411 -17.102)" fill="#f7a99c"/>
            <path id="Trazado_999144" data-name="Trazado 999144" d="M165.709,154.52h0a2.442,2.442,0,0,1-3.1-1.513l-3.1-9a2.442,2.442,0,1,1,4.617-1.591l3.1,9a2.442,2.442,0,0,1-1.513,3.1" transform="translate(-19.014 -16.795)" fill="#f7a99c"/>
            <path id="Trazado_999145" data-name="Trazado 999145" d="M151.327,146.684a3.221,3.221,0,0,0-.841,1.424c-.4,1.5.779,3.3,3.153,6.824.539.8,1.339,1.947,1.34,1.946v0" transform="translate(-17.945 -17.501)" fill="none" stroke="#262626" stroke-linecap="round" stroke-linejoin="round" stroke-width="0.415"/>
            <path id="Trazado_999146" data-name="Trazado 999146" d="M155.552,143.716a3.457,3.457,0,0,0-1.022,1.741c-.214,1.011.207,1.734,2.513,5.726l1.832,3.172" transform="translate(-18.431 -17.147)" fill="none" stroke="#262626" stroke-linecap="round" stroke-linejoin="round" stroke-width="0.415"/>
            <path id="Trazado_999147" data-name="Trazado 999147" d="M160.362,141.456a2.561,2.561,0,0,0-.779,1.323,2.519,2.519,0,0,0,.12,1.345c.395,1.17,1.278,3.838,2.5,7.375" transform="translate(-19.034 -16.877)" fill="none" stroke="#262626" stroke-linecap="round" stroke-linejoin="round" stroke-width="0.415"/>
            <g id="Grupo_1190889" data-name="Grupo 1190889" transform="translate(150.347 55.231)" opacity="0.5">
              <g id="Grupo_1190888" data-name="Grupo 1190888">
                <g id="Grupo_1190887" data-name="Grupo 1190887" clip-path="url(#clip-path-3)">
                  <path id="Trazado_999148" data-name="Trazado 999148" d="M273.048,113.879a51.166,51.166,0,1,1-51.166-51.166,51.166,51.166,0,0,1,51.166,51.166" transform="translate(-170.715 -62.713)" fill="#cdebf5"/>
                </g>
              </g>
            </g>
            <path id="Trazado_999149" data-name="Trazado 999149" d="M221.069,55.9a57.166,57.166,0,1,0,57.166,57.166A57.166,57.166,0,0,0,221.069,55.9m0,105.05a47.884,47.884,0,1,1,47.883-47.883,47.883,47.883,0,0,1-47.883,47.883" transform="translate(-19.555 -6.669)" fill="#4450e4"/>
            <path id="Trazado_999150" data-name="Trazado 999150" d="M240.149,154.048a3.188,3.188,0,0,1,1.929-5.559,22.312,22.312,0,0,0,9.125-2.575,21.629,21.629,0,0,0,6.058-4.8,17.549,17.549,0,0,0,4.236-7.9,17.049,17.049,0,0,0-2.356-12.039,3.187,3.187,0,1,1,5.434-3.333,23.105,23.105,0,0,1,3.16,16.691,23.746,23.746,0,0,1-5.644,10.743,27.782,27.782,0,0,1-7.874,6.26,28.731,28.731,0,0,1-11.748,3.319,3.175,3.175,0,0,1-2.319-.8" transform="translate(-28.525 -13.878)" fill="#fff"/>
            <path id="Trazado_999151" data-name="Trazado 999151" d="M194.063,70.779a52.817,52.817,0,0,1,63.611.29" transform="translate(-23.154 -7.191)" fill="none" stroke="#262626" stroke-linecap="round" stroke-linejoin="round" stroke-width="0.415"/>
          </g>
        </g>
      </g>
    </g>
  </g>
</svg>
