<svg xmlns="http://www.w3.org/2000/svg" xmlns:xlink="http://www.w3.org/1999/xlink" width="1020" height="461.65" viewBox="0 0 1020 461.65">
  <defs>
    <linearGradient id="linear-gradient" x1="0.5" x2="0.5" y2="1" gradientUnits="objectBoundingBox">
      <stop offset="0" stop-color="#ffedb1"/>
      <stop offset="1" stop-color="#fecec1"/>
    </linearGradient>
    <clipPath id="clip-path">
      <path id="Trazado_611005" data-name="Trazado 611005" d="M0,0H1020V460.65H0Z" fill="#ffedb1"/>
    </clipPath>
  </defs>
  <g id="Grupo_1190965" data-name="Grupo 1190965" transform="translate(-290 -883.35)">
    <path id="Trazado_608309" data-name="Trazado 608309" d="M0,0H1020V460.65H0Z" transform="translate(290 883.35)" fill="url(#linear-gradient)"/>
    <rect id="Rectángulo_455235" data-name="Rectángulo 455235" width="146.369" height="37" rx="18.5" transform="translate(399 996.635)" fill="#674a11"/>
    <rect id="Rectángulo_455240" data-name="Rectángulo 455240" width="146.369" height="37" rx="18.5" transform="translate(726.815 1221)" fill="#8dcdc1"/>
    <rect id="Rectángulo_455243" data-name="Rectángulo 455243" width="146.369" height="37" rx="18.5" transform="translate(1054.631 1221)" fill="#8dcdc1"/>
    <rect id="Rectángulo_455241" data-name="Rectángulo 455241" width="146.369" height="37" rx="18.5" transform="translate(726.815 1267)" fill="#8dcdc1"/>
    <rect id="Rectángulo_455242" data-name="Rectángulo 455242" width="146.369" height="37" rx="18.5" transform="translate(1054.631 1267)" fill="#8dcdc1"/>
    <rect id="Rectángulo_455236" data-name="Rectángulo 455236" width="146.369" height="37" rx="18.5" transform="translate(727 996.635)" fill="#674a11"/>
    <rect id="Rectángulo_455237" data-name="Rectángulo 455237" width="146.369" height="37" rx="18.5" transform="translate(1054.315 996.635)" fill="#674a11"/>
    <path id="Trazado_999193" data-name="Trazado 999193" d="M45.618,14.023H40.853L39.782,17H38.235L42.579,5.625h1.313L48.243,17H46.7ZM41.306,12.8h3.867l-1.937-5.32ZM58.517,17H57.009L51.282,8.234V17H49.774V5.625h1.508l5.742,8.8v-8.8h1.492Zm2.664,0V5.625h3.211a5.169,5.169,0,0,1,2.625.656,4.438,4.438,0,0,1,1.762,1.867,6.078,6.078,0,0,1,.629,2.781v.727a6.1,6.1,0,0,1-.621,2.82,4.369,4.369,0,0,1-1.773,1.859A5.5,5.5,0,0,1,64.329,17Zm1.5-10.148v8.922h1.578a3.434,3.434,0,0,0,2.7-1.079,4.458,4.458,0,0,0,.965-3.073v-.665a4.529,4.529,0,0,0-.91-3.014,3.239,3.239,0,0,0-2.582-1.091Z" transform="translate(418 1003.057)" fill="#fff"/>
    <path id="Trazado_999201" data-name="Trazado 999201" d="M42.419,14.875H38.661L38,17h-2.93L39.247,5.625h2.578L46.028,17H43.083Zm-3.1-2.117h2.445L40.536,8.813Zm11.07-.062a4.989,4.989,0,0,1,.492-2.254,3.52,3.52,0,0,1,1.414-1.52,4.259,4.259,0,0,1,2.164-.531A3.887,3.887,0,0,1,57.45,9.566a4.512,4.512,0,0,1,1.094,3.2v.094A4.378,4.378,0,0,1,57.446,16a3.9,3.9,0,0,1-2.973,1.16,3.942,3.942,0,0,1-2.9-1.082,4.232,4.232,0,0,1-1.18-2.934Zm2.633.164a3.145,3.145,0,0,0,.367,1.719,1.223,1.223,0,0,0,1.086.547q1.406,0,1.438-2.164V12.7q0-2.273-1.453-2.273-1.32,0-1.43,1.961ZM63.81,17V5.625H67.9a5.786,5.786,0,0,1,3.34.8A2.677,2.677,0,0,1,72.38,8.766a2.706,2.706,0,0,1-.406,1.508,2.367,2.367,0,0,1-1.2.922,2.4,2.4,0,0,1,1.367.875,2.544,2.544,0,0,1,.477,1.563,3.012,3.012,0,0,1-1.059,2.512A5.038,5.038,0,0,1,68.427,17Zm2.742-4.836v2.727h1.8a1.709,1.709,0,0,0,1.141-.34,1.189,1.189,0,0,0,.4-.957,1.261,1.261,0,0,0-1.414-1.43Zm0-1.8h1.43a2.031,2.031,0,0,0,1.281-.329,1.168,1.168,0,0,0,.383-.948,1.226,1.226,0,0,0-.414-1.038A2.216,2.216,0,0,0,67.9,7.734H66.552Z" transform="translate(745.815 1227.422)" fill="#12263f"/>
    <path id="Trazado_999198" data-name="Trazado 999198" d="M35.751,14.875H31.993L31.337,17h-2.93L32.579,5.625h2.578L39.36,17H36.415Zm-3.1-2.117h2.445L33.868,8.813Zm8.344,7.3-1.328-.625.266-.531a4.333,4.333,0,0,0,.57-1.937V15.016H42.61l-.008,1.7a4.238,4.238,0,0,1-.461,1.828A4.645,4.645,0,0,1,40.993,20.063ZM50.782,8.547l.086.992a2.867,2.867,0,0,1,2.414-1.148,2.412,2.412,0,0,1,1.973.789,3.757,3.757,0,0,1,.676,2.375V17H53.29V11.664a1.426,1.426,0,0,0-.258-.941,1.193,1.193,0,0,0-.937-.3,1.256,1.256,0,0,0-1.148.609V17H48.313V8.547ZM57.056,12.7a4.989,4.989,0,0,1,.492-2.254,3.52,3.52,0,0,1,1.414-1.52,4.259,4.259,0,0,1,2.164-.531,3.887,3.887,0,0,1,2.992,1.176,4.512,4.512,0,0,1,1.094,3.2v.094A4.378,4.378,0,0,1,64.114,16a3.9,3.9,0,0,1-2.973,1.16,3.942,3.942,0,0,1-2.9-1.082,4.232,4.232,0,0,1-1.18-2.934Zm2.633.164a3.145,3.145,0,0,0,.367,1.719,1.223,1.223,0,0,0,1.086.547q1.406,0,1.438-2.164V12.7q0-2.273-1.453-2.273-1.32,0-1.43,1.961ZM70.478,17V5.625h4.086a5.786,5.786,0,0,1,3.34.8,2.677,2.677,0,0,1,1.145,2.336,2.706,2.706,0,0,1-.406,1.508,2.367,2.367,0,0,1-1.2.922,2.4,2.4,0,0,1,1.367.875,2.544,2.544,0,0,1,.477,1.563,3.012,3.012,0,0,1-1.059,2.512A5.038,5.038,0,0,1,75.095,17Zm2.742-4.836v2.727h1.8a1.709,1.709,0,0,0,1.141-.34,1.189,1.189,0,0,0,.4-.957,1.261,1.261,0,0,0-1.414-1.43Zm0-1.8h1.43a2.031,2.031,0,0,0,1.281-.329,1.168,1.168,0,0,0,.383-.948A1.226,1.226,0,0,0,75.9,8.052a2.216,2.216,0,0,0-1.336-.317H73.22Z" transform="translate(1073.631 1227.422)" fill="#12263f"/>
    <path id="Trazado_999200" data-name="Trazado 999200" d="M36.8,14.023H32.032L30.962,17H29.415L33.759,5.625h1.313L39.423,17H37.884ZM32.485,12.8h3.867l-1.937-5.32Zm9.6-4.25.039.938a3.122,3.122,0,0,1,2.508-1.094A2.417,2.417,0,0,1,47.048,9.75a3.2,3.2,0,0,1,1.1-.984,3.242,3.242,0,0,1,1.6-.375q2.781,0,2.828,2.945V17H51.126V11.422a1.941,1.941,0,0,0-.414-1.355,1.823,1.823,0,0,0-1.391-.449,1.917,1.917,0,0,0-1.336.48,1.949,1.949,0,0,0-.617,1.293V17H45.915V11.461a1.613,1.613,0,0,0-1.8-1.844,1.934,1.934,0,0,0-1.945,1.211V17H40.72V8.547Zm19.8,4.32a5.062,5.062,0,0,1-.883,3.109,2.829,2.829,0,0,1-2.391,1.18A3.1,3.1,0,0,1,56.2,16.18v4.07H54.751V8.547h1.32l.07.938a2.977,2.977,0,0,1,2.453-1.094A2.882,2.882,0,0,1,61,9.539a5.117,5.117,0,0,1,.887,3.2ZM60.446,12.7a3.735,3.735,0,0,0-.609-2.258,1.963,1.963,0,0,0-1.672-.828A2.125,2.125,0,0,0,56.2,10.781V14.82a2.129,2.129,0,0,0,1.984,1.156,1.954,1.954,0,0,0,1.652-.824A4.077,4.077,0,0,0,60.446,12.7ZM65.3,17H63.853V5H65.3Zm3.883,0H67.728V8.547h1.453ZM69.2,5.008h1.75L68.853,7.3l-1.164,0ZM76.782,17a3.036,3.036,0,0,1-.2-.891,3.225,3.225,0,0,1-2.406,1.047,2.984,2.984,0,0,1-2.051-.707,2.288,2.288,0,0,1-.8-1.793,2.39,2.39,0,0,1,1-2.051,4.733,4.733,0,0,1,2.824-.73h1.406v-.664A1.623,1.623,0,0,0,76.1,10a1.821,1.821,0,0,0-1.336-.449,2.108,2.108,0,0,0-1.3.391,1.151,1.151,0,0,0-.523.945H71.493a2,2,0,0,1,.449-1.223,3.066,3.066,0,0,1,1.219-.934,4.1,4.1,0,0,1,1.691-.344,3.342,3.342,0,0,1,2.289.73A2.635,2.635,0,0,1,78,11.133v3.891a4.757,4.757,0,0,0,.3,1.852V17Zm-2.4-1.1a2.54,2.54,0,0,0,1.289-.352,2.127,2.127,0,0,0,.883-.914V12.9H75.423q-2.656,0-2.656,1.555a1.316,1.316,0,0,0,.453,1.063A1.742,1.742,0,0,0,74.384,15.9Z" transform="translate(745.815 1273.422)" fill="#12263f"/>
    <path id="Trazado_999199" data-name="Trazado 999199" d="M34.938,11.742h-4.93v4.031h5.727V17H28.509V5.625h7.148V6.852H30.009v3.664h4.93Zm5.273-.109,1.875-3.086h1.688l-2.766,4.18L43.86,17H42.188l-1.953-3.164L38.282,17H36.6l2.852-4.273-2.766-4.18H38.36Zm8.328,4.344a2.082,2.082,0,0,0,1.352-.469,1.649,1.649,0,0,0,.641-1.172H51.9a2.621,2.621,0,0,1-.5,1.383,3.293,3.293,0,0,1-1.23,1.047,3.55,3.55,0,0,1-1.629.391A3.482,3.482,0,0,1,45.794,16a4.59,4.59,0,0,1-1.02-3.152v-.242a5.089,5.089,0,0,1,.453-2.2,3.451,3.451,0,0,1,1.3-1.492,3.7,3.7,0,0,1,2-.531,3.39,3.39,0,0,1,2.363.852,3.043,3.043,0,0,1,1,2.211H50.532a1.992,1.992,0,0,0-.621-1.348,1.932,1.932,0,0,0-1.379-.527,2.023,2.023,0,0,0-1.707.793,3.724,3.724,0,0,0-.605,2.293v.273a3.65,3.65,0,0,0,.6,2.25A2.033,2.033,0,0,0,48.54,15.977ZM55.095,17H53.649V5h1.445Zm7.531-.836a3.07,3.07,0,0,1-2.477.992,2.628,2.628,0,0,1-2.059-.785,3.4,3.4,0,0,1-.715-2.324v-5.5h1.445v5.461q0,1.922,1.563,1.922a2.163,2.163,0,0,0,2.2-1.234V8.547h1.445V17H62.657Zm6.367-1.281,1.969-6.336h1.547L69.11,18.3q-.789,2.109-2.508,2.109l-.273-.023-.539-.1V19.117l.391.031a1.923,1.923,0,0,0,1.145-.3A2.149,2.149,0,0,0,68,17.766l.32-.859L65.306,8.547h1.578Zm8.313,2.273a3.693,3.693,0,0,1-2.8-1.129,4.19,4.19,0,0,1-1.078-3.02v-.266a5.073,5.073,0,0,1,.48-2.246,3.748,3.748,0,0,1,1.344-1.547,3.378,3.378,0,0,1,1.871-.559,3.166,3.166,0,0,1,2.563,1.086,4.7,4.7,0,0,1,.914,3.109v.6H74.876a3,3,0,0,0,.73,2.02,2.3,2.3,0,0,0,1.777.77,2.517,2.517,0,0,0,1.3-.312,3.259,3.259,0,0,0,.93-.828l.883.688A3.55,3.55,0,0,1,77.306,17.156Zm-.18-7.578a1.928,1.928,0,0,0-1.469.637A3.1,3.1,0,0,0,74.923,12h4.234v-.109a2.753,2.753,0,0,0-.594-1.707A1.815,1.815,0,0,0,77.126,9.578Z" transform="translate(1073.631 1273.422)" fill="#12263f"/>
    <path id="Trazado_999194" data-name="Trazado 999194" d="M53.829,11.68a7.037,7.037,0,0,1-.562,2.918,4.261,4.261,0,0,1-1.594,1.9,4.4,4.4,0,0,1-6.4-1.887,6.752,6.752,0,0,1-.59-2.832v-.82a6.953,6.953,0,0,1,.57-2.9,4.218,4.218,0,0,1,4-2.594,4.41,4.41,0,0,1,2.41.66,4.253,4.253,0,0,1,1.605,1.914,7.071,7.071,0,0,1,.563,2.918Zm-1.492-.734a5.1,5.1,0,0,0-.812-3.105,2.68,2.68,0,0,0-2.273-1.082A2.651,2.651,0,0,0,47.013,7.84a5,5,0,0,0-.84,3v.836A5.107,5.107,0,0,0,47,14.762a2.888,2.888,0,0,0,4.52.063,5.079,5.079,0,0,0,.82-3.035ZM60.251,12.4H57.579V17H56.071V5.625h3.766a4.457,4.457,0,0,1,2.957.875,3.148,3.148,0,0,1,1.035,2.547,3.062,3.062,0,0,1-.574,1.852,3.428,3.428,0,0,1-1.6,1.18l2.672,4.828V17H62.72Zm-2.672-1.227h2.3a2.6,2.6,0,0,0,1.777-.579,1.959,1.959,0,0,0,.66-1.55,2.062,2.062,0,0,0-.629-1.62,2.663,2.663,0,0,0-1.816-.571h-2.3Z" transform="translate(746 1003.057)" fill="#fff"/>
    <path id="Trazado_999195" data-name="Trazado 999195" d="M48.376,17H46.868L41.142,8.234V17H39.634V5.625h1.508l5.742,8.8v-8.8h1.492ZM59.79,11.68a7.037,7.037,0,0,1-.562,2.918,4.261,4.261,0,0,1-1.594,1.9,4.4,4.4,0,0,1-6.4-1.887,6.752,6.752,0,0,1-.59-2.832v-.82a6.953,6.953,0,0,1,.57-2.9,4.218,4.218,0,0,1,4-2.594,4.41,4.41,0,0,1,2.41.66,4.253,4.253,0,0,1,1.605,1.914,7.071,7.071,0,0,1,.563,2.918ZM58.3,10.945a5.1,5.1,0,0,0-.812-3.105,2.68,2.68,0,0,0-2.273-1.082A2.651,2.651,0,0,0,52.974,7.84a5,5,0,0,0-.84,3v.836a5.107,5.107,0,0,0,.824,3.082,2.888,2.888,0,0,0,4.52.063,5.079,5.079,0,0,0,.82-3.035ZM69.688,6.852H66.032V17H64.54V6.852H60.892V5.625h8.8Z" transform="translate(1073.315 1003.057)" fill="#fff"/>
    <circle id="Elipse_13678" data-name="Elipse 13678" cx="77.5" cy="77.5" r="77.5" transform="translate(353 1050)" fill="#ffd54e" opacity="0.75" style="mix-blend-mode: multiply;isolation: isolate"/>
    <circle id="Elipse_13679" data-name="Elipse 13679" cx="77.5" cy="77.5" r="77.5" transform="translate(437 1050)" fill="#674a11" opacity="0.52" style="mix-blend-mode: multiply;isolation: isolate"/>
    <circle id="Elipse_5841" data-name="Elipse 5841" cx="21.252" cy="21.252" r="21.252" transform="translate(374 1106.248)" fill="#674a11"/>
    <path id="Trazado_999205" data-name="Trazado 999205" d="M8.367-2.637H3.744L2.865,0H.062L4.825-12.8H7.269L12.059,0h-2.8ZM4.456-4.772h3.2L6.047-9.562Z" transform="translate(389.528 1133.886)" fill="#fff"/>
    <circle id="Elipse_5841-2" data-name="Elipse 5841" cx="21.252" cy="21.252" r="21.252" transform="translate(528.127 1106.248)" fill="#674a11"/>
    <path id="Trazado_999204" data-name="Trazado 999204" d="M1.143,0V-12.8H5.625a5.886,5.886,0,0,1,3.533.892,3.05,3.05,0,0,1,1.2,2.615,2.891,2.891,0,0,1-.483,1.657,2.792,2.792,0,0,1-1.345,1.05,2.7,2.7,0,0,1,1.551.993,2.936,2.936,0,0,1,.567,1.828A3.377,3.377,0,0,1,9.475-.967,5.3,5.3,0,0,1,6.117,0ZM3.779-5.572v3.454H6.038a2.18,2.18,0,0,0,1.455-.444,1.522,1.522,0,0,0,.523-1.226A1.607,1.607,0,0,0,6.2-5.572Zm0-1.863H5.73q2-.035,2-1.591a1.47,1.47,0,0,0-.505-1.252,2.658,2.658,0,0,0-1.6-.382H3.779Z" transform="translate(543.655 1133.886)" fill="#fff"/>
    <circle id="Elipse_13681" data-name="Elipse 13681" cx="77.5" cy="77.5" r="77.5" transform="translate(681 1050)" fill="#ffd54e" opacity="0.75" style="mix-blend-mode: multiply;isolation: isolate"/>
    <circle id="Elipse_13680" data-name="Elipse 13680" cx="77.5" cy="77.5" r="77.5" transform="translate(765 1050)" fill="#fc9d83" opacity="0.75" style="mix-blend-mode: multiply;isolation: isolate"/>
    <circle id="Elipse_5841-3" data-name="Elipse 5841" cx="21.252" cy="21.252" r="21.252" transform="translate(702.496 1106.248)" fill="#674a11"/>
    <path id="Trazado_999203" data-name="Trazado 999203" d="M8.367-2.637H3.744L2.865,0H.062L4.825-12.8H7.269L12.059,0h-2.8ZM4.456-4.772h3.2L6.047-9.562Z" transform="translate(718.024 1133.886)" fill="#fff"/>
    <circle id="Elipse_5841-4" data-name="Elipse 5841" cx="21.252" cy="21.252" r="21.252" transform="translate(856 1106.248)" fill="#674a11"/>
    <path id="Trazado_999202" data-name="Trazado 999202" d="M1.143,0V-12.8H5.625a5.886,5.886,0,0,1,3.533.892,3.05,3.05,0,0,1,1.2,2.615,2.891,2.891,0,0,1-.483,1.657,2.792,2.792,0,0,1-1.345,1.05,2.7,2.7,0,0,1,1.551.993,2.936,2.936,0,0,1,.567,1.828A3.377,3.377,0,0,1,9.475-.967,5.3,5.3,0,0,1,6.117,0ZM3.779-5.572v3.454H6.038a2.18,2.18,0,0,0,1.455-.444,1.522,1.522,0,0,0,.523-1.226A1.607,1.607,0,0,0,6.2-5.572Zm0-1.863H5.73q2-.035,2-1.591a1.47,1.47,0,0,0-.505-1.252,2.658,2.658,0,0,0-1.6-.382H3.779Z" transform="translate(871.528 1133.886)" fill="#fff"/>
    <circle id="Elipse_13683" data-name="Elipse 13683" cx="77.5" cy="77.5" r="77.5" transform="translate(1008 1050)" fill="#ffd54e" opacity="0.75" style="mix-blend-mode: multiply;isolation: isolate"/>
    <circle id="Elipse_13687" data-name="Elipse 13687" cx="36.5" cy="36.5" r="36.5" transform="translate(1117 1129)" fill="#fecc66"/>
    <circle id="Elipse_13682" data-name="Elipse 13682" cx="77.5" cy="77.5" r="77.5" transform="translate(1092 1050)" fill="#cbcbcb" opacity="0.75" style="mix-blend-mode: multiply;isolation: isolate"/>
    <circle id="Elipse_5841-5" data-name="Elipse 5841" cx="21.252" cy="21.252" r="21.252" transform="translate(1029 1106.248)" fill="#674a11"/>
    <path id="Trazado_999196" data-name="Trazado 999196" d="M8.367-2.637H3.744L2.865,0H.062L4.825-12.8H7.269L12.059,0h-2.8ZM4.456-4.772h3.2L6.047-9.562Z" transform="translate(1044.528 1133.886)" fill="#fff"/>
    <circle id="Elipse_5841-6" data-name="Elipse 5841" cx="21.252" cy="21.252" r="21.252" transform="translate(1183 1106.248)" fill="#674a11"/>
    <path id="Trazado_999197" data-name="Trazado 999197" d="M1.143,0V-12.8H5.625a5.886,5.886,0,0,1,3.533.892,3.05,3.05,0,0,1,1.2,2.615,2.891,2.891,0,0,1-.483,1.657,2.792,2.792,0,0,1-1.345,1.05,2.7,2.7,0,0,1,1.551.993,2.936,2.936,0,0,1,.567,1.828A3.377,3.377,0,0,1,9.475-.967,5.3,5.3,0,0,1,6.117,0ZM3.779-5.572v3.454H6.038a2.18,2.18,0,0,0,1.455-.444,1.522,1.522,0,0,0,.523-1.226A1.607,1.607,0,0,0,6.2-5.572Zm0-1.863H5.73q2-.035,2-1.591a1.47,1.47,0,0,0-.505-1.252,2.658,2.658,0,0,0-1.6-.382H3.779Z" transform="translate(1198.528 1133.886)" fill="#fff"/>
    <rect id="Rectángulo_455238" data-name="Rectángulo 455238" width="146.369" height="37" rx="18.5" transform="translate(399 1221)" fill="#8dcdc1"/>
    <rect id="Rectángulo_455239" data-name="Rectángulo 455239" width="146.369" height="37" rx="18.5" transform="translate(399 1267)" fill="#8dcdc1"/>
    <path id="Trazado_999206" data-name="Trazado 999206" d="M41.888,14.875H38.13L37.474,17h-2.93L38.716,5.625h2.578L45.5,17H42.552Zm-3.1-2.117h2.445L40,8.813Zm15.688-2.2,2.094-4.937h2.961l-3.664,7.289V17H53.083V12.914L49.427,5.625h2.945ZM64.341,17V5.625h4.086a5.786,5.786,0,0,1,3.34.8,2.677,2.677,0,0,1,1.145,2.336,2.706,2.706,0,0,1-.406,1.508,2.367,2.367,0,0,1-1.2.922,2.4,2.4,0,0,1,1.367.875,2.544,2.544,0,0,1,.477,1.563,3.012,3.012,0,0,1-1.059,2.512A5.038,5.038,0,0,1,68.958,17Zm2.742-4.836v2.727h1.8a1.709,1.709,0,0,0,1.141-.34,1.189,1.189,0,0,0,.4-.957A1.261,1.261,0,0,0,69,12.164Zm0-1.8h1.43a2.031,2.031,0,0,0,1.281-.329,1.168,1.168,0,0,0,.383-.948,1.226,1.226,0,0,0-.414-1.038,2.216,2.216,0,0,0-1.336-.317H67.083Z" transform="translate(418 1227.422)" fill="#12263f"/>
    <path id="Trazado_999207" data-name="Trazado 999207" d="M25.985,12.4H23.313V17H21.806V5.625h3.766a4.457,4.457,0,0,1,2.957.875,3.148,3.148,0,0,1,1.035,2.547,3.062,3.062,0,0,1-.574,1.852,3.428,3.428,0,0,1-1.6,1.18l2.672,4.828V17H28.454Zm-2.672-1.227h2.3a2.6,2.6,0,0,0,1.777-.579,1.959,1.959,0,0,0,.66-1.55,2.062,2.062,0,0,0-.629-1.62,2.663,2.663,0,0,0-1.816-.571h-2.3Zm11.633,5.984a3.693,3.693,0,0,1-2.8-1.129,4.19,4.19,0,0,1-1.078-3.02v-.266a5.073,5.073,0,0,1,.48-2.246A3.748,3.748,0,0,1,32.9,8.949a3.378,3.378,0,0,1,1.871-.559,3.166,3.166,0,0,1,2.563,1.086,4.7,4.7,0,0,1,.914,3.109v.6H32.517a3,3,0,0,0,.73,2.02,2.3,2.3,0,0,0,1.777.77,2.517,2.517,0,0,0,1.3-.312,3.259,3.259,0,0,0,.93-.828l.883.688A3.55,3.55,0,0,1,34.946,17.156Zm-.18-7.578a1.928,1.928,0,0,0-1.469.637A3.1,3.1,0,0,0,32.563,12H36.8v-.109a2.753,2.753,0,0,0-.594-1.707A1.815,1.815,0,0,0,34.767,9.578Zm10.07,5.18a1.064,1.064,0,0,0-.441-.91,4.249,4.249,0,0,0-1.539-.559,7.277,7.277,0,0,1-1.742-.562,2.479,2.479,0,0,1-.953-.781,1.869,1.869,0,0,1-.309-1.078,2.193,2.193,0,0,1,.879-1.758,3.432,3.432,0,0,1,2.246-.719,3.532,3.532,0,0,1,2.332.742,2.357,2.357,0,0,1,.895,1.9H44.751a1.3,1.3,0,0,0-.5-1.023,1.888,1.888,0,0,0-1.27-.43,1.976,1.976,0,0,0-1.234.344,1.082,1.082,0,0,0-.445.9.877.877,0,0,0,.414.789,5.1,5.1,0,0,0,1.5.508,7.8,7.8,0,0,1,1.754.578,2.558,2.558,0,0,1,1,.809,1.988,1.988,0,0,1,.324,1.152,2.163,2.163,0,0,1-.906,1.816,3.8,3.8,0,0,1-2.352.684,4.257,4.257,0,0,1-1.8-.359,2.922,2.922,0,0,1-1.223-1,2.42,2.42,0,0,1-.441-1.395h1.445a1.5,1.5,0,0,0,.582,1.152,2.258,2.258,0,0,0,1.434.426,2.331,2.331,0,0,0,1.316-.332A1.02,1.02,0,0,0,44.837,14.758ZM50.126,6.5V8.547H51.7V9.664H50.126v5.249a1.173,1.173,0,0,0,.211.763.888.888,0,0,0,.719.254,3.5,3.5,0,0,0,.688-.094V17a4.215,4.215,0,0,1-1.109.155,1.8,1.8,0,0,1-1.461-.586,2.517,2.517,0,0,1-.492-1.664V9.664H47.142V8.547h1.539V6.5Zm7.352,3.344a4.331,4.331,0,0,0-.711-.055A1.9,1.9,0,0,0,54.837,11v6H53.392V8.547H54.8l.023.977a2.251,2.251,0,0,1,2.016-1.133,1.477,1.477,0,0,1,.641.109ZM60.376,17H58.931V8.547h1.445ZM58.813,6.3a.863.863,0,0,1,.215-.594.807.807,0,0,1,.637-.242.819.819,0,0,1,.641.242.854.854,0,0,1,.219.594.826.826,0,0,1-.219.586.834.834,0,0,1-.641.234.821.821,0,0,1-.637-.234A.834.834,0,0,1,58.813,6.3Zm5.242,2.242L64.1,9.609a3.08,3.08,0,0,1,2.531-1.219q2.68,0,2.7,3.023V17H67.892V11.406a1.946,1.946,0,0,0-.418-1.352A1.675,1.675,0,0,0,66.2,9.617a2.086,2.086,0,0,0-1.234.375,2.546,2.546,0,0,0-.828.984V17H62.688V8.547ZM71.173,12.7a4.968,4.968,0,0,1,.914-3.145,3.151,3.151,0,0,1,4.836-.074l.07-.937h1.32V16.8a3.439,3.439,0,0,1-.973,2.586,3.589,3.589,0,0,1-2.613.945,4.348,4.348,0,0,1-1.789-.391,3.08,3.08,0,0,1-1.336-1.07l.75-.867a2.826,2.826,0,0,0,2.273,1.148,2.214,2.214,0,0,0,1.645-.594,2.269,2.269,0,0,0,.59-1.672v-.727a2.971,2.971,0,0,1-2.367,1,2.887,2.887,0,0,1-2.4-1.2A5.224,5.224,0,0,1,71.173,12.7Zm1.453.164a3.79,3.79,0,0,0,.586,2.246,1.9,1.9,0,0,0,1.641.816,2.117,2.117,0,0,0,2.008-1.242V10.828a2.142,2.142,0,0,0-1.992-1.211,1.921,1.921,0,0,0-1.648.82A4.128,4.128,0,0,0,72.626,12.867ZM84,17.156a3.693,3.693,0,0,1-2.8-1.129,4.19,4.19,0,0,1-1.078-3.02v-.266a5.073,5.073,0,0,1,.48-2.246A3.748,3.748,0,0,1,81.95,8.949a3.378,3.378,0,0,1,1.871-.559,3.166,3.166,0,0,1,2.563,1.086,4.7,4.7,0,0,1,.914,3.109v.6H81.571a3,3,0,0,0,.73,2.02,2.3,2.3,0,0,0,1.777.77,2.517,2.517,0,0,0,1.3-.312,3.259,3.259,0,0,0,.93-.828l.883.688A3.55,3.55,0,0,1,84,17.156Zm-.18-7.578a1.928,1.928,0,0,0-1.469.637A3.1,3.1,0,0,0,81.618,12h4.234v-.109a2.753,2.753,0,0,0-.594-1.707A1.815,1.815,0,0,0,83.821,9.578Z" transform="translate(418 1273.422)" fill="#12263f"/>
    <path id="Trazado_998295" data-name="Trazado 998295" d="M6731.815-10433v10.278" transform="translate(-6259.631 11691)" fill="none" stroke="#8dcdc1" stroke-width="5"/>
    <path id="Trazado_998296" data-name="Trazado 998296" d="M6731.815-10433v10.278" transform="translate(-5931.815 11691)" fill="none" stroke="#8dcdc1" stroke-width="5"/>
    <path id="Trazado_998297" data-name="Trazado 998297" d="M6731.815-10433v10.278" transform="translate(-5604 11691)" fill="none" stroke="#8dcdc1" stroke-width="5"/>
  </g>
</svg>
