<svg xmlns="http://www.w3.org/2000/svg" xmlns:xlink="http://www.w3.org/1999/xlink" width="150.001" height="150" viewBox="0 0 150.001 150">
  <defs>
    <clipPath id="clip-path">
      <rect id="Rect치ngulo_455542" data-name="Rect치ngulo 455542" width="89.072" height="88.583" fill="#5a5858"/>
    </clipPath>
  </defs>
  <g id="Grupo_1190391" data-name="Grupo 1190391" transform="translate(-305.059 -9426)">
    <g id="Grupo_1177670" data-name="Grupo 1177670" transform="translate(0 0.001)">
      <path id="Trazado_997691" data-name="Trazado 997691" d="M75,0A75,75,0,1,1,0,75,75,75,0,0,1,75,0Z" transform="translate(455.059 9425.999) rotate(90)" fill="#cbcbcb"/>
      <path id="Sustracci칩n_109" data-name="Sustracci칩n 109" d="M21524.061,11862h0v-150a75,75,0,1,1,0,150Z" transform="translate(12167.058 -12023.059) rotate(90)" fill="#5a5858"/>
      <path id="Trazado_997692" data-name="Trazado 997692" d="M67.738,0A67.738,67.738,0,1,1,0,67.738,67.738,67.738,0,0,1,67.738,0Z" transform="translate(312.32 9433.262)" fill="#fff"/>
      <g id="Grupo_1190806" data-name="Grupo 1190806" transform="translate(335.524 9453.84)">
        <g id="Grupo_1190805" data-name="Grupo 1190805" clip-path="url(#clip-path)">
          <path id="Trazado_998749" data-name="Trazado 998749" d="M29.311,51.351c1.05,6.007,8.341,9.957,11.208,6.988C42,56.8,40.781,54.619,41.626,53.9a1.544,1.544,0,0,1,1.63-.221c1.175.518,1.189,4.548-.809,6.571a6.18,6.18,0,0,1-5.368,1.753A12.71,12.71,0,0,1,26.59,51.614a6.3,6.3,0,0,1,1.448-5.168c2.262-2.644,6.27-2.173,9.313-.689l3.042-6.435a22.442,22.442,0,0,0-12.522-4.036c-5.23.054-9.523,3.334-10.347,8.493a18.185,18.185,0,0,0,1.484,10.3A30.126,30.126,0,0,0,33.875,69.3a19.262,19.262,0,0,0,9.9,1.933,10.113,10.113,0,0,0,9.46-9.629c.559-7.62-3.707-10.6-1.5-11.875a1.332,1.332,0,0,1,1.827.579A22.144,22.144,0,0,1,55.892,62.4,12.778,12.778,0,0,1,44.308,73.906C29.965,75.459,13.673,59.7,14.623,44.925c.483-7.5,6.383-12.552,13.841-12.353a26.19,26.19,0,0,1,13.151,4.247l3.164-6.806c-7.954-5.252-18.329-8.369-27.654-5.646A19.7,19.7,0,0,0,3.063,40.718a31.464,31.464,0,0,0,2,16.305A46.985,46.985,0,0,0,31.525,83.5,30.749,30.749,0,0,0,48.834,85.36,19.69,19.69,0,0,0,64.478,70.519C66.3,63.062,64.6,55.1,61.2,48.379a1.386,1.386,0,0,1,.358-1.906,1.417,1.417,0,0,1,1.988.52c3.953,7.857,5.833,17.141,3.143,25.683a22.2,22.2,0,0,1-14.95,14.739c-9.05,2.719-19.018.428-27.119-4.153A50.761,50.761,0,0,1,5.5,64.275c-4.731-8.232-7.12-18.4-4.266-27.627A22.29,22.29,0,0,1,17.992,21.335c9.47-2.1,19.7.851,27.975,6.207l3.478-7.318L47.6,14.849a5.363,5.363,0,0,1,.16-4.056L52.418.9A1.448,1.448,0,0,1,53.836,0c.646.02,1.035.477,1.271,1.141L57.2,7.026,63.378,4.86a1.369,1.369,0,0,1,1.36.349A1.383,1.383,0,0,1,65,6.748L60.25,16.5a5.806,5.806,0,0,1-3.323,2.945l-4.905,1.764L40.1,46.475,51.307,35.366,48.95,33.053a1.311,1.311,0,0,1,.2-1.82c1.532-1.195,2.894,1.456,4.2,2.091l6.105-6.138.061-6.1a5.692,5.692,0,0,1,1.976-3.838l7.235-7.308a1.392,1.392,0,0,1,1.464-.33,1.473,1.473,0,0,1,.92,1.555l0,6.208,6.414.044a1.328,1.328,0,0,1,1.29.73,1.434,1.434,0,0,1-.152,1.449l-7.571,7.529c-2.916,2.9-5.888,1.551-9.672,1.969L41.426,49.163A41.069,41.069,0,0,0,48,46.633c-.1-.8-.081-1.623.446-1.958.937-.6,1.663.126,2.281.743a58.414,58.414,0,0,0,7.019-2.69c-.749-1.746-3.624-3.508-2.118-4.819,1.8-1.563,3.5,2.393,4.834,3.76l7.291-2.991,2.081-4.916a6.183,6.183,0,0,1,3.49-3.341l9.615-3.969a1.374,1.374,0,0,1,1.384.119A1.276,1.276,0,0,1,84.824,28L82.3,34.179l5.972,2.567a1.36,1.36,0,0,1,.8,1.314,1.425,1.425,0,0,1-.921,1.255l-9.936,3.971a5.716,5.716,0,0,1-4.3.01L68.8,41.213,35.709,54.588a1.353,1.353,0,0,1-1.539-.494c-.915-1.178,1.544-4.108,1.938-5.816-1.762-1.108-4.83-1.619-6.146.1a3.74,3.74,0,0,0-.651,2.976M51.194,16.669l3.567-7.787a12.341,12.341,0,0,0-1.292-3.767c-1.146,2.557-2.552,4.781-3.331,7.347-.406,1.338.49,2.666,1.055,4.206m6.39-1.051c1.334-2.356,2.332-4.587,3.39-6.932a11.441,11.441,0,0,0-3.513,1.256l-3.612,7.521c1.271-.184,2.985-.519,3.735-1.845m4.724,8.768,5.811-6.011c.5-1.17.122-2.745.11-4.031a72.9,72.9,0,0,0-5.558,5.779c-.926,1.22-.383,3.058-.363,4.263M68.6,25.654c2.023-1.761,3.684-3.528,5.447-5.375a10.8,10.8,0,0,0-3.689,0L64.47,26.1c1.249.189,2.99.539,4.126-.45m10.816,8.308a38.281,38.281,0,0,0,1.388-3.63,73.753,73.753,0,0,0-7.264,3.077c-1.3.7-1.655,2.492-2.013,3.721Zm4.6,4.043a28.634,28.634,0,0,0-3.379-1.546L72.7,39.7c3.724,2.906,6.727-.212,11.311-1.692" transform="translate(0 0)" fill="#5a5858"/>
        </g>
      </g>
    </g>
    <path id="Trazado_997694" data-name="Trazado 997694" d="M471.93,424.642a3.111,3.111,0,1,1,3.115,3.124,3.113,3.113,0,0,1-3.115-3.124m-13.442,0a3.115,3.115,0,1,1,3.115,3.124,3.114,3.114,0,0,1-3.115-3.124m-13.44,0a3.115,3.115,0,1,1,3.115,3.124,3.118,3.118,0,0,1-3.115-3.124" transform="translate(868.572 8985.952) rotate(90)" fill="#5a5858"/>
    <g id="Grupo_1177672" data-name="Grupo 1177672" transform="translate(326.305 9552.477) rotate(90)">
      <path id="Trazado_997699" data-name="Trazado 997699" d="M0,24.325l1.629,1.6,7.17-7.29,6.879,7.274,1.661-1.571-8.507-9Z" transform="translate(0 -6.575)" fill="#636363"/>
      <path id="Trazado_997700" data-name="Trazado 997700" d="M8.832,0,0,8.979l1.629,1.6L8.8,3.293l6.879,7.273L17.34,9Z" fill="#636363"/>
    </g>
  </g>
</svg>
