<svg xmlns="http://www.w3.org/2000/svg" xmlns:xlink="http://www.w3.org/1999/xlink" width="150" height="150" viewBox="0 0 150 150">
  <defs>
    <clipPath id="clip-path">
      <rect id="Rectángulo_455567" data-name="Rectángulo 455567" width="84.018" height="84.021" fill="#674a11"/>
    </clipPath>
  </defs>
  <g id="Grupo_1190409" data-name="Grupo 1190409" transform="translate(-383.746 -8400)">
    <circle id="Elipse_13609" data-name="Elipse 13609" cx="75" cy="75" r="75" transform="translate(383.746 8400)" fill="#fff"/>
    <g id="Grupo_1190832" data-name="Grupo 1190832" transform="translate(416.737 8429.8)">
      <g id="Grupo_1190831" data-name="Grupo 1190831" clip-path="url(#clip-path)">
        <path id="Trazado_998915" data-name="Trazado 998915" d="M77.077,84l-69.989.019A7.014,7.014,0,0,1,0,76.99l.006-4.444c0-2.049,2.577-1.146,3.365-1.6l.038-41.689A5.5,5.5,0,0,1,8.817,23.72l8.1-.09.033-19.237A4.222,4.222,0,0,1,21.047,0h31.7L67.028,14.307l.106,9.332,7.825.053a5.536,5.536,0,0,1,5.617,5.271l.085,41.98c.771.449,3.348-.439,3.351,1.6L84.018,77a6.946,6.946,0,0,1-6.94,7M64.371,58.666l-.01-42.438-11.986-.036a1.374,1.374,0,0,1-1.552-1.473l-.05-12.03H21.329a1.621,1.621,0,0,0-1.68,1.683l0,54.457a1.6,1.6,0,0,0,1.639,1.662H62.725a1.628,1.628,0,0,0,1.647-1.824m-2.146-45.3-8.6-8.573-.047,8.736ZM9.129,30.919c0-2.617,5.256-.908,7.671-1.519a7.881,7.881,0,0,0,.069-2.95l-7.733-.043c-1.319-.007-2.971.982-2.973,2.567L6.125,70.933a5.105,5.105,0,0,0,2.995.006ZM74.9,70.964a5.329,5.329,0,0,0,2.993-.037l-.038-41.952c0-1.583-1.659-2.575-2.971-2.568l-7.734.043a7.906,7.906,0,0,0,.071,2.961c2.133.546,7.661-.981,7.662,1.34Zm-2.731-38.7a28.665,28.665,0,0,0-5.083.042l-.039,26.738a4.277,4.277,0,0,1-4.351,4.2l-41.364,0A4.341,4.341,0,0,1,16.948,58.8l-.031-26.586-5.063.058,0,38.813,21.571.083a22.229,22.229,0,0,1,2,3.293l13.07.039,2.1-3.335,21.553-.063Zm9.1,41.6L52.03,73.841a22.045,22.045,0,0,1-1.965,3.33l-16.112,0a22.2,22.2,0,0,1-1.965-3.323L2.811,73.838A17.5,17.5,0,0,0,2.7,76.7a4.377,4.377,0,0,0,4.2,4.613l69.974.022a4.375,4.375,0,0,0,4.4-3.928,29.02,29.02,0,0,0-.005-3.547" transform="translate(0)" fill="#674a11"/>
        <path id="Trazado_998916" data-name="Trazado 998916" d="M150.923,120.65l-15.891-.023a1.329,1.329,0,0,1-1.284-1.458,1.385,1.385,0,0,1,1.491-1.269h15.576a1.5,1.5,0,0,1,1.236,1.265,1.45,1.45,0,0,1-1.129,1.485" transform="translate(-94.099 -82.95)" fill="#674a11"/>
        <path id="Trazado_998917" data-name="Trazado 998917" d="M150.621,86.412l-15.415.009a1.348,1.348,0,1,1,.02-2.683l15.391,0a1.338,1.338,0,1,1,0,2.67" transform="translate(-94.091 -58.915)" fill="#674a11"/>
        <path id="Trazado_998918" data-name="Trazado 998918" d="M151,154.954l-15.759.061a1.353,1.353,0,1,1-.009-2.694l15.418.008a1.326,1.326,0,0,1,1.4,1.122c.062.441-.181,1.5-1.047,1.5" transform="translate(-94.107 -107.168)" fill="#674a11"/>
        <path id="Trazado_998919" data-name="Trazado 998919" d="M90.522,82.927l-2.284-2.293a1.328,1.328,0,0,1,1.574-2.091c.685.291,1.005,1.031,1.7,1.446l3.465-3.4a1.339,1.339,0,0,1,2.043,1.731l-4.555,4.6a1.388,1.388,0,0,1-1.946,0" transform="translate(-61.836 -53.561)" fill="#674a11"/>
        <path id="Trazado_998920" data-name="Trazado 998920" d="M92.359,117.372c-1.157,1.168-3.03-1.345-4.014-2.3a1.341,1.341,0,0,1-.082-1.9,1.36,1.36,0,0,1,2.01.006,11.893,11.893,0,0,0,1.255,1.167l3.651-3.558a1.319,1.319,0,0,1,1.969,1.715c-1.491,1.739-3.156,3.223-4.788,4.871" transform="translate(-61.847 -77.739)" fill="#674a11"/>
        <path id="Trazado_998921" data-name="Trazado 998921" d="M92.533,151.474c-1.368,1.394-2.788-.761-4.191-2.119a1.378,1.378,0,0,1-.061-1.975c1.531-1.353,2.607,1.2,3.3,1.1,1.586-.988,3.484-4.481,5.073-3.586a1.33,1.33,0,0,1,.406,1.969Z" transform="translate(-61.839 -101.838)" fill="#674a11"/>
      </g>
    </g>
  </g>
</svg>
