<svg xmlns="http://www.w3.org/2000/svg" xmlns:xlink="http://www.w3.org/1999/xlink" width="150.001" height="150.001" viewBox="0 0 150.001 150.001">
  <defs>
    <clipPath id="clip-path">
      <rect id="Rect치ngulo_455572" data-name="Rect치ngulo 455572" width="79.263" height="78.918" fill="#5a5858"/>
    </clipPath>
  </defs>
  <g id="Grupo_1190415" data-name="Grupo 1190415" transform="translate(-305.059 -9426)">
    <g id="Grupo_1177670" data-name="Grupo 1177670" transform="translate(0 0.001)">
      <path id="Trazado_997691" data-name="Trazado 997691" d="M75,0A75,75,0,1,1,0,75,75,75,0,0,1,75,0Z" transform="translate(455.059 9425.999) rotate(90)" fill="#cbcbcb"/>
      <path id="Sustracci칩n_109" data-name="Sustracci칩n 109" d="M21524.061,11862h0v-150a75,75,0,1,1,0,150Z" transform="translate(12167.058 -12023.059) rotate(90)" fill="#5a5858"/>
      <path id="Trazado_997692" data-name="Trazado 997692" d="M67.738,0A67.738,67.738,0,1,1,0,67.738,67.738,67.738,0,0,1,67.738,0Z" transform="translate(312.32 9433.262)" fill="#fff"/>
      <g id="Grupo_1190841" data-name="Grupo 1190841" transform="translate(340.427 9459.54)">
        <g id="Grupo_1190840" data-name="Grupo 1190840" clip-path="url(#clip-path)">
          <path id="Trazado_998954" data-name="Trazado 998954" d="M45.5,182.764c-.136-3.409-4.9-.6-5.084-3-.221-2.825,6.312.576,6.317-3.2,0-3.765-6.335-.442-6.129-3.2a1.148,1.148,0,0,1,1.257-1.121l17.829-.007a1.949,1.949,0,0,0,1.934-1.886,2.009,2.009,0,0,0-1.953-2.054l-27.215-.013a3.379,3.379,0,0,1-3.549-3.49l-.019-7.625a2.655,2.655,0,0,0-2.724-2.651,2.694,2.694,0,0,0-2.635,2.831l-.007,4.979a4,4,0,0,1-1.515,3.192l-4.424,3.471c-2.008,1.576-5.073.6-7.649.97L9.9,177.174a1.161,1.161,0,0,1-1.128,1.194,1.113,1.113,0,0,1-1.139-1.179l0-8.178a1.13,1.13,0,0,0-1.22-1.213l-5.216.009A1.1,1.1,0,0,1,0,166.663a1.121,1.121,0,0,1,1.225-1.112l5.434-.024c1.5-.007,2.251,1.006,3.122,1.906,8.119.921,6.41-1.1,10.592-3.531a2.1,2.1,0,0,0,.876-1.82l.054-5.474c.026-2.649,2.566-4.5,5.062-4.419a4.959,4.959,0,0,1,4.831,4.9l.013,7.678a1.185,1.185,0,0,0,1.26,1.24l27.72.076c2.418.006,3.882,2.506,3.728,4.515a4.3,4.3,0,0,1-4.46,3.972l-10.824.045A4.427,4.427,0,0,1,47,180.226a4.425,4.425,0,0,1-1.233,6.281,4.461,4.461,0,0,1,.3,4.608,4.345,4.345,0,0,1-3.975,2.263l-20.051.008a13.286,13.286,0,0,1-8.536-3.2c-5.736-1-3.678,1.867-6.389,1.871l-5.9.011a1.14,1.14,0,1,1,0-2.275l5.413-.017c.677,0,1.005-.535,1.006-1.179l.008-6.462a1.082,1.082,0,0,1,1.13-1.126,1.135,1.135,0,0,1,1.12,1.141l.046,5.47c1.277.251,2.5-.043,3.785.14,1.407.2,3.277,3.315,8.323,3.313l20.262-.007a2,2,0,0,0,1.961-2.084c-.177-2.857-3.562-1.045-3.884-2.773A1.151,1.151,0,0,1,41.6,184.8l1.959-.013a1.96,1.96,0,0,0,1.941-2.021" transform="translate(0 -114.468)" fill="#5a5858"/>
          <path id="Trazado_998955" data-name="Trazado 998955" d="M102.265,31.085a4.188,4.188,0,0,1,1.653-3.416l4.148-3.25c2.225-1.744,4.945-.69,7.809-1.079l0-17.655c-1.3-.256-2.508.034-3.795-.138-1.585-.212-2.912-3.332-8.833-3.32l-19.788.041a1.947,1.947,0,0,0-1.936,2.059c.2,2.855,3.567,1.022,3.882,2.767A1.145,1.145,0,0,1,84.2,8.5l-1.961.021a1.959,1.959,0,0,0-1.94,2.013c.14,3.417,4.9.627,5.084,3,.216,2.8-5.935-.5-6.307,3.012A1.923,1.923,0,0,0,80.951,18.7l3.144.044a1.1,1.1,0,0,1,1.1,1.206,1.172,1.172,0,0,1-1.277,1.115l-17.6-.008a1.984,1.984,0,1,0-.2,3.96l15.582.033a1.144,1.144,0,0,1,1.278.9A1.128,1.128,0,0,1,81.947,27.3l-15.859,0a4.224,4.224,0,0,1-4.2-3.89c-.182-2.032,1.188-4.47,3.469-4.509l11.794-.2a4.463,4.463,0,0,1,1.652-5.62,4.422,4.422,0,0,1,1.236-6.288,4.39,4.39,0,0,1-.394-4.428A4.008,4.008,0,0,1,82.959,0l22.276.04c2.795.005,4.878,1.628,7.126,3a6.287,6.287,0,0,0,3.626.029c.906-.725,1.489-1.858,2.913-1.855l5.688.01a1.107,1.107,0,0,1,1.206,1.134,1.105,1.105,0,0,1-1.2,1.144l-5.432.028a.96.96,0,0,0-.988.951l-.01,19.789A1.128,1.128,0,0,0,119.38,25.5l5.218-.008a1.1,1.1,0,0,1,1.2,1.147,1.139,1.139,0,0,1-1.222,1.124l-5.919,0c-1.3,0-1.8-1.351-2.65-1.83-7.834-1.156-6.65,1.2-10.58,3.464a2.082,2.082,0,0,0-.878,1.816l-.055,5.477c-.026,2.62-2.549,4.512-5.057,4.433a4.915,4.915,0,0,1-4.81-4.672l-.039-7.926A1.171,1.171,0,0,0,93.353,27.3l-6.442,0a1.135,1.135,0,0,1-1.252-1.14A1.106,1.106,0,0,1,86.9,25.04l6.461-.013a3.4,3.4,0,0,1,3.528,3.479l.021,7.675A2.656,2.656,0,0,0,99.671,38.8a2.715,2.715,0,0,0,2.593-2.842Z" transform="translate(-46.535 0)" fill="#5a5858"/>
          <path id="Trazado_998956" data-name="Trazado 998956" d="M18.531,65.075a1.148,1.148,0,0,1-.909,1.494,1.125,1.125,0,0,1-1.3-.85A35.773,35.773,0,0,1,40.142,23.783a1.16,1.16,0,0,1,1.321.709,1.176,1.176,0,0,1-.669,1.489A33.525,33.525,0,0,0,18.531,65.075" transform="translate(-11.606 -17.857)" fill="#5a5858"/>
          <path id="Trazado_998957" data-name="Trazado 998957" d="M136.518,141.367c-.277.436-.018,1.51-.518,1.751a1.293,1.293,0,0,1-1.576-.131c-.359-.41-.294-1.011-.33-1.675a6.326,6.326,0,0,1-4.745-4.562c-.082-.293-.691-.272-.914-.286a1.107,1.107,0,0,1-1.183-1.169c.029-1.667,1.926-.616,2.181-1.563a6.018,6.018,0,0,1,4.407-4.3c.571-.151-.173-2.068,1.388-2.122a1.1,1.1,0,0,1,1.162,1.178c.011.249-.028.837.273.918a6.157,6.157,0,0,1,4.485,4.453c.17.638,2.109-.161,2.136,1.446.011.683-.461,1.124-1.266,1.157a2.536,2.536,0,0,0-.847.156c-.4,2.369-2.462,4.023-4.655,4.744m2.5-6.033a3.747,3.747,0,1,0-3.747,3.747,3.747,3.747,0,0,0,3.747-3.747" transform="translate(-95.714 -95.76)" fill="#5a5858"/>
          <path id="Trazado_998958" data-name="Trazado 998958" d="M198.507,219.234a1.162,1.162,0,1,1-.784-2.176,33.6,33.6,0,0,0,22.31-23.2,1.145,1.145,0,0,1,1.472-.874,1.107,1.107,0,0,1,.774,1.406,35.89,35.89,0,0,1-23.772,24.847" transform="translate(-148.062 -145.126)" fill="#5a5858"/>
          <path id="Trazado_998959" data-name="Trazado 998959" d="M262.971,136.49a1.17,1.17,0,0,1-1.54.68,1.112,1.112,0,0,1-.616-1.475,27.457,27.457,0,0,0,.1-20.963,1.157,1.157,0,0,1,.6-1.476,1.135,1.135,0,0,1,1.539.619,29.529,29.529,0,0,1-.086,22.615" transform="translate(-196.107 -85.11)" fill="#5a5858"/>
          <path id="Trazado_998960" data-name="Trazado 998960" d="M44.636,131.136a1.184,1.184,0,0,1-.612,1.661,1.147,1.147,0,0,1-1.479-.678,29.5,29.5,0,0,1,.832-22.209,1.158,1.158,0,1,1,2.125.906,27.354,27.354,0,0,0-.865,20.321" transform="translate(-30.664 -82.079)" fill="#5a5858"/>
          <path id="Trazado_998961" data-name="Trazado 998961" d="M293.809,135.457a1.156,1.156,0,0,1-1.216.995,1.128,1.128,0,0,1-1.084-1.252,34.736,34.736,0,0,0-.831-12.382,1.113,1.113,0,0,1,.936-1.374,1.187,1.187,0,0,1,1.3.918,36.424,36.424,0,0,1,.892,13.1" transform="translate(-218.611 -91.338)" fill="#5a5858"/>
          <path id="Trazado_998962" data-name="Trazado 998962" d="M209.353,254.055c-1.194.817-4.758,3.348-5.4,1.712a1.2,1.2,0,0,1,.555-1.606c2.395-1.07,4.141-2.923,5.064-1.8a1.205,1.205,0,0,1-.218,1.7" transform="translate(-153.321 -189.551)" fill="#5a5858"/>
          <path id="Trazado_998963" data-name="Trazado 998963" d="M102.082,56.154c-.95.555-2.357,1.514-2.987.37a1.177,1.177,0,0,1,.421-1.6c.805-.444,2.29-1.492,2.953-.365a1.154,1.154,0,0,1-.388,1.594" transform="translate(-74.422 -40.657)" fill="#5a5858"/>
          <path id="Trazado_998964" data-name="Trazado 998964" d="M157.069,155.807a1.249,1.249,0,1,1-1.249-1.249,1.249,1.249,0,0,1,1.249,1.249" transform="translate(-116.262 -116.252)" fill="#5a5858"/>
        </g>
      </g>
    </g>
    <path id="Trazado_997694" data-name="Trazado 997694" d="M471.93,424.642a3.111,3.111,0,1,1,3.115,3.124,3.113,3.113,0,0,1-3.115-3.124m-13.442,0a3.115,3.115,0,1,1,3.115,3.124,3.114,3.114,0,0,1-3.115-3.124m-13.44,0a3.115,3.115,0,1,1,3.115,3.124,3.118,3.118,0,0,1-3.115-3.124" transform="translate(868.572 8985.952) rotate(90)" fill="#5a5858"/>
    <g id="Grupo_1177672" data-name="Grupo 1177672" transform="translate(326.305 9552.477) rotate(90)">
      <path id="Trazado_997699" data-name="Trazado 997699" d="M0,24.325l1.629,1.6,7.17-7.29,6.879,7.274,1.661-1.571-8.507-9Z" transform="translate(0 -6.575)" fill="#636363"/>
      <path id="Trazado_997700" data-name="Trazado 997700" d="M8.832,0,0,8.979l1.629,1.6L8.8,3.293l6.879,7.273L17.34,9Z" fill="#636363"/>
    </g>
  </g>
</svg>
