<svg xmlns="http://www.w3.org/2000/svg" xmlns:xlink="http://www.w3.org/1999/xlink" width="150" height="150" viewBox="0 0 150 150">
  <defs>
    <clipPath id="clip-path">
      <rect id="Rectángulo_455568" data-name="Rectángulo 455568" width="76.736" height="77.649" fill="#674a11"/>
    </clipPath>
  </defs>
  <g id="Grupo_1190410" data-name="Grupo 1190410" transform="translate(-383.746 -8400)">
    <circle id="Elipse_13609" data-name="Elipse 13609" cx="75" cy="75" r="75" transform="translate(383.746 8400)" fill="#fff"/>
    <g id="Grupo_1190834" data-name="Grupo 1190834" transform="translate(416.36 8436.176)">
      <g id="Grupo_1190833" data-name="Grupo 1190833" clip-path="url(#clip-path)">
        <path id="Trazado_998922" data-name="Trazado 998922" d="M122.124,34.611l-28.329.02a1.368,1.368,0,0,1-1.422-1.33,1.291,1.291,0,0,1,1.382-1.278l28.332,0a1.27,1.27,0,0,1,1.284,1.107,1.326,1.326,0,0,1-1.247,1.478" transform="translate(-69.96 -24.254)" fill="#674a11"/>
        <path id="Trazado_998923" data-name="Trazado 998923" d="M214.461,98.593l-19.369-.035a1.335,1.335,0,0,1-1.319-1.269,1.285,1.285,0,0,1,1.271-1.328l19.376,0a1.266,1.266,0,0,1,1.251,1.117c.106.716-.3,1.241-1.211,1.518" transform="translate(-146.758 -72.677)" fill="#674a11"/>
        <path id="Trazado_998924" data-name="Trazado 998924" d="M222.5,194.623l-16.9-.035a1.366,1.366,0,0,1-1.222-1.292,1.288,1.288,0,0,1,1.367-1.287L222.222,192a1.31,1.31,0,0,1,1.482,1.111c.087.687-.285,1.265-1.2,1.511" transform="translate(-154.788 -145.415)" fill="#674a11"/>
        <path id="Trazado_998925" data-name="Trazado 998925" d="M226.636,130.555l-15.519.018a1.292,1.292,0,0,1-1.293-1.279,1.243,1.243,0,0,1,1.253-1.313h15.507a1.288,1.288,0,0,1,.052,2.574" transform="translate(-158.914 -96.929)" fill="#674a11"/>
        <path id="Trazado_998926" data-name="Trazado 998926" d="M226.658,162.56l-15.521.014a1.273,1.273,0,0,1-1.283-1.262c-.025-.833.573-1.318,1.484-1.317L226.6,160a1.244,1.244,0,0,1,1.253,1.112,1.262,1.262,0,0,1-1.2,1.443" transform="translate(-158.937 -121.176)" fill="#674a11"/>
        <path id="Trazado_998927" data-name="Trazado 998927" d="M258.8,266.391c-2.668.052-6.4.582-6.434-1.294a1.325,1.325,0,0,1,1.37-1.292l5.08-.038a1.183,1.183,0,0,0,1.241-1.168l.068-5.316a1.25,1.25,0,0,1,1.243-1.219,1.328,1.328,0,0,1,1.333,1.406l-.017,5.114a3.849,3.849,0,0,1-3.885,3.807" transform="translate(-191.132 -193.936)" fill="#674a11"/>
        <path id="Trazado_998928" data-name="Trazado 998928" d="M238.585,226.575H227.023a1.279,1.279,0,1,1-.034-2.557h11.63a1.278,1.278,0,0,1-.034,2.556" transform="translate(-170.946 -169.665)" fill="#674a11"/>
        <path id="Trazado_998929" data-name="Trazado 998929" d="M178.722,66.555l-10.391.014a1.271,1.271,0,0,1-1.287-1.233,1.257,1.257,0,0,1,1.2-1.308l10.42-.012a1.3,1.3,0,0,1,1.265,1.1,1.253,1.253,0,0,1-1.2,1.436" transform="translate(-126.514 -48.484)" fill="#674a11"/>
        <path id="Trazado_998930" data-name="Trazado 998930" d="M21.241,77.649c-3.676-.089-6.541-2.7-6.566-6.19L14.6,60.87A24.537,24.537,0,0,1,14.6,16l.04-9.444A6.484,6.484,0,0,1,21.123,0l39.31,0L76.189,15.721a1.927,1.927,0,0,1,.547,1.285l-.015,54.043a6.407,6.407,0,0,1-6.4,6.558Zm.247-2.613,48.587-.014a3.822,3.822,0,0,0,4.049-3.793l.023-53.089L62.2,18.053a3.7,3.7,0,0,1-3.542-3.734l-.029-11.73-37.5.012a3.86,3.86,0,0,0-3.916,3.929l.014,8.459A24.582,24.582,0,0,1,45.942,50.637L57.448,62.126A6.474,6.474,0,1,1,48.3,71.278L36.8,59.772a24.827,24.827,0,0,1-19.576,2.15l-.007,9.135c0,2.405,1.753,3.981,4.269,3.98m41.2-59.481,9.5-.15L61.3,4.519l-.115,9.3a1.531,1.531,0,0,0,1.507,1.733M46.584,38.434A21.986,21.986,0,1,0,24.6,60.421,21.986,21.986,0,0,0,46.584,38.434M50.34,69.549a3.77,3.77,0,0,0,5.357-.368,3.811,3.811,0,0,0-.215-5.337L44.506,52.873a27.605,27.605,0,0,1-5.469,5.474Z" transform="translate(0 -0.001)" fill="#674a11"/>
        <path id="Trazado_998931" data-name="Trazado 998931" d="M60.182,97.914a19.4,19.4,0,1,1-19.4-19.4,19.4,19.4,0,0,1,19.4,19.4m-2.584,0a16.8,16.8,0,1,0-16.8,16.8,16.8,16.8,0,0,0,16.8-16.8" transform="translate(-16.201 -59.467)" fill="#674a11"/>
        <path id="Trazado_998932" data-name="Trazado 998932" d="M75.829,157.2l-19.263.025a1.3,1.3,0,1,1,0-2.587l19.145.01a1.3,1.3,0,0,1,1.351,1.2,1.269,1.269,0,0,1-1.234,1.354" transform="translate(-41.764 -117.115)" fill="#674a11"/>
        <path id="Trazado_998933" data-name="Trazado 998933" d="M86.631,125.3l-8.854,0a1.285,1.285,0,0,1-1.333-1.2,1.262,1.262,0,0,1,1.332-1.346l8.991,0a1.179,1.179,0,0,1,1.219,1.145,1.245,1.245,0,0,1-1.354,1.4" transform="translate(-57.895 -92.973)" fill="#674a11"/>
        <path id="Trazado_998934" data-name="Trazado 998934" d="M86.761,189.392l-8.983.019a1.316,1.316,0,0,1-1.333-1.215,1.2,1.2,0,0,1,1.086-1.317l9.457.015c.766,0,1.03.8,1,1.329a1.213,1.213,0,0,1-1.224,1.168" transform="translate(-57.895 -141.537)" fill="#674a11"/>
      </g>
    </g>
  </g>
</svg>
