<svg xmlns="http://www.w3.org/2000/svg" xmlns:xlink="http://www.w3.org/1999/xlink" width="150.001" height="150" viewBox="0 0 150.001 150">
  <defs>
    <clipPath id="clip-path">
      <rect id="Rectángulo_455552" data-name="Rectángulo 455552" width="78" height="78" transform="translate(0)" fill="#5a5858"/>
    </clipPath>
  </defs>
  <g id="Grupo_1190393" data-name="Grupo 1190393" transform="translate(-305.059 -9426)">
    <g id="Grupo_1177670" data-name="Grupo 1177670" transform="translate(0 0.001)">
      <path id="Trazado_997691" data-name="Trazado 997691" d="M75,0A75,75,0,1,1,0,75,75,75,0,0,1,75,0Z" transform="translate(455.059 9425.999) rotate(90)" fill="#cbcbcb"/>
      <path id="Sustracción_109" data-name="Sustracción 109" d="M21524.061,11862h0v-150a75,75,0,1,1,0,150Z" transform="translate(12167.058 -12023.059) rotate(90)" fill="#5a5858"/>
      <path id="Trazado_997692" data-name="Trazado 997692" d="M67.738,0A67.738,67.738,0,1,1,0,67.738,67.738,67.738,0,0,1,67.738,0Z" transform="translate(312.32 9433.262)" fill="#fff"/>
      <g id="Grupo_1190811" data-name="Grupo 1190811" transform="translate(338.442 9461.84)">
        <rect id="Rectángulo_455544" data-name="Rectángulo 455544" width="27.128" height="2.602" transform="translate(23.063 12.902)" fill="#5a5858"/>
        <rect id="Rectángulo_455545" data-name="Rectángulo 455545" width="23.253" height="2.602" transform="translate(43.732 23.236)" fill="#5a5858"/>
        <rect id="Rectángulo_455546" data-name="Rectángulo 455546" width="23.253" height="2.602" transform="translate(43.732 29.696)" fill="#5a5858"/>
        <rect id="Rectángulo_455547" data-name="Rectángulo 455547" width="20.669" height="2.602" transform="translate(46.316 36.155)" fill="#5a5858"/>
        <rect id="Rectángulo_455548" data-name="Rectángulo 455548" width="15.502" height="2.602" transform="translate(34.69 6.443)" fill="#5a5858"/>
        <rect id="Rectángulo_455549" data-name="Rectángulo 455549" width="12.918" height="2.602" transform="translate(54.067 42.614)" fill="#5a5858"/>
        <rect id="Rectángulo_455550" data-name="Rectángulo 455550" width="7.751" height="2.602" transform="translate(23.063 6.443)" fill="#5a5858"/>
        <rect id="Rectángulo_455551" data-name="Rectángulo 455551" width="5.167" height="2.602" transform="translate(46.316 42.614)" fill="#5a5858"/>
        <g id="Grupo_1190810" data-name="Grupo 1190810" transform="translate(-0.354 -0.001)">
          <g id="Grupo_1190809" data-name="Grupo 1190809" transform="translate(0)" clip-path="url(#clip-path)">
            <path id="Trazado_998759" data-name="Trazado 998759" d="M29.91,77.509a1.294,1.294,0,0,1-1.461-1.3l-.04-3.872-11.6,0a1.4,1.4,0,0,1-1.3-1.552L15.459,62.3a21.964,21.964,0,0,1,.024-41.966l.037-19.044A1.269,1.269,0,0,1,16.834,0L56.045.01,60.94,5.153l15.278.022A1.261,1.261,0,0,1,77.509,6.5V76.144A1.307,1.307,0,0,1,76.176,77.5Zm39.857-7.788,0-50.344-14.2-.018a1.294,1.294,0,0,1-1.292-1.3L54.259,2.581H18.085l.006,17.145A21.927,21.927,0,0,1,41.379,51.553L55.586,65.8a7.83,7.83,0,0,1,1.953,3.974Zm-1.8-53.072L56.9,4.674l-.06,12.144ZM57.132,72.373A11.992,11.992,0,0,1,55.8,74.9l19.132.03,0-67.187-11.567.034L72.337,17.6l.005,53.382a1.289,1.289,0,0,1-1.292,1.331ZM41.337,41.321A19.371,19.371,0,1,0,21.967,60.691,19.371,19.371,0,0,0,41.337,41.321m7.434,32.14c1.556,1.536,4.059.732,5.177-.544a3.737,3.737,0,0,0-.067-5.115L39.967,53.872a25.015,25.015,0,0,1-5.453,5.509ZM18.149,69.777l23.024-.061L32.2,60.738a21.843,21.843,0,0,1-14.1,2.2Zm28.091,5.1a22.688,22.688,0,0,0-2.4-2.529l-12.805-.012a15.492,15.492,0,0,0,.027,2.606Z" transform="translate(0.161 0)" fill="#5a5858"/>
            <path id="Trazado_998760" data-name="Trazado 998760" d="M53.618,111.767A16.785,16.785,0,1,1,36.833,94.982a16.785,16.785,0,0,1,16.785,16.785m-2.584,0a14.2,14.2,0,1,0-14.2,14.2,14.2,14.2,0,0,0,14.2-14.2" transform="translate(-14.708 -70.442)" fill="#5a5858"/>
          </g>
        </g>
      </g>
    </g>
    <path id="Trazado_997694" data-name="Trazado 997694" d="M471.93,424.642a3.111,3.111,0,1,1,3.115,3.124,3.113,3.113,0,0,1-3.115-3.124m-13.442,0a3.115,3.115,0,1,1,3.115,3.124,3.114,3.114,0,0,1-3.115-3.124m-13.44,0a3.115,3.115,0,1,1,3.115,3.124,3.118,3.118,0,0,1-3.115-3.124" transform="translate(868.572 8985.952) rotate(90)" fill="#5a5858"/>
    <g id="Grupo_1177672" data-name="Grupo 1177672" transform="translate(326.305 9552.477) rotate(90)">
      <path id="Trazado_997699" data-name="Trazado 997699" d="M0,24.325l1.629,1.6,7.17-7.29,6.879,7.274,1.661-1.571-8.507-9Z" transform="translate(0 -6.575)" fill="#636363"/>
      <path id="Trazado_997700" data-name="Trazado 997700" d="M8.832,0,0,8.979l1.629,1.6L8.8,3.293l6.879,7.273L17.34,9Z" fill="#636363"/>
    </g>
  </g>
</svg>
