<svg xmlns="http://www.w3.org/2000/svg" xmlns:xlink="http://www.w3.org/1999/xlink" width="250" height="250" viewBox="0 0 250 250">
  <defs>
    <clipPath id="clip-path">
      <rect id="Rectángulo_455576" data-name="Rectángulo 455576" width="119.072" height="119.037" fill="#674a11"/>
    </clipPath>
  </defs>
  <g id="Grupo_1190425" data-name="Grupo 1190425" transform="translate(-383.746 -8400)">
    <circle id="Elipse_13609" data-name="Elipse 13609" cx="125" cy="125" r="125" transform="translate(383.746 8400)" fill="#fff"/>
    <g id="Grupo_1190849" data-name="Grupo 1190849" transform="translate(449.21 8465.482)">
      <g id="Grupo_1190848" data-name="Grupo 1190848" clip-path="url(#clip-path)">
        <path id="Trazado_998973" data-name="Trazado 998973" d="M17.813,115.07c-4.216,4.173-10.392,4.27-14.42.424A10.056,10.056,0,0,1,3.2,101.1l7.519-7.591A58.934,58.934,0,0,1,.046,57.344a59.487,59.487,0,0,1,90.3-48.735A58.52,58.52,0,0,1,118.4,50.472,59.542,59.542,0,0,1,24.98,107.978ZM61.839,16.032c4.18-2.3,8.338-4.27,12.432-6.814a51.856,51.856,0,0,0-40.1,4.406L47.2,17.589a18.836,18.836,0,0,0,14.64-1.557M9.661,43.476c6.931,3.591,13.355,6.888,20.451,10.072a30.05,30.05,0,0,1,59.466,7.218l21.409-11.4A52.106,52.106,0,0,0,83.12,12.685L65.108,22.348a25.93,25.93,0,0,1-20.2,1.981l-18.449-5.5A53.187,53.187,0,0,0,9.661,43.476M82.426,59.506A22.877,22.877,0,1,0,59.549,82.383,22.876,22.876,0,0,0,82.426,59.506M32.265,71.992A35.077,35.077,0,0,1,29.5,61.072C22,57.783,15.075,54.238,7.886,50.614a51.748,51.748,0,0,0,7.983,37.795Zm43.789,37.255-.315-4.393A19.043,19.043,0,0,1,93.775,84.476l12.545-1.247a52.9,52.9,0,0,0,5.605-26.275L87.682,69.947A29.992,29.992,0,0,1,46.418,86.465L30.063,102.849a52.3,52.3,0,0,0,45.991,6.4m-63.471.954L40.243,82.535l-4.2-4.245L8.081,106.3a2.979,2.979,0,0,0,4.5,3.9m70.564-3.868a50.929,50.929,0,0,0,18.27-15.367,74.531,74.531,0,0,0-8.918.846,11.889,11.889,0,0,0-9.352,14.522" transform="translate(0 0)" fill="#674a11"/>
        <path id="Trazado_998974" data-name="Trazado 998974" d="M140.477,134.844c-4.5-.84-12.31,1.888-12.684-3.4a3.512,3.512,0,0,1,3.576-3.768l13.237-.01a3.625,3.625,0,0,1,3.708,3.962,17.018,17.018,0,1,1-7.637-14.585,3.537,3.537,0,1,1-3.822,5.951A9.891,9.891,0,1,0,126.4,139.766a9.834,9.834,0,0,0,14.082-4.922" transform="translate(-71.748 -71.7)" fill="#674a11"/>
      </g>
    </g>
  </g>
</svg>
