<svg xmlns="http://www.w3.org/2000/svg" xmlns:xlink="http://www.w3.org/1999/xlink" width="604" height="358.647" viewBox="0 0 604 358.647">
  <defs>
    <clipPath id="clip-path">
      <rect id="Rectángulo_455588" data-name="Rectángulo 455588" width="524.217" height="356.935" fill="none"/>
    </clipPath>
    <clipPath id="clip-path-3">
      <rect id="Rectángulo_455580" data-name="Rectángulo 455580" width="48.685" height="131.992" fill="none"/>
    </clipPath>
    <clipPath id="clip-path-4">
      <rect id="Rectángulo_455581" data-name="Rectángulo 455581" width="115.369" height="33.144" fill="none"/>
    </clipPath>
    <clipPath id="clip-path-5">
      <rect id="Rectángulo_455582" data-name="Rectángulo 455582" width="31.419" height="70.779" fill="none"/>
    </clipPath>
    <clipPath id="clip-path-6">
      <rect id="Rectángulo_455584" data-name="Rectángulo 455584" width="154.941" height="154.943" fill="none"/>
    </clipPath>
    <clipPath id="clip-path-7">
      <rect id="Rectángulo_455585" data-name="Rectángulo 455585" width="201.378" height="17.535" fill="none"/>
    </clipPath>
    <clipPath id="clip-path-8">
      <rect id="Rectángulo_455586" data-name="Rectángulo 455586" width="102.894" height="86.969" fill="none"/>
    </clipPath>
  </defs>
  <g id="Grupo_1190876" data-name="Grupo 1190876" transform="translate(-186 -3243)">
    <rect id="Rectángulo_455282" data-name="Rectángulo 455282" width="604" height="358.647" transform="translate(186 3243)" fill="none"/>
    <g id="Grupo_1190875" data-name="Grupo 1190875" transform="translate(226 3244)">
      <g id="Grupo_1190874" data-name="Grupo 1190874" clip-path="url(#clip-path)">
        <g id="Grupo_1190873" data-name="Grupo 1190873">
          <g id="Grupo_1190872" data-name="Grupo 1190872" clip-path="url(#clip-path)">
            <path id="Trazado_998978" data-name="Trazado 998978" d="M6.836,18.7A8.093,8.093,0,0,0,.1,27.948l33.382,212.1a8.094,8.094,0,0,0,9.253,6.736L197.2,222.472a8.091,8.091,0,0,0,6.735-9.253L176.056,36.059,124.752.137Z" transform="translate(0 0.028)" fill="#f5f5f5"/>
            <path id="Trazado_998979" data-name="Trazado 998979" d="M115.774,42.248l39.321-6.189L103.789.137l5.935,37.707a5.291,5.291,0,0,0,6.049,4.4" transform="translate(20.961 0.028)" fill="#d6d6d6"/>
            <path id="Trazado_998980" data-name="Trazado 998980" d="M103.79.137l5.934,37.707a5.292,5.292,0,0,0,6.051,4.4l39.32-6.189" transform="translate(20.962 0.028)" fill="none" stroke="#262626" stroke-linecap="round" stroke-linejoin="round" stroke-width="0.274"/>
            <path id="Trazado_998981" data-name="Trazado 998981" d="M81.587,131.5a56.382,56.382,0,0,1-.817-13.247,22.059,22.059,0,0,1,3.381-9.824,23.181,23.181,0,0,1,4-4.994A45.342,45.342,0,0,0,92.366,98.9a20.54,20.54,0,0,0,3.006-5.049,12.4,12.4,0,0,0,.5-6.695q-1.058-6.729-5.19-8.827a14.8,14.8,0,0,0-9.214-1.295q-7.286,1.147-9.392,5.631T70.356,94.124l-17.723,2.79a33.065,33.065,0,0,1,.274-12.574,26.309,26.309,0,0,1,4.78-10.326,27.928,27.928,0,0,1,8.825-7.443,37.181,37.181,0,0,1,12.247-4.04Q93.6,60.2,103.134,64.89t11.678,18.294a30.032,30.032,0,0,1,.319,7.834,20.529,20.529,0,0,1-1.739,6.4,26.74,26.74,0,0,1-3.607,5.707q-2.243,2.748-5.15,5.738a41.5,41.5,0,0,0-4.2,5.1,15.144,15.144,0,0,0-2.156,4.634,16.1,16.1,0,0,0-.512,4.8,48.267,48.267,0,0,0,.579,5.47Zm3.625,26.6-2.833-18,18.546-2.92,2.833,18Z" transform="translate(10.535 12.472)" fill="#d6d6d6"/>
            <path id="Trazado_998982" data-name="Trazado 998982" d="M153.412,128.629a457.714,457.714,0,0,1,66.329,82.259,456.819,456.819,0,0,1,35.278,67.984l-58.8,26.458L145.836,133.862Z" transform="translate(29.453 25.978)" fill="#fec02d"/>
            <path id="Trazado_998983" data-name="Trazado 998983" d="M139.774,117.093l37.695,11.782a199,199,0,0,1,19.8,40.981c16.308,47,11.077,90.005,9.6,102.16,0,0-.025.208-4.777,35.645H29.738a273.234,273.234,0,0,1,2.572-51.448c3.6-24.709,6.935-47.648,21.884-72.841,6.078-10.244,27.227-43.025,67.781-60.186a133.744,133.744,0,0,1,17.8-6.093" transform="translate(5.952 23.648)" fill="#fec02d"/>
            <path id="Trazado_998984" data-name="Trazado 998984" d="M48.686,176.792a388.665,388.665,0,0,0,79.1,16.555,388.569,388.569,0,0,0,75.93.321q.9,7.4,1.8,14.789a466.572,466.572,0,0,1-78.555-.227,466.49,466.49,0,0,1-85.5-15.605l7.225-15.832" transform="translate(8.374 35.705)" fill="#ff7129"/>
            <g id="Grupo_1190856" data-name="Grupo 1190856" transform="translate(178.644 199.317)" opacity="0.5">
              <g id="Grupo_1190855" data-name="Grupo 1190855">
                <g id="Grupo_1190854" data-name="Grupo 1190854" clip-path="url(#clip-path-3)">
                  <path id="Trazado_998985" data-name="Trazado 998985" d="M188.776,165.826l8.538,1.905L166.227,297.818h-17.6Z" transform="translate(-148.627 -165.826)" fill="#e8a600"/>
                </g>
              </g>
            </g>
            <path id="Trazado_998986" data-name="Trazado 998986" d="M124.289,256.931l7.312-2.275,16.758,8.664,4.226-10.248-21.266-8.179-8.683,4.069Z" transform="translate(24.768 49.459)" fill="#e8a600"/>
            <g id="Grupo_1190859" data-name="Grupo 1190859" transform="translate(35.42 289.818)" opacity="0.5">
              <g id="Grupo_1190858" data-name="Grupo 1190858">
                <g id="Grupo_1190857" data-name="Grupo 1190857" clip-path="url(#clip-path-4)">
                  <path id="Trazado_998987" data-name="Trazado 998987" d="M29.468,263.135a372.488,372.488,0,0,0,60.718,9.949,372.423,372.423,0,0,0,54.651.341V253.833L31.049,241.121Z" transform="translate(-29.468 -241.12)" fill="#e8a600"/>
                </g>
              </g>
            </g>
            <path id="Trazado_998988" data-name="Trazado 998988" d="M136.638,150.4h0a19.579,19.579,0,0,1-15.99-22.605l7.12-41.528,38.594,6.616-7.119,41.529A19.579,19.579,0,0,1,136.638,150.4" transform="translate(24.309 17.424)" fill="#f7a99c"/>
            <path id="Trazado_998989" data-name="Trazado 998989" d="M158.216,119.562l-22.857-17.309c-.126,2.22-.486,12.658,7.241,21.265a28.781,28.781,0,0,0,13.491,8.354Z" transform="translate(27.329 20.651)" fill="#ff7769"/>
            <path id="Trazado_998990" data-name="Trazado 998990" d="M131.007,76.349c-.012-.648-1.5-1.885-1.948-2.3a12.106,12.106,0,0,0-2.527-1.78,11.389,11.389,0,0,0-5.831-1.334,10.554,10.554,0,0,0-9.309,6.684,11.97,11.97,0,0,0-.046,6.987,17.576,17.576,0,0,0,5.7,8.818,19.143,19.143,0,0,0,7.839,3.89c.573.136,6.524,1.037,6.519.8q-.2-10.884-.4-21.769" transform="translate(22.387 14.324)" fill="#f7a99c"/>
            <path id="Trazado_998991" data-name="Trazado 998991" d="M123.166,81.764c-.087,3.177-.228,19.985,12.469,34.106,2.339,2.6,17.889,19.894,35.593,15.89,22.75-5.146,26.543-40.365,26.724-42.277.612-6.462,2.416-25.5-11.374-38.239-11.255-10.4-25.532-9.8-27.562-9.688a39.215,39.215,0,0,0-26.067,12.559c-9.312,10.373-9.641,22.45-9.783,27.649" transform="translate(24.872 8.383)" fill="#f7a99c"/>
            <path id="Trazado_998992" data-name="Trazado 998992" d="M175.371,80.5c-.136,2.778,1.614,5.12,3.908,5.232s4.262-2.051,4.4-4.827-1.614-5.12-3.908-5.232-4.262,2.049-4.4,4.827" transform="translate(35.417 15.282)" fill="#262626"/>
            <path id="Trazado_998993" data-name="Trazado 998993" d="M168.963,81.992l2.865,5.731a2,2,0,0,1-1.061,2.761l-3.815,1.493" transform="translate(33.718 16.559)" fill="none" stroke="#262626" stroke-linecap="round" stroke-linejoin="round" stroke-width="1.705"/>
            <path id="Trazado_998994" data-name="Trazado 998994" d="M145.843,89.029a5.65,5.65,0,1,0,5.918-5.369,5.651,5.651,0,0,0-5.918,5.369" transform="translate(29.453 16.895)" fill="#ff7769"/>
            <path id="Trazado_998995" data-name="Trazado 998995" d="M124.763,88.671a10.476,10.476,0,0,0-1.9-8.31,10.215,10.215,0,0,0-6.017-3.641" transform="translate(23.599 15.495)" fill="none" stroke="#262626" stroke-linecap="round" stroke-linejoin="round" stroke-width="1.705"/>
            <path id="Trazado_998996" data-name="Trazado 998996" d="M123,80.514a4.756,4.756,0,0,0-4.2.65,4.633,4.633,0,0,0-1.732,3.182" transform="translate(23.643 16.215)" fill="none" stroke="#262626" stroke-linecap="round" stroke-linejoin="round" stroke-width="1.705"/>
            <path id="Trazado_998997" data-name="Trazado 998997" d="M182.941,86.91a5.609,5.609,0,0,1,2.892.986,80.934,80.934,0,0,1-2.885,10.273c-.186.008-.367.037-.557.029a5.65,5.65,0,1,1,.549-11.288" transform="translate(35.75 17.551)" fill="#ff7769"/>
            <path id="Trazado_998998" data-name="Trazado 998998" d="M157.271,74.719l4.7,5.338-6.735,2.371" transform="translate(31.353 15.091)" fill="none" stroke="#262626" stroke-linecap="round" stroke-linejoin="round" stroke-width="1.705"/>
            <path id="Trazado_998999" data-name="Trazado 998999" d="M155.239,100.755l16.933,1.929c-.047-.346-.787-5.348-4.807-7.166-3.94-1.783-9.492.191-12.127,5.237" transform="translate(31.352 19.161)" fill="#fff"/>
            <path id="Trazado_999000" data-name="Trazado 999000" d="M123.745,79.079a11.055,11.055,0,0,1,7,9.065c17.563-1.667,27.7-6.6,33.808-11.047,0,0,.446-.325,13.321-10.106a40.5,40.5,0,0,0,20.777,11.973c9.23-2.148,15.665-9.044,15.879-16.245.225-7.583-6.516-13.324-11.3-15.71-7.806-3.893-11.4.649-22.843-2.349-9.226-2.417-8.883-5.89-17.533-7.986-2.614-.633-13.476-3.267-24.391,2.48-9.206,4.848-16.5,14.628-17.225,25.908a30.5,30.5,0,0,0,2.513,14.016" transform="translate(24.472 7.174)" fill="#262626"/>
            <path id="Trazado_999001" data-name="Trazado 999001" d="M142.283,117.093a161.052,161.052,0,0,0-71.451,36.594s-27.2,24.333-45.751,69.453a91.774,91.774,0,0,0-5.512,17.088,103.479,103.479,0,0,0-2.513,18.754,9.507,9.507,0,0,0,6.271,9.319c3.421,1.242,7.358,2.626,11.724,4.081,8.086,2.7,26.02,10.042,46.336,12.862,42.363,5.88,65.882,7.35,65.882,7.35l3.081-73.129-56-7.089Z" transform="translate(3.443 23.648)" fill="#fec02d"/>
            <path id="Trazado_999002" data-name="Trazado 999002" d="M158.889,148.379c7.035,24.6,11.392,45.194,14.149,60.211" transform="translate(32.09 29.967)" fill="none" stroke="#262626" stroke-linecap="round" stroke-linejoin="round" stroke-width="1"/>
            <g id="Grupo_1190862" data-name="Grupo 1190862" transform="translate(86.31 173.936)" opacity="0.5">
              <g id="Grupo_1190861" data-name="Grupo 1190861">
                <g id="Grupo_1190860" data-name="Grupo 1190860" clip-path="url(#clip-path-5)">
                  <path id="Trazado_999003" data-name="Trazado 999003" d="M103.227,144.71,71.808,215.49H90.825Z" transform="translate(-71.807 -144.71)" fill="#e8a600"/>
                </g>
              </g>
            </g>
            <rect id="Rectángulo_455583" data-name="Rectángulo 455583" width="135.876" height="17.639" transform="translate(169.24 326.501) rotate(-74.182)" fill="#8dcdc1"/>
            <path id="Trazado_999004" data-name="Trazado 999004" d="M127.23,216.981s31.841-3.171,35.236-2.124,15.012,7.624,16.654,9.5a6.68,6.68,0,0,1,1.994,5.4c-.234,1.758-2.581,3.753-2.581,3.753,1.839,2.863,1.9,4.825,1.51,6.152-.7,2.369-3.477,4.843-3.5,4.874a13.849,13.849,0,0,1,.5,3.064,11.068,11.068,0,0,1-1.028,5.9c-1.793,3.315-5.485,4.262-6.293,4.45a4.577,4.577,0,0,1-.448,4.886c-1.877,2.228-7.507,5.043-14.193,4.1s-24.043-9.5-24.043-9.5l-5.581,1.746Z" transform="translate(25.337 43.35)" fill="#f7a99c"/>
            <g id="Grupo_1190865" data-name="Grupo 1190865" transform="translate(162.07 44.374)" opacity="0.5">
              <g id="Grupo_1190864" data-name="Grupo 1190864">
                <g id="Grupo_1190863" data-name="Grupo 1190863" clip-path="url(#clip-path-6)">
                  <path id="Trazado_999005" data-name="Trazado 999005" d="M289.78,114.389a77.471,77.471,0,1,1-77.471-77.471,77.471,77.471,0,0,1,77.471,77.471" transform="translate(-134.838 -36.918)" fill="#cdebf5"/>
                </g>
              </g>
            </g>
            <path id="Trazado_999006" data-name="Trazado 999006" d="M214,28.542a87.539,87.539,0,1,0,87.539,87.539A87.539,87.539,0,0,0,214,28.542m0,160.784a73.245,73.245,0,1,1,73.245-73.245A73.245,73.245,0,0,1,214,189.326" transform="translate(25.541 5.764)" fill="#8dcdc1"/>
            <path id="Trazado_999007" data-name="Trazado 999007" d="M173.946,231.886s-11.725-2.186-17.651-4.942a63.816,63.816,0,0,1-8.131-4.272" transform="translate(29.924 44.971)" fill="none" stroke="#262626" stroke-linecap="round" stroke-linejoin="round" stroke-width="1.5"/>
            <path id="Trazado_999008" data-name="Trazado 999008" d="M172.422,241.151s-13.591-1.359-19.1-4.529-7.482-5.237-7.482-5.237" transform="translate(29.454 46.731)" fill="none" stroke="#262626" stroke-linecap="round" stroke-linejoin="round" stroke-width="1.5"/>
            <path id="Trazado_999009" data-name="Trazado 999009" d="M168.373,251.463a38.44,38.44,0,0,1-13.243-2.779,93.306,93.306,0,0,1-11.437-6.064" transform="translate(29.021 49)" fill="none" stroke="#262626" stroke-linecap="round" stroke-linejoin="round" stroke-width="1.5"/>
            <path id="Trazado_999010" data-name="Trazado 999010" d="M127.229,216.622l-1.778,42.2,5.581-1.746-1.789-40.647Z" transform="translate(25.337 43.71)" fill="#ff7769"/>
            <path id="Trazado_999011" data-name="Trazado 999011" d="M109.573,148.379S80.364,212.6,81.188,214.25s66.65-1.1,66.65-1.1l-3.079,73.129s-51.4-3.249-71.728-8.295-43.563-12.952-43.563-12.952" transform="translate(5.951 29.967)" fill="none" stroke="#262626" stroke-linecap="round" stroke-linejoin="round" stroke-width="1"/>
            <path id="Trazado_999012" data-name="Trazado 999012" d="M202.681,59.03a4.35,4.35,0,0,0,5.5,5.854,30.475,30.475,0,0,1,12.8-1.869A29.517,29.517,0,0,1,231.2,65.63a23.945,23.945,0,0,1,9.676,7.485c4.511,6.211,4.135,13.478,3.763,16.314a4.351,4.351,0,0,0,8.628,1.13c.63-4.808.77-14.13-5.35-22.558a32.416,32.416,0,0,0-13.015-10.246,37.9,37.9,0,0,0-13.294-3.418,39.2,39.2,0,0,0-16.491,2.4,4.328,4.328,0,0,0-2.44,2.292" transform="translate(40.857 10.954)" fill="#fff"/>
            <path id="Trazado_999013" data-name="Trazado 999013" d="M86.047,142.952a205.2,205.2,0,0,0-60.634,95.82" transform="translate(5.132 28.871)" fill="none" stroke="#fff" stroke-linecap="round" stroke-linejoin="round" stroke-width="1"/>
            <path id="Trazado_999014" data-name="Trazado 999014" d="M270.471,278.172H140.384a9.187,9.187,0,0,1-9.188-9.187v-5.88H270.471Z" transform="translate(26.497 53.137)" fill="#12263f"/>
            <path id="Trazado_999015" data-name="Trazado 999015" d="M353.157,294.766H211.233c-5.573,0-9.54-4.763-8.858-10.641L213.1,191.58c.682-5.876,5.751-10.641,11.325-10.641H366.35c5.573,0,9.54,4.765,8.858,10.641l-10.726,92.545c-.681,5.878-5.751,10.641-11.325,10.641" transform="translate(40.857 36.543)" fill="#12263f"/>
            <path id="Trazado_999016" data-name="Trazado 999016" d="M364.557,294.766H222.633c-5.574,0-9.54-4.763-8.858-10.641L224.5,191.58c.682-5.876,5.751-10.641,11.325-10.641H377.75c5.573,0,9.54,4.765,8.858,10.641l-10.726,92.545c-.682,5.878-5.751,10.641-11.325,10.641" transform="translate(43.159 36.543)" fill="#505c6b"/>
            <path id="Trazado_999017" data-name="Trazado 999017" d="M377.662,194.219l-10.726,87.772s.48,10.092-16.057,10.092H258c10-.062,45.009-1.5,77.171-27.836,32.1-26.278,40.442-60.228,42.492-70.028" transform="translate(52.106 39.225)" fill="#a6b2c2"/>
            <path id="Trazado_999018" data-name="Trazado 999018" d="M368.273,203.6a122.584,122.584,0,0,1-78.431,80.152" transform="translate(58.537 41.119)" fill="none" stroke="#262626" stroke-linecap="round" stroke-linejoin="round" stroke-width="1"/>
            <path id="Trazado_999019" data-name="Trazado 999019" d="M286.516,239.377h-4.96l3.161-20.12h4.96Z" transform="translate(56.864 44.282)" fill="#fec02d"/>
            <path id="Trazado_999020" data-name="Trazado 999020" d="M291.934,238.328h-4.961l2.179-13.872h4.962Z" transform="translate(57.958 45.332)" fill="#fec02d"/>
            <path id="Trazado_999021" data-name="Trazado 999021" d="M178.294,38.827a93.186,93.186,0,0,0-46.867,91.091" transform="translate(26.439 7.842)" fill="none" stroke="#262626" stroke-linecap="round" stroke-linejoin="round" stroke-width="1"/>
            <line id="Línea_3319" data-name="Línea 3319" x1="2.791" y1="19.68" transform="translate(210.693 270.839)" fill="none" stroke="#262626" stroke-linecap="round" stroke-linejoin="round" stroke-width="1"/>
            <path id="Trazado_999022" data-name="Trazado 999022" d="M439.064,250.826H253.116a7.716,7.716,0,0,1-7.715-7.715V106.975a7.716,7.716,0,0,1,7.715-7.715H439.064a7.716,7.716,0,0,1,7.715,7.715V243.111a7.716,7.716,0,0,1-7.715,7.715" transform="translate(49.562 20.047)" fill="#f5f5f5"/>
            <g id="Grupo_1190868" data-name="Grupo 1190868" transform="translate(294.963 119.308)" opacity="0.5">
              <g id="Grupo_1190867" data-name="Grupo 1190867">
                <g id="Grupo_1190866" data-name="Grupo 1190866" clip-path="url(#clip-path-7)">
                  <path id="Trazado_999023" data-name="Trazado 999023" d="M446.779,116.8v-9.82a7.716,7.716,0,0,0-7.715-7.715H253.117a7.716,7.716,0,0,0-7.717,7.715v9.82Z" transform="translate(-245.401 -99.261)" fill="#d6d6d6"/>
                </g>
              </g>
            </g>
            <path id="Trazado_999024" data-name="Trazado 999024" d="M254.917,107.721a2.389,2.389,0,1,1-2.388-2.388,2.388,2.388,0,0,1,2.388,2.388" transform="translate(50.519 21.273)" fill="#f5f5f5"/>
            <path id="Trazado_999025" data-name="Trazado 999025" d="M261.2,107.721a2.389,2.389,0,1,1-2.388-2.388,2.388,2.388,0,0,1,2.388,2.388" transform="translate(51.787 21.273)" fill="#f5f5f5"/>
            <path id="Trazado_999026" data-name="Trazado 999026" d="M267.62,107.721a2.389,2.389,0,1,1-2.388-2.388,2.388,2.388,0,0,1,2.388,2.388" transform="translate(53.084 21.273)" fill="#f5f5f5"/>
            <g id="Grupo_1190871" data-name="Grupo 1190871" transform="translate(348.703 157.193)" opacity="0.5">
              <g id="Grupo_1190870" data-name="Grupo 1190870">
                <g id="Grupo_1190869" data-name="Grupo 1190869" clip-path="url(#clip-path-8)">
                  <path id="Trazado_999027" data-name="Trazado 999027" d="M358.83,146.443v-9.827a5.837,5.837,0,0,0-5.837-5.837H295.948a5.837,5.837,0,0,0-5.837,5.837v75.3a5.837,5.837,0,0,0,5.837,5.837h91.22A5.837,5.837,0,0,0,393,211.913V152.28a5.837,5.837,0,0,0-5.837-5.837Z" transform="translate(-290.111 -130.78)" fill="#d6d6d6"/>
                </g>
              </g>
            </g>
            <path id="Trazado_999028" data-name="Trazado 999028" d="M347.5,155.232l-11.493,11.493-11.492-11.493-6.935,6.935,11.493,11.492-11.493,11.493,6.935,6.935,11.492-11.493L347.5,192.088l6.935-6.935-11.493-11.493,11.493-11.492Z" transform="translate(64.14 31.351)" fill="#d6d6d6"/>
            <path id="Trazado_999029" data-name="Trazado 999029" d="M251.82,99.261H437.767a7.716,7.716,0,0,1,7.715,7.715V243.112" transform="translate(50.858 20.047)" fill="none" stroke="#262626" stroke-linecap="round" stroke-linejoin="round" stroke-width="0.274"/>
            <path id="Trazado_999030" data-name="Trazado 999030" d="M511.4,301.266H12.813a12.813,12.813,0,1,1,0-25.626H511.4a12.813,12.813,0,1,1,0,25.626" transform="translate(0 55.669)" fill="#c1e4dd"/>
          </g>
        </g>
      </g>
    </g>
  </g>
</svg>
