<svg xmlns="http://www.w3.org/2000/svg" xmlns:xlink="http://www.w3.org/1999/xlink" width="396" height="395" viewBox="0 0 396 395">
  <defs>
    <clipPath id="clip-path">
      <rect id="Rectángulo_455296" data-name="Rectángulo 455296" width="2.952" height="2.952" fill="#e2e2e2"/>
    </clipPath>
    <clipPath id="clip-path-10">
      <rect id="Rectángulo_455313" data-name="Rectángulo 455313" width="14.97" height="14.97" fill="#e2e2e2"/>
    </clipPath>
  </defs>
  <g id="Grupo_1190968" data-name="Grupo 1190968" transform="translate(-8062 7401)">
    <rect id="Rectángulo_455336" data-name="Rectángulo 455336" width="396" height="395" rx="14" transform="translate(8062 -7401)" fill="#ffedb1"/>
    <rect id="Rectángulo_455138" data-name="Rectángulo 455138" width="351" height="37" rx="18.5" transform="translate(8085 -7380)" fill="#8dcdc1"/>
    <path id="Trazado_999235" data-name="Trazado 999235" d="M3.569,13.742V18H1.079V5.914H5.794a5.455,5.455,0,0,1,2.395.5,3.67,3.67,0,0,1,1.59,1.415,3.946,3.946,0,0,1,.556,2.088,3.47,3.47,0,0,1-1.216,2.8,5.065,5.065,0,0,1-3.366,1.025Zm0-2.017H5.794A2.187,2.187,0,0,0,7.3,11.26a1.691,1.691,0,0,0,.519-1.328A1.994,1.994,0,0,0,7.3,8.5a1.953,1.953,0,0,0-1.444-.564H3.569ZM17,18a2.664,2.664,0,0,1-.241-.805,2.9,2.9,0,0,1-2.266.971,3.189,3.189,0,0,1-2.187-.764,2.456,2.456,0,0,1-.867-1.926A2.538,2.538,0,0,1,12.5,13.285a5.222,5.222,0,0,1,3.059-.772h1.1V12a1.48,1.48,0,0,0-.32-1,1.257,1.257,0,0,0-1.009-.374,1.429,1.429,0,0,0-.95.291.987.987,0,0,0-.344.8h-2.4a2.41,2.41,0,0,1,.481-1.444A3.182,3.182,0,0,1,13.48,9.23a4.961,4.961,0,0,1,1.976-.378,3.92,3.92,0,0,1,2.635.834,2.918,2.918,0,0,1,.975,2.345v3.893a4.294,4.294,0,0,0,.357,1.934V18Zm-1.984-1.668A2.066,2.066,0,0,0,16,16.095a1.554,1.554,0,0,0,.664-.635V13.916h-.9q-1.8,0-1.917,1.245l-.008.141a.96.96,0,0,0,.315.739A1.225,1.225,0,0,0,15.016,16.332Zm10.94-5.063a6.517,6.517,0,0,0-.863-.066,1.757,1.757,0,0,0-1.785.921V18h-2.4V9.019h2.266l.066,1.071a2.223,2.223,0,0,1,2-1.237,2.514,2.514,0,0,1,.747.108Zm5.288,6.9a4.409,4.409,0,0,1-3.217-1.212,4.308,4.308,0,0,1-1.241-3.229v-.232a5.426,5.426,0,0,1,.523-2.42,3.838,3.838,0,0,1,1.482-1.644,4.159,4.159,0,0,1,2.187-.577,3.727,3.727,0,0,1,2.9,1.162,4.722,4.722,0,0,1,1.058,3.3v.979H29.219a2.229,2.229,0,0,0,.7,1.411,2.12,2.12,0,0,0,1.482.531,2.589,2.589,0,0,0,2.167-1l1.179,1.32a3.6,3.6,0,0,1-1.461,1.191A4.793,4.793,0,0,1,31.244,18.166Zm-.274-7.379a1.5,1.5,0,0,0-1.158.484,2.5,2.5,0,0,0-.569,1.384h3.337v-.192a1.786,1.786,0,0,0-.432-1.238A1.547,1.547,0,0,0,30.97,10.787Zm.216-5.537H33.8L31.5,7.823H29.551Zm7.321,3.769.075,1.038a3.136,3.136,0,0,1,2.582-1.2,2.606,2.606,0,0,1,2.125.838A3.912,3.912,0,0,1,44,12.2V18H41.6V12.256a1.556,1.556,0,0,0-.332-1.108,1.486,1.486,0,0,0-1.1-.344,1.65,1.65,0,0,0-1.519.863V18h-2.4V9.019ZM48.692,6.811V9.019h1.536v1.76H48.692v4.482a1.07,1.07,0,0,0,.191.714.959.959,0,0,0,.73.216,3.826,3.826,0,0,0,.706-.058V17.95a4.939,4.939,0,0,1-1.453.216,2.29,2.29,0,0,1-2.573-2.548V10.778H44.982V9.019h1.312V6.811ZM55.7,18.166a4.409,4.409,0,0,1-3.217-1.212,4.308,4.308,0,0,1-1.241-3.229v-.232a5.426,5.426,0,0,1,.523-2.42,3.838,3.838,0,0,1,1.482-1.644,4.159,4.159,0,0,1,2.187-.577,3.727,3.727,0,0,1,2.9,1.162,4.722,4.722,0,0,1,1.058,3.3v.979H53.673a2.229,2.229,0,0,0,.7,1.411,2.12,2.12,0,0,0,1.482.531,2.589,2.589,0,0,0,2.167-1l1.179,1.32a3.6,3.6,0,0,1-1.461,1.191A4.793,4.793,0,0,1,55.7,18.166Zm-.274-7.379a1.5,1.5,0,0,0-1.158.484,2.5,2.5,0,0,0-.569,1.384h3.337v-.192a1.786,1.786,0,0,0-.432-1.238A1.547,1.547,0,0,0,55.424,10.787Zm10.193,4.731a.773.773,0,0,0-.436-.693,4.95,4.95,0,0,0-1.4-.452q-3.2-.672-3.2-2.723a2.468,2.468,0,0,1,.992-2,4,4,0,0,1,2.594-.8,4.307,4.307,0,0,1,2.735.805,2.538,2.538,0,0,1,1.025,2.092h-2.4a1.161,1.161,0,0,0-.332-.851,1.405,1.405,0,0,0-1.038-.336,1.436,1.436,0,0,0-.938.274.865.865,0,0,0-.332.7.739.739,0,0,0,.378.643,3.885,3.885,0,0,0,1.274.423,10.407,10.407,0,0,1,1.511.4,2.482,2.482,0,0,1,1.9,2.416A2.343,2.343,0,0,1,66.9,17.406a4.548,4.548,0,0,1-2.723.76,4.75,4.75,0,0,1-2-.4,3.363,3.363,0,0,1-1.374-1.1,2.565,2.565,0,0,1-.5-1.515h2.274a1.252,1.252,0,0,0,.473.979,1.877,1.877,0,0,0,1.179.34,1.737,1.737,0,0,0,1.042-.261A.814.814,0,0,0,65.618,15.518ZM72.026,18H69.619V9.019h2.407ZM69.478,6.694a1.181,1.181,0,0,1,.361-.888,1.556,1.556,0,0,1,1.963,0,1.175,1.175,0,0,1,.365.888,1.178,1.178,0,0,1-.369.9,1.539,1.539,0,0,1-1.951,0A1.178,1.178,0,0,1,69.478,6.694Zm9.388,8.824a.773.773,0,0,0-.436-.693,4.95,4.95,0,0,0-1.4-.452q-3.2-.672-3.2-2.723a2.468,2.468,0,0,1,.992-2,4,4,0,0,1,2.594-.8,4.307,4.307,0,0,1,2.735.805,2.538,2.538,0,0,1,1.025,2.092h-2.4a1.161,1.161,0,0,0-.332-.851,1.405,1.405,0,0,0-1.038-.336,1.436,1.436,0,0,0-.938.274.865.865,0,0,0-.332.7.739.739,0,0,0,.378.643,3.885,3.885,0,0,0,1.274.423A10.407,10.407,0,0,1,79.3,13a2.482,2.482,0,0,1,1.9,2.416,2.343,2.343,0,0,1-1.054,1.988,4.548,4.548,0,0,1-2.723.76,4.75,4.75,0,0,1-2-.4,3.363,3.363,0,0,1-1.374-1.1,2.565,2.565,0,0,1-.5-1.515h2.274a1.252,1.252,0,0,0,.473.979,1.877,1.877,0,0,0,1.179.34,1.737,1.737,0,0,0,1.042-.261A.814.814,0,0,0,78.866,15.518Zm12.244,2.648a4.409,4.409,0,0,1-3.217-1.212,4.308,4.308,0,0,1-1.241-3.229v-.232a5.426,5.426,0,0,1,.523-2.42,3.838,3.838,0,0,1,1.482-1.644,4.159,4.159,0,0,1,2.187-.577,3.727,3.727,0,0,1,2.9,1.162,4.722,4.722,0,0,1,1.058,3.3v.979H89.084a2.229,2.229,0,0,0,.7,1.411,2.12,2.12,0,0,0,1.482.531,2.589,2.589,0,0,0,2.167-1l1.179,1.32a3.6,3.6,0,0,1-1.461,1.191A4.793,4.793,0,0,1,91.109,18.166Zm-.274-7.379a1.5,1.5,0,0,0-1.158.484,2.5,2.5,0,0,0-.569,1.384h3.337v-.192a1.786,1.786,0,0,0-.432-1.238A1.547,1.547,0,0,0,90.835,10.787Zm7.537-1.768.075,1.038a3.136,3.136,0,0,1,2.582-1.2,2.606,2.606,0,0,1,2.125.838,3.912,3.912,0,0,1,.714,2.507V18h-2.4V12.256a1.556,1.556,0,0,0-.332-1.108,1.486,1.486,0,0,0-1.1-.344,1.65,1.65,0,0,0-1.519.863V18h-2.4V9.019ZM112.451,18h-2.407V5.25h2.407Zm7.18,0a2.664,2.664,0,0,1-.241-.805,2.9,2.9,0,0,1-2.266.971,3.189,3.189,0,0,1-2.187-.764,2.456,2.456,0,0,1-.867-1.926,2.538,2.538,0,0,1,1.058-2.191,5.222,5.222,0,0,1,3.059-.772h1.1V12a1.48,1.48,0,0,0-.32-1,1.257,1.257,0,0,0-1.009-.374,1.429,1.429,0,0,0-.95.291.987.987,0,0,0-.344.8h-2.4a2.41,2.41,0,0,1,.481-1.444,3.182,3.182,0,0,1,1.361-1.042,4.961,4.961,0,0,1,1.976-.378,3.92,3.92,0,0,1,2.635.834,2.918,2.918,0,0,1,.975,2.345v3.893a4.294,4.294,0,0,0,.357,1.934V18Zm-1.984-1.668a2.066,2.066,0,0,0,.979-.237,1.554,1.554,0,0,0,.664-.635V13.916h-.9q-1.8,0-1.917,1.245l-.008.141a.96.96,0,0,0,.315.739A1.225,1.225,0,0,0,117.647,16.332Zm14.261,1.834a4.409,4.409,0,0,1-3.217-1.212,4.308,4.308,0,0,1-1.241-3.229v-.232a5.426,5.426,0,0,1,.523-2.42,3.838,3.838,0,0,1,1.482-1.644,4.159,4.159,0,0,1,2.187-.577,3.727,3.727,0,0,1,2.9,1.162,4.722,4.722,0,0,1,1.058,3.3v.979h-5.719a2.228,2.228,0,0,0,.7,1.411,2.12,2.12,0,0,0,1.482.531,2.589,2.589,0,0,0,2.167-1l1.179,1.32a3.6,3.6,0,0,1-1.461,1.191A4.793,4.793,0,0,1,131.908,18.166Zm-.274-7.379a1.5,1.5,0,0,0-1.158.484,2.5,2.5,0,0,0-.569,1.384h3.337v-.192a1.786,1.786,0,0,0-.432-1.238A1.547,1.547,0,0,0,131.634,10.787Zm9.064,5.445a1.573,1.573,0,0,0,1.079-.365,1.28,1.28,0,0,0,.432-.971h2.25a3.077,3.077,0,0,1-.5,1.673,3.286,3.286,0,0,1-1.341,1.179,4.2,4.2,0,0,1-1.88.419,3.9,3.9,0,0,1-3.038-1.224,4.845,4.845,0,0,1-1.112-3.383V13.4a4.79,4.79,0,0,1,1.1-3.312,3.854,3.854,0,0,1,3.03-1.237,3.778,3.778,0,0,1,2.7.959,3.4,3.4,0,0,1,1.033,2.552h-2.25a1.648,1.648,0,0,0-.432-1.139,1.6,1.6,0,0,0-2.362.173,3.541,3.541,0,0,0-.427,1.983v.249a3.586,3.586,0,0,0,.423,2A1.463,1.463,0,0,0,140.7,16.232Zm10.509.855a3.008,3.008,0,0,1-2.457,1.079,2.837,2.837,0,0,1-2.2-.83,3.543,3.543,0,0,1-.776-2.432V9.019h2.4v5.809q0,1.4,1.278,1.4a1.732,1.732,0,0,0,1.677-.848V9.019h2.407V18h-2.258Zm9.338.913a2.664,2.664,0,0,1-.241-.805,2.9,2.9,0,0,1-2.266.971,3.189,3.189,0,0,1-2.187-.764,2.456,2.456,0,0,1-.867-1.926,2.538,2.538,0,0,1,1.058-2.191,5.222,5.222,0,0,1,3.059-.772h1.1V12a1.48,1.48,0,0,0-.32-1,1.257,1.257,0,0,0-1.009-.374,1.429,1.429,0,0,0-.95.291.987.987,0,0,0-.344.8h-2.4a2.41,2.41,0,0,1,.481-1.444,3.182,3.182,0,0,1,1.361-1.042A4.961,4.961,0,0,1,159,8.853a3.92,3.92,0,0,1,2.635.834,2.918,2.918,0,0,1,.975,2.345v3.893a4.294,4.294,0,0,0,.357,1.934V18Zm-1.984-1.668a2.066,2.066,0,0,0,.979-.237,1.554,1.554,0,0,0,.664-.635V13.916h-.9q-1.8,0-1.917,1.245l-.008.141a.96.96,0,0,0,.315.739A1.225,1.225,0,0,0,158.562,16.332Zm9.629-.1a1.573,1.573,0,0,0,1.079-.365,1.28,1.28,0,0,0,.432-.971h2.25a3.077,3.077,0,0,1-.5,1.673,3.286,3.286,0,0,1-1.341,1.179,4.2,4.2,0,0,1-1.88.419,3.9,3.9,0,0,1-3.038-1.224,4.845,4.845,0,0,1-1.112-3.383V13.4a4.79,4.79,0,0,1,1.1-3.312,3.854,3.854,0,0,1,3.03-1.237,3.778,3.778,0,0,1,2.7.959,3.4,3.4,0,0,1,1.033,2.552H169.7a1.648,1.648,0,0,0-.432-1.139,1.6,1.6,0,0,0-2.362.173,3.541,3.541,0,0,0-.427,1.983v.249a3.586,3.586,0,0,0,.423,2A1.463,1.463,0,0,0,168.19,16.232ZM175.852,18h-2.407V9.019h2.407ZM173.3,6.694a1.181,1.181,0,0,1,.361-.888,1.556,1.556,0,0,1,1.963,0,1.175,1.175,0,0,1,.365.888,1.178,1.178,0,0,1-.369.9,1.539,1.539,0,0,1-1.951,0A1.178,1.178,0,0,1,173.3,6.694Zm4.15,6.732a5.327,5.327,0,0,1,.515-2.382,3.767,3.767,0,0,1,1.482-1.619,4.323,4.323,0,0,1,2.245-.573,4.09,4.09,0,0,1,2.968,1.112,4.464,4.464,0,0,1,1.282,3.021l.017.614a4.694,4.694,0,0,1-1.154,3.316,4.472,4.472,0,0,1-6.2,0,4.777,4.777,0,0,1-1.158-3.387Zm2.4.17a3.357,3.357,0,0,0,.481,1.958,1.73,1.73,0,0,0,2.739.008,3.674,3.674,0,0,0,.49-2.141,3.324,3.324,0,0,0-.49-1.945,1.592,1.592,0,0,0-1.378-.69,1.566,1.566,0,0,0-1.361.686A3.735,3.735,0,0,0,179.853,13.6Zm2.316-8.347h2.615l-2.3,2.573h-1.951Zm7.479,3.769.075,1.038a3.136,3.136,0,0,1,2.582-1.2,2.606,2.606,0,0,1,2.125.838,3.912,3.912,0,0,1,.714,2.507V18h-2.4V12.256a1.556,1.556,0,0,0-.332-1.108,1.486,1.486,0,0,0-1.1-.344,1.65,1.65,0,0,0-1.519.863V18h-2.4V9.019Zm11.173,4.424a5.413,5.413,0,0,1,.942-3.345,3.057,3.057,0,0,1,2.577-1.245,2.751,2.751,0,0,1,2.167.979V5.25h2.407V18h-2.167l-.116-.955a2.823,2.823,0,0,1-2.308,1.121,3.049,3.049,0,0,1-2.544-1.249A5.587,5.587,0,0,1,200.821,13.443Zm2.4.179a3.546,3.546,0,0,0,.44,1.937,1.433,1.433,0,0,0,1.278.673,1.605,1.605,0,0,0,1.569-.939v-3.55a1.582,1.582,0,0,0-1.552-.939Q203.22,10.8,203.22,13.621Zm11.688,4.545a4.409,4.409,0,0,1-3.217-1.212,4.308,4.308,0,0,1-1.241-3.229v-.232a5.426,5.426,0,0,1,.523-2.42,3.838,3.838,0,0,1,1.482-1.644,4.159,4.159,0,0,1,2.187-.577,3.727,3.727,0,0,1,2.9,1.162,4.722,4.722,0,0,1,1.058,3.3v.979h-5.719a2.228,2.228,0,0,0,.7,1.411,2.12,2.12,0,0,0,1.482.531,2.589,2.589,0,0,0,2.167-1l1.179,1.32a3.6,3.6,0,0,1-1.461,1.191A4.793,4.793,0,0,1,214.907,18.166Zm-.274-7.379a1.5,1.5,0,0,0-1.158.484,2.5,2.5,0,0,0-.569,1.384h3.337v-.192a1.786,1.786,0,0,0-.432-1.238A1.547,1.547,0,0,0,214.633,10.787Zm17.656,2.806a5.439,5.439,0,0,1-.921,3.366,3.052,3.052,0,0,1-2.573,1.208,2.8,2.8,0,0,1-2.333-1.121l-.108.955H224.2V5.25h2.4V9.824a2.732,2.732,0,0,1,2.183-.971,3.077,3.077,0,0,1,2.577,1.208,5.446,5.446,0,0,1,.934,3.4Zm-2.4-.174a3.573,3.573,0,0,0-.432-1.988,1.46,1.46,0,0,0-1.287-.627,1.582,1.582,0,0,0-1.577.938v3.544a1.6,1.6,0,0,0,1.594.946,1.481,1.481,0,0,0,1.527-1.146A5.909,5.909,0,0,0,229.89,13.418Zm9.255,3.669a3.008,3.008,0,0,1-2.457,1.079,2.837,2.837,0,0,1-2.2-.83,3.543,3.543,0,0,1-.776-2.432V9.019h2.4v5.809q0,1.4,1.278,1.4a1.732,1.732,0,0,0,1.677-.848V9.019h2.407V18h-2.258ZM238.075,5.25h2.615l-2.3,2.573h-1.951Zm10.069,10.268a.773.773,0,0,0-.436-.693,4.95,4.95,0,0,0-1.4-.452q-3.2-.672-3.2-2.723a2.468,2.468,0,0,1,.992-2,4,4,0,0,1,2.594-.8,4.307,4.307,0,0,1,2.735.805,2.538,2.538,0,0,1,1.025,2.092h-2.4a1.161,1.161,0,0,0-.332-.851,1.405,1.405,0,0,0-1.038-.336,1.436,1.436,0,0,0-.938.274.865.865,0,0,0-.332.7.739.739,0,0,0,.378.643,3.885,3.885,0,0,0,1.274.423,10.407,10.407,0,0,1,1.511.4,2.482,2.482,0,0,1,1.9,2.416,2.343,2.343,0,0,1-1.054,1.988,4.548,4.548,0,0,1-2.723.76,4.75,4.75,0,0,1-2-.4,3.363,3.363,0,0,1-1.374-1.1,2.565,2.565,0,0,1-.5-1.515H245.1a1.252,1.252,0,0,0,.473.979,1.877,1.877,0,0,0,1.179.34,1.737,1.737,0,0,0,1.042-.261A.814.814,0,0,0,248.144,15.518Zm3.5-2.092a5.369,5.369,0,0,1,.942-3.345,3.08,3.08,0,0,1,2.586-1.229,2.758,2.758,0,0,1,2.3,1.1l.158-.938h2.108V21.453h-2.407V17.228a2.765,2.765,0,0,1-2.175.938,3.057,3.057,0,0,1-2.557-1.245A5.632,5.632,0,0,1,251.646,13.426Zm2.4.17a3.522,3.522,0,0,0,.452,1.962,1.448,1.448,0,0,0,1.274.673,1.613,1.613,0,0,0,1.561-.881V11.635a1.6,1.6,0,0,0-1.544-.848,1.466,1.466,0,0,0-1.287.673A3.889,3.889,0,0,0,254.045,13.6ZM267,17.087a3.008,3.008,0,0,1-2.457,1.079,2.837,2.837,0,0,1-2.2-.83,3.544,3.544,0,0,1-.776-2.432V9.019h2.4v5.809q0,1.4,1.278,1.4a1.732,1.732,0,0,0,1.677-.848V9.019h2.407V18h-2.258Zm8.268,1.079a4.409,4.409,0,0,1-3.217-1.212,4.308,4.308,0,0,1-1.241-3.229v-.232a5.426,5.426,0,0,1,.523-2.42,3.838,3.838,0,0,1,1.482-1.644A4.159,4.159,0,0,1,275,8.853a3.727,3.727,0,0,1,2.9,1.162,4.722,4.722,0,0,1,1.058,3.3v.979h-5.719a2.229,2.229,0,0,0,.7,1.411,2.12,2.12,0,0,0,1.482.531,2.589,2.589,0,0,0,2.167-1l1.179,1.32a3.6,3.6,0,0,1-1.461,1.191A4.793,4.793,0,0,1,275.271,18.166ZM275,10.787a1.5,1.5,0,0,0-1.158.484,2.5,2.5,0,0,0-.569,1.384h3.337v-.192a1.786,1.786,0,0,0-.432-1.238A1.547,1.547,0,0,0,275,10.787Zm4.956,2.656a5.413,5.413,0,0,1,.942-3.345,3.057,3.057,0,0,1,2.577-1.245,2.751,2.751,0,0,1,2.167.979V5.25h2.407V18h-2.167l-.116-.955a2.823,2.823,0,0,1-2.308,1.121,3.049,3.049,0,0,1-2.544-1.249A5.587,5.587,0,0,1,279.952,13.443Zm2.4.179a3.545,3.545,0,0,0,.44,1.937,1.433,1.433,0,0,0,1.278.673,1.605,1.605,0,0,0,1.569-.939v-3.55a1.582,1.582,0,0,0-1.552-.939Q282.351,10.8,282.351,13.621ZM295.109,18a2.664,2.664,0,0,1-.241-.805,2.9,2.9,0,0,1-2.266.971,3.189,3.189,0,0,1-2.187-.764,2.456,2.456,0,0,1-.867-1.926,2.538,2.538,0,0,1,1.058-2.191,5.222,5.222,0,0,1,3.059-.772h1.1V12a1.48,1.48,0,0,0-.32-1,1.257,1.257,0,0,0-1.009-.374,1.429,1.429,0,0,0-.95.291.987.987,0,0,0-.344.8h-2.4a2.41,2.41,0,0,1,.481-1.444A3.182,3.182,0,0,1,291.59,9.23a4.961,4.961,0,0,1,1.976-.378,3.92,3.92,0,0,1,2.635.834,2.918,2.918,0,0,1,.975,2.345v3.893a4.294,4.294,0,0,0,.357,1.934V18Zm-1.984-1.668a2.066,2.066,0,0,0,.979-.237,1.554,1.554,0,0,0,.664-.635V13.916h-.9q-1.8,0-1.917,1.245l-.008.141a.96.96,0,0,0,.315.739A1.225,1.225,0,0,0,293.125,16.332Z" transform="translate(8108 -7373)" fill="#12263f"/>
    <path id="Trazado_998480" data-name="Trazado 998480" d="M354.282,302.246H13.965C6.8,302.246,1,294.855,1,285.738V17.508C1,8.391,6.8,1,13.965,1H354.282c7.16,0,12.965,7.391,12.965,16.508V285.738c0,9.117-5.8,16.508-12.965,16.508" transform="translate(8074.753 -7326.189)" fill="#fff"/>
    <rect id="Rectángulo_455349" data-name="Rectángulo 455349" width="366.247" height="301.246" rx="14.752" transform="translate(8075.753 -7325.189)" fill="none" stroke="#fc9d83" stroke-miterlimit="10" stroke-width="2"/>
    <line id="Línea_3282" data-name="Línea 3282" x2="366.747" transform="translate(8075.753 -7280.992)" fill="none" stroke="#fc9d83" stroke-miterlimit="10" stroke-width="2"/>
    <circle id="Elipse_13691" data-name="Elipse 13691" cx="4.947" cy="4.947" r="4.947" transform="matrix(0.863, -0.505, 0.505, 0.863, 8090.661, -7305.344)" fill="#f5f5f5" stroke="#cbcbcb" stroke-miterlimit="10" stroke-width="1.5"/>
    <circle id="Elipse_13692" data-name="Elipse 13692" cx="4.947" cy="4.947" r="4.947" transform="translate(8113.668 -7305.004) rotate(-33.185)" fill="#f5f5f5" stroke="#cbcbcb" stroke-miterlimit="10" stroke-width="1.5"/>
    <circle id="Elipse_13693" data-name="Elipse 13693" cx="4.947" cy="4.947" r="4.947" transform="translate(8136.878 -7305.5) rotate(-28.997)" fill="#f5f5f5" stroke="#cbcbcb" stroke-miterlimit="10" stroke-width="1.5"/>
    <line id="Línea_3283" data-name="Línea 3283" x2="21.948" transform="translate(8334.738 -7264.252)" fill="none" stroke="#cbcbcb" stroke-miterlimit="10" stroke-width="1.5"/>
    <line id="Línea_3284" data-name="Línea 3284" x2="21.948" transform="translate(8367.316 -7264.252)" fill="none" stroke="#cbcbcb" stroke-miterlimit="10" stroke-width="1.5"/>
    <g id="Grupo_1190568" data-name="Grupo 1190568" transform="translate(8397.166 -7270.197)" opacity="0.75">
      <g id="Grupo_1190479" data-name="Grupo 1190479">
        <g id="Grupo_1190478" data-name="Grupo 1190478" clip-path="url(#clip-path)">
          <rect id="Rectángulo_455295" data-name="Rectángulo 455295" width="2.952" height="2.952" transform="translate(0 0)" fill="#e2e2e2"/>
        </g>
      </g>
    </g>
    <g id="Grupo_1190569" data-name="Grupo 1190569" transform="translate(8401.287 -7270.197)" opacity="0.75">
      <g id="Grupo_1190482" data-name="Grupo 1190482">
        <g id="Grupo_1190481" data-name="Grupo 1190481" clip-path="url(#clip-path)">
          <rect id="Rectángulo_455297" data-name="Rectángulo 455297" width="2.952" height="2.952" transform="translate(0 0)" fill="#e2e2e2"/>
        </g>
      </g>
    </g>
    <g id="Grupo_1190570" data-name="Grupo 1190570" transform="translate(8405.406 -7270.197)" opacity="0.75">
      <g id="Grupo_1190485" data-name="Grupo 1190485">
        <g id="Grupo_1190484" data-name="Grupo 1190484" clip-path="url(#clip-path)">
          <rect id="Rectángulo_455299" data-name="Rectángulo 455299" width="2.952" height="2.952" transform="translate(0 0)" fill="#e2e2e2"/>
        </g>
      </g>
    </g>
    <g id="Grupo_1190571" data-name="Grupo 1190571" transform="translate(8397.166 -7265.729)" opacity="0.75">
      <g id="Grupo_1190488" data-name="Grupo 1190488">
        <g id="Grupo_1190487" data-name="Grupo 1190487" clip-path="url(#clip-path)">
          <rect id="Rectángulo_455301" data-name="Rectángulo 455301" width="2.952" height="2.952" transform="translate(0 0)" fill="#e2e2e2"/>
        </g>
      </g>
    </g>
    <g id="Grupo_1190572" data-name="Grupo 1190572" transform="translate(8401.287 -7265.729)" opacity="0.75">
      <g id="Grupo_1190491" data-name="Grupo 1190491">
        <g id="Grupo_1190490" data-name="Grupo 1190490" clip-path="url(#clip-path)">
          <rect id="Rectángulo_455303" data-name="Rectángulo 455303" width="2.952" height="2.952" transform="translate(0 0)" fill="#e2e2e2"/>
        </g>
      </g>
    </g>
    <g id="Grupo_1190573" data-name="Grupo 1190573" transform="translate(8405.406 -7265.729)" opacity="0.75">
      <g id="Grupo_1190494" data-name="Grupo 1190494">
        <g id="Grupo_1190493" data-name="Grupo 1190493" clip-path="url(#clip-path)">
          <rect id="Rectángulo_455305" data-name="Rectángulo 455305" width="2.952" height="2.952" transform="translate(0 0)" fill="#e2e2e2"/>
        </g>
      </g>
    </g>
    <g id="Grupo_1190574" data-name="Grupo 1190574" transform="translate(8397.166 -7261.259)" opacity="0.75">
      <g id="Grupo_1190497" data-name="Grupo 1190497">
        <g id="Grupo_1190496" data-name="Grupo 1190496" clip-path="url(#clip-path)">
          <rect id="Rectángulo_455307" data-name="Rectángulo 455307" width="2.952" height="2.952" fill="#e2e2e2"/>
        </g>
      </g>
    </g>
    <g id="Grupo_1190575" data-name="Grupo 1190575" transform="translate(8401.287 -7261.259)" opacity="0.75">
      <g id="Grupo_1190500" data-name="Grupo 1190500">
        <g id="Grupo_1190499" data-name="Grupo 1190499" clip-path="url(#clip-path)">
          <rect id="Rectángulo_455309" data-name="Rectángulo 455309" width="2.952" height="2.952" fill="#e2e2e2"/>
        </g>
      </g>
    </g>
    <g id="Grupo_1190576" data-name="Grupo 1190576" transform="translate(8405.406 -7261.259)" opacity="0.75">
      <g id="Grupo_1190503" data-name="Grupo 1190503">
        <g id="Grupo_1190502" data-name="Grupo 1190502" clip-path="url(#clip-path)">
          <rect id="Rectángulo_455311" data-name="Rectángulo 455311" width="2.952" height="2.952" transform="translate(0)" fill="#e2e2e2"/>
        </g>
      </g>
    </g>
    <g id="Grupo_1190577" data-name="Grupo 1190577" transform="translate(8413.074 -7271.737)" opacity="0.75">
      <g id="Grupo_1190506" data-name="Grupo 1190506">
        <g id="Grupo_1190505" data-name="Grupo 1190505" clip-path="url(#clip-path-10)">
          <path id="Trazado_998311" data-name="Trazado 998311" d="M411.254,49.546a7.485,7.485,0,1,1-7.485-7.485,7.485,7.485,0,0,1,7.485,7.485" transform="translate(-396.284 -42.061)" fill="#e2e2e2"/>
        </g>
      </g>
    </g>
    <g id="Grupo_1190564" data-name="Grupo 1190564" transform="translate(8088.226 -7248.397)">
      <g id="Rectángulo_455317" data-name="Rectángulo 455317" transform="translate(0 0.024)" fill="#fff" stroke="#bbb" stroke-width="2">
        <rect width="339.643" height="42" rx="21" stroke="none"/>
        <rect x="1" y="1" width="337.643" height="40" rx="20" fill="none"/>
      </g>
      <g id="Grupo_1190512" data-name="Grupo 1190512" transform="translate(293.173 0)">
        <path id="Trazado_998306" data-name="Trazado 998306" d="M333.76,100.582H305.9v41.542H333.76a20.771,20.771,0,1,0,0-41.542" transform="translate(-305.903 -100.582)" fill="#bbb"/>
        <path id="Trazado_998307" data-name="Trazado 998307" d="M336.444,129.831l-6.876-6.876a10.861,10.861,0,1,0-3.67,3.113l7.155,7.156a2.4,2.4,0,0,0,3.391-3.392M328.672,116.5a7.753,7.753,0,1,1-7.751-7.752,7.76,7.76,0,0,1,7.751,7.752" transform="translate(-302.518 -99.039)" fill="#fff"/>
      </g>
    </g>
    <path id="Trazado_999237" data-name="Trazado 999237" d="M1.029,13.086a12.739,12.739,0,0,1,.506-3.619A9.551,9.551,0,0,1,3.03,6.425,5.579,5.579,0,0,1,5.171,4.586l.465,1.295A5.778,5.778,0,0,0,3.744,8.653a12.837,12.837,0,0,0-.681,4.383v.257a13.082,13.082,0,0,0,.672,4.4,5.89,5.89,0,0,0,1.9,2.814l-.465,1.27a5.581,5.581,0,0,1-2.1-1.789,9.391,9.391,0,0,1-1.49-2.959,12.663,12.663,0,0,1-.548-3.5ZM9.421,18H7.014V5.25H9.421Zm6.109.166a4.409,4.409,0,0,1-3.217-1.212,4.308,4.308,0,0,1-1.241-3.229v-.232a5.426,5.426,0,0,1,.523-2.42,3.838,3.838,0,0,1,1.482-1.644,4.159,4.159,0,0,1,2.187-.577,3.727,3.727,0,0,1,2.9,1.162,4.722,4.722,0,0,1,1.058,3.3v.979H13.505a2.229,2.229,0,0,0,.7,1.411,2.12,2.12,0,0,0,1.482.531,2.589,2.589,0,0,0,2.167-1l1.179,1.32a3.6,3.6,0,0,1-1.461,1.191A4.793,4.793,0,0,1,15.531,18.166Zm-.274-7.379a1.5,1.5,0,0,0-1.158.484,2.5,2.5,0,0,0-.569,1.384h3.337v-.192a1.786,1.786,0,0,0-.432-1.238A1.547,1.547,0,0,0,15.257,10.787ZM23.939,14.6,25.6,9.019h2.573L24.562,19.395l-.2.473a2.738,2.738,0,0,1-2.656,1.76,3.775,3.775,0,0,1-1.062-.158V19.652l.365.008a1.973,1.973,0,0,0,1.017-.208,1.363,1.363,0,0,0,.527-.689l.282-.739L19.689,9.019h2.582Zm19.5-2.374a7.3,7.3,0,0,1-.631,3.129A4.751,4.751,0,0,1,41,17.436a5.335,5.335,0,0,1-5.375.008A4.8,4.8,0,0,1,33.8,15.381a7.087,7.087,0,0,1-.656-3.084v-.6a7.258,7.258,0,0,1,.643-3.142,4.79,4.79,0,0,1,1.818-2.083,5.327,5.327,0,0,1,5.371,0,4.79,4.79,0,0,1,1.818,2.083,7.237,7.237,0,0,1,.643,3.134Zm-2.523-.548a5.086,5.086,0,0,0-.681-2.889,2.4,2.4,0,0,0-3.876-.012,5.028,5.028,0,0,0-.689,2.86v.589a5.15,5.15,0,0,0,.681,2.872,2.383,2.383,0,0,0,3.885.037,5.12,5.12,0,0,0,.681-2.868Zm8.807,1.893H47.738V18h-2.49V5.914h4.491a5.076,5.076,0,0,1,3.3.955,3.3,3.3,0,0,1,1.162,2.7,3.718,3.718,0,0,1-.535,2.063,3.651,3.651,0,0,1-1.623,1.316l2.615,4.939V18H51.988Zm-1.984-2.017h2.009a2.057,2.057,0,0,0,1.453-.477,1.706,1.706,0,0,0,.515-1.316,1.826,1.826,0,0,0-.486-1.345,2.018,2.018,0,0,0-1.49-.49h-2ZM59.8,13.443a5.413,5.413,0,0,1,.942-3.345,3.057,3.057,0,0,1,2.577-1.245,2.751,2.751,0,0,1,2.167.979V5.25h2.407V18H65.726l-.116-.955A2.823,2.823,0,0,1,63.3,18.166a3.049,3.049,0,0,1-2.544-1.249A5.587,5.587,0,0,1,59.8,13.443Zm2.4.179a3.546,3.546,0,0,0,.44,1.937,1.433,1.433,0,0,0,1.278.673,1.605,1.605,0,0,0,1.569-.939v-3.55a1.582,1.582,0,0,0-1.552-.939Q62.2,10.8,62.2,13.621Zm11.688,4.545a4.409,4.409,0,0,1-3.217-1.212,4.308,4.308,0,0,1-1.241-3.229v-.232a5.426,5.426,0,0,1,.523-2.42,3.838,3.838,0,0,1,1.482-1.644,4.159,4.159,0,0,1,2.187-.577,3.727,3.727,0,0,1,2.9,1.162,4.722,4.722,0,0,1,1.058,3.3v.979H71.86a2.229,2.229,0,0,0,.7,1.411,2.12,2.12,0,0,0,1.482.531,2.589,2.589,0,0,0,2.167-1l1.179,1.32a3.6,3.6,0,0,1-1.461,1.191A4.793,4.793,0,0,1,73.885,18.166Zm-.274-7.379a1.5,1.5,0,0,0-1.158.484,2.5,2.5,0,0,0-.569,1.384h3.337v-.192a1.786,1.786,0,0,0-.432-1.238A1.547,1.547,0,0,0,73.611,10.787Zm10.376.481a6.517,6.517,0,0,0-.863-.066,1.757,1.757,0,0,0-1.785.921V18h-2.4V9.019h2.266l.066,1.071a2.223,2.223,0,0,1,2-1.237,2.514,2.514,0,0,1,.747.108Zm5.288,6.9a4.409,4.409,0,0,1-3.217-1.212,4.308,4.308,0,0,1-1.241-3.229v-.232a5.426,5.426,0,0,1,.523-2.42,3.838,3.838,0,0,1,1.482-1.644,4.159,4.159,0,0,1,2.187-.577,3.727,3.727,0,0,1,2.9,1.162,4.722,4.722,0,0,1,1.058,3.3v.979H87.25a2.229,2.229,0,0,0,.7,1.411,2.12,2.12,0,0,0,1.482.531,2.589,2.589,0,0,0,2.167-1l1.179,1.32a3.6,3.6,0,0,1-1.461,1.191A4.793,4.793,0,0,1,89.275,18.166ZM89,10.787a1.5,1.5,0,0,0-1.158.484,2.5,2.5,0,0,0-.569,1.384h3.337v-.192a1.786,1.786,0,0,0-.432-1.238A1.547,1.547,0,0,0,89,10.787Zm9.064,5.445a1.573,1.573,0,0,0,1.079-.365,1.28,1.28,0,0,0,.432-.971h2.25a3.077,3.077,0,0,1-.5,1.673,3.286,3.286,0,0,1-1.341,1.179,4.2,4.2,0,0,1-1.88.419,3.9,3.9,0,0,1-3.038-1.224,4.845,4.845,0,0,1-1.112-3.383V13.4a4.79,4.79,0,0,1,1.1-3.312,3.854,3.854,0,0,1,3.03-1.237,3.778,3.778,0,0,1,2.7.959,3.4,3.4,0,0,1,1.033,2.552h-2.25a1.648,1.648,0,0,0-.432-1.139,1.6,1.6,0,0,0-2.362.173,3.541,3.541,0,0,0-.427,1.983v.249a3.586,3.586,0,0,0,.423,2A1.463,1.463,0,0,0,98.065,16.232ZM105.536,10a2.994,2.994,0,0,1,2.4-1.146q2.922,0,2.963,3.4V18h-2.4V12.314a1.669,1.669,0,0,0-.332-1.141,1.423,1.423,0,0,0-1.1-.369,1.633,1.633,0,0,0-1.527.813V18h-2.4V5.25h2.4Zm6.8,3.428a5.326,5.326,0,0,1,.515-2.382,3.768,3.768,0,0,1,1.482-1.619,4.323,4.323,0,0,1,2.245-.573,4.09,4.09,0,0,1,2.968,1.112,4.464,4.464,0,0,1,1.282,3.021l.017.614a4.694,4.694,0,0,1-1.154,3.316,4.472,4.472,0,0,1-6.2,0,4.777,4.777,0,0,1-1.158-3.387Zm2.4.17a3.357,3.357,0,0,0,.481,1.958,1.73,1.73,0,0,0,2.739.008,3.674,3.674,0,0,0,.49-2.141,3.324,3.324,0,0,0-.49-1.945,1.592,1.592,0,0,0-1.378-.69,1.566,1.566,0,0,0-1.361.686A3.736,3.736,0,0,0,114.733,13.6Zm11.721-.32a12.088,12.088,0,0,1-.54,3.611,9.8,9.8,0,0,1-1.552,3.063,5.593,5.593,0,0,1-2.167,1.826l-.465-1.27a5.837,5.837,0,0,0,1.859-2.739,12.685,12.685,0,0,0,.706-4.258v-.44a12.971,12.971,0,0,0-.677-4.375,6.084,6.084,0,0,0-1.888-2.839l.465-1.27a5.594,5.594,0,0,1,2.129,1.776,9.675,9.675,0,0,1,1.552,3,12,12,0,0,1,.577,3.544Z" transform="translate(8111.16 -7238.886)" fill="#674a11"/>
    <path id="Trazado_999238" data-name="Trazado 999238" d="M45.3,14.656H41.191L40.41,17H37.918L42.152,5.625h2.172L48.582,17H46.09Zm-3.477-1.9h2.844L43.238,8.5Zm7.344-.047a4.954,4.954,0,0,1,.926-3.133,3,3,0,0,1,2.5-1.187,2.631,2.631,0,0,1,2.164.953l.094-.8h2.047v8.172a3.613,3.613,0,0,1-.5,1.93,3.236,3.236,0,0,1-1.418,1.25,4.985,4.985,0,0,1-2.141.43,4.635,4.635,0,0,1-1.812-.371A3.217,3.217,0,0,1,49.684,19l1-1.375a2.645,2.645,0,0,0,2.047.945,1.936,1.936,0,0,0,1.4-.48,1.8,1.8,0,0,0,.5-1.363v-.453a2.612,2.612,0,0,1-2.055.883,2.992,2.992,0,0,1-2.465-1.191,4.953,4.953,0,0,1-.941-3.16Zm2.258.168a3.085,3.085,0,0,0,.461,1.8,1.466,1.466,0,0,0,1.266.653,1.568,1.568,0,0,0,1.477-.775V11a1.564,1.564,0,0,0-1.461-.775,1.476,1.476,0,0,0-1.277.665A3.477,3.477,0,0,0,51.426,12.879Zm11.953-2.215a6.134,6.134,0,0,0-.812-.062,1.654,1.654,0,0,0-1.68.867V17H58.629V8.547h2.133l.063,1.008a2.092,2.092,0,0,1,1.883-1.164,2.366,2.366,0,0,1,.7.1Zm6.148,5.477a2.831,2.831,0,0,1-2.312,1.016,2.67,2.67,0,0,1-2.074-.781,3.335,3.335,0,0,1-.73-2.289V8.547h2.258v5.467q0,1.322,1.2,1.322a1.63,1.63,0,0,0,1.578-.8V8.547h2.266V17H69.59Zm11.5-3.289a5.07,5.07,0,0,1-.887,3.129,2.843,2.843,0,0,1-2.395,1.176,2.633,2.633,0,0,1-2.07-.891V20.25H73.418V8.547h2.094l.078.828a2.654,2.654,0,0,1,2.141-.984,2.862,2.862,0,0,1,2.43,1.156,5.207,5.207,0,0,1,.867,3.188Zm-2.258-.164a3.327,3.327,0,0,0-.418-1.82,1.361,1.361,0,0,0-1.215-.641,1.478,1.478,0,0,0-1.461.813V14.5a1.5,1.5,0,0,0,1.477.836Q78.77,15.336,78.77,12.688ZM87.324,17a2.507,2.507,0,0,1-.227-.758,2.732,2.732,0,0,1-2.133.914,3,3,0,0,1-2.059-.719,2.312,2.312,0,0,1-.816-1.812,2.389,2.389,0,0,1,1-2.062,4.915,4.915,0,0,1,2.879-.727H87v-.484a1.393,1.393,0,0,0-.3-.937,1.183,1.183,0,0,0-.949-.352,1.345,1.345,0,0,0-.895.273.929.929,0,0,0-.324.75H82.277a2.268,2.268,0,0,1,.453-1.359,3,3,0,0,1,1.281-.98,4.669,4.669,0,0,1,1.859-.355,3.689,3.689,0,0,1,2.48.785,2.747,2.747,0,0,1,.918,2.207v3.664a4.041,4.041,0,0,0,.336,1.82V17Zm-1.867-1.57a1.945,1.945,0,0,0,.922-.223,1.462,1.462,0,0,0,.625-.6V13.156H86.16q-1.7,0-1.8,1.172l-.008.133a.9.9,0,0,0,.3.7A1.153,1.153,0,0,0,85.457,15.43Z" transform="translate(8111 -7172.096)" fill="#674a11"/>
    <path id="Trazado_999239" data-name="Trazado 999239" d="M39.238,12.992V17H36.895V5.625h4.438a5.134,5.134,0,0,1,2.254.469,3.454,3.454,0,0,1,1.5,1.332,3.714,3.714,0,0,1,.523,1.965,3.266,3.266,0,0,1-1.145,2.637,4.767,4.767,0,0,1-3.168.965Zm0-1.9h2.094a2.059,2.059,0,0,0,1.418-.437,1.591,1.591,0,0,0,.488-1.25,1.876,1.876,0,0,0-.492-1.352,1.839,1.839,0,0,0-1.359-.531H39.238Zm12.578-.43A6.134,6.134,0,0,0,51,10.6a1.654,1.654,0,0,0-1.68.867V17H47.066V8.547H49.2l.063,1.008a2.092,2.092,0,0,1,1.883-1.164,2.366,2.366,0,0,1,.7.1ZM55.285,17H53.02V8.547h2.266Zm-2.4-10.641a1.112,1.112,0,0,1,.34-.836,1.465,1.465,0,0,1,1.848,0,1.105,1.105,0,0,1,.344.836,1.108,1.108,0,0,1-.348.844,1.448,1.448,0,0,1-1.836,0A1.108,1.108,0,0,1,52.887,6.359ZM56.793,12.7a5.013,5.013,0,0,1,.484-2.242A3.546,3.546,0,0,1,58.672,8.93a4.069,4.069,0,0,1,2.113-.539,3.849,3.849,0,0,1,2.793,1.047,4.2,4.2,0,0,1,1.207,2.844l.016.578a4.418,4.418,0,0,1-1.086,3.121,4.209,4.209,0,0,1-5.832,0,4.5,4.5,0,0,1-1.09-3.187Zm2.258.16A3.16,3.16,0,0,0,59.5,14.7a1.628,1.628,0,0,0,2.578.008,3.457,3.457,0,0,0,.461-2.015,3.128,3.128,0,0,0-.461-1.831,1.5,1.5,0,0,0-1.3-.649,1.474,1.474,0,0,0-1.281.646A3.516,3.516,0,0,0,59.051,12.856Zm11.891-2.192a6.134,6.134,0,0,0-.812-.062,1.654,1.654,0,0,0-1.68.867V17H66.191V8.547h2.133l.063,1.008A2.092,2.092,0,0,1,70.27,8.391a2.366,2.366,0,0,1,.7.1ZM74.41,17H72.145V8.547H74.41Zm-2.4-10.641a1.112,1.112,0,0,1,.34-.836,1.465,1.465,0,0,1,1.848,0,1.105,1.105,0,0,1,.344.836A1.108,1.108,0,0,1,74.2,7.2a1.448,1.448,0,0,1-1.836,0A1.108,1.108,0,0,1,72.012,6.359Zm6.852,8.82H83V17H75.98V15.625l3.977-5.258H76.1V8.547h6.773v1.33ZM89.309,17a2.507,2.507,0,0,1-.227-.758,2.732,2.732,0,0,1-2.133.914,3,3,0,0,1-2.059-.719,2.312,2.312,0,0,1-.816-1.812,2.389,2.389,0,0,1,1-2.062,4.915,4.915,0,0,1,2.879-.727h1.039v-.484a1.393,1.393,0,0,0-.3-.937,1.183,1.183,0,0,0-.949-.352,1.345,1.345,0,0,0-.895.273.929.929,0,0,0-.324.75H84.262a2.268,2.268,0,0,1,.453-1.359A3,3,0,0,1,86,8.746a4.669,4.669,0,0,1,1.859-.355,3.689,3.689,0,0,1,2.48.785,2.747,2.747,0,0,1,.918,2.207v3.664a4.041,4.041,0,0,0,.336,1.82V17Zm-1.867-1.57a1.945,1.945,0,0,0,.922-.223,1.462,1.462,0,0,0,.625-.6V13.156h-.844q-1.7,0-1.8,1.172l-.008.133a.9.9,0,0,0,.3.7A1.153,1.153,0,0,0,87.441,15.43Z" transform="translate(8286.044 -7172.096)" fill="#743320"/>
    <path id="Trazado_999236" data-name="Trazado 999236" d="M7.9,15.51H3.536L2.706,18H.058l4.5-12.086H6.865L11.389,18H8.741ZM4.208,13.493H7.23L5.711,8.969ZM22.346,18h-2.49l-4.848-7.952V18h-2.49V5.914h2.49l4.856,7.969V5.914h2.482Zm2.175,0V5.914h3.719a5.647,5.647,0,0,1,2.851.718,5.007,5.007,0,0,1,1.963,2.042,6.3,6.3,0,0,1,.706,3.009v.556a6.316,6.316,0,0,1-.693,3,4.964,4.964,0,0,1-1.955,2.034,5.69,5.69,0,0,1-2.847.73Zm2.49-10.069V16h1.2a2.7,2.7,0,0,0,2.233-.955,4.314,4.314,0,0,0,.789-2.731v-.639a4.382,4.382,0,0,0-.764-2.793,2.7,2.7,0,0,0-2.233-.95ZM44.849,18a2.664,2.664,0,0,1-.241-.805,2.9,2.9,0,0,1-2.266.971,3.189,3.189,0,0,1-2.187-.764,2.456,2.456,0,0,1-.867-1.926,2.538,2.538,0,0,1,1.058-2.191,5.222,5.222,0,0,1,3.059-.772h1.1V12a1.48,1.48,0,0,0-.32-1,1.257,1.257,0,0,0-1.009-.374,1.429,1.429,0,0,0-.95.291.987.987,0,0,0-.344.8h-2.4a2.41,2.41,0,0,1,.481-1.444A3.182,3.182,0,0,1,41.33,9.23a4.961,4.961,0,0,1,1.976-.378,3.92,3.92,0,0,1,2.635.834,2.918,2.918,0,0,1,.975,2.345v3.893a4.294,4.294,0,0,0,.357,1.934V18Zm-1.984-1.668a2.066,2.066,0,0,0,.979-.237,1.554,1.554,0,0,0,.664-.635V13.916h-.9q-1.8,0-1.917,1.245l-.008.141a.96.96,0,0,0,.315.739A1.225,1.225,0,0,0,42.865,16.332Zm8.143-7.313.075,1a3.156,3.156,0,0,1,2.582-1.17,2.4,2.4,0,0,1,2.382,1.37,3.084,3.084,0,0,1,2.7-1.37,2.679,2.679,0,0,1,2.175.851,3.911,3.911,0,0,1,.714,2.561V18H59.226V12.272a1.71,1.71,0,0,0-.3-1.116,1.324,1.324,0,0,0-1.054-.353,1.5,1.5,0,0,0-1.494,1.029L56.387,18h-2.4V12.281a1.689,1.689,0,0,0-.307-1.129,1.337,1.337,0,0,0-1.046-.349,1.555,1.555,0,0,0-1.478.847V18h-2.4V9.019Zm20.561,4.574a5.439,5.439,0,0,1-.921,3.366,3.052,3.052,0,0,1-2.573,1.208,2.8,2.8,0,0,1-2.333-1.121L65.634,18H63.476V5.25h2.4V9.824a2.732,2.732,0,0,1,2.183-.971,3.077,3.077,0,0,1,2.577,1.208,5.446,5.446,0,0,1,.934,3.4Zm-2.4-.174a3.573,3.573,0,0,0-.432-1.988,1.46,1.46,0,0,0-1.287-.627,1.582,1.582,0,0,0-1.577.938v3.544a1.6,1.6,0,0,0,1.594.946A1.481,1.481,0,0,0,69,15.086,5.909,5.909,0,0,0,69.17,13.418ZM75.579,18H73.171V9.019h2.407ZM73.03,6.694a1.181,1.181,0,0,1,.361-.888,1.556,1.556,0,0,1,1.963,0,1.175,1.175,0,0,1,.365.888,1.178,1.178,0,0,1-.369.9,1.539,1.539,0,0,1-1.951,0A1.178,1.178,0,0,1,73.03,6.694Zm8.658,11.472a4.409,4.409,0,0,1-3.217-1.212,4.308,4.308,0,0,1-1.241-3.229v-.232a5.426,5.426,0,0,1,.523-2.42,3.838,3.838,0,0,1,1.482-1.644,4.159,4.159,0,0,1,2.187-.577,3.727,3.727,0,0,1,2.9,1.162,4.722,4.722,0,0,1,1.058,3.3v.979H79.663a2.229,2.229,0,0,0,.7,1.411,2.12,2.12,0,0,0,1.482.531,2.589,2.589,0,0,0,2.167-1l1.179,1.32a3.6,3.6,0,0,1-1.461,1.191A4.793,4.793,0,0,1,81.688,18.166Zm-.274-7.379a1.5,1.5,0,0,0-1.158.484,2.5,2.5,0,0,0-.569,1.384h3.337v-.192a1.786,1.786,0,0,0-.432-1.238A1.547,1.547,0,0,0,81.414,10.787Zm7.537-1.768.075,1.038a3.136,3.136,0,0,1,2.582-1.2,2.606,2.606,0,0,1,2.125.838,3.912,3.912,0,0,1,.714,2.507V18h-2.4V12.256a1.556,1.556,0,0,0-.332-1.108,1.486,1.486,0,0,0-1.1-.344,1.65,1.65,0,0,0-1.519.863V18h-2.4V9.019ZM99.136,6.811V9.019h1.536v1.76H99.136v4.482a1.07,1.07,0,0,0,.191.714.959.959,0,0,0,.73.216,3.826,3.826,0,0,0,.706-.058V17.95a4.938,4.938,0,0,1-1.453.216,2.29,2.29,0,0,1-2.573-2.548V10.778H95.426V9.019h1.312V6.811ZM107.213,18a2.664,2.664,0,0,1-.241-.805,2.9,2.9,0,0,1-2.266.971,3.189,3.189,0,0,1-2.187-.764,2.456,2.456,0,0,1-.867-1.926,2.538,2.538,0,0,1,1.058-2.191,5.222,5.222,0,0,1,3.059-.772h1.1V12a1.48,1.48,0,0,0-.32-1,1.257,1.257,0,0,0-1.009-.374,1.429,1.429,0,0,0-.95.291.987.987,0,0,0-.344.8h-2.4a2.41,2.41,0,0,1,.481-1.444,3.182,3.182,0,0,1,1.361-1.042,4.961,4.961,0,0,1,1.976-.378,3.92,3.92,0,0,1,2.635.834,2.918,2.918,0,0,1,.975,2.345v3.893a4.294,4.294,0,0,0,.357,1.934V18Zm-1.984-1.668a2.066,2.066,0,0,0,.979-.237,1.554,1.554,0,0,0,.664-.635V13.916h-.9q-1.8,0-1.917,1.245l-.008.141a.96.96,0,0,0,.315.739A1.225,1.225,0,0,0,105.229,16.332ZM113.654,18h-2.407V5.25h2.407Z" transform="translate(8253.71 -7238.886)" fill="#743320"/>
    <rect id="Rectángulo_455350" data-name="Rectángulo 455350" width="156.044" height="90.578" rx="10" transform="translate(8095.956 -7140.879)" fill="#ffdc6b"/>
    <rect id="Rectángulo_455351" data-name="Rectángulo 455351" width="156.044" height="90.578" rx="10" transform="translate(8272 -7140.879)" fill="#fc9d83"/>
    <g id="Grupo_1190565" data-name="Grupo 1190565" transform="translate(7461 -11699.681)">
      <path id="Trazado_997960" data-name="Trazado 997960" d="M-9532-10968h15.835" transform="translate(11681.5 -5007.072) rotate(-90)" fill="none" stroke="#674a11" stroke-linecap="round" stroke-width="5"/>
      <path id="Polígono_11" data-name="Polígono 11" d="M7,0l7,12H0Z" transform="translate(706 4501.939)" fill="#674a11"/>
    </g>
    <g id="Grupo_1190566" data-name="Grupo 1190566" transform="translate(7637 -11699.681)">
      <path id="Trazado_997960-2" data-name="Trazado 997960" d="M-9532-10968h15.835" transform="translate(11681.5 -5007.072) rotate(-90)" fill="none" stroke="#743320" stroke-linecap="round" stroke-width="5"/>
      <path id="Polígono_11-2" data-name="Polígono 11" d="M7,0l7,12H0Z" transform="translate(706 4501.939)" fill="#743320"/>
    </g>
    <rect id="Rectángulo_455352" data-name="Rectángulo 455352" width="156.044" height="27.578" rx="7" transform="translate(8095.956 -7141.146)" fill="#674a11"/>
    <rect id="Rectángulo_455353" data-name="Rectángulo 455353" width="156.044" height="27.578" rx="7" transform="translate(8272 -7141.146)" fill="#743320"/>
    <path id="Trazado_999241" data-name="Trazado 999241" d="M44.042,13.211A4.025,4.025,0,0,1,42.686,16.1a4.76,4.76,0,0,1-3.223,1.055,4.28,4.28,0,0,1-3.441-1.473,6.038,6.038,0,0,1-1.254-4.043v-.7a6.819,6.819,0,0,1,.578-2.891A4.332,4.332,0,0,1,37,6.137a5.164,5.164,0,0,1,5.668.387,4.326,4.326,0,0,1,1.391,2.961H41.713a2.376,2.376,0,0,0-.613-1.6,2.271,2.271,0,0,0-1.605-.5,1.991,1.991,0,0,0-1.754.84,4.707,4.707,0,0,0-.6,2.605V11.7a5.038,5.038,0,0,0,.559,2.7,1.954,1.954,0,0,0,1.762.852,2.314,2.314,0,0,0,1.621-.5,2.241,2.241,0,0,0,.613-1.535Zm6.141-2.547a6.134,6.134,0,0,0-.812-.062,1.654,1.654,0,0,0-1.68.867V17H45.432V8.547h2.133l.063,1.008A2.092,2.092,0,0,1,49.51,8.391a2.366,2.366,0,0,1,.7.1Zm4.977,6.492a4.15,4.15,0,0,1-3.027-1.141,4.054,4.054,0,0,1-1.168-3.039v-.219a5.106,5.106,0,0,1,.492-2.277A3.612,3.612,0,0,1,52.85,8.934a3.914,3.914,0,0,1,2.059-.543,3.508,3.508,0,0,1,2.73,1.094,4.444,4.444,0,0,1,1,3.1v.922H53.252a2.1,2.1,0,0,0,.66,1.328,2,2,0,0,0,1.395.5,2.437,2.437,0,0,0,2.039-.945l1.109,1.242a3.389,3.389,0,0,1-1.375,1.121A4.511,4.511,0,0,1,55.159,17.156ZM54.9,10.211a1.411,1.411,0,0,0-1.09.455,2.357,2.357,0,0,0-.535,1.3h3.141v-.181a1.681,1.681,0,0,0-.406-1.165A1.456,1.456,0,0,0,54.9,10.211ZM64.815,17a2.507,2.507,0,0,1-.227-.758,2.732,2.732,0,0,1-2.133.914,3,3,0,0,1-2.059-.719,2.312,2.312,0,0,1-.816-1.812,2.389,2.389,0,0,1,1-2.062,4.915,4.915,0,0,1,2.879-.727h1.039v-.484a1.393,1.393,0,0,0-.3-.937,1.183,1.183,0,0,0-.949-.352,1.345,1.345,0,0,0-.895.273.929.929,0,0,0-.324.75H59.768a2.268,2.268,0,0,1,.453-1.359,3,3,0,0,1,1.281-.98,4.669,4.669,0,0,1,1.859-.355,3.689,3.689,0,0,1,2.48.785,2.747,2.747,0,0,1,.918,2.207v3.664a4.041,4.041,0,0,0,.336,1.82V17Zm-1.867-1.57a1.945,1.945,0,0,0,.922-.223,1.462,1.462,0,0,0,.625-.6V13.156h-.844q-1.7,0-1.8,1.172l-.008.133a.9.9,0,0,0,.3.7A1.153,1.153,0,0,0,62.948,15.43Zm10.3-4.766a6.134,6.134,0,0,0-.812-.062,1.654,1.654,0,0,0-1.68.867V17H68.495V8.547h2.133l.063,1.008a2.092,2.092,0,0,1,1.883-1.164,2.366,2.366,0,0,1,.7.1Zm-.094,5.227a1.137,1.137,0,0,1,.363-.875,1.412,1.412,0,0,1,1.828,0,1.137,1.137,0,0,1,.363.875,1.121,1.121,0,0,1-.359.863,1.435,1.435,0,0,1-1.836,0A1.121,1.121,0,0,1,73.151,15.891Zm3.7,0a1.137,1.137,0,0,1,.363-.875,1.412,1.412,0,0,1,1.828,0,1.137,1.137,0,0,1,.363.875,1.121,1.121,0,0,1-.359.863,1.435,1.435,0,0,1-1.836,0A1.121,1.121,0,0,1,76.846,15.891Zm3.625,0a1.137,1.137,0,0,1,.363-.875,1.412,1.412,0,0,1,1.828,0,1.137,1.137,0,0,1,.363.875,1.121,1.121,0,0,1-.359.863,1.435,1.435,0,0,1-1.836,0A1.121,1.121,0,0,1,80.471,15.891Z" transform="translate(8114.956 -7139.146)" fill="#fff"/>
    <path id="Trazado_999240" data-name="Trazado 999240" d="M29.952,14.18,32.53,5.625h2.609L31.178,17H28.733L24.788,5.625h2.6ZM40.6,17a2.507,2.507,0,0,1-.227-.758,2.732,2.732,0,0,1-2.133.914,3,3,0,0,1-2.059-.719,2.312,2.312,0,0,1-.816-1.812,2.389,2.389,0,0,1,1-2.062,4.915,4.915,0,0,1,2.879-.727H40.28v-.484a1.393,1.393,0,0,0-.3-.937,1.183,1.183,0,0,0-.949-.352,1.345,1.345,0,0,0-.895.273.929.929,0,0,0-.324.75H35.553a2.268,2.268,0,0,1,.453-1.359,3,3,0,0,1,1.281-.98,4.669,4.669,0,0,1,1.859-.355,3.689,3.689,0,0,1,2.48.785,2.747,2.747,0,0,1,.918,2.207v3.664a4.041,4.041,0,0,0,.336,1.82V17Zm-1.867-1.57a1.945,1.945,0,0,0,.922-.223,1.462,1.462,0,0,0,.625-.6V13.156h-.844q-1.7,0-1.8,1.172l-.008.133a.9.9,0,0,0,.3.7A1.153,1.153,0,0,0,38.733,15.43Zm10.3-4.766a6.134,6.134,0,0,0-.812-.062,1.654,1.654,0,0,0-1.68.867V17H44.28V8.547h2.133l.063,1.008a2.092,2.092,0,0,1,1.883-1.164,2.366,2.366,0,0,1,.7.1ZM52.5,17H50.233V8.547H52.5ZM50.1,6.359a1.112,1.112,0,0,1,.34-.836,1.465,1.465,0,0,1,1.848,0,1.105,1.105,0,0,1,.344.836,1.108,1.108,0,0,1-.348.844,1.448,1.448,0,0,1-1.836,0A1.108,1.108,0,0,1,50.1,6.359ZM59.256,17a2.507,2.507,0,0,1-.227-.758,2.732,2.732,0,0,1-2.133.914,3,3,0,0,1-2.059-.719,2.312,2.312,0,0,1-.816-1.812,2.389,2.389,0,0,1,1-2.062,4.915,4.915,0,0,1,2.879-.727h1.039v-.484a1.393,1.393,0,0,0-.3-.937,1.183,1.183,0,0,0-.949-.352,1.345,1.345,0,0,0-.895.273.929.929,0,0,0-.324.75H54.209a2.268,2.268,0,0,1,.453-1.359,3,3,0,0,1,1.281-.98A4.669,4.669,0,0,1,57.8,8.391a3.689,3.689,0,0,1,2.48.785,2.747,2.747,0,0,1,.918,2.207v3.664a4.041,4.041,0,0,0,.336,1.82V17Zm-1.867-1.57a1.945,1.945,0,0,0,.922-.223,1.462,1.462,0,0,0,.625-.6V13.156h-.844q-1.7,0-1.8,1.172l-.008.133a.9.9,0,0,0,.3.7A1.153,1.153,0,0,0,57.389,15.43Zm7.625-6.883.07.977a2.951,2.951,0,0,1,2.43-1.133,2.453,2.453,0,0,1,2,.789,3.682,3.682,0,0,1,.672,2.359V17H67.928V11.594a1.465,1.465,0,0,0-.312-1.043,1.4,1.4,0,0,0-1.039-.324,1.553,1.553,0,0,0-1.43.813V17H62.889V8.547ZM74.6,6.469V8.547h1.445V10.2H74.6v4.219a1.007,1.007,0,0,0,.18.672.9.9,0,0,0,.688.2,3.6,3.6,0,0,0,.664-.055v1.711a4.648,4.648,0,0,1-1.367.2,2.156,2.156,0,0,1-2.422-2.4V10.2H71.108V8.547h1.234V6.469Zm6.594,10.688a4.15,4.15,0,0,1-3.027-1.141A4.054,4.054,0,0,1,77,12.977v-.219a5.106,5.106,0,0,1,.492-2.277,3.612,3.612,0,0,1,1.395-1.547,3.914,3.914,0,0,1,2.059-.543,3.508,3.508,0,0,1,2.73,1.094,4.444,4.444,0,0,1,1,3.1v.922H79.288a2.1,2.1,0,0,0,.66,1.328,2,2,0,0,0,1.395.5,2.437,2.437,0,0,0,2.039-.945l1.109,1.242a3.389,3.389,0,0,1-1.375,1.121A4.511,4.511,0,0,1,81.194,17.156Zm-.258-6.945a1.411,1.411,0,0,0-1.09.455,2.357,2.357,0,0,0-.535,1.3h3.141v-.181a1.681,1.681,0,0,0-.406-1.165A1.456,1.456,0,0,0,80.936,10.211Zm9.594,4.453a.727.727,0,0,0-.41-.652,4.659,4.659,0,0,0-1.316-.426q-3.016-.633-3.016-2.562a2.323,2.323,0,0,1,.934-1.879,3.766,3.766,0,0,1,2.441-.754,4.053,4.053,0,0,1,2.574.758,2.388,2.388,0,0,1,.965,1.969H90.444a1.092,1.092,0,0,0-.312-.8A1.322,1.322,0,0,0,89.155,10a1.351,1.351,0,0,0-.883.258.814.814,0,0,0-.312.656.7.7,0,0,0,.355.605,3.657,3.657,0,0,0,1.2.4,9.8,9.8,0,0,1,1.422.379,2.336,2.336,0,0,1,1.789,2.273,2.2,2.2,0,0,1-.992,1.871,4.28,4.28,0,0,1-2.562.715,4.47,4.47,0,0,1-1.887-.379,3.166,3.166,0,0,1-1.293-1.039,2.414,2.414,0,0,1-.469-1.426h2.141a1.179,1.179,0,0,0,.445.922,1.766,1.766,0,0,0,1.109.32,1.635,1.635,0,0,0,.98-.246A.766.766,0,0,0,90.53,14.664Z" transform="translate(8291 -7139.146)" fill="#fff"/>
    <path id="Trazado_999242" data-name="Trazado 999242" d="M19.6,13.211A4.025,4.025,0,0,1,18.249,16.1a4.76,4.76,0,0,1-3.223,1.055,4.28,4.28,0,0,1-3.441-1.473,6.038,6.038,0,0,1-1.254-4.043v-.7a6.819,6.819,0,0,1,.578-2.891,4.332,4.332,0,0,1,1.652-1.918,4.629,4.629,0,0,1,2.5-.668,4.637,4.637,0,0,1,3.172,1.055A4.326,4.326,0,0,1,19.62,9.484H17.276a2.376,2.376,0,0,0-.613-1.6,2.271,2.271,0,0,0-1.605-.5,1.991,1.991,0,0,0-1.754.84,4.707,4.707,0,0,0-.6,2.605V11.7a5.038,5.038,0,0,0,.559,2.7,1.954,1.954,0,0,0,1.762.852,2.314,2.314,0,0,0,1.621-.5,2.241,2.241,0,0,0,.613-1.535Zm6.141-2.547a6.134,6.134,0,0,0-.812-.062,1.654,1.654,0,0,0-1.68.867V17H20.995V8.547h2.133l.063,1.008a2.092,2.092,0,0,1,1.883-1.164,2.366,2.366,0,0,1,.7.1Zm4.977,6.492a4.15,4.15,0,0,1-3.027-1.141,4.054,4.054,0,0,1-1.168-3.039v-.219a5.106,5.106,0,0,1,.492-2.277,3.612,3.612,0,0,1,1.395-1.547,3.914,3.914,0,0,1,2.059-.543A3.508,3.508,0,0,1,33.2,9.484a4.444,4.444,0,0,1,1,3.1v.922H28.815a2.1,2.1,0,0,0,.66,1.328,2,2,0,0,0,1.395.5,2.437,2.437,0,0,0,2.039-.945l1.109,1.242a3.389,3.389,0,0,1-1.375,1.121A4.511,4.511,0,0,1,30.721,17.156Zm-.258-6.945a1.411,1.411,0,0,0-1.09.455,2.357,2.357,0,0,0-.535,1.3h3.141v-.181a1.681,1.681,0,0,0-.406-1.165A1.456,1.456,0,0,0,30.463,10.211ZM40.377,17a2.507,2.507,0,0,1-.227-.758,2.732,2.732,0,0,1-2.133.914,3,3,0,0,1-2.059-.719,2.312,2.312,0,0,1-.816-1.812,2.389,2.389,0,0,1,1-2.062,4.915,4.915,0,0,1,2.879-.727h1.039v-.484a1.393,1.393,0,0,0-.3-.937,1.183,1.183,0,0,0-.949-.352,1.345,1.345,0,0,0-.895.273.929.929,0,0,0-.324.75H35.331a2.268,2.268,0,0,1,.453-1.359,3,3,0,0,1,1.281-.98,4.669,4.669,0,0,1,1.859-.355,3.689,3.689,0,0,1,2.48.785,2.747,2.747,0,0,1,.918,2.207v3.664a4.041,4.041,0,0,0,.336,1.82V17ZM38.51,15.43a1.945,1.945,0,0,0,.922-.223,1.462,1.462,0,0,0,.625-.6V13.156h-.844q-1.7,0-1.8,1.172l-.008.133a.9.9,0,0,0,.3.7A1.153,1.153,0,0,0,38.51,15.43Zm10.3-4.766a6.134,6.134,0,0,0-.812-.062,1.654,1.654,0,0,0-1.68.867V17H44.057V8.547H46.19l.063,1.008a2.092,2.092,0,0,1,1.883-1.164,2.366,2.366,0,0,1,.7.1Zm1.266,8.6-.82-.562a3.77,3.77,0,0,0,.766-2.109v-1.3h1.414v1.133A3.559,3.559,0,0,1,51.045,18,3.7,3.7,0,0,1,50.073,19.266Zm10.539-3.289a2.082,2.082,0,0,0,1.352-.469,1.649,1.649,0,0,0,.641-1.172h1.367a2.621,2.621,0,0,1-.5,1.383,3.293,3.293,0,0,1-1.23,1.047,3.55,3.55,0,0,1-1.629.391A3.482,3.482,0,0,1,57.866,16a4.59,4.59,0,0,1-1.02-3.152v-.242a5.089,5.089,0,0,1,.453-2.2,3.451,3.451,0,0,1,1.3-1.492,3.7,3.7,0,0,1,2-.531,3.39,3.39,0,0,1,2.363.852,3.043,3.043,0,0,1,1,2.211H62.6a1.992,1.992,0,0,0-.621-1.348A1.932,1.932,0,0,0,60.6,9.578a2.023,2.023,0,0,0-1.707.793,3.724,3.724,0,0,0-.605,2.293v.273a3.65,3.65,0,0,0,.6,2.25A2.033,2.033,0,0,0,60.612,15.977Zm9.07-6.133a4.331,4.331,0,0,0-.711-.055A1.9,1.9,0,0,0,67.042,11v6H65.6V8.547H67l.023.977a2.251,2.251,0,0,1,2.016-1.133,1.477,1.477,0,0,1,.641.109Zm4.836,7.313a3.693,3.693,0,0,1-2.8-1.129,4.19,4.19,0,0,1-1.078-3.02v-.266a5.073,5.073,0,0,1,.48-2.246,3.748,3.748,0,0,1,1.344-1.547,3.378,3.378,0,0,1,1.871-.559A3.166,3.166,0,0,1,76.9,9.477a4.7,4.7,0,0,1,.914,3.109v.6H72.088a3,3,0,0,0,.73,2.02,2.3,2.3,0,0,0,1.777.77,2.517,2.517,0,0,0,1.3-.312,3.259,3.259,0,0,0,.93-.828l.883.688A3.55,3.55,0,0,1,74.518,17.156Zm-.18-7.578a1.928,1.928,0,0,0-1.469.637A3.1,3.1,0,0,0,72.135,12H76.37v-.109a2.753,2.753,0,0,0-.594-1.707A1.815,1.815,0,0,0,74.338,9.578ZM84.706,17a3.036,3.036,0,0,1-.2-.891A3.225,3.225,0,0,1,82.1,17.156a2.984,2.984,0,0,1-2.051-.707,2.288,2.288,0,0,1-.8-1.793,2.39,2.39,0,0,1,1-2.051,4.733,4.733,0,0,1,2.824-.73h1.406v-.664A1.623,1.623,0,0,0,84.026,10a1.821,1.821,0,0,0-1.336-.449,2.108,2.108,0,0,0-1.3.391,1.151,1.151,0,0,0-.523.945H79.417a2,2,0,0,1,.449-1.223,3.066,3.066,0,0,1,1.219-.934,4.1,4.1,0,0,1,1.691-.344,3.342,3.342,0,0,1,2.289.73,2.635,2.635,0,0,1,.859,2.012v3.891a4.757,4.757,0,0,0,.3,1.852V17Zm-2.4-1.1a2.54,2.54,0,0,0,1.289-.352,2.127,2.127,0,0,0,.883-.914V12.9H83.346q-2.656,0-2.656,1.555a1.316,1.316,0,0,0,.453,1.063A1.742,1.742,0,0,0,82.307,15.9Zm5.531-3.2a4.952,4.952,0,0,1,.922-3.129,3.137,3.137,0,0,1,4.766-.168V5h1.445V17H93.643l-.07-.906a2.943,2.943,0,0,1-2.414,1.063,2.887,2.887,0,0,1-2.395-1.2,5.008,5.008,0,0,1-.926-3.141Zm1.445.164a3.749,3.749,0,0,0,.594,2.25,1.92,1.92,0,0,0,1.641.813A2.108,2.108,0,0,0,93.526,14.7V10.813a2.125,2.125,0,0,0-1.992-1.2,1.929,1.929,0,0,0-1.656.82A4.128,4.128,0,0,0,89.284,12.867Zm7.547-.172a4.993,4.993,0,0,1,.488-2.234A3.643,3.643,0,0,1,98.678,8.93a3.7,3.7,0,0,1,1.988-.539,3.565,3.565,0,0,1,2.793,1.2,4.6,4.6,0,0,1,1.066,3.18v.1a5.036,5.036,0,0,1-.473,2.215,3.589,3.589,0,0,1-1.352,1.527,3.743,3.743,0,0,1-2.02.547,3.556,3.556,0,0,1-2.785-1.2A4.575,4.575,0,0,1,96.831,12.8Zm1.453.172a3.616,3.616,0,0,0,.652,2.258,2.211,2.211,0,0,0,3.5-.012,3.955,3.955,0,0,0,.648-2.418,3.61,3.61,0,0,0-.66-2.254,2.1,2.1,0,0,0-1.754-.863,2.075,2.075,0,0,0-1.727.852A3.925,3.925,0,0,0,98.284,12.867Zm8.008,6.4-.82-.562a3.77,3.77,0,0,0,.766-2.109v-1.3h1.414v1.133A3.559,3.559,0,0,1,107.264,18,3.7,3.7,0,0,1,106.292,19.266ZM25.377,39.977a2.082,2.082,0,0,0,1.352-.469,1.649,1.649,0,0,0,.641-1.172h1.367a2.621,2.621,0,0,1-.5,1.383,3.293,3.293,0,0,1-1.23,1.047,3.55,3.55,0,0,1-1.629.391A3.482,3.482,0,0,1,22.631,40a4.59,4.59,0,0,1-1.02-3.152v-.242a5.089,5.089,0,0,1,.453-2.2,3.451,3.451,0,0,1,1.3-1.492,3.7,3.7,0,0,1,2-.531,3.39,3.39,0,0,1,2.363.852,3.043,3.043,0,0,1,1,2.211H27.37a1.992,1.992,0,0,0-.621-1.348,1.932,1.932,0,0,0-1.379-.527,2.023,2.023,0,0,0-1.707.793,3.724,3.724,0,0,0-.605,2.293v.273a3.65,3.65,0,0,0,.6,2.25A2.033,2.033,0,0,0,25.377,39.977Zm9.07-6.133a4.331,4.331,0,0,0-.711-.055A1.9,1.9,0,0,0,31.807,35v6H30.362V32.547h1.406l.023.977a2.251,2.251,0,0,1,2.016-1.133,1.477,1.477,0,0,1,.641.109Zm4.836,7.313a3.693,3.693,0,0,1-2.8-1.129,4.19,4.19,0,0,1-1.078-3.02v-.266a5.073,5.073,0,0,1,.48-2.246,3.748,3.748,0,0,1,1.344-1.547,3.378,3.378,0,0,1,1.871-.559,3.166,3.166,0,0,1,2.563,1.086,4.7,4.7,0,0,1,.914,3.109v.6H36.854a3,3,0,0,0,.73,2.02,2.3,2.3,0,0,0,1.777.77,2.517,2.517,0,0,0,1.3-.312,3.258,3.258,0,0,0,.93-.828l.883.688A3.55,3.55,0,0,1,39.284,41.156Zm-.18-7.578a1.928,1.928,0,0,0-1.469.637A3.1,3.1,0,0,0,36.9,36h4.234v-.109a2.753,2.753,0,0,0-.594-1.707A1.815,1.815,0,0,0,39.1,33.578ZM49.471,41a3.036,3.036,0,0,1-.2-.891,3.225,3.225,0,0,1-2.406,1.047,2.984,2.984,0,0,1-2.051-.707,2.287,2.287,0,0,1-.8-1.793,2.39,2.39,0,0,1,1-2.051,4.733,4.733,0,0,1,2.824-.73h1.406v-.664A1.623,1.623,0,0,0,48.792,34a1.821,1.821,0,0,0-1.336-.449,2.107,2.107,0,0,0-1.3.391,1.151,1.151,0,0,0-.523.945H44.182a2,2,0,0,1,.449-1.223,3.066,3.066,0,0,1,1.219-.934,4.1,4.1,0,0,1,1.691-.344,3.342,3.342,0,0,1,2.289.73,2.635,2.635,0,0,1,.859,2.012v3.891a4.757,4.757,0,0,0,.3,1.852V41Zm-2.4-1.1a2.54,2.54,0,0,0,1.289-.352,2.127,2.127,0,0,0,.883-.914V36.9H48.112q-2.656,0-2.656,1.555a1.316,1.316,0,0,0,.453,1.063A1.742,1.742,0,0,0,47.073,39.9Zm9.969-6.055a4.331,4.331,0,0,0-.711-.055A1.9,1.9,0,0,0,54.4,35v6H52.956V32.547h1.406l.023.977A2.251,2.251,0,0,1,56.4,32.391a1.477,1.477,0,0,1,.641.109Zm4.836,7.313a3.693,3.693,0,0,1-2.8-1.129A4.19,4.19,0,0,1,58,37.008v-.266a5.073,5.073,0,0,1,.48-2.246,3.748,3.748,0,0,1,1.344-1.547,3.378,3.378,0,0,1,1.871-.559,3.166,3.166,0,0,1,2.563,1.086,4.7,4.7,0,0,1,.914,3.109v.6H59.448a3,3,0,0,0,.73,2.02,2.3,2.3,0,0,0,1.777.77,2.517,2.517,0,0,0,1.3-.312,3.258,3.258,0,0,0,.93-.828l.883.688A3.55,3.55,0,0,1,61.877,41.156Zm-.18-7.578a1.928,1.928,0,0,0-1.469.637A3.1,3.1,0,0,0,59.495,36h4.234v-.109a2.753,2.753,0,0,0-.594-1.707A1.815,1.815,0,0,0,61.7,33.578Zm6.508-1.031.039.938a3.122,3.122,0,0,1,2.508-1.094,2.417,2.417,0,0,1,2.414,1.359,3.2,3.2,0,0,1,1.1-.984,3.242,3.242,0,0,1,1.6-.375q2.781,0,2.828,2.945V41H77.245V35.422a1.941,1.941,0,0,0-.414-1.355,1.823,1.823,0,0,0-1.391-.449,1.916,1.916,0,0,0-1.336.48,1.949,1.949,0,0,0-.617,1.293V41H72.034V35.461a1.613,1.613,0,0,0-1.8-1.844,1.934,1.934,0,0,0-1.945,1.211V41H66.838V32.547ZM80.487,36.7a4.993,4.993,0,0,1,.488-2.234,3.643,3.643,0,0,1,1.359-1.531,3.7,3.7,0,0,1,1.988-.539,3.565,3.565,0,0,1,2.793,1.2,4.6,4.6,0,0,1,1.066,3.18v.1a5.036,5.036,0,0,1-.473,2.215,3.589,3.589,0,0,1-1.352,1.527,3.743,3.743,0,0,1-2.02.547,3.556,3.556,0,0,1-2.785-1.2A4.575,4.575,0,0,1,80.487,36.8Zm1.453.172a3.616,3.616,0,0,0,.652,2.258,2.211,2.211,0,0,0,3.5-.012,3.955,3.955,0,0,0,.648-2.418,3.61,3.61,0,0,0-.66-2.254,2.1,2.1,0,0,0-1.754-.863,2.075,2.075,0,0,0-1.727.852A3.925,3.925,0,0,0,81.94,36.867Zm12.977,1.891a1.064,1.064,0,0,0-.441-.91,4.249,4.249,0,0,0-1.539-.559,7.277,7.277,0,0,1-1.742-.562,2.479,2.479,0,0,1-.953-.781,1.869,1.869,0,0,1-.309-1.078,2.193,2.193,0,0,1,.879-1.758,3.432,3.432,0,0,1,2.246-.719,3.532,3.532,0,0,1,2.332.742,2.357,2.357,0,0,1,.895,1.9H94.831a1.3,1.3,0,0,0-.5-1.023,1.888,1.888,0,0,0-1.27-.43,1.976,1.976,0,0,0-1.234.344,1.082,1.082,0,0,0-.445.9.877.877,0,0,0,.414.789,5.1,5.1,0,0,0,1.5.508,7.8,7.8,0,0,1,1.754.578,2.558,2.558,0,0,1,1,.809,1.988,1.988,0,0,1,.324,1.152,2.163,2.163,0,0,1-.906,1.816,3.8,3.8,0,0,1-2.352.684,4.257,4.257,0,0,1-1.8-.359,2.922,2.922,0,0,1-1.223-1,2.42,2.42,0,0,1-.441-1.395h1.445a1.5,1.5,0,0,0,.582,1.152,2.258,2.258,0,0,0,1.434.426,2.331,2.331,0,0,0,1.316-.332A1.02,1.02,0,0,0,94.917,38.758Z" transform="translate(8114.956 -7105.146)" fill="#12263f"/>
    <path id="Trazado_999243" data-name="Trazado 999243" d="M4.2,12.992V17H1.858V5.625H6.3a5.134,5.134,0,0,1,2.254.469,3.454,3.454,0,0,1,1.5,1.332,3.714,3.714,0,0,1,.523,1.965,3.266,3.266,0,0,1-1.145,2.637,4.767,4.767,0,0,1-3.168.965Zm0-1.9H6.3a2.059,2.059,0,0,0,1.418-.437A1.591,1.591,0,0,0,8.2,9.406a1.876,1.876,0,0,0-.492-1.352A1.839,1.839,0,0,0,6.35,7.523H4.2ZM16.842,17a2.507,2.507,0,0,1-.227-.758,2.732,2.732,0,0,1-2.133.914,3,3,0,0,1-2.059-.719,2.312,2.312,0,0,1-.816-1.812,2.389,2.389,0,0,1,1-2.062,4.915,4.915,0,0,1,2.879-.727h1.039v-.484a1.393,1.393,0,0,0-.3-.937,1.183,1.183,0,0,0-.949-.352,1.345,1.345,0,0,0-.895.273.929.929,0,0,0-.324.75H11.8a2.268,2.268,0,0,1,.453-1.359,3,3,0,0,1,1.281-.98,4.669,4.669,0,0,1,1.859-.355,3.689,3.689,0,0,1,2.48.785,2.747,2.747,0,0,1,.918,2.207v3.664a4.041,4.041,0,0,0,.336,1.82V17Zm-1.867-1.57a1.945,1.945,0,0,0,.922-.223,1.462,1.462,0,0,0,.625-.6V13.156h-.844q-1.7,0-1.8,1.172l-.008.133a.9.9,0,0,0,.3.7A1.153,1.153,0,0,0,14.975,15.43ZM22.9,17H20.639V5H22.9Zm6.758,0a2.507,2.507,0,0,1-.227-.758,2.732,2.732,0,0,1-2.133.914,3,3,0,0,1-2.059-.719,2.312,2.312,0,0,1-.816-1.812,2.389,2.389,0,0,1,1-2.062,4.915,4.915,0,0,1,2.879-.727h1.039v-.484a1.393,1.393,0,0,0-.3-.937,1.183,1.183,0,0,0-.949-.352,1.345,1.345,0,0,0-.895.273.929.929,0,0,0-.324.75H24.616a2.268,2.268,0,0,1,.453-1.359,3,3,0,0,1,1.281-.98,4.669,4.669,0,0,1,1.859-.355,3.689,3.689,0,0,1,2.48.785,2.747,2.747,0,0,1,.918,2.207v3.664a4.041,4.041,0,0,0,.336,1.82V17ZM27.8,15.43a1.945,1.945,0,0,0,.922-.223,1.462,1.462,0,0,0,.625-.6V13.156H28.5q-1.7,0-1.8,1.172l-.008.133a.9.9,0,0,0,.3.7A1.153,1.153,0,0,0,27.8,15.43Zm13.164-2.578a5.119,5.119,0,0,1-.867,3.168,2.872,2.872,0,0,1-2.422,1.137,2.639,2.639,0,0,1-2.2-1.055l-.1.9H33.342V5H35.6V9.3a2.571,2.571,0,0,1,2.055-.914,2.9,2.9,0,0,1,2.426,1.137,5.126,5.126,0,0,1,.879,3.2ZM38.7,12.688a3.363,3.363,0,0,0-.406-1.871,1.374,1.374,0,0,0-1.211-.59,1.489,1.489,0,0,0-1.484.883v3.336a1.509,1.509,0,0,0,1.5.891,1.394,1.394,0,0,0,1.438-1.078A5.562,5.562,0,0,0,38.7,12.688Zm8.4-2.023a6.134,6.134,0,0,0-.812-.062,1.654,1.654,0,0,0-1.68.867V17H42.35V8.547h2.133l.063,1.008a2.092,2.092,0,0,1,1.883-1.164,2.366,2.366,0,0,1,.7.1ZM52.85,17a2.507,2.507,0,0,1-.227-.758,2.732,2.732,0,0,1-2.133.914,3,3,0,0,1-2.059-.719,2.312,2.312,0,0,1-.816-1.812,2.389,2.389,0,0,1,1-2.062,4.915,4.915,0,0,1,2.879-.727H52.53v-.484a1.393,1.393,0,0,0-.3-.937,1.183,1.183,0,0,0-.949-.352,1.345,1.345,0,0,0-.895.273.929.929,0,0,0-.324.75H47.8a2.268,2.268,0,0,1,.453-1.359,3,3,0,0,1,1.281-.98A4.669,4.669,0,0,1,51.4,8.391a3.689,3.689,0,0,1,2.48.785,2.747,2.747,0,0,1,.918,2.207v3.664a4.041,4.041,0,0,0,.336,1.82V17Zm-1.867-1.57a1.945,1.945,0,0,0,.922-.223,1.462,1.462,0,0,0,.625-.6V13.156h-.844q-1.7,0-1.8,1.172l-.008.133a.9.9,0,0,0,.3.7A1.153,1.153,0,0,0,50.983,15.43Zm5.727,3.836-.82-.562a3.77,3.77,0,0,0,.766-2.109v-1.3h1.414v1.133A3.559,3.559,0,0,1,57.682,18,3.7,3.7,0,0,1,56.709,19.266ZM71,12.867a5.062,5.062,0,0,1-.883,3.109,2.829,2.829,0,0,1-2.391,1.18A3.1,3.1,0,0,1,65.3,16.18v4.07H63.858V8.547h1.32l.07.938A2.977,2.977,0,0,1,67.7,8.391a2.882,2.882,0,0,1,2.41,1.148,5.117,5.117,0,0,1,.887,3.2ZM69.553,12.7a3.735,3.735,0,0,0-.609-2.258,1.963,1.963,0,0,0-1.672-.828A2.125,2.125,0,0,0,65.3,10.781V14.82a2.129,2.129,0,0,0,1.984,1.156,1.954,1.954,0,0,0,1.652-.824A4.077,4.077,0,0,0,69.553,12.7Zm8.5,4.3a3.036,3.036,0,0,1-.2-.891,3.225,3.225,0,0,1-2.406,1.047,2.984,2.984,0,0,1-2.051-.707,2.288,2.288,0,0,1-.8-1.793,2.39,2.39,0,0,1,1-2.051,4.733,4.733,0,0,1,2.824-.73h1.406v-.664A1.623,1.623,0,0,0,77.374,10a1.821,1.821,0,0,0-1.336-.449,2.108,2.108,0,0,0-1.3.391,1.151,1.151,0,0,0-.523.945H72.764a2,2,0,0,1,.449-1.223,3.066,3.066,0,0,1,1.219-.934,4.1,4.1,0,0,1,1.691-.344,3.342,3.342,0,0,1,2.289.73,2.635,2.635,0,0,1,.859,2.012v3.891a4.757,4.757,0,0,0,.3,1.852V17Zm-2.4-1.1a2.54,2.54,0,0,0,1.289-.352,2.127,2.127,0,0,0,.883-.914V12.9H76.694q-2.656,0-2.656,1.555a1.316,1.316,0,0,0,.453,1.063A1.742,1.742,0,0,0,75.655,15.9ZM83.108,17H81.663V5h1.445Zm7.531,0a3.036,3.036,0,0,1-.2-.891,3.225,3.225,0,0,1-2.406,1.047,2.984,2.984,0,0,1-2.051-.707,2.288,2.288,0,0,1-.8-1.793,2.39,2.39,0,0,1,1-2.051,4.733,4.733,0,0,1,2.824-.73h1.406v-.664A1.623,1.623,0,0,0,89.959,10a1.821,1.821,0,0,0-1.336-.449,2.108,2.108,0,0,0-1.3.391,1.151,1.151,0,0,0-.523.945H85.35A2,2,0,0,1,85.8,9.668a3.066,3.066,0,0,1,1.219-.934,4.1,4.1,0,0,1,1.691-.344A3.342,3.342,0,0,1,91,9.121a2.635,2.635,0,0,1,.859,2.012v3.891a4.757,4.757,0,0,0,.3,1.852V17Zm-2.4-1.1a2.54,2.54,0,0,0,1.289-.352,2.127,2.127,0,0,0,.883-.914V12.9H89.28q-2.656,0-2.656,1.555a1.316,1.316,0,0,0,.453,1.063A1.742,1.742,0,0,0,88.241,15.9Zm13.039-3.031a5.026,5.026,0,0,1-.891,3.113A2.846,2.846,0,0,1,98,17.156a2.947,2.947,0,0,1-2.477-1.133l-.07.977H94.124V5h1.445V9.477a2.93,2.93,0,0,1,2.414-1.086A2.863,2.863,0,0,1,100.4,9.555a5.177,5.177,0,0,1,.879,3.188ZM99.834,12.7a3.906,3.906,0,0,0-.57-2.281,1.888,1.888,0,0,0-1.641-.8,2.122,2.122,0,0,0-2.055,1.328V14.6a2.181,2.181,0,0,0,2.07,1.328,1.878,1.878,0,0,0,1.617-.8A4.153,4.153,0,0,0,99.834,12.7Zm7.352-2.859a4.331,4.331,0,0,0-.711-.055A1.9,1.9,0,0,0,104.545,11v6H103.1V8.547h1.406l.023.977a2.251,2.251,0,0,1,2.016-1.133,1.477,1.477,0,0,1,.641.109ZM113.42,17a3.036,3.036,0,0,1-.2-.891,3.225,3.225,0,0,1-2.406,1.047,2.984,2.984,0,0,1-2.051-.707,2.288,2.288,0,0,1-.8-1.793,2.39,2.39,0,0,1,1-2.051,4.733,4.733,0,0,1,2.824-.73h1.406v-.664A1.623,1.623,0,0,0,112.741,10a1.821,1.821,0,0,0-1.336-.449,2.108,2.108,0,0,0-1.3.391,1.151,1.151,0,0,0-.523.945h-1.453a2,2,0,0,1,.449-1.223,3.066,3.066,0,0,1,1.219-.934,4.1,4.1,0,0,1,1.691-.344,3.342,3.342,0,0,1,2.289.73,2.635,2.635,0,0,1,.859,2.012v3.891a4.757,4.757,0,0,0,.3,1.852V17Zm-2.4-1.1a2.54,2.54,0,0,0,1.289-.352,2.127,2.127,0,0,0,.883-.914V12.9h-1.133q-2.656,0-2.656,1.555a1.316,1.316,0,0,0,.453,1.063A1.742,1.742,0,0,0,111.022,15.9Zm10.8-1.141a1.064,1.064,0,0,0-.441-.91,4.249,4.249,0,0,0-1.539-.559,7.277,7.277,0,0,1-1.742-.562,2.479,2.479,0,0,1-.953-.781,1.869,1.869,0,0,1-.309-1.078,2.193,2.193,0,0,1,.879-1.758,3.432,3.432,0,0,1,2.246-.719,3.532,3.532,0,0,1,2.332.742,2.357,2.357,0,0,1,.895,1.9h-1.453a1.3,1.3,0,0,0-.5-1.023,1.888,1.888,0,0,0-1.27-.43,1.976,1.976,0,0,0-1.234.344,1.082,1.082,0,0,0-.445.9.877.877,0,0,0,.414.789,5.1,5.1,0,0,0,1.5.508,7.8,7.8,0,0,1,1.754.578,2.558,2.558,0,0,1,1,.809,1.988,1.988,0,0,1,.324,1.152,2.163,2.163,0,0,1-.906,1.816,3.8,3.8,0,0,1-2.352.684,4.257,4.257,0,0,1-1.8-.359,2.922,2.922,0,0,1-1.223-1,2.42,2.42,0,0,1-.441-1.395H118a1.5,1.5,0,0,0,.582,1.152,2.258,2.258,0,0,0,1.434.426,2.331,2.331,0,0,0,1.316-.332A1.02,1.02,0,0,0,121.827,14.758Zm3.281,4.508-.82-.562a3.77,3.77,0,0,0,.766-2.109v-1.3h1.414v1.133A3.559,3.559,0,0,1,126.081,18,3.7,3.7,0,0,1,125.108,19.266ZM36.9,36.867a5.062,5.062,0,0,1-.883,3.109,2.829,2.829,0,0,1-2.391,1.18A3.1,3.1,0,0,1,31.2,40.18v4.07H29.756v-11.7h1.32l.07.938A2.977,2.977,0,0,1,33.6,32.391a2.882,2.882,0,0,1,2.41,1.148,5.117,5.117,0,0,1,.887,3.2ZM35.452,36.7a3.735,3.735,0,0,0-.609-2.258,1.963,1.963,0,0,0-1.672-.828A2.125,2.125,0,0,0,31.2,34.781V38.82a2.129,2.129,0,0,0,1.984,1.156,1.954,1.954,0,0,0,1.652-.824A4.077,4.077,0,0,0,35.452,36.7Zm8.5,4.3a3.036,3.036,0,0,1-.2-.891,3.225,3.225,0,0,1-2.406,1.047,2.984,2.984,0,0,1-2.051-.707,2.287,2.287,0,0,1-.8-1.793,2.39,2.39,0,0,1,1-2.051,4.733,4.733,0,0,1,2.824-.73h1.406v-.664A1.623,1.623,0,0,0,43.272,34a1.821,1.821,0,0,0-1.336-.449,2.107,2.107,0,0,0-1.3.391,1.151,1.151,0,0,0-.523.945H38.663a2,2,0,0,1,.449-1.223,3.066,3.066,0,0,1,1.219-.934,4.1,4.1,0,0,1,1.691-.344,3.342,3.342,0,0,1,2.289.73,2.635,2.635,0,0,1,.859,2.012v3.891a4.757,4.757,0,0,0,.3,1.852V41Zm-2.4-1.1a2.54,2.54,0,0,0,1.289-.352,2.127,2.127,0,0,0,.883-.914V36.9H42.592q-2.656,0-2.656,1.555a1.316,1.316,0,0,0,.453,1.063A1.742,1.742,0,0,0,41.553,39.9ZM49.006,41H47.561V29h1.445Zm7.531,0a3.036,3.036,0,0,1-.2-.891,3.225,3.225,0,0,1-2.406,1.047,2.984,2.984,0,0,1-2.051-.707,2.287,2.287,0,0,1-.8-1.793,2.39,2.39,0,0,1,1-2.051,4.733,4.733,0,0,1,2.824-.73h1.406v-.664A1.623,1.623,0,0,0,55.858,34a1.821,1.821,0,0,0-1.336-.449,2.107,2.107,0,0,0-1.3.391,1.151,1.151,0,0,0-.523.945H51.249a2,2,0,0,1,.449-1.223,3.066,3.066,0,0,1,1.219-.934,4.1,4.1,0,0,1,1.691-.344,3.342,3.342,0,0,1,2.289.73,2.635,2.635,0,0,1,.859,2.012v3.891a4.757,4.757,0,0,0,.3,1.852V41Zm-2.4-1.1a2.54,2.54,0,0,0,1.289-.352,2.127,2.127,0,0,0,.883-.914V36.9H55.178q-2.656,0-2.656,1.555a1.316,1.316,0,0,0,.453,1.063A1.742,1.742,0,0,0,54.139,39.9Zm13.039-3.031a5.026,5.026,0,0,1-.891,3.113A2.846,2.846,0,0,1,63.9,41.156a2.947,2.947,0,0,1-2.477-1.133L61.35,41H60.022V29h1.445v4.477a2.93,2.93,0,0,1,2.414-1.086A2.863,2.863,0,0,1,66.3,33.555a5.177,5.177,0,0,1,.879,3.188ZM65.733,36.7a3.906,3.906,0,0,0-.57-2.281,1.888,1.888,0,0,0-1.641-.8,2.122,2.122,0,0,0-2.055,1.328V38.6a2.181,2.181,0,0,0,2.07,1.328,1.878,1.878,0,0,0,1.617-.8A4.153,4.153,0,0,0,65.733,36.7Zm7.352-2.859a4.331,4.331,0,0,0-.711-.055A1.9,1.9,0,0,0,70.444,35v6H69V32.547H70.4l.023.977a2.251,2.251,0,0,1,2.016-1.133,1.477,1.477,0,0,1,.641.109ZM75.983,41H74.538V32.547h1.445ZM74.42,30.3a.863.863,0,0,1,.215-.594.807.807,0,0,1,.637-.242.819.819,0,0,1,.641.242.854.854,0,0,1,.219.594.826.826,0,0,1-.219.586.834.834,0,0,1-.641.234.821.821,0,0,1-.637-.234A.834.834,0,0,1,74.42,30.3Zm5.836.2v2.047h1.578v1.117H80.256v5.249a1.173,1.173,0,0,0,.211.763.888.888,0,0,0,.719.254,3.5,3.5,0,0,0,.688-.094V41a4.215,4.215,0,0,1-1.109.155A1.8,1.8,0,0,1,79.3,40.57a2.517,2.517,0,0,1-.492-1.664V33.664H77.272V32.547h1.539V30.5ZM88.741,41a3.036,3.036,0,0,1-.2-.891,3.225,3.225,0,0,1-2.406,1.047,2.984,2.984,0,0,1-2.051-.707,2.288,2.288,0,0,1-.8-1.793,2.39,2.39,0,0,1,1-2.051,4.733,4.733,0,0,1,2.824-.73h1.406v-.664A1.623,1.623,0,0,0,88.061,34a1.821,1.821,0,0,0-1.336-.449,2.107,2.107,0,0,0-1.3.391,1.151,1.151,0,0,0-.523.945H83.452a2,2,0,0,1,.449-1.223,3.066,3.066,0,0,1,1.219-.934,4.1,4.1,0,0,1,1.691-.344,3.342,3.342,0,0,1,2.289.73,2.635,2.635,0,0,1,.859,2.012v3.891a4.757,4.757,0,0,0,.3,1.852V41Zm-2.4-1.1a2.54,2.54,0,0,0,1.289-.352,2.127,2.127,0,0,0,.883-.914V36.9H87.381q-2.656,0-2.656,1.555a1.316,1.316,0,0,0,.453,1.063A1.742,1.742,0,0,0,86.342,39.9Zm10.8-1.141a1.064,1.064,0,0,0-.441-.91,4.249,4.249,0,0,0-1.539-.559,7.277,7.277,0,0,1-1.742-.562,2.479,2.479,0,0,1-.953-.781,1.869,1.869,0,0,1-.309-1.078,2.193,2.193,0,0,1,.879-1.758,3.432,3.432,0,0,1,2.246-.719,3.532,3.532,0,0,1,2.332.742,2.357,2.357,0,0,1,.895,1.9H97.061a1.3,1.3,0,0,0-.5-1.023,1.888,1.888,0,0,0-1.27-.43,1.976,1.976,0,0,0-1.234.344,1.082,1.082,0,0,0-.445.9.877.877,0,0,0,.414.789,5.1,5.1,0,0,0,1.5.508,7.8,7.8,0,0,1,1.754.578,2.558,2.558,0,0,1,1,.809,1.988,1.988,0,0,1,.324,1.152,2.163,2.163,0,0,1-.906,1.816,3.8,3.8,0,0,1-2.352.684,4.257,4.257,0,0,1-1.8-.359,2.922,2.922,0,0,1-1.223-1,2.42,2.42,0,0,1-.441-1.395h1.445a1.5,1.5,0,0,0,.582,1.152,2.258,2.258,0,0,0,1.434.426,2.331,2.331,0,0,0,1.316-.332A1.02,1.02,0,0,0,97.147,38.758Z" transform="translate(8286 -7105.146)" fill="#12263f"/>
    <rect id="Rectángulo_455354" data-name="Rectángulo 455354" width="261" height="18" rx="9" transform="translate(8166 -7313)" fill="#fed2c7"/>
  </g>
</svg>
