<svg xmlns="http://www.w3.org/2000/svg" xmlns:xlink="http://www.w3.org/1999/xlink" width="1020" height="538.58" viewBox="0 0 1020 538.58">
  <defs>
    <linearGradient id="linear-gradient" x1="0.5" x2="0.5" y2="1" gradientUnits="objectBoundingBox">
      <stop offset="0" stop-color="#ffedb1"/>
      <stop offset="1" stop-color="#fecec1"/>
    </linearGradient>
    <clipPath id="clip-path">
      <path id="Trazado_611005" data-name="Trazado 611005" d="M0,0H1020V537.58H0Z" fill="#ffedb1"/>
    </clipPath>
    <clipPath id="clip-path-2">
      <rect id="Rectángulo_455139" data-name="Rectángulo 455139" width="752.582" height="382.385" fill="none"/>
    </clipPath>
    <clipPath id="clip-path-3">
      <rect id="Rectángulo_455145" data-name="Rectángulo 455145" width="89.522" height="89.419" fill="#674a11"/>
    </clipPath>
    <clipPath id="clip-path-4">
      <rect id="Rectángulo_455148" data-name="Rectángulo 455148" width="93.611" height="83.684" fill="#5a5858"/>
    </clipPath>
    <clipPath id="clip-path-5">
      <rect id="Rectángulo_455149" data-name="Rectángulo 455149" width="85.596" height="85.578" fill="#674a11"/>
    </clipPath>
    <clipPath id="clip-path-6">
      <rect id="Rectángulo_455150" data-name="Rectángulo 455150" width="100.162" height="88.987" fill="#5a5858"/>
    </clipPath>
  </defs>
  <g id="Grupo_1190972" data-name="Grupo 1190972" transform="translate(-290 -2628.42)">
    <g id="Grupo_1073695" data-name="Grupo 1073695" transform="translate(290 2628.42)" opacity="0.6">
      <path id="Trazado_608309" data-name="Trazado 608309" d="M0,0H1020V537.58H0Z" fill="url(#linear-gradient)"/>
    </g>
    <rect id="Rectángulo_455138" data-name="Rectángulo 455138" width="348" height="37" rx="18.5" transform="translate(626 2646)" fill="#8dcdc1"/>
    <path id="Trazado_999243" data-name="Trazado 999243" d="M5.528,12.654a5.151,5.151,0,0,1-.257,1.786,3.47,3.47,0,0,1-.917,1.3,9.675,9.675,0,0,0-.9.914,2.384,2.384,0,0,0-.357.607,1.833,1.833,0,0,0-.12.674,1.142,1.142,0,0,0,1.278,1.305,1.381,1.381,0,0,0,1.017-.374,1.464,1.464,0,0,0,.394-1.048h2.4A3.2,3.2,0,0,1,7.047,20.3,3.987,3.987,0,0,1,4.3,21.2a4.081,4.081,0,0,1-2.748-.843,3,3,0,0,1-.979-2.405,3.7,3.7,0,0,1,1.27-2.592l.805-.773a2.129,2.129,0,0,0,.577-.781A3.424,3.424,0,0,0,3.4,12.654Zm.3-2.536a1.189,1.189,0,0,1-.382.91,1.357,1.357,0,0,1-.963.356,1.357,1.357,0,0,1-.963-.356,1.189,1.189,0,0,1-.382-.91,1.208,1.208,0,0,1,.369-.91,1.347,1.347,0,0,1,.975-.356,1.347,1.347,0,0,1,.975.356A1.208,1.208,0,0,1,5.827,10.118Zm13.622,2.113a7.282,7.282,0,0,1-.548,2.943,5.051,5.051,0,0,1-1.519,2l2.009,1.577-1.585,1.4-2.573-2.067a5.447,5.447,0,0,1-.913.075,5.028,5.028,0,0,1-2.681-.722,4.8,4.8,0,0,1-1.826-2.063A7.087,7.087,0,0,1,9.156,12.3v-.6A7.258,7.258,0,0,1,9.8,8.558a4.79,4.79,0,0,1,1.818-2.083A5,5,0,0,1,14.3,5.748a5,5,0,0,1,2.685.726,4.79,4.79,0,0,1,1.818,2.083,7.237,7.237,0,0,1,.643,3.134Zm-2.523-.548a5.086,5.086,0,0,0-.681-2.889A2.218,2.218,0,0,0,14.3,7.807a2.219,2.219,0,0,0-1.934.975,5.028,5.028,0,0,0-.689,2.86v.589A5.15,5.15,0,0,0,12.36,15.1a2.212,2.212,0,0,0,1.959,1.021,2.192,2.192,0,0,0,1.926-.984,5.12,5.12,0,0,0,.681-2.868Zm9.571,5.4a3.008,3.008,0,0,1-2.457,1.079,2.837,2.837,0,0,1-2.2-.83,3.543,3.543,0,0,1-.776-2.432V9.019h2.4v5.809q0,1.4,1.278,1.4a1.732,1.732,0,0,0,1.677-.848V9.019H28.82V18H26.563Zm8.268,1.079a4.409,4.409,0,0,1-3.217-1.212,4.308,4.308,0,0,1-1.241-3.229v-.232a5.426,5.426,0,0,1,.523-2.42,3.838,3.838,0,0,1,1.482-1.644A4.159,4.159,0,0,1,34.5,8.853a3.727,3.727,0,0,1,2.9,1.162,4.722,4.722,0,0,1,1.058,3.3v.979H32.738a2.229,2.229,0,0,0,.7,1.411,2.12,2.12,0,0,0,1.482.531,2.589,2.589,0,0,0,2.167-1l1.179,1.32a3.6,3.6,0,0,1-1.461,1.191A4.793,4.793,0,0,1,34.764,18.166Zm-.274-7.379a1.5,1.5,0,0,0-1.158.484,2.5,2.5,0,0,0-.569,1.384H36.1v-.192a1.786,1.786,0,0,0-.432-1.238A1.547,1.547,0,0,0,34.49,10.787Zm.216-5.537H37.32l-2.3,2.573H33.07ZM46.924,6.811V9.019H48.46v1.76H46.924v4.482a1.07,1.07,0,0,0,.191.714.959.959,0,0,0,.73.216,3.826,3.826,0,0,0,.706-.058V17.95a4.939,4.939,0,0,1-1.453.216,2.29,2.29,0,0,1-2.573-2.548V10.778H43.214V9.019h1.312V6.811ZM52.328,18H49.921V9.019h2.407ZM49.78,6.694a1.181,1.181,0,0,1,.361-.888,1.556,1.556,0,0,1,1.963,0,1.175,1.175,0,0,1,.365.888,1.178,1.178,0,0,1-.369.9,1.539,1.539,0,0,1-1.951,0A1.178,1.178,0,0,1,49.78,6.694Zm12.609,6.9a5.387,5.387,0,0,1-.942,3.324A3.021,3.021,0,0,1,58.9,18.166a2.8,2.8,0,0,1-2.2-.946v4.233H54.3V9.019h2.225l.083.88a2.819,2.819,0,0,1,2.274-1.046,3.041,3.041,0,0,1,2.582,1.229,5.532,5.532,0,0,1,.921,3.387Zm-2.4-.174a3.535,3.535,0,0,0-.444-1.934,1.446,1.446,0,0,0-1.291-.681,1.571,1.571,0,0,0-1.552.863v3.677a1.6,1.6,0,0,0,1.569.888Q59.99,16.232,59.99,13.418Zm3.511.008a5.327,5.327,0,0,1,.515-2.382A3.768,3.768,0,0,1,65.5,9.425a4.323,4.323,0,0,1,2.245-.573A4.09,4.09,0,0,1,70.71,9.965a4.464,4.464,0,0,1,1.282,3.021l.017.614a4.694,4.694,0,0,1-1.154,3.316,4.472,4.472,0,0,1-6.2,0A4.777,4.777,0,0,1,63.5,13.534Zm2.4.17a3.357,3.357,0,0,0,.481,1.958,1.73,1.73,0,0,0,2.739.008,3.674,3.674,0,0,0,.49-2.141,3.324,3.324,0,0,0-.49-1.945,1.592,1.592,0,0,0-1.378-.69,1.566,1.566,0,0,0-1.361.686A3.736,3.736,0,0,0,65.9,13.6Zm11.447-.154a5.413,5.413,0,0,1,.942-3.345,3.057,3.057,0,0,1,2.577-1.245,2.751,2.751,0,0,1,2.167.979V5.25H85.44V18H83.273l-.116-.955a2.823,2.823,0,0,1-2.308,1.121,3.049,3.049,0,0,1-2.544-1.249A5.587,5.587,0,0,1,77.347,13.443Zm2.4.179a3.546,3.546,0,0,0,.44,1.937,1.433,1.433,0,0,0,1.278.673,1.605,1.605,0,0,0,1.569-.939v-3.55A1.582,1.582,0,0,0,81.48,10.8Q79.746,10.8,79.746,13.621Zm11.688,4.545a4.409,4.409,0,0,1-3.217-1.212,4.308,4.308,0,0,1-1.241-3.229v-.232a5.426,5.426,0,0,1,.523-2.42A3.838,3.838,0,0,1,88.98,9.429a4.159,4.159,0,0,1,2.187-.577,3.727,3.727,0,0,1,2.9,1.162,4.722,4.722,0,0,1,1.058,3.3v.979H89.408a2.229,2.229,0,0,0,.7,1.411,2.12,2.12,0,0,0,1.482.531,2.589,2.589,0,0,0,2.167-1l1.179,1.32a3.6,3.6,0,0,1-1.461,1.191A4.793,4.793,0,0,1,91.433,18.166Zm-.274-7.379A1.5,1.5,0,0,0,90,11.27a2.5,2.5,0,0,0-.569,1.384H92.77v-.192a1.786,1.786,0,0,0-.432-1.238A1.547,1.547,0,0,0,91.159,10.787ZM103.253,18h-2.407V9.019h2.407ZM100.705,6.694a1.181,1.181,0,0,1,.361-.888,1.556,1.556,0,0,1,1.963,0,1.175,1.175,0,0,1,.365.888,1.178,1.178,0,0,1-.369.9,1.539,1.539,0,0,1-1.951,0A1.178,1.178,0,0,1,100.705,6.694Zm6.732,2.324.075,1.038a3.136,3.136,0,0,1,2.582-1.2,2.606,2.606,0,0,1,2.125.838,3.912,3.912,0,0,1,.714,2.507V18h-2.4V12.256a1.556,1.556,0,0,0-.332-1.108,1.486,1.486,0,0,0-1.1-.344,1.65,1.65,0,0,0-1.519.863V18h-2.4V9.019ZM115.406,18V10.778h-1.336V9.019h1.336V8.255a3.1,3.1,0,0,1,.867-2.345,3.359,3.359,0,0,1,2.428-.834,5.608,5.608,0,0,1,1.22.166L119.9,7.1a3.058,3.058,0,0,0-.73-.075q-1.353,0-1.353,1.27v.722H119.6v1.76h-1.785V18Zm5.063-4.574a5.326,5.326,0,0,1,.515-2.382,3.768,3.768,0,0,1,1.482-1.619,4.323,4.323,0,0,1,2.245-.573,4.09,4.09,0,0,1,2.968,1.112,4.464,4.464,0,0,1,1.282,3.021l.017.614a4.694,4.694,0,0,1-1.154,3.316,4.472,4.472,0,0,1-6.2,0,4.777,4.777,0,0,1-1.158-3.387Zm2.4.17a3.357,3.357,0,0,0,.481,1.958,1.73,1.73,0,0,0,2.739.008,3.674,3.674,0,0,0,.49-2.141,3.324,3.324,0,0,0-.49-1.945,1.592,1.592,0,0,0-1.378-.69,1.566,1.566,0,0,0-1.361.686A3.736,3.736,0,0,0,122.868,13.6ZM135.5,11.268a6.517,6.517,0,0,0-.863-.066,1.757,1.757,0,0,0-1.785.921V18h-2.4V9.019h2.266l.066,1.071a2.223,2.223,0,0,1,2-1.237,2.514,2.514,0,0,1,.747.108Zm3.4-2.25.075,1a3.156,3.156,0,0,1,2.582-1.17,2.4,2.4,0,0,1,2.382,1.37,3.084,3.084,0,0,1,2.7-1.37,2.679,2.679,0,0,1,2.175.851,3.911,3.911,0,0,1,.714,2.561V18h-2.407V12.272a1.71,1.71,0,0,0-.3-1.116,1.324,1.324,0,0,0-1.054-.353,1.5,1.5,0,0,0-1.494,1.029L144.284,18h-2.4V12.281a1.689,1.689,0,0,0-.307-1.129,1.337,1.337,0,0,0-1.046-.349,1.555,1.555,0,0,0-1.478.847V18h-2.4V9.019ZM156.578,18a2.664,2.664,0,0,1-.241-.805,2.9,2.9,0,0,1-2.266.971,3.189,3.189,0,0,1-2.187-.764,2.456,2.456,0,0,1-.867-1.926,2.538,2.538,0,0,1,1.058-2.191,5.222,5.222,0,0,1,3.059-.772h1.1V12a1.48,1.48,0,0,0-.32-1,1.257,1.257,0,0,0-1.009-.374,1.429,1.429,0,0,0-.95.291.987.987,0,0,0-.344.8h-2.4a2.41,2.41,0,0,1,.481-1.444,3.182,3.182,0,0,1,1.361-1.042,4.961,4.961,0,0,1,1.976-.378,3.92,3.92,0,0,1,2.635.834,2.918,2.918,0,0,1,.975,2.345v3.893A4.294,4.294,0,0,0,159,17.859V18Zm-1.984-1.668a2.066,2.066,0,0,0,.979-.237,1.554,1.554,0,0,0,.664-.635V13.916h-.9q-1.8,0-1.917,1.245l-.008.141a.96.96,0,0,0,.315.739A1.225,1.225,0,0,0,154.594,16.332Zm9.629-.1a1.573,1.573,0,0,0,1.079-.365,1.28,1.28,0,0,0,.432-.971h2.25a3.077,3.077,0,0,1-.5,1.673,3.286,3.286,0,0,1-1.341,1.179,4.2,4.2,0,0,1-1.88.419,3.9,3.9,0,0,1-3.038-1.224,4.845,4.845,0,0,1-1.112-3.383V13.4a4.79,4.79,0,0,1,1.1-3.312,3.854,3.854,0,0,1,3.03-1.237,3.778,3.778,0,0,1,2.7.959,3.4,3.4,0,0,1,1.033,2.552h-2.25a1.648,1.648,0,0,0-.432-1.139,1.6,1.6,0,0,0-2.362.173,3.541,3.541,0,0,0-.427,1.983v.249a3.586,3.586,0,0,0,.423,2A1.463,1.463,0,0,0,164.223,16.232ZM171.884,18h-2.407V9.019h2.407ZM169.336,6.694a1.181,1.181,0,0,1,.361-.888,1.556,1.556,0,0,1,1.963,0,1.175,1.175,0,0,1,.365.888,1.178,1.178,0,0,1-.369.9,1.539,1.539,0,0,1-1.951,0A1.178,1.178,0,0,1,169.336,6.694Zm4.15,6.732A5.327,5.327,0,0,1,174,11.044a3.767,3.767,0,0,1,1.482-1.619,4.323,4.323,0,0,1,2.245-.573A4.09,4.09,0,0,1,180.7,9.965a4.464,4.464,0,0,1,1.282,3.021l.017.614a4.694,4.694,0,0,1-1.154,3.316,4.472,4.472,0,0,1-6.2,0,4.777,4.777,0,0,1-1.158-3.387Zm2.4.17a3.357,3.357,0,0,0,.481,1.958,1.73,1.73,0,0,0,2.739.008,3.674,3.674,0,0,0,.49-2.141,3.324,3.324,0,0,0-.49-1.945,1.592,1.592,0,0,0-1.378-.69,1.566,1.566,0,0,0-1.361.686A3.735,3.735,0,0,0,175.885,13.6ZM178.2,5.25h2.615l-2.3,2.573h-1.951Zm7.479,3.769.075,1.038a3.136,3.136,0,0,1,2.582-1.2,2.606,2.606,0,0,1,2.125.838,3.912,3.912,0,0,1,.714,2.507V18h-2.4V12.256a1.556,1.556,0,0,0-.332-1.108,1.486,1.486,0,0,0-1.1-.344,1.65,1.65,0,0,0-1.519.863V18h-2.4V9.019Zm13.754,0,.075,1.038a3.136,3.136,0,0,1,2.582-1.2,2.606,2.606,0,0,1,2.125.838,3.912,3.912,0,0,1,.714,2.507V18h-2.4V12.256a1.556,1.556,0,0,0-.332-1.108,1.486,1.486,0,0,0-1.1-.344,1.65,1.65,0,0,0-1.519.863V18h-2.4V9.019Zm11.447,9.147a4.409,4.409,0,0,1-3.217-1.212,4.308,4.308,0,0,1-1.241-3.229v-.232a5.426,5.426,0,0,1,.523-2.42,3.838,3.838,0,0,1,1.482-1.644,4.159,4.159,0,0,1,2.187-.577,3.727,3.727,0,0,1,2.9,1.162,4.722,4.722,0,0,1,1.058,3.3v.979h-5.719a2.228,2.228,0,0,0,.7,1.411,2.12,2.12,0,0,0,1.482.531,2.589,2.589,0,0,0,2.167-1l1.179,1.32a3.6,3.6,0,0,1-1.461,1.191A4.793,4.793,0,0,1,210.881,18.166Zm-.274-7.379a1.5,1.5,0,0,0-1.158.484,2.5,2.5,0,0,0-.569,1.384h3.337v-.192a1.786,1.786,0,0,0-.432-1.238A1.547,1.547,0,0,0,210.607,10.787Zm9.064,5.445a1.573,1.573,0,0,0,1.079-.365,1.28,1.28,0,0,0,.432-.971h2.25a3.077,3.077,0,0,1-.5,1.673,3.286,3.286,0,0,1-1.341,1.179,4.2,4.2,0,0,1-1.88.419,3.9,3.9,0,0,1-3.038-1.224,4.845,4.845,0,0,1-1.112-3.383V13.4a4.79,4.79,0,0,1,1.1-3.312,3.854,3.854,0,0,1,3.03-1.237,3.778,3.778,0,0,1,2.7.959,3.4,3.4,0,0,1,1.033,2.552h-2.25a1.648,1.648,0,0,0-.432-1.139,1.6,1.6,0,0,0-2.362.173,3.541,3.541,0,0,0-.427,1.983v.249a3.586,3.586,0,0,0,.423,2A1.463,1.463,0,0,0,219.672,16.232Zm9.264,1.934a4.409,4.409,0,0,1-3.217-1.212,4.308,4.308,0,0,1-1.241-3.229v-.232a5.426,5.426,0,0,1,.523-2.42,3.838,3.838,0,0,1,1.482-1.644,4.159,4.159,0,0,1,2.187-.577,3.727,3.727,0,0,1,2.9,1.162,4.722,4.722,0,0,1,1.058,3.3v.979H226.91a2.228,2.228,0,0,0,.7,1.411,2.12,2.12,0,0,0,1.482.531,2.589,2.589,0,0,0,2.167-1l1.179,1.32a3.6,3.6,0,0,1-1.461,1.191A4.793,4.793,0,0,1,228.936,18.166Zm-.274-7.379a1.5,1.5,0,0,0-1.158.484,2.5,2.5,0,0,0-.569,1.384h3.337v-.192a1.786,1.786,0,0,0-.432-1.238A1.547,1.547,0,0,0,228.662,10.787Zm10.193,4.731a.773.773,0,0,0-.436-.693,4.95,4.95,0,0,0-1.4-.452q-3.2-.672-3.2-2.723a2.468,2.468,0,0,1,.992-2,4,4,0,0,1,2.594-.8,4.307,4.307,0,0,1,2.735.805,2.538,2.538,0,0,1,1.025,2.092h-2.4a1.161,1.161,0,0,0-.332-.851,1.405,1.405,0,0,0-1.038-.336,1.436,1.436,0,0,0-.938.274.865.865,0,0,0-.332.7.739.739,0,0,0,.378.643,3.885,3.885,0,0,0,1.274.423,10.407,10.407,0,0,1,1.511.4,2.482,2.482,0,0,1,1.9,2.416,2.343,2.343,0,0,1-1.054,1.988,4.548,4.548,0,0,1-2.723.76,4.75,4.75,0,0,1-2-.4,3.363,3.363,0,0,1-1.374-1.1,2.565,2.565,0,0,1-.5-1.515h2.274a1.252,1.252,0,0,0,.473.979,1.877,1.877,0,0,0,1.179.34A1.737,1.737,0,0,0,238.5,16.2.814.814,0,0,0,238.855,15.518ZM245.263,18h-2.407V9.019h2.407ZM242.715,6.694a1.181,1.181,0,0,1,.361-.888,1.556,1.556,0,0,1,1.963,0,1.175,1.175,0,0,1,.365.888,1.178,1.178,0,0,1-.369.9,1.539,1.539,0,0,1-1.951,0A1.178,1.178,0,0,1,242.715,6.694Zm7.4.116V9.019h1.536v1.76h-1.536v4.482a1.07,1.07,0,0,0,.191.714.959.959,0,0,0,.73.216,3.826,3.826,0,0,0,.706-.058V17.95a4.939,4.939,0,0,1-1.453.216,2.29,2.29,0,0,1-2.573-2.548V10.778H246.4V9.019h1.312V6.811Zm2.25,6.616a5.327,5.327,0,0,1,.515-2.382,3.767,3.767,0,0,1,1.482-1.619,4.323,4.323,0,0,1,2.245-.573,4.09,4.09,0,0,1,2.968,1.112,4.464,4.464,0,0,1,1.282,3.021l.017.614a4.694,4.694,0,0,1-1.154,3.316,4.472,4.472,0,0,1-6.2,0,4.777,4.777,0,0,1-1.158-3.387Zm2.4.17a3.357,3.357,0,0,0,.481,1.958,1.73,1.73,0,0,0,2.739.008,3.673,3.673,0,0,0,.49-2.141,3.324,3.324,0,0,0-.49-1.945,1.592,1.592,0,0,0-1.378-.69,1.566,1.566,0,0,0-1.361.686A3.735,3.735,0,0,0,254.759,13.6Zm9.546.7a4.994,4.994,0,0,1,.282-1.853,3.8,3.8,0,0,1,1.033-1.358,5.284,5.284,0,0,0,1-1.089,1.709,1.709,0,0,0,.249-.886q0-1.405-1.295-1.405a1.312,1.312,0,0,0-.984.379,1.488,1.488,0,0,0-.386,1.044H261.8a3.2,3.2,0,0,1,1.025-2.484,4.735,4.735,0,0,1,5.483-.046,3.03,3.03,0,0,1,.971,2.405,2.928,2.928,0,0,1-.315,1.334,5.494,5.494,0,0,1-1.1,1.392l-.672.64a2.279,2.279,0,0,0-.722,1.421l-.033.507Zm-.241,2.544a1.208,1.208,0,0,1,.378-.914,1.479,1.479,0,0,1,1.934,0,1.29,1.29,0,0,1,.008,1.816,1.515,1.515,0,0,1-1.951,0A1.2,1.2,0,0,1,264.064,16.842Z" transform="translate(664 2653)" fill="#12263f"/>
    <g id="Grupo_1190351" data-name="Grupo 1190351" transform="translate(424 2735.655)">
      <g id="Grupo_1190350" data-name="Grupo 1190350" clip-path="url(#clip-path-2)">
        <path id="Trazado_998250" data-name="Trazado 998250" d="M501.359,359.638,391.847,250.128a12.308,12.308,0,0,1,0-17.405L501.359,123.21a12.308,12.308,0,0,1,17.405,0l29.961,29.962a20.924,20.924,0,0,0,29.592,0c3.754-3.753,11.855-10.158,9.611-22.656a38.83,38.83,0,0,1,35.605-45.633,38.817,38.817,0,0,1,7.005,77.3,39.264,39.264,0,0,1-9.416-.076c-11.964-1.554-17.86,6.12-22.807,11.067a20.926,20.926,0,0,0,0,29.592l29.961,29.961a12.306,12.306,0,0,1,0,17.405L518.764,359.638a12.306,12.306,0,0,1-17.405,0" transform="translate(87.64 19.142)" fill="#cbcbcb"/>
        <path id="Trazado_998251" data-name="Trazado 998251" d="M509.2,138.02l-93.023,93.025a49,49,0,0,0,1.472,70.753,39.387,39.387,0,1,1-52.773-.5,46.2,46.2,0,0,0,16-34.484c0-13.06-3.718-24.4-13.228-33.915L272.767,138.02a12.31,12.31,0,0,1,0-17.407L382.279,11.1a12.308,12.308,0,0,1,17.405,0L509.2,120.614a12.307,12.307,0,0,1,0,17.407" transform="translate(60.759 1.693)" fill="#ffd54e"/>
        <path id="Trazado_998252" data-name="Trazado 998252" d="M387.415,248l-93.026-93.025a49,49,0,0,1,1.473-70.753,39.387,39.387,0,1,0-52.772.5c10.452,9.258,16,21.173,16,36.464a45.161,45.161,0,0,1-13.228,31.934L150.987,248a12.306,12.306,0,0,0,0,17.405L260.5,374.914a12.306,12.306,0,0,0,17.405,0L387.415,265.4a12.308,12.308,0,0,0,0-17.405" transform="translate(33.269 3.576)" fill="#cbcbcb"/>
        <path id="Trazado_998253" data-name="Trazado 998253" d="M274.84,113.115,165.33,3.6a12.308,12.308,0,0,0-17.405,0L38.413,113.115a12.307,12.307,0,0,0,0,17.407l29.961,29.962a20.922,20.922,0,0,1,0,29.59c-3.753,3.753-10.158,11.857-22.656,9.61A38.83,38.83,0,0,0,.085,235.29a38.817,38.817,0,0,0,77.3,7.005,39.2,39.2,0,0,0-.076-9.416c-1.552-11.962,6.112-17.853,11.067-22.807a20.922,20.922,0,0,1,29.59,0l29.962,29.961a12.306,12.306,0,0,0,17.405,0L274.84,130.521a12.307,12.307,0,0,0,0-17.407" transform="translate(0 0)" fill="#ffd54e"/>
      </g>
    </g>
    <rect id="Rectángulo_455048" data-name="Rectángulo 455048" width="179.045" height="37" rx="18.5" transform="translate(373 3016.705)" fill="#674a11"/>
    <rect id="Rectángulo_455140" data-name="Rectángulo 455140" width="179.045" height="37" rx="18.5" transform="translate(636.478 2714.155)" fill="#5a5858"/>
    <rect id="Rectángulo_455142" data-name="Rectángulo 455142" width="179.045" height="37" rx="18.5" transform="translate(1048.478 2798.655)" fill="#5a5858"/>
    <rect id="Rectángulo_455141" data-name="Rectángulo 455141" width="179.045" height="37" rx="18.5" transform="translate(786 3112.075)" fill="#674a11"/>
    <path id="Trazado_999240" data-name="Trazado 999240" d="M29.444,13.391a4.185,4.185,0,0,1-1.332,2.785,4.365,4.365,0,0,1-2.98.98,4.008,4.008,0,0,1-3.23-1.445,5.815,5.815,0,0,1-1.215-3.867V10.75a6.481,6.481,0,0,1,.566-2.789,4.231,4.231,0,0,1,1.605-1.848,4.47,4.47,0,0,1,2.406-.645A4.11,4.11,0,0,1,28.171,6.48a4.235,4.235,0,0,1,1.273,2.8H27.937a3.268,3.268,0,0,0-.848-1.975A2.565,2.565,0,0,0,25.265,6.7a2.684,2.684,0,0,0-2.254,1.063,4.882,4.882,0,0,0-.816,3.026v1.1a5.018,5.018,0,0,0,.773,2.948,2.5,2.5,0,0,0,2.164,1.095,2.886,2.886,0,0,0,1.918-.566,3.143,3.143,0,0,0,.887-1.973ZM32.835,17H31.39V8.547h1.445ZM31.272,6.3a.863.863,0,0,1,.215-.594.807.807,0,0,1,.637-.242.819.819,0,0,1,.641.242.854.854,0,0,1,.219.594.826.826,0,0,1-.219.586.834.834,0,0,1-.641.234.821.821,0,0,1-.637-.234A.834.834,0,0,1,31.272,6.3ZM35.858,17V9.664H34.522V8.547h1.336V7.68a2.878,2.878,0,0,1,.727-2.1,2.745,2.745,0,0,1,2.055-.742,3.816,3.816,0,0,1,.992.132l-.078,1.165a4.151,4.151,0,0,0-.781-.07,1.41,1.41,0,0,0-1.086.411,1.669,1.669,0,0,0-.383,1.18v.893h1.8V9.664H37.3V17Zm8.93-7.156a4.331,4.331,0,0,0-.711-.055A1.9,1.9,0,0,0,42.147,11v6H40.7V8.547h1.406l.023.977a2.251,2.251,0,0,1,2.016-1.133,1.477,1.477,0,0,1,.641.109ZM51.022,17a3.036,3.036,0,0,1-.2-.891,3.225,3.225,0,0,1-2.406,1.047,2.984,2.984,0,0,1-2.051-.707,2.287,2.287,0,0,1-.8-1.793,2.39,2.39,0,0,1,1-2.051,4.733,4.733,0,0,1,2.824-.73H50.8v-.664A1.623,1.623,0,0,0,50.343,10a1.821,1.821,0,0,0-1.336-.449,2.107,2.107,0,0,0-1.3.391,1.151,1.151,0,0,0-.523.945H45.733a2,2,0,0,1,.449-1.223A3.066,3.066,0,0,1,47.4,8.734a4.1,4.1,0,0,1,1.691-.344,3.342,3.342,0,0,1,2.289.73,2.635,2.635,0,0,1,.859,2.012v3.891a4.757,4.757,0,0,0,.3,1.852V17Zm-2.4-1.1a2.54,2.54,0,0,0,1.289-.352,2.127,2.127,0,0,0,.883-.914V12.9H49.663q-2.656,0-2.656,1.555a1.316,1.316,0,0,0,.453,1.063A1.742,1.742,0,0,0,48.624,15.9Zm10.8-1.141a1.064,1.064,0,0,0-.441-.91,4.249,4.249,0,0,0-1.539-.559,7.277,7.277,0,0,1-1.742-.562,2.479,2.479,0,0,1-.953-.781,1.869,1.869,0,0,1-.309-1.078,2.193,2.193,0,0,1,.879-1.758,3.432,3.432,0,0,1,2.246-.719,3.532,3.532,0,0,1,2.332.742,2.357,2.357,0,0,1,.895,1.9H59.343a1.3,1.3,0,0,0-.5-1.023,1.888,1.888,0,0,0-1.27-.43,1.976,1.976,0,0,0-1.234.344,1.082,1.082,0,0,0-.445.9.877.877,0,0,0,.414.789,5.1,5.1,0,0,0,1.5.508,7.8,7.8,0,0,1,1.754.578,2.558,2.558,0,0,1,1,.809,1.988,1.988,0,0,1,.324,1.152,2.163,2.163,0,0,1-.906,1.816,3.8,3.8,0,0,1-2.352.684,4.257,4.257,0,0,1-1.8-.359,2.922,2.922,0,0,1-1.223-1,2.42,2.42,0,0,1-.441-1.395H55.6a1.5,1.5,0,0,0,.582,1.152,2.258,2.258,0,0,0,1.434.426,2.331,2.331,0,0,0,1.316-.332A1.02,1.02,0,0,0,59.429,14.758Zm10.8,2.4a3.693,3.693,0,0,1-2.8-1.129,4.19,4.19,0,0,1-1.078-3.02v-.266a5.073,5.073,0,0,1,.48-2.246,3.748,3.748,0,0,1,1.344-1.547,3.378,3.378,0,0,1,1.871-.559,3.166,3.166,0,0,1,2.563,1.086,4.7,4.7,0,0,1,.914,3.109v.6H67.8a3,3,0,0,0,.73,2.02,2.3,2.3,0,0,0,1.777.77,2.517,2.517,0,0,0,1.3-.312,3.259,3.259,0,0,0,.93-.828l.883.688A3.55,3.55,0,0,1,70.226,17.156Zm-.18-7.578a1.928,1.928,0,0,0-1.469.637A3.1,3.1,0,0,0,67.843,12h4.234v-.109a2.753,2.753,0,0,0-.594-1.707A1.815,1.815,0,0,0,70.046,9.578Zm7.984,2.055,1.875-3.086h1.688l-2.766,4.18L81.679,17H80.007l-1.953-3.164L76.1,17h-1.68l2.852-4.273-2.766-4.18h1.672ZM88.343,17a3.036,3.036,0,0,1-.2-.891,3.225,3.225,0,0,1-2.406,1.047,2.984,2.984,0,0,1-2.051-.707,2.288,2.288,0,0,1-.8-1.793,2.39,2.39,0,0,1,1-2.051,4.733,4.733,0,0,1,2.824-.73h1.406v-.664A1.623,1.623,0,0,0,87.663,10a1.821,1.821,0,0,0-1.336-.449,2.108,2.108,0,0,0-1.3.391,1.151,1.151,0,0,0-.523.945H83.054A2,2,0,0,1,83.5,9.668a3.066,3.066,0,0,1,1.219-.934,4.1,4.1,0,0,1,1.691-.344,3.342,3.342,0,0,1,2.289.73,2.635,2.635,0,0,1,.859,2.012v3.891a4.757,4.757,0,0,0,.3,1.852V17Zm-2.4-1.1a2.54,2.54,0,0,0,1.289-.352,2.127,2.127,0,0,0,.883-.914V12.9H86.983q-2.656,0-2.656,1.555a1.316,1.316,0,0,0,.453,1.063A1.742,1.742,0,0,0,85.944,15.9Zm9.273.078a2.082,2.082,0,0,0,1.352-.469,1.649,1.649,0,0,0,.641-1.172h1.367a2.621,2.621,0,0,1-.5,1.383,3.293,3.293,0,0,1-1.23,1.047,3.55,3.55,0,0,1-1.629.391A3.482,3.482,0,0,1,92.472,16a4.59,4.59,0,0,1-1.02-3.152v-.242a5.089,5.089,0,0,1,.453-2.2,3.451,3.451,0,0,1,1.3-1.492,3.7,3.7,0,0,1,2-.531,3.39,3.39,0,0,1,2.363.852,3.043,3.043,0,0,1,1,2.211H97.21a1.992,1.992,0,0,0-.621-1.348,1.932,1.932,0,0,0-1.379-.527,2.023,2.023,0,0,0-1.707.793,3.724,3.724,0,0,0-.605,2.293v.273a3.65,3.65,0,0,0,.6,2.25A2.033,2.033,0,0,0,95.218,15.977ZM102.163,6.5V8.547h1.578V9.664h-1.578v5.249a1.173,1.173,0,0,0,.211.763.888.888,0,0,0,.719.254,3.5,3.5,0,0,0,.688-.094V17a4.215,4.215,0,0,1-1.109.155,1.8,1.8,0,0,1-1.461-.586,2.517,2.517,0,0,1-.492-1.664V9.664H99.179V8.547h1.539V6.5ZM110.647,17a3.036,3.036,0,0,1-.2-.891,3.225,3.225,0,0,1-2.406,1.047,2.984,2.984,0,0,1-2.051-.707,2.288,2.288,0,0,1-.8-1.793,2.39,2.39,0,0,1,1-2.051,4.733,4.733,0,0,1,2.824-.73h1.406v-.664A1.623,1.623,0,0,0,109.968,10a1.821,1.821,0,0,0-1.336-.449,2.108,2.108,0,0,0-1.3.391,1.151,1.151,0,0,0-.523.945h-1.453a2,2,0,0,1,.449-1.223,3.066,3.066,0,0,1,1.219-.934,4.1,4.1,0,0,1,1.691-.344,3.342,3.342,0,0,1,2.289.73,2.635,2.635,0,0,1,.859,2.012v3.891a4.757,4.757,0,0,0,.3,1.852V17Zm-2.4-1.1a2.54,2.54,0,0,0,1.289-.352,2.127,2.127,0,0,0,.883-.914V12.9h-1.133q-2.656,0-2.656,1.555a1.316,1.316,0,0,0,.453,1.063A1.742,1.742,0,0,0,108.249,15.9Zm10.8-1.141a1.064,1.064,0,0,0-.441-.91,4.249,4.249,0,0,0-1.539-.559,7.277,7.277,0,0,1-1.742-.562,2.479,2.479,0,0,1-.953-.781,1.869,1.869,0,0,1-.309-1.078,2.193,2.193,0,0,1,.879-1.758,3.432,3.432,0,0,1,2.246-.719,3.532,3.532,0,0,1,2.332.742,2.357,2.357,0,0,1,.895,1.9h-1.453a1.3,1.3,0,0,0-.5-1.023,1.888,1.888,0,0,0-1.27-.43,1.976,1.976,0,0,0-1.234.344,1.082,1.082,0,0,0-.445.9.877.877,0,0,0,.414.789,5.1,5.1,0,0,0,1.5.508,7.8,7.8,0,0,1,1.754.578,2.558,2.558,0,0,1,1,.809,1.988,1.988,0,0,1,.324,1.152,2.163,2.163,0,0,1-.906,1.816,3.8,3.8,0,0,1-2.352.684,4.257,4.257,0,0,1-1.8-.359,2.922,2.922,0,0,1-1.223-1,2.42,2.42,0,0,1-.441-1.395h1.445a1.5,1.5,0,0,0,.582,1.152,2.258,2.258,0,0,0,1.434.426,2.331,2.331,0,0,0,1.316-.332A1.02,1.02,0,0,0,119.054,14.758Z" transform="translate(392 3023.127)" fill="#fff"/>
    <path id="Trazado_999244" data-name="Trazado 999244" d="M25.335,6.852H21.679V17H20.187V6.852H16.538V5.625h8.8Zm4.969,10.3a3.693,3.693,0,0,1-2.8-1.129,4.19,4.19,0,0,1-1.078-3.02v-.266a5.073,5.073,0,0,1,.48-2.246,3.748,3.748,0,0,1,1.344-1.547,3.378,3.378,0,0,1,1.871-.559,3.166,3.166,0,0,1,2.563,1.086,4.7,4.7,0,0,1,.914,3.109v.6H27.874a3,3,0,0,0,.73,2.02,2.3,2.3,0,0,0,1.777.77,2.517,2.517,0,0,0,1.3-.312,3.259,3.259,0,0,0,.93-.828l.883.688A3.55,3.55,0,0,1,30.3,17.156Zm-.18-7.578a1.928,1.928,0,0,0-1.469.637A3.1,3.1,0,0,0,27.921,12h4.234v-.109a2.753,2.753,0,0,0-.594-1.707A1.815,1.815,0,0,0,30.124,9.578ZM34.89,12.7a4.993,4.993,0,0,1,.488-2.234A3.643,3.643,0,0,1,36.737,8.93a3.7,3.7,0,0,1,1.988-.539,3.565,3.565,0,0,1,2.793,1.2,4.6,4.6,0,0,1,1.066,3.18v.1a5.036,5.036,0,0,1-.473,2.215,3.589,3.589,0,0,1-1.352,1.527,3.743,3.743,0,0,1-2.02.547,3.556,3.556,0,0,1-2.785-1.2A4.575,4.575,0,0,1,34.89,12.8Zm1.453.172A3.616,3.616,0,0,0,37,15.125a2.211,2.211,0,0,0,3.5-.012A3.955,3.955,0,0,0,41.14,12.7a3.61,3.61,0,0,0-.66-2.254,2.1,2.1,0,0,0-1.754-.863A2.075,2.075,0,0,0,37,10.43,3.925,3.925,0,0,0,36.343,12.867ZM48.483,9.844a4.331,4.331,0,0,0-.711-.055A1.9,1.9,0,0,0,45.843,11v6H44.4V8.547H45.8l.023.977a2.251,2.251,0,0,1,2.016-1.133,1.477,1.477,0,0,1,.641.109ZM51.382,17H49.929V8.547h1.453ZM51.4,5.008h1.75L51.054,7.3l-1.164,0ZM58.983,17a3.036,3.036,0,0,1-.2-.891,3.225,3.225,0,0,1-2.406,1.047,2.984,2.984,0,0,1-2.051-.707,2.287,2.287,0,0,1-.8-1.793,2.39,2.39,0,0,1,1-2.051,4.733,4.733,0,0,1,2.824-.73h1.406v-.664A1.623,1.623,0,0,0,58.3,10a1.821,1.821,0,0,0-1.336-.449,2.107,2.107,0,0,0-1.3.391,1.151,1.151,0,0,0-.523.945H53.694a2,2,0,0,1,.449-1.223,3.066,3.066,0,0,1,1.219-.934,4.1,4.1,0,0,1,1.691-.344,3.342,3.342,0,0,1,2.289.73,2.635,2.635,0,0,1,.859,2.012v3.891a4.757,4.757,0,0,0,.3,1.852V17Zm-2.4-1.1a2.54,2.54,0,0,0,1.289-.352,2.127,2.127,0,0,0,.883-.914V12.9H57.624q-2.656,0-2.656,1.555a1.316,1.316,0,0,0,.453,1.063A1.742,1.742,0,0,0,56.585,15.9Zm12.633-.859,2.094-6.492h1.477L69.757,17h-1.1L65.593,8.547h1.477ZM79.28,17a3.036,3.036,0,0,1-.2-.891,3.225,3.225,0,0,1-2.406,1.047,2.984,2.984,0,0,1-2.051-.707,2.288,2.288,0,0,1-.8-1.793,2.39,2.39,0,0,1,1-2.051,4.733,4.733,0,0,1,2.824-.73h1.406v-.664A1.623,1.623,0,0,0,78.6,10a1.821,1.821,0,0,0-1.336-.449,2.108,2.108,0,0,0-1.3.391,1.151,1.151,0,0,0-.523.945H73.991a2,2,0,0,1,.449-1.223,3.066,3.066,0,0,1,1.219-.934,4.1,4.1,0,0,1,1.691-.344,3.342,3.342,0,0,1,2.289.73,2.635,2.635,0,0,1,.859,2.012v3.891a4.757,4.757,0,0,0,.3,1.852V17Zm-2.4-1.1a2.54,2.54,0,0,0,1.289-.352,2.127,2.127,0,0,0,.883-.914V12.9H77.921q-2.656,0-2.656,1.555a1.316,1.316,0,0,0,.453,1.063A1.742,1.742,0,0,0,76.882,15.9ZM84.335,17H82.89V5h1.445Zm3.883,0H86.772V8.547h1.445ZM86.655,6.3a.863.863,0,0,1,.215-.594.807.807,0,0,1,.637-.242.819.819,0,0,1,.641.242.854.854,0,0,1,.219.594.826.826,0,0,1-.219.586.834.834,0,0,1-.641.234.821.821,0,0,1-.637-.234A.834.834,0,0,1,86.655,6.3Zm3.523,6.4A4.952,4.952,0,0,1,91.1,9.574a3.137,3.137,0,0,1,4.766-.168V5h1.445V17H95.983l-.07-.906A2.943,2.943,0,0,1,93.5,17.156a2.887,2.887,0,0,1-2.395-1.2,5.008,5.008,0,0,1-.926-3.141Zm1.445.164a3.749,3.749,0,0,0,.594,2.25,1.92,1.92,0,0,0,1.641.813A2.108,2.108,0,0,0,95.866,14.7V10.813a2.125,2.125,0,0,0-1.992-1.2,1.929,1.929,0,0,0-1.656.82A4.128,4.128,0,0,0,91.624,12.867ZM104.772,17a3.036,3.036,0,0,1-.2-.891,3.225,3.225,0,0,1-2.406,1.047,2.984,2.984,0,0,1-2.051-.707,2.288,2.288,0,0,1-.8-1.793,2.39,2.39,0,0,1,1-2.051,4.733,4.733,0,0,1,2.824-.73h1.406v-.664A1.623,1.623,0,0,0,104.093,10a1.821,1.821,0,0,0-1.336-.449,2.108,2.108,0,0,0-1.3.391,1.151,1.151,0,0,0-.523.945H99.483a2,2,0,0,1,.449-1.223,3.066,3.066,0,0,1,1.219-.934,4.1,4.1,0,0,1,1.691-.344,3.342,3.342,0,0,1,2.289.73,2.635,2.635,0,0,1,.859,2.012v3.891a4.757,4.757,0,0,0,.3,1.852V17Zm-2.4-1.1a2.54,2.54,0,0,0,1.289-.352,2.127,2.127,0,0,0,.883-.914V12.9h-1.133q-2.656,0-2.656,1.555a1.316,1.316,0,0,0,.453,1.063A1.742,1.742,0,0,0,102.374,15.9Zm5.531-3.2a4.952,4.952,0,0,1,.922-3.129,3.137,3.137,0,0,1,4.766-.168V5h1.445V17H113.71l-.07-.906a2.943,2.943,0,0,1-2.414,1.063,2.887,2.887,0,0,1-2.395-1.2,5.008,5.008,0,0,1-.926-3.141Zm1.445.164a3.749,3.749,0,0,0,.594,2.25,1.92,1.92,0,0,0,1.641.813,2.108,2.108,0,0,0,2.008-1.234V10.813a2.125,2.125,0,0,0-1.992-1.2,1.929,1.929,0,0,0-1.656.82A4.128,4.128,0,0,0,109.351,12.867ZM122.5,17a3.036,3.036,0,0,1-.2-.891,3.225,3.225,0,0,1-2.406,1.047,2.984,2.984,0,0,1-2.051-.707,2.288,2.288,0,0,1-.8-1.793,2.39,2.39,0,0,1,1-2.051,4.733,4.733,0,0,1,2.824-.73h1.406v-.664A1.623,1.623,0,0,0,121.819,10a1.821,1.821,0,0,0-1.336-.449,2.108,2.108,0,0,0-1.3.391,1.151,1.151,0,0,0-.523.945H117.21a2,2,0,0,1,.449-1.223,3.066,3.066,0,0,1,1.219-.934,4.1,4.1,0,0,1,1.691-.344,3.342,3.342,0,0,1,2.289.73,2.635,2.635,0,0,1,.859,2.012v3.891a4.757,4.757,0,0,0,.3,1.852V17Zm-2.4-1.1a2.54,2.54,0,0,0,1.289-.352,2.127,2.127,0,0,0,.883-.914V12.9H121.14q-2.656,0-2.656,1.555a1.316,1.316,0,0,0,.453,1.063A1.742,1.742,0,0,0,120.1,15.9Z" transform="translate(655.478 2720.577)" fill="#fff"/>
    <path id="Trazado_999242" data-name="Trazado 999242" d="M25.542,11.68a7.037,7.037,0,0,1-.562,2.918,4.261,4.261,0,0,1-1.594,1.9,4.4,4.4,0,0,1-6.4-1.887,6.752,6.752,0,0,1-.59-2.832v-.82a6.953,6.953,0,0,1,.57-2.9,4.218,4.218,0,0,1,4-2.594,4.41,4.41,0,0,1,2.41.66,4.253,4.253,0,0,1,1.605,1.914,7.071,7.071,0,0,1,.563,2.918Zm-1.492-.734a5.1,5.1,0,0,0-.812-3.105,2.68,2.68,0,0,0-2.273-1.082A2.651,2.651,0,0,0,18.726,7.84a5,5,0,0,0-.84,3v.836a5.107,5.107,0,0,0,.824,3.082,2.662,2.662,0,0,0,2.27,1.121,2.652,2.652,0,0,0,2.25-1.059,5.079,5.079,0,0,0,.82-3.035Zm10.656,1.922a5.062,5.062,0,0,1-.883,3.109,2.829,2.829,0,0,1-2.391,1.18,3.1,3.1,0,0,1-2.422-.977v4.07H27.565V8.547h1.32l.07.938a2.977,2.977,0,0,1,2.453-1.094,2.882,2.882,0,0,1,2.41,1.148,5.117,5.117,0,0,1,.887,3.2ZM33.261,12.7a3.735,3.735,0,0,0-.609-2.258,1.963,1.963,0,0,0-1.672-.828,2.125,2.125,0,0,0-1.969,1.164V14.82A2.129,2.129,0,0,0,31,15.977a1.954,1.954,0,0,0,1.652-.824A4.077,4.077,0,0,0,33.261,12.7ZM38.112,17H36.667V8.547h1.445ZM36.55,6.3a.863.863,0,0,1,.215-.594.807.807,0,0,1,.637-.242.819.819,0,0,1,.641.242.854.854,0,0,1,.219.594.826.826,0,0,1-.219.586.834.834,0,0,1-.641.234.821.821,0,0,1-.637-.234A.834.834,0,0,1,36.55,6.3Zm5.242,2.242.047,1.063A3.08,3.08,0,0,1,44.37,8.391q2.68,0,2.7,3.023V17H45.628V11.406a1.946,1.946,0,0,0-.418-1.352,1.675,1.675,0,0,0-1.277-.437,2.086,2.086,0,0,0-1.234.375,2.546,2.546,0,0,0-.828.984V17H40.425V8.547ZM50.823,17H49.378V8.547h1.445ZM49.261,6.3a.863.863,0,0,1,.215-.594.807.807,0,0,1,.637-.242.819.819,0,0,1,.641.242.854.854,0,0,1,.219.594.826.826,0,0,1-.219.586.834.834,0,0,1-.641.234.821.821,0,0,1-.637-.234A.834.834,0,0,1,49.261,6.3ZM52.753,12.7a4.993,4.993,0,0,1,.488-2.234A3.643,3.643,0,0,1,54.6,8.93a3.7,3.7,0,0,1,1.988-.539,3.565,3.565,0,0,1,2.793,1.2,4.6,4.6,0,0,1,1.066,3.18v.1a5.036,5.036,0,0,1-.473,2.215,3.589,3.589,0,0,1-1.352,1.527,3.743,3.743,0,0,1-2.02.547,3.556,3.556,0,0,1-2.785-1.2A4.575,4.575,0,0,1,52.753,12.8Zm1.453.172a3.616,3.616,0,0,0,.652,2.258,2.211,2.211,0,0,0,3.5-.012A3.955,3.955,0,0,0,59,12.7a3.61,3.61,0,0,0-.66-2.254,2.1,2.1,0,0,0-1.754-.863,2.075,2.075,0,0,0-1.727.852A3.925,3.925,0,0,0,54.206,12.867ZM57.245,5H59L56.9,7.3l-1.164,0Zm6.383,3.547.047,1.063a3.08,3.08,0,0,1,2.531-1.219q2.68,0,2.7,3.023V17H67.464V11.406a1.946,1.946,0,0,0-.418-1.352,1.675,1.675,0,0,0-1.277-.437,2.086,2.086,0,0,0-1.234.375,2.547,2.547,0,0,0-.828.984V17H62.261V8.547Zm18.563,4.32a5.062,5.062,0,0,1-.883,3.109,2.829,2.829,0,0,1-2.391,1.18A3.1,3.1,0,0,1,76.5,16.18v4.07H75.05V8.547h1.32l.07.938a2.977,2.977,0,0,1,2.453-1.094A2.882,2.882,0,0,1,81.3,9.539a5.117,5.117,0,0,1,.887,3.2ZM80.745,12.7a3.735,3.735,0,0,0-.609-2.258,1.963,1.963,0,0,0-1.672-.828A2.125,2.125,0,0,0,76.5,10.781V14.82a2.129,2.129,0,0,0,1.984,1.156,1.954,1.954,0,0,0,1.652-.824A4.077,4.077,0,0,0,80.745,12.7Zm8.5,3.461a3.07,3.07,0,0,1-2.477.992,2.628,2.628,0,0,1-2.059-.785A3.4,3.4,0,0,1,84,14.047v-5.5H85.44v5.461q0,1.922,1.563,1.922a2.163,2.163,0,0,0,2.2-1.234V8.547h1.445V17H89.276ZM88.073,5h1.75L87.729,7.3l-1.164,0ZM100,12.867a5.026,5.026,0,0,1-.891,3.113,2.846,2.846,0,0,1-2.391,1.176,2.947,2.947,0,0,1-2.477-1.133l-.07.977H92.847V5h1.445V9.477a2.93,2.93,0,0,1,2.414-1.086,2.863,2.863,0,0,1,2.418,1.164A5.177,5.177,0,0,1,100,12.742ZM98.558,12.7a3.906,3.906,0,0,0-.57-2.281,1.888,1.888,0,0,0-1.641-.8,2.122,2.122,0,0,0-2.055,1.328V14.6a2.181,2.181,0,0,0,2.07,1.328,1.878,1.878,0,0,0,1.617-.8A4.153,4.153,0,0,0,98.558,12.7Zm4.836,4.3h-1.445V5h1.445Zm3.883,0h-1.445V8.547h1.445ZM105.714,6.3a.863.863,0,0,1,.215-.594.807.807,0,0,1,.637-.242.819.819,0,0,1,.641.242.854.854,0,0,1,.219.594.826.826,0,0,1-.219.586.834.834,0,0,1-.641.234.821.821,0,0,1-.637-.234A.834.834,0,0,1,105.714,6.3Zm7.266,9.672a2.082,2.082,0,0,0,1.352-.469,1.649,1.649,0,0,0,.641-1.172h1.367a2.621,2.621,0,0,1-.5,1.383,3.293,3.293,0,0,1-1.23,1.047,3.55,3.55,0,0,1-1.629.391A3.482,3.482,0,0,1,110.233,16a4.59,4.59,0,0,1-1.02-3.152v-.242a5.089,5.089,0,0,1,.453-2.2,3.451,3.451,0,0,1,1.3-1.492,3.7,3.7,0,0,1,2-.531,3.39,3.39,0,0,1,2.363.852,3.043,3.043,0,0,1,1,2.211h-1.367a1.992,1.992,0,0,0-.621-1.348,1.932,1.932,0,0,0-1.379-.527,2.023,2.023,0,0,0-1.707.793,3.724,3.724,0,0,0-.605,2.293v.273a3.65,3.65,0,0,0,.6,2.25A2.033,2.033,0,0,0,112.979,15.977ZM123.183,17a3.036,3.036,0,0,1-.2-.891,3.225,3.225,0,0,1-2.406,1.047,2.984,2.984,0,0,1-2.051-.707,2.288,2.288,0,0,1-.8-1.793,2.39,2.39,0,0,1,1-2.051,4.733,4.733,0,0,1,2.824-.73h1.406v-.664A1.623,1.623,0,0,0,122.5,10a1.821,1.821,0,0,0-1.336-.449,2.108,2.108,0,0,0-1.3.391,1.151,1.151,0,0,0-.523.945h-1.453a2,2,0,0,1,.449-1.223,3.066,3.066,0,0,1,1.219-.934,4.1,4.1,0,0,1,1.691-.344,3.342,3.342,0,0,1,2.289.73,2.635,2.635,0,0,1,.859,2.012v3.891a4.757,4.757,0,0,0,.3,1.852V17Zm-2.4-1.1a2.54,2.54,0,0,0,1.289-.352,2.127,2.127,0,0,0,.883-.914V12.9h-1.133q-2.656,0-2.656,1.555a1.316,1.316,0,0,0,.453,1.063A1.742,1.742,0,0,0,120.784,15.9Z" transform="translate(1067.478 2805.077)" fill="#fff"/>
    <path id="Trazado_999241" data-name="Trazado 999241" d="M25.694,17H24.187L18.46,8.234V17H16.952V5.625H18.46l5.742,8.8v-8.8h1.492Zm2.055-4.3a4.993,4.993,0,0,1,.488-2.234A3.643,3.643,0,0,1,29.6,8.93a3.7,3.7,0,0,1,1.988-.539,3.565,3.565,0,0,1,2.793,1.2,4.6,4.6,0,0,1,1.066,3.18v.1a5.036,5.036,0,0,1-.473,2.215,3.589,3.589,0,0,1-1.352,1.527,3.743,3.743,0,0,1-2.02.547,3.556,3.556,0,0,1-2.785-1.2A4.575,4.575,0,0,1,27.749,12.8Zm1.453.172a3.616,3.616,0,0,0,.652,2.258,2.211,2.211,0,0,0,3.5-.012A3.955,3.955,0,0,0,34,12.7a3.61,3.61,0,0,0-.66-2.254,2.1,2.1,0,0,0-1.754-.863,2.075,2.075,0,0,0-1.727.852A3.925,3.925,0,0,0,29.2,12.867ZM39.218,6.5V8.547H40.8V9.664H39.218v5.249a1.173,1.173,0,0,0,.211.763.888.888,0,0,0,.719.254,3.5,3.5,0,0,0,.688-.094V17a4.215,4.215,0,0,1-1.109.155,1.8,1.8,0,0,1-1.461-.586,2.517,2.517,0,0,1-.492-1.664V9.664H36.233V8.547h1.539V6.5ZM44.054,17H42.608V8.547h1.445ZM42.491,6.3a.863.863,0,0,1,.215-.594.807.807,0,0,1,.637-.242.819.819,0,0,1,.641.242A.854.854,0,0,1,44.2,6.3a.826.826,0,0,1-.219.586.834.834,0,0,1-.641.234.821.821,0,0,1-.637-.234A.834.834,0,0,1,42.491,6.3Zm7.266,9.672a2.082,2.082,0,0,0,1.352-.469,1.649,1.649,0,0,0,.641-1.172h1.367a2.621,2.621,0,0,1-.5,1.383,3.293,3.293,0,0,1-1.23,1.047,3.55,3.55,0,0,1-1.629.391A3.482,3.482,0,0,1,47.011,16a4.59,4.59,0,0,1-1.02-3.152v-.242a5.089,5.089,0,0,1,.453-2.2,3.451,3.451,0,0,1,1.3-1.492,3.7,3.7,0,0,1,2-.531,3.39,3.39,0,0,1,2.363.852,3.043,3.043,0,0,1,1,2.211H51.749a1.992,1.992,0,0,0-.621-1.348,1.932,1.932,0,0,0-1.379-.527,2.023,2.023,0,0,0-1.707.793,3.724,3.724,0,0,0-.605,2.293v.273a3.65,3.65,0,0,0,.6,2.25A2.033,2.033,0,0,0,49.757,15.977ZM56.312,17H54.866V8.547h1.445ZM54.749,6.3a.863.863,0,0,1,.215-.594.807.807,0,0,1,.637-.242.819.819,0,0,1,.641.242.854.854,0,0,1,.219.594.826.826,0,0,1-.219.586.834.834,0,0,1-.641.234.821.821,0,0,1-.637-.234A.834.834,0,0,1,54.749,6.3ZM63.843,17a3.036,3.036,0,0,1-.2-.891,3.225,3.225,0,0,1-2.406,1.047,2.984,2.984,0,0,1-2.051-.707,2.287,2.287,0,0,1-.8-1.793,2.39,2.39,0,0,1,1-2.051,4.733,4.733,0,0,1,2.824-.73h1.406v-.664A1.623,1.623,0,0,0,63.163,10a1.821,1.821,0,0,0-1.336-.449,2.107,2.107,0,0,0-1.3.391,1.151,1.151,0,0,0-.523.945H58.554A2,2,0,0,1,59,9.668a3.066,3.066,0,0,1,1.219-.934,4.1,4.1,0,0,1,1.691-.344,3.342,3.342,0,0,1,2.289.73,2.635,2.635,0,0,1,.859,2.012v3.891a4.757,4.757,0,0,0,.3,1.852V17Zm-2.4-1.1a2.54,2.54,0,0,0,1.289-.352,2.127,2.127,0,0,0,.883-.914V12.9H62.483q-2.656,0-2.656,1.555a1.316,1.316,0,0,0,.453,1.063A1.742,1.742,0,0,0,61.444,15.9Zm10.8-1.141a1.064,1.064,0,0,0-.441-.91,4.249,4.249,0,0,0-1.539-.559,7.277,7.277,0,0,1-1.742-.562,2.479,2.479,0,0,1-.953-.781,1.869,1.869,0,0,1-.309-1.078,2.193,2.193,0,0,1,.879-1.758,3.432,3.432,0,0,1,2.246-.719,3.532,3.532,0,0,1,2.332.742,2.357,2.357,0,0,1,.895,1.9H72.163a1.3,1.3,0,0,0-.5-1.023,1.888,1.888,0,0,0-1.27-.43,1.976,1.976,0,0,0-1.234.344,1.082,1.082,0,0,0-.445.9.877.877,0,0,0,.414.789,5.1,5.1,0,0,0,1.5.508,7.8,7.8,0,0,1,1.754.578,2.558,2.558,0,0,1,1,.809,1.988,1.988,0,0,1,.324,1.152,2.163,2.163,0,0,1-.906,1.816,3.8,3.8,0,0,1-2.352.684,4.257,4.257,0,0,1-1.8-.359,2.922,2.922,0,0,1-1.223-1,2.42,2.42,0,0,1-.441-1.395h1.445A1.5,1.5,0,0,0,69,15.551a2.258,2.258,0,0,0,1.434.426,2.331,2.331,0,0,0,1.316-.332A1.02,1.02,0,0,0,72.249,14.758ZM79.187,12.7a4.952,4.952,0,0,1,.922-3.129,3.137,3.137,0,0,1,4.766-.168V5h1.445V17H84.991l-.07-.906a2.943,2.943,0,0,1-2.414,1.063,2.887,2.887,0,0,1-2.395-1.2,5.008,5.008,0,0,1-.926-3.141Zm1.445.164a3.749,3.749,0,0,0,.594,2.25,1.92,1.92,0,0,0,1.641.813A2.108,2.108,0,0,0,84.874,14.7V10.813a2.125,2.125,0,0,0-1.992-1.2,1.929,1.929,0,0,0-1.656.82A4.128,4.128,0,0,0,80.632,12.867Zm11.438,4.289a3.693,3.693,0,0,1-2.8-1.129,4.19,4.19,0,0,1-1.078-3.02v-.266a5.073,5.073,0,0,1,.48-2.246,3.748,3.748,0,0,1,1.344-1.547,3.378,3.378,0,0,1,1.871-.559,3.166,3.166,0,0,1,2.563,1.086,4.7,4.7,0,0,1,.914,3.109v.6H89.64a3,3,0,0,0,.73,2.02,2.3,2.3,0,0,0,1.777.77,2.517,2.517,0,0,0,1.3-.312,3.259,3.259,0,0,0,.93-.828l.883.688A3.55,3.55,0,0,1,92.069,17.156Zm-.18-7.578a1.928,1.928,0,0,0-1.469.637A3.1,3.1,0,0,0,89.687,12h4.234v-.109a2.753,2.753,0,0,0-.594-1.707A1.815,1.815,0,0,0,91.89,9.578Zm10.555-.008a3.073,3.073,0,0,1,2.5-1.18q2.68,0,2.7,3.023V17H106.2V11.406a1.946,1.946,0,0,0-.418-1.352,1.675,1.675,0,0,0-1.277-.437,2.086,2.086,0,0,0-1.234.375,2.546,2.546,0,0,0-.828.984V17H101V5h1.445Zm6.984,3.125a4.993,4.993,0,0,1,.488-2.234,3.643,3.643,0,0,1,1.359-1.531,3.7,3.7,0,0,1,1.988-.539,3.565,3.565,0,0,1,2.793,1.2,4.6,4.6,0,0,1,1.066,3.18v.1a5.036,5.036,0,0,1-.473,2.215,3.589,3.589,0,0,1-1.352,1.527,3.743,3.743,0,0,1-2.02.547,3.556,3.556,0,0,1-2.785-1.2,4.575,4.575,0,0,1-1.066-3.164Zm1.453.172a3.616,3.616,0,0,0,.652,2.258,2.211,2.211,0,0,0,3.5-.012,3.955,3.955,0,0,0,.648-2.418,3.61,3.61,0,0,0-.66-2.254,2.1,2.1,0,0,0-1.754-.863,2.075,2.075,0,0,0-1.727.852A3.925,3.925,0,0,0,110.882,12.867Zm10.82,2.016,1.969-6.336h1.547l-3.4,9.758q-.789,2.109-2.508,2.109l-.273-.023-.539-.1V19.117l.391.031a1.923,1.923,0,0,0,1.145-.3,2.149,2.149,0,0,0,.676-1.086l.32-.859-3.016-8.359h1.578Z" transform="translate(805 3118.497)" fill="#fff"/>
    <g id="Grupo_1190358" data-name="Grupo 1190358" transform="translate(536 2807)">
      <g id="Grupo_1190357" data-name="Grupo 1190357" clip-path="url(#clip-path-3)">
        <path id="Trazado_998254" data-name="Trazado 998254" d="M1.923,211.465c-1.207,0-1.973-.652-1.92-1.77V173.723a1.474,1.474,0,0,1,1.361-1.673l17.926-.017v39.4Zm11.156-23.812-.1-6.595A53.9,53.9,0,0,0,6.712,181c-1.006.027-.457,5.83-.438,6.776a26.242,26.242,0,0,0,6.806-.119m-.1,14.763a44.855,44.855,0,0,0,0-6.8,41.121,41.121,0,0,0-6.71.022,39.227,39.227,0,0,0,0,6.7,54.515,54.515,0,0,0,6.7.07" transform="translate(0 -122.047)" fill="#674a11"/>
        <path id="Trazado_998255" data-name="Trazado 998255" d="M260.964,209.568a1.589,1.589,0,0,1-1.521,1.9l-17.765.021-.011-39.39,17.936-.017a1.482,1.482,0,0,1,1.361,1.677Zm-6.221-21.78a46.246,46.246,0,0,0-.062-6.681,53.531,53.531,0,0,0-6.629-.075,35.326,35.326,0,0,0-.079,6.772,35.822,35.822,0,0,0,6.77-.016m-.056,14.612a38.553,38.553,0,0,0,.006-6.727,52.914,52.914,0,0,0-6.623-.076,35.445,35.445,0,0,0-.115,6.792,45.789,45.789,0,0,0,6.732.01" transform="translate(-171.448 -122.079)" fill="#674a11"/>
        <rect id="Rectángulo_455144" data-name="Rectángulo 455144" width="19.209" height="18.23" transform="translate(35.155 71.18)" fill="#674a11"/>
        <path id="Trazado_998256" data-name="Trazado 998256" d="M110.7,136.751l-22.531-.011a1.52,1.52,0,0,0-1.538,1.566l-.036,19.672-9.578.044-.02-61.3h44.773v61.235l-9.594.053-.037-19.708a1.493,1.493,0,0,0-1.437-1.552M89.8,110.618l-.042-6.668a52,52,0,0,0-6.74-.046,27.557,27.557,0,0,0,.043,6.746Zm12.953.045a44.223,44.223,0,0,0,.032-6.726,46.689,46.689,0,0,0-6.81,0A49.434,49.434,0,0,0,96,110.6Zm13.013-.021a32.443,32.443,0,0,0-.02-6.739,52.048,52.048,0,0,0-6.739.048,60.165,60.165,0,0,0,.023,6.668,64.275,64.275,0,0,0,6.736.023M83.5,125.312a25.913,25.913,0,0,0,6.258-.122l-.009-6.651c-1.981-.278-3.806-.051-5.78-.139a.909.909,0,0,0-1.05.745c-.072.958-.427,6.089.581,6.167m19.368-.988,0-4.9a.982.982,0,0,0-1.163-1.028c-1.918.128-3.771-.184-5.681.184a52.426,52.426,0,0,0-.135,5.738.941.941,0,0,0,.914,1.047c2.283.113,6.071.6,6.069-1.039m13.041-.4-.035-4.53a.951.951,0,0,0-1.094-1c-1.96.09-3.794-.129-5.782.128v6.686a25.039,25.039,0,0,0,6.244.082c.548-.051.671-.779.666-1.369" transform="translate(-54.622 -68.618)" fill="#674a11"/>
        <path id="Trazado_998257" data-name="Trazado 998257" d="M113.617,71.623l-46.281.04a3.021,3.021,0,0,1-3.169-2.637A2.857,2.857,0,0,1,66.815,65.8l46.9,0a2.838,2.838,0,0,1,2.666,2.774,2.885,2.885,0,0,1-2.762,3.049" transform="translate(-45.506 -46.681)" fill="#674a11"/>
        <path id="Trazado_998258" data-name="Trazado 998258" d="M163.481,11.909l-12.766.142-.084,3.83a40.061,40.061,0,0,1-4.612-.009l0-13.61A2.4,2.4,0,0,1,148.247.006a2.5,2.5,0,0,1,2.505,2.3l12.689.133L161,7.184Z" transform="translate(-103.589 0)" fill="#674a11"/>
      </g>
    </g>
    <g id="Grupo_1190360" data-name="Grupo 1190360" transform="translate(679.194 2961.021)">
      <g id="Grupo_1190359" data-name="Grupo 1190359" clip-path="url(#clip-path-4)">
        <path id="Trazado_998259" data-name="Trazado 998259" d="M14.438,61.576c.432,2.208,1.173,4.236,1.467,6.543A7.1,7.1,0,0,1,7.82,75.9a7.015,7.015,0,0,1-5.839-7.752c.352-2.437,1.085-4.634,1.622-6.981a4.375,4.375,0,0,1,3.087-3.105L6.675,34.508a12.37,12.37,0,0,1,3.588-9.215L3.144,22.7A4.693,4.693,0,0,1,.007,18.537a4.624,4.624,0,0,1,2.675-4.513L37.885,1.3a21.579,21.579,0,0,1,14.744,0L87.776,13.88a4.588,4.588,0,0,1,2.714,4.409,4.823,4.823,0,0,1-3.142,4.422l-34.3,12.364a22.094,22.094,0,0,1-15.073.155L20,28.8,35.474,19.96l-19.888,7.3a6.873,6.873,0,0,0-4.395,6.093L11.1,57.908a5.049,5.049,0,0,1,3.336,3.669" transform="translate(0 0)" fill="#5a5858"/>
        <path id="Trazado_998260" data-name="Trazado 998260" d="M215.058,163.044a19.78,19.78,0,1,1-19.78-19.78,19.78,19.78,0,0,1,19.78,19.78m-31.777.242,10.036,10.132a64.9,64.9,0,0,1,13.9-19.265c.345-.338-.321-1.4-.711-1.365a65.758,65.758,0,0,0-14.847,12.823l-5.913-4.511a11.277,11.277,0,0,0-2.47,2.187" transform="translate(-121.447 -99.141)" fill="#5a5858"/>
        <path id="Trazado_998261" data-name="Trazado 998261" d="M113.993,120.912a23.911,23.911,0,0,0-20.74,18.565,59.315,59.315,0,0,1-23.394-2.6A9.786,9.786,0,0,1,63.8,132.1c-2.877-5.192-2.338-9.858-1.6-15.589L77.166,121.9a31.378,31.378,0,0,0,21.471-.009l14.911-5.368a34.125,34.125,0,0,1,.445,4.389" transform="translate(-42.637 -80.629)" fill="#5a5858"/>
      </g>
    </g>
    <g id="Grupo_1190362" data-name="Grupo 1190362" transform="translate(839.202 2825.155)">
      <g id="Grupo_1190361" data-name="Grupo 1190361" clip-path="url(#clip-path-5)">
        <path id="Trazado_998262" data-name="Trazado 998262" d="M50.209,105.812c-4.08.392-3.744,4.971-3.508,7.984a3.873,3.873,0,0,0,4.261,3.648,8.72,8.72,0,0,1,2.045.159,23.36,23.36,0,0,0-8.1,28.977L8.968,146.6A9.708,9.708,0,0,1,0,137.4L0,99.959H71.939l.017,14.36a23.157,23.157,0,0,0-13.679.627,57.221,57.221,0,0,0,.034-5.786c-.514-3.9-4.961-3.651-8.1-3.349M19.63,117.439a3.815,3.815,0,0,0,3.7-3.849l.007-3.833a3.858,3.858,0,0,0-3.651-3.957,31.069,31.069,0,0,0-4.258-.019,3.934,3.934,0,0,0-3.768,3.763,30.71,30.71,0,0,0,.019,4.252,3.876,3.876,0,0,0,3.961,3.666c1.289,0,2.537.057,3.991-.023m17.51,0a3.815,3.815,0,0,0,3.7-3.849l.007-3.833a3.857,3.857,0,0,0-3.651-3.957,31.023,31.023,0,0,0-4.258-.019,3.935,3.935,0,0,0-3.769,3.763,30.755,30.755,0,0,0,.019,4.252,3.876,3.876,0,0,0,3.961,3.666c1.29,0,2.537.057,3.991-.023M19.832,136.882a3.872,3.872,0,0,0,3.507-4.036l-.016-3.815a3.774,3.774,0,0,0-3.854-3.775l-3.84-.01A3.948,3.948,0,0,0,11.65,129.1a39.253,39.253,0,0,0,0,3.966,3.979,3.979,0,0,0,4,3.861,38.486,38.486,0,0,0,4.177-.045m17.511,0a3.872,3.872,0,0,0,3.507-4.036l-.016-3.815a3.774,3.774,0,0,0-3.854-3.775l-3.84-.01A3.948,3.948,0,0,0,29.16,129.1a39.163,39.163,0,0,0,0,3.966,3.979,3.979,0,0,0,4,3.861,38.576,38.576,0,0,0,4.178-.045" transform="translate(0 -70.787)" fill="#674a11"/>
        <path id="Trazado_998263" data-name="Trazado 998263" d="M198.921,179.415a19.447,19.447,0,1,1-19.447-19.447,19.447,19.447,0,0,1,19.447,19.447m-14.828,7.323a1.919,1.919,0,0,0,2.7-2.7l-5.316-5.449-.034-10.779a1.973,1.973,0,1,0-3.946,0L177.47,179.1a2.768,2.768,0,0,0,.912,2Z" transform="translate(-113.326 -113.283)" fill="#674a11"/>
        <path id="Trazado_998264" data-name="Trazado 998264" d="M44.764,25.043a8.721,8.721,0,0,0,8.685,8.541,8.623,8.623,0,0,0,8.813-8.272L62.377,20a9.459,9.459,0,0,1,9.55,9.209l.02,10.219-71.9.006L.006,29.8a9.673,9.673,0,0,1,9.658-9.79c.161,1.762.02,3.375.086,5.155a8.766,8.766,0,0,0,17.525-.349l.065-4.821,17.353,0c.142,1.669.017,3.17.071,5.044" transform="translate(-0.004 -14.159)" fill="#674a11"/>
        <path id="Trazado_998265" data-name="Trazado 998265" d="M56.326,11.16a4.678,4.678,0,0,1-5.009,4.364,4.784,4.784,0,0,1-4.59-4.828V4.83A4.8,4.8,0,0,1,51.28.006a4.672,4.672,0,0,1,5.037,4.241c.127,2.259.1,4.462.01,6.913" transform="translate(-33.09 0)" fill="#674a11"/>
        <path id="Trazado_998266" data-name="Trazado 998266" d="M176.326,11.16a4.678,4.678,0,0,1-5.009,4.364,4.784,4.784,0,0,1-4.59-4.828V4.83A4.8,4.8,0,0,1,171.28.006a4.672,4.672,0,0,1,5.037,4.241c.127,2.259.1,4.462.01,6.913" transform="translate(-118.07 0)" fill="#674a11"/>
      </g>
    </g>
    <g id="Grupo_1190364" data-name="Grupo 1190364" transform="translate(971 2946.25)">
      <g id="Grupo_1190363" data-name="Grupo 1190363" clip-path="url(#clip-path-6)">
        <path id="Trazado_998267" data-name="Trazado 998267" d="M127.2,225.166l-42.954.019a1.818,1.818,0,0,1-1.927-2.247,23.432,23.432,0,0,1,46.653,0c.106,1.05-.262,2.231-1.772,2.231" transform="translate(-55.564 -136.198)" fill="#5a5858"/>
        <path id="Trazado_998268" data-name="Trazado 998268" d="M140.522,132.681a12.652,12.652,0,1,1-12.652-12.652,12.652,12.652,0,0,1,12.652,12.652" transform="translate(-77.789 -81.038)" fill="#5a5858"/>
        <path id="Trazado_998269" data-name="Trazado 998269" d="M130.358,52.67a16.1,16.1,0,0,0-13.9,0c-.54.259-7.984-3.35-7.968-11.668l.027-13.5c11.229-6.328,18.394-6.306,29.629-.007l-.019,14.122c-.01,7.336-7.252,11.277-7.77,11.049M113.514,43.2l5.032,4.884a3.069,3.069,0,0,0,4.226.141l10.677-10.747a3.062,3.062,0,0,0-4.181-4.466l-8.524,8.475-3.5-3.185a3.012,3.012,0,0,0-4.286.556,3.166,3.166,0,0,0,.553,4.341" transform="translate(-73.248 -15.371)" fill="#5a5858"/>
        <path id="Trazado_998270" data-name="Trazado 998270" d="M124.553,9.257c-12.906-6.8-19.922-6.967-32.956.125a2.533,2.533,0,0,0-1.572,2.3l.051,14.255a15.445,15.445,0,0,0,7.843,13.385c-.943,1.094-1.818,1.856-2.749,3.111-5.17-3.295-9.03-8.8-9.051-15.174L86.052,7.9C102.887-2.628,113.49-2.637,130.3,7.9l-.065,19.357c-.021,6.381-3.884,11.872-9.056,15.181-.922-1.266-1.821-2.006-2.751-3.107,4.828-2.963,7.8-7.562,7.829-13.1l.078-14.534c.007-1.319-.769-1.9-1.787-2.438" transform="translate(-58.098 0)" fill="#5a5858"/>
        <path id="Trazado_998271" data-name="Trazado 998271" d="M235.674,212.943l-22.185-.037a27.225,27.225,0,0,0-9.988-15.468A20.462,20.462,0,0,1,225.229,194c10.7,4.537,13.477,16.891,11.929,18.481a2.11,2.11,0,0,1-1.484.467" transform="translate(-137.394 -129.831)" fill="#5a5858"/>
        <path id="Trazado_998272" data-name="Trazado 998272" d="M233.352,131.619a11.113,11.113,0,1,1-11.113-11.113,11.113,11.113,0,0,1,11.113,11.113" transform="translate(-142.542 -81.36)" fill="#5a5858"/>
        <path id="Trazado_998273" data-name="Trazado 998273" d="M24.083,212.875l-22.378.052a2.152,2.152,0,0,1-1.333-.5c-1.4-1.2.88-13.571,11.751-18.361a20.511,20.511,0,0,1,21.936,3.35,27.1,27.1,0,0,0-9.977,15.457" transform="translate(0 -129.819)" fill="#5a5858"/>
        <path id="Trazado_998274" data-name="Trazado 998274" d="M51.017,131.621A11.113,11.113,0,1,1,39.9,120.508a11.113,11.113,0,0,1,11.113,11.113" transform="translate(-19.438 -81.361)" fill="#5a5858"/>
      </g>
    </g>
    <circle id="Elipse_13674" data-name="Elipse 13674" cx="32.5" cy="32.5" r="32.5" transform="translate(430 2941)" fill="#fff"/>
    <circle id="Elipse_13675" data-name="Elipse 13675" cx="32.5" cy="32.5" r="32.5" transform="translate(694 2762)" fill="#fff"/>
    <circle id="Elipse_13677" data-name="Elipse 13677" cx="32.5" cy="32.5" r="32.5" transform="translate(1106 2846)" fill="#fff"/>
    <circle id="Elipse_13676" data-name="Elipse 13676" cx="32.5" cy="32.5" r="32.5" transform="translate(844 3036)" fill="#fff"/>
  </g>
</svg>
