<svg xmlns="http://www.w3.org/2000/svg" xmlns:xlink="http://www.w3.org/1999/xlink" width="150.001" height="150.001" viewBox="0 0 150.001 150.001">
  <defs>
    <clipPath id="clip-path">
      <rect id="Rect치ngulo_455592" data-name="Rect치ngulo 455592" width="78.75" height="78.72" fill="#5a5858"/>
    </clipPath>
  </defs>
  <g id="Grupo_1190591" data-name="Grupo 1190591" transform="translate(-305.059 -9426)">
    <g id="Grupo_1177670" data-name="Grupo 1177670" transform="translate(0 0.001)">
      <path id="Trazado_997691" data-name="Trazado 997691" d="M75,0A75,75,0,1,1,0,75,75,75,0,0,1,75,0Z" transform="translate(455.059 9425.999) rotate(90)" fill="#cbcbcb"/>
      <path id="Sustracci칩n_109" data-name="Sustracci칩n 109" d="M21524.061,11862h0v-150a75,75,0,1,1,0,150Z" transform="translate(12167.058 -12023.059) rotate(90)" fill="#5a5858"/>
      <path id="Trazado_997692" data-name="Trazado 997692" d="M67.738,0A67.738,67.738,0,1,1,0,67.738,67.738,67.738,0,0,1,67.738,0Z" transform="translate(312.32 9433.262)" fill="#fff"/>
      <g id="Grupo_1190884" data-name="Grupo 1190884" transform="translate(340.683 9461.639)">
        <g id="Grupo_1190883" data-name="Grupo 1190883" clip-path="url(#clip-path)">
          <path id="Trazado_999048" data-name="Trazado 999048" d="M34.938,75.628l8.833.04.131-7.119A1.389,1.389,0,0,1,45.32,67.2a1.5,1.5,0,0,1,1.535,1.471c.049,2.243.072,4.39,0,6.646a3.372,3.372,0,0,1-3.164,3.351l-8.08.054A3.515,3.515,0,0,1,31.9,75.3l-.087-5.461A33.162,33.162,0,0,1,23.16,66.25l-3.865,3.769a3.575,3.575,0,0,1-5.112-.2L8.82,64.439a3.5,3.5,0,0,1-.084-4.974l3.781-3.851a32.18,32.18,0,0,1-3.589-8.692c-1.89-.195-3.608-.023-5.477-.09a3.454,3.454,0,0,1-3.417-3.4L0,35.616A3.544,3.544,0,0,1,3.437,31.9l5.506-.083a31.968,31.968,0,0,1,3.566-8.661L8.748,19.306a3.515,3.515,0,0,1,.041-4.982l5.5-5.5a3.613,3.613,0,0,1,5.179.059l3.67,3.633A33.709,33.709,0,0,1,31.816,8.9l.076-5.451A3.543,3.543,0,0,1,35.6,0H43.16a3.625,3.625,0,0,1,3.726,3.743l-.037,6.374a1.468,1.468,0,0,1-1.526,1.438c-2.607,0-.946-5.873-1.534-8.447L34.962,3.1l-.117,7.06a1.455,1.455,0,0,1-1.23,1.422,29.212,29.212,0,0,0-9.993,4.171,1.643,1.643,0,0,1-1.935-.4c-1.658-1.589-3.054-3.219-4.888-4.757L10.584,16.8l4.788,4.88a1.649,1.649,0,0,1,.288,2.123,27.9,27.9,0,0,0-4,9.568,1.659,1.659,0,0,1-1.646,1.515l-6.943.1.017,8.776,6.988.085a1.558,1.558,0,0,1,1.5,1.324,28.438,28.438,0,0,0,4.1,9.8,1.605,1.605,0,0,1-.208,1.967c-1.611,1.719-3.313,3.154-4.876,5.016l6.2,6.186c1.887-1.1,5.1-6.252,6.825-5.142a29.287,29.287,0,0,0,10.012,4.172A1.582,1.582,0,0,1,34.89,68.76Z" transform="translate(-0.001)" fill="#5a5858"/>
          <path id="Trazado_999049" data-name="Trazado 999049" d="M174.849,21.151a1.568,1.568,0,0,1-2.1.555,1.469,1.469,0,0,1-.4-2.205l6.359-8.395,11.442-.082a5.462,5.462,0,1,1,.011,2.985l-9.867-.051Zm23.044-8.657a2.472,2.472,0,1,0-2.473,2.473,2.473,2.473,0,0,0,2.473-2.473" transform="translate(-122.171 -4.989)" fill="#5a5858"/>
          <path id="Trazado_999050" data-name="Trazado 999050" d="M190.141,221.245a5.474,5.474,0,0,1,10.753,1.308,5.477,5.477,0,0,1-10.733,1.652l-11.4-.117-6.412-8.442a1.486,1.486,0,0,1,.227-2.086,1.41,1.41,0,0,1,2.027.165l5.708,7.482Zm7.759,1.426a2.474,2.474,0,1,0-2.474,2.474,2.474,2.474,0,0,0,2.474-2.474" transform="translate(-122.18 -151.427)" fill="#5a5858"/>
          <path id="Trazado_999051" data-name="Trazado 999051" d="M193.849,163.146a1.545,1.545,0,0,1-.855-2.122c.913-2.154,4.025.791,5.705,1.062a45.19,45.19,0,0,0,6.242.091,5.468,5.468,0,1,1,.016,3.053c-2.331-.236-4.576.2-6.886-.164-1.478-.234-2.738-1.353-4.222-1.92m18.843.546a2.472,2.472,0,1,0-2.472,2.472,2.472,2.472,0,0,0,2.472-2.472" transform="translate(-136.971 -112.365)" fill="#5a5858"/>
          <path id="Trazado_999052" data-name="Trazado 999052" d="M203.773,82.8c-.784.05-1.787,2.6-3.428,1.708a1.414,1.414,0,0,1-.45-2.14c.708-.773,1.595-2.147,2.654-2.454l7.191-.294a5.471,5.471,0,1,1,.006,3.163c-2.045-.03-3.958-.113-5.973.016m13.686-1.583a2.472,2.472,0,1,0-2.472,2.472,2.472,2.472,0,0,0,2.472-2.472" transform="translate(-141.742 -53.816)" fill="#5a5858"/>
          <path id="Trazado_999053" data-name="Trazado 999053" d="M94.238,107.888,76.1,107.875a7.4,7.4,0,0,1-6.817-4.957,7.587,7.587,0,0,1,2.531-8.508,7.586,7.586,0,0,1-2.958-5.792,7.461,7.461,0,0,1,2.953-6.084,7.683,7.683,0,0,1-2.61-8.269,7.194,7.194,0,0,1,6.614-5.145l19.122.015c3.116,0,5.616,2.542,6.4,5.062a7.5,7.5,0,0,1-2.6,8.287,7.549,7.549,0,0,1,2.965,5.87,7.445,7.445,0,0,1-2.966,6.06,7.559,7.559,0,0,1,2.588,8.375,7.383,7.383,0,0,1-7.083,5.1M94.8,80.876c2.551,0,4.053-2.574,3.9-4.7a4.335,4.335,0,0,0-4.068-4.08l-18.763.025a4.272,4.272,0,0,0-4.019,4.355c-.017,2.1,1.6,4.436,3.981,4.433Zm-.867,3.1H76.689a4.511,4.511,0,0,0-4.83,4.391,4.462,4.462,0,0,0,4.528,4.561l17.681.01a4.487,4.487,0,1,0-.131-8.961m.526,20.9a4.421,4.421,0,0,0,4.255-4.641,4.479,4.479,0,0,0-4.648-4.31l-17.678,0a4.465,4.465,0,0,0-4.537,4.542,4.527,4.527,0,0,0,4.582,4.453Z" transform="translate(-48.894 -49.092)" fill="#5a5858"/>
          <path id="Trazado_999054" data-name="Trazado 999054" d="M126.554,174.994l-8.1.006a1.465,1.465,0,0,1-.009-2.927l8.109-.009a1.472,1.472,0,0,1,1.4,1.3,1.45,1.45,0,0,1-1.406,1.629" transform="translate(-83.123 -122.206)" fill="#5a5858"/>
          <path id="Trazado_999055" data-name="Trazado 999055" d="M98.677,172.306a1.973,1.973,0,1,1-1.972-1.972,1.972,1.972,0,0,1,1.972,1.972" transform="translate(-67.282 -120.977)" fill="#5a5858"/>
          <path id="Trazado_999056" data-name="Trazado 999056" d="M126.391,92.468l-7.893,0a1.5,1.5,0,0,1-1.46-1.513,1.487,1.487,0,0,1,1.522-1.455l7.91-.006a1.487,1.487,0,1,1-.079,2.971" transform="translate(-83.124 -63.564)" fill="#5a5858"/>
          <path id="Trazado_999057" data-name="Trazado 999057" d="M98.677,89.774A1.971,1.971,0,1,1,96.706,87.8a1.971,1.971,0,0,1,1.971,1.971" transform="translate(-67.285 -62.361)" fill="#5a5858"/>
          <path id="Trazado_999058" data-name="Trazado 999058" d="M126.684,133.8l-8.23-.036a1.461,1.461,0,0,1-1.418-1.562,1.5,1.5,0,0,1,1.675-1.355l7.831.014a1.425,1.425,0,0,1,1.423,1.329,1.562,1.562,0,0,1-1.28,1.61" transform="translate(-83.12 -92.93)" fill="#5a5858"/>
          <path id="Trazado_999059" data-name="Trazado 999059" d="M98.674,131.045a1.976,1.976,0,1,1-1.976-1.976,1.976,1.976,0,0,1,1.976,1.976" transform="translate(-67.275 -91.669)" fill="#5a5858"/>
        </g>
      </g>
    </g>
    <path id="Trazado_997694" data-name="Trazado 997694" d="M471.93,424.642a3.111,3.111,0,1,1,3.115,3.124,3.113,3.113,0,0,1-3.115-3.124m-13.442,0a3.115,3.115,0,1,1,3.115,3.124,3.114,3.114,0,0,1-3.115-3.124m-13.44,0a3.115,3.115,0,1,1,3.115,3.124,3.118,3.118,0,0,1-3.115-3.124" transform="translate(868.572 8985.952) rotate(90)" fill="#5a5858"/>
    <g id="Grupo_1177672" data-name="Grupo 1177672" transform="translate(326.305 9552.477) rotate(90)">
      <path id="Trazado_997699" data-name="Trazado 997699" d="M0,24.325l1.629,1.6,7.17-7.29,6.879,7.274,1.661-1.571-8.507-9Z" transform="translate(0 -6.575)" fill="#636363"/>
      <path id="Trazado_997700" data-name="Trazado 997700" d="M8.832,0,0,8.979l1.629,1.6L8.8,3.293l6.879,7.273L17.34,9Z" fill="#636363"/>
    </g>
  </g>
</svg>
