<svg xmlns="http://www.w3.org/2000/svg" xmlns:xlink="http://www.w3.org/1999/xlink" width="250" height="250" viewBox="0 0 250 250">
  <defs>
    <clipPath id="clip-path">
      <rect id="Rectángulo_455590" data-name="Rectángulo 455590" width="125.147" height="136.381" fill="#674a11"/>
    </clipPath>
  </defs>
  <g id="Grupo_1190585" data-name="Grupo 1190585" transform="translate(-383.746 -8400)">
    <circle id="Elipse_13609" data-name="Elipse 13609" cx="125" cy="125" r="125" transform="translate(383.746 8400)" fill="#fff"/>
    <g id="Grupo_1190880" data-name="Grupo 1190880" transform="translate(456.545 8456.811)">
      <g id="Grupo_1190879" data-name="Grupo 1190879" transform="translate(0 -0.001)" clip-path="url(#clip-path)">
        <path id="Trazado_999039" data-name="Trazado 999039" d="M123.676,130.44l-4.323,4.35c-1.675,1.685-4.7,2.3-6.532.49l-9.6-9.5c-2.263-2.239-1.832-5.512.605-7.639a48.353,48.353,0,0,0-4.5-4.48,36.8,36.8,0,0,1-37.43,6.946l-54.629-.02c-3.142,0-7.2-2.451-7.2-6.016L0,35.94c-.006-6.012,5.471-9.346,11.2-8.374l.123-19.055A8.543,8.543,0,0,1,20.041,0L72.756.063,89.537,16.83l.175,14.025,15.925.2c2.228.029,4.013,1.914,4.825,3.233a6.967,6.967,0,0,1,.354,6.813l-9.174,19.784a36.834,36.834,0,0,1,.748,49.723,58.819,58.819,0,0,0,4.45,4.492c1.883-2.133,5.216-3,7.384-.835l9.824,9.795c1.688,1.683,1.328,4.668-.371,6.377M77.392,31.023l8.109-.088,0-11.089-7.847-.1a8.269,8.269,0,0,1-7.915-8.256L69.65,4.144,20.536,4.091c-2.664,0-5.058,1.58-5.054,4.494l.1,69.224L29.7,47.97A10.242,10.242,0,0,1,38.648,41.9l24.871-.086c2.5-.008,4.331-1.947,5.191-4.112,1.432-3.6,4.454-6.636,8.682-6.681m4.759-15.645L74.16,7.356c-.521,2.051-.715,4.643.67,6.484,1.707,2.269,4.8,2.3,7.321,1.538M11.358,87.1l-.1-55.186c-2.3-1.114-7.042.02-7.045,3.423L4.152,102.2c3-5.108,4.811-9.824,7.206-15.1M7.62,116.489l46.125-.117A36.849,36.849,0,1,1,98.417,57.83l8.528-18.171a3.084,3.084,0,0,0,.094-2.966c-.329-.55-.979-1.584-2.024-1.584l-26.78-.022A6.054,6.054,0,0,0,72.6,39.193a10.252,10.252,0,0,1-9.563,6.846l-23.952.067a6.091,6.091,0,0,0-5.694,3.671L4.414,112.141a3.2,3.2,0,0,0,.422,3.165,3.275,3.275,0,0,0,2.783,1.184M107.556,86.15a32.665,32.665,0,1,0-32.665,32.665A32.665,32.665,0,0,0,107.556,86.15m8.263,46.21c2.111-2.14,3.771-3.351,5.248-5.472l-10.03-9.9a41.412,41.412,0,0,0-5.289,5.434Z" transform="translate(0 0.001)" fill="#674a11"/>
        <path id="Trazado_999040" data-name="Trazado 999040" d="M84.1,32.713l-31.274.058a2.248,2.248,0,0,1-2.208-2.1,2.1,2.1,0,0,1,2.124-2.163l31.675.01a2.11,2.11,0,0,1,1.936,2.16A2.206,2.206,0,0,1,84.1,32.713" transform="translate(-25.868 -14.57)" fill="#674a11"/>
        <path id="Trazado_999041" data-name="Trazado 999041" d="M84.23,61.311l-31.453,0a2.046,2.046,0,0,1-2.1-1.783,1.916,1.916,0,0,1,2.056-2.25l31.758-.027a1.974,1.974,0,0,1,1.886,1.835,2.026,2.026,0,0,1-2.148,2.222" transform="translate(-25.892 -29.259)" fill="#674a11"/>
        <path id="Trazado_999042" data-name="Trazado 999042" d="M151.876,147.445a27.513,27.513,0,1,1-27.513-27.513,27.513,27.513,0,0,1,27.513,27.513m-4.121-.008a23.37,23.37,0,1,0-23.37,23.37,23.37,23.37,0,0,0,23.37-23.37" transform="translate(-49.494 -61.29)" fill="#674a11"/>
        <path id="Trazado_999043" data-name="Trazado 999043" d="M131.386,177.3l-6.959-7.9a2.216,2.216,0,0,1-.142-2.773,2.1,2.1,0,0,1,3.091-.117l5.887,6.535L146.171,161.4a2.077,2.077,0,0,1,2.8-.156,2.052,2.052,0,0,1,.028,3.115l-14.241,12.995a2.257,2.257,0,0,1-3.368-.058" transform="translate(-63.3 -82.165)" fill="#674a11"/>
      </g>
    </g>
  </g>
</svg>
