<svg xmlns="http://www.w3.org/2000/svg" xmlns:xlink="http://www.w3.org/1999/xlink" width="250" height="250" viewBox="0 0 250 250">
  <defs>
    <clipPath id="clip-path">
      <rect id="Rectángulo_455589" data-name="Rectángulo 455589" width="136.14" height="152.589" fill="#674a11"/>
    </clipPath>
  </defs>
  <g id="Grupo_1190586" data-name="Grupo 1190586" transform="translate(-383.746 -8400)">
    <circle id="Elipse_13609" data-name="Elipse 13609" cx="125" cy="125" r="125" transform="translate(383.746 8400)" fill="#fff"/>
    <g id="Grupo_1190878" data-name="Grupo 1190878" transform="translate(440.676 8442.84)">
      <g id="Grupo_1190877" data-name="Grupo 1190877" clip-path="url(#clip-path)">
        <path id="Trazado_999031" data-name="Trazado 999031" d="M105.484,170.742l-38.323,0a2.807,2.807,0,0,1-2.742-2.794l-.015-40.874a46.306,46.306,0,1,1,43.6.017l-.014,40.849a2.75,2.75,0,0,1-2.5,2.8M86.208,78.1l5.463-.048a8.19,8.19,0,1,0-.55-16.365c-3.086.089-7.568.73-7.6-2.734l-.141-13.481a40.857,40.857,0,0,0-15.395,77.344,2.876,2.876,0,0,1,1.837,2.651l.069,12.563,13.53-.022.039-21.863c-8.942,1.118-16.436-5.194-16.287-13.832.142-8.305,7.521-14.474,16.149-13.228.914-3.661-1.615-10.946,2.891-10.985m.016,32.694a2.634,2.634,0,0,1,2.667,2.7l.057,24.529,13.576.008.07-12.564a2.9,2.9,0,0,1,1.843-2.664,40.842,40.842,0,0,0-15.4-77.314l-.069,10.907c8.969-1.344,16.429,5.174,16.27,13.75-.156,8.386-7.658,14.5-16.291,13.242l-.066,8.279c-.028,3.479-4.629,2.844-7.6,2.746a8.144,8.144,0,0,0-8.674,8.42c.133,4.515,3.8,7.919,8.677,7.941Zm16.335,32.664H69.851V165.3h32.709Z" transform="translate(-18.132 -18.152)" fill="#674a11"/>
        <path id="Trazado_999032" data-name="Trazado 999032" d="M47.335,43.47a2.854,2.854,0,0,1,.2,3.78,2.764,2.764,0,0,1-3.851.211l-7.836-7.817A2.714,2.714,0,0,1,39.676,35.8Z" transform="translate(-15.97 -15.95)" fill="#674a11"/>
        <path id="Trazado_999033" data-name="Trazado 999033" d="M195.311,47.363a2.857,2.857,0,0,1-3.742.147,2.771,2.771,0,0,1-.183-3.86l7.789-7.841a2.8,2.8,0,0,1,3.666-.078,2.762,2.762,0,0,1,.164,3.93Z" transform="translate(-86.735 -15.959)" fill="#674a11"/>
        <path id="Trazado_999034" data-name="Trazado 999034" d="M39.826,202.863a2.8,2.8,0,0,1-3.817.209,2.755,2.755,0,0,1-.17-3.927l7.555-7.605a2.884,2.884,0,0,1,3.89-.246,2.781,2.781,0,0,1,.257,3.784Z" transform="translate(-15.963 -86.72)" fill="#674a11"/>
        <path id="Trazado_999035" data-name="Trazado 999035" d="M202.893,199a2.829,2.829,0,0,1,.2,3.811,2.728,2.728,0,0,1-3.917.184l-7.8-7.826a2.7,2.7,0,0,1,3.753-3.872Z" transform="translate(-86.734 -86.716)" fill="#674a11"/>
        <path id="Trazado_999036" data-name="Trazado 999036" d="M125.331,13.282a2.655,2.655,0,0,1-2.462,2.9,2.586,2.586,0,0,1-2.92-2.64l0-10.889a2.679,2.679,0,0,1,5.359,0Z" transform="translate(-54.558 0)" fill="#674a11"/>
        <path id="Trazado_999037" data-name="Trazado 999037" d="M16.123,121.889c1.072,4.8-7.362,3.527-13.454,3.4a2.636,2.636,0,0,1-2.661-2.936c.112-1.586,1.377-2.464,3.181-2.466l9.842-.009c1.6,0,2.791.662,3.093,2.013" transform="translate(0 -54.526)" fill="#674a11"/>
        <path id="Trazado_999038" data-name="Trazado 999038" d="M236.208,122.379c.306,4.189-7.532,3.174-13.512,2.945a2.627,2.627,0,0,1-2.669-2.46,2.581,2.581,0,0,1,2.64-2.9l10.9-.019a2.559,2.559,0,0,1,2.639,2.435" transform="translate(-100.077 -54.557)" fill="#674a11"/>
      </g>
    </g>
  </g>
</svg>
