<svg xmlns="http://www.w3.org/2000/svg" xmlns:xlink="http://www.w3.org/1999/xlink" width="292" height="311" viewBox="0 0 292 311">
  <defs>
    <clipPath id="clip-path">
      <rect id="Rectángulo_455533" data-name="Rectángulo 455533" width="271.063" height="272.822" fill="none"/>
    </clipPath>
    <clipPath id="clip-path-2">
      <path id="Trazado_998647" data-name="Trazado 998647" d="M140.936,0C95.9.029,49.121,23.529,22.741,64.225c-37.152,57.315-27.3,138.644,18.753,179.716,23.924,21.336,50.947,25.858,60.8,27.376,60.574,9.33,130.424-25.259,156.646-87,17.089-40.238,15.12-90.149-7.788-125.973a125.307,125.307,0,0,0-25.488-28.92C192.254,1.871,154.233.3,144.312.046,143.227.018,142.145,0,141.058,0Z" transform="translate(0 -0.004)" fill="#ffedb1"/>
    </clipPath>
    <clipPath id="clip-path-3">
      <rect id="Rectángulo_455507" data-name="Rectángulo 455507" width="271.063" height="272.821" fill="none"/>
    </clipPath>
    <clipPath id="clip-path-4">
      <rect id="Rectángulo_455506" data-name="Rectángulo 455506" width="63.708" height="138.882" fill="none"/>
    </clipPath>
    <clipPath id="clip-path-5">
      <path id="Trazado_998691" data-name="Trazado 998691" d="M506.567,178.288l-6.573,214.364c-.318,10.381,11.4,18.757,25.417,18.164L672.483,404.6c13.013-.55,23.065-8.667,22.668-18.3L686.726,181.98c-.385-9.34-10.474-16.868-23.1-17.234l-132.074-3.831q-.482-.014-.96-.014c-13,0-23.73,7.687-24.027,17.387" transform="translate(-499.987 -160.901)" fill="#674a11"/>
    </clipPath>
    <clipPath id="clip-path-6">
      <path id="Trazado_998692" data-name="Trazado 998692" d="M583.786,268.727l-6.1,198.985c-.3,9.636,10.583,17.411,23.594,16.861L737.8,478.8c12.079-.511,21.41-8.045,21.042-16.99L751.02,272.154c-.357-8.67-9.722-15.657-21.44-16l-122.6-3.556q-.447-.013-.891-.013c-12.068,0-22.028,7.135-22.3,16.139" transform="translate(-577.679 -252.588)" fill="none"/>
    </clipPath>
    <linearGradient id="linear-gradient" x1="-0.007" y1="0.947" x2="-0.007" y2="0.947" gradientUnits="objectBoundingBox">
      <stop offset="0" stop-color="#ff928e"/>
      <stop offset="1" stop-color="#fe7062"/>
    </linearGradient>
    <clipPath id="clip-path-8">
      <rect id="Rectángulo_455510" data-name="Rectángulo 455510" width="167.88" height="214.99" fill="none"/>
    </clipPath>
    <clipPath id="clip-path-9">
      <path id="Rectángulo_455513" data-name="Rectángulo 455513" d="M37.014,0H140.375a37.014,37.014,0,0,1,37.014,37.014V218.983A37.014,37.014,0,0,1,140.375,256H37.013A37.013,37.013,0,0,1,0,218.984V37.014A37.014,37.014,0,0,1,37.014,0Z" fill="#674a11"/>
    </clipPath>
    <clipPath id="clip-path-11">
      <rect id="Rectángulo_455514" data-name="Rectángulo 455514" width="141.184" height="214.911" fill="none"/>
    </clipPath>
    <clipPath id="clip-path-12">
      <path id="Trazado_998713" data-name="Trazado 998713" d="M1935.749,995.723s.668,29.073,31.237,34.171l5.488-5.417s-26.471-9-33.361-27.809l1.472-9.975-1.037-6.6Z" transform="translate(-1935.749 -980.093)" fill="none"/>
    </clipPath>
    <linearGradient id="linear-gradient-2" x1="-4.95" y1="3.493" x2="-4.947" y2="3.493" gradientUnits="objectBoundingBox">
      <stop offset="0" stop-color="#a22b25"/>
      <stop offset="1" stop-color="#c0423c"/>
    </linearGradient>
    <clipPath id="clip-path-14">
      <path id="Trazado_998715" data-name="Trazado 998715" d="M1480.067,365.539a34.911,34.911,0,1,0,34.911-34.911,34.911,34.911,0,0,0-34.911,34.911" transform="translate(-1480.067 -330.628)" fill="none"/>
    </clipPath>
    <linearGradient id="linear-gradient-3" x1="-1.338" y1="2.603" x2="-1.337" y2="2.603" xlink:href="#linear-gradient"/>
    <clipPath id="clip-path-16">
      <path id="Trazado_998718" data-name="Trazado 998718" d="M2263.644,2089.748s15.321,33.392,23.359,47.223c0,0,1.6,8.7,0,11.439l-1.361.6,6.35-.189s.564-11.706.124-12.36a1.617,1.617,0,0,0-1.322-.611s-2.723-21.571-10.608-26.175l-7.642-26.321Z" transform="translate(-2263.644 -2083.359)" fill="none"/>
    </clipPath>
    <linearGradient id="linear-gradient-4" x1="-7.656" y1="1.052" x2="-7.653" y2="1.052" xlink:href="#linear-gradient-2"/>
    <clipPath id="clip-path-17">
      <path id="Trazado_998719" data-name="Trazado 998719" d="M2468.915,2623.878c.511,2.1.966,7.525-.325,8.157s-5,.743-5,.743-2.627.26-2.712,1.639c-.01.153,4.958.083,7.657.034a2.146,2.146,0,0,0,2.058-1.692l2.038-10.707a1.926,1.926,0,0,0-1.462-2.237l-1.138-.26s-1.623,2.226-1.112,4.322" transform="translate(-2460.873 -2619.556)" fill="#12263f"/>
    </clipPath>
    <clipPath id="clip-path-18">
      <path id="Trazado_998720" data-name="Trazado 998720" d="M2120.4,2719.454l-4.523,2.577a.56.56,0,0,0,.283,1.047c4.516-.045,14.635-.188,15.535-.562,1.161-.483-.423-4.655-2.09-6.066Z" transform="translate(-2115.596 -2716.45)" fill="#12263f"/>
    </clipPath>
    <clipPath id="clip-path-19">
      <path id="Trazado_998721" data-name="Trazado 998721" d="M2117.425,2184.154l-6.625,4.158s3.32-.564,5.782-.743,4.727-3,4.727-3l-.794-1.266s-2.483-47.635-1.879-53.044l-12.239-3.339s8.227,47.9,11.028,57.239" transform="translate(-2106.397 -2126.915)" fill="none"/>
    </clipPath>
    <linearGradient id="linear-gradient-5" x1="-13.814" y1="1.056" x2="-13.807" y2="1.056" xlink:href="#linear-gradient-2"/>
    <clipPath id="clip-path-20">
      <path id="Trazado_998722" data-name="Trazado 998722" d="M1615,976.683l.215,2.358a7.836,7.836,0,0,0,3.888,6.075l5.791,3.34a3.392,3.392,0,0,1,1.785,2.186c6.488,36.764,33.946,37.183,33.946,37.183l1.046-13.56c-28.285-1.4-32.545-28.505-32.545-28.505l2.167-3.579-1.213.545a4.6,4.6,0,0,1-5.235-1.038l-3.6-3.816a8.015,8.015,0,0,0-4.313-2.367l-.518-.1a1.189,1.189,0,0,0-1.411,1.278" transform="translate(-1614.997 -975.383)" fill="none"/>
    </clipPath>
    <linearGradient id="linear-gradient-6" x1="-2.451" y1="2.829" x2="-2.449" y2="2.829" xlink:href="#linear-gradient-2"/>
    <clipPath id="clip-path-21">
      <path id="Trazado_998723" data-name="Trazado 998723" d="M1995.935,1350.726l-3.913,11.971a2.186,2.186,0,0,0,.866,2.5l.8.534c-.584,1.735-1.351,3.539-.321,5.051,3.569,5.237,8.092,15.741,8.092,15.741l16.067.072-.392-4.536,4.928-27.809c-8.026.138-20.883-3.244-24.678-4.3a1.193,1.193,0,0,0-1.452.774" transform="translate(-1991.914 -1349.909)" fill="none"/>
    </clipPath>
    <linearGradient id="linear-gradient-7" x1="-4.029" y1="3.075" x2="-4.027" y2="3.075" xlink:href="#linear-gradient"/>
    <clipPath id="clip-path-22">
      <path id="Trazado_998724" data-name="Trazado 998724" d="M2075.635,1694.914l.316,2.748s-2.366,20.036,4.445,51.8a35.021,35.021,0,0,0,26.374-7.443s-5.095-34.791-6.029-36.187c-4.653-6.955-7.752-8.467-7.752-8.467l-.14-3s-12.967,2.344-17.215.557" transform="translate(-2075.554 -1694.357)" fill="#743320"/>
    </clipPath>
    <clipPath id="clip-path-23">
      <path id="Trazado_998725" data-name="Trazado 998725" d="M2176.122,1223.99l-.76,8.935a2.105,2.105,0,0,0,2.1,2.284h6.772l-2.254-17.124Z" transform="translate(-2175.354 -1218.084)" fill="none"/>
    </clipPath>
    <linearGradient id="linear-gradient-8" x1="-17.385" y1="8.327" x2="-17.377" y2="8.327" xlink:href="#linear-gradient-2"/>
    <clipPath id="clip-path-24">
      <path id="Trazado_998726" data-name="Trazado 998726" d="M2137.36,1097.328c-.286.255-9.535,6.1-5.6,16.078a1.971,1.971,0,0,0,1.345,1.192,17.134,17.134,0,0,0,8.617-.069c5.128-1.437,6.966-11.141,6.36-13.766-.454-1.967-4.654-4.336-7.925-4.336a4.115,4.115,0,0,0-2.8.9" transform="translate(-2130.789 -1096.427)" fill="none"/>
    </clipPath>
    <linearGradient id="linear-gradient-9" x1="-8.99" y1="7.858" x2="-8.986" y2="7.858" xlink:href="#linear-gradient-2"/>
    <clipPath id="clip-path-25">
      <path id="Trazado_998727" data-name="Trazado 998727" d="M2140.925,1066.931c.568,3.677,5.828,3.781,7.287,8.989.75,2.678-1.317,5.7-1.97,11.794-.3,2.808-1.4,7.989,1.5,11.745,1.653,2.146,4.281,5.149,7.04,6.6,6.5,3.41,5,8.3,9.832,11.241,5.055,3.083,16.717-2.076,19.571-12.2,2.061-7.307-.008-16.358-4.3-19.9-2.936-2.418-5.913-2.345-8.69-2.272-2.85.075-5.489.15-7.656-2.469-2.639-3.191-3.47-2.9-4.595-10.073-.5-3.195-1.771-10.608-8.954-12.156a4.733,4.733,0,0,0-1-.106c-4.321,0-8.538,5.693-8.058,8.8" transform="translate(-2140.888 -1058.13)" fill="#12263f"/>
    </clipPath>
    <clipPath id="clip-path-27">
      <rect id="Rectángulo_455530" data-name="Rectángulo 455530" width="10.388" height="18.383" fill="none"/>
    </clipPath>
    <clipPath id="clip-path-28">
      <rect id="Rectángulo_455531" data-name="Rectángulo 455531" width="9.396" height="8.855" fill="none"/>
    </clipPath>
  </defs>
  <g id="Grupo_1190795" data-name="Grupo 1190795" transform="translate(-184.63 -326)">
    <rect id="Rectángulo_454990" data-name="Rectángulo 454990" width="292" height="311" transform="translate(184.63 326)" fill="none"/>
    <g id="Grupo_1190794" data-name="Grupo 1190794" transform="translate(195.099 345.09)">
      <g id="Grupo_1190793" data-name="Grupo 1190793" clip-path="url(#clip-path)">
        <g id="Grupo_1190735" data-name="Grupo 1190735" transform="translate(0 0)">
          <g id="Grupo_1190734" data-name="Grupo 1190734" clip-path="url(#clip-path-2)">
            <rect id="Rectángulo_455505" data-name="Rectángulo 455505" width="402.465" height="403.387" transform="matrix(0.659, -0.753, 0.753, 0.659, -153.491, 158.949)" fill="#ffedb1"/>
          </g>
        </g>
        <g id="Grupo_1190740" data-name="Grupo 1190740" transform="translate(0 0)">
          <g id="Grupo_1190739" data-name="Grupo 1190739" clip-path="url(#clip-path-3)">
            <path id="Trazado_998648" data-name="Trazado 998648" d="M2078.608,1028.3a3.238,3.238,0,0,0-3.176-3.187H2010a3.388,3.388,0,0,0-3.279,3.318v156.809a3.265,3.265,0,0,0,3.262,3.177l68.392-.187a3.192,3.192,0,0,0,2.268-.955,3.263,3.263,0,0,0,.909-2.317Z" transform="translate(-1810.486 -924.866)" fill="#ffd54e"/>
            <g id="Grupo_1190738" data-name="Grupo 1190738" transform="translate(200.934 106.477)" opacity="0.5">
              <g id="Grupo_1190737" data-name="Grupo 1190737">
                <g id="Grupo_1190736" data-name="Grupo 1190736" clip-path="url(#clip-path-4)">
                  <path id="Trazado_998649" data-name="Trazado 998649" d="M2072.107,1088.87H2055.2c-.5,0-.381.878-.381,1.416v3.06c0,.538-.122,1.434.381,1.434h16.907c.5,0,.77-.9.77-1.434v-3.06c0-.538-.267-1.416-.77-1.416" transform="translate(-2054.807 -1088.87)" fill="#fff"/>
                  <path id="Trazado_998650" data-name="Trazado 998650" d="M2300.846,1088.87h-16.908c-.5,0-.684.878-.684,1.416v3.06c0,.538.181,1.434.684,1.434h16.908c.5,0,.466-.9.466-1.434v-3.06c0-.538.036-1.416-.466-1.416" transform="translate(-2260.915 -1088.87)" fill="#fff"/>
                  <path id="Trazado_998651" data-name="Trazado 998651" d="M2526.435,1088.87h-16.907a1.834,1.834,0,0,0-1.317,1.416v3.06a1.858,1.858,0,0,0,1.317,1.434h16.907c.5,0,1.147-.9,1.147-1.434v-3.06c0-.538-.644-1.416-1.147-1.416" transform="translate(-2463.874 -1088.87)" fill="#fff"/>
                  <path id="Trazado_998652" data-name="Trazado 998652" d="M2072.107,1222.986H2055.2c-.5,0-.381-.153-.381.385v3.06c0,.538-.122,1.48.381,1.48h16.907c.5,0,.77-.942.77-1.48v-3.06c0-.538-.267-.385-.77-.385" transform="translate(-2054.807 -1209.853)" fill="#fff"/>
                  <path id="Trazado_998653" data-name="Trazado 998653" d="M2300.846,1222.986h-16.908c-.5,0-.684-.153-.684.385v3.06c0,.538.181,1.48.684,1.48h16.908c.5,0,.466-.942.466-1.48v-3.06c0-.538.036-.385-.466-.385" transform="translate(-2260.915 -1209.853)" fill="#fff"/>
                  <path id="Trazado_998654" data-name="Trazado 998654" d="M2526.435,1222.986h-16.907c-.5,0-1.317-.153-1.317.385v3.06c0,.538.814,1.48,1.317,1.48h16.907c.5,0,1.147-.942,1.147-1.48v-3.06c0-.538-.644-.385-1.147-.385" transform="translate(-2463.874 -1209.853)" fill="#fff"/>
                  <path id="Trazado_998655" data-name="Trazado 998655" d="M2072.107,1340.687H2055.2c-.5,0-.381.458-.381,1v3.06c0,.538-.122,1.2.381,1.2h16.907c.5,0,.77-.66.77-1.2v-3.06c0-.538-.267-1-.77-1" transform="translate(-2054.807 -1316.063)" fill="#fff"/>
                  <path id="Trazado_998656" data-name="Trazado 998656" d="M2300.846,1340.687h-16.908c-.5,0-.684.458-.684,1v3.06c0,.538.181,1.2.684,1.2h16.908c.5,0,.466-.66.466-1.2v-3.06c0-.538.036-1-.466-1" transform="translate(-2260.915 -1316.063)" fill="#fff"/>
                  <path id="Trazado_998657" data-name="Trazado 998657" d="M2526.435,1340.687h-16.907c-.5,0-1.317.458-1.317,1v3.06c0,.538.814,1.2,1.317,1.2h16.907a1.384,1.384,0,0,0,1.147-1.2v-3.06a1.183,1.183,0,0,0-1.147-1" transform="translate(-2463.874 -1316.063)" fill="#fff"/>
                  <path id="Trazado_998658" data-name="Trazado 998658" d="M2072.107,1468.274H2055.2c-.5,0-.381.084-.381.621v3.06c0,.538-.122,1.243.381,1.243h16.907c.5,0,.77-.706.77-1.243v-3.06c0-.538-.267-.621-.77-.621" transform="translate(-2054.807 -1431.173)" fill="#fff"/>
                  <path id="Trazado_998659" data-name="Trazado 998659" d="M2300.846,1468.274h-16.908c-.5,0-.684.084-.684.621v3.06c0,.538.181,1.243.684,1.243h16.908c.5,0,.466-.706.466-1.243v-3.06c0-.538.036-.621-.466-.621" transform="translate(-2260.915 -1431.173)" fill="#fff"/>
                  <path id="Trazado_998660" data-name="Trazado 998660" d="M2526.435,1468.274h-16.907c-.5,0-1.317.084-1.317.621v3.06a1.623,1.623,0,0,0,1.317,1.243h16.907a1.436,1.436,0,0,0,1.147-1.243v-3.06c0-.538-.644-.621-1.147-.621" transform="translate(-2463.874 -1431.173)" fill="#fff"/>
                  <path id="Trazado_998661" data-name="Trazado 998661" d="M2072.107,1585.789H2055.2c-.5,0-.381.694-.381,1.232v3.06c0,.538-.122.961.381.961h16.907c.5,0,.77-.423.77-.961v-3.06c0-.538-.267-1.232-.77-1.232" transform="translate(-2054.807 -1537.197)" fill="#fff"/>
                  <path id="Trazado_998662" data-name="Trazado 998662" d="M2300.846,1585.789h-16.908c-.5,0-.684.694-.684,1.232v3.06c0,.538.181.961.684.961h16.908c.5,0,.466-.423.466-.961v-3.06c0-.538.036-1.232-.466-1.232" transform="translate(-2260.915 -1537.197)" fill="#fff"/>
                  <path id="Trazado_998663" data-name="Trazado 998663" d="M2526.435,1585.789h-16.907a1.61,1.61,0,0,0-1.317,1.232v3.06c0,.538.814.961,1.317.961h16.907c.5,0,1.147-.423,1.147-.961v-3.06a1.423,1.423,0,0,0-1.147-1.232" transform="translate(-2463.874 -1537.197)" fill="#fff"/>
                  <path id="Trazado_998664" data-name="Trazado 998664" d="M2072.107,1713.377H2055.2c-.5,0-.381.32-.381.858v3.06c0,.538-.122,1.007.381,1.007h16.907c.5,0,.77-.469.77-1.007v-3.06c0-.538-.267-.858-.77-.858" transform="translate(-2054.807 -1652.308)" fill="#fff"/>
                  <path id="Trazado_998665" data-name="Trazado 998665" d="M2300.846,1713.377h-16.908c-.5,0-.684.32-.684.858v3.06c0,.538.181,1.007.684,1.007h16.908c.5,0,.466-.469.466-1.007v-3.06c0-.538.036-.858-.466-.858" transform="translate(-2260.915 -1652.308)" fill="#fff"/>
                  <path id="Trazado_998666" data-name="Trazado 998666" d="M2526.435,1713.377h-16.907c-.5,0-1.317.32-1.317.858v3.06c0,.538.814,1.007,1.317,1.007h16.907a1.193,1.193,0,0,0,1.147-1.007v-3.06c0-.538-.644-.858-1.147-.858" transform="translate(-2463.874 -1652.308)" fill="#fff"/>
                  <path id="Trazado_998667" data-name="Trazado 998667" d="M2072.107,1830.891H2055.2c-.5,0-.381.931-.381,1.469v3.06c0,.538-.122,1.381.381,1.381h16.907c.5,0,.77-.843.77-1.381v-3.06c0-.538-.267-1.469-.77-1.469" transform="translate(-2054.807 -1758.331)" fill="#fff"/>
                  <path id="Trazado_998668" data-name="Trazado 998668" d="M2300.846,1830.891h-16.908c-.5,0-.684.931-.684,1.469v3.06c0,.538.181,1.381.684,1.381h16.908c.5,0,.466-.843.466-1.381v-3.06c0-.538.036-1.469-.466-1.469" transform="translate(-2260.915 -1758.331)" fill="#fff"/>
                  <path id="Trazado_998669" data-name="Trazado 998669" d="M2526.435,1830.891h-16.907c-.5,0-1.317.931-1.317,1.469v3.06a1.789,1.789,0,0,0,1.317,1.381h16.907c.5,0,1.147-.843,1.147-1.381v-3.06c0-.538-.644-1.469-1.147-1.469" transform="translate(-2463.874 -1758.331)" fill="#fff"/>
                  <path id="Trazado_998670" data-name="Trazado 998670" d="M2072.107,1958.479H2055.2c-.5,0-.381.556-.381,1.094v3.06c0,.538-.122,1.755.381,1.755h16.907c.5,0,.77-1.218.77-1.755v-3.06c0-.538-.267-1.094-.77-1.094" transform="translate(-2054.807 -1873.442)" fill="#fff"/>
                  <path id="Trazado_998671" data-name="Trazado 998671" d="M2300.846,1958.479h-16.908c-.5,0-.684.556-.684,1.094v3.06c0,.538.181,1.755.684,1.755h16.908c.5,0,.466-1.218.466-1.755v-3.06c0-.538.036-1.094-.466-1.094" transform="translate(-2260.915 -1873.442)" fill="#fff"/>
                  <path id="Trazado_998672" data-name="Trazado 998672" d="M2526.435,1958.479h-16.907c-.5,0-1.317.556-1.317,1.094v3.06c0,.538.814,1.755,1.317,1.755h16.907c.5,0,1.147-1.218,1.147-1.755v-3.06a1.276,1.276,0,0,0-1.147-1.094" transform="translate(-2463.874 -1873.442)" fill="#fff"/>
                  <path id="Trazado_998673" data-name="Trazado 998673" d="M2072.107,2079.351H2055.2c-.5,0-.381.839-.381,1.376v3.06c0,.538-.122,1.145.381,1.145h16.907c.5,0,.77-.607.77-1.145v-3.06c0-.538-.267-1.376-.77-1.376" transform="translate(-2054.807 -1982.495)" fill="#fff"/>
                  <path id="Trazado_998674" data-name="Trazado 998674" d="M2300.846,2079.351h-16.908c-.5,0-.684.839-.684,1.376v3.06c0,.538.181,1.145.684,1.145h16.908c.5,0,.466-.607.466-1.145v-3.06c0-.538.036-1.376-.466-1.376" transform="translate(-2260.915 -1982.495)" fill="#fff"/>
                  <path id="Trazado_998675" data-name="Trazado 998675" d="M2526.435,2079.351h-16.907a1.783,1.783,0,0,0-1.317,1.376v3.06c0,.538.814,1.145,1.317,1.145h16.907a1.327,1.327,0,0,0,1.147-1.145v-3.06c0-.538-.644-1.376-1.147-1.376" transform="translate(-2463.874 -1982.495)" fill="#fff"/>
                  <path id="Trazado_998676" data-name="Trazado 998676" d="M2072.107,2210.3H2055.2c-.5,0-.381.136-.381.674v3.061c0,.538-.122,1.519.381,1.519h16.907c.5,0,.77-.981.77-1.519v-3.061c0-.538-.267-.674-.77-.674" transform="translate(-2054.807 -2100.635)" fill="#fff"/>
                  <path id="Trazado_998677" data-name="Trazado 998677" d="M2300.846,2210.3h-16.908c-.5,0-.684.136-.684.674v3.061c0,.538.181,1.519.684,1.519h16.908c.5,0,.466-.981.466-1.519v-3.061c0-.538.036-.674-.466-.674" transform="translate(-2260.915 -2100.635)" fill="#fff"/>
                  <path id="Trazado_998678" data-name="Trazado 998678" d="M2526.435,2210.3h-16.907c-.5,0-1.317.136-1.317.674v3.061c0,.538.814,1.519,1.317,1.519h16.907c.5,0,1.147-.981,1.147-1.519v-3.061c0-.538-.644-.674-1.147-.674" transform="translate(-2463.874 -2100.635)" fill="#fff"/>
                  <path id="Trazado_998679" data-name="Trazado 998679" d="M2072.107,2337.4H2055.2c-.5,0-.381-.238-.381.3v3.06c0,.538-.122.908.381.908h16.907c.5,0,.77-.37.77-.908v-3.06c0-.538-.267-.3-.77-.3" transform="translate(-2054.807 -2215.262)" fill="#fff"/>
                  <path id="Trazado_998680" data-name="Trazado 998680" d="M2300.846,2337.4h-16.908c-.5,0-.684-.238-.684.3v3.06c0,.538.181.908.684.908h16.908c.5,0,.466-.37.466-.908v-3.06c0-.538.036-.3-.466-.3" transform="translate(-2260.915 -2215.262)" fill="#fff"/>
                  <path id="Trazado_998681" data-name="Trazado 998681" d="M2526.435,2337.4h-16.907c-.5,0-1.317-.238-1.317.3v3.06c0,.538.814.908,1.317.908h16.907c.5,0,1.147-.37,1.147-.908v-3.06c0-.538-.644-.3-1.147-.3" transform="translate(-2463.874 -2215.262)" fill="#fff"/>
                  <path id="Trazado_998682" data-name="Trazado 998682" d="M2072.107,2455.4H2055.2c-.5,0-.381.373-.381.91v3.06c0,.538-.122,1.282.381,1.282h16.907c.5,0,.77-.745.77-1.282v-3.06c0-.538-.267-.91-.77-.91" transform="translate(-2054.807 -2321.769)" fill="#fff"/>
                  <path id="Trazado_998683" data-name="Trazado 998683" d="M2300.846,2455.4h-16.908c-.5,0-.684.373-.684.91v3.06c0,.538.181,1.282.684,1.282h16.908c.5,0,.466-.745.466-1.282v-3.06c0-.538.036-.91-.466-.91" transform="translate(-2260.915 -2321.769)" fill="#fff"/>
                  <path id="Trazado_998684" data-name="Trazado 998684" d="M2526.435,2455.4h-16.907c-.5,0-1.317.373-1.317.91v3.06a1.668,1.668,0,0,0,1.317,1.282h16.907a1.482,1.482,0,0,0,1.147-1.282v-3.06c0-.538-.644-.91-1.147-.91" transform="translate(-2463.874 -2321.769)" fill="#fff"/>
                </g>
              </g>
            </g>
            <path id="Trazado_998685" data-name="Trazado 998685" d="M103.168,183.285c-11.925,2.93-27.86-9.514-33.434-23.627C64,145.135,73.066,138.551,72.1,118.093,71,94.854,58.761,91.879,49.4,60.9c-2.113-6.99-14.34-47.439-1.733-55.671,11.657-7.611,46.155,11.267,53.183,37.05,5.011,18.385-7.634,26.747-1.731,48.157,5.18,18.786,16.628,18.561,21.809,36.677,6.307,22.055-2.1,52.326-17.756,56.173" transform="translate(-37.929 -3.18)" fill="#ffd54e"/>
            <path id="Trazado_998686" data-name="Trazado 998686" d="M383.727,552.941c2.15-25.184-5.863-63.542-12.963-91.286-7.687-30.038-15.99-54.45-16.073-54.693l-.988.337c.083.243,8.374,24.623,16.051,54.622,7.079,27.663,15.07,65.895,12.932,90.931Z" transform="translate(-319.115 -367.167)" fill="#674a11"/>
            <path id="Trazado_998687" data-name="Trazado 998687" d="M70.9,1350.724c16.241-7.635,22.847-35.865,14.186-45.481-5.852-6.5-14.88-.284-23.064-7.106-10.45-8.71-1.877-23.96-9.533-44.5-6.515-17.484-23.164-34.457-33.419-31.533-10.734,3.06-17.372,28.752-8.965,44.721,5.467,10.385,14.451,11.251,16.018,20.766,1.819,11.04-9.336,15.585-9.829,26.2-.887,19.061,33.121,47.042,54.606,36.941" transform="translate(-5.679 -1102.296)" fill="#ffdc6b"/>
            <path id="Trazado_998688" data-name="Trazado 998688" d="M353.428,1716.832a.648.648,0,0,0,.62-.907c-19.305-44.3-23.427-94.95-23.466-95.457a.648.648,0,1,0-1.292.1c.04.509,4.178,51.374,23.57,95.874a.648.648,0,0,0,.568.389" transform="translate(-297.087 -1461.468)" fill="#674a11"/>
            <path id="Trazado_998689" data-name="Trazado 998689" d="M65.56,1321.288a.31.31,0,0,0,.265-.49c-6.305-8.813-13.155-21.947-9.984-34.467a22.149,22.149,0,0,1,6.546-11.234.31.31,0,1,0-.386-.484,22.387,22.387,0,0,0-6.76,11.566c-1.782,7.037-1.481,18.818,10.081,34.979a.309.309,0,0,0,.239.129" transform="translate(-49.11 -1149.912)" fill="#f0f0f0"/>
            <path id="Trazado_998690" data-name="Trazado 998690" d="M680.459,2108.6a.309.309,0,0,0,.261-.124c10.836-14.506,14.8-25.9,11.766-33.852-2.693-7.073-10.158-8.674-10.233-8.69a.31.31,0,0,0-.124.607c.072.015,7.214,1.556,9.781,8.311,2.943,7.745-.989,18.932-11.686,33.253a.309.309,0,0,0,.235.495" transform="translate(-613.651 -1863.911)" fill="#f0f0f0"/>
          </g>
        </g>
        <g id="Grupo_1190742" data-name="Grupo 1190742" transform="translate(48.892 15.734)">
          <g id="Grupo_1190741" data-name="Grupo 1190741" clip-path="url(#clip-path-5)">
            <rect id="Rectángulo_455508" data-name="Rectángulo 455508" width="264.671" height="299.369" transform="translate(-75.044 24.737) rotate(-18.315)" fill="#674a11"/>
          </g>
        </g>
        <g id="Grupo_1190744" data-name="Grupo 1190744" transform="translate(56.49 24.7)">
          <g id="Grupo_1190743" data-name="Grupo 1190743" clip-path="url(#clip-path-6)">
            <rect id="Rectángulo_455509" data-name="Rectángulo 455509" width="289.895" height="294.749" transform="matrix(0.753, -0.658, 0.658, 0.753, -115.492, 100.566)" fill="url(#linear-gradient)"/>
          </g>
        </g>
        <g id="Grupo_1190749" data-name="Grupo 1190749" transform="translate(0 0)">
          <g id="Grupo_1190748" data-name="Grupo 1190748" clip-path="url(#clip-path-3)">
            <g id="Grupo_1190747" data-name="Grupo 1190747" transform="translate(62.54 30.743)" opacity="0.2">
              <g id="Grupo_1190746" data-name="Grupo 1190746">
                <g id="Grupo_1190745" data-name="Grupo 1190745" clip-path="url(#clip-path-8)">
                  <path id="Trazado_998693" data-name="Trazado 998693" d="M666.7,314.4l113.6,3.3c10.858.315,19.536,6.79,19.867,14.824l7.247,175.744c.342,8.289-8.3,15.271-19.5,15.743l-126.505,5.347c-12.056.509-22.136-6.695-21.863-15.624l5.654-184.386c.262-8.548,9.943-15.278,21.493-14.943" transform="translate(-639.549 -314.388)" fill="#fff"/>
                </g>
              </g>
            </g>
          </g>
        </g>
        <g id="Grupo_1190751" data-name="Grupo 1190751" transform="translate(76.722 8.983)">
          <g id="Grupo_1190750" data-name="Grupo 1190750" clip-path="url(#clip-path-9)">
            <rect id="Rectángulo_455512" data-name="Rectángulo 455512" width="177.389" height="255.997" transform="translate(0 0)" fill="#674a11"/>
          </g>
        </g>
        <g id="Grupo_1190756" data-name="Grupo 1190756" transform="translate(0 0)">
          <g id="Grupo_1190755" data-name="Grupo 1190755" clip-path="url(#clip-path-3)">
            <path id="Trazado_998694" data-name="Trazado 998694" d="M1011.772,404.28H854.394a3.62,3.62,0,0,1-3.62-3.62V164.641a3.619,3.619,0,0,1,3.62-3.62h157.379a3.619,3.619,0,0,1,3.619,3.62V400.66a3.62,3.62,0,0,1-3.619,3.62" transform="translate(-767.579 -145.276)" fill="#8dcdc1"/>
            <path id="Trazado_998695" data-name="Trazado 998695" d="M808.655,199.7a.493.493,0,0,1-.492-.492v-57.3a13.459,13.459,0,0,1,13.443-13.443h43.38a.492.492,0,1,1,0,.985h-43.38a12.472,12.472,0,0,0-12.458,12.458v57.3a.493.493,0,0,1-.492.492" transform="translate(-729.135 -115.904)" fill="#bdd0fb"/>
            <path id="Trazado_998696" data-name="Trazado 998696" d="M808.655,978.841a.493.493,0,0,1-.492-.492V938.783a.492.492,0,0,1,.985,0v39.565a.493.493,0,0,1-.492.492" transform="translate(-729.135 -846.538)" fill="#bdd0fb"/>
            <g id="Grupo_1190754" data-name="Grupo 1190754" transform="translate(93.099 26.618)" opacity="0.7">
              <g id="Grupo_1190753" data-name="Grupo 1190753">
                <g id="Grupo_1190752" data-name="Grupo 1190752" clip-path="url(#clip-path-11)">
                  <path id="Trazado_998697" data-name="Trazado 998697" d="M1029.85,290.362H953.106a1.046,1.046,0,0,1-1.046-1.046V273.255a1.046,1.046,0,0,1,1.046-1.046h76.744a1.045,1.045,0,0,1,1.045,1.046v16.062a1.045,1.045,0,0,1-1.045,1.046" transform="translate(-952.06 -272.209)" fill="#fff"/>
                  <path id="Trazado_998698" data-name="Trazado 998698" d="M1029.964,598.055H999.6a.655.655,0,0,1-.655-.655V571.2a.655.655,0,0,1,.655-.655h30.36a.655.655,0,0,1,.655.655v26.2a.655.655,0,0,1-.655.655" transform="translate(-994.363 -541.37)" fill="#fff"/>
                  <path id="Trazado_998699" data-name="Trazado 998699" d="M1506.395,579.083h-95.8a.286.286,0,0,1-.286-.286V570.83a.286.286,0,0,1,.286-.286h95.8a.286.286,0,0,1,.286.286V578.8a.286.286,0,0,1-.286.286" transform="translate(-1365.496 -541.371)" fill="#fff"/>
                  <path id="Trazado_998700" data-name="Trazado 998700" d="M1484.375,707.893h-73.457a.612.612,0,0,1-.612-.612v-7.315a.612.612,0,0,1,.612-.612h73.457a.612.612,0,0,1,.612.612v7.315a.612.612,0,0,1-.612.612" transform="translate(-1365.496 -657.585)" fill="#fff"/>
                  <path id="Trazado_998701" data-name="Trazado 998701" d="M1025.052,1027.69h-30.36a.655.655,0,0,1-.655-.655v-26.2a.655.655,0,0,1,.655-.655h30.36a.655.655,0,0,1,.655.655v26.2a.655.655,0,0,1-.655.655" transform="translate(-989.932 -928.992)" fill="#fff"/>
                  <path id="Trazado_998702" data-name="Trazado 998702" d="M1501.484,1008.718h-95.8a.286.286,0,0,1-.286-.286v-7.967a.286.286,0,0,1,.286-.286h95.8a.286.286,0,0,1,.286.286v7.967a.286.286,0,0,1-.286.286" transform="translate(-1361.065 -928.993)" fill="#fff"/>
                  <path id="Trazado_998703" data-name="Trazado 998703" d="M1479.464,1137.528h-73.457a.612.612,0,0,1-.612-.612V1129.6a.612.612,0,0,1,.612-.612h73.457a.612.612,0,0,1,.612.612v7.316a.612.612,0,0,1-.612.612" transform="translate(-1361.065 -1045.207)" fill="#fff"/>
                  <path id="Trazado_998704" data-name="Trazado 998704" d="M1025.052,1423.129h-30.36a.655.655,0,0,1-.655-.655v-26.2a.655.655,0,0,1,.655-.655h30.36a.655.655,0,0,1,.655.655v26.2a.655.655,0,0,1-.655.655" transform="translate(-989.932 -1285.762)" fill="#fff"/>
                  <path id="Trazado_998705" data-name="Trazado 998705" d="M1501.484,1404.157h-95.8a.286.286,0,0,1-.286-.286V1395.9a.286.286,0,0,1,.286-.286h95.8a.286.286,0,0,1,.286.286v7.967a.286.286,0,0,1-.286.286" transform="translate(-1361.065 -1285.763)" fill="#fff"/>
                  <path id="Trazado_998706" data-name="Trazado 998706" d="M1479.464,1532.968h-73.457a.612.612,0,0,1-.612-.612v-7.316a.612.612,0,0,1,.612-.612h73.457a.612.612,0,0,1,.612.612v7.316a.612.612,0,0,1-.612.612" transform="translate(-1361.065 -1401.978)" fill="#fff"/>
                  <path id="Trazado_998707" data-name="Trazado 998707" d="M1025.052,1820.676h-30.36a.655.655,0,0,1-.655-.655v-26.2a.655.655,0,0,1,.655-.655h30.36a.655.655,0,0,1,.655.655v26.2a.655.655,0,0,1-.655.655" transform="translate(-989.932 -1644.434)" fill="#fff"/>
                  <path id="Trazado_998708" data-name="Trazado 998708" d="M1501.484,1801.7h-95.8a.286.286,0,0,1-.286-.286v-7.968a.286.286,0,0,1,.286-.286h95.8a.286.286,0,0,1,.286.286v7.968a.286.286,0,0,1-.286.286" transform="translate(-1361.065 -1644.434)" fill="#fff"/>
                  <path id="Trazado_998709" data-name="Trazado 998709" d="M1479.464,1930.513h-73.457a.612.612,0,0,1-.612-.612v-7.316a.612.612,0,0,1,.612-.612h73.457a.612.612,0,0,1,.612.612v7.316a.612.612,0,0,1-.612.612" transform="translate(-1361.065 -1760.648)" fill="#fff"/>
                  <path id="Trazado_998710" data-name="Trazado 998710" d="M1025.052,2216.115h-30.36a.655.655,0,0,1-.655-.655v-26.2a.655.655,0,0,1,.655-.655h30.36a.655.655,0,0,1,.655.655v26.2a.655.655,0,0,1-.655.655" transform="translate(-989.932 -2001.204)" fill="#fff"/>
                  <path id="Trazado_998711" data-name="Trazado 998711" d="M1501.484,2197.142h-95.8a.286.286,0,0,1-.286-.286v-7.967a.286.286,0,0,1,.286-.286h95.8a.286.286,0,0,1,.286.286v7.967a.286.286,0,0,1-.286.286" transform="translate(-1361.065 -2001.204)" fill="#fff"/>
                  <path id="Trazado_998712" data-name="Trazado 998712" d="M1479.464,2325.952h-73.457a.612.612,0,0,1-.612-.612v-7.315a.612.612,0,0,1,.612-.612h73.457a.612.612,0,0,1,.612.612v7.315a.612.612,0,0,1-.612.612" transform="translate(-1361.065 -2117.418)" fill="#fff"/>
                </g>
              </g>
            </g>
          </g>
        </g>
        <g id="Grupo_1190758" data-name="Grupo 1190758" transform="translate(189.292 95.841)">
          <g id="Grupo_1190757" data-name="Grupo 1190757" clip-path="url(#clip-path-12)">
            <rect id="Rectángulo_455516" data-name="Rectángulo 455516" width="38.103" height="50.809" transform="matrix(1, -0.028, 0.028, 1, -1.392, 0.039)" fill="url(#linear-gradient-2)"/>
          </g>
        </g>
        <g id="Grupo_1190760" data-name="Grupo 1190760" transform="translate(0 0)">
          <g id="Grupo_1190759" data-name="Grupo 1190759" clip-path="url(#clip-path-3)">
            <path id="Trazado_998714" data-name="Trazado 998714" d="M1511.5,328.531a39.218,39.218,0,1,1-39.218-39.218,39.218,39.218,0,0,1,39.218,39.218" transform="translate(-1292.924 -261.022)" fill="#fff"/>
          </g>
        </g>
        <g id="Grupo_1190762" data-name="Grupo 1190762" transform="translate(144.732 32.331)">
          <g id="Grupo_1190761" data-name="Grupo 1190761" clip-path="url(#clip-path-14)">
            <rect id="Rectángulo_455518" data-name="Rectángulo 455518" width="97.751" height="97.751" transform="matrix(0.6, -0.8, 0.8, 0.6, -33.515, 44.686)" fill="url(#linear-gradient-3)"/>
          </g>
        </g>
        <g id="Grupo_1190764" data-name="Grupo 1190764" transform="translate(0 0)">
          <g id="Grupo_1190763" data-name="Grupo 1190763" clip-path="url(#clip-path-3)">
            <path id="Trazado_998716" data-name="Trazado 998716" d="M1731.149,637.4c-1.723-.124-7.172-1.128-7.109-8.752l.184-22.445c0-.285-.015-.431-.318-.426l-18.511.333c-.311.006-.567.159-.573.448l-.026,1.2a.515.515,0,0,0,.514.513c1.77.08,7.382.609,7.268,4.147-.136,4.219-.354,21.6-.354,21.6s-.133,3.813-6.662,4.2a.554.554,0,0,0-.52.569l-.032,1.519c-.007.3.132.543.45.529l25.65-1.119c.307-.013.718-.272.719-.57l0-1.243c0-.273-.4-.484-.684-.5" transform="translate(-1538.089 -546.539)" fill="#fff"/>
            <path id="Trazado_998717" data-name="Trazado 998717" d="M1759.432,415.55c4.555-.065,8.25-3.549,8.28-7.758.03-4.184-3.576-7.547-8.081-7.533-4.535.013-8.3,3.439-8.38,7.675-.081,4.262,3.594,7.682,8.18,7.616" transform="translate(-1580 -361.119)" fill="#fff"/>
          </g>
        </g>
        <g id="Grupo_1190766" data-name="Grupo 1190766" transform="translate(221.356 203.726)">
          <g id="Grupo_1190765" data-name="Grupo 1190765" clip-path="url(#clip-path-16)">
            <rect id="Rectángulo_455520" data-name="Rectángulo 455520" width="28.912" height="65.656" fill="url(#linear-gradient-4)"/>
          </g>
        </g>
        <g id="Grupo_1190768" data-name="Grupo 1190768" transform="translate(240.642 256.159)">
          <g id="Grupo_1190767" data-name="Grupo 1190767" clip-path="url(#clip-path-17)">
            <rect id="Rectángulo_455521" data-name="Rectángulo 455521" width="16.658" height="14.1" transform="translate(-2.266 14.668) rotate(-81.254)" fill="#12263f"/>
          </g>
        </g>
        <g id="Grupo_1190770" data-name="Grupo 1190770" transform="translate(206.878 265.634)">
          <g id="Grupo_1190769" data-name="Grupo 1190769" clip-path="url(#clip-path-18)">
            <rect id="Rectángulo_455522" data-name="Rectángulo 455522" width="9.215" height="18.287" transform="translate(-1.215 6.481) rotate(-81.254)" fill="#12263f"/>
          </g>
        </g>
        <g id="Grupo_1190772" data-name="Grupo 1190772" transform="translate(205.979 207.985)">
          <g id="Grupo_1190771" data-name="Grupo 1190771" clip-path="url(#clip-path-19)">
            <rect id="Rectángulo_455523" data-name="Rectángulo 455523" width="14.911" height="61.396" fill="url(#linear-gradient-5)"/>
          </g>
        </g>
        <g id="Grupo_1190774" data-name="Grupo 1190774" transform="translate(157.926 95.38)">
          <g id="Grupo_1190773" data-name="Grupo 1190773" clip-path="url(#clip-path-20)">
            <rect id="Rectángulo_455524" data-name="Rectángulo 455524" width="61.421" height="64.924" transform="translate(-16.392 5.708) rotate(-19.263)" fill="url(#linear-gradient-6)"/>
          </g>
        </g>
        <g id="Grupo_1190776" data-name="Grupo 1190776" transform="translate(194.784 132.004)">
          <g id="Grupo_1190775" data-name="Grupo 1190775" clip-path="url(#clip-path-21)">
            <rect id="Rectángulo_455525" data-name="Rectángulo 455525" width="46.316" height="47.561" transform="matrix(0.799, -0.602, 0.602, 0.799, -17.83, 13.293)" fill="url(#linear-gradient-7)"/>
          </g>
        </g>
        <g id="Grupo_1190778" data-name="Grupo 1190778" transform="translate(202.963 165.687)">
          <g id="Grupo_1190777" data-name="Grupo 1190777" clip-path="url(#clip-path-22)">
            <rect id="Rectángulo_455526" data-name="Rectángulo 455526" width="66.522" height="57.269" transform="translate(-26.674 43.683) rotate(-60.509)" fill="#743320"/>
          </g>
        </g>
        <g id="Grupo_1190780" data-name="Grupo 1190780" transform="translate(212.722 119.113)">
          <g id="Grupo_1190779" data-name="Grupo 1190779" clip-path="url(#clip-path-23)">
            <rect id="Rectángulo_455527" data-name="Rectángulo 455527" width="12.139" height="18.545" transform="translate(-3.37 0.65) rotate(-11.237)" fill="url(#linear-gradient-8)"/>
          </g>
        </g>
        <g id="Grupo_1190782" data-name="Grupo 1190782" transform="translate(208.364 107.217)">
          <g id="Grupo_1190781" data-name="Grupo 1190781" clip-path="url(#clip-path-24)">
            <rect id="Rectángulo_455528" data-name="Rectángulo 455528" width="22.743" height="21.205" transform="translate(-4.943 0.207) rotate(-5.968)" fill="url(#linear-gradient-9)"/>
          </g>
        </g>
        <g id="Grupo_1190784" data-name="Grupo 1190784" transform="translate(209.352 103.472)">
          <g id="Grupo_1190783" data-name="Grupo 1190783" clip-path="url(#clip-path-25)">
            <rect id="Rectángulo_455529" data-name="Rectángulo 455529" width="45.796" height="62.25" transform="translate(-0.442 0)" fill="#12263f"/>
          </g>
        </g>
        <g id="Grupo_1190792" data-name="Grupo 1190792" transform="translate(0 0)">
          <g id="Grupo_1190791" data-name="Grupo 1190791" clip-path="url(#clip-path-3)">
            <g id="Grupo_1190787" data-name="Grupo 1190787" transform="translate(241.331 129.649)" opacity="0.6">
              <g id="Grupo_1190786" data-name="Grupo 1190786">
                <g id="Grupo_1190785" data-name="Grupo 1190785" clip-path="url(#clip-path-27)">
                  <path id="Trazado_998728" data-name="Trazado 998728" d="M2476.543,1344.206a.223.223,0,0,0,.242-.136c1.854-4.381,2.015-8.209.476-11.377-2.554-5.257-9-6.845-9.068-6.86a.228.228,0,0,0-.267.171.225.225,0,0,0,.164.273c.063.015,6.317,1.558,8.776,6.625,1.476,3.041,1.313,6.739-.487,10.988a.229.229,0,0,0,.115.3.239.239,0,0,0,.05.015" transform="translate(-2467.919 -1325.826)" fill="#fff"/>
                </g>
              </g>
            </g>
            <g id="Grupo_1190790" data-name="Grupo 1190790" transform="translate(210.976 112.745)" opacity="0.72">
              <g id="Grupo_1190789" data-name="Grupo 1190789">
                <g id="Grupo_1190788" data-name="Grupo 1190788" clip-path="url(#clip-path-28)">
                  <path id="Trazado_998729" data-name="Trazado 998729" d="M2157.63,1152.97c.1.119.2.24.316.367a23.092,23.092,0,0,0,4.336,3.361c2.5,1.646,4.849,3.2,4.6,5.087-.006.044-.06.054-.12.022a.235.235,0,0,1-.035-.023.147.147,0,0,1-.065-.114c.232-1.755-1.933-3.182-4.438-4.835a23.368,23.368,0,0,1-4.422-3.434c-.107-.118-.205-.232-.3-.343l.125-.087" transform="translate(-2157.504 -1152.97)" fill="#fff"/>
                </g>
              </g>
            </g>
          </g>
        </g>
      </g>
    </g>
  </g>
</svg>
