<svg xmlns="http://www.w3.org/2000/svg" xmlns:xlink="http://www.w3.org/1999/xlink" width="150" height="150" viewBox="0 0 150 150">
  <defs>
    <clipPath id="clip-path">
      <rect id="Rectángulo_455534" data-name="Rectángulo 455534" width="61.888" height="76.123" fill="#674a11"/>
    </clipPath>
  </defs>
  <g id="Grupo_1177833" data-name="Grupo 1177833" transform="translate(-383.746 -8400)">
    <circle id="Elipse_13609" data-name="Elipse 13609" cx="75" cy="75" r="75" transform="translate(383.746 8400)" fill="#fff"/>
    <g id="Grupo_1190797" data-name="Grupo 1190797" transform="translate(427.802 8436.938)">
      <g id="Grupo_1190796" data-name="Grupo 1190796" clip-path="url(#clip-path)">
        <path id="Trazado_998730" data-name="Trazado 998730" d="M60.327,76.123H17.153A1.612,1.612,0,0,1,15.7,74.464l-.058-6.154L9.5,68.268a1.635,1.635,0,0,1-1.665-1.71L7.8,60.536,1.92,60.523A1.8,1.8,0,0,1,0,58.64L0,1.713A1.64,1.64,0,0,1,1.67,0L44.74.011a1.6,1.6,0,0,1,1.446,1.654l.059,6.162,6.136.036c2.9.017,1.169,5.468,1.752,7.782l6.082.035a1.67,1.67,0,0,1,1.673,1.812l0,56.919a1.614,1.614,0,0,1-1.557,1.713M9.683,7.859l33.189-.023-.04-4.482-39.5.005,0,53.685a34.825,34.825,0,0,0,4.474.058L7.85,9.357c0-.952.841-1.5,1.833-1.5m7.66,7.824,33.3-.034a27.437,27.437,0,0,0-.057-4.464l-39.4.007.013,53.736,4.482-.03,0-47.148c0-1.069.342-2.066,1.65-2.067M58.559,19H19V72.792H58.559Z" transform="translate(0 0)" fill="#674a11"/>
        <path id="Trazado_998731" data-name="Trazado 998731" d="M115.854,138.973l-26.827,0a1.735,1.735,0,0,1-1.588-1.686,1.684,1.684,0,0,1,1.822-1.688l26.533,0a1.617,1.617,0,0,1,1.722,1.417,1.675,1.675,0,0,1-1.662,1.954" transform="translate(-63.713 -98.805)" fill="#674a11"/>
        <path id="Trazado_998732" data-name="Trazado 998732" d="M162.258,213.174a1.676,1.676,0,0,1-.045,2.153,1.7,1.7,0,0,1-2.206.206l-4.015-3.91-4.005,3.869a1.654,1.654,0,0,1-2.2-.113,1.623,1.623,0,0,1-.109-2.178l3.873-4.07-3.6-3.582a1.739,1.739,0,0,1-.214-2.442,1.66,1.66,0,0,1,2.432-.053l3.791,3.721c1.765-1.149,4.334-5.7,6.177-3.766,1.906,2-2.368,4.244-3.746,6.207Z" transform="translate(-108.788 -147.578)" fill="#674a11"/>
        <path id="Trazado_998733" data-name="Trazado 998733" d="M115.937,169.343l-26.682.021a1.674,1.674,0,1,1,0-3.338l26.564.01a1.616,1.616,0,0,1,1.71,1.558,1.575,1.575,0,0,1-1.59,1.749" transform="translate(-63.718 -120.976)" fill="#674a11"/>
        <path id="Trazado_998734" data-name="Trazado 998734" d="M115.933,108.483l-26.676,0a1.726,1.726,0,0,1-1.809-1.6,1.69,1.69,0,0,1,1.8-1.778l26.55.005a1.643,1.643,0,0,1,1.725,1.536,1.708,1.708,0,0,1-1.594,1.843" transform="translate(-63.717 -76.58)" fill="#674a11"/>
        <path id="Trazado_998735" data-name="Trazado 998735" d="M97.159,199.788l-7.887.027a1.7,1.7,0,1,1-.043-3.388l7.855.009a1.678,1.678,0,0,1,1.707,1.45,1.631,1.631,0,0,1-1.632,1.9" transform="translate(-63.707 -143.127)" fill="#674a11"/>
      </g>
    </g>
  </g>
</svg>
