<svg xmlns="http://www.w3.org/2000/svg" xmlns:xlink="http://www.w3.org/1999/xlink" width="150" height="150" viewBox="0 0 150 150">
  <defs>
    <clipPath id="clip-path">
      <rect id="Rectángulo_455541" data-name="Rectángulo 455541" width="86.192" height="86.17" fill="#674a11"/>
    </clipPath>
  </defs>
  <g id="Grupo_1177835" data-name="Grupo 1177835" transform="translate(-383.746 -8400)">
    <circle id="Elipse_13609" data-name="Elipse 13609" cx="75" cy="75" r="75" transform="translate(383.746 8400)" fill="#fff"/>
    <g id="Grupo_1190802" data-name="Grupo 1190802" transform="translate(415.65 8431.915)">
      <g id="Grupo_1190801" data-name="Grupo 1190801" clip-path="url(#clip-path)">
        <path id="Trazado_998743" data-name="Trazado 998743" d="M133.832,46.871l.19,13.62c3.789,3.031.916,3.5,4.936,6.3.8-5.959,3.693-10.98,8.77-14.069a27.327,27.327,0,0,0,.045-4.213,7.4,7.4,0,0,0-2.11.784,8.336,8.336,0,0,1-11.755-7.6l-.031-7.459-3.355-1.8c3.5-4.86,3.578-8.143,3.315-13.98A9.71,9.71,0,0,1,138.074,0L151.43.021C161.881.038,170.541,7.9,172.435,17.83a22.026,22.026,0,0,1-13.477,24.651,9.933,9.933,0,0,0,2.488,7.2c4.4,4.872,5.851,10.883,5.942,17.3.109,7.741-3.843,14.662-10.786,17.691a18.1,18.1,0,0,1-20.6-4.472L122.283,65.559a7.678,7.678,0,0,1,.822-11.606l2.39-1.794c.441-2.238-1.162-7.677,2.837-7.674l2.835,0a2.584,2.584,0,0,1,2.665,2.384M153.425,14.4a8.258,8.258,0,0,1,5.527,7.817,5.964,5.964,0,0,1,5.529,6.238,6.192,6.192,0,0,1-5.515,5.941l.027,4.964A19.119,19.119,0,0,0,169.5,17.416,19.469,19.469,0,0,0,150.32,2.748H138.35a6.99,6.99,0,0,0-7.206,6.825,6.915,6.915,0,0,0,6.926,7.085l9.752-.006a2.767,2.767,0,0,0,2.75-2.89,2.8,2.8,0,0,0-2.717-2.673,10.663,10.663,0,0,1,.044-2.732c3.28.021,5.559,2.676,5.526,6.044m-.593,28.86a17.374,17.374,0,0,1,1.01,2.428l-3.224,1.546a17.131,17.131,0,0,0,.139,4.025,18.914,18.914,0,0,1,7.419-1.267,13.409,13.409,0,0,1-2.025-7.2l.043-10.509,3.28-.887a3.187,3.187,0,0,0,2.215-3.458,2.991,2.991,0,0,0-2.764-2.9l-2.732-.062-.053-3.04a5.364,5.364,0,0,0-3.678-4.951,5.9,5.9,0,0,1-4.931,2.469l-10.929.019a20.88,20.88,0,0,1-2.073,11.908c.816.488,1.49.663,2.135,1.15l.045,6.38,5.555-.014a2.827,2.827,0,0,0,2.779-2.734,12.177,12.177,0,0,1,2.728.038,5.378,5.378,0,0,1-5.239,5.464l-5.793.066a5.312,5.312,0,0,0,2.13,4.367,5.165,5.165,0,0,0,5.013.855Zm-21.72,16.379.024-12.368-2.825.007.179,11.577c.015.984,1.825,1.11,2.622.785m27.835,1.532c-.068,3.18.117,6.177-.15,9.305l5.027,2.1a17.767,17.767,0,0,0,.685-5.873,21.469,21.469,0,0,0-4.027-13.758c-8.4-1.249-16.341,3.425-18.261,11.781-.363,1.582-.69,3.038-.945,4.587l3.635,3.652a6.532,6.532,0,0,0,7.232,1.585,6.406,6.406,0,0,0,4-5.886l.014-7.5ZM143.086,75.066c-3.049-3.124-6.218-5.961-9.074-9.234-.488-.727-.109-2.066-.991-2.592a4.243,4.243,0,0,0-2.728-.7,4.255,4.255,0,0,1-4.737-4.428,11.466,11.466,0,0,0-.067-2.368,4.885,4.885,0,0,0-1.091,7.985L138.261,78.5a15.073,15.073,0,0,0,24.483-3.218l-4.968-2.167a9.43,9.43,0,0,1-6.7,4.609,9.147,9.147,0,0,1-7.986-2.656" transform="translate(-86.645 0.001)" fill="#674a11"/>
        <path id="Trazado_998744" data-name="Trazado 998744" d="M202.781,91.347a1.367,1.367,0,1,1-1.368-1.368,1.368,1.368,0,0,1,1.368,1.368" transform="translate(-144.416 -64.957)" fill="#674a11"/>
        <path id="Trazado_998745" data-name="Trazado 998745" d="M25.038,162.161c-.052,2,.287,4.006-1.743,5.115A3.126,3.126,0,0,1,19.634,167l-4.951-4.817-11.652,0A2.859,2.859,0,0,1,0,159.37l0-16.676a2.807,2.807,0,0,1,3.051-2.79l24.741.022a2.729,2.729,0,0,1,2.773,2.761l0,16.684a2.751,2.751,0,0,1-2.764,2.783Zm-2.8,1.81.008-4.591,5.553-.011L27.8,142.7H2.766l.006,16.686,13.085,0,5.409,5.365c.293.113.522.2.692.034a1.052,1.052,0,0,0,.277-.816" transform="translate(0 -100.999)" fill="#674a11"/>
        <path id="Trazado_998746" data-name="Trazado 998746" d="M46.862,169.9c-.3.912-1.1,1.338-1.768,2.061l-3.244-3.027-3.1,2.992A8.138,8.138,0,0,1,36.8,170.1l2.985-3.234-2.957-3.1a4.7,4.7,0,0,1,1.922-1.925l3.1,2.964,3.1-2.962a4.7,4.7,0,0,1,1.927,1.924l-2.962,3.1Z" transform="translate(-26.569 -116.836)" fill="#674a11"/>
        <path id="Trazado_998747" data-name="Trazado 998747" d="M55.038,52.161c-.006,2.133.219,4.347-2.1,5.291a3.388,3.388,0,0,1-3.759-.822l-4.49-4.458-11.657.012A2.859,2.859,0,0,1,30,49.37l0-16.676a2.807,2.807,0,0,1,3.051-2.789l24.741.022a2.729,2.729,0,0,1,2.773,2.761l0,16.684a2.751,2.751,0,0,1-2.764,2.783Zm-2.8,1.81.008-4.591,5.553-.011L57.8,32.7H32.766l.006,16.686,13.085,0,5.409,5.365c.293.113.522.2.692.034a1.052,1.052,0,0,0,.277-.816" transform="translate(-21.657 -21.589)" fill="#674a11"/>
        <path id="Trazado_998748" data-name="Trazado 998748" d="M61.689,59.275a9.665,9.665,0,0,1,1.81-1.868c.834.3,1.077,1.087,1.932,1.567l7.195-7.14A4.427,4.427,0,0,1,74.586,53.8L65.4,62.969Z" transform="translate(-44.534 -37.42)" fill="#674a11"/>
      </g>
    </g>
  </g>
</svg>
